<svg xmlns="http://www.w3.org/2000/svg" width="41.01" height="43.164"><g data-name="Group 3150" fill="#fff"><path d="M25.389 0a.958.958 0 00-.958.958.958.958 0 01-.958.958H19.64a.958.958 0 01-.958-.958.958.958 0 00-.958-.958h-4.79a.958.958 0 00-.958.958.958.958 0 01-.958.958H7.186a.958.958 0 01-.958-.958A.958.958 0 005.269 0H0v28.263h2.874a.958.958 0 01.958.958.958.958 0 00.958.958h8.623a.958.958 0 00.958-.958.958.958 0 111.916 0 .958.958 0 00.958.958h8.623a.958.958 0 00.958-.958.958.958 0 01.958-.958h2.874V0zM1.437 26.826V1.437h2.874a.479.479 0 01.479.479v24.91zm11.5 1.437a.479.479 0 01-.479.479h-6.71a.479.479 0 01-.479-.479V3.353h7.665zm.479-1.437V1.916a.479.479 0 01.479-.479h2.874a.479.479 0 01.479.479v24.91zm11.976 1.437a.479.479 0 01-.479.479H18.2a.479.479 0 01-.479-.479V3.353h7.665zm3.832-1.437h-3.356V1.916a.479.479 0 01.479-.479h2.874z"/><path data-name="square-tile72" d="M34.966 8.547a1.1 1.1 0 00-1.1 1.1 1.1 1.1 0 01-1.1 1.1h-4.4a1.1 1.1 0 01-1.1-1.1 1.1 1.1 0 00-1.1-1.1H20.68a1.1 1.1 0 00-1.1 1.1 1.1 1.1 0 01-1.1 1.1h-4.4a1.1 1.1 0 01-1.1-1.1 1.1 1.1 0 00-1.1-1.1H5.844v32.419h3.3a1.1 1.1 0 011.1 1.1 1.1 1.1 0 001.1 1.1h9.891a1.1 1.1 0 001.1-1.1 1.1 1.1 0 112.2 0 1.1 1.1 0 001.1 1.1h9.891a1.1 1.1 0 001.1-1.1 1.1 1.1 0 011.1-1.1h3.3V8.547zM7.492 39.318V10.195h3.3a.549.549 0 01.549.549v28.574zm13.188 1.648a.549.549 0 01-.549.549h-7.693a.549.549 0 01-.549-.549V12.393h8.792zm.549-1.648V10.747a.549.549 0 01.549-.549h3.3a.549.549 0 01.549.549v28.571zm13.737 1.648a.549.549 0 01-.549.549h-7.693a.549.549 0 01-.549-.549V12.393h8.792zm4.4-1.648h-3.85V10.747a.549.549 0 01.549-.549h3.3z"/></g></svg>