<svg xmlns="http://www.w3.org/2000/svg" width="25.988" height="25.582"><path d="M21.521 0a.812.812 0 00-.812.812.812.812 0 01-.812.812h-3.249a.812.812 0 01-.812-.812.812.812 0 00-.812-.812h-4.06a.812.812 0 00-.812.812.812.812 0 01-.812.812H6.091a.812.812 0 01-.812-.812A.812.812 0 004.467 0H0v23.957h2.436a.812.812 0 01.812.812.812.812 0 00.812.812h7.31a.812.812 0 00.812-.812.812.812 0 111.624 0 .812.812 0 00.812.812h7.309a.812.812 0 00.812-.812.812.812 0 01.812-.812h2.436V0zM1.218 22.739V1.218h2.437a.406.406 0 01.406.406v21.115zm9.745 1.218a.406.406 0 01-.406.406H4.873a.406.406 0 01-.406-.406V2.842h6.5zm.406-1.218V1.624a.406.406 0 01.406-.406h2.436a.406.406 0 01.406.406v21.115zm10.151 1.218a.406.406 0 01-.406.406H15.43a.406.406 0 01-.406-.406V2.842h6.5zm3.248-1.218h-2.841V1.624a.406.406 0 01.406-.406h2.436z" fill="#fff"/></svg>