<svg xmlns="http://www.w3.org/2000/svg" viewBox="0 0 292.831 90">
    <g transform="translate(102.605 30.896)">
        <path fill="#009fe3" d="M396.243,286.6h6.885L413.2,314.139h-6.8l-2.1-6.3h-9.655l-2.1,6.3H386Zm6.549,16.456-3.358-10.411-3.442,10.411Z" transform="translate(-386 -286.6)"/>
        <path fill="#009fe3" d="M420.284,286.6h5.961v14.273l5.877-6.129h6.717l-6.969,7.137,7.892,12.174h-6.885l-4.954-8.144-1.763,1.763v6.381H420.2V286.6Z" transform="translate(-391.486 -286.6)"/>
        <path fill="#009fe3" d="M456.026,313.8a6.821,6.821,0,0,1-2.519,1.763,8.553,8.553,0,0,1-3.358.588,10.257,10.257,0,0,1-2.183-.252,5.389,5.389,0,0,1-2.1-1.008,4.914,4.914,0,0,1-1.6-1.847,5.975,5.975,0,0,1-.672-2.855,7.242,7.242,0,0,1,.672-3.022,6.582,6.582,0,0,1,1.847-2.183,8.995,8.995,0,0,1,2.855-1.343,11.955,11.955,0,0,1,3.526-.42h2.1c.672,0,1.175.084,1.343.084v-.42a2.4,2.4,0,0,0-1.175-2.1,2.944,2.944,0,0,0-1.175-.5,7.391,7.391,0,0,0-1.427-.168,8.942,8.942,0,0,0-3.274.5,10.575,10.575,0,0,0-2.183,1.091l-2.435-3.61a10.526,10.526,0,0,1,1.427-.924,9.411,9.411,0,0,1,1.847-.84,18.041,18.041,0,0,1,5.541-.84c2.939,0,5.121.756,6.549,2.351a9.146,9.146,0,0,1,2.1,6.381v11.251h-5.541Zm0-6.8c-.168,0-.42-.084-.756-.084-.42,0-.84-.084-1.343-.084a7.01,7.01,0,0,0-3.526.672,2.292,2.292,0,0,0-1.008,2.015c0,1.6.924,2.351,2.855,2.351a3.481,3.481,0,0,0,1.343-.252,3.3,3.3,0,0,0,1.175-.672,3.36,3.36,0,0,0,.84-1.008,2.76,2.76,0,0,0,.336-1.427V307Z" transform="translate(-395.24 -288.028)"/>
        <path fill="#009fe3" d="M482.305,312.224a5.621,5.621,0,0,1-2.351,1.763,6.738,6.738,0,0,1-3.274.756,9.213,9.213,0,0,1-3.358-.672,9.034,9.034,0,0,1-2.687-2.015,9.37,9.37,0,0,1-1.763-3.107,12.805,12.805,0,0,1-.672-4.114,10.343,10.343,0,0,1,3.274-7.808,10.86,10.86,0,0,1,3.274-1.931,10.49,10.49,0,0,1,3.526-.672,13.534,13.534,0,0,1,2.183.168,5.853,5.853,0,0,1,1.6.5v-8.4h5.877v27.539h-5.541Zm-.084-12.09a3.711,3.711,0,0,0-1.343-.5,10.481,10.481,0,0,0-1.763-.168,4.337,4.337,0,0,0-3.526,1.511,6.011,6.011,0,0,0-1.259,3.946,5.583,5.583,0,0,0,1.008,3.442,3.527,3.527,0,0,0,3.106,1.343,3.33,3.33,0,0,0,1.679-.336,3.2,3.2,0,0,0,1.175-.924,4.039,4.039,0,0,0,.672-1.343,5.167,5.167,0,0,0,.168-1.6v-5.373Z" transform="translate(-399.186 -286.616)"/>
        <path fill="#009fe3" d="M514.243,313.5a10.285,10.285,0,0,0-1.008.672,10.03,10.03,0,0,1-1.679.924,12.589,12.589,0,0,1-2.519.84,13.091,13.091,0,0,1-3.274.336,12.365,12.365,0,0,1-4.45-.756,9.141,9.141,0,0,1-3.358-2.1,9.531,9.531,0,0,1-2.1-3.274,11.315,11.315,0,0,1-.756-4.2,11.659,11.659,0,0,1,.672-3.862,9.933,9.933,0,0,1,1.931-3.274,10.591,10.591,0,0,1,3.107-2.267,9.621,9.621,0,0,1,4.2-.84,9.007,9.007,0,0,1,4.114.84,10.208,10.208,0,0,1,3.023,2.267,10.106,10.106,0,0,1,1.847,3.526,15.019,15.019,0,0,1,.588,4.45v1.008H500.893a3.959,3.959,0,0,0,1.343,2.771,5.564,5.564,0,0,0,3.694,1.175,9.816,9.816,0,0,0,3.778-.672,10.938,10.938,0,0,0,2.1-1.175Zm-5.205-9.571a3.369,3.369,0,0,0-.252-1.259,3.52,3.52,0,0,0-.756-1.175,4.891,4.891,0,0,0-1.259-.924,3.894,3.894,0,0,0-1.763-.336,4.518,4.518,0,0,0-1.847.336,4.057,4.057,0,0,0-2.015,2.1,3.37,3.37,0,0,0-.252,1.259Z" transform="translate(-403.501 -288.06)"/>
        <path fill="#009fe3" d="M521.4,296.32h5.709l.168,2.183a6.587,6.587,0,0,1,2.351-1.847,6.737,6.737,0,0,1,3.274-.756,8.459,8.459,0,0,1,2.1.252,7.012,7.012,0,0,1,1.6.672,14.242,14.242,0,0,1,1.176.84,8.355,8.355,0,0,1,.84.924,8.316,8.316,0,0,1,2.939-2.015,8.77,8.77,0,0,1,3.526-.672,7.48,7.48,0,0,1,5.709,2.1,7.859,7.859,0,0,1,1.931,5.709V315.63h-5.961v-11a4.26,4.26,0,0,0-.756-2.687,2.6,2.6,0,0,0-2.267-.924,3.546,3.546,0,0,0-2.771,1.175,4.689,4.689,0,0,0-1.008,3.023V315.63h-5.709v-11a4.261,4.261,0,0,0-.756-2.687,2.6,2.6,0,0,0-2.267-.924,3.807,3.807,0,0,0-2.771,1.175,4.754,4.754,0,0,0-1.091,3.023V315.63H521.4V296.32Z" transform="translate(-407.719 -288.092)"/>
        <path fill="#009fe3" d="M562.8,286.6h6.381v5.289H562.8Zm.252,8.228h5.961v19.311h-5.961Z" transform="translate(-414.36 -286.6)"/>
        <path fill="#009fe3" d="M592.643,313.5a10.293,10.293,0,0,0-1.008.672,10.027,10.027,0,0,1-1.679.924,12.593,12.593,0,0,1-2.519.84,13.092,13.092,0,0,1-3.274.336,12.366,12.366,0,0,1-4.45-.756,9.141,9.141,0,0,1-3.358-2.1,9.531,9.531,0,0,1-2.1-3.274,11.317,11.317,0,0,1-.756-4.2,11.659,11.659,0,0,1,.672-3.862,9.93,9.93,0,0,1,1.931-3.274,10.591,10.591,0,0,1,3.107-2.267,9.62,9.62,0,0,1,4.2-.84,9.007,9.007,0,0,1,4.114.84,10.206,10.206,0,0,1,3.023,2.267,10.1,10.1,0,0,1,1.847,3.526,15.019,15.019,0,0,1,.588,4.45v1.008H579.209a3.959,3.959,0,0,0,1.343,2.771,5.564,5.564,0,0,0,3.694,1.175,9.816,9.816,0,0,0,3.778-.672,10.943,10.943,0,0,0,2.1-1.175Zm-5.205-9.571a3.368,3.368,0,0,0-.252-1.259,3.521,3.521,0,0,0-.756-1.175,4.894,4.894,0,0,0-1.259-.924,3.894,3.894,0,0,0-1.763-.336,4.519,4.519,0,0,0-1.847.336,4.059,4.059,0,0,0-2.015,2.1,3.37,3.37,0,0,0-.252,1.259Z" transform="translate(-416.077 -288.06)"/>
    </g>
    <g id="BMI_Block">
    <rect fill="#009fe3" width="90" height="90"/>
    <g transform="translate(11.07 31.42)">
        <path fill="#fff" d="M57.188,34.911l-3.9,16.073H53.21L49.305,34.911H37.329V53.163a6.584,6.584,0,0,0-4.715-6.044,5.628,5.628,0,0,0,3.368-5.358c0-2.79-1.53-6.85-8.724-6.85H12.3V62.234H27.793c4.609,0,9.144-2.59,9.54-7.6v7.6h7.96V44.711h.076l4.74,17.523h6.276l4.745-17.523h.076V62.234h7.96V34.911ZM20.715,41.416h4.44c1.722,0,2.869.5,2.869,1.876,0,1.76-1.11,2.256-2.869,2.256h-4.44Zm4.937,14.31H20.715V50.639H26c1.99,0,2.945.88,2.945,2.487,0,2.105-1.53,2.6-3.289,2.6" transform="translate(-12.3 -34.911)"/>
        <rect fill="#fff" width="8.419" height="27.32" transform="translate(59.452 0.003)"/>
    </g>
    </g>
</svg>
