<?xml version="1.0" encoding="utf-8"?>
<!-- Generator: Adobe Illustrator 26.3.1, SVG Export Plug-In . SVG Version: 6.00 Build 0)  -->
<svg version="1.1" id="Layer_1" xmlns="http://www.w3.org/2000/svg" xmlns:xlink="http://www.w3.org/1999/xlink" x="0px" y="0px"
	 viewBox="0 0 143.8 100" style="enable-background:new 0 0 143.8 100;" xml:space="preserve">
<g id="Everlite">
	<path fill="#149ED9" d="M29.6,65.2H12V34.9h17.4v5.5H18v6.3h10.9v5.5H18v7.3h11.7V65.2z"/>
	<path fill="#149ED9" d="M30.8,44.5h5.4l3.4,11.1L43,44.5h5.3l-7.3,20.6h-2.8L30.8,44.5z"/>
	<path fill="#149ED9" d="M65,62.5c-1.9,1.8-4.5,2.8-7.1,2.7c-5.6,0-9.3-4.1-9.3-10.4c0-6.2,3.5-10.6,8.4-10.6c4.6,0,8.5,4.2,8.3,11.5
		H53.8c0.2,3.6,2.1,5.7,5.3,5.7c2,0,3.6-0.7,5.9-2.9L65,62.5z M60.8,52.3c-0.2-2.8-1.5-4.4-3.5-4.4c-2,0-3.3,1.6-3.5,4.4H60.8z"/>
	<path fill="#149ED9" d="M73.7,50.7L73.7,50.7c1.6-4.2,3.2-6.2,5.2-6.2c1,0,1.9,0.5,3.3,1.8L80.8,52c-1.3-1.1-2.2-1.5-3-1.5
		c-1.8,0-3,2.2-4.1,5.9v8.7h-5V44.9h5L73.7,50.7z"/>
	<path fill="#149ED9" d="M89.3,65.2h-5.1V34.9h5.1V65.2z"/>
	<path fill="#149ED9" d="M97.9,65.2h-5V44.9h5V65.2z M98.2,38.4c0,1.9-1.2,3.5-2.8,3.5s-2.8-1.6-2.8-3.5s1.2-3.5,2.8-3.5
		S98.2,36.5,98.2,38.4z"/>
	<path fill="#149ED9" d="M113.7,48.9h-5.8v8.3c0,2,0.9,3.2,2.5,3.2c1.2,0,2.4-0.5,3.4-1.2v4.6c-1.4,0.8-3,1.3-4.6,1.3
		c-3.3,0-6.2-1.9-6.2-7.6v-8.7h-2.3v-1.2l6.7-9.5h0.6v6.4h5.8V48.9z"/>
	<path fill="#149ED9" d="M131.5,62.5c-1.9,1.8-4.5,2.8-7.1,2.7c-5.6,0-9.3-4.1-9.3-10.4c0-6.2,3.5-10.6,8.4-10.6
		c4.6,0,8.5,4.2,8.3,11.5h-11.5c0.2,3.6,2.1,5.7,5.3,5.7c2,0,3.6-0.7,5.9-2.9L131.5,62.5z M127.4,52.3c-0.2-2.8-1.5-4.4-3.5-4.4
		c-2,0-3.3,1.6-3.5,4.4H127.4z"/>
</g>
</svg>
