<svg id="Solution" xmlns="http://www.w3.org/2000/svg" viewBox="0 0 780 185">
  <g id="Guarantee" fill="#34384f">
    <path d="M286.325,154.178h13.411v15.3a20.58655,20.58655,0,0,1-2.493,1.9,17.39993,17.39993,0,0,1-3.267,1.639,23.69283,23.69283,0,0,1-4.155,1.151,28.0802,28.0802,0,0,1-5.158.432,20.358,20.358,0,0,1-8.052-1.526,17.9,17.9,0,0,1-10.029-10.526,22.8448,22.8448,0,0,1-1.347-7.968,21.90936,21.90936,0,0,1,1.4-7.881,19.66,19.66,0,0,1,3.926-6.414,18.33052,18.33052,0,0,1,6.046-4.314,20.478,20.478,0,0,1,13.268-.864,17.42479,17.42479,0,0,1,4.212,1.841,15.52971,15.52971,0,0,1,3.066,2.445,23.26251,23.26251,0,0,1,2.12,2.532l-3.9,3.336a20.54719,20.54719,0,0,0-1.662-2.042,12.02968,12.02968,0,0,0-2.292-1.927,13.31587,13.31587,0,0,0-3.009-1.439,12.03082,12.03082,0,0,0-3.869-.575,12.97005,12.97005,0,0,0-5.673,1.208,12.679,12.679,0,0,0-4.27,3.28,14.8148,14.8148,0,0,0-2.694,4.86,18.25228,18.25228,0,0,0-.945,5.9,17.31839,17.31839,0,0,0,1.031,6.1,13.99994,13.99994,0,0,0,2.895,4.746,13.327,13.327,0,0,0,9.943,4.229,18.56542,18.56542,0,0,0,5.646-.748,12.44519,12.44519,0,0,0,3.983-2.072v-7.823h-8.139Z"></path>
    <path d="M307.129,146.929h5.158v15.7q0,3.8,1.548,5.494a5.74206,5.74206,0,0,0,4.47,1.7,6.831,6.831,0,0,0,3.7-.92,7.45808,7.45808,0,0,0,2.378-2.387,9.91519,9.91519,0,0,0,1.29-3.336,19.56885,19.56885,0,0,0,.372-3.827V146.929H331.2v25.11q0,.836.057,1.64h-4.929l-.172-3.97a18.5036,18.5036,0,0,1-1.26,1.5,8.48513,8.48513,0,0,1-1.834,1.467,11.80045,11.80045,0,0,1-2.522,1.122,10.7,10.7,0,0,1-3.267.46q-5.216,0-7.68-3.021t-2.464-8.255Z"></path>
    <path d="M355.041,170.457a8.88408,8.88408,0,0,1-3.926,2.991,13.34216,13.34216,0,0,1-5.014.979,12.83606,12.83606,0,0,1-3.3-.432,8.60022,8.60022,0,0,1-2.98-1.438,7.55412,7.55412,0,0,1-2.178-2.588,8.2769,8.2769,0,0,1-.831-3.884,8.647,8.647,0,0,1,3.009-6.9q3.009-2.591,8.682-2.589c.611,0,1.262.019,1.949.057s1.337.077,1.949.115,1.146.078,1.6.115a9.74288,9.74288,0,0,1,.975.115v-.978a4.912,4.912,0,0,0-1.806-4.286,8.26486,8.26486,0,0,0-4.9-1.294,11.51082,11.51082,0,0,0-4.814.834,18.96786,18.96786,0,0,0-2.98,1.7l-2.407-3.51a12.53273,12.53273,0,0,1,1.662-1.151,14.49106,14.49106,0,0,1,2.292-1.064,18.68531,18.68531,0,0,1,2.981-.805,20.699,20.699,0,0,1,3.84-.316q5.157,0,8.109,2.5a8.80008,8.80008,0,0,1,2.952,7.1v16.6c0,.364.018.815.057,1.352h-4.814Zm-.057-9.434c-.153-.038-.45-.087-.889-.144s-.945-.1-1.518-.144-1.185-.076-1.834-.115-1.281-.058-1.891-.058a9.99281,9.99281,0,0,0-3.525.518,5.98706,5.98706,0,0,0-2.121,1.295,4.12385,4.12385,0,0,0-1.06,1.725,6.24271,6.24271,0,0,0-.286,1.813,3.88,3.88,0,0,0,1.49,3.308,6.722,6.722,0,0,0,4.126,1.121,7.82317,7.82317,0,0,0,2.837-.518,8.35324,8.35324,0,0,0,2.379-1.38,7.01259,7.01259,0,0,0,1.662-2.013,4.85793,4.85793,0,0,0,.63-2.359Z"></path>
    <path d="M366.961,173.679V148.6q0-.519-.057-1.669h4.929l.172,4.314a13.71111,13.71111,0,0,1,1.2-1.524,8.979,8.979,0,0,1,1.8-1.525,11.32677,11.32677,0,0,1,2.465-1.178,9.82791,9.82791,0,0,1,3.238-.49,9.93631,9.93631,0,0,1,1.576.116,7.46008,7.46008,0,0,1,1.347.344l-1.146,4.833a7.6,7.6,0,0,0-8.139,1.985,8.539,8.539,0,0,0-1.633,2.617,8.4002,8.4002,0,0,0-.6,3.164v14.094Z"></path>
    <path d="M403.641,170.457a8.88112,8.88112,0,0,1-3.927,2.991,13.33783,13.33783,0,0,1-5.014.979,12.8289,12.8289,0,0,1-3.3-.432,8.61309,8.61309,0,0,1-2.981-1.438,7.55173,7.55173,0,0,1-2.177-2.588,8.2769,8.2769,0,0,1-.831-3.884,8.649,8.649,0,0,1,3.008-6.9q3.009-2.591,8.683-2.589.916,0,1.949.057t1.949.115c.61.039,1.146.078,1.6.115a9.74288,9.74288,0,0,1,.975.115v-.978a4.912,4.912,0,0,0-1.806-4.286,8.26486,8.26486,0,0,0-4.9-1.294,11.50773,11.50773,0,0,0-4.814.834,19.01546,19.01546,0,0,0-2.98,1.7l-2.408-3.51a12.55042,12.55042,0,0,1,1.663-1.151,14.49106,14.49106,0,0,1,2.292-1.064,18.67091,18.67091,0,0,1,2.98-.805,20.71028,20.71028,0,0,1,3.84-.316q5.158,0,8.11,2.5a8.8,8.8,0,0,1,2.951,7.1v16.6q0,.546.058,1.352h-4.815Zm-.057-9.434c-.154-.038-.451-.087-.889-.144s-.945-.1-1.519-.144-1.184-.076-1.834-.115-1.28-.058-1.891-.058a9.99984,9.99984,0,0,0-3.525.518,5.98212,5.98212,0,0,0-2.12,1.295,4.10015,4.10015,0,0,0-1.06,1.725,6.24629,6.24629,0,0,0-.287,1.813,3.882,3.882,0,0,0,1.49,3.308,6.72606,6.72606,0,0,0,4.127,1.121,7.82619,7.82619,0,0,0,2.837-.518,8.34777,8.34777,0,0,0,2.378-1.38,7.00006,7.00006,0,0,0,1.662-2.013,4.859,4.859,0,0,0,.631-2.359Z"></path>
    <path d="M415.561,173.679V148.626c0-.364-.02-.93-.057-1.7h4.928l.172,4.027q.516-.69,1.261-1.524a8.59256,8.59256,0,0,1,1.834-1.525,10.79992,10.79992,0,0,1,2.551-1.15,10.93557,10.93557,0,0,1,3.3-.461q5.214,0,7.737,3.05t2.521,8.283v16.05H434.65V158.031q0-3.738-1.6-5.493a5.82707,5.82707,0,0,0-4.528-1.755,6.976,6.976,0,0,0-3.725.921,7.078,7.078,0,0,0-2.378,2.387,10.69,10.69,0,0,0-1.29,3.337,18.15364,18.15364,0,0,0-.4,3.825v12.426Z"></path>
    <path d="M449.03,151.243h-4.815v-4.314h4.815v-8.744h5.158v8.744h7.794v4.314h-7.794v13.174q0,3.222,1,4.43a3.48,3.48,0,0,0,2.837,1.208,5.7861,5.7861,0,0,0,2.464-.46,7.6338,7.6338,0,0,0,1.949-1.381l2.35,3.164a9.838,9.838,0,0,1-7.566,3.049q-4.242,0-6.218-2.3t-1.977-7.192Z"></path>
    <path d="M491.326,169.767a16.33376,16.33376,0,0,1-1.376,1.323,11.5439,11.5439,0,0,1-2.378,1.553,18.20018,18.20018,0,0,1-3.439,1.294,16.88817,16.88817,0,0,1-4.5.547,15.0729,15.0729,0,0,1-5.673-1.036,12.55607,12.55607,0,0,1-4.414-2.933,13.1638,13.1638,0,0,1-2.836-4.544,16.4328,16.4328,0,0,1-1-5.869,15.328,15.328,0,0,1,.973-5.494A12.9847,12.9847,0,0,1,479,146.124a12.32,12.32,0,0,1,5.9,1.323,11.7697,11.7697,0,0,1,4.04,3.509,15.04809,15.04809,0,0,1,2.321,5.005,22.89417,22.89417,0,0,1,.745,5.867H470.98a8.10031,8.10031,0,0,0,.774,3.279,8.30009,8.30009,0,0,0,1.919,2.589,9.29307,9.29307,0,0,0,2.751,1.726,8.537,8.537,0,0,0,3.267.633,11.84414,11.84414,0,0,0,5.56-1.151,11.355,11.355,0,0,0,3.152-2.244Zm-4.643-11.792a8.683,8.683,0,0,0-2.178-5.293A6.984,6.984,0,0,0,479,150.5a8.205,8.205,0,0,0-3.3.633,7.90034,7.90034,0,0,0-2.494,1.668,7.487,7.487,0,0,0-1.6,2.387,7.88388,7.88388,0,0,0-.631,2.791Z"></path>
    <path d="M522.045,169.767a16.33175,16.33175,0,0,1-1.376,1.323,11.601,11.601,0,0,1-2.378,1.553,18.19867,18.19867,0,0,1-3.439,1.294,16.88832,16.88832,0,0,1-4.5.547,15.08178,15.08178,0,0,1-5.674-1.036,12.56133,12.56133,0,0,1-4.413-2.933,13.16585,13.16585,0,0,1-2.837-4.544,16.43258,16.43258,0,0,1-1-5.869,15.32824,15.32824,0,0,1,.974-5.494,12.98494,12.98494,0,0,1,12.322-8.484,12.32389,12.32389,0,0,1,5.9,1.323,11.77,11.77,0,0,1,4.04,3.509,15.06833,15.06833,0,0,1,2.321,5.005,22.89382,22.89382,0,0,1,.745,5.867H501.7a8.112,8.112,0,0,0,.773,3.279,8.29976,8.29976,0,0,0,1.92,2.589,9.2933,9.2933,0,0,0,2.751,1.726,8.52894,8.52894,0,0,0,3.267.633,11.83688,11.83688,0,0,0,5.559-1.151,11.3622,11.3622,0,0,0,3.153-2.244ZM517.4,157.975a8.68306,8.68306,0,0,0-2.178-5.293,6.98706,6.98706,0,0,0-5.5-2.186,8.21207,8.21207,0,0,0-3.295.633,7.90578,7.90578,0,0,0-2.493,1.668,7.48709,7.48709,0,0,0-1.6,2.387,7.8841,7.8841,0,0,0-.631,2.791Z"></path>
  </g>
  <g id="Solution" fill="#34384f">
    <path d="M274.684,81.409a45.624,45.624,0,0,0,4.373,4.156,36.72534,36.72534,0,0,0,5.592,3.866,32.34837,32.34837,0,0,0,6.739,2.843,27.09989,27.09989,0,0,0,7.814,1.095,16.90909,16.90909,0,0,0,4.875-.729,15.638,15.638,0,0,0,4.445-2.116,11.26806,11.26806,0,0,0,3.226-3.353,8.293,8.293,0,0,0,1.219-4.449q0-5.392-5.162-8.386T291.46,68.43a42.66371,42.66371,0,0,1-10.109-3.792,31.67013,31.67013,0,0,1-8.03-5.98,25.39973,25.39973,0,0,1-5.233-8.021,26.148,26.148,0,0,1-1.863-10.063,30.82647,30.82647,0,0,1,2.15-11.521A26.7149,26.7149,0,0,1,274.9,19.5a31.28914,31.28914,0,0,1,10.9-6.563,44.53105,44.53105,0,0,1,15.413-2.406,49.07807,49.07807,0,0,1,12.9,1.531,46.038,46.038,0,0,1,9.535,3.646,32.90893,32.90893,0,0,1,6.452,4.375q2.508,2.264,3.8,3.573l-12.473,14q-1.581-1.312-3.657-2.844a33.29714,33.29714,0,0,0-4.66-2.844,31.36156,31.36156,0,0,0-5.663-2.187,23.77057,23.77057,0,0,0-6.524-.875,14.39959,14.39959,0,0,0-4.517.729,15.58066,15.58066,0,0,0-4.015,1.968,10.33292,10.33292,0,0,0-2.867,2.918,6.50615,6.50615,0,0,0-1.075,3.572q0,4.961,5.161,8.021t14.195,5.1A62.67323,62.67323,0,0,1,318.2,54.794a34.00976,34.00976,0,0,1,9.105,5.906,27.33923,27.33923,0,0,1,6.452,8.969A30.8871,30.8871,0,0,1,336.2,82.576a25.95491,25.95491,0,0,1-2.868,12.105,30.64789,30.64789,0,0,1-7.814,9.625,36.40624,36.40624,0,0,1-11.614,6.345,44.66011,44.66011,0,0,1-14.41,2.26,56.96652,56.96652,0,0,1-13.048-1.386,52.56954,52.56954,0,0,1-10.61-3.645,47.68639,47.68639,0,0,1-8.536-5.18,46.7588,46.7588,0,0,1-6.524-5.98Z"></path>
    <path d="M343.88,76.16a38.04245,38.04245,0,0,1,2.644-14.22,35.96956,35.96956,0,0,1,7.361-11.595,33.87889,33.87889,0,0,1,11.363-7.8A36.857,36.857,0,0,1,379.9,39.7a36.355,36.355,0,0,1,14.579,2.843,34.0721,34.0721,0,0,1,11.291,7.8,36.00005,36.00005,0,0,1,7.361,11.6,39.55608,39.55608,0,0,1,0,28.438,35.95022,35.95022,0,0,1-7.361,11.6,34.93516,34.93516,0,0,1-11.291,7.874,35.578,35.578,0,0,1-14.579,2.918,36.068,36.068,0,0,1-14.651-2.918,34.72407,34.72407,0,0,1-11.363-7.874,35.916,35.916,0,0,1-7.361-11.595A38.01784,38.01784,0,0,1,343.88,76.16ZM379.9,94.535A14.884,14.884,0,0,0,386.759,93a15.16589,15.16589,0,0,0,5.074-4.157,17.86629,17.86629,0,0,0,3.073-5.906,23.47506,23.47506,0,0,0,0-13.564,17.08474,17.08474,0,0,0-3.073-5.833,15.58936,15.58936,0,0,0-5.074-4.083,14.884,14.884,0,0,0-6.86-1.532,15.33,15.33,0,0,0-6.933,1.532,14.63015,14.63015,0,0,0-5.074,4.083,18.84669,18.84669,0,0,0-3.073,5.833,21.98889,21.98889,0,0,0,0,13.564,19.76835,19.76835,0,0,0,3.073,5.906A14.26275,14.26275,0,0,0,372.966,93,15.32987,15.32987,0,0,0,379.9,94.535Z"></path>
    <path d="M424.65,13.157h20.113v97.274H424.65Z"></path>
    <path d="M456.131,42.033h20.914V81.409q0,5.836,2.832,9.189t8.35,3.353a12.44507,12.44507,0,0,0,5.664-1.239,13.27215,13.27215,0,0,0,4.211-3.281,13.56978,13.56978,0,0,0,2.615-4.813,18.83393,18.83393,0,0,0,.871-5.687v-36.9h20.769v68.4H502.314l-.58-7.291a25.469,25.469,0,0,1-8.787,6.489,26.58023,26.58023,0,0,1-11.4,2.553q-11.762,0-18.589-7t-6.826-20.71Z"></path>
    <path d="M541.227,58.513H530.7V42.033h10.531V19.574h20.5V42.033h17.221v16.48H561.723v26.98q0,4.96,1.92,7.656t6.049,2.7a12.391,12.391,0,0,0,5.409-1.093,27.199,27.199,0,0,0,4.271-2.552l8.254,12.833q-9.679,7.875-21.064,7.876a29.89093,29.89093,0,0,1-11.956-2.115,20.17186,20.17186,0,0,1-7.827-5.834,22.66939,22.66939,0,0,1-4.271-8.969,49.3,49.3,0,0,1-1.281-11.666Z"></path>
    <path d="M593.334,13.157h22.524V31.97H593.334Zm.732,28.876h21.061v68.4H594.066Z"></path>
    <path d="M624.026,76.16a37.83519,37.83519,0,0,1,2.661-14.22A35.94072,35.94072,0,0,1,634.1,50.345a34.10026,34.10026,0,0,1,11.436-7.8A37.30012,37.30012,0,0,1,660.278,39.7a36.78694,36.78694,0,0,1,14.672,2.843,34.29951,34.29951,0,0,1,11.364,7.8,35.97424,35.97424,0,0,1,7.409,11.6,39.32018,39.32018,0,0,1,0,28.438,35.921,35.921,0,0,1-7.409,11.6,35.164,35.164,0,0,1-11.364,7.874,36,36,0,0,1-14.672,2.918,36.5,36.5,0,0,1-14.746-2.918,34.94463,34.94463,0,0,1-11.436-7.874,35.8875,35.8875,0,0,1-7.409-11.595A37.80926,37.80926,0,0,1,624.026,76.16Zm36.252,18.375a15.06088,15.06088,0,0,0,6.9-1.531,15.24115,15.24115,0,0,0,5.106-4.157,17.83964,17.83964,0,0,0,3.094-5.906,23.364,23.364,0,0,0,0-13.564,17.0612,17.0612,0,0,0-3.094-5.833,15.668,15.668,0,0,0-5.106-4.083,15.06108,15.06108,0,0,0-6.9-1.532,15.51106,15.51106,0,0,0-6.978,1.532,14.69978,14.69978,0,0,0-5.106,4.083,18.76522,18.76522,0,0,0-3.094,5.833,21.87292,21.87292,0,0,0,0,13.564,19.6818,19.6818,0,0,0,3.094,5.906A14.33027,14.33027,0,0,0,653.3,93,15.51092,15.51092,0,0,0,660.278,94.535Z"></path>
    <path d="M703.4,42.033h20.02l.58,7.438a23.92824,23.92824,0,0,1,8.78-6.563,27.173,27.173,0,0,1,11.391-2.479q11.754,0,18.647,7t6.892,20.709v42.293h-20.9V71.055q0-5.688-2.83-9.042a9.781,9.781,0,0,0-7.907-3.355,14.087,14.087,0,0,0-6.1,1.24,12.89973,12.89973,0,0,0-4.353,3.282,13.7,13.7,0,0,0-2.612,4.739,18.63884,18.63884,0,0,0-.872,5.761v36.751H703.4Z"></path>
  </g>
  <g id="roofPro">
    <g id="Pro" fill="#707070">
      <path d="M27.27,55.768v-6.53a7.51091,7.51091,0,0,1,.484-2.849,5.63018,5.63018,0,0,1,1.276-1.948,4.946,4.946,0,0,1,1.841-1.129,6.63008,6.63008,0,0,1,2.177-.362,6.06309,6.06309,0,0,1,2.539.5A5.2,5.2,0,0,1,37.4,44.79a5.886,5.886,0,0,1,1.1,1.949,7.0909,7.0909,0,0,1,.376,2.311v2.768h6.315v3.95Zm8.33-6.315a2.361,2.361,0,0,0-.686-1.787,2.47,2.47,0,0,0-1.787-.659,2.577,2.577,0,0,0-1.84.672,2.357,2.357,0,0,0-.712,1.8v2.338H35.6Z"></path>
      <path d="M32.591,41.63V37.922l1.585-.135a5.80675,5.80675,0,0,1-1.236-1.33,3.743,3.743,0,0,1-.591-2.19,6.04235,6.04235,0,0,1,.054-.873,3.41084,3.41084,0,0,1,.188-.713L36,33.3a4.64,4.64,0,0,0-.188,1.4,3.053,3.053,0,0,0,.819,2.217,3.09,3.09,0,0,0,2.325.847H45.19V41.63Z"></path>
      <path d="M38.879,32.385a6.879,6.879,0,0,1-2.62-.5A6.584,6.584,0,0,1,34.123,30.5a6.364,6.364,0,0,1-1.438-2.136,7.05826,7.05826,0,0,1-.524-2.754,6.96614,6.96614,0,0,1,.524-2.742,6.40509,6.40509,0,0,1,1.438-2.122,6.60014,6.60014,0,0,1,2.136-1.385,7.168,7.168,0,0,1,5.24,0,6.5,6.5,0,0,1,3.588,3.507,6.813,6.813,0,0,1,.537,2.742,6.9,6.9,0,0,1-.537,2.754,6.463,6.463,0,0,1-3.588,3.52A6.876,6.876,0,0,1,38.879,32.385Zm3.386-6.771a2.782,2.782,0,0,0-1.048-2.244,3.24687,3.24687,0,0,0-1.088-.578,4.246,4.246,0,0,0-2.5,0,3.09993,3.09993,0,0,0-1.075.578,2.8999,2.8999,0,0,0-.753.954,2.84608,2.84608,0,0,0-.282,1.29,2.93313,2.93313,0,0,0,.282,1.3,2.74,2.74,0,0,0,.753.954,3.42228,3.42228,0,0,0,1.075.577,3.965,3.965,0,0,0,2.5,0,3.59985,3.59985,0,0,0,1.088-.577,2.673,2.673,0,0,0,.766-.954A2.93313,2.93313,0,0,0,42.265,25.614Z"></path>
    </g>
    <g id="Roof" fill="#009fe3">
      <path d="M27.27,111.367V104.7a7.78094,7.78094,0,0,1,.444-2.741,5.64906,5.64906,0,0,1,1.209-1.975A4.87315,4.87315,0,0,1,30.71,98.8a6.0741,6.0741,0,0,1,2.177-.39,5.917,5.917,0,0,1,3.05.766,5.629,5.629,0,0,1,2.082,2.163l7.175-3.977v4.461l-6.584,3.332v2.258h6.584v3.95Zm8.089-6.45a2.453,2.453,0,0,0-4.112-1.773,2.4,2.4,0,0,0-.645,1.773v2.5h4.757Z"></path>
      <path d="M38.879,97.551a6.87886,6.87886,0,0,1-2.62-.5,6.6,6.6,0,0,1-2.136-1.384,6.36413,6.36413,0,0,1-1.438-2.136,7.0591,7.0591,0,0,1-.524-2.755,6.96506,6.96506,0,0,1,.524-2.741,6.42006,6.42006,0,0,1,1.438-2.123,6.61711,6.61711,0,0,1,2.136-1.384,7.154,7.154,0,0,1,5.24,0,6.5,6.5,0,0,1,3.588,3.507,6.812,6.812,0,0,1,.537,2.741,6.89988,6.89988,0,0,1-.537,2.755,6.463,6.463,0,0,1-3.588,3.52A6.87568,6.87568,0,0,1,38.879,97.551Zm3.386-6.772a2.782,2.782,0,0,0-1.048-2.244,3.26273,3.26273,0,0,0-1.088-.577,4.22505,4.22505,0,0,0-2.5,0,3.11,3.11,0,0,0-1.075.577,2.91494,2.91494,0,0,0-.753.954,2.852,2.852,0,0,0-.282,1.29,2.934,2.934,0,0,0,.282,1.3,2.74,2.74,0,0,0,.753.954,3.4219,3.4219,0,0,0,1.075.577,3.965,3.965,0,0,0,2.5,0,3.59966,3.59966,0,0,0,1.088-.577,2.67282,2.67282,0,0,0,.766-.954A2.934,2.934,0,0,0,42.265,90.779Z"></path>
      <path d="M38.879,82.529a6.87886,6.87886,0,0,1-2.62-.5,6.58409,6.58409,0,0,1-2.136-1.384,6.36413,6.36413,0,0,1-1.438-2.136,7.05826,7.05826,0,0,1-.524-2.754,6.96611,6.96611,0,0,1,.524-2.742,6.40509,6.40509,0,0,1,1.438-2.122,6.60014,6.60014,0,0,1,2.136-1.385,7.168,7.168,0,0,1,5.24,0,6.5,6.5,0,0,1,3.588,3.507,6.813,6.813,0,0,1,.537,2.742,6.9,6.9,0,0,1-.537,2.754,6.463,6.463,0,0,1-3.588,3.52A6.87606,6.87606,0,0,1,38.879,82.529Zm3.386-6.771a2.786,2.786,0,0,0-1.048-2.245,3.26289,3.26289,0,0,0-1.088-.577,4.246,4.246,0,0,0-2.5,0,3.10993,3.10993,0,0,0-1.075.577,2.90918,2.90918,0,0,0-.753.955,2.84615,2.84615,0,0,0-.282,1.29,2.93313,2.93313,0,0,0,.282,1.3,2.74,2.74,0,0,0,.753.954,3.42187,3.42187,0,0,0,1.075.577,3.96485,3.96485,0,0,0,2.5,0,3.59985,3.59985,0,0,0,1.088-.577,2.67282,2.67282,0,0,0,.766-.954A2.9331,2.9331,0,0,0,42.265,75.758Z"></path>
      <path d="M35.628,65.949v2.042H32.591V65.949h-.645a5.50014,5.50014,0,0,1-2.311-.444,4.643,4.643,0,0,1-1.6-1.169,4.81406,4.81406,0,0,1-.941-1.652,5.98808,5.98808,0,0,1-.308-1.895,7.59963,7.59963,0,0,1,.3-2.069A5.067,5.067,0,0,1,28.1,56.812q.619.4,1.223.82t1.223.819a3.18789,3.18789,0,0,0-.457.887,3.10691,3.10691,0,0,0-.161.994,1.693,1.693,0,0,0,.51,1.29,2.027,2.027,0,0,0,1.451.484h.7V59.123h3.037v2.983h9.566v3.843Z"></path>
    </g>
    <g id="BMI">
      <rect x="10" y="121.125" width="52.28201" height="52.28201" fill="#009fe3"></rect>
      <g fill="white">
        <path d="M27.13572,140.04354,37.73154,142.617v.04822l-10.59582,2.57344V153.139H39.16813a4.34115,4.34115,0,0,0-3.98621,3.109,3.7102,3.7102,0,0,0-3.53136-2.22082c-1.8409,0-4.51484,1.00846-4.51484,5.751v9.86213H45.14687V159.42273c0-3.03874-1.70555-6.02869-5.00745-6.28662h5.00745v-5.24678H33.59313v-.05171l11.55374-3.12937v-4.13841l-11.55432-3.12763v-.0517H45.14687v-5.245H27.13572Zm4.28654,24.04972v-2.92721c0-1.13626.33-1.89261,1.23676-1.89261,1.16183,0,1.48888.732,1.48888,1.89261v2.92489Zm9.43691-3.2531v3.2531H37.50324v-3.48547c0-1.31111.58091-1.9414,1.64108-1.9414,1.38663,0,1.71485,1.00846,1.71485,2.16912"></path>
        <rect x="27.13456" y="124.88873" width="18.01348" height="5.55061"></rect>
      </g>
    </g>
  </g>
  <g id="BMI-2">
    <rect x="75.774" y="11.869" width="161.358" height="161.358" fill="#009fe3"></rect>
    <g fill="white">
      <path d="M178.74371,64.755l-7.9424,32.70189h-.14881L162.7101,64.755h-24.383v37.13565A13.3981,13.3981,0,0,0,128.73169,89.588c4.1236-2.25364,6.85414-5.29255,6.85414-10.89884,0-5.68159-3.11242-13.93416-17.74938-13.93416H87.399v55.58783h31.53473c9.37848,0,18.60636-5.26386,19.4024-15.45451v15.45451h16.19317V84.68449h.15956l9.65818,35.65832h12.77239l9.65279-35.66012h.15956v35.66012h16.1878V64.755ZM104.519,77.98454h9.03425c3.50685,0,5.84116,1.01835,5.84116,3.817,0,3.58573-2.259,4.59512-5.84116,4.59512H104.5262Zm10.04,29.12513h-10.04V96.75227h10.7572c4.0465,0,5.99176,1.79287,5.99176,5.06485,0,4.27957-3.11242,5.29254-6.69457,5.29254"></path>
      <rect x="208.38517" y="64.75139" width="17.13084" height="55.595"></rect>
    </g>
  </g>
</svg>
