<?xml version="1.0" encoding="utf-8"?>
<!-- Generator: Adobe Illustrator 26.3.1, SVG Export Plug-In . SVG Version: 6.00 Build 0)  -->
<svg version="1.1" id="Layer_1" xmlns="http://www.w3.org/2000/svg" xmlns:xlink="http://www.w3.org/1999/xlink" x="0px" y="0px"
	 viewBox="0 0 205.1 100" style="enable-background:new 0 0 205.1 100;" xml:space="preserve">
<g id="Monier">
	<polygon fill="#D12929" points="37.9,65.6 37.9,43.6 28.9,54.4 27.3,54.4 18.3,43.6 18.3,65.6 12,65.6 12,34.1 17.6,34.1 28.1,46.6 
		38.6,34.1 44.1,34.1 44.1,65.6 	"/>
	<path fill="#D12929" d="M66.8,66c-4.5,0.1-8.8-1.5-12.1-4.5c-3.2-2.9-5-7.1-4.9-11.5c-0.1-4.4,1.7-8.7,4.9-11.7
		c3.3-3.1,7.7-4.7,12.3-4.6c4.6-0.1,9,1.5,12.4,4.6c3.3,3,5.1,7.2,5,11.6c0.1,4.4-1.7,8.6-5,11.6C75.9,64.5,71.4,66.1,66.8,66z
		 M67.3,39.3c-3-0.1-6,1-8.2,3c-2.1,2-3.3,4.8-3.2,7.6c-0.1,2.8,1.1,5.6,3.2,7.5c4.6,4.1,11.6,4,16.2-0.1c2.1-2,3.3-4.7,3.2-7.6
		c0.1-2.8-1.1-5.5-3.2-7.4C73.1,40.3,70.2,39.2,67.3,39.3z"/>
	<polygon fill="#D12929" points="114.9,65.6 95.9,43.7 95.9,65.6 90.3,65.6 90.3,34.1 95.4,34.1 114.5,56.2 114.5,34.1 120.3,34.1 
		120.3,65.6 	"/>
	<rect x="127.2" y="34.1" fill="#D12929" width="6.4" height="31.5"/>
	<polygon fill="#D12929" points="140,65.6 140,34.1 160.7,34.1 160.7,39.5 146.4,39.5 146.4,47.1 160.2,47.1 160.2,52.5 146.4,52.5 
		146.4,60.8 161.2,60.8 161.2,65.6 	"/>
	<path fill="#D12929" d="M186,65.6l-3.5-6.1l-1.5-2.3c-0.6-1-1.3-1.9-2-2.8c-0.6-0.6-1.2-1.1-2-1.5c-1-0.3-2.1-0.5-3.2-0.4h-0.5v13H167
		V34.1h9.2c3.1-0.2,6.1,0.7,8.6,2.4c3.6,2.8,4.4,8,1.7,11.7c-0.9,1.1-2,2-3.2,2.6c0.7,0.6,1.4,1.2,2,1.9c1.1,1.1,1.9,3,3.5,5.8
		c1,1.8,1.5,2.8,2.1,3.8l2.2,3.4L186,65.6z M174.2,47.5c1.7,0.1,3.4-0.1,5-0.5c1.5-0.6,2.6-2.1,2.5-3.7c0-0.8-0.2-1.6-0.7-2.2
		c-0.5-0.7-1.2-1.2-2.1-1.4c-1.7-0.4-3.4-0.5-5.1-0.5h-0.7v8.4H174.2z"/>
</g>
</svg>
