<svg xmlns="http://www.w3.org/2000/svg" viewBox="0 0 310 100">
  <g id="Roof" fill="#009fe3">
    <path d="M124.95148,48.45472V39.30209h4.8087a4.61043,4.61043,0,0,1,3.41276,1.24141,4.60658,4.60658,0,0,1-3.41276,7.91122Zm-7.60136,18.92536h7.60136V54.71166H129.295l6.41186,12.66842h8.58364l-7.65288-13.8064a10.82782,10.82782,0,0,0,4.16227-4.00732,11.368,11.368,0,0,0,1.47379-5.86883,11.66618,11.66618,0,0,0-.74989-4.1886,9.38523,9.38523,0,0,0-2.27516-3.43833,10.89212,10.89212,0,0,0-3.8005-2.32708,14.98531,14.98531,0,0,0-5.27428-.8529H117.35012Z"></path>
    <path d="M204.04513,67.38008h7.39453V48.9718h5.73946V43.12892h-5.73946V41.7845a3.90463,3.90463,0,0,1,.93076-2.79265,3.2609,3.2609,0,0,1,2.482-.98228,6.01369,6.01369,0,0,1,1.913.31026,6.17116,6.17116,0,0,1,1.70658.87885q.77563-1.18872,1.57721-2.35265.80061-1.16315,1.57682-2.35264a9.74966,9.74966,0,0,0-3.67111-1.96492,14.63448,14.63448,0,0,0-3.98177-.56861,11.46938,11.46938,0,0,0-3.64517.59455,9.25905,9.25905,0,0,0-3.18037,1.80961,8.961,8.961,0,0,0-2.24923,3.077,10.609,10.609,0,0,0-.85329,4.44694v1.241h-3.92986V48.9718h3.92986Z"></path>
    <path d="M197.68051,50.18686a12.72517,12.72517,0,0,0-2.6629-4.11075,12.32963,12.32963,0,0,0-4.08477-2.7663,13.38123,13.38123,0,0,0-5.27428-1.00824,13.56547,13.56547,0,0,0-5.30025,1.00824,12.257,12.257,0,0,0-4.11073,2.7663,12.714,12.714,0,0,0-2.6633,4.11075,13.76809,13.76809,0,0,0,0,10.08337,12.69732,12.69732,0,0,0,2.6633,4.11075,12.56531,12.56531,0,0,0,4.11073,2.79226,13.27977,13.27977,0,0,0,5.30025,1.03417,13.09986,13.09986,0,0,0,5.27428-1.03417,12.50207,12.50207,0,0,0,6.74767-6.903,13.7626,13.7626,0,0,0,0-10.08337Zm-6.59275,7.44605a6.29541,6.29541,0,0,1-1.11164,2.09429,5.355,5.355,0,0,1-4.31756,2.01682,5.64291,5.64291,0,0,1-2.508-.543A5.143,5.143,0,0,1,181.315,59.7272a6.95965,6.95965,0,0,1-1.112-2.09429,7.64932,7.64932,0,0,1,0-4.80873,6.62816,6.62816,0,0,1,1.112-2.06833,5.27128,5.27128,0,0,1,1.83555-1.44786,5.63774,5.63774,0,0,1,2.508-.543,5.4739,5.4739,0,0,1,2.482.543,5.61859,5.61859,0,0,1,1.83557,1.44786,6.015,6.015,0,0,1,1.11164,2.06833,8.16253,8.16253,0,0,1,0,4.80873Z"></path>
    <path d="M169.17958,50.18686a12.72616,12.72616,0,0,0-2.6629-4.11075,12.32759,12.32759,0,0,0-4.0852-2.7663,13.37839,13.37839,0,0,0-5.27428-1.00824,13.568,13.568,0,0,0-5.30022,1.00824,12.26078,12.26078,0,0,0-4.11075,2.7663,12.71363,12.71363,0,0,0-2.6629,4.11075,13.76286,13.76286,0,0,0,0,10.08337,12.69694,12.69694,0,0,0,2.6629,4.11075,12.56929,12.56929,0,0,0,4.11075,2.79226,13.28229,13.28229,0,0,0,5.30022,1.03417,13.09709,13.09709,0,0,0,5.27428-1.03417,12.501,12.501,0,0,0,6.7481-6.903,13.763,13.763,0,0,0,0-10.08337Zm-6.59278,7.44605a6.28956,6.28956,0,0,1-1.112,2.09429A5.355,5.355,0,0,1,157.1572,61.744a5.643,5.643,0,0,1-2.508-.543,5.1497,5.1497,0,0,1-1.83556-1.47379,6.96739,6.96739,0,0,1-1.11164-2.09429,7.64913,7.64913,0,0,1,0-4.80873,6.63527,6.63527,0,0,1,1.11164-2.06833,5.27837,5.27837,0,0,1,1.83556-1.44786,5.63777,5.63777,0,0,1,2.508-.543,5.47412,5.47412,0,0,1,2.482.543,5.6188,5.6188,0,0,1,1.83557,1.44786,6.0096,6.0096,0,0,1,1.112,2.06833,8.17051,8.17051,0,0,1,0,4.80873Z"></path>
  </g>
  <g id="Pro" fill="#6d6e70">
    <path d="M231.13353,48.91991V39.25058H235.632a4.54007,4.54007,0,0,1,3.46467,1.37038,4.95536,4.95536,0,0,1,1.29254,3.54214,4.75539,4.75539,0,0,1-1.267,3.43833,4.54419,4.54419,0,0,1-3.43834,1.31848Zm-7.60136,18.46017h7.60136V55.22875h5.3258a13.65691,13.65691,0,0,0,4.44692-.72393,11.32378,11.32378,0,0,0,3.749-2.12024,9.99816,9.99816,0,0,0,2.58543-3.49024,11.66371,11.66371,0,0,0,.95672-4.88656,12.7077,12.7077,0,0,0-.69837-4.18821,9.514,9.514,0,0,0-2.17176-3.54214,10.83941,10.83941,0,0,0-3.74858-2.45645,14.47731,14.47731,0,0,0-5.48112-.93036H223.53217Z"></path>
    <path d="M292.87208,50.18686a12.72531,12.72531,0,0,0-2.66289-4.11075,12.32709,12.32709,0,0,0-4.08518-2.7663,13.37773,13.37773,0,0,0-5.27388-1.00824,13.56528,13.56528,0,0,0-5.30022,1.00824,12.25678,12.25678,0,0,0-4.11075,2.7663,12.71379,12.71379,0,0,0-2.66328,4.11075,13.768,13.768,0,0,0,0,10.08337,12.6971,12.6971,0,0,0,2.66328,4.11075,12.56508,12.56508,0,0,0,4.11075,2.79226,13.27959,13.27959,0,0,0,5.30022,1.03417,13.09645,13.09645,0,0,0,5.27388-1.03417,12.501,12.501,0,0,0,6.74807-6.903,13.76219,13.76219,0,0,0,0-10.08337Zm-6.59275,7.44605a6.2945,6.2945,0,0,1-1.11164,2.09429,5.35476,5.35476,0,0,1-4.31756,2.01682,5.64169,5.64169,0,0,1-2.508-.543,5.14277,5.14277,0,0,1-1.83556-1.47379,6.95893,6.95893,0,0,1-1.112-2.09429,7.64913,7.64913,0,0,1,0-4.80873,6.6275,6.6275,0,0,1,1.112-2.06833,5.271,5.271,0,0,1,1.83556-1.44786,5.63652,5.63652,0,0,1,2.508-.543,5.47419,5.47419,0,0,1,2.48205.543,5.61857,5.61857,0,0,1,1.83551,1.44786,6.01417,6.01417,0,0,1,1.11164,2.06833,8.16189,8.16189,0,0,1,0,4.80873Z"></path>
    <path d="M250.48866,67.38008h7.446V55.38368a5.94036,5.94036,0,0,1,1.62871-4.47289,5.875,5.875,0,0,1,4.26608-1.57682,8.91883,8.91883,0,0,1,2.68885.36176l1.18947-6.56681a6.467,6.467,0,0,0-1.37037-.36215,11.74271,11.74271,0,0,0-1.68062-.10342,7.20469,7.20469,0,0,0-4.21416,1.1376,11.10975,11.10975,0,0,0-2.55949,2.37859l-.25873-3.05062h-7.13578Z"></path>
  </g>
  <g id="BMI_Block">
    <rect width="100" height="100" fill="#009fe3"></rect>
    <g fill="white">
      <path d="M62.176,34.911,57.84,52.77h-.084L53.417,34.911H40.11v20.28a7.315,7.315,0,0,0-5.239-6.716c2.255-1.235,3.742-2.891,3.742-5.953,0-3.1-1.7-7.611-9.693-7.611H12.3V65.27H29.515c5.121,0,10.16-2.878,10.6-8.443V65.27h8.844V45.8h.084L54.31,65.27h6.973L66.555,45.8h.085V65.27h8.844V34.911ZM21.65,42.139h4.933c1.913,0,3.188.554,3.188,2.084,0,1.956-1.233,2.507-3.188,2.507H21.65Zm5.485,15.9H21.65V52.386h5.867c2.211,0,3.272.978,3.272,2.763,0,2.339-1.7,2.891-3.655,2.891"></path>
      <rect x="78.358" y="34.914" width="9.354" height="30.356"></rect>
    </g>
  </g>
</svg>
