<svg id="Layer_1" data-name="Layer 1" xmlns="http://www.w3.org/2000/svg" viewBox="0 0 560 100">
  <g id="grey" fill="#6d6e70">
    <path d="M216.91829,49.02543V40.56411h3.93644a3.97291,3.97291,0,0,1,3.03183,1.19917,4.33634,4.33634,0,0,1,1.13106,3.09962,4.16129,4.16129,0,0,1-1.10868,3.00877,3.97651,3.97651,0,0,1-3.00878,1.15376Zm-6.6517,16.1539h6.6517V54.54609h4.66044a11.95093,11.95093,0,0,0,3.89136-.63348,9.90919,9.90919,0,0,0,3.28061-1.85536,8.749,8.749,0,0,0,2.26242-3.05419,10.20643,10.20643,0,0,0,.8372-4.27607,11.11989,11.11989,0,0,0-.61113-3.665,8.32536,8.32536,0,0,0-1.90043-3.09961,9.48517,9.48517,0,0,0-3.28026-2.14957,12.66878,12.66878,0,0,0-4.79635-.81412H210.26659Z"></path>
    <path d="M270.9437,50.1341a11.13548,11.13548,0,0,0-2.33021-3.59719,10.78711,10.78711,0,0,0-3.57481-2.4207,11.70646,11.70646,0,0,0-4.615-.88227,11.87064,11.87064,0,0,0-4.638.88227,10.72569,10.72569,0,0,0-3.59719,2.4207,11.12546,11.12546,0,0,0-2.33054,3.59719,12.04795,12.04795,0,0,0,0,8.82363,11.11076,11.11076,0,0,0,2.33054,3.59718,10.99522,10.99522,0,0,0,3.59719,2.44342,11.62065,11.62065,0,0,0,4.638.905,11.46034,11.46034,0,0,0,4.615-.905,10.93924,10.93924,0,0,0,5.905-6.0406,12.04286,12.04286,0,0,0,0-8.82363Zm-5.7691,6.51579a5.50814,5.50814,0,0,1-.97276,1.83265,4.68583,4.68583,0,0,1-3.77816,1.76485,4.93676,4.93676,0,0,1-2.19463-.47519,4.50025,4.50025,0,0,1-1.60624-1.28966,6.08928,6.08928,0,0,1-.97309-1.83265,6.69354,6.69354,0,0,1,0-4.208,5.79938,5.79938,0,0,1,.97309-1.80993,4.61258,4.61258,0,0,1,1.60624-1.267,4.93227,4.93227,0,0,1,2.19463-.47519,4.79022,4.79022,0,0,1,2.172.47519,4.91665,4.91665,0,0,1,1.6062,1.267,5.26291,5.26291,0,0,1,.97276,1.80993,7.14223,7.14223,0,0,1,0,4.208Z"></path>
    <path d="M233.85534,65.17933h6.51579V54.68167a5.19824,5.19824,0,0,1,1.42523-3.91409,5.14108,5.14108,0,0,1,3.73311-1.37982,7.80438,7.80438,0,0,1,2.35293.31657l1.04086-5.7464a5.65785,5.65785,0,0,0-1.19916-.31691,10.275,10.275,0,0,0-1.47066-.0905,6.30464,6.30464,0,0,0-3.68767.99547,9.72189,9.72189,0,0,0-2.23973,2.08143l-.22641-2.66949h-6.24429Z"></path>
  </g>
  <g id="blue" fill="#009fe3">
    <rect id="Pipe" x="283.66342" width="0.98106" height="100"></rect>
    <path d="M193.21411,65.17933h6.47072V49.07084h5.02241V43.95793h-5.02241V42.78146a3.41684,3.41684,0,0,1,.81448-2.44376,2.85348,2.85348,0,0,1,2.17193-.85955,5.2621,5.2621,0,0,1,1.674.2715,5.39958,5.39958,0,0,1,1.49337.76905q.67875-1.04021,1.38018-2.05873.70057-1.01783,1.37982-2.05872a8.5317,8.5317,0,0,0-3.21247-1.71944,12.80638,12.80638,0,0,0-3.48432-.49757,10.03634,10.03634,0,0,0-3.18977.52027,8.10236,8.10236,0,0,0-2.783,1.58353,7.84152,7.84152,0,0,0-1.96823,2.69255,9.28355,9.28355,0,0,0-.74669,3.89137v1.086h-3.43889v5.11291h3.43889Z"></path>
    <path d="M124.00182,48.61836V40.60919h4.20794a4.03448,4.03448,0,0,1,2.9864,1.08631,4.03108,4.03108,0,0,1-2.9864,6.92286Zm-6.6517,16.561h6.6517V54.0936h3.80088l5.61081,11.08573h7.51126L134.228,53.0978a9.4752,9.4752,0,0,0,3.64226-3.50668,9.94773,9.94773,0,0,0,1.28967-5.13562,10.20884,10.20884,0,0,0-.6562-3.66532,8.21269,8.21269,0,0,0-1.99093-3.00876,9.53107,9.53107,0,0,0-3.32569-2.03636,13.11317,13.11317,0,0,0-4.61535-.74634H117.35012Z"></path>
    <path d="M187.64464,50.1341a11.13565,11.13565,0,0,0-2.33021-3.59719,10.7895,10.7895,0,0,0-3.57446-2.4207,11.7095,11.7095,0,0,0-4.61535-.88227,11.8707,11.8707,0,0,0-4.63807.88227,10.7257,10.7257,0,0,0-3.59717,2.4207,11.1257,11.1257,0,0,0-2.33057,3.59719,12.04795,12.04795,0,0,0,0,8.82363,11.111,11.111,0,0,0,2.33057,3.59718,10.99524,10.99524,0,0,0,3.59717,2.44342,11.62071,11.62071,0,0,0,4.63807.905,11.46331,11.46331,0,0,0,4.61535-.905,10.94012,10.94012,0,0,0,5.90467-6.0406,12.04313,12.04313,0,0,0,0-8.82363Zm-5.7691,6.51579a5.509,5.509,0,0,1-.97276,1.83265,4.686,4.686,0,0,1-3.77816,1.76485A4.93785,4.93785,0,0,1,174.93,59.7722a4.5003,4.5003,0,0,1-1.60623-1.28966,6.09022,6.09022,0,0,1-.97311-1.83265,6.69354,6.69354,0,0,1,0-4.208,5.80025,5.80025,0,0,1,.97311-1.80993A4.61263,4.61263,0,0,1,174.93,49.365a4.93336,4.93336,0,0,1,2.19465-.47519,4.79005,4.79005,0,0,1,2.17192.47519,4.9167,4.9167,0,0,1,1.60624,1.267,5.26376,5.26376,0,0,1,.97276,1.80993,7.14266,7.14266,0,0,1,0,4.208Z"></path>
    <path d="M162.7044,50.1341a11.13617,11.13617,0,0,0-2.33022-3.59719,10.78756,10.78756,0,0,0-3.57482-2.4207,11.70706,11.70706,0,0,0-4.61536-.88227,11.873,11.873,0,0,0-4.638.88227,10.72909,10.72909,0,0,0-3.59719,2.4207,11.12545,11.12545,0,0,0-2.33022,3.59719,12.04353,12.04353,0,0,0,0,8.82363,11.11075,11.11075,0,0,0,2.33022,3.59718,10.9988,10.9988,0,0,0,3.59719,2.44342,11.62292,11.62292,0,0,0,4.638.905,11.46093,11.46093,0,0,0,4.61536-.905,10.93928,10.93928,0,0,0,5.905-6.0406,12.04353,12.04353,0,0,0,0-8.82363Zm-5.76913,6.51579a5.50362,5.50362,0,0,1-.97308,1.83265,4.686,4.686,0,0,1-3.77819,1.76485,4.93786,4.93786,0,0,1-2.19463-.47519,4.50631,4.50631,0,0,1-1.60624-1.28966,6.097,6.097,0,0,1-.97276-1.83265,6.69354,6.69354,0,0,1,0-4.208,5.80645,5.80645,0,0,1,.97276-1.80993,4.619,4.619,0,0,1,1.60624-1.267,4.93337,4.93337,0,0,1,2.19463-.47519,4.79017,4.79017,0,0,1,2.17194.47519,4.91684,4.91684,0,0,1,1.60625,1.267,5.25874,5.25874,0,0,1,.97308,1.80993,7.14978,7.14978,0,0,1,0,4.208Z"></path>
    <g id="ServiceTeam">
      <path d="M298.5192,59.6331a12.46035,12.46035,0,0,0,3.65008,3.00074,10.63255,10.63255,0,0,0,5.17279,1.16438,11.97839,11.97839,0,0,0,3.20235-.403,7.5086,7.5086,0,0,0,2.50794-1.18683,5.36831,5.36831,0,0,0,1.63475-1.97064,6.18141,6.18141,0,0,0,.58238-2.75424,5.72163,5.72163,0,0,0-.64952-2.82158,6.0088,6.0088,0,0,0-1.72414-1.94819,9.73708,9.73708,0,0,0-2.44118-1.27641q-1.3662-.49233-2.75425-.89564-1.70226-.44715-3.40377-1.00786A11.99915,11.99915,0,0,1,301.2512,48.056a6.64762,6.64762,0,0,1-3.00055-5.979,7.0096,7.0096,0,0,1,2.4408-5.32951,8.85638,8.85638,0,0,1,2.91115-1.63475,11.80214,11.80214,0,0,1,3.91864-.60444,12.53489,12.53489,0,0,1,3.33663.403,11.844,11.844,0,0,1,2.55282,1.00766A8.56084,8.56084,0,0,1,315.24686,37.24a11.18153,11.18153,0,0,1,1.23152,1.38844l-1.52272,1.29886a9.7507,9.7507,0,0,0-1.02972-1.14214,7.78666,7.78666,0,0,0-1.52272-1.11969,9.076,9.076,0,0,0-2.12736-.85094,10.85948,10.85948,0,0,0-2.844-.33589,9.05087,9.05087,0,0,0-3.15746.4928,6.32887,6.32887,0,0,0-2.17224,1.29867,5.08867,5.08867,0,0,0-1.25378,1.81391,5.55412,5.55412,0,0,0-.40322,2.08247,4.52788,4.52788,0,0,0,.73892,2.66485,5.95926,5.95926,0,0,0,1.94819,1.74658A12.67985,12.67985,0,0,0,305.842,47.7201q1.4997.44829,3.0228.85094A28.32463,28.32463,0,0,1,312,49.5787a10.16433,10.16433,0,0,1,2.79913,1.6123,7.89412,7.89412,0,0,1,2.01533,2.53039,8.16457,8.16457,0,0,1,.7838,3.7621,7.393,7.393,0,0,1-.806,3.47091,8.01734,8.01734,0,0,1-2.17224,2.62,9.944,9.944,0,0,1-3.24686,1.657,13.57911,13.57911,0,0,1-4.031.58238,14.377,14.377,0,0,1-3.49316-.40322,14.70544,14.70544,0,0,1-2.93341-1.05236,11.893,11.893,0,0,1-2.32916-1.478,8.74431,8.74431,0,0,1-1.63436-1.72433Z"></path>
      <path d="M340.39415,62.00676a8.89376,8.89376,0,0,1-3.65007,2.66485,12.16288,12.16288,0,0,1-4.72469.963,11.24764,11.24764,0,0,1-4.23245-.7838,9.52548,9.52548,0,0,1-3.33663-2.21694,10.23013,10.23013,0,0,1-2.17186-3.42622,12.5853,12.5853,0,0,1-.04489-8.62125,11.03188,11.03188,0,0,1,2.03758-3.44847,9.35889,9.35889,0,0,1,3.13521-2.329A9.47345,9.47345,0,0,1,331.437,43.958a10.28618,10.28618,0,0,1,3.919.73911,8.65185,8.65185,0,0,1,3.13483,2.172,10.03951,10.03951,0,0,1,2.06022,3.56049,14.92562,14.92562,0,0,1,.73891,4.904H323.734a9.2876,9.2876,0,0,0,.67177,3.29174,8.58292,8.58292,0,0,0,1.70189,2.6873,7.66529,7.66529,0,0,0,2.57507,1.79127,8.30489,8.30489,0,0,0,3.33663.64953,9.92122,9.92122,0,0,0,1.94819-.20161,9.81266,9.81266,0,0,0,1.94819-.60464,10.00487,10.00487,0,0,0,1.72414-.94052,6.08094,6.08094,0,0,0,1.3213-1.20909Zm-1.29866-8.41965a9.14508,9.14508,0,0,0-2.41855-5.77743,7.17749,7.17749,0,0,0-5.23993-1.97063,7.38557,7.38557,0,0,0-3.0228.60463,7.13744,7.13744,0,0,0-2.35141,1.657,8.41233,8.41233,0,0,0-1.58986,2.46324,8.851,8.851,0,0,0-.69441,3.02319Z"></path>
      <path d="M346.52992,48.83979V46.30921q0-.47016-.02226-.89564-.023-.425-.06714-.91808h1.88106q.04373.49319.06713.94053.02187.448.04489.96277.02187.51564.02225,1.14214v1.478a12.89126,12.89126,0,0,1,.963-1.50046,7.57982,7.57982,0,0,1,1.545-1.54517,9.10094,9.10094,0,0,1,2.1945-1.20908,7.93151,7.93151,0,0,1,2.91116-.49261,4.2349,4.2349,0,0,1,1.70188.31345l-.58238,1.92574a2.56379,2.56379,0,0,0-.73892-.17916,7.67711,7.67711,0,0,0-.7838-.0447,5.92773,5.92773,0,0,0-2.91078.71647,7.5286,7.5286,0,0,0-2.23938,1.88105,8.68541,8.68541,0,0,0-1.45558,2.66486,9.24876,9.24876,0,0,0-.51525,3.023V65.09708h-2.01532Z"></path>
      <path d="M360.45729,44.49549h2.28426l7.74788,18.13835,7.70336-18.13835h2.10472l-8.95714,20.60159h-1.88105Z"></path>
      <path d="M383.52212,37.24h2.82138v2.956h-2.82138Zm.40283,7.25545h2.01533V65.09708H383.925Z"></path>
      <path d="M409.67689,62.05164a9.92055,9.92055,0,0,1-3.38152,2.57527,10.81957,10.81957,0,0,1-4.76957,1.00767,10.2649,10.2649,0,0,1-4.14269-.82869,10.00444,10.00444,0,0,1-3.29174-2.28408,10.20316,10.20316,0,0,1-2.15-3.44846,11.87371,11.87371,0,0,1-.76117-4.27716,11.57282,11.57282,0,0,1,.78381-4.277,10.494,10.494,0,0,1,2.17185-3.44847,10.03068,10.03068,0,0,1,3.29213-2.28427,11.10083,11.10083,0,0,1,8.73309.13447,9.64674,9.64674,0,0,1,3.24686,2.66467l-1.52272,1.16457a7.44289,7.44289,0,0,0-2.57508-2.12735,8.30541,8.30541,0,0,0-3.78435-.7838,7.54215,7.54215,0,0,0-3.29174.71666,8.29158,8.29158,0,0,0-2.59772,1.92574,8.63785,8.63785,0,0,0-1.70188,2.84383,9.925,9.925,0,0,0-.60464,3.47091,9.60246,9.60246,0,0,0,.62689,3.4711,8.941,8.941,0,0,0,1.72452,2.84383,8.28555,8.28555,0,0,0,2.59771,1.92574,7.43,7.43,0,0,0,3.24686.71667,9.26041,9.26041,0,0,0,3.96352-.80625,7.27972,7.27972,0,0,0,2.75424-2.14961Z"></path>
      <path d="M430.90556,62.00676a8.89386,8.89386,0,0,1-3.65008,2.66485,12.16283,12.16283,0,0,1-4.72468.963,11.2477,11.2477,0,0,1-4.23246-.7838,9.52548,9.52548,0,0,1-3.33663-2.21694,10.23029,10.23029,0,0,1-2.17186-3.42622,12.58545,12.58545,0,0,1-.04489-8.62125,11.03188,11.03188,0,0,1,2.03758-3.44847,9.359,9.359,0,0,1,3.13521-2.329,9.47348,9.47348,0,0,1,4.03066-.85095,10.28627,10.28627,0,0,1,3.919.73911,8.6519,8.6519,0,0,1,3.13482,2.172,10.03951,10.03951,0,0,1,2.06022,3.56049,14.92561,14.92561,0,0,1,.73892,4.904h-17.556a9.28782,9.28782,0,0,0,.67177,3.29174,8.58292,8.58292,0,0,0,1.70189,2.6873,7.66524,7.66524,0,0,0,2.57508,1.79127,8.30489,8.30489,0,0,0,3.33663.64953,9.92129,9.92129,0,0,0,1.94819-.20161,9.81286,9.81286,0,0,0,1.94819-.60464,10.00477,10.00477,0,0,0,1.72413-.94052,6.08094,6.08094,0,0,0,1.3213-1.20909Zm-1.29867-8.41965a9.145,9.145,0,0,0-2.41855-5.77743,7.17749,7.17749,0,0,0-5.23993-1.97063,7.38557,7.38557,0,0,0-3.0228.60463,7.13744,7.13744,0,0,0-2.35141,1.657,8.41233,8.41233,0,0,0-1.58986,2.46324,8.851,8.851,0,0,0-.69441,3.02319Z"></path>
      <path d="M454.68705,37.15046H443.0873V35.22471h25.34911v1.92575H456.83666V65.09708h-2.14961Z"></path>
      <path d="M484.02192,62.00676a8.89376,8.89376,0,0,1-3.65007,2.66485,12.16291,12.16291,0,0,1-4.72469.963,11.2477,11.2477,0,0,1-4.23246-.7838,9.52557,9.52557,0,0,1-3.33663-2.21694,10.23044,10.23044,0,0,1-2.17186-3.42622,12.58537,12.58537,0,0,1-.04488-8.62125,11.03188,11.03188,0,0,1,2.03758-3.44847,9.35889,9.35889,0,0,1,3.13521-2.329,9.47345,9.47345,0,0,1,4.03066-.85095,10.28618,10.28618,0,0,1,3.919.73911,8.65194,8.65194,0,0,1,3.13483,2.172,10.03965,10.03965,0,0,1,2.06022,3.56049,14.92562,14.92562,0,0,1,.73891,4.904h-17.556a9.2876,9.2876,0,0,0,.67178,3.29174,8.58308,8.58308,0,0,0,1.70188,2.6873,7.66534,7.66534,0,0,0,2.57508,1.79127,8.30489,8.30489,0,0,0,3.33663.64953,9.92122,9.92122,0,0,0,1.94819-.20161,9.81266,9.81266,0,0,0,1.94819-.60464,10.00487,10.00487,0,0,0,1.72414-.94052,6.08094,6.08094,0,0,0,1.3213-1.20909Zm-1.29866-8.41965a9.14508,9.14508,0,0,0-2.41855-5.77743,7.17749,7.17749,0,0,0-5.23993-1.97063,7.38554,7.38554,0,0,0-3.0228.60463,7.13744,7.13744,0,0,0-2.35141,1.657,8.41213,8.41213,0,0,0-1.58986,2.46324,8.85076,8.85076,0,0,0-.69441,3.02319Z"></path>
      <path d="M504.176,65.09708q-.04546-.6267-.06714-1.38844-.02359-.76078-.02264-2.06a9.02577,9.02577,0,0,1-1.79127,1.94819,9.23276,9.23276,0,0,1-1.99308,1.23152,8.69557,8.69557,0,0,1-2.038.62708,11.1117,11.1117,0,0,1-1.88067.17917,12.78112,12.78112,0,0,1-2.59771-.26875,6.45,6.45,0,0,1-2.32878-.963,5.2519,5.2519,0,0,1-1.67963-1.88105,6.24971,6.24971,0,0,1-.64952-3.023,7.93919,7.93919,0,0,1,.49261-2.79914,5.71071,5.71071,0,0,1,1.5676-2.28407,7.72206,7.72206,0,0,1,2.77688-1.52272,13.2834,13.2834,0,0,1,4.12043-.55994q1.88067,0,3.35889.13447,1.47783.13437,2.50794.31344V51.61647a8.42608,8.42608,0,0,0-.40322-2.82157,4.06489,4.06489,0,0,0-1.20928-1.79147,4.66111,4.66111,0,0,0-1.97044-.94052,12.04268,12.04268,0,0,0-2.6871-.26856,9.27472,9.27472,0,0,0-4.0533.73892,11.86225,11.86225,0,0,0-2.30652,1.41069l-1.07461-1.38825A11.04188,11.04188,0,0,1,497.637,43.958a9.76885,9.76885,0,0,1,6.18065,1.70189q2.14941,1.70256,2.1496,5.64315V62.47711q0,.78409.04489,1.366l.08939,1.254Zm-.17917-10.52475a20.04523,20.04523,0,0,0-2.35141-.38058,33.81668,33.81668,0,0,0-3.60518-.15692,9.63406,9.63406,0,0,0-3.62782.55994,5.21792,5.21792,0,0,0-2.03759,1.38825,4.06238,4.06238,0,0,0-.89583,1.79147,8.52237,8.52237,0,0,0-.20141,1.72433,3.67284,3.67284,0,0,0,1.50008,3.29174,6.73148,6.73148,0,0,0,3.82924,1.00766,7.64847,7.64847,0,0,0,2.86627-.5373,7.93527,7.93527,0,0,0,2.35141-1.43314A6.91832,6.91832,0,0,0,503.41443,59.79a5.03467,5.03467,0,0,0,.58238-2.30652Z"></path>
      <path d="M512.192,48.83979V46.30921q0-.47016-.02225-.89564-.023-.425-.06714-.91808h1.88105q.04374.49319.06714.89564.02187.40313.04489.87339.02187.47016.02225,1.0748V48.7949a12.67369,12.67369,0,0,1,.98522-1.52272,8.29615,8.29615,0,0,1,1.56761-1.58986,8.26754,8.26754,0,0,1,5.23993-1.72433,7.09027,7.09027,0,0,1,4.56816,1.27642,6.73919,6.73919,0,0,1,2.19449,3.56049,7.81412,7.81412,0,0,1,1.00786-1.45558,10.04651,10.04651,0,0,1,4.09779-2.86627,8.33712,8.33712,0,0,1,3.00055-.51506,8.54112,8.54112,0,0,1,3.47091.62709,5.28749,5.28749,0,0,1,2.23938,1.81371,7.80427,7.80427,0,0,1,1.187,2.86647,17.986,17.986,0,0,1,.35833,3.73965V65.09708h-2.01571V53.67669a16.99549,16.99549,0,0,0-.35795-3.8068,6.07046,6.07046,0,0,0-1.075-2.41854,3.831,3.831,0,0,0-1.72413-1.254,7.02039,7.02039,0,0,0-2.35141-.35833,6.697,6.697,0,0,0-2.86627.62708,7.98461,7.98461,0,0,0-2.35141,1.657,7.88441,7.88441,0,0,0-1.58986,2.35122,6.75907,6.75907,0,0,0-.58239,2.75444v11.8683h-2.01533V53.67669a16.993,16.993,0,0,0-.35833-3.8068,6.26811,6.26811,0,0,0-1.05236-2.41854,3.69345,3.69345,0,0,0-1.70188-1.254,7.01963,7.01963,0,0,0-2.351-.35833,6.30207,6.30207,0,0,0-3.2246.80624,7.72877,7.72877,0,0,0-2.32916,2.06,9.04359,9.04359,0,0,0-1.41069,2.77688,10.13508,10.13508,0,0,0-.47036,3.00055V65.09708H512.192Z"></path>
    </g>
  </g>
  <g id="BMI_Block">
    <rect width="100" height="100" fill="#009fe3"></rect>
    <g fill="white">
      <path d="M62.176,34.911,57.84,52.77h-.084L53.417,34.911H40.11v20.28a7.315,7.315,0,0,0-5.239-6.716c2.255-1.235,3.742-2.891,3.742-5.953,0-3.1-1.7-7.611-9.693-7.611H12.3V65.27H29.515c5.121,0,10.16-2.878,10.6-8.443V65.27h8.844V45.8h.084L54.31,65.27h6.973L66.555,45.8h.085V65.27h8.844V34.911ZM21.65,42.139h4.933c1.913,0,3.188.554,3.188,2.084,0,1.956-1.233,2.507-3.188,2.507H21.65Zm5.485,15.9H21.65V52.386h5.867c2.211,0,3.272.978,3.272,2.763,0,2.339-1.7,2.891-3.655,2.891"></path>
      <rect x="78.358" y="34.914" width="9.354" height="30.356"></rect>
    </g>
  </g>
</svg>
