<svg id="Albania" xmlns="http://www.w3.org/2000/svg" xmlns:xlink="http://www.w3.org/1999/xlink" viewBox="0 0 20 16">
  <defs>
    <linearGradient id="linear-gradient" y1="-27.946" x2="20" y2="-27.946" gradientTransform="matrix(1, 0, 0, -1, 0, -19.946)" gradientUnits="userSpaceOnUse">
      <stop offset="0" stop-color="#fc5d2e"/>
      <stop offset="0.502" stop-color="#ff521d"/>
      <stop offset="1" stop-color="#fb4312"/>
    </linearGradient>
    <linearGradient id="linear-gradient-2" x1="7.71" y1="-28.78" x2="7.71" y2="-17.166" gradientTransform="matrix(1, 0, 0, -1, 2.29, -14.973)" gradientUnits="userSpaceOnUse">
      <stop offset="0" stop-color="#333"/>
      <stop offset="0.561" stop-color="#515151"/>
      <stop offset="1" stop-color="#3c3c3c"/>
    </linearGradient>
    <clipPath id="clip-path">
      <rect width="20" height="16" fill="none"/>
    </clipPath>
    <radialGradient id="radial-gradient" cx="5.943" cy="-20.474" r="10.464" gradientTransform="matrix(1, 0, 0, -1, 2.266, -14.973)" gradientUnits="userSpaceOnUse">
      <stop offset="0" stop-color="#fcffff" stop-opacity="0.4"/>
      <stop offset="0.5" stop-color="#fff" stop-opacity="0.15"/>
      <stop offset="1" stop-color="#fff" stop-opacity="0"/>
    </radialGradient>
  </defs>
  <rect width="20" height="16" fill="url(#linear-gradient)"/>
  <path d="M10.706,12.763a1.04,1.04,0,0,1-.36-.707c.015-.206.157-.326.248-.074.13.278.407.738.79.468.167-.122.164-.3-.065-.282-.283-.019-.457-.175-.583-.576-.023-.22.068-.215.2-.073a.783.783,0,0,0,.853.321c.2-.084.257-.258-.046-.3a1,1,0,0,1-.754-.466c-.128-.157.06-.316.174-.182.1.087.242.247.363.269a.766.766,0,0,0,.507-.088c.207-.174.14-.3-.112-.328-.2.009-.3.084-.554-.084a1.8,1.8,0,0,1-.869-1.207c-.037-.324.137-.422.282-.385.393.1.651.837.923,1.241.089.116.171.118.229.082.109-.094.2-.171.3-.275a12.179,12.179,0,0,1,1.237.286l-.485.172a.263.263,0,0,0-.364.072.268.268,0,0,0-.042.112.269.269,0,0,0-.106.365.185.185,0,0,0,.021.033c.023-.1.042-.218.18-.234.2.081.425-.035.425-.188l.572-.225.579.327c0,.222.21.292.428.232a.509.509,0,0,1,.2.293c.064-.171.051-.291-.05-.375.058-.221-.252-.434-.492-.292l-.416-.239.713-.02a.3.3,0,0,0,.468,0c.075-.021.138-.034.283.074-.046-.174-.135-.249-.268-.249-.1-.18-.469-.179-.523.023l-.742.021.441-.313a.314.314,0,0,0,.421-.137.285.285,0,0,0,.02-.051.243.243,0,0,1,.3-.061c-.082-.145-.2-.189-.406-.09-.19-.144-.441.031-.4.176l-.586.4c-.425-.126-1.2-.324-1.2-.324.092-.1.185-.186.276-.284.033-.057-.017-.124-.087-.138a1.525,1.525,0,0,1-1.319-1.123c-.1-.294.116-.382.19-.2a1.454,1.454,0,0,0,.524.737c.106.075.423.014.236-.164a.874.874,0,0,1-.374-.617c0-.2.2-.285.313-.1a1.792,1.792,0,0,0,.349.8.849.849,0,0,0,.485.312c.191,0,.384-.209.128-.359a.84.84,0,0,1-.569-.551c-.06-.342.006-.507.212-.339.292.332.85.95,1.142,1.238a.759.759,0,0,0,1,.005c.171-.2.11-.41-.158-.364-.605.051-1.063-.25-1.566-1.061-.1-.183-.125-.447.092-.251a2.234,2.234,0,0,0,.955.751.747.747,0,0,0,.732-.052c.131-.132.1-.463-.131-.383a1.06,1.06,0,0,1-.726-.024A2.142,2.142,0,0,1,13.3,7.01c-.1-.222-.07-.409.141-.295.5.422,1.138.763,1.465.558.241-.15.246-.536-.06-.511-.616.084-.849-.053-1.441-.575-.134-.1-.125-.355.089-.193a1.691,1.691,0,0,0,1.443.279c.24-.151.205-.609-.2-.447-.323.2-.68.192-1.4-.319-.18-.151-.046-.346.1-.262.576.328,1.414.468,1.632-.2.085-.254-.069-.4-.294-.227a1.03,1.03,0,0,1-1.368,0c-.09-.053-.255-.321.035-.272.749.171,1.49.022,1.624-.508.079-.172-.075-.477-.349-.222a1.5,1.5,0,0,1-1.22.365c-.244-.051-.247-.319-.042-.359A2.131,2.131,0,0,0,14.508,3.5a1.181,1.181,0,0,0,.612-.73c.047-.292-.235-.6-.4-.292a1.989,1.989,0,0,1-1.422.958c-.032-.054-.113-.192-.213-.153-.181.07-.4.164-.62.27-.479.227-.678.337-.621.73.06.41-.256.67-.517.6-.228-.061-.354-.267-.313-.624a1.27,1.27,0,0,1,.64-.809,3.684,3.684,0,0,1,.9-.264c.231-.046.348-.135.362-.229a.665.665,0,0,1-.41.1.28.28,0,0,1-.229-.115,2.8,2.8,0,0,1,.389,0c.19,0,.631-.044.748-.311.036-.177-.08-.208-.187-.095s-.164.232-.4.272a1.029,1.029,0,0,1-.465.01.519.519,0,0,1,.4-.223.265.265,0,0,1,.155.125c.03-.192-.023-.41-.539-.319.008-.146-.3-.21-.484-.207a1.513,1.513,0,0,0-.474.139,3.339,3.339,0,0,1-.773.152,3.823,3.823,0,0,0,.362.27,1.209,1.209,0,0,0-.532.413,1.557,1.557,0,0,1,.367.025,1.164,1.164,0,0,0-.605.309,1.192,1.192,0,0,1,.177.04c.038.013.028.038,0,.062-.066.05-.338.366-.418.442-.079-.076-.352-.392-.418-.442-.03-.024-.04-.049,0-.062a1.177,1.177,0,0,1,.178-.04,1.172,1.172,0,0,0-.6-.309,1.545,1.545,0,0,1,.366-.025,1.209,1.209,0,0,0-.532-.413,3.823,3.823,0,0,0,.362-.27,3.339,3.339,0,0,1-.773-.152A1.513,1.513,0,0,0,8.1,2.193c-.185,0-.492.061-.484.207-.516-.091-.569.126-.539.319a.265.265,0,0,1,.155-.125.517.517,0,0,1,.4.223,1.029,1.029,0,0,1-.465-.01c-.232-.041-.28-.15-.4-.272s-.223-.082-.187.095c.117.267.558.31.748.311a2.806,2.806,0,0,1,.389,0,.28.28,0,0,1-.229.115.662.662,0,0,1-.409-.1c.013.094.13.183.361.229a3.684,3.684,0,0,1,.9.264,1.27,1.27,0,0,1,.64.809c.041.357-.085.563-.313.624-.261.072-.577-.188-.517-.6.058-.393-.142-.5-.621-.73-.223-.106-.439-.2-.62-.27-.1-.039-.18.1-.213.153a1.989,1.989,0,0,1-1.422-.958c-.17-.31-.452,0-.405.292a1.185,1.185,0,0,0,.612.731,2.141,2.141,0,0,0,1.051.325c.205.04.2.308-.042.359a1.5,1.5,0,0,1-1.22-.365c-.274-.255-.427.05-.349.222.134.53.875.679,1.625.508.289-.049.124.219.034.272a1.03,1.03,0,0,1-1.368,0c-.225-.176-.379-.027-.294.227.218.667,1.056.527,1.632.2.148-.084.282.111.1.262-.715.511-1.072.516-1.4.319-.4-.162-.439.3-.2.447a1.691,1.691,0,0,0,1.443-.279c.214-.162.223.093.089.193-.592.522-.825.659-1.441.575-.3-.025-.3.361-.06.511.327.205.968-.136,1.465-.558.211-.114.244.073.141.295a2.142,2.142,0,0,1-.864.731,1.06,1.06,0,0,1-.726.024c-.228-.08-.262.251-.131.383a.748.748,0,0,0,.732.052,2.234,2.234,0,0,0,.955-.751c.217-.2.19.068.092.251C6.26,8.511,5.8,8.812,5.2,8.761c-.268-.046-.329.166-.157.364a.757.757,0,0,0,1-.005c.292-.288.85-.906,1.142-1.238.206-.168.272,0,.212.339a.84.84,0,0,1-.569.551c-.256.15-.063.357.128.359a.846.846,0,0,0,.485-.312,1.792,1.792,0,0,0,.349-.8c.112-.188.313-.1.313.1a.877.877,0,0,1-.373.617c-.188.178.129.239.235.164a1.454,1.454,0,0,0,.524-.737c.075-.18.29-.092.19.2A1.524,1.524,0,0,1,7.359,9.481c-.07.014-.12.081-.087.138.091.1.184.188.276.284,0,0-.77.2-1.2.324l-.586-.4c.038-.145-.213-.32-.4-.176-.209-.1-.324-.055-.406.09a.242.242,0,0,1,.3.062.313.313,0,0,0,.391.207.307.307,0,0,0,.05-.02l.441.313-.742-.02c-.053-.2-.421-.2-.523-.024-.133,0-.222.075-.268.25.145-.108.208-.095.283-.075a.3.3,0,0,0,.468,0l.713.02L5.66,10.7c-.24-.142-.55.071-.492.292-.1.084-.114.2-.05.375a.509.509,0,0,1,.2-.293c.218.06.428-.01.428-.232l.579-.327.573.225c0,.153.228.269.424.188.138.016.157.139.18.234a.268.268,0,0,0-.052-.376l-.033-.022a.262.262,0,0,0-.293-.226.287.287,0,0,0-.113.042L6.53,10.4a12.454,12.454,0,0,1,1.237-.286c.109.1.2.182.3.275.058.036.14.034.229-.082.272-.4.53-1.139.923-1.24.145-.038.319.06.282.384a1.793,1.793,0,0,1-.869,1.207c-.252.168-.359.094-.554.084-.252.029-.319.154-.112.328a.766.766,0,0,0,.507.088c.121-.022.262-.182.363-.269.114-.133.3.025.174.182a1,1,0,0,1-.754.466c-.3.043-.247.216-.046.3a.781.781,0,0,0,.853-.321c.128-.142.22-.147.2.073-.127.4-.3.557-.584.576-.229-.021-.231.16-.064.283.382.27.66-.191.789-.469.092-.252.233-.132.248.074a1.043,1.043,0,0,1-.359.707c-.164.142.705,1.044.705,1.044s.869-.9.706-1.044ZM11.87,2.544c-.135,0-.219.047-.219.1s.084.106.219.106.22-.052.22-.111-.085-.1-.22-.1Zm-3.74,0c.135,0,.219.047.219.1s-.084.106-.219.106-.22-.052-.22-.111.085-.1.22-.1Z" fill-rule="evenodd" fill="url(#linear-gradient-2)"/>
  <g clip-path="url(#clip-path)">
    <ellipse cx="8.209" cy="5.5" rx="10.499" ry="10.474" fill="url(#radial-gradient)"/>
  </g>
  <path d="M19,1V15H1V1H19m1-1H0V16H20Z" opacity="0.2" style="isolation: isolate"/>
</svg>
