<svg id="Spain_España" data-name="Spain España" xmlns="http://www.w3.org/2000/svg" xmlns:xlink="http://www.w3.org/1999/xlink" viewBox="0 0 20 16">
  <defs>
    <linearGradient id="linear-gradient" y1="-26.047" x2="20" y2="-26.047" gradientTransform="matrix(1, 0, 0, -1, 0, -18.047)" gradientUnits="userSpaceOnUse">
      <stop offset="0" stop-color="#fd5a2a"/>
      <stop offset="0.573" stop-color="#ff5c2b"/>
      <stop offset="1" stop-color="#f63404"/>
    </linearGradient>
    <linearGradient id="linear-gradient-2" y1="-26.047" x2="20" y2="-26.047" gradientTransform="matrix(1, 0, 0, -1, 0, -18.047)" gradientUnits="userSpaceOnUse">
      <stop offset="0" stop-color="#fde800"/>
      <stop offset="0.522" stop-color="#fff600"/>
      <stop offset="1" stop-color="#fbcc00"/>
    </linearGradient>
    <linearGradient id="linear-gradient-3" x1="2.639" y1="-20.108" x2="3.309" y2="-20.108" gradientTransform="matrix(1, 0, 0, -1, 2.314, -13.043)" xlink:href="#linear-gradient"/>
    <linearGradient id="linear-gradient-4" x1="2.752" y1="-20.286" x2="2.781" y2="-20.286" gradientTransform="matrix(1, 0, 0, -1, 2.314, -13.043)" xlink:href="#linear-gradient"/>
    <linearGradient id="linear-gradient-5" x1="2.943" y1="-20.257" x2="3.021" y2="-20.257" gradientTransform="matrix(1, 0, 0, -1, 2.314, -13.043)" xlink:href="#linear-gradient"/>
    <linearGradient id="linear-gradient-6" x1="3.18" y1="-20.286" x2="3.207" y2="-20.286" gradientTransform="matrix(1, 0, 0, -1, 2.314, -13.043)" xlink:href="#linear-gradient"/>
    <linearGradient id="linear-gradient-7" x1="2.791" y1="-20.326" x2="3.17" y2="-20.326" gradientTransform="matrix(1, 0, 0, -1, 2.314, -13.043)" xlink:href="#linear-gradient"/>
    <linearGradient id="linear-gradient-8" x1="2.477" y1="-22.657" x2="2.655" y2="-22.657" gradientTransform="matrix(1, 0, 0, -1, 2.314, -13.043)" xlink:href="#linear-gradient"/>
    <linearGradient id="linear-gradient-9" x1="2.387" y1="-21.538" x2="3.722" y2="-21.538" gradientTransform="matrix(1, 0, 0, -1, 2.314, -13.043)" xlink:href="#linear-gradient"/>
    <linearGradient id="linear-gradient-10" x1="2.497" y1="-21.795" x2="2.737" y2="-21.795" gradientTransform="matrix(1, 0, 0, -1, 2.314, -13.043)" xlink:href="#linear-gradient"/>
    <linearGradient id="linear-gradient-11" x1="3.224" y1="-21.851" x2="3.41" y2="-21.851" gradientTransform="matrix(1, 0, 0, -1, 2.314, -13.043)" xlink:href="#linear-gradient"/>
    <linearGradient id="linear-gradient-12" x1="2.432" y1="-22.206" x2="3.442" y2="-22.206" gradientTransform="matrix(1, 0, 0, -1, 2.314, -13.043)" xlink:href="#linear-gradient"/>
    <linearGradient id="linear-gradient-13" x1="7.137" y1="-20.143" x2="7.774" y2="-20.143" gradientTransform="matrix(1, 0, 0, -1, 2.314, -13.043)" xlink:href="#linear-gradient"/>
    <linearGradient id="linear-gradient-14" x1="7.227" y1="-20.286" x2="7.256" y2="-20.286" gradientTransform="matrix(1, 0, 0, -1, 2.314, -13.043)" xlink:href="#linear-gradient"/>
    <linearGradient id="linear-gradient-15" x1="7.418" y1="-20.257" x2="7.496" y2="-20.257" gradientTransform="matrix(1, 0, 0, -1, 2.314, -13.043)" xlink:href="#linear-gradient"/>
    <linearGradient id="linear-gradient-16" x1="7.655" y1="-20.286" x2="7.683" y2="-20.286" gradientTransform="matrix(1, 0, 0, -1, 2.314, -13.043)" xlink:href="#linear-gradient"/>
    <linearGradient id="linear-gradient-17" x1="7.266" y1="-20.326" x2="7.645" y2="-20.326" gradientTransform="matrix(1, 0, 0, -1, 2.314, -13.043)" xlink:href="#linear-gradient"/>
    <linearGradient id="linear-gradient-18" x1="7.783" y1="-22.657" x2="7.96" y2="-22.657" gradientTransform="matrix(1, 0, 0, -1, 2.314, -13.043)" xlink:href="#linear-gradient"/>
    <linearGradient id="linear-gradient-19" x1="6.715" y1="-21.538" x2="8.051" y2="-21.538" gradientTransform="matrix(1, 0, 0, -1, 2.314, -13.043)" xlink:href="#linear-gradient"/>
    <linearGradient id="linear-gradient-20" x1="7.701" y1="-21.795" x2="7.941" y2="-21.795" gradientTransform="matrix(1, 0, 0, -1, 2.314, -13.043)" xlink:href="#linear-gradient"/>
    <linearGradient id="linear-gradient-21" x1="7.028" y1="-21.851" x2="7.213" y2="-21.851" gradientTransform="matrix(1, 0, 0, -1, 2.314, -13.043)" xlink:href="#linear-gradient"/>
    <linearGradient id="linear-gradient-22" x1="6.995" y1="-22.206" x2="8.006" y2="-22.206" gradientTransform="matrix(1, 0, 0, -1, 2.314, -13.043)" xlink:href="#linear-gradient"/>
    <linearGradient id="linear-gradient-23" x1="3.707" y1="-19.507" x2="6.702" y2="-19.507" gradientTransform="matrix(1, 0, 0, -1, 2.314, -13.043)" xlink:href="#linear-gradient"/>
    <linearGradient id="linear-gradient-24" x1="3.861" y1="-19.749" x2="3.963" y2="-19.749" gradientTransform="matrix(1, 0, 0, -1, 2.314, -13.043)" xlink:href="#linear-gradient"/>
    <linearGradient id="linear-gradient-25" x1="6.78" y1="-24.58" x2="6.91" y2="-24.58" xlink:href="#linear-gradient"/>
    <linearGradient id="linear-gradient-26" x1="7.463" y1="-24.521" x2="7.593" y2="-24.521" xlink:href="#linear-gradient"/>
    <linearGradient id="linear-gradient-27" x1="8.148" y1="-24.58" x2="8.278" y2="-24.58" xlink:href="#linear-gradient"/>
    <linearGradient id="linear-gradient-28" x1="6.468" y1="-19.749" x2="6.57" y2="-19.749" gradientTransform="matrix(1, 0, 0, -1, 2.314, -13.043)" xlink:href="#linear-gradient"/>
    <linearGradient id="linear-gradient-29" x1="4.353" y1="-20.202" x2="6.076" y2="-20.202" gradientTransform="matrix(1, 0, 0, -1, 2.314, -13.043)" xlink:href="#linear-gradient"/>
    <linearGradient id="linear-gradient-30" x1="4.212" y1="-20.065" x2="4.35" y2="-20.065" gradientTransform="matrix(1, 0, 0, -1, 2.314, -13.043)" xlink:href="#linear-gradient"/>
    <linearGradient id="linear-gradient-31" x1="5.083" y1="-19.956" x2="5.348" y2="-19.956" gradientTransform="matrix(1, 0, 0, -1, 2.314, -13.043)" xlink:href="#linear-gradient"/>
    <linearGradient id="linear-gradient-32" x1="6.08" y1="-20.065" x2="6.217" y2="-20.065" gradientTransform="matrix(1, 0, 0, -1, 2.314, -13.043)" xlink:href="#linear-gradient"/>
    <linearGradient id="linear-gradient-33" x1="5.182" y1="-23.569" x2="5.28" y2="-23.569" gradientTransform="matrix(1, 0, 0, -1, 2.314, -13.043)" xlink:href="#linear-gradient"/>
    <linearGradient id="linear-gradient-34" x1="3.714" y1="-22.856" x2="5.22" y2="-22.856" gradientTransform="matrix(1, 0, 0, -1, 2.314, -13.043)" xlink:href="#linear-gradient"/>
    <linearGradient id="linear-gradient-35" x1="5.22" y1="-22.856" x2="6.73" y2="-22.856" gradientTransform="matrix(1, 0, 0, -1, 2.314, -13.043)" xlink:href="#linear-gradient"/>
    <linearGradient id="linear-gradient-36" x1="3.714" y1="-21.163" x2="5.219" y2="-21.163" gradientTransform="matrix(1, 0, 0, -1, 2.314, -13.043)" xlink:href="#linear-gradient"/>
    <linearGradient id="linear-gradient-37" x1="7.049" y1="-26.996" x2="8.025" y2="-26.996" xlink:href="#linear-gradient"/>
    <clipPath id="clip-path">
      <rect width="20" height="16" fill="none"/>
    </clipPath>
    <radialGradient id="radial-gradient" cx="8.209" cy="-23.561" r="10.499" gradientTransform="matrix(1, 0, 0, -1, 0, -18.047)" gradientUnits="userSpaceOnUse">
      <stop offset="0" stop-color="#fcffff" stop-opacity="0.4"/>
      <stop offset="0.5" stop-color="#fff" stop-opacity="0.15"/>
      <stop offset="1" stop-color="#fff" stop-opacity="0"/>
    </radialGradient>
  </defs>
  <rect width="20" height="16" fill="url(#linear-gradient)"/>
  <rect y="4.25" width="20" height="7.5" fill="url(#linear-gradient-2)"/>
  <g id="coa">
    <g id="supporters">
      <g id="crown_left" data-name="crown left">
        <path d="M5.064,7.186a.061.061,0,0,1-.024,0c-.012-.009-.023-.019-.034-.029l-.02-.015-.019-.025a.087.087,0,0,1-.012-.063A.076.076,0,0,1,5,7.005a.38.38,0,0,1,.047-.018.2.2,0,0,1,.034-.012l.039-.01.017-.008.027,0A.187.187,0,0,1,5.2,6.944l.049,0,.049,0,.066,0h.034a.223.223,0,0,1,.044.013c.007,0,.048.018.063.023A.556.556,0,0,1,5.571,7a.1.1,0,0,1,.035.033.115.115,0,0,1,.014.032.062.062,0,0,1,0,.033c0,.008-.01.016-.016.024l-.018.031-.024.019s-.017.016-.03.014a1.933,1.933,0,0,0-.24-.025,1.62,1.62,0,0,0-.229.025Z" fill="url(#linear-gradient-3)"/>
        <g>
          <ellipse cx="5.294" cy="6.99" rx="0.041" ry="0.075" fill="#fff600" stroke="#000" stroke-width="0.008"/>
          <ellipse cx="5.294" cy="6.99" rx="0.019" ry="0.069" fill="#fff600" stroke="#000" stroke-width="0.008"/>
          <circle cx="5.294" cy="6.91" r="0.028" fill="#fff600"/>
          <path d="M5.333,6.9v.018H5.257V6.9h.028V6.862H5.266V6.845h.019V6.828H5.3v.017h.019v.017H5.3V6.9h.03" fill="#fff600" stroke="#000" stroke-width="0.009"/>
          <path d="M5.3,6.885a.026.026,0,0,1,.02.031h0a.026.026,0,0,1-.034.018.026.026,0,0,1-.02-.031h0a.027.027,0,0,1,.019-.018" fill="none" stroke="#000" stroke-width="0.008"/>
          <path d="M5.294,7.182H5.15l0-.036L5.14,7.109l-.007-.046c-.04-.052-.077-.087-.089-.079a.034.034,0,0,1,.014-.021c.036-.021.109.029.163.112l.014.022h.119l.014-.022c.055-.083.128-.133.163-.112a.032.032,0,0,1,.014.021c-.012-.007-.048.027-.089.079l-.007.046-.006.037,0,.036Z" fill="#fff600" stroke="#000" stroke-width="0.008"/>
          <path d="M5.05,6.982c.028-.016.091.035.142.113m.347-.113c-.028-.016-.091.035-.142.113" fill="none" stroke="#000" stroke-width="0.008"/>
        </g>
        <g id="crown_pt1" data-name="crown pt1">
          <path d="M5.081,7.247a.129.129,0,0,0-.017-.033.971.971,0,0,1,.461,0l-.016.028L5.5,7.266a.741.741,0,0,0-.2-.025.715.715,0,0,0-.206.026l-.007-.02h0" fill="#fff600" stroke="#000" stroke-width="0.008"/>
          <path d="M5.294,7.321A.939.939,0,0,0,5.477,7.3c.02-.006.031-.015.029-.025A.014.014,0,0,0,5.5,7.266a.858.858,0,0,0-.4,0,.017.017,0,0,0-.011.011c0,.01.01.019.03.025A.932.932,0,0,0,5.294,7.321Z" fill="#fff600" stroke="#000" stroke-width="0.008"/>
          <path d="M5.528,7.182l-.017-.016a.075.075,0,0,1-.039.007c-.021,0-.028-.029-.028-.029a.075.075,0,0,1-.043.018.049.049,0,0,1-.032-.018.084.084,0,0,1-.04.014.07.07,0,0,1-.036-.025s-.019.024-.038.025a.046.046,0,0,1-.034-.016.042.042,0,0,1-.032.022.058.058,0,0,1-.044-.019.068.068,0,0,1-.03.028.054.054,0,0,1-.037-.008l-.006.013-.009,0,0,.014a.959.959,0,0,1,.455,0l.006-.016Z" fill="#fff600" stroke="#000" stroke-width="0.008"/>
          <path d="M5.3,7.1H5.3l0,.012a.032.032,0,0,0,.034.031.033.033,0,0,0,.032-.022l0-.011,0,.012a.032.032,0,0,0,.039.026.034.034,0,0,0,.027-.031v0l.01-.011.006.013,0,.014a.03.03,0,0,0,.031.03h0a.033.033,0,0,0,.026-.013l.007-.009v.011c0,.01,0,.02.015.021a.04.04,0,0,0,.027-.011.131.131,0,0,0,.024-.023v.013a.132.132,0,0,1-.029.033.043.043,0,0,1-.029.007.028.028,0,0,1-.02-.018.046.046,0,0,1-.065-.017l0,0a.043.043,0,0,1-.034.015.049.049,0,0,1-.038-.017.045.045,0,0,1-.033.012.048.048,0,0,1-.04-.02.048.048,0,0,1-.04.02.045.045,0,0,1-.033-.012.048.048,0,0,1-.037.017.047.047,0,0,1-.035-.015.048.048,0,0,1-.043.026.055.055,0,0,1-.024-.007.026.026,0,0,1-.02.018.04.04,0,0,1-.028-.007A.122.122,0,0,1,5,7.154l0-.013a.179.179,0,0,0,.025.023.039.039,0,0,0,.027.011.019.019,0,0,0,.015-.021V7.143l.006.009a.034.034,0,0,0,.027.013.03.03,0,0,0,.031-.03h0a.022.022,0,0,0,0-.014l0-.013.011.011v0a.034.034,0,0,0,.067,0V7.115l.005.011a.032.032,0,0,0,.032.022.031.031,0,0,0,.033-.031V7.105H5.3Z" fill="#fff600" stroke="#000" stroke-width="0.008"/>
          <path d="M5.294,7.186a.889.889,0,0,0-.23.028l-.01-.005,0-.009a.935.935,0,0,1,.47,0l0,.009-.01.005A.889.889,0,0,0,5.294,7.186Z" fill="#fff600" stroke="#000" stroke-linejoin="round" stroke-width="0.008"/>
          <path d="M4.987,7.149s-.012-.014-.02-.022a.124.124,0,0,0-.02-.01.02.02,0,0,1,.017-.008.02.02,0,0,1,.014.006V7.109a.013.013,0,0,1,.01.01.038.038,0,0,1,0,.021Z" fill="#fff600" stroke="#000" stroke-width="0.008"/>
          <path d="M5.043,7.126l0,.02L5,7.15l-.006,0V7.14l.032-.027.018.013" fill="#fff600" stroke="#000" stroke-width="0.008"/>
          <path d="M4.987,7.142a.012.012,0,0,1,.016,0c.006,0,.007.012,0,.015a.012.012,0,0,1-.016,0S4.984,7.145,4.987,7.142Z" fill="#fff600" stroke="#000" stroke-width="0.008"/>
          <path d="M5.064,7.146a.011.011,0,0,1,0-.013.012.012,0,0,1,.007.021S5.067,7.151,5.064,7.146Z" fill="#fff600" stroke="#000" stroke-width="0.008"/>
          <path d="M5.084,7.12l.015.015.037-.02,0-.006-.006,0-.042,0-.007.02" fill="#fff600" stroke="#000" stroke-width="0.008"/>
          <path d="M5.126,7.052l-.02.019.026.034.007,0,0,0,.009-.041-.027-.01" fill="#fff600" stroke="#000" stroke-width="0.008"/>
          <path d="M5.2,7.1l-.008.019-.042,0-.006-.005,0-.006.037-.019L5.2,7.1" fill="#fff600" stroke="#000" stroke-width="0.008"/>
          <circle cx="5.139" cy="7.109" r="0.015" fill="#fff600" stroke="#000" stroke-width="0.008"/>
          <path d="M5.21,7.118a.01.01,0,0,1,.006-.012s.009,0,.009.01,0,.011-.006.011S5.211,7.123,5.21,7.118Z" fill="#fff600" stroke="#000" stroke-width="0.008"/>
          <path d="M5.237,7.1l.012.017.04-.012,0-.006,0-.006-.04-.011L5.237,7.1" fill="#fff600" stroke="#000" stroke-width="0.008"/>
          <path d="M5.294,7.034l-.026.015.019.042.007,0,.006,0,.019-.042-.025-.015" fill="#fff600" stroke="#000" stroke-width="0.008"/>
          <path d="M5.35,7.1l-.011.017L5.3,7.1l0-.006,0-.006.041-.011L5.35,7.1" fill="#fff600" stroke="#000" stroke-width="0.008"/>
          <circle cx="5.294" cy="7.095" r="0.015" fill="#fff600" stroke="#000" stroke-width="0.008"/>
          <path d="M5.379,7.118a.011.011,0,0,0-.007-.012s-.008,0-.009.01,0,.011.007.011S5.378,7.123,5.379,7.118Z" fill="#fff600" stroke="#000" stroke-width="0.008"/>
          <path d="M5.394,7.1l.007.019.042,0,.006-.005,0-.006-.037-.019L5.394,7.1" fill="#fff600" stroke="#000" stroke-width="0.008"/>
          <path d="M5.462,7.052l.02.019-.026.034-.007,0,0,0-.009-.041.027-.01" fill="#fff600" stroke="#000" stroke-width="0.008"/>
          <path d="M5.5,7.12l-.015.015-.037-.02,0-.006.006,0,.042,0,.007.02" fill="#fff600" stroke="#000" stroke-width="0.008"/>
          <circle cx="5.449" cy="7.109" r="0.015" fill="#fff600" stroke="#000" stroke-width="0.008"/>
          <path d="M5.524,7.146a.008.008,0,1,0-.015,0,.01.01,0,0,0,0,.013S5.522,7.151,5.524,7.146Z" fill="#fff600" stroke="#000" stroke-width="0.008"/>
          <path d="M5.6,7.149a.21.21,0,0,1,.02-.022l.02-.01a.023.023,0,0,0-.018-.008.016.016,0,0,0-.013.006V7.109a.016.016,0,0,0-.011.01.05.05,0,0,0,0,.021l0,.009Z" fill="#fff600" stroke="#000" stroke-width="0.008"/>
          <path d="M5.539,7.126l0,.02.042,0,.007,0,0-.006-.031-.027-.019.013" fill="#fff600" stroke="#000" stroke-width="0.008"/>
          <path d="M5.6,7.142s-.01,0-.016,0-.007.012,0,.015a.012.012,0,0,0,.016,0S5.6,7.145,5.6,7.142Z" fill="#fff600" stroke="#000" stroke-width="0.008"/>
        </g>
        <g id="crown_pt2" data-name="crown pt2">
          <path d="M5.065,7.248l.01-.015.019,0-.011.017-.018-.006" fill="url(#linear-gradient-4)"/>
          <path d="M5.149,7.233l-.02,0a.01.01,0,0,1-.012-.008.011.011,0,0,1,.008-.011l.021,0,.022,0a.01.01,0,0,1,.011.008.01.01,0,0,1-.008.01l-.022,0" fill="#058e6e" stroke="#000" stroke-width="0.008"/>
          <circle cx="5.22" cy="7.218" r="0.013" fill="#fff" stroke="#000" stroke-width="0.008"/>
          <path d="M5.3,7.224H5.266a.01.01,0,0,1-.01-.01.01.01,0,0,1,.01-.009h.059a.009.009,0,0,1,.009.009h0a.011.011,0,0,1-.01.01H5.3" fill="url(#linear-gradient-5)"/>
          <circle cx="5.369" cy="7.218" r="0.013" fill="#fff" stroke="#000" stroke-width="0.008"/>
          <path d="M5.439,7.233l.021,0a.01.01,0,1,0,0-.019l-.021,0-.021,0a.009.009,0,0,0-.011.008.008.008,0,0,0,.007.01h0l.021,0" fill="#058e6e" stroke="#000" stroke-width="0.008"/>
          <path d="M5.521,7.249l-.007-.016-.021,0,.01.018.018,0" fill="url(#linear-gradient-6)"/>
          <path d="M5.294,7.3a.75.75,0,0,1-.189-.02.866.866,0,0,1,.379,0A.763.763,0,0,1,5.294,7.3Z" fill="url(#linear-gradient-7)"/>
          <path d="M5.328,7.3V7.267M5.311,7.3V7.266M5.3,7.3V7.266" fill="none" stroke="#000" stroke-width="0"/>
          <path d="M5.287,7.3V7.266" fill="none" stroke="#000" stroke-width="0.001"/>
          <path d="M5.277,7.3V7.266" fill="none" stroke="#000" stroke-width="0.001"/>
          <path d="M5.267,7.3V7.266" fill="none" stroke="#000" stroke-width="0.001"/>
          <path d="M5.257,7.3V7.266" fill="none" stroke="#000" stroke-width="0.001"/>
          <path d="M5.249,7.3V7.266" fill="none" stroke="#000" stroke-width="0.002"/>
          <path d="M5.232,7.3V7.267M5.24,7.3V7.266" fill="none" stroke="#000" stroke-width="0.002"/>
          <path d="M5.217,7.3V7.268m.008.033V7.267" fill="none" stroke="#000" stroke-width="0.002"/>
          <path d="M5.2,7.3V7.27M5.2,7.3v-.03M5.21,7.3V7.269" fill="none" stroke="#000" stroke-width="0.002"/>
          <path d="M5.19,7.3V7.271" fill="none" stroke="#000" stroke-width="0.003"/>
          <path d="M5.183,7.3V7.271" fill="none" stroke="#000" stroke-width="0.003"/>
          <path d="M5.176,7.3V7.272" fill="none" stroke="#000" stroke-width="0.003"/>
          <path d="M5.161,7.294V7.275m.008.02V7.274" fill="none" stroke="#000" stroke-width="0.004"/>
          <path d="M5.154,7.292V7.276" fill="none" stroke="#000" stroke-width="0.004"/>
          <path d="M5.147,7.291V7.277" fill="none" stroke="#000" stroke-width="0.004"/>
          <path d="M5.139,7.289V7.278" fill="none" stroke="#000" stroke-width="0.004"/>
          <path d="M5.132,7.288V7.28" fill="none" stroke="#000" stroke-width="0.004"/>
        </g>
      </g>
      <g id="pillar_left" data-name="pillar left">
        <g>
          <path d="M5.762,10.44a.268.268,0,0,1-.118-.027.253.253,0,0,0-.115-.024.266.266,0,0,0-.118.025.277.277,0,0,1-.117.026.265.265,0,0,1-.118-.027.252.252,0,0,0-.114-.024.257.257,0,0,0-.116.024.268.268,0,0,1-.118.027v.072a.268.268,0,0,0,.118-.027.257.257,0,0,1,.116-.024.265.265,0,0,1,.114.024.276.276,0,0,0,.235,0,.283.283,0,0,1,.233,0,.254.254,0,0,0,.118.026Z" fill="#0081e7" stroke="#000" stroke-width="0.012"/>
          <path d="M5.762,10.512a.254.254,0,0,1-.118-.026.283.283,0,0,0-.233,0,.276.276,0,0,1-.235,0,.252.252,0,0,0-.114-.024.257.257,0,0,0-.116.024.268.268,0,0,1-.118.027v.072a.254.254,0,0,0,.118-.026.258.258,0,0,1,.116-.025.281.281,0,0,1,.114.024.274.274,0,0,0,.235,0,.266.266,0,0,1,.118-.025.254.254,0,0,1,.115.025.254.254,0,0,0,.118.026v-.072" fill="#eaeaea" stroke="#000" stroke-width="0.012"/>
          <path d="M5.762,10.584a.254.254,0,0,1-.118-.026.254.254,0,0,0-.115-.025.266.266,0,0,0-.118.025.274.274,0,0,1-.235,0,.281.281,0,0,0-.114-.024.258.258,0,0,0-.116.025.254.254,0,0,1-.118.026v.072a.254.254,0,0,0,.118-.026.26.26,0,0,1,.116-.024.264.264,0,0,1,.114.023.241.241,0,0,0,.118.027.262.262,0,0,0,.117-.025.287.287,0,0,1,.233,0,.254.254,0,0,0,.118.026v-.072" fill="#0081e7" stroke="#000" stroke-width="0.012"/>
          <path d="M5.762,10.729a.254.254,0,0,1-.118-.026.287.287,0,0,0-.233,0,.274.274,0,0,1-.235,0,.252.252,0,0,0-.114-.024.257.257,0,0,0-.116.024.268.268,0,0,1-.118.027v-.072a.268.268,0,0,0,.118-.027.26.26,0,0,1,.116-.024.264.264,0,0,1,.114.023.241.241,0,0,0,.118.027.262.262,0,0,0,.117-.025.287.287,0,0,1,.233,0,.254.254,0,0,0,.118.026v.073" fill="#eaeaea" stroke="#000" stroke-width="0.012"/>
          <path d="M5.762,10.8a.254.254,0,0,1-.118-.026.254.254,0,0,0-.115-.025.266.266,0,0,0-.118.025.274.274,0,0,1-.235,0,.265.265,0,0,0-.114-.024.245.245,0,0,0-.116.025.254.254,0,0,1-.118.026v-.072a.255.255,0,0,0,.118-.027.257.257,0,0,1,.116-.024.265.265,0,0,1,.114.024.274.274,0,0,0,.235,0,.287.287,0,0,1,.233,0,.254.254,0,0,0,.118.026V10.8Z" fill="#0081e7" stroke="#000" stroke-width="0.012"/>
        </g>
        <g>
          <path d="M5.031,10.143l0,.018a.082.082,0,0,1-.084.079h.688a.081.081,0,0,1-.084-.079h0l0-.018H5.031Z" fill="#fff600" stroke="#000" stroke-linejoin="round" stroke-width="0.012"/>
          <path d="M5.044,10.1h.5a.025.025,0,0,1,.03.018.023.023,0,0,1-.017.029H5.044a.024.024,0,0,1-.03-.017.025.025,0,0,1,.017-.03Z" fill="#fff600" stroke="#000" stroke-width="0.012"/>
          <path d="M4.952,10.415h.686V10.24H4.952Z" fill="#fff600" stroke="#000" stroke-width="0.012"/>
        </g>
        <path d="M5.05,10.069h.488V7.68H5.05Z" fill="#eaeaea" stroke="#000" stroke-width="0.012"/>
        <path d="M5.4,7.683v2.384m.055-2.384v2.384" fill="none" stroke="#000" stroke-width="0.012"/>
        <g>
          <path d="M4.961,7.49H5.63V7.315H4.961Z" fill="#fff600" stroke="#000" stroke-width="0.012"/>
          <path d="M5.031,7.607l.013,0h.5l.014,0a.041.041,0,0,1-.029-.039.042.042,0,0,1,.03-.04l-.014,0h-.5l-.014,0h0a.041.041,0,0,1,.029.039A.043.043,0,0,1,5.031,7.607Z" fill="#fff600" stroke="#000" stroke-linejoin="round" stroke-width="0.012"/>
          <path d="M5.044,7.605h.5a.024.024,0,1,1,.013.047H5.044a.024.024,0,1,1-.013-.047A.029.029,0,0,1,5.044,7.605Z" fill="#fff600" stroke="#000" stroke-width="0.012"/>
          <path d="M5.044,7.49h.5c.017,0,.031.009.031.02s-.014.02-.031.02h-.5c-.017,0-.031-.009-.031-.02S5.027,7.49,5.044,7.49Z" fill="#fff600" stroke="#000" stroke-width="0.012"/>
        </g>
      </g>
      <g id="ribbon_left" data-name="ribbon left">
        <path d="M4.9,9.478c-.068.039-.114.079-.106.1s.025.032.056.053c.048.033.078.094.055.122a.17.17,0,0,0,0-.274Z" fill="url(#linear-gradient-8)"/>
        <path d="M6.036,8.573a1.445,1.445,0,0,0-.729-.062c-.291.049-.513.165-.5.26l0,.008S4.7,8.532,4.7,8.523c-.02-.105.227-.234.55-.288a1.626,1.626,0,0,1,.287-.023,1.544,1.544,0,0,1,.5.067v.294" fill="url(#linear-gradient-9)"/>
        <path d="M5.049,8.873c-.135-.009-.227-.046-.238-.1s.038-.1.119-.14q.06.007.12.009v.233" fill="url(#linear-gradient-10)"/>
        <path d="M5.539,8.691a.4.4,0,0,1,.179.059l0,.005c.015.031-.059.1-.183.17V8.691" fill="url(#linear-gradient-11)"/>
        <path d="M4.746,9.334c-.012-.038.12-.116.306-.184.085-.03.155-.062.243-.1.258-.114.45-.246.426-.293l0-.005A1.71,1.71,0,0,1,5.754,9c.023.044-.152.173-.39.287-.076.037-.237.1-.313.123-.137.047-.272.136-.259.169l-.046-.243Z" fill="url(#linear-gradient-12)"/>
      </g>
      <g id="crown_right" data-name="crown right">
        <path d="M9.769,7.132a.092.092,0,0,1-.038.026c-.016,0-.036-.014-.036-.014a.069.069,0,0,1-.033.019c-.017,0-.042-.02-.042-.02a.1.1,0,0,1-.032.03.05.05,0,0,1-.034-.007.058.058,0,0,1-.02.018.018.018,0,0,1-.014,0L9.5,7.171l-.02-.022-.019-.007L9.454,7.11l0-.017c0-.019.026-.042.069-.052a.13.13,0,0,1,.062,0,.163.163,0,0,1,.1-.025.177.177,0,0,1,.091.021.182.182,0,0,1,.091-.021.163.163,0,0,1,.1.025.13.13,0,0,1,.062,0c.043.01.073.033.069.052l0,.017-.01.032-.018.007-.021.022-.017.011a.02.02,0,0,1-.015,0,.047.047,0,0,1-.019-.018.051.051,0,0,1-.034.007.092.092,0,0,1-.032-.03s-.025.024-.043.02a.08.08,0,0,1-.032-.019s-.021.017-.036.014a.1.1,0,0,1-.039-.026Z" fill="url(#linear-gradient-13)"/>
        <g>
          <ellipse cx="9.768" cy="7.005" rx="0.041" ry="0.059" fill="#fff600" stroke="#000" stroke-width="0.008"/>
          <ellipse cx="9.769" cy="7.005" rx="0.019" ry="0.054" fill="#fff600" stroke="#000" stroke-width="0.008"/>
          <circle cx="9.769" cy="6.938" r="0.028" fill="#fff600"/>
          <path d="M9.808,6.928v.018H9.732V6.928H9.76V6.889H9.741V6.872H9.76V6.855h.018v.017H9.8v.017H9.778v.039h.03" fill="#fff600" stroke="#000" stroke-width="0.009"/>
          <path d="M9.777,6.913a.026.026,0,0,1,.019.032h0a.028.028,0,0,1-.035.017.026.026,0,0,1-.019-.032h0a.03.03,0,0,1,.02-.018" fill="none" stroke="#000" stroke-width="0.008"/>
        </g>
        <g>
          <path d="M9.456,7.119a.088.088,0,0,1-.006-.033A.085.085,0,0,1,9.534,7h0a.088.088,0,0,1,.042.011" fill="none" stroke="#000" stroke-linecap="round" stroke-width="0.008"/>
          <path d="M9.608,7.057A.044.044,0,0,1,9.6,7.032a.072.072,0,0,1,.079-.063.1.1,0,0,1,.049.014" fill="none" stroke="#000" stroke-width="0.008"/>
          <path d="M9.929,7.058a.048.048,0,0,0,.007-.026.072.072,0,0,0-.079-.063.1.1,0,0,0-.049.014" fill="none" stroke="#000" stroke-width="0.008"/>
          <path d="M10.08,7.119a.088.088,0,0,0,.006-.033A.085.085,0,0,0,10,7h0a.088.088,0,0,0-.042.011" fill="none" stroke="#000" stroke-linecap="round" stroke-width="0.008"/>
          <circle cx="9.431" cy="7.08" r="0.014" fill="none" stroke="#000" stroke-width="0.006"/>
          <circle cx="9.436" cy="7.032" r="0.014" fill="none" stroke="#000" stroke-width="0.006"/>
          <circle cx="9.467" cy="6.996" r="0.014" fill="none" stroke="#000" stroke-width="0.006"/>
          <circle cx="9.507" cy="6.977" r="0.014" fill="none" stroke="#000" stroke-width="0.006"/>
          <circle cx="9.55" cy="6.978" r="0.014" fill="none" stroke="#000" stroke-width="0.006"/>
          <circle cx="9.577" cy="7.032" r="0.014" fill="#fff" stroke="#000" stroke-width="0.006"/>
          <circle cx="9.584" cy="6.987" r="0.014" fill="none" stroke="#000" stroke-width="0.006"/>
          <circle cx="9.618" cy="6.958" r="0.014" fill="none" stroke="#000" stroke-width="0.006"/>
          <circle cx="9.661" cy="6.945" r="0.014" fill="none" stroke="#000" stroke-width="0.006"/>
          <circle cx="9.704" cy="6.946" r="0.014" fill="none" stroke="#000" stroke-width="0.006"/>
          <circle cx="9.832" cy="6.946" r="0.014" fill="none" stroke="#000" stroke-width="0.006"/>
          <circle cx="9.876" cy="6.945" r="0.014" fill="none" stroke="#000" stroke-width="0.006"/>
          <circle cx="9.918" cy="6.958" r="0.014" fill="none" stroke="#000" stroke-width="0.006"/>
          <circle cx="9.952" cy="6.987" r="0.014" fill="none" stroke="#000" stroke-width="0.006"/>
          <circle cx="9.959" cy="7.032" r="0.014" fill="#fff" stroke="#000" stroke-width="0.006"/>
          <circle cx="9.986" cy="6.978" r="0.014" fill="none" stroke="#000" stroke-width="0.006"/>
          <circle cx="10.029" cy="6.977" r="0.014" fill="none" stroke="#000" stroke-width="0.006"/>
          <circle cx="10.07" cy="6.996" r="0.014" fill="none" stroke="#000" stroke-width="0.006"/>
          <circle cx="10.1" cy="7.032" r="0.014" fill="none" stroke="#000" stroke-width="0.006"/>
          <circle cx="10.105" cy="7.08" r="0.014" fill="none" stroke="#000" stroke-width="0.006"/>
        </g>
        <g id="crown_pt1-2" data-name="crown pt1-2">
          <path d="M9.556,7.247a.129.129,0,0,0-.017-.033.971.971,0,0,1,.461,0l-.016.028-.011.024a.741.741,0,0,0-.2-.025.715.715,0,0,0-.206.026l-.007-.02h0" fill="#fff600" stroke="#000" stroke-width="0.008"/>
          <path d="M9.769,7.321A.932.932,0,0,0,9.952,7.3c.02-.006.032-.015.029-.025a.014.014,0,0,0-.011-.011.858.858,0,0,0-.4,0,.017.017,0,0,0-.011.011c0,.01.01.019.03.025A.939.939,0,0,0,9.769,7.321Z" fill="#fff600" stroke="#000" stroke-width="0.008"/>
          <path d="M10,7.182l-.017-.016a.074.074,0,0,1-.039.007c-.021,0-.028-.029-.028-.029a.075.075,0,0,1-.043.018.052.052,0,0,1-.032-.018.08.08,0,0,1-.04.014.07.07,0,0,1-.036-.025s-.019.024-.038.025A.046.046,0,0,1,9.7,7.142a.042.042,0,0,1-.032.022.059.059,0,0,1-.044-.019.071.071,0,0,1-.029.028.056.056,0,0,1-.038-.008l-.006.013-.009,0,0,.014A.959.959,0,0,1,10,7.2L10,7.182Z" fill="#fff600" stroke="#000" stroke-width="0.008"/>
          <path d="M9.77,7.1h.008l0,.012a.032.032,0,0,0,.034.031.033.033,0,0,0,.032-.022l0-.011,0,.012a.032.032,0,0,0,.039.026.034.034,0,0,0,.027-.031v0l.01-.011.006.013,0,.014a.03.03,0,0,0,.032.03h0a.033.033,0,0,0,.026-.013l.007-.009v.011c0,.01,0,.02.015.021a.04.04,0,0,0,.027-.011.131.131,0,0,0,.024-.023v.013a.132.132,0,0,1-.029.033A.043.043,0,0,1,10,7.194a.028.028,0,0,1-.02-.018.08.08,0,0,0-.1,0,.049.049,0,0,1-.038-.017.045.045,0,0,1-.033.012.049.049,0,0,1-.04-.02.048.048,0,0,1-.04.02A.045.045,0,0,1,9.7,7.155a.048.048,0,0,1-.037.017.047.047,0,0,1-.035-.015.048.048,0,0,1-.043.026.048.048,0,0,1-.023-.007.028.028,0,0,1-.021.018.04.04,0,0,1-.028-.007.14.14,0,0,1-.031-.033l0-.013a.131.131,0,0,0,.024.023.039.039,0,0,0,.027.011.019.019,0,0,0,.015-.021V7.143l.006.009a.034.034,0,0,0,.027.013.031.031,0,0,0,.032-.03h0a.032.032,0,0,0,0-.014l.005-.013.011.011v0a.033.033,0,0,0,.035.032.034.034,0,0,0,.031-.027V7.115l0,.011a.032.032,0,0,0,.032.022.031.031,0,0,0,.033-.031V7.105H9.77Z" fill="#fff600" stroke="#000" stroke-width="0.008"/>
          <path d="M9.769,7.186a.889.889,0,0,0-.23.028l-.01-.005L9.534,7.2a.935.935,0,0,1,.47,0l.005.009L10,7.214A.889.889,0,0,0,9.769,7.186Z" fill="#fff600" stroke="#000" stroke-linejoin="round" stroke-width="0.008"/>
          <path d="M9.462,7.149l-.02-.022-.02-.01a.02.02,0,0,1,.017-.008.017.017,0,0,1,.014.006V7.109a.016.016,0,0,1,.011.01.05.05,0,0,1,0,.021Z" fill="#fff600" stroke="#000" stroke-width="0.008"/>
          <path d="M9.519,7.126l0,.02-.042,0-.006,0V7.14L9.5,7.113l.019.013" fill="#fff600" stroke="#000" stroke-width="0.008"/>
          <path d="M9.462,7.142a.012.012,0,0,1,.016,0c.006,0,.008.012,0,.015a.012.012,0,0,1-.016,0S9.459,7.145,9.462,7.142Z" fill="#fff600" stroke="#000" stroke-width="0.008"/>
          <path d="M9.54,7.146a.011.011,0,0,1,0-.013.012.012,0,0,1,.012.008c0,.006,0,.011,0,.013S9.542,7.151,9.54,7.146Z" fill="#fff600" stroke="#000" stroke-width="0.008"/>
          <path d="M9.559,7.12l.015.015.037-.02,0-.006-.005,0-.042,0-.008.02" fill="#fff600" stroke="#000" stroke-width="0.008"/>
          <path d="M9.6,7.052l-.02.019.026.034.007,0,0,0,.009-.041L9.6,7.052" fill="#fff600" stroke="#000" stroke-width="0.008"/>
          <path d="M9.67,7.1l-.008.019-.042,0,0-.005,0-.006.036-.019L9.67,7.1" fill="#fff600" stroke="#000" stroke-width="0.008"/>
          <circle cx="9.614" cy="7.109" r="0.015" fill="#fff600" stroke="#000" stroke-width="0.008"/>
          <path d="M9.685,7.118a.01.01,0,0,1,.006-.012s.009,0,.009.01,0,.011-.006.011S9.686,7.123,9.685,7.118Z" fill="#fff600" stroke="#000" stroke-width="0.008"/>
          <path d="M9.712,7.1l.012.017L9.765,7.1l0-.006-.005-.006-.04-.011L9.712,7.1" fill="#fff600" stroke="#000" stroke-width="0.008"/>
          <path d="M9.769,7.034l-.026.015.019.042.007,0,.006,0,.02-.042-.026-.015" fill="#fff600" stroke="#000" stroke-width="0.008"/>
          <path d="M9.825,7.1l-.011.017L9.774,7.1l0-.006,0-.006.04-.011.011.018" fill="#fff600" stroke="#000" stroke-width="0.008"/>
          <circle cx="9.769" cy="7.095" r="0.015" fill="#fff600" stroke="#000" stroke-width="0.008"/>
          <path d="M9.854,7.118a.011.011,0,0,0-.007-.012s-.008,0-.009.01,0,.011.007.011S9.853,7.123,9.854,7.118Z" fill="#fff600" stroke="#000" stroke-width="0.008"/>
          <path d="M9.869,7.1l.007.019.042,0,.006-.005,0-.006-.037-.019L9.869,7.1" fill="#fff600" stroke="#000" stroke-width="0.008"/>
          <path d="M9.937,7.052l.02.019-.026.034-.007,0,0,0L9.91,7.062l.027-.01" fill="#fff600" stroke="#000" stroke-width="0.008"/>
          <path d="M9.979,7.12l-.015.015-.037-.02,0-.006.006,0,.042,0,.007.02" fill="#fff600" stroke="#000" stroke-width="0.008"/>
          <circle cx="9.924" cy="7.109" r="0.015" fill="#fff600" stroke="#000" stroke-width="0.008"/>
          <path d="M10,7.146a.01.01,0,0,0,0-.013.012.012,0,0,0-.011.008.01.01,0,0,0,0,.013S10,7.151,10,7.146Z" fill="#fff600" stroke="#000" stroke-width="0.008"/>
          <path d="M10.071,7.149a.21.21,0,0,1,.02-.022l.02-.01a.023.023,0,0,0-.018-.008.016.016,0,0,0-.013.006V7.109a.016.016,0,0,0-.011.01.05.05,0,0,0,0,.021Z" fill="#fff600" stroke="#000" stroke-width="0.008"/>
          <path d="M10.014,7.126l0,.02.042,0,.007,0,0-.006-.031-.027-.019.013" fill="#fff600" stroke="#000" stroke-width="0.008"/>
          <path d="M10.071,7.142s-.01,0-.016,0-.007.012,0,.015a.012.012,0,0,0,.016,0C10.073,7.152,10.075,7.145,10.071,7.142Z" fill="#fff600" stroke="#000" stroke-width="0.008"/>
        </g>
        <g id="crown_pt2-2" data-name="crown pt2-2">
          <path d="M9.54,7.248l.01-.015.019,0-.011.017L9.54,7.248" fill="url(#linear-gradient-14)"/>
          <path d="M9.624,7.233l-.02,0a.012.012,0,0,1-.012-.008A.011.011,0,0,1,9.6,7.218l.021,0,.022,0a.01.01,0,0,1,.011.008.009.009,0,0,1-.008.01l-.022,0" fill="#058e6e" stroke="#000" stroke-width="0.008"/>
          <circle cx="9.695" cy="7.218" r="0.013" fill="#fff" stroke="#000" stroke-width="0.008"/>
          <path d="M9.77,7.224H9.741a.01.01,0,0,1-.01-.01.01.01,0,0,1,.01-.009H9.8a.011.011,0,0,1,.01.009h0a.011.011,0,0,1-.01.01H9.77" fill="url(#linear-gradient-15)"/>
          <circle cx="9.844" cy="7.218" r="0.013" fill="#fff" stroke="#000" stroke-width="0.008"/>
          <path d="M9.914,7.233l.021,0a.01.01,0,0,0,0-.019l-.021,0-.021,0a.01.01,0,0,0-.011.008.008.008,0,0,0,.007.01h0l.021,0" fill="#058e6e" stroke="#000" stroke-width="0.008"/>
          <path d="M10,7.249l-.007-.016-.02,0,.009.018.018,0" fill="url(#linear-gradient-16)"/>
          <path d="M9.769,7.3a.75.75,0,0,1-.189-.02.866.866,0,0,1,.379,0A.763.763,0,0,1,9.769,7.3Z" fill="url(#linear-gradient-17)"/>
          <path d="M9.8,7.3V7.267M9.786,7.3V7.266M9.773,7.3V7.266" fill="none" stroke="#000" stroke-width="0"/>
          <path d="M9.762,7.3V7.266" fill="none" stroke="#000" stroke-width="0.001"/>
          <path d="M9.752,7.3V7.266" fill="none" stroke="#000" stroke-width="0.001"/>
          <path d="M9.742,7.3V7.266" fill="none" stroke="#000" stroke-width="0.001"/>
          <path d="M9.732,7.3V7.266" fill="none" stroke="#000" stroke-width="0.001"/>
          <path d="M9.724,7.3V7.266" fill="none" stroke="#000" stroke-width="0.002"/>
          <path d="M9.707,7.3V7.267m.008.035V7.266" fill="none" stroke="#000" stroke-width="0.002"/>
          <path d="M9.692,7.3V7.268M9.7,7.3V7.267" fill="none" stroke="#000" stroke-width="0.002"/>
          <path d="M9.672,7.3V7.27m.006.029v-.03m.007.031V7.269" fill="none" stroke="#000" stroke-width="0.002"/>
          <path d="M9.665,7.3V7.271" fill="none" stroke="#000" stroke-width="0.003"/>
          <path d="M9.658,7.3V7.271" fill="none" stroke="#000" stroke-width="0.003"/>
          <path d="M9.651,7.3V7.272" fill="none" stroke="#000" stroke-width="0.003"/>
          <path d="M9.636,7.294V7.275m.008.02V7.274" fill="none" stroke="#000" stroke-width="0.004"/>
          <path d="M9.629,7.292V7.276" fill="none" stroke="#000" stroke-width="0.004"/>
          <path d="M9.622,7.291V7.277" fill="none" stroke="#000" stroke-width="0.004"/>
          <path d="M9.614,7.289V7.278" fill="none" stroke="#000" stroke-width="0.004"/>
          <path d="M9.607,7.288V7.28" fill="none" stroke="#000" stroke-width="0.004"/>
        </g>
      </g>
      <g id="pillar_right" data-name="pillar right">
        <g id="pillar_left-2" data-name="pillar left-2">
          <g>
            <path d="M10.237,10.44a.272.272,0,0,1-.118-.027A.253.253,0,0,0,10,10.389a.266.266,0,0,0-.118.025.277.277,0,0,1-.117.026.265.265,0,0,1-.118-.027.252.252,0,0,0-.114-.024.26.26,0,0,0-.116.024.265.265,0,0,1-.118.027v.072a.268.268,0,0,0,.118-.027.26.26,0,0,1,.116-.024.265.265,0,0,1,.114.024.276.276,0,0,0,.235,0,.283.283,0,0,1,.233,0,.254.254,0,0,0,.118.026Z" fill="#0081e7" stroke="#000" stroke-width="0.012"/>
            <path d="M10.237,10.512a.257.257,0,0,1-.118-.026.283.283,0,0,0-.233,0,.276.276,0,0,1-.235,0,.252.252,0,0,0-.114-.024.26.26,0,0,0-.116.024.268.268,0,0,1-.118.027v.072a.254.254,0,0,0,.118-.026.261.261,0,0,1,.116-.025.281.281,0,0,1,.114.024.274.274,0,0,0,.235,0A.266.266,0,0,1,10,10.533a.254.254,0,0,1,.115.025.254.254,0,0,0,.118.026v-.072" fill="#eaeaea" stroke="#000" stroke-width="0.012"/>
            <path d="M10.237,10.584a.257.257,0,0,1-.118-.026A.254.254,0,0,0,10,10.533a.266.266,0,0,0-.118.025.274.274,0,0,1-.235,0,.281.281,0,0,0-.114-.024.261.261,0,0,0-.116.025.254.254,0,0,1-.118.026v.072a.252.252,0,0,0,.118-.026.26.26,0,0,1,.116-.024.264.264,0,0,1,.114.023.241.241,0,0,0,.118.027.262.262,0,0,0,.117-.025.287.287,0,0,1,.233,0,.254.254,0,0,0,.118.026v-.072" fill="#0081e7" stroke="#000" stroke-width="0.012"/>
            <path d="M10.237,10.729a.254.254,0,0,1-.118-.026.287.287,0,0,0-.233,0,.274.274,0,0,1-.235,0,.252.252,0,0,0-.114-.024.26.26,0,0,0-.116.024.268.268,0,0,1-.118.027v-.072a.265.265,0,0,0,.118-.027.26.26,0,0,1,.116-.024.264.264,0,0,1,.114.023.241.241,0,0,0,.118.027.262.262,0,0,0,.117-.025.287.287,0,0,1,.233,0,.257.257,0,0,0,.118.026v.073" fill="#eaeaea" stroke="#000" stroke-width="0.012"/>
            <path d="M10.237,10.8a.254.254,0,0,1-.118-.026A.254.254,0,0,0,10,10.75a.266.266,0,0,0-.118.025.274.274,0,0,1-.235,0,.265.265,0,0,0-.114-.024.248.248,0,0,0-.116.025A.254.254,0,0,1,9.3,10.8v-.072a.252.252,0,0,0,.118-.027.26.26,0,0,1,.116-.024.265.265,0,0,1,.114.024.274.274,0,0,0,.235,0,.287.287,0,0,1,.233,0,.257.257,0,0,0,.118.026Z" fill="#0081e7" stroke="#000" stroke-width="0.012"/>
          </g>
          <g>
            <path d="M9.507,10.143l0,.018a.082.082,0,0,1-.084.079h.688a.082.082,0,0,1-.084-.079h0l0-.018H9.507Z" fill="#fff600" stroke="#000" stroke-linejoin="round" stroke-width="0.012"/>
            <path d="M9.519,10.1h.5a.024.024,0,0,1,.029.018.023.023,0,0,1-.017.029H9.519a.024.024,0,0,1-.03-.017.025.025,0,0,1,.017-.03Z" fill="#fff600" stroke="#000" stroke-width="0.012"/>
            <path d="M9.427,10.415h.686V10.24H9.427Z" fill="#fff600" stroke="#000" stroke-width="0.012"/>
          </g>
          <path d="M9.525,10.069h.488V7.68H9.525Z" fill="#eaeaea" stroke="#000" stroke-width="0.012"/>
          <path d="M9.873,7.683v2.384m.055-2.384v2.384" fill="none" stroke="#000" stroke-width="0.012"/>
          <g>
            <path d="M9.436,7.49h.669V7.315H9.436Z" fill="#fff600" stroke="#000" stroke-width="0.012"/>
            <path d="M9.507,7.607l.012,0h.5l.013,0A.041.041,0,0,1,10,7.568a.042.042,0,0,1,.031-.04l-.015,0h-.5l-.014,0h0a.04.04,0,0,1,.029.039A.043.043,0,0,1,9.507,7.607Z" fill="#fff600" stroke="#000" stroke-linejoin="round" stroke-width="0.012"/>
            <path d="M9.519,7.605h.5a.023.023,0,0,1,.029.017.024.024,0,0,1-.017.03H9.519a.025.025,0,0,1-.03-.017.025.025,0,0,1,.017-.03A.028.028,0,0,1,9.519,7.605Z" fill="#fff600" stroke="#000" stroke-width="0.012"/>
            <path d="M9.519,7.49h.5c.017,0,.031.009.031.02s-.014.02-.031.02h-.5c-.017,0-.031-.009-.031-.02S9.5,7.49,9.519,7.49Z" fill="#fff600" stroke="#000" stroke-width="0.012"/>
          </g>
        </g>
      </g>
      <g id="ribbon_right" data-name="ribbon right">
        <g id="ribbon_left-2" data-name="ribbon left-2">
          <path d="M10.167,9.478c.067.039.114.079.106.1s-.025.032-.056.053c-.049.033-.078.094-.055.122a.17.17,0,0,1,0-.274Z" fill="url(#linear-gradient-18)"/>
          <path d="M9.029,8.573a1.442,1.442,0,0,1,.728-.062c.292.049.514.165.5.26l0,.008s.109-.247.111-.256c.02-.105-.227-.234-.55-.288a1.626,1.626,0,0,0-.287-.023,1.544,1.544,0,0,0-.5.067v.294" fill="url(#linear-gradient-19)"/>
          <path d="M10.015,8.873c.136-.009.228-.046.239-.1s-.038-.1-.119-.14q-.06.007-.12.009v.233" fill="url(#linear-gradient-20)"/>
          <path d="M9.526,8.691a.392.392,0,0,0-.179.059l0,.005c-.015.031.059.1.183.17V8.691" fill="url(#linear-gradient-21)"/>
          <path d="M10.318,9.334c.013-.038-.119-.116-.3-.184-.085-.03-.155-.062-.243-.1-.259-.114-.45-.246-.426-.293l0-.005A1.859,1.859,0,0,0,9.311,9c-.023.044.151.173.39.287.076.037.237.1.313.123.136.047.271.136.259.169l.045-.243Z" fill="url(#linear-gradient-22)"/>
        </g>
      </g>
      <g id="plus_ultra" data-name="plus ultra">
        <path d="M5.016,8.459c.06-.022.1-.048.08-.095-.012-.03-.043-.035-.089-.018l-.081.029L5,8.556l.024-.01.026-.008-.033-.079Zm-.035-.088L5,8.364a.036.036,0,0,1,.045.024h0a.036.036,0,0,1-.015.046l-.021.01-.03-.073" fill="#fff600"/>
        <path d="M5.207,8.3,5.181,8.3l-.026,0,.042.188.132-.026,0-.011,0-.013a.8.8,0,0,1-.078.02L5.207,8.3" fill="#fff600"/>
        <path d="M5.471,8.458c.024-.068.054-.134.084-.2l-.016,0H5.523c-.016.048-.036.1-.057.144-.024-.045-.051-.09-.072-.135l-.031,0H5.331c.038.062.075.123.11.187l.015,0h.015" fill="#fff600"/>
        <path d="M5.745,8.313l.015-.027a.105.105,0,0,0-.054-.018c-.054-.006-.085.018-.088.05-.008.068.1.062.094.107,0,.02-.023.027-.045.025a.046.046,0,0,1-.045-.035H5.616a.207.207,0,0,1-.015.034.112.112,0,0,0,.056.018c.055.006.1-.016.1-.052.007-.065-.1-.068-.1-.106,0-.016.014-.027.042-.024a.041.041,0,0,1,.038.029h0" fill="#fff600"/>
        <path d="M9.333,8.469c.019-.07.042-.138.066-.207l-.016,0H9.366c-.011.049-.026.1-.042.148-.029-.043-.06-.085-.085-.129l-.031.006-.031,0c.044.058.086.116.126.177l.015,0h.015" fill="#fff600"/>
        <path d="M9.518,8.264H9.492l-.027,0,0,.192.134,0,0-.013,0-.012c-.025,0-.051,0-.082,0l0-.172" fill="#fff600"/>
        <path d="M9.729,8.3a.593.593,0,0,1,.063.01V8.292l0-.011-.182-.015v.012l0,.012a.5.5,0,0,1,.067,0l-.016.173h.026l.027,0L9.729,8.3" fill="#fff600"/>
        <path d="M9.8,8.485l.027.005.025.006.022-.088h0l.015.035.027.067.031.005.031.009-.009-.02c-.014-.03-.03-.061-.042-.091.033,0,.059-.011.066-.038a.042.042,0,0,0-.021-.046.172.172,0,0,0-.054-.018L9.85,8.3,9.8,8.485M9.9,8.322c.022.005.048.009.048.033l0,.014c-.007.028-.028.038-.064.027L9.9,8.322" fill="#fff600"/>
        <path d="M10.151,8.543q0,.032-.009.063l.027.013.025.016.018-.217L10.2,8.412,10.189,8.4,10,8.526l.015.008.014.008.052-.039.072.04Zm-.054-.05.064-.041-.008.072L10.1,8.493" fill="#fff600"/>
      </g>
    </g>
    <g id="crown_crest" data-name="crown crest">
      <path d="M7.513,6a1.423,1.423,0,0,1,.493.075,1.068,1.068,0,0,0,.457.072.8.8,0,0,1,.319.075.879.879,0,0,1,.234.147l-.047.042-.014.119-.129.147-.064.055-.153.122-.078.007-.024.067L7.52,6.813l-.991.116-.023-.067-.079-.007-.152-.122L6.21,6.678l-.129-.147-.013-.119L6.021,6.37a.863.863,0,0,1,.234-.147.8.8,0,0,1,.318-.075,1.07,1.07,0,0,0,.458-.072A1.362,1.362,0,0,1,7.513,6Z" fill="url(#linear-gradient-23)"/>
      <g>
        <path d="M6.784,6.262l.041.033.063-.1A.229.229,0,0,1,6.774,6l0-.028c.006-.13.165-.237.366-.237a.476.476,0,0,1,.265.074c0-.02,0-.037.006-.056a.546.546,0,0,0-.271-.068c-.232,0-.413.132-.421.287l0,.028a.276.276,0,0,0,.1.209l-.033.055" fill="#fff600" stroke="#000" stroke-width="0.012"/>
        <path d="M6.787,6.263a.288.288,0,0,1-.128-.227.307.307,0,0,1,.167-.253.265.265,0,0,0-.1.187l0,.028a.276.276,0,0,0,.1.209l-.03.056" fill="#fff600" stroke="#000" stroke-width="0.012"/>
        <path d="M6.09,6.366a.271.271,0,0,1-.044-.3.555.555,0,0,1,.5-.227.758.758,0,0,1,.184.02A.275.275,0,0,0,6.7,5.9a.86.86,0,0,0-.152-.014.5.5,0,0,0-.454.2.229.229,0,0,0-.022.1.232.232,0,0,0,.084.175l-.079.129-.042-.034.054-.086Z" fill="#fff600" stroke="#000" stroke-width="0.012"/>
        <path d="M6.171,5.934a.332.332,0,0,0-.125.13.271.271,0,0,0,.044.3l-.048.078a.327.327,0,0,1-.072-.2A.369.369,0,0,1,6.171,5.934Z" fill="#fff600" stroke="#000" stroke-width="0.012"/>
        <path d="M7.525,5.657a.111.111,0,0,1,.109.082.921.921,0,0,1,.013.139s0,.01,0,.015l0,.019a.817.817,0,0,0,.038.255l-.161.154-.163-.154A.848.848,0,0,0,7.4,5.912V5.878a1.071,1.071,0,0,1,.012-.139A.114.114,0,0,1,7.525,5.657Z" fill="#fff600" stroke="#000" stroke-width="0.012"/>
        <path d="M7.525,5.707a.058.058,0,0,1,.056.042.717.717,0,0,1,.012.131v.033a.791.791,0,0,0,.036.241l-.106.1-.106-.1a.762.762,0,0,0,.036-.241V5.88a.952.952,0,0,1,.012-.131A.06.06,0,0,1,7.525,5.707Z" fill="#fff600" stroke="#000" stroke-width="0.012"/>
        <path d="M8.265,6.262,8.223,6.3l-.062-.1A.232.232,0,0,0,8.275,6l0-.028c-.006-.13-.165-.237-.366-.237a.476.476,0,0,0-.265.074c0-.02,0-.037-.007-.056a.552.552,0,0,1,.272-.068c.232,0,.412.132.421.287L8.33,6a.279.279,0,0,1-.1.209l.033.055" fill="#fff600" stroke="#000" stroke-width="0.012"/>
        <path d="M8.262,6.263a.288.288,0,0,0,.128-.227.307.307,0,0,0-.167-.253.265.265,0,0,1,.1.187L8.33,6a.279.279,0,0,1-.1.209l.03.056" fill="#fff600" stroke="#000" stroke-width="0.012"/>
        <path d="M8.959,6.366a.277.277,0,0,0,.071-.184A.268.268,0,0,0,9,6.064a.555.555,0,0,0-.5-.227.758.758,0,0,0-.184.02.275.275,0,0,1,.032.044A.775.775,0,0,1,8.5,5.887a.5.5,0,0,1,.453.2.214.214,0,0,1,.022.1.228.228,0,0,1-.083.175l.078.129.043-.034Z" fill="#fff600" stroke="#000" stroke-width="0.012"/>
        <path d="M8.878,5.934A.332.332,0,0,1,9,6.064a.268.268,0,0,1,.027.118.277.277,0,0,1-.071.184l.048.078a.327.327,0,0,0,.072-.2A.369.369,0,0,0,8.878,5.934Z" fill="#fff600" stroke="#000" stroke-width="0.012"/>
        <ellipse cx="7.525" cy="5.538" rx="0.133" ry="0.126" fill="#0081e7" stroke="#000" stroke-width="0.008"/>
        <path d="M7.491,5.185v.068H7.418v.069h.073v.2H7.4c0,.007-.007.012-.007.018a.117.117,0,0,0,.011.049h.245a.117.117,0,0,0,.011-.049c0-.006-.006-.011-.007-.018H7.564v-.2h.072V5.253H7.564V5.185Z" fill="#fff600" stroke="#000" stroke-width="0.008"/>
      </g>
      <g>
        <circle cx="7.525" cy="6.187" r="0.057" fill="#fff" stroke="#000" stroke-width="0.012"/>
        <circle cx="7.525" cy="6.081" r="0.057" fill="#fff" stroke="#000" stroke-width="0.012"/>
        <circle cx="7.525" cy="5.967" r="0.046" fill="#fff" stroke="#000" stroke-width="0.012"/>
        <circle cx="7.525" cy="5.865" r="0.033" fill="#fff" stroke="#000" stroke-width="0.012"/>
        <circle cx="7.525" cy="5.775" r="0.026" fill="#fff" stroke="#000" stroke-width="0.012"/>
        <circle cx="5.992" cy="6.479" r="0.033" fill="#fff" stroke="#000" stroke-width="0.012"/>
        <circle cx="5.947" cy="6.4" r="0.033" fill="#fff" stroke="#000" stroke-width="0.012"/>
        <circle cx="5.917" cy="6.307" r="0.033" fill="#fff" stroke="#000" stroke-width="0.012"/>
        <circle cx="5.913" cy="6.208" r="0.033" fill="#fff" stroke="#000" stroke-width="0.012"/>
        <circle cx="5.937" cy="6.111" r="0.033" fill="#fff" stroke="#000" stroke-width="0.012"/>
        <circle cx="5.988" cy="6.023" r="0.033" fill="#fff" stroke="#000" stroke-width="0.012"/>
        <circle cx="6.056" cy="5.95" r="0.033" fill="#fff" stroke="#000" stroke-width="0.012"/>
        <circle cx="6.134" cy="5.889" r="0.033" fill="#fff" stroke="#000" stroke-width="0.012"/>
        <circle cx="6.228" cy="5.84" r="0.033" fill="#fff" stroke="#000" stroke-width="0.012"/>
        <circle cx="6.325" cy="5.805" r="0.033" fill="#fff" stroke="#000" stroke-width="0.012"/>
        <circle cx="6.434" cy="5.785" r="0.033" fill="#fff" stroke="#000" stroke-width="0.012"/>
        <circle cx="6.537" cy="5.78" r="0.033" fill="#fff" stroke="#000" stroke-width="0.012"/>
        <circle cx="6.638" cy="5.784" r="0.033" fill="#fff" stroke="#000" stroke-width="0.012"/>
        <circle cx="6.75" cy="6.229" r="0.033" fill="#fff" stroke="#000" stroke-width="0.012"/>
        <circle cx="6.694" cy="6.149" r="0.033" fill="#fff" stroke="#000" stroke-width="0.012"/>
        <circle cx="6.664" cy="6.062" r="0.033" fill="#fff" stroke="#000" stroke-width="0.012"/>
        <circle cx="6.668" cy="5.966" r="0.033" fill="#fff" stroke="#000" stroke-width="0.012"/>
        <circle cx="6.689" cy="5.87" r="0.033" fill="#fff" stroke="#000" stroke-width="0.012"/>
        <circle cx="6.739" cy="5.784" r="0.033" fill="#fff" stroke="#000" stroke-width="0.012"/>
        <circle cx="6.816" cy="5.723" r="0.033" fill="#fff" stroke="#000" stroke-width="0.012"/>
        <circle cx="6.906" cy="5.673" r="0.033" fill="#fff" stroke="#000" stroke-width="0.012"/>
        <circle cx="7.005" cy="5.644" r="0.033" fill="#fff" stroke="#000" stroke-width="0.012"/>
        <circle cx="7.108" cy="5.626" r="0.033" fill="#fff" stroke="#000" stroke-width="0.012"/>
        <circle cx="7.209" cy="5.628" r="0.033" fill="#fff" stroke="#000" stroke-width="0.012"/>
        <circle cx="7.314" cy="5.645" r="0.033" fill="#fff" stroke="#000" stroke-width="0.012"/>
        <circle cx="7.411" cy="5.679" r="0.033" fill="#fff" stroke="#000" stroke-width="0.012"/>
        <circle cx="7.638" cy="5.679" r="0.033" fill="#fff" stroke="#000" stroke-width="0.012"/>
        <circle cx="7.735" cy="5.645" r="0.033" fill="#fff" stroke="#000" stroke-width="0.012"/>
        <circle cx="7.84" cy="5.628" r="0.033" fill="#fff" stroke="#000" stroke-width="0.012"/>
        <circle cx="7.941" cy="5.626" r="0.033" fill="#fff" stroke="#000" stroke-width="0.012"/>
        <circle cx="8.044" cy="5.644" r="0.033" fill="#fff" stroke="#000" stroke-width="0.012"/>
        <circle cx="8.143" cy="5.673" r="0.033" fill="#fff" stroke="#000" stroke-width="0.012"/>
        <circle cx="8.233" cy="5.723" r="0.033" fill="#fff" stroke="#000" stroke-width="0.012"/>
        <circle cx="8.31" cy="5.784" r="0.033" fill="#fff" stroke="#000" stroke-width="0.012"/>
        <circle cx="8.36" cy="5.87" r="0.033" fill="#fff" stroke="#000" stroke-width="0.012"/>
        <circle cx="8.381" cy="5.966" r="0.033" fill="#fff" stroke="#000" stroke-width="0.012"/>
        <circle cx="8.385" cy="6.062" r="0.033" fill="#fff" stroke="#000" stroke-width="0.012"/>
        <circle cx="8.355" cy="6.149" r="0.033" fill="#fff" stroke="#000" stroke-width="0.012"/>
        <circle cx="8.299" cy="6.229" r="0.033" fill="#fff" stroke="#000" stroke-width="0.012"/>
        <circle cx="8.411" cy="5.784" r="0.033" fill="#fff" stroke="#000" stroke-width="0.012"/>
        <circle cx="8.512" cy="5.78" r="0.033" fill="#fff" stroke="#000" stroke-width="0.012"/>
        <circle cx="8.615" cy="5.785" r="0.033" fill="#fff" stroke="#000" stroke-width="0.012"/>
        <circle cx="8.724" cy="5.805" r="0.033" fill="#fff" stroke="#000" stroke-width="0.012"/>
        <circle cx="8.821" cy="5.84" r="0.033" fill="#fff" stroke="#000" stroke-width="0.012"/>
        <circle cx="8.915" cy="5.889" r="0.033" fill="#fff" stroke="#000" stroke-width="0.012"/>
        <circle cx="8.993" cy="5.95" r="0.033" fill="#fff" stroke="#000" stroke-width="0.012"/>
        <circle cx="9.06" cy="6.023" r="0.033" fill="#fff" stroke="#000" stroke-width="0.012"/>
        <circle cx="9.111" cy="6.111" r="0.033" fill="#fff" stroke="#000" stroke-width="0.012"/>
        <circle cx="9.135" cy="6.208" r="0.033" fill="#fff" stroke="#000" stroke-width="0.012"/>
        <circle cx="9.132" cy="6.307" r="0.033" fill="#fff" stroke="#000" stroke-width="0.012"/>
        <circle cx="9.102" cy="6.4" r="0.033" fill="#fff" stroke="#000" stroke-width="0.012"/>
        <circle cx="9.057" cy="6.479" r="0.033" fill="#fff" stroke="#000" stroke-width="0.012"/>
      </g>
      <g>
        <path d="M7.528,7.305A3.451,3.451,0,0,1,6.6,7.19a.038.038,0,0,1-.026-.038A.036.036,0,0,1,6.6,7.117,3.411,3.411,0,0,1,7.528,7a3.414,3.414,0,0,1,.933.115.035.035,0,0,1,.025.035.038.038,0,0,1-.025.038,3.453,3.453,0,0,1-.933.115" fill="#fff600" stroke="#000" stroke-width="0.012"/>
        <path d="M7.526,7a3.369,3.369,0,0,0-.942.12c.02-.009.018-.034-.006-.1S6.5,6.953,6.5,6.953a3.806,3.806,0,0,1,1.024-.125,3.842,3.842,0,0,1,1.029.125s-.046,0-.076.073-.026.087-.006.1A3.411,3.411,0,0,0,7.526,7" fill="#fff600" stroke="#000" stroke-width="0.012"/>
        <path d="M7.527,6.828A3.767,3.767,0,0,0,6.5,6.954a.033.033,0,0,1-.042-.018.034.034,0,0,1,.02-.041h0a3.768,3.768,0,0,1,1.045-.131A3.773,3.773,0,0,1,8.574,6.9a.032.032,0,0,1,.022.04h0a.032.032,0,0,1-.041.018,3.784,3.784,0,0,0-1.027-.126" fill="#fff600" stroke="#000" stroke-width="0.012"/>
        <path d="M7.53,6.513l.037.006a.117.117,0,0,0-.007.049.144.144,0,0,0,.147.14.146.146,0,0,0,.14-.1s.014-.05.021-.05,0,.054.006.054a.149.149,0,0,0,.294-.022V6.576l.046-.046.025.058a.119.119,0,0,0-.014.061.137.137,0,0,0,.141.134h0a.145.145,0,0,0,.117-.06l.029-.037v.046a.085.085,0,0,0,.065.095A.2.2,0,0,0,8.7,6.776a.756.756,0,0,0,.106-.1l.006.054a.453.453,0,0,1-.119.124.219.219,0,0,1-.127.034.124.124,0,0,1-.09-.082.21.21,0,0,1-.107.029.2.2,0,0,1-.189-.116.21.21,0,0,1-.156.068.217.217,0,0,1-.167-.077.22.22,0,0,1-.31-.017l-.015-.019a.218.218,0,0,1-.3.051l-.019-.015a.22.22,0,0,1-.168.077.208.208,0,0,1-.155-.068.2.2,0,0,1-.19.116.209.209,0,0,1-.106-.029A.128.128,0,0,1,6.5,6.89a.219.219,0,0,1-.127-.034.453.453,0,0,1-.119-.124l.006-.054a.711.711,0,0,0,.107.1.186.186,0,0,0,.12.051.085.085,0,0,0,.065-.095V6.686l.03.037a.142.142,0,0,0,.117.06.137.137,0,0,0,.14-.134h0a.119.119,0,0,0-.014-.061l.025-.058.047.046,0,.017a.149.149,0,0,0,.294.022s0-.053.007-.054.018.052.02.05a.147.147,0,0,0,.14.1.144.144,0,0,0,.147-.14.117.117,0,0,0-.007-.049l.039-.006" fill="#fff600" stroke="#000" stroke-width="0.012"/>
        <path d="M6.275,6.709a.06.06,0,0,0-.022-.032.054.054,0,0,0-.07-.008l-.006.008a.231.231,0,0,0-.072-.083A.221.221,0,0,0,6,6.578a.089.089,0,0,1,.089-.087h0a.1.1,0,0,1,.075.034l.006-.033a.089.089,0,0,1,.06.055.21.21,0,0,1,0,.114.187.187,0,0,1,.026-.048.248.248,0,0,1,.074-.05.275.275,0,0,0,.041-.024l0,.019v.024a.247.247,0,0,1,.114.015.143.143,0,0,1-.078.069l.025.022.013.015-.038.006a.552.552,0,0,1-.081.006.46.46,0,0,1-.052-.006" fill="#fff600" stroke="#000" stroke-width="0.012"/>
        <path d="M6.183,6.669a.054.054,0,0,1,.07.008c.024.02.031.05.016.066A.055.055,0,0,1,6.2,6.735c-.024-.02-.031-.05-.015-.066" fill="url(#linear-gradient-24)"/>
        <path d="M6.516,6.7c-.009-.024,0-.049.017-.054s.039.009.048.034,0,.05-.017.056-.04-.011-.048-.036" fill="#fff" stroke="#000" stroke-width="0.012"/>
        <path d="M6.807,6.575a.06.06,0,0,1-.02-.032.053.053,0,0,1,.007-.037.26.26,0,0,0-.055-.021.417.417,0,0,0-.071-.006H6.634l.008.017.015.022a.154.154,0,0,0-.091.063.167.167,0,0,0,.108.029l-.006.026,0,.018L6.7,6.641a.307.307,0,0,0,.064-.029.261.261,0,0,0,.044-.037" fill="#fff600" stroke="#000" stroke-width="0.012"/>
        <path d="M6.794,6.269a.154.154,0,0,1,.069.091.055.055,0,0,1,.022-.018.075.075,0,0,1,.032-.01l-.007.04c0,.01,0,.041-.01.069a.223.223,0,0,1-.019.051.057.057,0,0,0-.047-.012.054.054,0,0,0-.04.027.362.362,0,0,1-.036-.042A.659.659,0,0,1,6.724,6.4c-.006-.009-.021-.035-.021-.035a.065.065,0,0,1,.034,0,.062.062,0,0,1,.026.009.152.152,0,0,1,.031-.107" fill="#fff600" stroke="#000" stroke-width="0.012"/>
        <path d="M6.893,6.561a.052.052,0,0,0-.013-.069.386.386,0,0,1,.044-.038.417.417,0,0,1,.065-.029l.032-.012,0,.019-.006.026a.163.163,0,0,1,.109.029.159.159,0,0,1-.092.062l.015.023.009.016H7.019a.425.425,0,0,1-.071-.006.52.52,0,0,1-.055-.021" fill="#fff600" stroke="#000" stroke-width="0.012"/>
        <circle cx="6.845" cy="6.533" r="0.065" fill="url(#linear-gradient-25)"/>
        <path d="M7.157,6.572c0-.026.009-.049.028-.051s.036.017.04.043-.009.049-.028.051-.037-.017-.04-.043" fill="#fff" stroke="#000" stroke-width="0.012"/>
        <path d="M7.479,6.514a.059.059,0,0,1-.016-.04.056.056,0,0,1,.015-.039A.288.288,0,0,0,7.422,6.4a.447.447,0,0,0-.078-.02l-.039-.007.006.02.012.028a.18.18,0,0,0-.114.052.184.184,0,0,0,.114.053.139.139,0,0,0-.012.028l-.006.02.039-.007a.447.447,0,0,0,.078-.02.408.408,0,0,0,.057-.034" fill="#fff600" stroke="#000" stroke-width="0.012"/>
        <path d="M7.527,6.17a.179.179,0,0,1,.059.115.05.05,0,0,1,.027-.016.071.071,0,0,1,.038,0s-.011.031-.016.042-.012.046-.025.076a.258.258,0,0,1-.032.053.066.066,0,0,0-.094,0l-.006,0a.258.258,0,0,1-.032-.053c-.013-.03-.02-.064-.025-.076S7.4,6.264,7.4,6.264a.074.074,0,0,1,.039,0,.05.05,0,0,1,.027.016.181.181,0,0,1,.057-.115" fill="#fff600" stroke="#000" stroke-width="0.012"/>
        <path d="M7.577,6.514a.057.057,0,0,0,0-.079A.33.33,0,0,1,7.634,6.4a.447.447,0,0,1,.078-.02l.038-.007-.006.02a.169.169,0,0,1-.012.028.183.183,0,0,1,.115.052.179.179,0,0,1-.115.053.139.139,0,0,1,.012.028l.006.02-.038-.007a.267.267,0,0,1-.135-.054" fill="#fff600" stroke="#000" stroke-width="0.012"/>
        <circle cx="7.528" cy="6.474" r="0.065" fill="url(#linear-gradient-26)"/>
        <path d="M7.9,6.572c0-.026-.009-.049-.028-.051s-.037.017-.04.043.009.049.028.051S7.9,6.6,7.9,6.572" fill="#fff" stroke="#000" stroke-width="0.012"/>
        <path d="M8.165,6.561a.051.051,0,0,1,.013-.069.316.316,0,0,0-.044-.038.417.417,0,0,0-.065-.029l-.032-.012,0,.019.006.026a.158.158,0,0,0-.108.029.154.154,0,0,0,.091.062l-.015.023L8,6.588h.035a.425.425,0,0,0,.071-.006.52.52,0,0,0,.055-.021" fill="#fff600" stroke="#000" stroke-width="0.012"/>
        <path d="M8.264,6.269A.162.162,0,0,0,8.2,6.36a.055.055,0,0,0-.022-.018.075.075,0,0,0-.032-.01l.007.04c0,.01,0,.041.01.069a.223.223,0,0,0,.019.051.057.057,0,0,1,.047-.012.054.054,0,0,1,.04.027A.236.236,0,0,0,8.3,6.465c.016-.024.028-.053.034-.062s.021-.035.021-.035a.065.065,0,0,0-.034,0,.062.062,0,0,0-.026.009.148.148,0,0,0-.031-.107" fill="#fff600" stroke="#000" stroke-width="0.012"/>
        <path d="M8.25,6.575a.057.057,0,0,0,.021-.032.053.053,0,0,0-.007-.037.283.283,0,0,1,.055-.021.417.417,0,0,1,.071-.006h.034L8.416,6.5,8.4,6.517a.158.158,0,0,1,.091.063.167.167,0,0,1-.108.029l.006.026v.018L8.36,6.641A.293.293,0,0,1,8.3,6.612a.316.316,0,0,1-.045-.037" fill="#fff600" stroke="#000" stroke-width="0.012"/>
        <circle cx="8.213" cy="6.533" r="0.065" fill="url(#linear-gradient-27)"/>
        <path d="M8.543,6.7c.008-.024,0-.049-.017-.054s-.04.009-.049.034,0,.05.017.056.04-.011.049-.036" fill="#fff" stroke="#000" stroke-width="0.012"/>
        <path d="M8.783,6.709a.066.066,0,0,1,.022-.032.054.054,0,0,1,.07-.008l.006.008a.231.231,0,0,1,.072-.083.221.221,0,0,1,.105-.016.089.089,0,0,0-.089-.087h0a.1.1,0,0,0-.074.034l-.007-.033a.089.089,0,0,0-.06.055.21.21,0,0,0,0,.114A.219.219,0,0,0,8.8,6.613a.252.252,0,0,0-.075-.05.338.338,0,0,1-.041-.024l0,.019a.193.193,0,0,0,0,.024.249.249,0,0,0-.115.015.147.147,0,0,0,.078.069l-.025.022L8.612,6.7l.038.006a.552.552,0,0,0,.081.006.46.46,0,0,0,.052-.006" fill="#fff600" stroke="#000" stroke-width="0.012"/>
        <path d="M8.875,6.669a.054.054,0,0,0-.07.008c-.024.02-.031.05-.016.066a.055.055,0,0,0,.071-.008c.024-.02.031-.05.015-.066" fill="url(#linear-gradient-28)"/>
      </g>
      <g>
        <path d="M7.527,7.256a3.514,3.514,0,0,1-.86-.1,3.954,3.954,0,0,1,1.723,0A3.533,3.533,0,0,1,7.527,7.256Z" fill="url(#linear-gradient-29)"/>
        <path d="M7.765,7.248V7.067m-.091.187,0-.192m-.068.194v-.2" fill="none" stroke="#000" stroke-width="0.002"/>
        <path d="M7.552,7.258v-.2" fill="none" stroke="#000" stroke-width="0.003"/>
        <path d="M7.5,7.258v-.2" fill="none" stroke="#000" stroke-width="0.004"/>
        <path d="M7.448,7.258v-.2" fill="none" stroke="#000" stroke-width="0.005"/>
        <path d="M7.4,7.258v-.2" fill="none" stroke="#000" stroke-width="0.007"/>
        <path d="M7.353,7.258v-.2" fill="none" stroke="#000" stroke-width="0.008"/>
        <path d="M7.268,7.248v-.18m.042.182V7.062" fill="none" stroke="#000" stroke-width="0.01"/>
        <path d="M7.19,7.239V7.074m.04.17,0-.176" fill="none" stroke="#000" stroke-width="0.011"/>
        <path d="M7.084,7.23V7.085m.035.148V7.08m.036.157V7.079" fill="none" stroke="#000" stroke-width="0.013"/>
        <path d="M7.047,7.229v-.14" fill="none" stroke="#000" stroke-width="0.014"/>
        <path d="M7.013,7.222V7.091" fill="none" stroke="#000" stroke-width="0.015"/>
        <path d="M6.976,7.218V7.1" fill="none" stroke="#000" stroke-width="0.017"/>
        <path d="M6.9,7.208v-.1m.04.1V7.1" fill="none" stroke="#000" stroke-width="0.018"/>
        <path d="M6.862,7.2V7.114" fill="none" stroke="#000" stroke-width="0.019"/>
        <path d="M6.826,7.193V7.122" fill="none" stroke="#000" stroke-width="0.02"/>
        <path d="M6.787,7.183V7.128" fill="none" stroke="#000" stroke-width="0.022"/>
        <path d="M6.747,7.179V7.137" fill="none" stroke="#000" stroke-width="0.023"/>
        <path d="M6.705,7.169v-.02" fill="none" stroke="#000" stroke-width="0.027"/>
        <path d="M6.627,7.169a3.506,3.506,0,0,1,.9-.106,3.511,3.511,0,0,1,.9.106" fill="none" stroke="#000" stroke-width="0.012"/>
        <path d="M6.525,7.034l.037-.048.1.013-.081.059-.057-.024" fill="url(#linear-gradient-30)"/>
        <path d="M6.745,6.978a.033.033,0,0,1,.031-.035.033.033,0,0,1,0,.066h0a.032.032,0,0,1-.033-.031h0" fill="#fff" stroke="#000" stroke-width="0.012"/>
        <path d="M7.033,6.971l-.071.008a.032.032,0,0,1-.037-.027.03.03,0,0,1,.027-.034h0l.071-.009L7.1,6.9a.033.033,0,0,1,.036.027.032.032,0,0,1-.028.035h0l-.072.008" fill="#058e6e" stroke="#000" stroke-width="0.012"/>
        <path d="M7.24,6.92a.033.033,0,1,1,.031.031A.033.033,0,0,1,7.24,6.92" fill="#fff" stroke="#000" stroke-width="0.012"/>
        <path d="M7.528,6.944h-.1A.033.033,0,0,1,7.4,6.913a.032.032,0,0,1,.033-.031h.2a.032.032,0,0,1,.033.031h0a.033.033,0,0,1-.034.031h-.1" fill="url(#linear-gradient-31)"/>
        <path d="M7.751,6.92a.033.033,0,0,1,.031-.035.033.033,0,0,1,0,.066h0a.032.032,0,0,1-.033-.031" fill="#fff" stroke="#000" stroke-width="0.012"/>
        <path d="M8.024,6.971l.07.008a.033.033,0,0,0,.038-.027A.032.032,0,0,0,8.1,6.918h0l-.071-.009L7.959,6.9a.031.031,0,1,0-.008.062h0l.073.008" fill="#058e6e" stroke="#000" stroke-width="0.012"/>
        <path d="M8.246,6.978a.033.033,0,0,1,.031-.035.033.033,0,0,1,0,.066h0a.033.033,0,0,1-.033-.031h0" fill="#fff" stroke="#000" stroke-width="0.012"/>
        <path d="M8.531,7.034l-.036-.048L8.394,7l.08.059.057-.024" fill="url(#linear-gradient-32)"/>
      </g>
    </g>
    <g id="shield">
      <g id="Granada">
        <path d="M7.539,10.849a2.568,2.568,0,0,1-1.109-.256.71.71,0,0,1-.4-.636v-1H9.042v1a.71.71,0,0,1-.4.636,2.534,2.534,0,0,1-1.1.256Z" fill="#eaeaea" stroke="#000" stroke-width="0.016"/>
        <path d="M7.611,10.406a.123.123,0,0,1,.1.12.144.144,0,0,1-.158.126h0a.146.146,0,0,1-.163-.125.109.109,0,0,1,.092-.118l-.007-.015-.019-.02a.1.1,0,0,1,.038,0,.079.079,0,0,1,.023.014.091.091,0,0,1,.015-.023.065.065,0,0,1,.021-.016.17.17,0,0,1,.019.019l.007.018a.1.1,0,0,1,.024-.015l.025-.008-.007.021,0,.022" fill="#ffd691" stroke="#000" stroke-width="0.016"/>
        <path d="M7.533,10.729a.779.779,0,0,0-.171-.091.825.825,0,0,0-.172-.005c.019.014.037.029.055.044a.308.308,0,0,0,.1.058.363.363,0,0,0,.185-.006" fill="#058e6e" stroke="#000" stroke-width="0.016"/>
        <path d="M7.568,10.736a.325.325,0,0,1,.156-.091.435.435,0,0,1,.193.018.49.49,0,0,0-.047.026.214.214,0,0,1-.124.048c-.065,0-.137-.007-.149-.006l-.029.005" fill="#058e6e" stroke="#000" stroke-width="0.016"/>
        <path d="M7.545,10.638a.152.152,0,0,1-.009-.215l.009-.008a.152.152,0,0,1,.007.215l-.007.008" fill="url(#linear-gradient-33)"/>
        <path d="M7.514,10.8a.271.271,0,0,0,.02-.084.293.293,0,0,0,0-.066h.024a.248.248,0,0,1,.012.066c0,.023,0,.047-.006.071l-.022,0-.024.008" fill="#058e6e" stroke="#000" stroke-width="0.016"/>
      </g>
      <g id="Aragon">
        <path d="M7.533,9.956a.754.754,0,0,1-1.506,0v-1H7.533v1" fill="url(#linear-gradient-34)"/>
        <path d="M6.025,9.943a.763.763,0,0,0,.172.47V8.929h-.17l0,1.014Z" fill="#fff600" stroke="#000" stroke-width="0.016"/>
        <path d="M6.356,10.546a.822.822,0,0,0,.181.083l0-1.709H6.356Z" fill="#fff600" stroke="#000" stroke-width="0.016"/>
        <path d="M6.692,10.667a.863.863,0,0,0,.176,0V8.92H6.692Z" fill="#fff600" stroke="#000" stroke-width="0.016"/>
        <path d="M7.023,10.629A.586.586,0,0,0,7.2,10.55V8.92H7.028Z" fill="#fff600" stroke="#000" stroke-width="0.016"/>
        <path d="M7.368,10.4a.681.681,0,0,0,.168-.382l0-1.094H7.364Z" fill="#fff600" stroke="#000" stroke-width="0.016"/>
      </g>
      <g id="Navarre">
        <path d="M9.043,8.956v1a.756.756,0,0,1-1.51,0v-1h1.51" fill="url(#linear-gradient-35)"/>
        <path id="chains_half" data-name="chains half" d="M8.205,9.7l.006-.012-.128-.142-.05.022-.092-.1.03-.044-.16-.179H7.8v.12l.052.015v.134L7.8,9.531v.122a.079.079,0,0,1,.052.05h.1l.016-.05h.141l.015.05ZM8,9.148V9.2h.083V9.148Zm-.219.611a.033.033,0,0,0,.031-.035.033.033,0,0,0-.035-.031.033.033,0,0,0,0,.066Zm.479-.291L8.2,9.453V9.319L8.256,9.3V9.247A.082.082,0,0,1,8.2,9.2h-.08l-.015.05H7.965L7.95,9.2H7.857l-.008.018.161.179.05-.022.092.1-.03.044.125.139.009,0Zm-.217-.042L8,9.457l.053.059.039-.031Zm.24,1.085a.079.079,0,0,1-.075-.06.575.575,0,0,1-.142-.039l.025-.043a.469.469,0,0,0,.122.033.083.083,0,0,1,.048-.042v-.168L8.2,10.177v-.134l.053-.014V9.8l-.006,0-.119.133.03.043-.092.1-.05-.022-.1.111a.072.072,0,0,1,0,.085.485.485,0,0,0,.1.083l-.026.043a.523.523,0,0,1-.113-.1.084.084,0,0,1-.078-.015.073.073,0,0,1-.013-.1l0-.005,0-.005a.483.483,0,0,1-.04-.15h.052a.436.436,0,0,0,.032.129.093.093,0,0,1,.044,0l.1-.11-.03-.044.092-.1.05.022.119-.133-.006-.014H8.123l-.015.05H7.967l-.016-.05h-.1A.08.08,0,0,1,7.8,9.8v.121H7.752V9.8a.077.077,0,0,1,0-.149V9.531L7.7,9.516V9.382l.053-.015V9.246A.077.077,0,0,1,7.779,9.1h0a.083.083,0,0,1,.079.053H7.95l.015-.05h.142l.015.05H8.2A.08.08,0,0,1,8.279,9.1l0,.251H8.256v.078h.025v.648H8.257v.078H8.28ZM8.1,9.962l-.039-.031L8.01,9.99l.038.032Zm-.3-.553H7.752v.078H7.8Zm.275.342V9.7H7.992v.048Zm-.318.291-.053-.012L7.7,9.9l.053-.018v.077A.491.491,0,0,0,7.76,10.042ZM7.8,9.876l.052.013s0,.086,0,.066.005.068.005.068l-.053.017A.476.476,0,0,1,7.8,9.956Zm.324.508.012-.051a.448.448,0,0,1-.126-.062l-.037.033A.5.5,0,0,0,8.128,10.384Zm-.026.044-.039.036A.572.572,0,0,1,7.94,10.4l.011-.053A.576.576,0,0,0,8.1,10.428Z" fill="#fff600" stroke="#c8b100" stroke-width="0.008"/>
        <path id="chains_half-2" data-name="chains half-2" d="M8.355,9.7,8.35,9.691l.128-.142.05.022.091-.1-.03-.044.161-.179h.008v.12L8.7,9.382v.134l.053.015v.122a.077.077,0,0,0-.052.05h-.1l-.015-.05H8.452l-.015.05Zm.21-.555V9.2H8.482V9.148Zm.219.611a.033.033,0,1,1,0-.066.034.034,0,0,1,.031.033.033.033,0,0,1-.035.033ZM8.3,9.468l.053-.015V9.319L8.3,9.3V9.247a.082.082,0,0,0,.054-.05h.081l.015.05H8.6L8.61,9.2H8.7l.009.018-.162.179L8.5,9.372l-.091.1.03.044-.126.139-.008,0Zm.218-.042.038.031-.053.059-.038-.031Zm-.24,1.085a.08.08,0,0,0,.075-.06.575.575,0,0,0,.142-.039l-.025-.043a.476.476,0,0,1-.123.033A.078.078,0,0,0,8.3,10.36v-.168l.052-.015v-.134L8.3,10.029V9.8l.006,0,.119.133-.03.043.092.1.05-.022.1.111a.072.072,0,0,0,0,.085.453.453,0,0,1-.1.083l.025.043a.528.528,0,0,0,.114-.1.084.084,0,0,0,.078-.015.075.075,0,0,0,.013-.1l0-.005,0-.005A.481.481,0,0,0,8.807,10H8.756a.409.409,0,0,1-.033.129.1.1,0,0,0-.044,0l-.1-.11.03-.044-.092-.1-.05.022-.12-.133.007-.014h.082l.015.05h.142l.015-.05h.1a.085.085,0,0,0,.051.049v.121h.052V9.8a.077.077,0,0,0,0-.149V9.531l.053-.015V9.382l-.053-.015V9.246a.077.077,0,0,0,.055-.074A.079.079,0,0,0,8.782,9.1h0a.082.082,0,0,0-.078.053H8.61L8.6,9.1H8.454l-.015.05H8.358A.081.081,0,0,0,8.281,9.1l0,.251h.026v.078H8.279v.648H8.3v.078H8.28Zm.177-.549L8.5,9.931l.053.059-.039.032Zm.3-.553h.05v.078H8.758Zm-.275.342V9.7h.085v.048Zm.318.291.053-.012L8.861,9.9l-.052-.018v.077A.491.491,0,0,1,8.8,10.042Zm-.044-.166-.052.013s0,.086,0,.066-.006.068-.006.068l.053.017a.4.4,0,0,0,.007-.084Zm-.324.508-.012-.051a.443.443,0,0,0,.125-.062l.038.033A.5.5,0,0,1,8.433,10.384Zm.025.044.039.036a.579.579,0,0,0,.124-.063l-.011-.053A.566.566,0,0,1,8.458,10.428Z" fill="#fff600" stroke="#c8b100" stroke-width="0.008"/>
        <path d="M8.2,9.727a.081.081,0,0,1,.077-.086.082.082,0,0,1,.087.077.083.083,0,0,1-.078.087h0A.08.08,0,0,1,8.2,9.727" fill="#058e6e"/>
      </g>
      <g id="Castile">
        <path d="M6.027,8.957H7.533V7.285H6.027Z" fill="url(#linear-gradient-36)"/>
        <path d="M6.544,7.671H6.516V7.644H6.468v.111h.048v.076h-.1v.222h.056V8.5H6.357v.229H7.21V8.5H7.1V8.053h.055V7.831h-.1V7.755H7.1V7.644H7.05v.027H7.022V7.644H6.974v.027H6.939V7.644H6.891v.111h.048v.076h-.1V7.588h.056V7.477H6.835v.028H6.807V7.477H6.759v.028H6.731V7.477H6.676v.111h.055v.243h-.1V7.755h.049V7.644H6.627v.027H6.6V7.644H6.544v.027ZM6.357,8.725H7.21M6.357,8.67H7.21m-.853-.056H7.21m-.853-.055H7.21M6.357,8.5H7.21m-.742-.048H7.1m-.631-.056H7.1M6.468,8.33H7.1m-.631-.055H7.1m-.631-.056H7.1m-.631-.055H7.1m-.631-.056H7.1m-.687-.055h.742M6.412,8h.742m-.742-.055h.742m-.742-.055h.742m-.638-.056H7.05m-.319-.055h.1m-.1-.056h.1m-.1-.055h.1m-.1-.056h.1M6.676,7.54h.215m-.375.236h.111m-.159-.07h.208M6.468,8.725V8.67m0-.056V8.559m-.056.055V8.67m.1,0V8.614m.056.111V8.67m0-.056V8.559m0-.063V8.448m0-.056V8.33m-.056.229V8.5m-.1.063V8.5m.215,0v.063M6.676,8.5V8.448m-.16-.056v.056m.111-.056v.056m.1-.056v.056m-.055-.056V8.33m.055-.055V8.33m0-.166v.055m-.055-.111v.056m.055-.111v.055m-.1-.055v.055m-.111-.055v.055M6.468,8v.056M6.572,8v.056M6.676,8v.056m.055-.111V8m-.1-.055V8m-.111-.055V8m-.048-.11v.055m.208-.055v.055m-.1-.166v.055m.478-.055H6.939m.16-.07H6.891M7.1,8.725V8.67m0-.056V8.559m.055.055V8.67m-.1,0V8.614M7,8.725V8.67m0-.056V8.559M7,8.5V8.448m0-.056V8.33m.055.229V8.5m.1.063V8.5m-.215,0v.063M6.891,8.5V8.448m.159-.056v.056m-.111-.056v.056m-.1-.056v.056m.056-.056V8.33m-.056-.055V8.33m0-.166v.055m.056-.111v.056m-.056-.111v.055m.1-.055v.055m.111-.055v.055M7.1,8v.056M7,8v.056M6.891,8v.056m-.056-.111V8m.1-.055V8m.111-.055V8m.049-.11v.055m-.208-.055v.055M7,7.776v.055m-.215.561V8.33m0-.166V8.108m0,.167V8.219m0-.166V8m0-.055V7.887m0-.111V7.72m0-.055V7.609m-.264.146h.111m.1-.167h.1m.1.167H7.05" fill="#fff600" stroke="#000" stroke-width="0.014"/>
        <path d="M6.925,8.725V8.58c0-.028-.013-.111-.145-.111s-.139.083-.139.111v.145Z" fill="#fff600" stroke="#000" stroke-width="0.014"/>
        <path d="M6.69,8.586,6.62,8.58A.112.112,0,0,1,6.648,8.5l.063.049A.074.074,0,0,0,6.69,8.586Z" fill="#fff600" stroke="#000" stroke-width="0.014"/>
        <path d="M6.807,8.517l.035-.062a.148.148,0,0,0-.062-.014.159.159,0,0,0-.056.014l.035.062Z" fill="#fff600" stroke="#000" stroke-width="0.014"/>
        <path d="M6.877,8.586l.069-.006A.112.112,0,0,0,6.918,8.5l-.062.049A.081.081,0,0,1,6.877,8.586Z" fill="#fff600" stroke="#000" stroke-width="0.014"/>
        <path d="M6.676,8.344V8.191a.077.077,0,0,0-.153,0v.153Z" fill="#fff600" stroke="#000" stroke-width="0.014"/>
        <path d="M6.891,8.344V8.191a.076.076,0,0,1,.152,0v.153Z" fill="#fff600" stroke="#000" stroke-width="0.014"/>
        <path d="M6.627,7.97l.007-.139H6.5l.014.139Z" fill="#fff600" stroke="#000" stroke-width="0.014"/>
        <path d="M6.835,7.97l.014-.139H6.717l.007.139Z" fill="#fff600" stroke="#000" stroke-width="0.014"/>
        <path d="M6.939,7.97l-.014-.139h.139L7.05,7.97Z" fill="#fff600" stroke="#000" stroke-width="0.014"/>
        <g>
          <path d="M6.877,8.725V8.6a.086.086,0,0,0-.089-.084H6.78a.085.085,0,0,0-.09.078v.13Z" fill="#0039f0"/>
          <path d="M6.662,8.33V8.2a.063.063,0,0,0-.056-.069.064.064,0,0,0-.069.056V8.33Z" fill="#0039f0"/>
          <path d="M6.905,8.33V8.2a.062.062,0,1,1,.124-.013.028.028,0,0,1,0,.013V8.33Z" fill="#0039f0"/>
        </g>
      </g>
      <g id="Leon">
        <path d="M7.532,8.957h1.51V7.285H7.532Z" fill="#eaeaea" stroke="#000" stroke-width="0.016"/>
        <path d="M8.3,7.7V7.678l0-.01a.306.306,0,0,1-.074,0,.185.185,0,0,1-.072-.038c-.024-.02-.033-.033-.05-.035a.112.112,0,0,0-.072.012.129.129,0,0,1,.053.039.155.155,0,0,0,.059.046.626.626,0,0,0,.1,0Z" fill="#db4446" stroke="#000" stroke-width="0.012"/>
        <g>
          <path d="M8.528,7.629s0,.022,0,.042-.007.037,0,.048a.131.131,0,0,0,.009.028.136.136,0,0,1,.006.029L8.52,7.759,8.5,7.746l0,.031a.081.081,0,0,0,.015.037.208.208,0,0,1,.032.04.157.157,0,0,1,0,.043s-.014-.022-.026-.026-.026-.012-.038-.019a.085.085,0,0,1,.024.047.165.165,0,0,1-.01.048.142.142,0,0,0-.025-.034.224.224,0,0,0-.034-.027.167.167,0,0,1,.016.058c0,.024,0,.075,0,.075a.109.109,0,0,0-.023-.029A.234.234,0,0,1,8.4,7.966.1.1,0,0,1,8.42,8a.33.33,0,0,0,.058.141c.028.041.072.113.165.089s.059-.149.039-.207a.524.524,0,0,1-.028-.146c0-.023.017-.09.015-.1a.254.254,0,0,1,0-.1A.542.542,0,0,1,8.7,7.605a.17.17,0,0,0,.013-.04.273.273,0,0,0,0-.041s.017.032.021.043a.173.173,0,0,1,0,.045.072.072,0,0,1,.029-.05.4.4,0,0,0,.064-.043l.01-.015a.2.2,0,0,1-.019.08c-.011.015-.053.063-.053.063a.118.118,0,0,1,.037-.009.113.113,0,0,1,.026,0,.222.222,0,0,0-.042.049c-.024.035-.014.038-.032.066s-.031.03-.053.048-.015.13-.011.146a1.189,1.189,0,0,1,.062.173.161.161,0,0,1-.048.144c-.035.029-.092.029-.105.037a.1.1,0,0,0-.039.087.077.077,0,0,0,.035.076c.015.013.035.006.039.016a.065.065,0,0,0,.013.023.025.025,0,0,1,.009.024c0,.012-.028.037-.036.056a.407.407,0,0,0-.026.074.082.082,0,0,0,.005.041s.027.032.009.038-.024-.008-.029-.006-.025.014-.03.013-.011-.007-.012-.022,0-.022-.005-.022-.01.005-.011.013,0,.027-.009.027S8.5,8.726,8.5,8.723s-.025-.006-.026-.015a.038.038,0,0,1,.023-.029c.012,0,.023-.009.015-.015a.016.016,0,0,0-.022,0c-.008.006-.024,0-.023-.008a.11.11,0,0,0,0-.026c0-.005-.014-.015,0-.024s.025.008.042.005a.043.043,0,0,0,.033-.02.042.042,0,0,0-.007-.045c-.011-.013-.023-.015-.028-.024L8.5,8.495a.186.186,0,0,1,0,.041.235.235,0,0,0,0,.026l-.021-.023a.173.173,0,0,1-.02-.041v.04c0,.011.013.021.009.026s-.025-.022-.031-.026a.13.13,0,0,1-.03-.032.352.352,0,0,1-.015-.042.129.129,0,0,1,0-.048L8.4,8.382H8.359c-.023,0-.039-.006-.048.009a.14.14,0,0,0,.006.086.192.192,0,0,1,.015.067.118.118,0,0,1-.023.027.053.053,0,0,1-.028,0,.067.067,0,0,0-.037-.008H8.2c-.008,0-.027-.012-.036-.01s-.023.01-.019.022-.006.022-.015.022l-.027-.008c-.011,0-.027,0-.025-.012s.006-.013.012-.022.007-.016,0-.017a.031.031,0,0,0-.021,0c-.006,0-.015.015-.023.011s-.014-.013-.014-.032-.02-.036,0-.035.042.014.046,0,0-.015-.008-.023-.023-.013-.009-.023l.022-.016c0-.006.012-.024.022-.019s0,.021.019.042a.06.06,0,0,0,.062.025c.031,0,.04-.007.04-.016l0-.031c0-.01,0-.02.005-.03a.055.055,0,0,0-.019.018L8.2,8.438a.183.183,0,0,1,0-.033l0-.027L8.192,8.35a.129.129,0,0,1-.008.028.192.192,0,0,0,0,.032.049.049,0,0,1-.014-.046c0-.023,0-.052,0-.062s.022-.049.062-.051.069,0,.083,0,.062-.01.062-.01-.089-.045-.109-.059A.3.3,0,0,1,8.2,8.118a.272.272,0,0,1-.019-.047.068.068,0,0,0-.031.008.152.152,0,0,0-.037.03.362.362,0,0,0-.022.032s0-.029,0-.037l0-.026a.115.115,0,0,1-.031.053c-.02.014-.044.034-.044.034l0-.026s.005-.03.005-.03a.066.066,0,0,1-.036.026c-.023,0-.055,0-.057.017s.006.032,0,.041a.044.044,0,0,1-.016.017A.057.057,0,0,0,7.9,8.2a.054.054,0,0,0-.022,0s-.009-.012,0-.02.02-.02.016-.025-.018,0-.027.006-.026.008-.024-.006.006-.022,0-.031,0-.016.006-.018.033,0,.036-.006-.007-.015-.025-.018-.026-.015-.017-.024a.058.058,0,0,0,.016-.019c0-.008.006-.023.023-.015s.012.025.029.03a.13.13,0,0,0,.065-.007l.045-.03a.483.483,0,0,0,.049-.034.28.28,0,0,1-.032-.024A.3.3,0,0,0,8,7.931a.232.232,0,0,0-.058-.019A.328.328,0,0,1,7.89,7.9a.122.122,0,0,0,.024-.01s.019-.017.026-.016h.008l-.044,0a.259.259,0,0,0-.038-.017l-.025,0a.138.138,0,0,1,.041-.018.122.122,0,0,1,.033,0,.122.122,0,0,1-.036-.018.338.338,0,0,0-.018-.03c0-.007-.009-.017-.018-.018s-.025.011-.035.01-.016-.006-.017-.02,0-.009,0-.016-.017-.024,0-.028.04,0,.042,0-.014-.02-.025-.025-.029-.015-.02-.023a.133.133,0,0,0,.024-.019c0-.007.011-.027.022-.021s.026.038.035.036.009-.025.007-.035,0-.026.009-.025.015.013.029.014.034,0,.032.006a.08.08,0,0,1-.019.032.049.049,0,0,0-.007.045.117.117,0,0,0,.034.045c.014.008.039.015.056.025a.5.5,0,0,0,.066.044.125.125,0,0,1,.025.009.1.1,0,0,1,.034-.006.313.313,0,0,0,.081,0c.017-.008.039-.02.033-.035S8.2,7.747,8.2,7.735s.017-.013.04-.013.054,0,.06-.029.008-.05-.024-.057-.057-.008-.063-.031-.011-.03-.005-.036a.073.073,0,0,1,.043-.011.188.188,0,0,0,.058-.007c.008-.006.009-.021.019-.028a.183.183,0,0,1,.046-.012.614.614,0,0,1,.084.052.478.478,0,0,1,.069.066" fill="#ed72aa" stroke="#000" stroke-width="0.012"/>
          <path d="M8.094,7.821a.063.063,0,0,0-.033.02.053.053,0,0,0-.01.032.054.054,0,0,1,.046-.01c.027.007.029.01.04.009a.236.236,0,0,0,.038-.01s-.022.025-.019.043a.211.211,0,0,1,0,.035.14.14,0,0,1-.018.048.121.121,0,0,1,.032-.011.124.124,0,0,0,.052-.024.193.193,0,0,0,.027-.03.148.148,0,0,0,0,.042.287.287,0,0,1,.007.05A.12.12,0,0,1,8.287,8a.109.109,0,0,0,.027-.021.192.192,0,0,0,.009-.032.142.142,0,0,0,.012.04.471.471,0,0,1,.021.052A.122.122,0,0,1,8.374,8,.1.1,0,0,0,8.4,7.968a.115.115,0,0,0,0-.026l.012.026m-.342.018a.1.1,0,0,1,.028-.033c.013-.008.032-.022.037-.024a.215.215,0,0,0,.027-.014m.03.155s.033-.016.042-.022a.114.114,0,0,0,.035-.034" fill="none" stroke="#000" stroke-width="0.012"/>
          <path d="M8.5,7.746l-.013-.019-.007-.015" fill="none" stroke="#000" stroke-width="0.008"/>
          <path d="M8.374,8.241s.061.038.059.07a.165.165,0,0,1-.034.072" fill="none" stroke="#000" stroke-width="0.012"/>
        </g>
        <path d="M8.215,7.606l-.006-.018,0-.009s.026,0,.025.008-.008.008-.01.011Z" stroke="#000" stroke-width="0.008"/>
        <path d="M8.336,7.565l0-.013a.068.068,0,0,1,.034.008.081.081,0,0,1,.027.031s-.016-.008-.025-.011H8.356c-.007,0-.01,0-.011-.006V7.566Z" stroke="#000" stroke-width="0.002"/>
        <g>
          <path d="M8.216,7.723l.01-.016.01.015h-.02" stroke="#000" stroke-width="0.008"/>
          <path d="M8.241,7.723l.012-.016.012.014-.024,0" stroke="#000" stroke-width="0.008"/>
          <path d="M8.23,7.624l.024.009-.022.011,0-.02" stroke="#000" stroke-width="0.008"/>
          <path d="M8.259,7.632l.022.006-.017.013,0-.019" stroke="#000" stroke-width="0.008"/>
        </g>
        <g>
          <path d="M7.88,7.6a.123.123,0,0,0,.026.012H7.93a.051.051,0,0,0,0-.027A.057.057,0,0,0,7.9,7.544s.01.022.005.032A.121.121,0,0,1,7.88,7.6Z" fill="#db4446" stroke="#000" stroke-width="0.012"/>
          <path d="M7.812,7.633a.041.041,0,0,0-.04-.02.072.072,0,0,0-.045.024.117.117,0,0,1,.037,0,.046.046,0,0,1,.015.026A.112.112,0,0,0,7.8,7.65l.012-.017Z" fill="#db4446" stroke="#000" stroke-width="0.012"/>
          <path d="M7.779,7.727a.05.05,0,0,0-.048.052v.007a.056.056,0,0,1,.029-.016.2.2,0,0,1,.034.005.105.105,0,0,1-.006-.024.087.087,0,0,0-.01-.024Z" fill="#db4446" stroke="#000" stroke-width="0.012"/>
          <path d="M7.856,8.03a.041.041,0,0,0-.035-.009.06.06,0,0,0-.037.029.077.077,0,0,1,.03,0,.038.038,0,0,1,.019.014l.013-.014Z" fill="#db4446" stroke="#000" stroke-width="0.012"/>
          <path d="M7.83,8.119a.045.045,0,0,0-.051.048.039.039,0,0,1,.027-.011.079.079,0,0,1,.026.008l0-.019A.047.047,0,0,0,7.83,8.119Z" fill="#db4446" stroke="#000" stroke-width="0.012"/>
          <path d="M7.874,8.2a.059.059,0,0,0,.01.038.052.052,0,0,0,.033.018.225.225,0,0,1-.008-.024.033.033,0,0,1,.01-.023A.036.036,0,0,0,7.9,8.2Z" fill="#db4446" stroke="#000" stroke-width="0.012"/>
          <path d="M8.094,8.413a.052.052,0,0,0-.036-.019.086.086,0,0,0-.044.021s.026,0,.033.006l.014.021.017-.011Z" fill="#db4446" stroke="#000" stroke-width="0.012"/>
          <path d="M8.029,8.5a.053.053,0,0,0-.042.011.064.064,0,0,0-.013.04s.017-.018.033-.016a.09.09,0,0,1,.032.009l0-.023L8.029,8.5Z" fill="#db4446" stroke="#000" stroke-width="0.012"/>
          <path d="M8.089,8.586a.034.034,0,0,0,0,.035.077.077,0,0,0,.032.022.029.029,0,0,1,0-.024c0-.01.02-.024.02-.024Z" fill="#db4446" stroke="#000" stroke-width="0.012"/>
          <path d="M8.461,8.622a.062.062,0,0,0-.038,0c-.014.008-.025.042-.025.042s.023-.019.039-.017a.131.131,0,0,1,.028.009.088.088,0,0,0,0-.023Z" fill="#db4446" stroke="#000" stroke-width="0.012"/>
          <path d="M8.473,8.712s-.019.019-.012.036a.279.279,0,0,0,.019.033s0-.024.007-.031a.068.068,0,0,1,.031-.011A.106.106,0,0,0,8.5,8.723Z" fill="#db4446" stroke="#000" stroke-width="0.012"/>
          <path d="M8.566,8.74a.035.035,0,0,0,.009.039.062.062,0,0,0,.033.017s-.014-.024-.01-.037a.052.052,0,0,1,.017-.022l-.026-.006Z" fill="#db4446" stroke="#000" stroke-width="0.012"/>
        </g>
        <g>
          <path d="M8.51,7.5H8.5l-.008.011a.02.02,0,0,1-.026,0,.016.016,0,0,1,0-.013.015.015,0,0,1-.016,0,.017.017,0,0,1,0-.023h0l0,0v-.01l-.011,0,0,0a.016.016,0,0,1-.021.006l0-.009-.006,0c-.016,0-.022-.032-.023-.041l-.005.008a.129.129,0,0,1,0,.039.2.2,0,0,1-.009.035.3.3,0,0,1,.089.05.27.27,0,0,1,.07.073.165.165,0,0,1,.036-.016.276.276,0,0,1,.04-.006l.007-.006c-.01,0-.047,0-.047-.013l0,0-.009,0c-.006,0-.006-.013,0-.021l.006,0v-.01l-.01,0-.005,0a.019.019,0,0,1-.026,0,.013.013,0,0,1,0-.013.02.02,0,0,1-.013,0,.016.016,0,0,1,0-.023h0l.01-.01,0-.009Z" fill="#fff600" stroke="#000" stroke-width="0.008"/>
          <g>
            <path d="M8.443,7.521H8.45v.006H8.444Z" stroke="#000" stroke-width="0.002"/>
            <path d="M8.471,7.545l-.01-.008v0h.006l.009.007.01.008,0,0H8.481l-.01-.008" stroke="#000" stroke-width="0.002"/>
            <path d="M8.419,7.509l-.008,0,0,0h0l.008,0,.008,0,0,0H8.427l-.008,0" stroke="#000" stroke-width="0.002"/>
            <path d="M8.388,7.488H8.4l0,.006H8.39Z" stroke="#000" stroke-width="0.002"/>
            <path d="M8.5,7.567l0-.007H8.494l0,.007Z" stroke="#000" stroke-width="0.002"/>
            <path d="M8.52,7.587l.007.006h.005v0l-.007-.006-.006-.007H8.513v0l.006.007" stroke="#000" stroke-width="0.002"/>
            <path d="M8.548,7.611V7.605H8.54l0,.007Z" stroke="#000" stroke-width="0.002"/>
          </g>
          <path d="M8.466,7.43H8.448l0,.026,0,0h0l.023-.015L8.466,7.43" fill="#fff600" stroke="#000" stroke-width="0.008"/>
          <path d="M8.466,7.43H8.448l0,.026,0,0h0l.023-.015L8.466,7.43" fill="#fff600" stroke="#000" stroke-width="0.008"/>
          <path d="M8.418,7.444v.017l.028,0,0,0v0l-.016-.022-.015.008" fill="#fff600" stroke="#000" stroke-width="0.008"/>
          <path d="M8.475,7.477l-.015.008-.016-.021V7.459l0,0,.028,0v.016" fill="#fff600" stroke="#000" stroke-width="0.008"/>
          <path d="M8.439,7.457l.012,0,0,.01h0l-.012,0,0-.011Z" fill="#fff600" stroke="#000" stroke-width="0.008"/>
          <path d="M8.375,7.43s0-.014-.008-.022L8.355,7.4a.024.024,0,0,1,.026,0c.012.009,0,.026,0,.026Z" fill="#fff600" stroke="#000" stroke-width="0.008"/>
          <path d="M8.406,7.439l-.013.011-.02-.018V7.425l.028,0,0,.016" fill="#fff600" stroke="#000" stroke-width="0.008"/>
          <path d="M8.371,7.428s0-.007.008-.006.005,0,0,.01,0,.006-.008.006A.007.007,0,0,1,8.371,7.428Z" fill="#fff600" stroke="#000" stroke-width="0.008"/>
          <path d="M8.534,7.472l-.018,0L8.509,7.5v0h.005l.025-.012-.006-.016" fill="#fff600" stroke="#000" stroke-width="0.008"/>
          <path d="M8.484,7.48l0,.016.027.007h.005v0L8.5,7.474l-.016.006" fill="#fff600" stroke="#000" stroke-width="0.008"/>
          <path d="M8.536,7.52l-.016.006L8.507,7.5v0h0l.027.007,0,.016" fill="#fff600" stroke="#000" stroke-width="0.008"/>
          <path d="M8.5,7.5h.012l0,.012H8.505Z" fill="#fff600" stroke="#000" stroke-width="0.008"/>
          <path d="M8.593,7.527l0,.017-.026.009H8.565v0l.011-.025.017,0" fill="#fff600" stroke="#000" stroke-width="0.008"/>
          <path d="M8.589,7.575l-.017,0-.01-.025,0,0h0l.026.011,0,.015" fill="#fff600" stroke="#000" stroke-width="0.008"/>
          <path d="M8.543,7.529l0,.016.025.01h0v0L8.56,7.525l-.017,0" fill="#fff600" stroke="#000" stroke-width="0.008"/>
          <path d="M8.571,7.558V7.546H8.559v.011Z" fill="#fff600" stroke="#000" stroke-width="0.008"/>
          <path d="M8.613,7.612l.023,0,.016.008s0-.013-.009-.024-.026.007-.026.007Z" fill="#fff600" stroke="#000" stroke-width="0.008"/>
          <path d="M8.6,7.585,8.588,7.6l.022.015,0,0h0l0-.027H8.6" fill="#fff600" stroke="#000" stroke-width="0.008"/>
          <path d="M8.615,7.615s.006-.007,0-.009h-.01c-.005,0-.006.007-.005.009S8.611,7.617,8.615,7.615Z" fill="#fff600" stroke="#000" stroke-width="0.008"/>
        </g>
      </g>
      <g id="inescutcheon">
        <ellipse cx="7.537" cy="8.949" rx="0.488" ry="0.549" fill="url(#linear-gradient-37)"/>
        <ellipse cx="7.537" cy="8.948" rx="0.343" ry="0.403" fill="#0081e7" stroke="#000" stroke-width="0.018"/>
        <g id="fdl">
          <path d="M7.375,8.671a.165.165,0,0,0-.041.086.2.2,0,0,0,.017.076.045.045,0,0,0-.042-.028.044.044,0,0,0-.045.043h0a.062.062,0,0,0,.007.023l.015.03a.031.031,0,0,1,.029-.018.032.032,0,0,1,.033.031v.007H7.31v.03h.033L7.318,9l.032-.013.025.027L7.4,8.988,7.432,9l-.024-.049H7.44v-.03H7.4V8.914a.033.033,0,0,1,.032-.031h0a.031.031,0,0,1,.029.018l.015-.03a.048.048,0,0,0,.007-.023.044.044,0,0,0-.044-.043h0a.046.046,0,0,0-.043.028.183.183,0,0,0,.017-.076.157.157,0,0,0-.041-.086Z" fill="#fff600" stroke="#000" stroke-linejoin="round" stroke-width="0.01"/>
          <path d="M7.31,8.952h.131v-.03H7.31Z" fill="#fff600" stroke="#000" stroke-width="0.01"/>
        </g>
        <g id="fdl-2">
          <path d="M7.694,8.671a.165.165,0,0,0-.041.086.2.2,0,0,0,.017.076.045.045,0,0,0-.042-.028.044.044,0,0,0-.045.043h0a.062.062,0,0,0,.007.023l.015.03a.031.031,0,0,1,.029-.018.032.032,0,0,1,.033.031l0,.007H7.629v.03h.033L7.637,9l.032-.013.025.027.025-.027L7.751,9l-.024-.049h.032v-.03H7.723V8.914a.033.033,0,0,1,.032-.031h0a.031.031,0,0,1,.029.018l.015-.03a.062.062,0,0,0,.007-.023.044.044,0,0,0-.044-.043h0a.046.046,0,0,0-.043.028.183.183,0,0,0,.017-.076.157.157,0,0,0-.041-.086Z" fill="#fff600" stroke="#000" stroke-linejoin="round" stroke-width="0.01"/>
          <path d="M7.629,8.952H7.76v-.03H7.629Z" fill="#fff600" stroke="#000" stroke-width="0.01"/>
        </g>
        <g id="fdl-3">
          <path d="M7.534,8.946a.15.15,0,0,0-.04.085.184.184,0,0,0,.017.077.046.046,0,0,0-.088.014h0a.063.063,0,0,0,.008.023l.014.03a.033.033,0,0,1,.062.013V9.2H7.469v.031H7.5l-.024.048.032-.013.024.028.025-.028.032.013-.024-.048H7.6V9.2H7.563V9.188a.03.03,0,0,1,.031-.03h0a.031.031,0,0,1,.03.017l.014-.03a.063.063,0,0,0,.008-.023A.045.045,0,0,0,7.6,9.079h0a.043.043,0,0,0-.042.029.2.2,0,0,0,.017-.077A.153.153,0,0,0,7.534,8.946Z" fill="#fff600" stroke="#000" stroke-linejoin="round" stroke-width="0.01"/>
          <path d="M7.469,9.227H7.6V9.2H7.469Z" fill="#fff600" stroke="#000" stroke-width="0.01"/>
        </g>
      </g>
    </g>
  </g>
  <g opacity="0.5">
    <g clip-path="url(#clip-path)">
      <circle cx="8.209" cy="5.514" r="10.499" fill="url(#radial-gradient)"/>
    </g>
  </g>
  <path d="M19,1V15H1V1L19,1m1-1H0V16H20Z" opacity="0.15" style="isolation: isolate"/>
</svg>
