<svg id="Croatia_Hrvatska" data-name="Croatia Hrvatska" xmlns="http://www.w3.org/2000/svg" xmlns:xlink="http://www.w3.org/1999/xlink" viewBox="0 0 20 16">
  <defs>
    <linearGradient id="linear-gradient" y1="-33.28" x2="20" y2="-33.28" gradientTransform="matrix(1, 0, 0, -1, 0, -19.946)" gradientUnits="userSpaceOnUse">
      <stop offset="0" stop-color="#0082e8"/>
      <stop offset="0.5" stop-color="#007ae0"/>
      <stop offset="1" stop-color="#0067ce"/>
    </linearGradient>
    <linearGradient id="linear-gradient-2" y1="-25.28" x2="20" y2="-25.28" gradientTransform="matrix(1, 0, 0, -1, 0, -19.946)" gradientUnits="userSpaceOnUse">
      <stop offset="0" stop-color="#ededed"/>
      <stop offset="0.299" stop-color="#fff"/>
      <stop offset="0.567" stop-color="#fff"/>
      <stop offset="1" stop-color="#d3d3d3"/>
    </linearGradient>
    <linearGradient id="linear-gradient-3" y1="-22.613" x2="20" y2="-22.613" gradientTransform="matrix(1, 0, 0, -1, 0, -19.946)" gradientUnits="userSpaceOnUse">
      <stop offset="0" stop-color="#ff6131"/>
      <stop offset="1" stop-color="#ff3d0b"/>
    </linearGradient>
    <clipPath id="clip-path">
      <rect width="20" height="16" fill="none"/>
    </clipPath>
    <radialGradient id="radial-gradient" cx="8.189" cy="-25.447" r="10.474" gradientTransform="matrix(1, 0, 0, -1, 0, -19.946)" gradientUnits="userSpaceOnUse">
      <stop offset="0" stop-color="#fcffff" stop-opacity="0.4"/>
      <stop offset="0.5" stop-color="#fff" stop-opacity="0.15"/>
      <stop offset="1" stop-color="#fff" stop-opacity="0"/>
    </radialGradient>
  </defs>
  <rect y="10.667" width="20" height="5.333" fill="url(#linear-gradient)"/>
  <rect width="20" height="10.667" fill="url(#linear-gradient-2)"/>
  <rect width="20" height="5.333" fill="url(#linear-gradient-3)"/>
  <g>
    <path d="M10,12.138h0a3.118,3.118,0,0,0,3.11-3.11v-3.7H6.891v3.7A3.118,3.118,0,0,0,10,12.138Z" fill="red"/>
    <path d="M10,12.088h0a3.059,3.059,0,0,0,3.051-3.051V5.392H6.95V9.038A3.059,3.059,0,0,0,10,12.088Z" fill="#fff"/>
    <g>
      <path d="M8.238,5.507H7.064V6.8H8.238Z" fill="red"/>
      <path d="M8.238,8.087H9.412V6.8H8.238Z" fill="red"/>
      <path d="M7.064,9.03a3.092,3.092,0,0,0,.02.347H8.238V8.087H7.064Z" fill="red"/>
      <path d="M10.586,8.087H9.412v1.29h1.174Z" fill="red"/>
      <path d="M10.586,10.667H11.76V9.377H10.586Z" fill="red"/>
      <path d="M11.76,11.372a3,3,0,0,0,.671-.7H11.76Z" fill="red"/>
      <path d="M8.238,10.667H9.412V9.377H8.238Z" fill="red"/>
      <path d="M7.566,10.667a3,3,0,0,0,.672.706v-.706Z" fill="red"/>
      <path d="M10.2,11.957a2.9,2.9,0,0,0,.382-.053V10.667H9.412v1.238a3.06,3.06,0,0,0,.381.052,3.505,3.505,0,0,0,.41,0Z" fill="red"/>
      <path d="M12.912,9.377a2.9,2.9,0,0,0,.021-.348V8.087H11.76v1.29Z" fill="red"/>
      <path d="M10.586,8.087H11.76V6.8H10.586Z" fill="red"/>
      <path d="M10.586,5.507H9.412V6.8h1.174Z" fill="red"/>
      <path d="M12.933,6.8V5.507H11.76V6.8Z" fill="red"/>
    </g>
  </g>
  <g>
    <path d="M13,5.294l.728-1.65-.555-.9-.919.341-.645-.738-.85.487L10,2.217l-.758.621-.85-.487-.645.737-.919-.34-.555.9L7,5.3a7.293,7.293,0,0,1,6,0Z" fill="#fff"/>
    <g>
      <path d="M7.767,3.161v0l-.912-.337-.51.823.2.444.5,1.123a7.329,7.329,0,0,1,1.152-.4l-.42-1.657Z" fill="#0093dd"/>
      <path d="M7.714,3.976a.445.445,0,0,1-.186.6.457.457,0,0,1-.208.051.447.447,0,0,1-.437-.361.447.447,0,0,0,.831-.292Z" fill="#fff" stroke="#000" stroke-miterlimit="10" stroke-width="0.35"/>
      <polygon points="7.306 3.36 7.305 3.367 7.274 3.527 7.397 3.634 7.402 3.639 7.395 3.641 7.241 3.694 7.21 3.854 7.208 3.861 7.203 3.857 7.08 3.75 6.926 3.802 6.918 3.805 6.92 3.797 6.951 3.638 6.828 3.53 6.823 3.525 6.83 3.523 6.984 3.47 7.015 3.31 7.017 3.303 7.022 3.308 7.145 3.415 7.299 3.362 7.306 3.36"/>
      <g>
        <path d="M7.121,3.586l.115.1.144-.05Z" fill="#f7db17"/>
        <path d="M7.122,3.581l.259.051-.114-.1Z" fill="#f7db17"/>
        <path d="M6.844,3.527l.259.05-.115-.1Z" fill="#f7db17"/>
        <path d="M7.1,3.583l-.259-.051.115.1Z" fill="#f7db17"/>
        <path d="M7.117,3.573l.173-.2-.144.049Z" fill="#f7db17"/>
        <path d="M6.931,3.786l.173-.2-.144.049Z" fill="#f7db17"/>
        <path d="M7.108,3.591l-.174.2.144-.049Z" fill="#f7db17"/>
        <path d="M7.294,3.377l-.173.2.144-.049Z" fill="#f7db17"/>
        <path d="M7.107,3.574l-.086-.25-.029.149Z" fill="#f7db17"/>
        <path d="M7.2,3.841l-.085-.249-.029.15Z" fill="#f7db17"/>
        <path d="M7.118,3.59l.085.25.03-.149Z" fill="#f7db17"/>
        <path d="M7.026,3.322l.085.25.03-.15Z" fill="#f7db17"/>
      </g>
    </g>
    <g>
      <path d="M9.25,2.914h0L8.4,2.432l-.638.729.42,1.657a7.33,7.33,0,0,1,1.2-.2l-.141-1.7Z" fill="#171796"/>
      <g>
        <path d="M8.083,4.407a7.638,7.638,0,0,1,1.273-.213L9.32,3.763a8.259,8.259,0,0,0-1.343.225l.106.419Z" fill="red"/>
        <path d="M7.872,3.574a8.542,8.542,0,0,1,1.413-.236L9.25,2.915a9.093,9.093,0,0,0-1.483.248Z" fill="red"/>
      </g>
    </g>
    <g>
      <path d="M10.754,2.914h0L10,2.3l-.75.615.141,1.7q.3-.026.609-.026t.612.026l.141-1.7Z" fill="#0093dd"/>
      <g id="lion">
        <path d="M10,3.68l0,0L9.95,3.74c-.015,0-.019.014-.013.027-.021,0-.023.016-.024.035-.02-.03-.041-.038-.064-.025,0-.018-.015-.026-.035-.031a.06.06,0,0,1-.034-.011l-.014-.008c-.01-.007-.018,0-.014.005l.064.1a.013.013,0,0,0,.007.016l.011.032,0,.009a.131.131,0,0,0-.052-.011A.036.036,0,0,1,9.75,3.87s-.007,0-.007.007A.168.168,0,0,0,9.79,4H9.736c-.007,0-.008,0-.006.009a.1.1,0,0,0,.065.06.05.05,0,0,0-.028.041.04.04,0,0,1-.017.036c-.005,0-.007,0,0,.008a.081.081,0,0,0,.071.009.106.106,0,0,0-.016.067.072.072,0,0,0,.048,0,.1.1,0,0,0,0,.025.053.053,0,0,1-.008.027s-.005.006,0,.008a.121.121,0,0,0,.073,0,.188.188,0,0,0,.006.058s.005.008.01,0A.134.134,0,0,1,9.969,4.3a.027.027,0,0,0,.013.017.03.03,0,0,1,.012.027l0,.007c.012,0,.041-.03.047-.047a.12.12,0,0,1,.035.036c0,.006.007,0,.01,0a.22.22,0,0,0,.005-.057.118.118,0,0,0,.072,0c.006,0,0-.006,0-.008a.075.075,0,0,1-.009-.029.062.062,0,0,0,0-.023.082.082,0,0,0,.049,0,.114.114,0,0,0-.017-.067.084.084,0,0,0,.072-.009s0-.006,0-.008a.04.04,0,0,1-.017-.036.051.051,0,0,0-.028-.041A.109.109,0,0,0,10.275,4s0-.007-.006-.008l-.056,0a.167.167,0,0,0,.048-.118c0-.009,0-.012-.008-.006a.039.039,0,0,1-.027.011.13.13,0,0,0-.052.01l0-.009.012-.031a.016.016,0,0,0,.007-.016c.021-.034.04-.068.061-.1,0-.006,0-.012-.013-.006l-.014.009a.06.06,0,0,1-.034.011c-.02,0-.033.013-.034.032-.023-.014-.045-.006-.064.024,0-.019,0-.036-.024-.034.006-.014,0-.023-.014-.028-.015-.02-.036-.037-.051-.057L10,3.68Z"/>
        <g>
          <path d="M10.2,3.79s-.009,0-.012.007,0,.014,0,.016a.008.008,0,0,0,.009-.005l0,0h0c0-.007,0-.013,0-.015Z" fill="#f7db17"/>
          <path d="M9.8,3.79s.01,0,.013.007,0,.013,0,.015-.009,0-.012-.008,0-.012,0-.014Z" fill="#f7db17"/>
          <path d="M10.161,3.861l0,0,0,0,.005,0Z" fill="#f7db17"/>
          <path d="M9.843,3.861l-.005,0,.005,0,0,0Z" fill="#f7db17"/>
          <path d="M10.182,3.837A1.522,1.522,0,0,0,10,3.827c-.059,0-.119,0-.179.009v.006c.06,0,.119-.008.179-.008a1.308,1.308,0,0,1,.176.01l0-.007Z" fill="#f7db17"/>
          <path d="M9.823,3.83c.06,0,.12-.009.18-.009a1.522,1.522,0,0,1,.179.011l.009-.015h-.007a.016.016,0,0,1,0-.022c0-.009.013-.014.019-.011l.005.009.035-.058a.108.108,0,0,1-.045.02q-.034,0-.03.024c0,.012,0,.011-.015,0s-.043.006-.052.028-.012.015-.013,0V3.8c0-.018-.007-.023-.017-.018s-.014,0-.011-.005a.027.027,0,0,0,.006-.017c0-.006-.006-.007-.012-.008-.015-.019-.037-.038-.052-.057l-.044.057c-.006,0-.011,0-.012.008s0,.012.007.017,0,.011-.011,0-.015,0-.016.018V3.81c0,.016-.008.016-.014,0s-.027-.041-.052-.028-.016.008-.015,0-.008-.021-.03-.024a.106.106,0,0,1-.046-.02l.033.054,0-.005c.006,0,.015,0,.019.011s0,.019,0,.022h0l.008.013Z" fill="#f7db17"/>
          <path d="M10.169,3.9h0l-.01.01-.017.015h0v0l.016-.014.006-.008-.022,0-.018.008-.01.009h0v0a.037.037,0,0,1,.013-.012l.008,0-.025,0,0,0-.005.005h0v0l0-.006h-.019l0,0,0,.006h0v0l0-.007,0,0h-.028l-.005,0,0,0h0v0l0-.006H9.975L9.98,3.9v0h0l0,0,0,0H9.938l0,0,0,.007v0h0l0-.006,0,0H9.913l0,.006v0h0l0-.005L9.9,3.9h0l-.026,0,.01,0a.034.034,0,0,1,.012.012v0h0l-.011-.01L9.866,3.9h0l-.022,0,.007.009.016.014v0h0l-.016-.015L9.837,3.9a.121.121,0,0,0-.045-.012.093.093,0,0,1-.037-.006l.01.018a.03.03,0,0,0,.017.012l0,0a.054.054,0,0,0,.013.03.044.044,0,0,0,.015.012.072.072,0,0,1-.014-.02.061.061,0,0,1-.006-.033l0,0,0,0a.052.052,0,0,0,.006.03.077.077,0,0,0,.023.028l0,0a.057.057,0,0,1-.044-.05.038.038,0,0,1-.018-.013l-.009-.016a.156.156,0,0,0,.036.09A.055.055,0,0,0,9.808,4c.008,0,.008.008,0,.008H9.8l.019.008a.028.028,0,0,1,.017.022l0,0,0,0c0-.007-.007-.012-.016-.017A.12.12,0,0,0,9.783,4H9.746l.011.007a.108.108,0,0,0,.027.01l.018.007.014.012v0h0L9.8,4.032l-.017-.007a.1.1,0,0,1-.029-.01L9.74,4.006a.1.1,0,0,0,.066.054l.005,0h0l.021,0,.021,0,0,0,0,0-.021,0-.014,0H9.81a.04.04,0,0,0-.035.039v0A.118.118,0,0,1,9.8,4.093a.035.035,0,0,1,.028-.006l0,0,0,0A.031.031,0,0,0,9.8,4.1a.243.243,0,0,0-.025.02.043.043,0,0,1-.016.03c.005,0,.008,0,.013,0l.021-.008a.079.079,0,0,1,.022-.005l0,0,0,0a.08.08,0,0,0-.021,0l-.017.007a.093.093,0,0,0,.052-.006l.011,0,.013-.006.015,0,0,0,0,0a.027.027,0,0,0-.017.006l-.01.007-.007.006a.054.054,0,0,0-.015.022l0,.018a.091.091,0,0,1,.016-.024.071.071,0,0,1,.027-.021h0v0a.063.063,0,0,0-.026.02.124.124,0,0,0-.017.027l0,.007a.2.2,0,0,1,.025-.025.044.044,0,0,1,.033-.01l0,0,0,0a.039.039,0,0,0-.029.009.265.265,0,0,0-.029.029.089.089,0,0,0,.043-.007c.007,0,.015-.011.019-.012l0,0,.009-.008h0v0L9.881,4.2l-.007.009h0a.059.059,0,0,0-.013.019.236.236,0,0,1-.01.046l.014-.011a.052.052,0,0,0,.01-.018.057.057,0,0,1,.013-.021.06.06,0,0,1,.021-.014l0,0,0,0a.057.057,0,0,0-.018.012.063.063,0,0,0-.013.02.056.056,0,0,1-.011.02l-.012.01h.01a.06.06,0,0,0,.022-.009A.052.052,0,0,0,9.9,4.25h0v0a.043.043,0,0,1-.013.019.046.046,0,0,1-.016.007A.117.117,0,0,0,9.91,4.27s.007-.013.01-.016l.008-.013a.041.041,0,0,1,.013-.01l0,0,0,0-.011.008-.007.012L9.92,4.28a.154.154,0,0,0,.005.048l.012-.015h0l0-.026a.217.217,0,0,0,0-.026l0,0,0,0a.244.244,0,0,1,0,.027l0,.021L9.949,4.3a.064.064,0,0,0,.006-.018.115.115,0,0,0,0-.019v0l0,0a.071.071,0,0,1,0,.02l0,.016.014-.01a.109.109,0,0,1,0-.018l0-.015,0,0,0,0v.033a.025.025,0,0,0,.01.018A.034.034,0,0,1,10,4.329.171.171,0,0,0,10,4.3a.075.075,0,0,0-.009-.029v0h0a.071.071,0,0,1,.01.031.17.17,0,0,1,0,.039.056.056,0,0,0,.028-.047l0-.006v0h0l0,.009V4.3l0,0,.006,0,0-.014a.066.066,0,0,1,0-.02l0,0,0,0a.055.055,0,0,0,0,.018l0,.019v0l0,.005,0-.02a.122.122,0,0,1,0-.027l0,0,0,0a.225.225,0,0,0,0,.026l0,.027h0l.012.016a.16.16,0,0,0,.005-.049c0-.006-.005-.018-.005-.024l-.008-.012-.011-.008v0l0,0a.045.045,0,0,1,.013.01l.008.012c.005,0,.007.015.012.017a.105.105,0,0,0,.035.008.051.051,0,0,1-.015-.007.045.045,0,0,1-.014-.019l0,0h0a.052.052,0,0,0,.012.017.075.075,0,0,0,.032.01l-.013-.01a.078.078,0,0,1-.011-.02.059.059,0,0,0-.012-.02.062.062,0,0,0-.019-.012v0l0,0a.06.06,0,0,1,.021.014.057.057,0,0,1,.013.021.04.04,0,0,0,.01.018l.014.011a.236.236,0,0,1-.01-.046c0-.01-.018-.022-.015-.025s.011.007.02.01a.087.087,0,0,0,.042.007.159.159,0,0,0-.029-.029.033.033,0,0,0-.027-.009l0,0,0,0a.039.039,0,0,1,.031.01.142.142,0,0,1,.025.024l0-.006a.167.167,0,0,0-.018-.028.076.076,0,0,0-.025-.019l0,0h0a.09.09,0,0,1,.027.021.167.167,0,0,1,.016.024l-.005-.018a.066.066,0,0,0-.015-.022l-.017-.014,0,0-.013,0,0,0,0,0,.014,0,.008.005.017.006a.092.092,0,0,0,.052.006l-.018-.007a.045.045,0,0,0-.02,0l0,0,0,0a.057.057,0,0,1,.022,0l.021.009s.008,0,.013,0a.044.044,0,0,1-.017-.03h0a.169.169,0,0,0-.025-.02.031.031,0,0,0-.025-.005l0,0,0,0a.038.038,0,0,1,.029.006.087.087,0,0,1,.021.017v0a.039.039,0,0,0-.034-.039c-.006,0-.015,0-.015,0s.008,0,.019-.007a.1.1,0,0,0,.066-.055l-.015.01a.094.094,0,0,1-.028.01l-.017.007-.013.011h0v0l.014-.011.019-.008a.143.143,0,0,0,.027-.009L10.258,4h-.036a.127.127,0,0,0-.032.013c-.009,0-.015.01-.015.017l0,0,0,0a.029.029,0,0,1,.018-.022L10.206,4H10.2c-.009,0-.009,0,0-.008a.055.055,0,0,0,.02-.017.166.166,0,0,0,.036-.089l-.009.015a.034.034,0,0,1-.018.013.062.062,0,0,1-.014.032.068.068,0,0,1-.029.018l0,0a.084.084,0,0,0,.022-.027.061.061,0,0,0,.005-.03l0,0,0,0a.061.061,0,0,1-.006.033.069.069,0,0,1-.013.02.053.053,0,0,0,.014-.012.056.056,0,0,0,.014-.03l0,0a.031.031,0,0,0,.016-.012l.01-.018a.089.089,0,0,1-.036.007.116.116,0,0,0-.044.012Z" fill="#f7db17"/>
          <path d="M10.165,3.889A1.1,1.1,0,0,0,10,3.88c-.054,0-.108,0-.162.008v0s0,0,.009,0c.051-.005.1-.007.153-.007a1.24,1.24,0,0,1,.161.008s.006-.007,0-.006Z" fill="#f7db17"/>
          <path d="M9.842,3.883A1.461,1.461,0,0,1,10,3.874a1.417,1.417,0,0,1,.16.01l0-.01h-.005s-.009,0-.009-.009a.009.009,0,0,1,.009-.01.009.009,0,0,1,.009.006l.005-.013A1.4,1.4,0,0,0,10,3.839c-.058,0-.116,0-.174.008l.005.013.008,0a.01.01,0,0,1,.009.01.011.011,0,0,1-.009.01h0l0,.007Zm.243-.033a.009.009,0,0,0-.01.01.01.01,0,0,0,.01.01.01.01,0,0,0,.009-.01h0a.009.009,0,0,0-.009-.01Zm0,0-.005,0,.005.005,0-.005ZM10,3.848a.009.009,0,0,0-.009.01A.009.009,0,0,0,10,3.867a.009.009,0,0,0,.01-.009h0A.009.009,0,0,0,10,3.848Zm0,.005,0,0,0,0,0,0Zm-.084,0a.009.009,0,0,0-.009.01.009.009,0,0,0,.009.009.009.009,0,0,0,.01-.009h0a.009.009,0,0,0-.01-.01Zm0,0,0,0,0,0,.005,0Z" fill="#f7db17" fill-rule="evenodd"/>
        </g>
        <g>
          <path d="M10,3.789a.022.022,0,0,0-.008-.013.021.021,0,0,0-.015-.007V3.763a.029.029,0,0,0,.012-.01A.076.076,0,0,0,10,3.732h.005a.038.038,0,0,0,.008.017.042.042,0,0,0,.015.011v.005a.019.019,0,0,0-.011.007.053.053,0,0,0-.008.017Zm0-.009.007-.012.008-.006-.012-.01,0-.009L10,3.756l-.009.009L10,3.771Z"/>
          <path d="M10.069,4.184l-.041.016h0l0,0,.04-.016h0Zm0-.026-.047.026h0v0l.047-.026h0Zm-.144-.005.048.026v0h0l-.048-.026v0Zm0,.026.041.016v0h0l-.04-.016,0,0Zm.018.034a.065.065,0,0,0,.028,0A.019.019,0,0,0,9.994,4.2V4.165a.1.1,0,0,1-.024,0,.025.025,0,0,1-.016-.014.057.057,0,0,1,0-.026l0,0,0,0a.041.041,0,0,0,0,.022.015.015,0,0,0,.012.011.1.1,0,0,0,.048,0,.031.031,0,0,0,.015-.01.024.024,0,0,0,0-.014l0-.006-.01,0h-.018l0,0,0,0h.018l.013,0a.014.014,0,0,1,.007.01.031.031,0,0,1-.006.019.042.042,0,0,1-.018.011l-.022,0V4.2h0a.019.019,0,0,0,.015.011.086.086,0,0,0,.028,0l0,0,0,0a.082.082,0,0,1-.031,0,.02.02,0,0,0-.025-.009l-.009.009a.082.082,0,0,1-.031,0l0,0,0,0Zm.028.016h.032l0,0,0,0H9.979l0,0Z"/>
          <path d="M10.026,3.986a.15.15,0,0,1,.033-.023.049.049,0,0,1,.028-.009l0,0,0,0a.044.044,0,0,0-.025.008.15.15,0,0,0-.033.023h0v0Zm-.048,0a.167.167,0,0,0-.035-.024.06.06,0,0,0-.029-.008l0,0,0,0a.072.072,0,0,1,.032.008.183.183,0,0,1,.036.026v0Zm-.017.08.011-.018.014-.013h0v0l-.013.012-.01.016,0,0Zm.029-.137A.056.056,0,0,1,10,3.95a.042.042,0,0,1,0,.022.067.067,0,0,1,0,.02.041.041,0,0,1-.008.019.018.018,0,0,1-.013.009.029.029,0,0,1-.013,0,.033.033,0,0,1,0,.024l0,0-.01,0-.01,0h0l-.019-.009-.012-.01h0l-.007-.013,0-.014L9.89,3.982l-.013-.011v0h0l.011.01.017.009A.14.14,0,0,1,9.939,4a.128.128,0,0,1,.025.015l0,0h0a.017.017,0,0,0,.012,0l.01-.007A.049.049,0,0,0,10,3.991a.109.109,0,0,0,0-.018h0a.075.075,0,0,0,0-.02l-.008-.016v0h0Zm-.029.082L9.936,4a.1.1,0,0,0-.025-.007l0,.01,0,.011h0l.01.009.018.008h0l.011,0,.007,0a.037.037,0,0,0,0-.021v0Zm.061-.079-.008.016a.075.075,0,0,0,0,.02h0a.109.109,0,0,0,0,.018.049.049,0,0,0,.006.017l.01.007a.017.017,0,0,0,.012,0h0l0,0A.128.128,0,0,1,10.069,4a.1.1,0,0,1,.029-.008l.016-.01.012-.01h0v0l-.012.01-.016.009v.014l-.007.013h0l-.012.01-.019.009h0l-.01,0-.01,0,0,0a.033.033,0,0,1,0-.024.028.028,0,0,1-.013,0,.038.038,0,0,1-.013-.009.048.048,0,0,1-.007-.02.121.121,0,0,1,0-.019.078.078,0,0,1,0-.022.051.051,0,0,1,.009-.018h0v0Zm.074.057A.1.1,0,0,0,10.072,4l-.025.015v0a.071.071,0,0,0,0,.021l.008,0,.01,0h0l.018-.008.01-.009h0L10.1,4v-.01Z"/>
          <path d="M10.071,4a.017.017,0,0,0-.017.017.016.016,0,0,0,.017.017.018.018,0,0,0,.017-.017h0A.018.018,0,0,0,10.071,4Zm0,0a.012.012,0,1,0,0,.024.012.012,0,0,0,0-.024Zm0,0-.007.007.007.007.007-.007ZM9.937,4a.018.018,0,0,1,.017.017.018.018,0,0,1-.017.018.017.017,0,0,1-.017-.018h0A.017.017,0,0,1,9.937,4Zm0,.006a.011.011,0,0,1,.011.011.011.011,0,0,1-.011.012.012.012,0,0,1-.012-.012A.011.011,0,0,1,9.937,4Zm0,0,.007.007-.007.007L9.93,4.014Z" fill-rule="evenodd"/>
        </g>
      </g>
      <g id="lion-2">
        <path d="M9.655,2.913l0,0-.041.058c-.015.006-.018.015-.012.028-.021,0-.022.016-.023.035-.02-.029-.042-.036-.065-.022,0-.018-.015-.026-.036-.029a.067.067,0,0,1-.034-.01l-.014-.008c-.01-.007-.018,0-.013.006l.067.1a.014.014,0,0,0,.007.016l.013.031,0,.009a.132.132,0,0,0-.052-.008.037.037,0,0,1-.029-.01s-.008,0-.007.007a.164.164,0,0,0,.051.116l-.054,0c-.007,0-.008,0-.006.009a.1.1,0,0,0,.067.058.051.051,0,0,0-.026.042.039.039,0,0,1-.016.037s-.006.005,0,.008a.08.08,0,0,0,.071.006.107.107,0,0,0-.013.068.08.08,0,0,0,.048-.006.1.1,0,0,0,0,.024.068.068,0,0,1-.007.028s-.005.007,0,.008a.118.118,0,0,0,.072-.007.179.179,0,0,0,.009.057s.005.008.009,0a.137.137,0,0,1,.041-.042.023.023,0,0,0,.013.016.034.034,0,0,1,.013.027l0,.007c.011,0,.039-.032.044-.049a.11.11,0,0,1,.036.035c0,.006.008,0,.01,0a.187.187,0,0,0,0-.058.114.114,0,0,0,.073,0s0,0,0-.008a.056.056,0,0,1-.01-.028.1.1,0,0,0-.005-.023.082.082,0,0,0,.049,0,.114.114,0,0,0-.019-.067.085.085,0,0,0,.071-.011c.005,0,0-.006,0-.009a.038.038,0,0,1-.018-.035.05.05,0,0,0-.03-.04.109.109,0,0,0,.063-.063s0-.008-.006-.008H9.882a.171.171,0,0,0,.043-.12c0-.008,0-.011-.008-.006a.035.035,0,0,1-.027.013.113.113,0,0,0-.051.012l0-.009.011-.032a.014.014,0,0,0,.006-.016c.02-.035.038-.07.058-.1,0-.006,0-.013-.014,0l-.013.008a.062.062,0,0,1-.034.013c-.02,0-.032.015-.033.033q-.034-.019-.063.027c0-.019,0-.036-.025-.034a.019.019,0,0,0-.015-.027c-.016-.019-.038-.036-.053-.055l-.006,0Z"/>
        <g>
          <path d="M9.859,3.015s-.01,0-.012.008,0,.014,0,.016.006,0,.009-.005l0,0h0c0-.006,0-.013,0-.015Z" fill="#f7db17"/>
          <path d="M9.464,3.03s.01,0,.013.007,0,.013,0,.015-.008,0-.011-.007,0-.013,0-.015Z" fill="#f7db17"/>
          <path d="M9.825,3.088l0,0,0,0,.005,0Z" fill="#f7db17"/>
          <path d="M9.507,3.1l0,0,0,0,0,0Z" fill="#f7db17"/>
          <path d="M9.845,3.063a1.694,1.694,0,0,0-.358.013v.006c.06-.008.119-.013.178-.015a1.29,1.29,0,0,1,.176,0l0-.007Z" fill="#f7db17"/>
          <path d="M9.485,3.07c.061-.008.121-.013.181-.016a1.511,1.511,0,0,1,.178,0l.009-.015H9.846c-.007,0-.008-.012,0-.021s.012-.015.018-.012l.006.009.033-.06a.105.105,0,0,1-.045.022c-.022,0-.032.012-.028.025s0,.011-.016.005-.042.007-.05.03-.012.015-.013,0l0-.016c0-.017-.008-.022-.017-.017s-.014,0-.011,0a.025.025,0,0,0,0-.017c0-.006-.005-.007-.012-.008-.015-.018-.038-.036-.053-.055l-.042.059c-.007,0-.011,0-.012.008s0,.012.007.017,0,.011-.01,0-.015,0-.016.018v.016c0,.016-.006.016-.013,0s-.029-.04-.053-.026-.016.009-.015,0S9.492,3,9.469,3a.1.1,0,0,1-.046-.018l.035.053,0,0a.015.015,0,0,1,.019.01c.005.009,0,.019,0,.022h0l.008.012Z" fill="#f7db17"/>
          <path d="M9.834,3.129h0l-.011.01-.016.016h0v0l.016-.015.006-.008H9.8l-.017.008-.011.01h0v0a.034.034,0,0,1,.012-.012l.008-.005H9.765l-.005,0,0,.006h0v0l0-.006H9.737l0,0,0,.005,0,0v0l0-.007,0,0H9.7l0,0,0,.005h0v0l0-.007H9.667l-.028,0h0l0,.006v0h0l0,0-.005,0h0l-.027,0,0,0,0,.006v0h0l0,0L9.6,3.131H9.578l.006.006v0h0l-.005,0,0,0h0l-.026,0,.01,0a.037.037,0,0,1,.013.012v0h0l-.011-.009-.02-.007h0l-.021,0,.007.008.016.014v0h0l-.018-.014L9.5,3.141a.14.14,0,0,0-.046-.01.111.111,0,0,1-.036,0l.011.017a.025.025,0,0,0,.017.011v0a.077.077,0,0,0,.015.03.039.039,0,0,0,.015.011.094.094,0,0,1-.014-.019.062.062,0,0,1-.007-.033l0,0,0,0a.056.056,0,0,0,.006.031.1.1,0,0,0,.024.026l0,.005a.079.079,0,0,1-.031-.017.075.075,0,0,1-.015-.031.038.038,0,0,1-.018-.013l-.01-.015a.154.154,0,0,0,.039.088.065.065,0,0,0,.021.016c.008,0,.008.008,0,.008H9.468l.018.007c.011.006.018.012.019.021l0,0,0,0a.024.024,0,0,0-.016-.017.175.175,0,0,0-.032-.012l-.036,0,.01.006a.131.131,0,0,0,.028.009l.018.006.015.012v0h0l-.013-.01-.017-.006a.14.14,0,0,1-.029-.009l-.015-.009a.094.094,0,0,0,.068.051l0,0h0l.021,0,.021,0,0,0,0,0-.021,0-.013,0H9.481a.042.042,0,0,0-.033.041h0c.007-.007.014-.012.021-.018A.038.038,0,0,1,9.5,3.327l0,0,0,0a.028.028,0,0,0-.025.006.121.121,0,0,0-.024.021.046.046,0,0,1-.015.03c.005,0,.008.005.013,0l.02-.009a.09.09,0,0,1,.022-.006l0,0,0,0-.021,0L9.451,3.4A.086.086,0,0,0,9.5,3.387l.01,0,.014-.006.014,0,0,0,0,0a.029.029,0,0,0-.018.007l-.009.008-.007,0a.068.068,0,0,0-.014.023l0,.018A.1.1,0,0,1,9.5,3.414a.064.064,0,0,1,.027-.022h0v0a.072.072,0,0,0-.025.021.1.1,0,0,0-.016.028l0,.006a.188.188,0,0,1,.024-.025.044.044,0,0,1,.033-.011l0,0,0,0a.036.036,0,0,0-.028.01.158.158,0,0,0-.028.03.088.088,0,0,0,.042-.009c.007,0,.014-.011.019-.012l0-.006.008-.008h0v0l-.007.008-.007.009h0a.069.069,0,0,0-.013.02.178.178,0,0,1-.008.045L9.542,3.5a.061.061,0,0,0,.009-.018.061.061,0,0,1,.013-.022.048.048,0,0,1,.02-.014h0v0a.064.064,0,0,0-.019.013.056.056,0,0,0-.011.02.053.053,0,0,1-.011.021l-.011.01h.009a.062.062,0,0,0,.022-.01.039.039,0,0,0,.011-.017h0v0a.05.05,0,0,1-.013.019l-.015.008a.114.114,0,0,0,.036-.01s.007-.013.01-.016l.008-.013a.032.032,0,0,1,.012-.011l0,0v0l-.01.009L9.6,3.492l0,.024a.2.2,0,0,0,.006.048l.012-.016h0l0-.026a.113.113,0,0,0,0-.026l0,0,0,0a.122.122,0,0,1,0,.027v.021l.006-.008a.058.058,0,0,0,0-.019.037.037,0,0,0,0-.018l0,0,0,0a.044.044,0,0,1,0,.02l0,.015.014-.01V3.5a.076.076,0,0,1,0-.015l0,0,0,0a.071.071,0,0,0,0,.014v.019a.025.025,0,0,0,.011.018.032.032,0,0,1,.015.021.108.108,0,0,0,0-.031.077.077,0,0,0-.01-.029v0h0a.072.072,0,0,1,.011.031.163.163,0,0,1,0,.038.056.056,0,0,0,.026-.047l0-.006v0h0l0,.009v.006l0,0,.006,0,0-.014a.067.067,0,0,1,0-.02l0,0,0,0a.054.054,0,0,0,0,.018l.006.018v0l.006,0,0-.02a.244.244,0,0,1,0-.027l0,0,0,0a.235.235,0,0,0,0,.026l0,.026h0l.013.015a.194.194,0,0,0,0-.048c0-.006-.006-.018-.006-.024l-.008-.011-.012-.009v0h0a.03.03,0,0,1,.013.009l.009.012s.007.014.012.016a.089.089,0,0,0,.036.007A.033.033,0,0,1,9.8,3.5a.037.037,0,0,1-.014-.018v0h0A.042.042,0,0,0,9.8,3.5.062.062,0,0,0,9.83,3.5l-.013-.01a.062.062,0,0,1-.012-.019.047.047,0,0,0-.012-.019.067.067,0,0,0-.02-.012v0l0,0a.057.057,0,0,1,.021.013.06.06,0,0,1,.014.021.042.042,0,0,0,.011.018l.014.01a.246.246,0,0,1-.011-.045c0-.01-.019-.021-.016-.025s.01.007.02.009a.088.088,0,0,0,.043,0,.365.365,0,0,0-.03-.027.034.034,0,0,0-.029-.008l0,0,0,0a.037.037,0,0,1,.032.009.188.188,0,0,1,.026.022l0-.006A.151.151,0,0,0,9.848,3.4a.083.083,0,0,0-.027-.019v0h0a.07.07,0,0,1,.028.019.118.118,0,0,1,.017.024l-.006-.018a.054.054,0,0,0-.015-.022L9.83,3.371l-.005,0-.013,0,0,0,0,0,.014,0,.008.005.017,0a.1.1,0,0,0,.053,0l-.018-.006a.078.078,0,0,0-.021,0l0,0,0,0a.085.085,0,0,1,.022,0l.021.008c.005,0,.008,0,.013,0A.044.044,0,0,1,9.9,3.342h0a.164.164,0,0,0-.025-.019.037.037,0,0,0-.025,0h0v0a.037.037,0,0,1,.029,0,.125.125,0,0,1,.022.016h0A.039.039,0,0,0,9.866,3.3c-.006,0-.014,0-.014,0s.007,0,.018-.007a.1.1,0,0,0,.064-.057l-.015.01a.09.09,0,0,1-.027.011l-.017.007-.012.011h0v0l.013-.012.018-.008a.108.108,0,0,0,.027-.01l.01-.007H9.891a.169.169,0,0,0-.031.013c-.009.006-.015.012-.015.019l0,0,0,0a.032.032,0,0,1,.017-.022l.018-.009H9.867c-.009,0-.009,0,0-.007A.066.066,0,0,0,9.884,3.2a.168.168,0,0,0,.033-.091l-.009.016a.039.039,0,0,1-.017.014.068.068,0,0,1-.013.032.061.061,0,0,1-.028.019l0,0a.094.094,0,0,0,.021-.028.057.057,0,0,0,0-.031l0,0,0,0a.078.078,0,0,1-.005.034.086.086,0,0,1-.013.02.041.041,0,0,0,.014-.012.071.071,0,0,0,.013-.031v0A.034.034,0,0,0,9.9,3.126l.009-.018a.105.105,0,0,1-.035.008.117.117,0,0,0-.044.013Z" fill="#f7db17"/>
          <path d="M9.829,3.115a1.234,1.234,0,0,0-.161,0,1.455,1.455,0,0,0-.162.015v0s0,0,.009,0c.051-.007.1-.011.153-.013a1.238,1.238,0,0,1,.161,0s.006-.007,0-.007Z" fill="#f7db17"/>
          <path d="M9.507,3.122a1.365,1.365,0,0,1,.321-.011l0-.01-.005,0a.011.011,0,0,1-.01-.01.01.01,0,0,1,.01-.01.01.01,0,0,1,.009.006l0-.014a1.641,1.641,0,0,0-.172,0,1.663,1.663,0,0,0-.172.015L9.5,3.1l.007,0a.009.009,0,0,1,.01.01s0,.009-.009.01h0l0,.008Zm.241-.042a.009.009,0,0,0-.009.01.009.009,0,0,0,.01.01.011.011,0,0,0,.009-.011h0a.01.01,0,0,0-.01-.009Zm0,0,0,0,0,0,.005,0Zm-.086,0a.01.01,0,0,0-.009.01.01.01,0,0,0,.01.01.011.011,0,0,0,.01-.01h0a.011.011,0,0,0-.011-.009Zm0,0-.005.005.005,0,0,0Zm-.084,0a.01.01,0,0,0,0,.02.011.011,0,0,0,.01-.01h0a.011.011,0,0,0-.01-.01Zm0,.005-.005,0,.005,0,0,0Z" fill="#f7db17" fill-rule="evenodd"/>
        </g>
        <g>
          <path d="M9.664,3.022a.02.02,0,0,0-.009-.013A.026.026,0,0,0,9.64,3V3a.025.025,0,0,0,.012-.011.047.047,0,0,0,.006-.02h.006a.03.03,0,0,0,.008.016.036.036,0,0,0,.016.011V3A.026.026,0,0,0,9.676,3a.067.067,0,0,0-.007.018Zm0-.009L9.672,3l.008-.007-.012-.009-.006-.009-.006.013L9.648,3l.011.006Z"/>
          <path d="M9.745,3.414l-.04.018h0v0l.04-.018h0Zm0-.026L9.7,3.416h0v0l.047-.028h0Zm-.144,0,.049.024v0h0L9.6,3.394v0Zm.005.025.041.015,0,0,0,0L9.607,3.42l0,0,0,0Zm.019.034a.088.088,0,0,0,.028,0,.019.019,0,0,0,.015-.012l0-.039-.024,0a.025.025,0,0,1-.016-.014.046.046,0,0,1,0-.026l0,0,0,0a.059.059,0,0,0,0,.023.017.017,0,0,0,.013.01.1.1,0,0,0,.024,0,.1.1,0,0,0,.024,0,.04.04,0,0,0,.015-.01.023.023,0,0,0,0-.014l0-.007-.011,0-.011,0H9.682l0,0,0,0h.006l.012,0a.032.032,0,0,1,.014,0,.021.021,0,0,1,.007.011.025.025,0,0,1-.006.018.03.03,0,0,1-.017.012L9.675,3.4l0,.038h0a.021.021,0,0,0,.015.011.086.086,0,0,0,.028,0l0,0,0,0a.08.08,0,0,1-.031,0,.018.018,0,0,0-.025-.007l-.009.009a.076.076,0,0,1-.03,0l0,0,0,0Zm.029.015.031,0,0,0,0,0-.032,0,0,0Z"/>
          <path d="M9.694,3.218a.285.285,0,0,1,.033-.025.066.066,0,0,1,.028-.009l0,0,0,0A.054.054,0,0,0,9.73,3.2a.149.149,0,0,0-.032.024h0v0Zm-.047.006A.154.154,0,0,0,9.61,3.2a.054.054,0,0,0-.029-.007l0,0,0,0a.071.071,0,0,1,.032.007.185.185,0,0,1,.037.025v0Zm-.014.08.01-.018.013-.013h0v0l-.013.013-.009.016,0,0Zm.024-.138a.1.1,0,0,1,.01.017.083.083,0,0,1,0,.022.134.134,0,0,1,0,.02.048.048,0,0,1-.007.02.024.024,0,0,1-.013.009H9.638a.033.033,0,0,1,0,.024l0,0-.01,0-.01,0h0L9.6,3.264l-.012-.01h0l-.008-.013,0-.013-.016-.009-.013-.01v0h0l.013.009.016.009a.109.109,0,0,1,.03.007.128.128,0,0,1,.025.015h0l0,0h.012l.01-.007a.049.049,0,0,0,.006-.017V3.206h0a.155.155,0,0,0,0-.021L9.652,3.17v0ZM9.63,3.25a.2.2,0,0,0-.025-.014.072.072,0,0,0-.025-.007l0,.011.006.01h0l.011.008.018.007h0l.01,0,.008,0a.052.052,0,0,0,0-.021v0Zm.059-.081-.008.016a.065.065,0,0,0,0,.02h0a.121.121,0,0,0,0,.019.035.035,0,0,0,.008.016l.009.007a.022.022,0,0,0,.012,0l0,0h0a.132.132,0,0,1,.025-.016.1.1,0,0,1,.029-.01l.016-.01.011-.01h0V3.2l-.012.011-.015.009a.066.066,0,0,1,0,.014l-.007.014h0l-.011.01-.019.009h0l-.009,0-.01.005h0a.029.029,0,0,1,0-.024H9.7a.03.03,0,0,1-.013-.009.066.066,0,0,1-.009-.019.134.134,0,0,1,0-.02.082.082,0,0,1,0-.022.076.076,0,0,1,.009-.018h0v0Zm.076.053a.085.085,0,0,0-.024.009.1.1,0,0,0-.024.016v0a.038.038,0,0,0,0,.021l.007,0,.01,0h0l.018-.009.01-.009h0l0-.011V3.222Z"/>
          <path d="M9.739,3.227a.018.018,0,0,0-.016.018.016.016,0,0,0,.018.016.016.016,0,0,0,.016-.017h0A.017.017,0,0,0,9.739,3.227Zm0,.006a.012.012,0,0,0-.012.012.013.013,0,0,0,.012.011.012.012,0,0,0,.012-.012h0C9.751,3.237,9.746,3.232,9.74,3.233Zm0,0-.007.008.007.006.007-.007Zm-.134,0a.016.016,0,0,1,.017.016.016.016,0,0,1-.016.018.018.018,0,0,1-.018-.016h0A.017.017,0,0,1,9.606,3.233Zm0,0a.012.012,0,0,1,.012.011.011.011,0,0,1-.011.012A.01.01,0,0,1,9.6,3.25h0A.011.011,0,0,1,9.606,3.238Zm0,0,.007.007-.007.007L9.6,3.25Z" fill-rule="evenodd"/>
        </g>
      </g>
      <g id="lion-3">
        <path d="M10.343,2.913l-.006,0-.045.055c-.016,0-.02.014-.014.027-.021,0-.024.015-.025.033-.019-.03-.04-.039-.064-.026,0-.018-.013-.028-.033-.033a.07.07,0,0,1-.034-.012l-.013-.009c-.01-.008-.018,0-.014,0l.059.1a.016.016,0,0,0,.007.017l.01.031,0,.009a.158.158,0,0,0-.052-.012.036.036,0,0,1-.028-.012s-.008,0-.008.006a.166.166,0,0,0,.043.12h-.055c-.006,0-.008,0-.006.008a.1.1,0,0,0,.063.063.05.05,0,0,0-.03.04.038.038,0,0,1-.018.035c-.005,0-.007,0,0,.009a.085.085,0,0,0,.071.011.106.106,0,0,0-.018.067.079.079,0,0,0,.048,0,.1.1,0,0,0-.005.025.062.062,0,0,1-.009.026s0,.007,0,.009a.118.118,0,0,0,.072,0,.219.219,0,0,0,0,.057s.005.008.01,0a.137.137,0,0,1,.043-.04.032.032,0,0,0,.012.018.031.031,0,0,1,.011.027l0,.008c.012,0,.042-.029.049-.046a.11.11,0,0,1,.033.038c0,.006.008,0,.01,0a.212.212,0,0,0,.007-.057.119.119,0,0,0,.072.007c.006,0,0-.006,0-.008a.1.1,0,0,1-.008-.029.058.058,0,0,0,0-.023.08.08,0,0,0,.048.006.108.108,0,0,0-.014-.068.083.083,0,0,0,.072-.006s0-.006,0-.009a.038.038,0,0,1-.015-.036.049.049,0,0,0-.027-.042.109.109,0,0,0,.068-.058q0-.008-.006-.009l-.056,0a.165.165,0,0,0,.052-.116c0-.009,0-.012-.007-.007a.036.036,0,0,1-.028.011.135.135,0,0,0-.052.008l0-.009.013-.031a.015.015,0,0,0,.008-.016l.065-.1c.005-.006,0-.013-.013-.006l-.014.007a.06.06,0,0,1-.034.011c-.02,0-.034.011-.035.03q-.034-.023-.066.021c0-.019,0-.036-.022-.035a.018.018,0,0,0-.013-.028c-.014-.02-.035-.038-.049-.059l-.005,0Z"/>
        <g>
          <path d="M10.538,3.03s-.01,0-.013.007,0,.014,0,.016l.01,0,0,0h0c0-.006,0-.012,0-.015Z" fill="#f7db17"/>
          <path d="M10.143,3.015s.01,0,.013.008,0,.013,0,.015-.008,0-.011-.008,0-.013,0-.015Z" fill="#f7db17"/>
          <path d="M10.5,3.1l-.005,0,0,0,.005,0Z" fill="#f7db17"/>
          <path d="M10.18,3.088l0,0,0,0,.005,0Z" fill="#f7db17"/>
          <path d="M10.52,3.077a1.51,1.51,0,0,0-.178-.017,1.53,1.53,0,0,0-.179,0v.007a1.51,1.51,0,0,1,.178,0,1.28,1.28,0,0,1,.175.017l0-.007Z" fill="#f7db17"/>
          <path d="M10.161,3.057c.061,0,.121,0,.181,0a1.511,1.511,0,0,1,.178.018l.01-.014h-.007c-.006,0-.007-.013,0-.022a.015.015,0,0,1,.019-.01l.005.009.037-.057A.093.093,0,0,1,10.536,3c-.022,0-.033.01-.03.023s-.005.011-.016,0-.043,0-.053.026-.013.014-.013,0V3.031c0-.018-.006-.023-.016-.019s-.014,0-.011,0A.025.025,0,0,0,10.4,2.99c0-.005-.005-.007-.012-.008-.013-.02-.035-.04-.049-.059l-.046.055c-.007,0-.011,0-.012.008s0,.012.006.017,0,.011-.011,0-.015,0-.017.017l0,.016c0,.016-.008.016-.013,0S10.22,3,10.2,3.011s-.016.007-.014-.005-.008-.021-.03-.025a.111.111,0,0,1-.045-.022l.031.055,0,0c.007,0,.015,0,.019.011s0,.019,0,.022h0l.007.013Z" fill="#f7db17"/>
          <path d="M10.505,3.142h0l-.011.009-.017.014h0v0l.017-.014.006-.007-.022,0-.018.007-.011.009h0v0a.025.025,0,0,1,.012-.011l.009,0-.025,0-.005,0,0,0h0v0l0-.006h0l-.019,0h0l0,.005,0,0h0v0l0-.006,0,0-.027,0h0l-.005,0,0,0h0v0l.005-.006h0l-.029,0h-.026l0,.007v0h0l0-.005,0,0h-.029l0,0,0,.007,0,0,0,0,0-.005,0,0h-.019l0,.006v0h0l0-.006-.005,0h-.027l.01.005a.034.034,0,0,1,.012.012v0h0l-.01-.01L10.2,3.127H10.18l.007.009.015.015v0h0l-.016-.016-.01-.011a.139.139,0,0,0-.045-.014.089.089,0,0,1-.036-.007l.009.018a.04.04,0,0,0,.016.013l0,0a.063.063,0,0,0,.012.031.044.044,0,0,0,.015.012.063.063,0,0,1-.013-.02.057.057,0,0,1,0-.034l0,0,0,0a.067.067,0,0,0,0,.031.118.118,0,0,0,.022.028l0,0a.06.06,0,0,1-.03-.019.08.08,0,0,1-.013-.032.046.046,0,0,1-.017-.014l-.008-.016a.15.15,0,0,0,.032.091.07.07,0,0,0,.02.018c.007,0,.007.008,0,.007h-.008l.018.009a.028.028,0,0,1,.016.022l0,0,0,0a.029.029,0,0,0-.015-.019.169.169,0,0,0-.031-.013l-.036,0,.01.007a.085.085,0,0,0,.026.011l.018.008.014.012v0h0l-.012-.011-.017-.007a.1.1,0,0,1-.028-.011l-.014-.01a.092.092,0,0,0,.064.056l0,0h0l.021,0,.02,0,0,0,0,0-.021,0-.013,0h-.009a.04.04,0,0,0-.036.038h0a.112.112,0,0,1,.022-.016.037.037,0,0,1,.029,0l0,0h0a.035.035,0,0,0-.025,0,.174.174,0,0,0-.026.019.046.046,0,0,1-.017.029s.008.006.012,0l.021-.007a.062.062,0,0,1,.023,0l0,0,0,0-.021,0-.018.007a.1.1,0,0,0,.053,0l.01,0,.014-.006.015,0,0,0,0,0a.032.032,0,0,0-.018.006l-.01.007-.007,0a.069.069,0,0,0-.016.022l-.006.018a.146.146,0,0,1,.017-.024.11.11,0,0,1,.028-.02l0,0v0a.07.07,0,0,0-.026.019.11.11,0,0,0-.018.026l0,.007a.186.186,0,0,1,.026-.023A.047.047,0,0,1,10.2,3.4l0,0,0,0a.041.041,0,0,0-.03.009.193.193,0,0,0-.03.027.09.09,0,0,0,.043,0c.008,0,.015-.01.02-.011l0,0,.009-.008h0v0l-.008.007-.008.009h0a.067.067,0,0,0-.014.019.246.246,0,0,1-.011.045l.014-.01a.087.087,0,0,0,.011-.018.06.06,0,0,1,.014-.021.057.057,0,0,1,.021-.013l0,0,0,0a.076.076,0,0,0-.019.012.064.064,0,0,0-.013.019.039.039,0,0,1-.012.019l-.012.01h.009a.065.065,0,0,0,.023-.009.038.038,0,0,0,.012-.016h0v0a.042.042,0,0,1-.014.018.046.046,0,0,1-.016.007.094.094,0,0,0,.037-.007c.005,0,.007-.013.011-.016l.008-.012a.042.042,0,0,1,.014-.009h0l0,0-.011.009-.008.011,0,.024a.155.155,0,0,0,0,.048l.014-.014v0l0-.026a.113.113,0,0,0,0-.026l0,0,0,0a.122.122,0,0,1,0,.027l0,.021.006-.008a.06.06,0,0,0,.006-.019.054.054,0,0,0,0-.018l0,0,0,0a.067.067,0,0,1,0,.02l-.005.016.015-.009V3.5l0-.015,0,0,0,0,0,.014a.121.121,0,0,0,0,.019.023.023,0,0,0,.01.019.032.032,0,0,1,.013.022.108.108,0,0,0,0-.031.074.074,0,0,0-.008-.03v0h0a.085.085,0,0,1,.009.031.129.129,0,0,1,0,.039.055.055,0,0,0,.03-.046l0-.006v0h0l0,.009v.006l0,0,.006,0,0-.014a.068.068,0,0,1,0-.02l0,0,0,0a.062.062,0,0,0,0,.019l.005.019v0l.006,0,0-.02a.123.123,0,0,1,0-.027l0,0,0,0a.118.118,0,0,0,0,.026l0,.027h0l.012.016a.192.192,0,0,0,.007-.048c0-.006-.005-.018-.005-.024L10.4,3.48l-.01-.009,0,0,0,0a.041.041,0,0,1,.012.011l.008.012s.005.015.01.018a.119.119,0,0,0,.036.009.036.036,0,0,1-.015-.008.041.041,0,0,1-.013-.019v0h0a.043.043,0,0,0,.012.017.068.068,0,0,0,.031.011l-.012-.01a.051.051,0,0,1-.01-.021.039.039,0,0,0-.012-.019.049.049,0,0,0-.018-.014v0h0a.048.048,0,0,1,.02.014.061.061,0,0,1,.013.022.038.038,0,0,0,.009.018l.014.012a.185.185,0,0,1-.008-.046c0-.011-.018-.023-.015-.026s.011.007.02.011a.085.085,0,0,0,.042.008.2.2,0,0,0-.028-.03.034.034,0,0,0-.027-.01l0,0,0,0a.036.036,0,0,1,.031.012.136.136,0,0,1,.024.024l0-.006a.1.1,0,0,0-.017-.028.069.069,0,0,0-.024-.021v0h0a.078.078,0,0,1,.026.022.1.1,0,0,1,.015.025l0-.019A.079.079,0,0,0,10.5,3.4l-.016-.015,0,0-.013,0,0,0,0,0,.014,0,.008,0,.016.006a.093.093,0,0,0,.052.009l-.017-.008a.054.054,0,0,0-.021,0l0,0,0,0a.059.059,0,0,1,.022,0l.02.009s.008,0,.013,0a.042.042,0,0,1-.015-.03h0a.225.225,0,0,0-.024-.021.037.037,0,0,0-.025-.006l0,0,0,0a.035.035,0,0,1,.028.007.12.12,0,0,1,.021.017h0a.038.038,0,0,0-.033-.04c-.006,0-.015,0-.014,0s.008,0,.019-.007a.094.094,0,0,0,.068-.052l-.015.01a.14.14,0,0,1-.029.009l-.017.006-.013.01h0v0l.014-.012.019-.006a.122.122,0,0,0,.027-.009l.011-.006-.036,0a.175.175,0,0,0-.032.012c-.009,0-.016.01-.016.017l0,0,0,0a.031.031,0,0,1,.018-.021l.019-.007H10.53c-.009,0-.009-.005,0-.008a.065.065,0,0,0,.021-.016.168.168,0,0,0,.039-.088l-.009.015a.046.046,0,0,1-.018.013.077.077,0,0,1-.016.031.064.064,0,0,1-.03.017l0-.005a.071.071,0,0,0,.023-.026.057.057,0,0,0,.007-.031l0,0,0,0a.062.062,0,0,1-.007.033.07.07,0,0,1-.015.019.042.042,0,0,0,.016-.011.064.064,0,0,0,.014-.03l0,0a.032.032,0,0,0,.017-.011l.01-.017a.108.108,0,0,1-.036,0,.136.136,0,0,0-.044.011Z" fill="#f7db17"/>
          <path d="M10.5,3.128a1.083,1.083,0,0,0-.161-.015c-.054,0-.108,0-.163,0v0s0,0,.01,0c.051,0,.1,0,.152,0a1.234,1.234,0,0,1,.161.014s.006-.006,0-.006Z" fill="#f7db17"/>
          <path d="M10.179,3.11c.054,0,.108,0,.161,0a1.223,1.223,0,0,1,.16.017l0-.01H10.5s-.01-.005-.009-.01a.009.009,0,0,1,.01-.01.009.009,0,0,1,.008.006l.006-.013a1.647,1.647,0,0,0-.171-.016c-.058,0-.116,0-.174,0l0,.013.008,0a.01.01,0,0,1,.01.01c0,.006,0,.01-.01.009h0l0,.007Zm.243-.024a.011.011,0,0,0-.01.01.01.01,0,1,0,.02,0h0a.011.011,0,0,0-.01-.01Zm0,.005-.005,0,.005,0,0,0Zm-.085-.01a.01.01,0,0,0-.01.009.009.009,0,0,0,.009.01.01.01,0,0,0,.011-.009h0A.01.01,0,0,0,10.337,3.081Zm0,0,0,0,0,.005,0,0Zm-.084-.006a.009.009,0,0,0-.01.009.01.01,0,0,0,.009.01.009.009,0,0,0,.01-.009.009.009,0,0,0-.009-.01Zm0,0-.005,0,.005,0,0,0Z" fill="#f7db17" fill-rule="evenodd"/>
        </g>
        <g>
          <path d="M10.343,3.022a.027.027,0,0,0-.007-.014A.026.026,0,0,0,10.321,3V3a.021.021,0,0,0,.013-.01.064.064,0,0,0,.008-.019h0a.039.039,0,0,0,.007.016.044.044,0,0,0,.015.012V3a.019.019,0,0,0-.011.007.056.056,0,0,0-.009.017Zm0-.009L10.353,3,10.361,3l-.011-.01,0-.01-.007.013L10.329,3,10.34,3Z"/>
          <path d="M10.394,3.419l-.042.015,0,0v0l.042-.015,0,0Zm0-.025-.048.024h0v0l.049-.024h0Zm-.144-.011.047.028v0h0l-.047-.028v0Zm0,.026.04.018,0,0,0,0-.04-.018v0Zm.017.035a.065.065,0,0,0,.028,0,.019.019,0,0,0,.016-.011V3.4a.067.067,0,0,1-.024,0,.021.021,0,0,1-.015-.014.046.046,0,0,1,0-.026l0,0,0,0a.059.059,0,0,0,0,.023.022.022,0,0,0,.012.011l.024,0a.1.1,0,0,0,.024,0,.026.026,0,0,0,.016-.009.024.024,0,0,0,.005-.014l0-.006-.01,0h-.017l0,0,0,0h.019l.013,0a.024.024,0,0,1,.006.011.024.024,0,0,1-.007.018.042.042,0,0,1-.018.011l-.022,0,0,.039h0a.019.019,0,0,0,.014.012.088.088,0,0,0,.028,0l0,0,0,0a.076.076,0,0,1-.03,0,.019.019,0,0,0-.025-.009l-.009.008a.065.065,0,0,1-.031,0l0,0,0,0Zm.027.017h.032l0,0,0,0H10.3l0,0Z"/>
          <path d="M10.358,3.22a.186.186,0,0,1,.035-.022.054.054,0,0,1,.028-.008l0,0,0,0A.059.059,0,0,0,10.4,3.2a.146.146,0,0,0-.033.022h0v0Zm-.048,0a.146.146,0,0,0-.034-.026.066.066,0,0,0-.028-.009l0,0,0,0a.056.056,0,0,1,.031.009.242.242,0,0,1,.036.027v0h0Zm-.019.079.011-.017.014-.013h0v0l-.014.012L10.3,3.3h0Zm.034-.136a.048.048,0,0,1,.008.018.089.089,0,0,1,0,.022.065.065,0,0,1,0,.02.041.041,0,0,1-.008.019.02.02,0,0,1-.013.009H10.3a.039.039,0,0,1,0,.024h0l-.01-.005-.01,0h0l-.018-.009-.011-.01h0l-.007-.014a.061.061,0,0,1,0-.014l-.015-.009L10.211,3.2v0h0l.012.01.015.01a.1.1,0,0,1,.029.01.132.132,0,0,1,.025.016h0l0,0a.022.022,0,0,0,.012,0l.009-.007a.03.03,0,0,0,.008-.016.115.115,0,0,0,0-.019h0a.065.065,0,0,0,0-.02l-.008-.016v0Zm-.033.082a.1.1,0,0,0-.024-.016.1.1,0,0,0-.024-.009v.011l.005.011h0l.01.009.018.009h0l.011,0,.007,0a.05.05,0,0,0,0-.021v0Zm.065-.077-.009.016a.118.118,0,0,0,0,.02h0v.018a.055.055,0,0,0,.006.018l.01.007a.025.025,0,0,0,.012,0l0,0h0a.123.123,0,0,1,.025-.014.111.111,0,0,1,.03-.008l.016-.009.013-.009h0v0l-.014.01-.015.009,0,.014-.008.013h0l-.012.009-.019.008h0l-.01,0-.011,0h0a.036.036,0,0,1,0-.025.015.015,0,0,1-.013,0,.02.02,0,0,1-.013-.009.048.048,0,0,1-.007-.02V3.206a.143.143,0,0,1,0-.022.1.1,0,0,1,.01-.018h0v0Zm.072.059a.1.1,0,0,0-.025.007l-.026.014v0a.039.039,0,0,0,0,.021l.007,0,.011,0h0l.018-.007.011-.008h0l.006-.011,0-.011Z"/>
          <path d="M10.4,3.232a.017.017,0,0,0-.018.017.018.018,0,0,0,.016.018.017.017,0,0,0,.018-.017h0A.018.018,0,0,0,10.4,3.232Zm0,.006a.011.011,0,0,0-.012.011.01.01,0,0,0,.011.012.012.012,0,0,0,.012-.011h0A.012.012,0,0,0,10.4,3.238Zm0,0-.007.006.007.007.007-.006Zm-.133-.015a.016.016,0,0,1,.016.017.017.017,0,0,1-.017.017.017.017,0,0,1-.017-.018h0A.017.017,0,0,1,10.269,3.228Zm0,0a.012.012,0,0,1,.011.012.011.011,0,0,1-.012.011.01.01,0,0,1-.011-.012h0A.011.011,0,0,1,10.269,3.233Zm0,0,.006.007-.007.007-.007-.007Z" fill-rule="evenodd"/>
        </g>
      </g>
    </g>
    <g>
      <path d="M12.237,3.162h0l-.64-.731-.841.482-.142,1.7a7.328,7.328,0,0,1,1.2.2l.42-1.656Z" fill="#171796"/>
      <path d="M10.92,3.267a.108.108,0,0,1,.086.009.064.064,0,0,1,.027.019.4.4,0,0,1,.04-.027.232.232,0,0,1,.059-.034.245.245,0,0,1,.091-.027.441.441,0,0,1,.1,0,.191.191,0,0,1,.077.023l.066.033a.667.667,0,0,0,.071.035.279.279,0,0,0,.1.017.18.18,0,0,0,.052,0c.014,0,.022.005.007.014-.111.068-.2.007-.271-.02a.554.554,0,0,1,.071.057.366.366,0,0,0,.115.08.284.284,0,0,0,.118.028.292.292,0,0,0,.051,0c.01,0,.014,0,.014,0a.017.017,0,0,1-.006.014.155.155,0,0,1-.086.026.329.329,0,0,1-.173-.045.86.86,0,0,1-.111-.079.241.241,0,0,0-.1-.048.2.2,0,0,0-.1,0,.036.036,0,0,1,.021.011.156.156,0,0,0,.063.017c.015,0,.01.011-.012.024a.06.06,0,0,1-.055.024c-.033.022-.045.009-.055-.005a.112.112,0,0,1-.008.026.022.022,0,0,1,0,.014.028.028,0,0,1,.006.025.022.022,0,0,0,.008.013.034.034,0,0,1,.012.022.021.021,0,0,0,.007.015.086.086,0,0,1,.02.018.047.047,0,0,1,.032.042.033.033,0,0,1,.024.028.041.041,0,0,1,.021.015l.088,0a.112.112,0,0,1,.066.04.086.086,0,0,0,.039,0,.159.159,0,0,1,.044-.012.277.277,0,0,1,.076,0,.075.075,0,0,1,.041.026.051.051,0,0,0,.06.006.091.091,0,0,1,.079,0,.064.064,0,0,1,.036,0,.041.041,0,0,1,.033-.015c.018,0,.031,0,.028.026a.02.02,0,0,1-.01.015.04.04,0,0,1-.045.022.043.043,0,0,1-.015.028c.009.029,0,.04-.021.04a.021.021,0,0,1-.023.012.048.048,0,0,1-.029.017.044.044,0,0,0,.01.019c.014.022-.008.031-.028.031a.084.084,0,0,1,0,.044c.021.013.024.026,0,.039a.034.034,0,0,1-.006.048l-.012.007a.042.042,0,0,1-.01.034c-.007,0-.015.006-.01.016s.009.04-.007.04-.006,0-.007.006l0,0a.315.315,0,0,0-.052.035h-.007a.344.344,0,0,1-.058.078.048.048,0,0,1-.032.038.014.014,0,0,1-.011.011c.01.011.014.022,0,.033a.1.1,0,0,1-.043.029c-.034.009-.055.007-.068,0s-.007-.02,0-.024c-.02,0-.025-.009-.024-.024s0-.006.011-.006a.09.09,0,0,0,.032-.009.055.055,0,0,1,.016-.018.054.054,0,0,1,.038-.044.112.112,0,0,0,.047-.042l.028-.048a.038.038,0,0,1-.009-.025.049.049,0,0,1-.018-.017c-.015,0-.021-.008-.023-.017H11.5a.038.038,0,0,1-.023.008.26.26,0,0,1-.036.03.028.028,0,0,1-.024.019c-.03,0-.047.04-.064.055a.049.049,0,0,0-.014.024c0,.02,0,.035-.015.036l-.012,0H11.3a.023.023,0,0,1,0,.03.039.039,0,0,1-.029.013.124.124,0,0,1-.054-.007.023.023,0,0,1-.017-.024c-.011,0-.013-.011-.012-.016a.011.011,0,0,1,.014-.008h0l.02-.006a.172.172,0,0,1,.06-.047.151.151,0,0,1,.023-.021.085.085,0,0,1,.03-.047.068.068,0,0,1,.007-.02v-.01a.045.045,0,0,1-.006-.036.055.055,0,0,1,0-.018c-.036.022-.047.014-.051,0-.013.011-.026.016-.034,0a.053.053,0,0,1-.039,0,.077.077,0,0,1-.026.007.094.094,0,0,1-.016.023.1.1,0,0,1-.016.048.245.245,0,0,1-.024.052.025.025,0,0,1,0,.017c0,.02,0,.029-.015.034a.072.072,0,0,1-.014.024v.008a.03.03,0,0,1-.006.035l-.03.017a.038.038,0,0,1-.033,0c-.018-.007-.017-.013-.014-.019a.019.019,0,0,1-.018,0l-.011-.008c0-.007,0-.013,0-.018a.081.081,0,0,0,.029-.019.022.022,0,0,1,.013-.014.037.037,0,0,1,.021-.024.54.54,0,0,1,.023-.049.018.018,0,0,0,0-.014.011.011,0,0,1,0-.011s.006,0,0-.006a.049.049,0,0,1,.005-.039A.076.076,0,0,0,11.105,4a.143.143,0,0,1,0-.029l-.009,0c-.007,0-.014,0-.02.008s-.008.02-.012.02a.069.069,0,0,1-.031.054.1.1,0,0,0,0,.038c0,.013,0,.023-.006.024A.026.026,0,0,0,11,4.129l0,.011a.021.021,0,0,1,0,.03l0,0a.069.069,0,0,1-.074.009c-.02-.007-.025-.016-.023-.024-.028,0-.022-.024,0-.031a.11.11,0,0,0,.062-.046c0-.027.008-.045.023-.048A.122.122,0,0,1,11,3.986a.062.062,0,0,0,.009-.044c-.015-.01-.016-.02,0-.03s0-.006,0-.009S11,3.893,11,3.885l-.006-.007h0c-.021,0-.015-.012-.006-.021s.006-.011,0-.013a.023.023,0,0,1-.006-.016c-.013-.009-.008-.019,0-.029a.037.037,0,0,1-.012-.026c-.024,0-.033-.013-.02-.031a.1.1,0,0,1,.021-.021.03.03,0,0,0,.008-.027c-.006-.017.016-.03.034-.044l0-.014c-.01-.01-.008-.019,0-.028l0-.014c-.027.005-.027-.011-.014-.036-.016-.009-.011-.024.016-.048l0-.013a.079.079,0,0,0-.033.01.029.029,0,0,1-.031,0,.093.093,0,0,0-.014-.014.021.021,0,0,1-.008-.021c-.031,0-.036-.021-.018-.034a.066.066,0,0,0,.021-.026.134.134,0,0,1,.043-.051l0-.018a.049.049,0,0,0-.025-.01.036.036,0,0,0-.019-.021c-.006,0-.008-.007,0-.015-.017-.014-.013-.023-.008-.032Z"/>
      <g>
        <path d="M11.481,4.065h-.006l-.026.023c-.008-.009-.019,0-.008.006l-.006,0a.019.019,0,0,1-.017.016h0V4.1l0-.014,0,0h0l0,.015a.053.053,0,0,0,0,.013c-.027.008-.042.037-.061.057a.053.053,0,0,0-.015.026s0,.03-.007.03h-.009s-.007,0-.012,0a.182.182,0,0,0-.033,0c-.007.007.012,0,.022.011a.014.014,0,0,1,0,.016c-.009.022-.061.014-.078,0a.012.012,0,0,1-.008-.015h.011a.064.064,0,0,0,.018-.006V4.234h-.005l-.015.005h-.018l0-.006h.007a.109.109,0,0,1,.024-.007.17.17,0,0,1,.062-.048.11.11,0,0,1,.025-.023.071.071,0,0,1,.03-.047.063.063,0,0,1,.008-.023V4.071a.04.04,0,0,1,0-.034.048.048,0,0,1,0-.024v0L11.366,4l.013-.009a.123.123,0,0,0,0,.027h0l-.006.009,0,.009,0,0,0,0,0-.007.006-.008h0a.044.044,0,0,0,.024-.011.228.228,0,0,0,.022-.022V4.02a.069.069,0,0,0-.018.024v0h0a.083.083,0,0,1,.016-.021h0v0h0l0,0A.117.117,0,0,1,11.464,4a.108.108,0,0,0,0,.031.055.055,0,0,0,.018.029Z" fill="#f7db17"/>
        <path d="M10.965,3.764l.006,0h0l.011-.02A.154.154,0,0,1,11,3.72h0v0a.146.146,0,0,0-.016.019l-.011.019v.006a.045.045,0,0,0,.007.023h0l.008-.013a.058.058,0,0,1,.015-.011l.01-.011.007-.011h0v0l-.007.011-.011.011h0L11,3.777l-.007.011V3.8c-.007.011-.016.017,0,.026a.019.019,0,0,0,.006.017.02.02,0,0,1,0,.022c-.007.008,0,.006.006.007h0l.009-.014.011-.012a.066.066,0,0,0,.012-.017.034.034,0,0,0,.005-.017h0a.06.06,0,0,1-.006.019.07.07,0,0,1-.013.017l-.01.012L11,3.872c.009,0,.006.015.007.023l.005,0h0l0-.008.008-.013h0v0l-.008.013,0,.008h0a.012.012,0,0,1,0,.017l0,0c-.013.01-.01.013,0,.021a.108.108,0,0,1,0,.031h0v.021h0V3.977l0,.005a.169.169,0,0,0-.02.057c-.021,0-.018.026-.019.044a.133.133,0,0,1-.063.05c-.005,0-.018,0-.019.011a.012.012,0,0,0,.014,0c.015-.014.022-.006.005.009l0,.008a.07.07,0,0,0,.071.007c.012-.008.019-.016.008-.029a.038.038,0,0,1,.026-.039.026.026,0,0,0,0-.015.1.1,0,0,1,.005-.043l0,0A.067.067,0,0,0,11.051,4l0-.013c0-.007,0-.008.007,0l.005-.012c.007-.01.017-.019.029-.013a.127.127,0,0,1-.006-.028.1.1,0,0,1,0-.034l0,0,.01-.024.011-.025h0v0l-.011.025L11.1,3.9v0a.087.087,0,0,0,0,.032.089.089,0,0,0,.008.032v0c.005,0,.005,0,.005.012a.123.123,0,0,0,0,.019.085.085,0,0,1-.011.073A.034.034,0,0,0,11.1,4.1c.007.006,0,.013,0,.018v0a.03.03,0,0,1-.006.018.49.49,0,0,0-.024.052c-.013,0-.016.011-.021.024s-.009,0-.012.011a.072.072,0,0,1-.029.02c-.01,0,0,.009.006.013s.014,0,.019-.012.011-.006.008,0a.063.063,0,0,0-.008.023s.02.01.024.01a.087.087,0,0,0,.04-.019.021.021,0,0,0,0-.027h-.015l-.019-.007v0h0l.018.006.016,0V4.22a.1.1,0,0,0,.015-.026c.015-.007.015-.014.013-.03a.033.033,0,0,0,0-.017.441.441,0,0,0,.024-.054.063.063,0,0,0,.015-.048c0-.007,0-.011.009-.01l.01-.017h0l0-.011L11.2,4a.039.039,0,0,0,0-.015l0-.015,0-.006,0-.007h0v0l0,0,0,.005h0a.034.034,0,0,1,.005.017A.033.033,0,0,1,11.2,4h0l0,.007,0,.01h0a.048.048,0,0,0,.023-.007h0A.053.053,0,0,0,11.227,4a.07.07,0,0,0,.006-.019l0,0v0A.068.068,0,0,1,11.23,4l-.009.013a.064.064,0,0,0,.036,0,.134.134,0,0,1,0-.04.06.06,0,0,1,.01-.025h0v0a.054.054,0,0,0-.01.023.121.121,0,0,0,0,.038h0c.005.008.007.015.018.008l.011-.008V4a.269.269,0,0,1,.03-.029.17.17,0,0,1,.03-.023h0v0a.232.232,0,0,0-.03.022L11.3,4v.008c0,.011,0,.018.02.012l.018-.009.011,0L11.364,4l.016-.01,0-.018a.143.143,0,0,1,.025-.043h0a.137.137,0,0,0,.023-.017.1.1,0,0,0,.013-.022h0v0a.114.114,0,0,1-.015.023.084.084,0,0,1-.023.018.127.127,0,0,0-.023.041l0,.016h0v0h0a.122.122,0,0,0,0,.027A.044.044,0,0,0,11.406,4a.3.3,0,0,0,.025-.025h0l.008-.017a.028.028,0,0,1,.013-.011h0v0a.029.029,0,0,0-.012.01l-.007.016v.037h0A.114.114,0,0,1,11.466,4l0,0a.113.113,0,0,0,0,.032.046.046,0,0,0,.015.026l.011-.016,0,0h0l.01-.009.007-.007.008-.007h0v0l-.008.007-.007.007h0l-.01.008v.015a.062.062,0,0,0,.019,0c0,.014,0,.017.016.017a.076.076,0,0,1,0-.015l0-.017h0v0l0,.015v.015h0a.034.034,0,0,0,.022.02l.006-.014a.044.044,0,0,0,0-.016l0,0,0,0a.1.1,0,0,1,0,.017l-.009.017h0l0,.015,0-.01.009-.012h0v0l-.009.012-.006.012,0,.006c-.02.035-.042.083-.082.1a.046.046,0,0,0-.033.04.076.076,0,0,0-.019.021.091.091,0,0,1-.04.01c0,.01,0,.014.013.014s.022-.011.023-.009,0,.014-.017.025v0c.013.019.046.012.063.008a.088.088,0,0,0,.042-.031c0-.006,0-.014-.008-.02-.026,0-.021-.02,0-.01.007,0,.008,0,.01-.011a.042.042,0,0,0,.032-.036.354.354,0,0,0,.053-.068.022.022,0,0,0,.005-.017l.007-.014a.077.077,0,0,0,0-.015v0h0a.041.041,0,0,1,0,.016l0,.013,0,0a.58.58,0,0,1,.052-.034.014.014,0,0,1,.014-.012l0,0c.005-.01,0-.018-.006-.027s0-.016.012-.022.008-.024.009-.034h0v0l0-.011V4h0l0,.011v0a.039.039,0,0,0,.021-.019.043.043,0,0,0-.008-.029l-.007,0-.013.006h0v0l.013-.005.01,0,.01-.008c.006-.009-.01-.017-.016-.021h0L11.7,3.908v0h0l.023.02a.083.083,0,0,0,0-.038l0-.012h0a.037.037,0,0,1-.015-.013.033.033,0,0,1-.005-.016v0h0a.032.032,0,0,0,.019.027.041.041,0,0,0,.029,0c.012-.007,0-.02-.007-.028l0-.017h0l-.005-.005-.006,0v0h0l.008,0,.006.007h0a.045.045,0,0,0,.025-.017l-.012-.013-.015-.012v0h0l.014.012.013.014v0c.01,0,.012,0,.017-.011l-.006-.014-.011-.012v0h0l.011.013L11.8,3.8a.026.026,0,0,0,.015,0c.009-.006,0-.025,0-.033h0l0,0-.007,0v0h0l.006,0,.005,0,0,0a.031.031,0,0,0,.011-.02c0-.011,0-.006.017-.008a.033.033,0,0,0,.031-.021.01.01,0,0,0,.007-.009c0-.01,0-.015-.01-.016a.039.039,0,0,0-.036.012l0,.007v0h0l0-.007a.086.086,0,0,0-.039.006h0l.006.011,0,.014,0,0v0l0-.013-.01-.015h0a.087.087,0,0,0-.032-.006l.006.006.006.006v0h0L11.753,3.7l-.007-.007h0a.1.1,0,0,0-.029.007l-.019.006.012.015a.08.08,0,0,1,.007.02v0l0,0-.007-.019L11.7,3.708v0h-.017l.007.011v0h0l-.007-.014L11.659,3.7l0,.02,0,.03,0,0,0,0,0-.03L11.654,3.7l-.007-.007a.07.07,0,0,0-.019-.015v.009a.033.033,0,0,1-.007.016h0v0a.023.023,0,0,0,.007-.014v-.01a.137.137,0,0,0-.035-.008l.009.013.009.016a.024.024,0,0,1,.009.014l0,.017v0l0,0,0-.016a.026.026,0,0,0-.008-.013h0L11.6,3.68l-.011-.015h-.013l0,0,0,.009,0,0,0,0,0-.007,0,0h-.025a.25.25,0,0,1,.021.035.148.148,0,0,1,.012.041v0l0,0a.264.264,0,0,0-.012-.04.207.207,0,0,0-.022-.035h0l-.02,0,.008.005.007.007v0h0l-.007-.007-.01-.007-.011,0,0,0,.017.014.018.022v0h0a.091.091,0,0,0-.018-.021l-.018-.015a.083.083,0,0,1-.022,0c0,.009.008.018.011.027a.094.094,0,0,1,.006.029v0l0,0a.153.153,0,0,0-.018-.056h-.013l.007.025,0,.03,0,0h0L11.456,3.7l-.007-.027a.137.137,0,0,0-.043-.033l.008.013a.067.067,0,0,1,0,.024l0,0v0a.078.078,0,0,0,0-.022.057.057,0,0,0-.012-.018l-.012,0-.033,0c.008.007.015.014.014.023l0,0v0c0-.008-.008-.015-.017-.024h-.02l.01.011.007.015h0a.037.037,0,0,0,.006.021.032.032,0,0,0,.015.013v0h0a.036.036,0,0,1-.016-.014.057.057,0,0,1-.007-.022l-.006-.014-.012-.013H11.3a.268.268,0,0,1,.007.027l0,.034,0,0,0,0a.2.2,0,0,0,0-.034.09.09,0,0,0-.007-.027h0a.029.029,0,0,0-.016-.015v0l0,.007h0v0l0-.006v0l0,0c0-.015-.007-.021-.019-.026v.013l-.006.016h0v0l.006-.015V3.591h0c0-.021-.007-.032-.029-.04v.008l0,.014h0v0l0-.013a.053.053,0,0,0,0-.013L11.2,3.53a.042.042,0,0,1,0,.022.088.088,0,0,1-.012.028h0v0a.123.123,0,0,0,.012-.026.077.077,0,0,0,0-.026l-.006-.009h0l0,.006h0v0l0-.006,0,0v0a.026.026,0,0,0-.009-.017h0l0,.007-.006.009h0v0l.005-.009,0-.008-.005-.008,0,.006-.007.006h0v0l.006-.006,0-.006s0,0,0-.006a.027.027,0,0,0-.007-.024h0l-.011,0-.015.009h0v0l.016-.009.013,0V3.439a.183.183,0,0,1-.039.009.073.073,0,0,1-.025,0v0h0a.05.05,0,0,0,.024,0,.124.124,0,0,0,.038-.009h0l.006-.019a.043.043,0,0,1-.016,0h0v0h0a.052.052,0,0,0,.017,0V3.406c0-.007.009-.009.015,0l.013.012a.026.026,0,0,0,.028,0l-.007,0v0h0l.009,0,0,0a.05.05,0,0,0,.045-.015h-.03a.1.1,0,0,1-.023-.006v0h0a.054.054,0,0,0,.022.005.171.171,0,0,0,.032,0h0l0,0,.015-.009a.161.161,0,0,1-.065-.017.057.057,0,0,0-.023-.012.078.078,0,0,0-.045.009l-.01-.009-.015,0h-.021l0,0h0c.007,0,.015,0,.021,0l.02,0a.163.163,0,0,1,.057-.013.192.192,0,0,1,.058-.007h0v0a.029.029,0,0,0,.01-.03.057.057,0,0,0-.026-.025c-.014,0-.028,0-.043,0a.131.131,0,0,0-.027.006.052.052,0,0,1,.019.014.071.071,0,0,1,.014.032l0,0,0,0a.059.059,0,0,0-.013-.029.048.048,0,0,0-.025-.014.3.3,0,0,0-.042.006.08.08,0,0,0-.025.011.048.048,0,0,1,.029,0,.041.041,0,0,1,.019.024l0,0,0,0a.029.029,0,0,0-.016-.02.061.061,0,0,0-.054.008.1.1,0,0,0-.021.019h-.005V3.319l.022-.021a.07.07,0,0,1,.023-.011.059.059,0,0,1,.033-.017.213.213,0,0,1,.044-.007.035.035,0,0,0-.017-.017.05.05,0,0,0-.024,0,.249.249,0,0,0-.051.027H11.1l0,0h-.031a.43.43,0,0,0-.049.038h0a.044.044,0,0,0-.03,0,.02.02,0,0,0-.005.019.122.122,0,0,0-.006.026.152.152,0,0,0-.044.05.051.051,0,0,1-.009.016l.008,0,0,0,0-.01.005-.013h0v0l-.005.012,0,.017h0l0-.007-.009,0-.012.011-.007.01c0,.007.009.009.018.009s0,.013.015.023a.058.058,0,0,1,.014.013.019.019,0,0,0,.018,0c0-.013,0-.02.006-.02h0l0-.006,0-.007h0v0l0,.007v0a.033.033,0,0,1,0,.014.081.081,0,0,1,.034-.008c.022-.026.031-.019.012,0l0,.005a.039.039,0,0,0-.006.02c-.006.005-.033.028-.023.036s.012,0,.009.005-.014.022-.01.03.005,0,.01,0h0a.142.142,0,0,0,.022-.02.1.1,0,0,0,.019-.027l0,0,.007-.024.01-.024h0l.009.009.008,0,.007,0,.009-.009h0v0l-.01.01-.009,0-.01,0-.008-.008-.009.021-.007.024v.005a.131.131,0,0,1-.02.028l-.019.018.005.017a.334.334,0,0,0,.033-.032.159.159,0,0,0,.025-.033h0v0l-.011.018v0l0,.011a.081.081,0,0,0,0,.022l0,0h0a.193.193,0,0,1,0-.024v0l-.008.009a.34.34,0,0,1-.034.032h0v0c-.011.007-.019.01-.007.02l.012-.008.012-.009h0v0l-.012.009-.013.009a.021.021,0,0,0,0,.012h0l.026-.019h0v0l-.025.018,0,0c-.009.007-.039.025-.036.038h0l.021-.008a.08.08,0,0,0,.021-.015h0v0a.082.082,0,0,1-.022.016h0v.008h0l0,0V3.687l-.018.007a.044.044,0,0,1-.011.033s-.034.027-.021.035l.011,0Z" fill="#f7db17"/>
        <path d="M10.979,3.337a.088.088,0,0,0-.022-.01.052.052,0,0,0-.017-.019c-.006,0-.006,0,0-.007s.01,0,.01-.005l.009,0,.006,0h0v0l-.008-.006h-.013l-.012,0a.014.014,0,0,1-.006-.015h0l.01,0,.006,0h0v0l-.008-.006-.007,0A.1.1,0,0,1,11,3.282a.05.05,0,0,1,.025.02l-.007.006a.055.055,0,0,0-.033.007.027.027,0,0,0-.008.022Z" fill="#f7db17"/>
      </g>
      <g>
        <path d="M11.5,4.058l-.014.007h0l.012-.017,0,0v.013Z"/>
        <path d="M11.563,4.2l-.013.014-.016.013h0v0l.016-.012L11.56,4.2h0Z"/>
        <path d="M11.606,4.147l-.007.01h0v0l.007-.01h0v0Z"/>
        <path d="M11.582,4.143l-.006.014a.053.053,0,0,1-.014.012h0v0a.035.035,0,0,0,.013-.011l.006-.012,0,0Z"/>
        <path d="M11.625,4.092,11.62,4.1l0,.007h0v0l0-.008,0-.007h0v0Z"/>
        <path d="M11.659,4.1l-.005.015-.006.015h0v0l.006-.014.005-.015h0Z"/>
        <path d="M11.643,3.893a.082.082,0,0,1,.014.048l0-.018h0A.037.037,0,0,0,11.67,3.9a.031.031,0,0,0,0-.019l0,0h0a.074.074,0,0,1,0,.021.072.072,0,0,1-.009.02l-.008.033v0h0v0a.1.1,0,0,0-.013-.061v0h0Z"/>
        <path d="M11.617,3.927v.008h0l0,0V3.926h0Z"/>
        <path d="M11.61,3.973,11.616,4l0,.019,0,0,.012-.009h0v0l-.01.008,0,.011h0a.246.246,0,0,0,0-.028l-.006-.027v0Z"/>
        <path d="M11.646,3.989l0,.02a.134.134,0,0,1,0,.02h0l0,0a.109.109,0,0,0,0-.018l0-.02v0Z"/>
        <path d="M11.678,3.983a.061.061,0,0,1,0,.019.039.039,0,0,1,0,.018.041.041,0,0,0,0,.019l.007.02v0h0a.058.058,0,0,1-.007-.021.041.041,0,0,1,0-.022h0l0-.016a.055.055,0,0,0,0-.018l0,0Z"/>
        <path d="M11.693,3.931l0,.01,0,.01h0v0l0-.01,0-.01h0v0Z"/>
        <path d="M11.677,3.844l0,.009v0l0,0,0-.009v0Z"/>
        <path d="M11.685,3.779a.089.089,0,0,1,0,.025.035.035,0,0,0-.008.013.067.067,0,0,0,0,.02v0l0,0a.038.038,0,0,1,0-.021.031.031,0,0,1,.009-.014V3.779l0,0v0Z"/>
        <path d="M11.62,3.756a.088.088,0,0,1,.025.022.049.049,0,0,1,.009.031h0L11.635,3.8a.118.118,0,0,1,0,.059A.053.053,0,0,1,11.6,3.9l0,0a.233.233,0,0,0,0-.028.131.131,0,0,0,0-.028v0l0,0a.088.088,0,0,1,0,.028.1.1,0,0,1,0,.025.05.05,0,0,0,.026-.029.135.135,0,0,0,0-.06l0,0,.018.007a.062.062,0,0,0-.009-.026.1.1,0,0,0-.024-.022v0Z"/>
        <path d="M11.791,3.722v0l0,0h0v0l0,0v0h0Z"/>
        <path d="M11.751,3.721l.008.006.006.007v0h0l-.005-.007-.007,0v0Z"/>
        <path d="M11.691,3.738a.032.032,0,0,1,.009.017.074.074,0,0,1,0,.021h0l0,0a.061.061,0,0,0,0-.019.036.036,0,0,0-.008-.015v0Z"/>
        <path d="M11.489,3.758v.013l0,0V3.757h0l0,0Z"/>
        <path d="M11.527,3.738l0,.01v0l0,0h0v0l0-.01v0Z"/>
        <path d="M11.6,3.79V3.8l0,0V3.788h0Z"/>
        <path d="M11.63,3.731l0,.005v.006h0V3.737l0,0v0Z"/>
        <path d="M11.447,3.74l0,.012.006.01a.039.039,0,0,1,.008.014v.013l0,0h0V3.777l-.006-.012-.007-.012,0-.013,0,0,0,0Z"/>
        <path d="M11.521,3.79a.062.062,0,0,1,.007.023.059.059,0,0,1,0,.023.043.043,0,0,0,.006.027.088.088,0,0,0,.021.022.1.1,0,0,1,0-.03.06.06,0,0,1,.012-.032l.007-.014,0-.014v0l0,0,0,.015-.008.015a.046.046,0,0,0-.011.03.1.1,0,0,0,0,.034l0,0a.1.1,0,0,1-.027-.026.038.038,0,0,1-.006-.029.089.089,0,0,0,0-.023.058.058,0,0,0-.007-.021v0Z"/>
        <path d="M11.491,3.836a.057.057,0,0,1-.006.025l-.013.019.008,0,.014-.008L11.5,3.86l.01-.012h0v0l-.01.012L11.5,3.87v.014l0,0V3.873l-.012.007-.014,0,0,0a.188.188,0,0,0,.016-.023.046.046,0,0,0,.006-.023l0,0Z"/>
        <path d="M11.455,3.833v.008h0v-.01Z"/>
        <path d="M11.432,3.789a.05.05,0,0,1,0,.032.056.056,0,0,1-.013.028h0a.054.054,0,0,0-.015.021l-.006.017.006-.007a.034.034,0,0,1,.017-.011l.02-.013.018-.017h0v0l-.019.018-.021.013h0a.026.026,0,0,0-.016.009L11.4,3.9l0,0a.276.276,0,0,1,.008-.027.072.072,0,0,1,.017-.022.057.057,0,0,0,.013-.027.051.051,0,0,0,0-.03v0h0Z"/>
        <path d="M11.506,3.907s0,.006.006.012l0,0a.046.046,0,0,1,.009.027c0,.01,0,.02,0,.03h0a.059.059,0,0,0-.013-.029.118.118,0,0,0-.027-.023v0h0a.105.105,0,0,1,.027.024.048.048,0,0,1,.012.022l0-.02a.038.038,0,0,0-.008-.026l0,0c-.005-.007-.008-.01-.006-.015h0v0Z"/>
        <path d="M11.537,3.905l0,0,0,0v0h0l0,0,0,0v0Z"/>
        <path d="M11.576,3.917l-.007.023-.008.023h0v0l.007-.023.008-.023h0Z"/>
        <path d="M11.6,4.046v.008h0V4.045h0v0Z"/>
        <path d="M11.575,4.008l0,.013,0,.012h0v0l0-.012,0-.013h0Z"/>
        <path d="M11.542,4.008l0,0v0h0l0,0v0Z"/>
        <path d="M11.5,3.99,11.5,4,11.5,4h0V4L11.5,4l0-.007h0v0Z"/>
        <path d="M11.447,4.048l0,.008,0,.008,0,0,0,0,0-.009.005-.009h0v0Z"/>
        <path d="M11.289,4.2l0,0-.005.005h0v0l0,0,0,0h0v0Z"/>
        <path d="M11.313,4.191l0,0-.005,0h0v0l0,0,0,0h0v0Z"/>
        <path d="M11.346,4.171l0,0,0,0h0v0l0,0,0,0h0v0Z"/>
        <path d="M11.4,4.041l0,.014a.066.066,0,0,0,0,.014v0h0a.026.026,0,0,1,0-.015l0-.015h0v0Z"/>
        <path d="M11.43,3.7l0,.011-.008.011h0v0l.007-.01,0-.011h0Z"/>
        <path d="M11.4,3.667l.006.016a.042.042,0,0,1,0,.016h0a.076.076,0,0,0,0-.015l-.006-.015v0Z"/>
        <path d="M11.35,3.724a.062.062,0,0,1-.014-.014.02.02,0,0,1,0-.015h0v0a.024.024,0,0,0,0,.012.04.04,0,0,0,.013.013v0Z"/>
        <path d="M11.4,3.81v.009l0,0V3.81l0,0Z"/>
        <path d="M11.336,3.745a.072.072,0,0,1,.019.034.107.107,0,0,1,0,.025h0a.017.017,0,0,0,.01-.012.073.073,0,0,0,0-.029h0l.007-.018,0-.018h0a.143.143,0,0,1,.015.027.1.1,0,0,1,.008.03h0a.1.1,0,0,0-.019-.051l0,.014a.062.062,0,0,1-.007.019.1.1,0,0,1,0,.029.02.02,0,0,1-.013.014h0V3.82l0,0,0,0a.108.108,0,0,0,0-.04.061.061,0,0,0-.019-.033v0Z"/>
        <path d="M11.374,3.907l0,.014,0,.013,0,0v0l0-.014,0-.014h0Z"/>
        <path d="M11.3,3.938l0,.01,0,0h0l0-.011,0,0,0,0Z"/>
        <path d="M11.364,3.854l-.006.02a.072.072,0,0,1-.011.019h0a.035.035,0,0,0-.01.021.06.06,0,0,0,0,.023l0,0h0a.065.065,0,0,1,0-.024.044.044,0,0,1,.011-.024.062.062,0,0,0,.011-.017l0-.019,0,0,0,0Z"/>
        <path d="M11.347,3.83a.047.047,0,0,1,0,.02.127.127,0,0,1-.013.019h0a.054.054,0,0,0-.014.016L11.31,3.9h0v0l.008-.018a.115.115,0,0,1,.014-.017.057.057,0,0,0,.012-.018.028.028,0,0,0,0-.018v0l0,0Z"/>
        <path d="M11.267,3.868a.056.056,0,0,1,0,.034.084.084,0,0,1-.022.027h0v0a.088.088,0,0,0,.022-.025.062.062,0,0,0,0-.033v0l0,0Z"/>
        <path d="M11.164,3.925l0,.006,0,.006v0h0l0-.007,0-.006v0Z"/>
        <path d="M11.124,3.925a.058.058,0,0,0,0,.023.074.074,0,0,0,.01.022h0l0,.016V4l.012-.016a.046.046,0,0,0,.005-.02v0l0,0a.05.05,0,0,1-.005.021.062.062,0,0,1-.015.02h0l0-.015,0-.015a.07.07,0,0,1-.011-.023.1.1,0,0,1,0-.024h0Z"/>
        <path d="M11.129,4.064l0-.012,0-.013h0v0l0,.012v.012l0,0,0,0Z"/>
        <path d="M11.124,4.1l0-.015,0,0v0l0,.016h0Z"/>
        <path d="M11.1,4.168l.007-.009.007-.011h0v0l-.007.011L11.1,4.17h0v0Z"/>
        <path d="M11.059,3.95v.007h0V3.95h0Z"/>
        <path d="M10.994,4.1V4.089l0,0V4.1l0,0,0,0Z"/>
        <path d="M11.158,3.834a.092.092,0,0,0-.006.033.026.026,0,0,0,.01.023.039.039,0,0,1,.015.021h0l0-.012a.033.033,0,0,0,0-.014l0,0h0V3.9l0,.017h0l0-.006a.037.037,0,0,0-.014-.019.029.029,0,0,1-.011-.026.127.127,0,0,1,.005-.034l0,0,0,0Z"/>
        <path d="M11.146,3.79a.1.1,0,0,1,0,.025.258.258,0,0,1-.008.026.092.092,0,0,0-.006.033.09.09,0,0,0,.009.033v0h0a.073.073,0,0,1-.009-.035.07.07,0,0,1,.006-.035.217.217,0,0,0,.007-.024.07.07,0,0,0,0-.025v0Z"/>
        <path d="M11.07,3.9a.029.029,0,0,0,0,.016l.007.016v0h0a.051.051,0,0,1-.007-.017.037.037,0,0,1,0-.018h0v0Z"/>
        <path d="M11.037,3.886V3.9l0,.009h0v.008l0,.01v0h0l0-.011V3.9l0-.008V3.885Z"/>
        <path d="M11.231,3.6a.075.075,0,0,0,0,.026.092.092,0,0,0,.009.023v0h0a.1.1,0,0,1-.009-.024.082.082,0,0,1,0-.027h0l0,0Z"/>
        <path d="M11.206,3.623a.126.126,0,0,1,.017.057v0l0,0a.107.107,0,0,0-.006-.03.08.08,0,0,0-.011-.025v0Z"/>
        <path d="M11.086,3.627a.088.088,0,0,0-.017.041.051.051,0,0,0,.006.03h0a.062.062,0,0,1,.005.027.086.086,0,0,1-.005.027h0v0a.075.075,0,0,0,.005-.026.057.057,0,0,0,0-.026.071.071,0,0,1-.007-.032.084.084,0,0,1,.019-.043h0v0Z"/>
        <path d="M11.2,3.579a.025.025,0,0,1,0,.015.053.053,0,0,1-.011.014.025.025,0,0,0-.01.016.059.059,0,0,0,0,.023v0h0a.07.07,0,0,1,0-.025.032.032,0,0,1,.012-.018l.009-.012a.02.02,0,0,0,0-.013v0Z"/>
        <path d="M11.08,3.589a.041.041,0,0,1,0,.022.057.057,0,0,1-.013.021h0a.039.039,0,0,0-.012.019.073.073,0,0,0,0,.025l0,0,0,0a.117.117,0,0,1,0-.026.041.041,0,0,1,.014-.02.082.082,0,0,0,.012-.02.046.046,0,0,0,0-.02v0Z"/>
        <path d="M11.148,3.593V3.6l0,.007v0h0l0-.009V3.592h0l0,0Z"/>
        <path d="M11.144,3.575a.029.029,0,0,0-.014.013.054.054,0,0,0-.006.025h0a.059.059,0,0,1,.007.016.15.15,0,0,1,0,.022h0a.078.078,0,0,0,0-.022l-.006-.014a.056.056,0,0,0-.019.04.079.079,0,0,0,.017.049v0h0a.1.1,0,0,1-.018-.051.06.06,0,0,1,.022-.043h0a.058.058,0,0,1,.006-.026.029.029,0,0,1,.016-.015h0v0Z"/>
        <path d="M11.125,3.55v0a.04.04,0,0,1-.008.023l-.008.01,0,.013v0l0,0,0-.014.008-.012a.031.031,0,0,0,.007-.021v0l0,0v0Z"/>
        <path d="M11.314,3.751l.005.014a.061.061,0,0,1,0,.014h0v0a.069.069,0,0,0,0-.013l0-.012v0Z"/>
        <path d="M11.314,3.813a.055.055,0,0,1,0,.022.083.083,0,0,1-.008.022l-.008.019h0v0l.008-.019h0a.081.081,0,0,0,.007-.022.067.067,0,0,0,0-.02v0Z"/>
        <path d="M11.275,3.756A.09.09,0,0,1,11.3,3.8a.082.082,0,0,1,0,.044l0,0v0a.085.085,0,0,0,0-.042.086.086,0,0,0-.022-.038v0Z"/>
        <path d="M11.271,3.825l-.012.022a.177.177,0,0,1-.016.022l-.011.014-.007.017h0a.043.043,0,0,0,0-.016l-.007-.016h0a.049.049,0,0,1-.009-.028.054.054,0,0,1,.011-.028l.008-.02,0-.019,0,0,0,0,0,.02a.1.1,0,0,1-.009.021h0a.04.04,0,0,0-.01.026.037.037,0,0,0,.008.026h0l.007.016,0,.008.005-.009.01-.015a.184.184,0,0,0,.017-.022l.012-.021h0v0Z"/>
        <path d="M11.168,3.792a.1.1,0,0,0,0,.024.049.049,0,0,0,.008.021v0h0a.085.085,0,0,1-.009-.022.211.211,0,0,1,0-.025l0,0v0Z"/>
        <path d="M11.11,3.823v.01l0,0,0,0v-.01h0Z"/>
        <path d="M11.129,3.77a.05.05,0,0,1,0,.017.051.051,0,0,1-.009.016h0v0l.008-.014a.045.045,0,0,0,0-.016v0l0,0Z"/>
        <path d="M11.076,3.874a.115.115,0,0,1-.009-.058.06.06,0,0,1,.019-.036.08.08,0,0,0,.015-.021.063.063,0,0,0,0-.03l0,0v0a.056.056,0,0,1,0,.031.06.06,0,0,1-.016.022.073.073,0,0,0-.018.035.11.11,0,0,0,.01.056v0Z"/>
        <path d="M11.046,3.835l0,.012,0,.011v0h0l0-.013a.019.019,0,0,1,0-.013h0v0Z"/>
        <path d="M11.2,3.729a.05.05,0,0,1,0,.056h0v0a.055.055,0,0,0,.006-.028.046.046,0,0,0-.01-.025v0Z"/>
        <path d="M11.243,3.692a.127.127,0,0,1,.006.028.09.09,0,0,1,0,.028h0a.06.06,0,0,0-.006-.023.049.049,0,0,0-.014-.018v0h0a.045.045,0,0,1,.015.019l0,.015a.1.1,0,0,0,0-.017.063.063,0,0,0-.006-.027v0Z"/>
        <path d="M11.27,3.654a.058.058,0,0,1,.014.024.2.2,0,0,1,0,.035h0a.081.081,0,0,0,0,.016l.005.013v0h0l-.005-.015a.048.048,0,0,1,0-.017h0a.093.093,0,0,0,0-.033.051.051,0,0,0-.012-.023v0Z"/>
        <path d="M11.2,3.647a.034.034,0,0,0-.008.017.074.074,0,0,0,0,.021v0h0a.045.045,0,0,1,0-.023.046.046,0,0,1,.008-.019h0Z"/>
        <path d="M11.052,3.744a.06.06,0,0,1-.012.036.1.1,0,0,1-.026.023h0v0a.078.078,0,0,0,.026-.022.068.068,0,0,0,.011-.034v0l0,0Z"/>
        <path d="M11.048,3.694a.043.043,0,0,1,0,.016l-.006.016h0v0l.005-.015a.032.032,0,0,0,0-.014v0Z"/>
        <path d="M11.146,3.687v.005l0,.025v0l0,0h0V3.685l0,0,0,0h0Z"/>
        <path d="M11.17,3.643a.039.039,0,0,0-.01.025.053.053,0,0,0,.006.024.067.067,0,0,1,.01.039.1.1,0,0,1-.011.039h0v0a.1.1,0,0,0,.01-.038.065.065,0,0,0-.009-.038h0a.072.072,0,0,1-.007-.025.05.05,0,0,1,.011-.027h0v0Z"/>
        <path d="M11.018,3.373a.058.058,0,0,1,.034-.015.067.067,0,0,1,.037.007h.028v0H11.09a.085.085,0,0,1-.037.021.038.038,0,0,1-.029-.006v0h0a.029.029,0,0,0,.025.006.076.076,0,0,0,.033-.018.059.059,0,0,0-.032-.006.055.055,0,0,0-.032.014h0v0Z"/>
        <path d="M11.052,3.366a.009.009,0,0,1,.009.009.009.009,0,0,1-.018,0h0a.009.009,0,0,1,.009-.009Z"/>
        <path d="M11.112,3.418l.015-.01.01-.011h0v0l-.01.012-.016.01h0v0Z"/>
        <path d="M11.235,3.367h.01l.009.006v0h0l-.008,0h-.01v0Z"/>
        <path d="M11.164,3.37a.029.029,0,0,1,.013-.014.041.041,0,0,1,.022,0h0v0a.034.034,0,0,0-.02,0,.024.024,0,0,0-.011.013h0Z"/>
        <path d="M11.173,3.382l0-.008.009,0h0v0l-.007,0,0,.006,0,0v0Z"/>
        <path d="M11.055,3.421l0,.009v.011l0,0,0,0a.05.05,0,0,1,0-.012l0-.01h0v0Z"/>
        <path d="M11.089,3.436v0l0,0,0,0v0l0,0Z"/>
        <path d="M11.067,3.4l.01,0h.013v0l-.012,0-.011,0v0Z"/>
        <path d="M11.089,3.335l-.007,0-.005.007h0v0l.006-.008.009,0h0v0Z"/>
        <path d="M11.054,3.339l-.007,0,0,0h0v0l0-.005.007,0h0Z"/>
        <path d="M11.032,3.339l-.005,0,0,.006h0v0l0-.007.006-.006h0Z"/>
        <path d="M11,3.362l-.006,0-.006.008h0v0L11,3.365,11,3.359h0v0Z"/>
        <path d="M11.007,3.392l0,0L11,3.4h0v0L11,3.4l0,0h0Z"/>
        <path d="M10.979,3.4v.011l0,0V3.4Z"/>
        <path d="M11.015,3.447l0,.018v0h0v0h0l0-.018h0Z"/>
        <path d="M10.994,3.432v.013l0,0V3.432l0,0Z"/>
        <path d="M10.974,3.282l.01.006.006.01v0h0l-.006-.009-.008,0v0Z"/>
        <path d="M11.146,3.507a.055.055,0,0,1,.006.022.064.064,0,0,1,0,.023h0v0a.049.049,0,0,0,0-.021.054.054,0,0,0,0-.021v0Z"/>
        <path d="M11.09,3.571a.147.147,0,0,1,.01-.022l.014-.019a.057.057,0,0,0,.011-.022.053.053,0,0,0,0-.025l0,0h0a.082.082,0,0,1,0,.027.07.07,0,0,1-.011.023l-.014.019a.1.1,0,0,0-.009.021l0,0,0,0Z"/>
        <path d="M11.018,3.552l0-.008.009-.006h0v0l-.008,0,0,.008h0v0Z"/>
        <path d="M11,3.547l.009-.009.01-.007h0v0l-.01.006-.008.009h0v0Z"/>
        <path d="M11.079,3.473l.008,0H11.1l0,0h-.009l-.009,0v0Z"/>
        <path d="M11.042,3.468l0,0h0v0h0l0,0h0v0Z"/>
        <path d="M11.846,3.7l0,.006,0,.007v0h0l0-.006,0-.005v0Z"/>
        <path d="M10.953,4.12l.012.008.014,0,0,0h0a.032.032,0,0,1-.016,0l-.012-.009v0Z"/>
      </g>
      <g>
        <path d="M11.627,3.319a.251.251,0,0,0,.055,0,.157.157,0,0,1-.063.025l.009-.011Z" fill="red"/>
        <path d="M11.58,3.315l.039,0h0l0,.008-.009.01v0h-.041l0,0a.028.028,0,0,0,.008-.015.016.016,0,0,0,0-.012Z" fill="red"/>
        <path d="M11.23,3.214a.387.387,0,0,1,.068,0,.031.031,0,0,1,.017.013.042.042,0,0,1,0,.027l0,0,0,0a.048.048,0,0,0,0-.031l-.008-.01h.006a.153.153,0,0,1,.07.02h0a.023.023,0,0,1,.006.016.04.04,0,0,1-.01.018v0h.005A.053.053,0,0,0,11.4,3.25a.025.025,0,0,0,0-.012l.058.029h0a.017.017,0,0,1,0,.014.036.036,0,0,1-.016.011l0,0,0,0a.038.038,0,0,0,.019-.013.017.017,0,0,0,0-.015l.038.02h0a.013.013,0,0,1,0,.012.03.03,0,0,1-.013.012v0l0,0a.029.029,0,0,0,.016-.015l0-.011.013.005a.36.36,0,0,0,.044.012h0a.014.014,0,0,1,0,.012l-.007.013v0h0A.567.567,0,0,1,11.43,3.3l-.017-.007c-.017-.006-.034-.015-.051-.022h-.007a.415.415,0,0,0-.048-.011.244.244,0,0,0-.054,0h0a.036.036,0,0,0,0-.025.043.043,0,0,0-.016-.014Z" fill="red"/>
        <path d="M11.149,3.236a.281.281,0,0,1,.07-.02.045.045,0,0,1,.021.015.034.034,0,0,1,0,.022.15.15,0,0,0-.03,0,.173.173,0,0,0-.031.007.043.043,0,0,0-.021-.021l-.013,0Z" fill="red"/>
        <path d="M11.4,3.362l-.019-.012a.222.222,0,0,0-.1-.028h0a.033.033,0,0,0,.011-.036.051.051,0,0,0-.022-.024.217.217,0,0,1,.036,0,.315.315,0,0,1,.06.017.042.042,0,0,1,0,.029.041.041,0,0,1-.019.022v0h0a.043.043,0,0,0,.023-.025.045.045,0,0,0,0-.028.165.165,0,0,1,.036.022l.033.024a.027.027,0,0,1-.01.027.049.049,0,0,1-.029,0l0,0Z" fill="red"/>
        <path d="M11.466,3.412c-.021-.016-.041-.032-.063-.047a.047.047,0,0,0,.031-.005.032.032,0,0,0,.014-.027c.013.01.025.021.037.032l.018.017h0V3.4l0,.009-.009,0a.06.06,0,0,1-.023,0l0,0Z" fill="red"/>
        <path d="M11.536,3.459l-.02-.011a.509.509,0,0,1-.045-.031.082.082,0,0,0,.022,0l.012-.007.006-.012V3.389a.372.372,0,0,0,.045.033l.025.014v0a.012.012,0,0,1-.009.013.126.126,0,0,1-.033,0l0,0Z" fill="red"/>
        <path d="M11.612,3.489a.432.432,0,0,1-.068-.026.107.107,0,0,0,.03-.006.018.018,0,0,0,.014-.017.312.312,0,0,0,.042.018.014.014,0,0,1,0,.014.038.038,0,0,1-.017.012l0,0Z" fill="red"/>
        <path d="M11.77,3.473s.014,0,.008,0a.2.2,0,0,1-.161.016.045.045,0,0,0,.019-.014.02.02,0,0,0,0-.015.262.262,0,0,0,.054.012l0,.008a.036.036,0,0,1-.016.011v0h0a.057.057,0,0,0,.018-.012l0-.012a.338.338,0,0,0,.071,0Z" fill="red"/>
        <path d="M11.449,4.273l-.01.012a.108.108,0,0,1-.04.011c0,.009,0,.013.013.013s.022-.01.023-.009,0,.015-.017.025v0c.013.02.046.012.063.008a.088.088,0,0,0,.042-.031c0-.006,0-.014-.009-.02s-.018,0-.016-.009A.157.157,0,0,0,11.449,4.273Z" fill="red"/>
        <path d="M10.944,4.114a.133.133,0,0,1-.035.019c-.006,0-.018,0-.019.011a.012.012,0,0,0,.014,0c.015-.014.022-.006.005.009l0,.008a.07.07,0,0,0,.07.008c.013-.009.02-.017.009-.03V4.135l-.022,0-.013-.008Z" fill="red"/>
        <path d="M11.276,4.229h0c-.007.007.012,0,.022.011a.013.013,0,0,1,0,.015c-.009.022-.061.015-.078.006a.013.013,0,0,1-.008-.016h.011a.064.064,0,0,0,.018-.006V4.234h-.005l-.015.005h-.018l0-.005h.007a.109.109,0,0,1,.024-.007l0,0a.185.185,0,0,1,.041.007Z" fill="red"/>
        <path d="M11.038,4.216l-.007.009a.084.084,0,0,1-.029.02c-.01,0,0,.009.006.013s.014,0,.019-.013.011,0,.008,0a.063.063,0,0,0-.008.023s.02.01.024.01a.087.087,0,0,0,.04-.019.021.021,0,0,0,0-.027h-.015l-.019-.007v0h0l-.022,0Z" fill="red"/>
        <path d="M11.13,3.337h.011l.02,0a.139.139,0,0,1,.057-.012.157.157,0,0,1,.057-.007h0V3.316a.027.027,0,0,0,.01-.029.065.065,0,0,0-.026-.026c-.014,0-.028,0-.043,0a.131.131,0,0,0-.027.006.05.05,0,0,1,.019.013.07.07,0,0,1,.014.032l0,0,0,0a.06.06,0,0,0-.013-.028.058.058,0,0,0-.025-.015.307.307,0,0,0-.042.007.062.062,0,0,0-.025.011.041.041,0,0,1,.029,0,.044.044,0,0,1,.019.025l0,0,0,0a.034.034,0,0,0-.016-.021.068.068,0,0,0-.054.008.134.134,0,0,0-.021.02l0,0a.245.245,0,0,1,.071.011Zm-.076-.015v0a.145.145,0,0,1,.022-.021.07.07,0,0,1,.023-.011.067.067,0,0,1,.033-.018.318.318,0,0,1,.043-.006.035.035,0,0,0-.016-.018.052.052,0,0,0-.025,0,.189.189,0,0,0-.05.028H11.1l0,0h-.015a.034.034,0,0,0-.014,0h0a.259.259,0,0,0-.042.032A.057.057,0,0,1,11.054,3.322Z" fill="red"/>
      </g>
    </g>
    <g>
      <path d="M12.965,5.216l.691-1.567-.51-.823-.91.336-.42,1.656a7.387,7.387,0,0,1,1.148.4Z" fill="#0093dd"/>
      <path d="M12.083,3.766a8.5,8.5,0,0,1,1.319.457l-.266.605a7.805,7.805,0,0,0-1.216-.421Z" fill="#fff"/>
      <path d="M13.179,4.731l.178-.4a8.318,8.318,0,0,0-1.3-.451l-.105.414a7.907,7.907,0,0,1,1.235.427Z" fill="red"/>
      <path d="M12.183,4.191a.05.05,0,0,1,.038,0,.083.083,0,0,1,.035,0,.073.073,0,0,1,.019-.007V4.167l0-.012a.09.09,0,0,1-.036-.048c-.012,0-.018-.007-.019-.012H12.2a.05.05,0,0,1-.043-.013.032.032,0,0,1-.019-.015l-.009-.012c-.007-.009-.005-.021.006-.02a.058.058,0,0,0,.023,0,.051.051,0,0,1,.03,0c.011,0,.018-.008.029-.018V4q0-.008.006-.006a.032.032,0,0,1,.029.017.052.052,0,0,1,.039.025c.023,0,.038.008.039.017s-.005.013-.015.02v0a.029.029,0,0,1,.012.015.131.131,0,0,1,.036.021.3.3,0,0,1,.159.066.6.6,0,0,1,.137.041h.028a.287.287,0,0,1,.227.052.313.313,0,0,1,.074.021.163.163,0,0,0,.053.012.3.3,0,0,1,.087.023.139.139,0,0,1,.081.04c.014.017.01.031-.007.038s-.03.022-.061.011-.044-.013-.065-.028a.317.317,0,0,1-.083-.045.125.125,0,0,0-.042-.02.039.039,0,0,0-.026,0v.006a.04.04,0,0,1,.014.026.193.193,0,0,1,0,.034.04.04,0,0,0,.022.03.083.083,0,0,0,.034.013.01.01,0,0,1,.009.01h0a.273.273,0,0,0,.015.056s0,.007.011.012.009.029-.008.033a.1.1,0,0,1-.045.026.016.016,0,0,1-.022-.007.016.016,0,0,1-.015-.008c-.016-.011,0-.031.035-.023l.007,0a.047.047,0,0,1,0-.031l-.011-.006a.1.1,0,0,1-.037-.02.356.356,0,0,0-.077-.048A.159.159,0,0,1,12.8,4.4h-.025a.016.016,0,0,0-.018.006c-.007.009-.016.007-.026.006h-.035l-.018,0a.054.054,0,0,0-.035.006.017.017,0,0,1-.022,0l-.011-.008a.024.024,0,0,1-.017-.007c-.016,0-.02-.008-.019-.013-.021,0-.011-.021,0-.021a.222.222,0,0,1,.045,0,.044.044,0,0,0,.04-.008.129.129,0,0,1,.017-.016.124.124,0,0,1-.06-.015c-.039-.025-.07-.03-.094-.01a.022.022,0,0,1-.019,0,.034.034,0,0,0-.02,0,.073.073,0,0,1-.041,0,.144.144,0,0,1-.062,0c-.017.009-.03.01-.038,0l-.021-.013c-.011,0-.016,0-.016-.008s-.016-.007-.016-.012a.009.009,0,0,1,0-.016.032.032,0,0,1,.033,0l.017.01a.05.05,0,0,1,.021,0c0-.007.017-.007.031-.006a.054.054,0,0,1,.025-.009v0a.051.051,0,0,1-.028-.024.089.089,0,0,1-.052-.019.051.051,0,0,1-.032-.008.069.069,0,0,1-.025,0,.076.076,0,0,1-.047,0h-.027a.026.026,0,0,1-.033.007.048.048,0,0,0-.027-.017.019.019,0,0,1-.014-.011c-.01-.007-.008-.013,0-.018a.033.033,0,0,1,.033,0l.017,0Z"/>
      <path d="M12.7,4.35s0-.006-.011,0a.166.166,0,0,1-.073-.013.128.128,0,0,0-.068-.025.051.051,0,0,1,.026-.014.111.111,0,0,1,.048,0,.361.361,0,0,1,.065.015.054.054,0,0,1,.033.024l0,0,.017.013.01.011a.1.1,0,0,1-.024,0A.073.073,0,0,1,12.7,4.35Z" fill="#fff"/>
      <path d="M12.761,3.156l0,.008.031.161-.124.108-.006.005.007,0,.156.054.031.161,0,.008.005,0,.124-.108.156.053.007,0,0-.008-.031-.161.124-.108.006-.005-.007,0-.156-.054-.031-.161,0-.007-.005,0-.124.107-.156-.053Z"/>
      <g>
        <path d="M12.685,3.431l.116-.1.145.05Z" fill="#f7db17"/>
        <path d="M12.966,3.377l.116-.1.145.05Z" fill="#f7db17"/>
        <path d="M13.228,3.331l-.116.1-.145-.05Z" fill="#f7db17"/>
        <path d="M12.947,3.386l-.116.1-.145-.05Z" fill="#f7db17"/>
        <path d="M12.778,3.171l.145.05.029.151Z" fill="#f7db17"/>
        <path d="M12.965,3.387l.145.05.029.151Z" fill="#f7db17"/>
        <path d="M13.135,3.591l-.145-.05-.029-.151Z" fill="#f7db17"/>
        <path d="M12.948,3.375l-.145-.05-.029-.15Z" fill="#f7db17"/>
        <path d="M13.049,3.121l.029.151-.116.1Z" fill="#f7db17"/>
        <path d="M12.956,3.391l.029.151-.116.1Z" fill="#f7db17"/>
        <path d="M12.864,3.641l-.029-.151.116-.1Z" fill="#f7db17"/>
        <path d="M12.957,3.371l-.029-.151.116-.1Z" fill="#f7db17"/>
      </g>
    </g>
  </g>
  <g clip-path="url(#clip-path)">
    <circle cx="8.189" cy="5.5" r="10.474" fill="url(#radial-gradient)"/>
  </g>
  <path d="M19,1V15H1V1H18.952M20,0H0V16H20Z" opacity="0.15" style="isolation: isolate"/>
</svg>
