<svg id="Portugal" xmlns="http://www.w3.org/2000/svg" xmlns:xlink="http://www.w3.org/1999/xlink" viewBox="0 0 20 16">
  <defs>
    <linearGradient id="linear-gradient" x1="7.77618" y1="8" x2="20" y2="8" gradientUnits="userSpaceOnUse">
      <stop offset="0" stop-color="#ff5220"/>
      <stop offset="0.58939" stop-color="#ff501f"/>
      <stop offset="1" stop-color="#f73a0a"/>
    </linearGradient>
    <linearGradient id="linear-gradient-2" y1="8" x2="7.79499" y2="8" gradientUnits="userSpaceOnUse">
      <stop offset="0" stop-color="#41b820"/>
      <stop offset="0.5838" stop-color="#48bd24"/>
      <stop offset="1" stop-color="#0ca107"/>
    </linearGradient>
    <linearGradient id="linear-gradient-3" x1="5.69356" y1="8.04148" x2="9.87983" y2="8.04148" gradientUnits="userSpaceOnUse">
      <stop offset="0" stop-color="#f33624"/>
      <stop offset="1" stop-color="#f91a19"/>
    </linearGradient>
    <clipPath id="clip-path">
      <rect width="20" height="16" fill="none"/>
    </clipPath>
    <radialGradient id="radial-gradient" cx="8.18947" cy="5.50048" r="10.47368" gradientUnits="userSpaceOnUse">
      <stop offset="0" stop-color="#fcffff" stop-opacity="0.4"/>
      <stop offset="0.5" stop-color="#fff" stop-opacity="0.15"/>
      <stop offset="1" stop-color="#fff" stop-opacity="0"/>
    </radialGradient>
  </defs>
  <rect x="7.77618" width="12.22382" height="16" fill="url(#linear-gradient)"/>
  <rect width="7.79499" height="16" fill="url(#linear-gradient-2)"/>
  <g>
    <path d="M10.67032,10.28C9.5601,10.24653,4.46911,7.06876,4.4342,6.56271l.28112-.46882c.505.73375,5.7095,3.8242,6.22069,3.71469l-.2657.47124" fill="#ff0" stroke="#000" stroke-linecap="round" stroke-linejoin="round" stroke-width="0.02106" fill-rule="evenodd"/>
    <path d="M4.65617,6.0302c-.0996.268,1.32848,1.15094,3.04669,2.196a11.75829,11.75829,0,0,0,3.30946,1.59811.96209.96209,0,0,0,.04968-.09273c-.02058.031-.07068.04081-.14886.01828A17.27561,17.27561,0,0,1,7.73889,8.151,14.31444,14.31444,0,0,1,4.73233,6.0477a.21562.21562,0,0,1-.0221-.10469L4.7053,5.94294l-.04317.07545-.00593.01183h0Zm6.04024,4.26447c-.01883.03416-.05393.0353-.12059.028A13.33383,13.33383,0,0,1,7.40935,8.77131C5.67438,7.73276,4.2415,6.78645,4.397,6.53912l.04229-.07477.00833.00259c-.13978.41913,2.82785,2.116,3.00256,2.22418,1.71711,1.06381,3.16473,1.685,3.29285,1.52359l-.04661.08015v-.00008Z" fill="#ff0" stroke="#000" stroke-linecap="round" stroke-linejoin="round" stroke-width="0.02106" fill-rule="evenodd"/>
    <path d="M7.80124,6.8692a10.48156,10.48156,0,0,0,3.27161-.46636l-.17-.27624a9.29094,9.29094,0,0,1-3.111.45331,6.37894,6.37894,0,0,1-3.08322-.50843l-.1605.29416a8.08544,8.08544,0,0,0,3.25312.50359" fill="#ff0" stroke="#000" stroke-linecap="round" stroke-linejoin="round" stroke-width="0.02106" fill-rule="evenodd"/>
    <path d="M11.11867,6.40909a4.77031,4.77031,0,0,1-1.3.3519,13.43933,13.43933,0,0,1-2.0214.14617,14.34255,14.34255,0,0,1-1.93614-.12248A5.64306,5.64306,0,0,1,4.5027,6.42491c.01452-.02888.02386-.04913.03786-.0761a5.88015,5.88015,0,0,0,1.33326.35338A14.17708,14.17708,0,0,0,7.795,6.825a13.49661,13.49661,0,0,0,2.00715-.149,3.26289,3.26289,0,0,0,1.26177-.36171l.05491.09477h-.00012ZM10.96946,6.129a3.93158,3.93158,0,0,1-1.24285.33455,13.374,13.374,0,0,1-1.92075.13467,12.94283,12.94283,0,0,1-1.85533-.1194,5.1178,5.1178,0,0,1-1.29345-.32625c.01432-.02477.02891-.04933.04388-.074a4.41639,4.41639,0,0,0,1.25781.32055A13.28273,13.28273,0,0,0,7.8059,6.514a13.20562,13.20562,0,0,0,1.90671-.13555,3.32124,3.32124,0,0,0,1.20275-.3396l.05413.09007V6.129Z" fill="#ff0" stroke="#000" stroke-linecap="round" stroke-linejoin="round" stroke-width="0.02106" fill-rule="evenodd"/>
    <path d="M4.15233,8.208a9.58887,9.58887,0,0,0,3.638.56561,10.36672,10.36672,0,0,0,3.64918-.53985L11.422,7.86583c-.19935.31154-2.0254.61038-3.64582.59814a8.92135,8.92135,0,0,1-3.62676-.58649l.00292.33043" fill="#ff0" stroke="#000" stroke-linecap="round" stroke-linejoin="round" stroke-width="0.02106" fill-rule="evenodd"/>
    <path d="M11.47441,8.15509l0,.08773a4.005,4.005,0,0,1-1.44932.40947,14.956,14.956,0,0,1-2.25138.15415A14.12968,14.12968,0,0,1,5.6368,8.65939,5.33164,5.33164,0,0,1,4.108,8.24716l.00049-.10235a5.44346,5.44346,0,0,0,1.54045.43357,14.05,14.05,0,0,0,2.12478.146,14.88272,14.88272,0,0,0,2.23922-.15311,4.65231,4.65231,0,0,0,1.46144-.41616h0Zm.00037-.31209,0,.08773a4.00679,4.00679,0,0,1-1.44931.4094,14.956,14.956,0,0,1-2.25138.15415,14.1205,14.1205,0,0,1-2.13695-.14705A5.32934,5.32934,0,0,1,4.10837,7.935l.00048-.10236a5.4413,5.4413,0,0,0,1.54046.4335,14.03909,14.03909,0,0,0,2.12478.14611,14.87013,14.87013,0,0,0,2.23922-.15321,4.65235,4.65235,0,0,0,1.46144-.41615l0,.00007Z" fill="#ff0" stroke="#000" stroke-linecap="round" stroke-linejoin="round" stroke-width="0.02106" fill-rule="evenodd"/>
    <path d="M7.78728,10.21676A12.52807,12.52807,0,0,1,4.58414,9.719l.20739.32466a8.6025,8.6025,0,0,0,3.01083.49139,7.70118,7.70118,0,0,0,2.97411-.48551l.21264-.33646a11.32456,11.32456,0,0,1-3.20185.50366" fill="#ff0" stroke="#000" stroke-linecap="round" stroke-linejoin="round" stroke-width="0.02106" fill-rule="evenodd"/>
    <path d="M10.85628,9.97421c-.03125.04774-.06311.0949-.09542.14073a8.36645,8.36645,0,0,1-1.12444.28827,10.18225,10.18225,0,0,1-1.84757.16915,8.86081,8.86081,0,0,1-3.06849-.52548l-.04327-.07439.00707-.01118.07337.02846a9.86979,9.86979,0,0,0,3.03916.50171,10.36045,10.36045,0,0,0,1.81149-.16718A5.30634,5.30634,0,0,0,10.831,9.98838l.02525-.01416h0Zm.18438-.30412.0024.00285c-.02337.03945-.04745.07958-.07211.11989a7.82026,7.82026,0,0,1-1.42072.31566,11.22669,11.22669,0,0,1-1.74486.14825,11.9657,11.9657,0,0,1-3.24463-.48492l-.04106-.07876a13.68531,13.68531,0,0,0,3.28575.4822,12.15,12.15,0,0,0,1.73284-.14883A8.95422,8.95422,0,0,0,10.9537,9.712L10.948,9.70468,11.04075,9.67l-.00007.00007Z" fill="#ff0" stroke="#000" stroke-linecap="round" stroke-linejoin="round" stroke-width="0.02021" fill-rule="evenodd"/>
    <path d="M11.0595,7.91768a3.508,3.508,0,0,1-.95028,2.37129,3.42041,3.42041,0,0,1-2.33617.96884,3.46366,3.46366,0,0,1-2.28934-.95913A3.48423,3.48423,0,0,1,4.535,7.9745,3.28932,3.28932,0,0,1,5.68411,5.52074a3.43319,3.43319,0,0,1,2.20945-.78285,3.38351,3.38351,0,0,1,2.44465,1.22495,3.41548,3.41548,0,0,1,.7213,1.95484ZM7.78191,4.37711A3.62736,3.62736,0,1,1,4.14644,8.00445,3.65015,3.65015,0,0,1,7.78191,4.37711" fill="#ff0" stroke="#000" stroke-linecap="round" stroke-linejoin="round" stroke-width="0.02106" fill-rule="evenodd"/>
    <path d="M7.79169,4.36469A3.639,3.639,0,1,1,4.153,8.00375,3.64588,3.64588,0,0,1,7.79169,4.36469ZM4.2331,8.00376a3.55861,3.55861,0,1,0,3.55859-3.559,3.57315,3.57315,0,0,0-3.55859,3.559Z" fill="#ff0" stroke="#000" stroke-linecap="round" stroke-linejoin="round" stroke-width="0.02106" fill-rule="evenodd"/>
    <path d="M7.79463,4.66714a3.33336,3.33336,0,1,1-3.333,3.33337,3.34664,3.34664,0,0,1,3.333-3.33337ZM4.54169,8.00049A3.25294,3.25294,0,1,0,7.79463,4.7472,3.26624,3.26624,0,0,0,4.54169,8.00049Z" fill="#ff0" stroke="#000" stroke-linecap="round" stroke-linejoin="round" stroke-width="0.02106" fill-rule="evenodd"/>
    <path d="M7.94126,4.35H7.62942l.00037,7.31178H7.9427Z" fill="#ff0" stroke="#000" stroke-linecap="round" stroke-linejoin="round" stroke-width="0.02106" fill-rule="evenodd"/>
    <path d="M7.91,4.30832H7.9894l.00068,7.39593H7.91064L7.91005,4.30832Zm-.30948.00006h.08l.00011,7.39594h-.08V4.30838Z" fill="#ff0" stroke="#000" stroke-linecap="round" stroke-linejoin="round" stroke-width="0.02106" fill-rule="evenodd"/>
    <path d="M11.43289,8.14461V7.8743l-.22014-.20507-1.2495-.33075L8.1625,7.15473,5.99424,7.265l-1.5435.3675-.31164.23079v.27038l.78939-.35416,1.87425-.294H8.6035l1.323.147.91875.2205Z" fill="#ff0" stroke="#000" stroke-linecap="round" stroke-linejoin="round" stroke-width="0.02106" fill-rule="evenodd"/>
    <path d="M7.79316,7.4403a12.61418,12.61418,0,0,1,2.35439.21019,2.73746,2.73746,0,0,1,1.32686.49873l-.00018.0949a2.91334,2.91334,0,0,0-1.342-.51332,12.54287,12.54287,0,0,0-2.339-.20851A13.01612,13.01612,0,0,0,5.405,7.73556c-.51891.103-1.21095.30752-1.29735.50928V8.146c.04745-.13966.56275-.34836,1.28566-.49307a13.07338,13.07338,0,0,1,2.39986-.21266Zm.00036-.31209a12.6227,12.6227,0,0,1,2.3544.21019,2.73818,2.73818,0,0,1,1.32686.49873l-.00018.0949a2.91373,2.91373,0,0,0-1.342-.51325,12.53285,12.53285,0,0,0-2.339-.2085,12.97077,12.97077,0,0,0-2.38416.2132c-.50076.09493-1.22106.30758-1.30139.50935V7.834a2.41171,2.41171,0,0,1,1.2857-.49308,13.0795,13.0795,0,0,1,2.39985-.21265Z" fill="#ff0" stroke="#000" stroke-linecap="round" stroke-linejoin="round" stroke-width="0.02106" fill-rule="evenodd"/>
    <path d="M7.77588,5.53628a7.828,7.828,0,0,1,3.0758.46617l.19712.341a7.90461,7.90461,0,0,0-3.27094-.477,8.27483,8.27483,0,0,0-3.24047.49282l.23532-.39356a8.2663,8.2663,0,0,1,3.00322-.42939" fill="#ff0" stroke="#000" stroke-linecap="round" stroke-linejoin="round" stroke-width="0.02106" fill-rule="evenodd"/>
    <path d="M7.79389,5.81778a12.28879,12.28879,0,0,1,2.11225.14861,3.85094,3.85094,0,0,1,1.15528.34032l.05843.10326a4.233,4.233,0,0,0-1.22521-.364,11.84809,11.84809,0,0,0-2.1021-.14517,12.18488,12.18488,0,0,0-2.13037.14439,3.75829,3.75829,0,0,0-1.14649.35744l.05727-.10916a3.82138,3.82138,0,0,1,1.07394-.32817,12.5114,12.5114,0,0,1,2.14705-.14747h0ZM7.79356,5.506a11.99561,11.99561,0,0,1,2.03787.14151,3.30342,3.30342,0,0,1,1.05487.345l.08547.13581a2.79032,2.79032,0,0,0-1.175-.40029A12.9788,12.9788,0,0,0,7.79355,5.586a12.18621,12.18621,0,0,0-2.04889.151,3.33629,3.33629,0,0,0-1.01809.31393l.07516-.11344a3.63979,3.63979,0,0,1,.92988-.281,12.27439,12.27439,0,0,1,2.062-.15048Z" fill="#ff0" stroke="#000" stroke-linecap="round" stroke-linejoin="round" stroke-width="0.02106" fill-rule="evenodd"/>
    <path d="M9.60126,9.5163a9.49843,9.49843,0,0,0-1.80873-.13761c-2.25671.02644-2.98572.46338-3.07469.59568l-.16866-.275a6.05406,6.05406,0,0,1,3.25558-.62611,11.47483,11.47483,0,0,1,1.95212.16845l-.15566.27462" fill="#ff0" stroke="#000" stroke-linecap="round" stroke-linejoin="round" stroke-width="0.02106" fill-rule="evenodd"/>
    <path d="M7.77956,9.33991a10.9393,10.9393,0,0,1,1.83872.1462l-.04307.076a9.59608,9.59608,0,0,0-1.79352-.13782,8.67089,8.67089,0,0,0-2.40864.28176c-.2314.0644-.61449.21317-.65356.33611l-.04285-.07066c.01235-.07266.24389-.22348.67672-.34509a8.73594,8.73594,0,0,1,2.4262-.28661v.00008ZM7.80805,9.024A11.26517,11.26517,0,0,1,9.783,9.19554l-.04486.07915a10.29932,10.29932,0,0,0-1.92626-.16795,9.24449,9.24449,0,0,0-2.52759.29536c-.26016.07578-.70917.23962-.72413.36934l-.04284-.0759c.00975-.11782.39844-.27151.74815-.37324A9.28337,9.28337,0,0,1,7.80807,9.024Z" fill="#ff0" stroke="#000" stroke-linecap="round" stroke-linejoin="round" stroke-width="0.02021" fill-rule="evenodd"/>
    <path d="M11.01357,9.74122l-.27118.42075L9.96325,9.47,7.942,8.11025l-2.2785-1.2495-1.183-.40462.25211-.46746L4.81824,5.942l.735.18375,2.4255,1.2495,1.39651.882,1.176.84525.47775.55125Z" fill="#ff0" stroke="#000" stroke-linecap="round" stroke-linejoin="round" stroke-width="0.02106" fill-rule="evenodd"/>
    <path d="M4.43787,6.46716c.20749-.14073,1.73237.53857,3.32791,1.50065,1.59131.96483,3.11189,2.05509,2.97462,2.25913l-.04514.071-.02071.01634c.00444-.00318.02732-.03115-.00224-.1068A11.43333,11.43333,0,0,0,7.7362,8.0431C5.99149,7.00274,4.53743,6.37572,4.39205,6.55494l.04583-.0878h0Zm6.63119,3.26806c.1312-.25916-1.28317-1.32461-3.03673-2.362C6.23844,6.3565,4.94554,5.758,4.70938,5.93649L4.65691,6.032c-.00045.00525.00191-.00651.013-.01507a.23106.23106,0,0,1,.14623-.03552,11.30227,11.30227,0,0,1,3.19748,1.4747c.714.41583,3.01612,1.8923,3.00734,2.3075.00061.03568.003.043-.01047.06071l.05856-.08907v0Z" fill="#ff0" stroke="#000" stroke-linecap="round" stroke-linejoin="round" stroke-width="0.02106" fill-rule="evenodd"/>
  </g>
  <g>
    <path d="M5.612,8.40462a2.1983,2.1983,0,0,0,2.178,2.18A2.18542,2.18542,0,0,0,9.9753,8.40653H9.97523V5.49633L5.61152,5.49115,5.612,8.40461H5.612Z" fill="#fff" stroke="#000" stroke-width="0.02464"/>
    <path d="M5.69362,8.40866v.00165a2.07232,2.07232,0,0,0,.61649,1.47033,2.08932,2.08932,0,0,0,2.956.00316,2.07227,2.07227,0,0,0,.61369-1.47161H9.87975V5.58883L5.69612,5.58815,5.69356,8.40864m3.34507-1.9752.00015,1.79674-.00153.19006h0a1.3722,1.3722,0,0,1-.00885.15558,1.22023,1.22023,0,0,1-.35813.72427,1.24973,1.24973,0,0,1-.88373.36534A1.26321,1.26321,0,0,1,6.54226,8.4142L6.54177,6.42886l2.4968.0045.00008.00007Z" stroke="#000" stroke-width="0.01864" fill="url(#linear-gradient-3)"/>
    <g id="castle3">
      <g id="castle">
        <path d="M5.96447,6.3253a.2553.2553,0,0,1,.15-.25164.25183.25183,0,0,1,.155.25352L5.96448,6.3253" fill="#ff0"/>
        <path d="M5.84026,6.07761l-.02506.23317.15217.00033a.20734.20734,0,0,1,.14954-.22429.22473.22473,0,0,1,.15042.22429h.15255l-.02755-.235-.55206.00139v.00007Z" fill="#ff0" stroke="#000" stroke-width="0.01838"/>
        <path d="M5.805,6.3117h.62276a.02928.02928,0,0,1,0,.05754H5.805a.02928.02928,0,0,1,0-.05754Z" fill="#ff0" stroke="#000" stroke-width="0.01838"/>
        <path d="M6.03136,6.3106a.16058.16058,0,0,1,.08355-.15612.16294.16294,0,0,1,.08677.15612H6.03136" fill="#ff0" stroke="#000" stroke-width="0.01838"/>
        <path d="M5.81821,5.98059h.597a.02609.02609,0,0,1,0,.05179h-.597a.02609.02609,0,0,1,0-.05179Z" fill="#ff0" stroke="#000" stroke-width="0.01838"/>
        <path d="M5.8307,6.03277h.571a.02625.02625,0,0,1,0,.05176h-.571a.02625.02625,0,0,1,0-.05176Z" fill="#ff0" stroke="#000" stroke-width="0.01838"/>
        <path d="M6.01519,5.64359l.04508.00007v.032h.0329V5.643l.04618.00015v.0326h.033V5.643h.04622l-.00007.07393a.0192.0192,0,0,1-.02016.01912H6.03621a.02072.02072,0,0,1-.021-.01935l-.00011-.073h0Z" fill="#ff0" stroke="#000" stroke-width="0.01838"/>
        <path d="M6.185,5.74245l.01018.23709L6.037,5.979l.01047-.23712.13748.00062" fill="#ff0" stroke="#000" stroke-width="0.01838"/>
        <path id="cp1" d="M5.992,5.85233l.00482.1278-.15161.00007.00428-.12786H5.992Z" fill="#ff0" stroke="#000" stroke-width="0.01838"/>
        <path id="cp1-2" data-name="cp1" d="M6.38192,5.85233l.00483.1278-.15162.00007.00428-.12786h.14251Z" fill="#ff0" stroke="#000" stroke-width="0.01838"/>
        <path id="cp2" d="M5.82151,5.75972l.04408.00011v.032h.03225v-.0328l.04518.00015V5.7919h.03231V5.7591l.04521.00008-.00007.07393a.019.019,0,0,1-.0197.01905H5.84212a.02045.02045,0,0,1-.02055-.01931l-.00011-.07309h0Z" fill="#ff0" stroke="#000" stroke-width="0.01838"/>
        <path id="cp2-2" data-name="cp2" d="M6.2114,5.75972l.04407.00011v.032h.03225v-.0328l.04518.00015V5.7919h.03232V5.7591l.04521.00008-.00008.07393a.019.019,0,0,1-.0197.01905H6.232a.02046.02046,0,0,1-.02055-.01931l-.00011-.07309h0Z" fill="#ff0" stroke="#000" stroke-width="0.01838"/>
        <path d="M6.10082,5.81742a.016.016,0,1,1,.03182,0v.05646H6.10082V5.81743"/>
        <path id="cp3" d="M5.90494,5.89937a.01527.01527,0,1,1,.03037,0V5.943H5.905V5.89937"/>
        <path id="cp3-2" data-name="cp3" d="M6.296,5.89937a.01526.01526,0,1,1,.03036,0V5.943H6.296V5.89937"/>
      </g>
      <g id="castle-2" data-name="castle">
        <path d="M5.96447,8.02755a.25531.25531,0,0,1,.15-.25164.25184.25184,0,0,1,.155.25353l-.30494-.00188" fill="#ff0"/>
        <path d="M5.84026,7.77986,5.8152,8.013l.15217.00033a.20736.20736,0,0,1,.14954-.22429.22474.22474,0,0,1,.15042.22429h.15255l-.02755-.235-.55206.00139v.00007Z" fill="#ff0" stroke="#000" stroke-width="0.01838"/>
        <path d="M5.805,8.014h.62276a.02927.02927,0,0,1,0,.05753H5.805a.02927.02927,0,0,1,0-.05753Z" fill="#ff0" stroke="#000" stroke-width="0.01838"/>
        <path d="M6.03136,8.01286a.1606.1606,0,0,1,.08355-.15613.16294.16294,0,0,1,.08677.15613H6.03136" fill="#ff0" stroke="#000" stroke-width="0.01838"/>
        <path d="M5.81821,7.68284h.597a.02609.02609,0,0,1,0,.05179h-.597a.02609.02609,0,0,1,0-.05179Z" fill="#ff0" stroke="#000" stroke-width="0.01838"/>
        <path d="M5.8307,7.735h.571a.02625.02625,0,0,1,0,.05176h-.571a.02625.02625,0,0,1,0-.05176Z" fill="#ff0" stroke="#000" stroke-width="0.01838"/>
        <path d="M6.01519,7.34584l.04508.00008v.032h.0329V7.3452l.04618.00015V7.378h.033V7.34522h.04622l-.00007.07393a.0192.0192,0,0,1-.02016.01912H6.03621a.02072.02072,0,0,1-.021-.01935l-.00011-.07305h0Z" fill="#ff0" stroke="#000" stroke-width="0.01838"/>
        <path d="M6.185,7.4447l.01018.23709L6.037,7.68121l.01047-.23713L6.185,7.4447" fill="#ff0" stroke="#000" stroke-width="0.01838"/>
        <path id="cp1-3" data-name="cp1" d="M5.992,7.55458l.00482.1278-.15161.00007.00428-.12786H5.992Z" fill="#ff0" stroke="#000" stroke-width="0.01838"/>
        <path id="cp1-4" data-name="cp1" d="M6.38192,7.55458l.00483.1278-.15162.00007.00428-.12786h.14251Z" fill="#ff0" stroke="#000" stroke-width="0.01838"/>
        <path id="cp2-3" data-name="cp2" d="M5.82151,7.462l.04408.00011v.03206h.03225v-.0328l.04518.00014v.03268h.03231V7.46135l.04521.00008-.00007.07393a.019.019,0,0,1-.0197.01906H5.84212a.02046.02046,0,0,1-.02055-.01932L5.82146,7.462h0Z" fill="#ff0" stroke="#000" stroke-width="0.01838"/>
        <path id="cp2-4" data-name="cp2" d="M6.2114,7.462l.04407.00011v.03206h.03225v-.0328l.04518.00014v.03268h.03232V7.46135l.04521.00008-.00008.07393a.019.019,0,0,1-.0197.01906H6.232a.02047.02047,0,0,1-.02055-.01932L6.21134,7.462h0Z" fill="#ff0" stroke="#000" stroke-width="0.01838"/>
        <path d="M6.10082,7.51967a.016.016,0,1,1,.03182,0v.05646H6.10082V7.51969"/>
        <path id="cp3-3" data-name="cp3" d="M5.90494,7.60162a.01527.01527,0,1,1,.03037,0v.04363H5.905V7.60163"/>
        <path id="cp3-4" data-name="cp3" d="M6.296,7.60162a.01526.01526,0,1,1,.03036,0v.04363H6.296V7.60163"/>
      </g>
      <g id="castle-3" data-name="castle">
        <path d="M6.62822,9.79942a.25527.25527,0,0,1-.0729-.28373.25185.25185,0,0,1,.2891.06866l-.2162.21506" fill="#ff0"/>
        <path d="M6.36493,9.713l.1478.18207.10745-.10774a.20735.20735,0,0,1-.05378-.26415.22473.22473,0,0,1,.26514.0513L6.939,9.46626l-.18614-.146-.388.39272.00005,0Z" fill="#ff0" stroke="#000" stroke-width="0.01838"/>
        <path d="M6.50619,9.903,6.945,9.4611a.02928.02928,0,0,1,.04083.04054L6.547,9.94355A.02927.02927,0,0,1,6.50619,9.903Z" fill="#ff0" stroke="#000" stroke-width="0.01838"/>
        <path d="M6.66491,9.7416A.16062.16062,0,0,1,6.613,9.5723a.163.163,0,0,1,.17192.04844l-.12.12085" fill="#ff0" stroke="#000" stroke-width="0.01838"/>
        <path d="M6.28055,9.66032l.42065-.42364a.0261.0261,0,0,1,.03675.0365l-.42065.42363a.02609.02609,0,0,1-.03675-.03649Z" fill="#ff0" stroke="#000" stroke-width="0.01838"/>
        <path d="M6.32638,9.68822l.40235-.4052a.02625.02625,0,0,1,.03673.03648l-.40235.40519a.02625.02625,0,0,1-.03673-.03647Z" fill="#ff0" stroke="#000" stroke-width="0.01838"/>
        <path d="M6.18021,9.28309,6.212,9.25115l.02272.02256.02318-.02334L6.2347,9.2273l.03264-.03266.02314.023.02325-.02341L6.2905,9.17113l.03256-.03279.05241.05214a.01919.01919,0,0,1-.00063.02778l-.11423.115a.02072.02072,0,0,1-.0285.00124l-.05192-.05139,0,0Z" fill="#ff0" stroke="#000" stroke-width="0.01838"/>
        <path d="M6.37,9.23227l.17541.15983-.11183.11179-.16089-.1745L6.37,9.23227" fill="#ff0" stroke="#000" stroke-width="0.01838"/>
        <path id="cp1-5" data-name="cp1" d="M6.312,9.4466l.09408.08662-.10677.10764-.08772-.09313L6.312,9.44658l0,0Z" fill="#ff0" stroke="#000" stroke-width="0.01838"/>
        <path id="cp1-6" data-name="cp1" d="M6.58673,9.16994l.09409.08662L6.574,9.3642l-.08772-.09313.10044-.10115,0,0Z" fill="#ff0" stroke="#000" stroke-width="0.01838"/>
        <path id="cp2-5" data-name="cp2" d="M6.12615,9.50234l.03114-.0312L6.18,9.49373l.02273-.02288-.02328-.02312.03194-.032.02318.023.02277-.02293-.02328-.02311.03191-.032.05241.05214a.019.019,0,0,1-.00036.02741l-.11178.11258a.02047.02047,0,0,1-.02819.001l-.05194-.05142,0,0Z" fill="#ff0" stroke="#000" stroke-width="0.01838"/>
        <path id="cp2-6" data-name="cp2" d="M6.40086,9.22569l.03114-.0312.02275.02258.02272-.02288-.02328-.02311.03194-.032.02319.023.02276-.02293L6.50881,9.1161l.03191-.032.05241.05215a.019.019,0,0,1-.00037.02741L6.481,9.2762a.02047.02047,0,0,1-.02819.001l-.05194-.05142,0,0Z" fill="#ff0" stroke="#000" stroke-width="0.01838"/>
        <path d="M6.36389,9.34481a.016.016,0,1,1,.02243-.02259l.04006.03979L6.404,9.38459,6.3639,9.34482"/>
        <path id="cp3-5" data-name="cp3" d="M6.284,9.54155A.01527.01527,0,1,1,6.30542,9.52l.031.03074L6.315,9.57228,6.284,9.54154"/>
        <path id="cp3-6" data-name="cp3" d="M6.55957,9.264A.01527.01527,0,1,1,6.581,9.2425l.03095.03074-.02138.02154-.031-.03073"/>
      </g>
    </g>
    <g id="castle-4" data-name="castle">
      <path d="M7.64446,6.3253a.25528.25528,0,0,1,.15-.25164.25183.25183,0,0,1,.155.25352l-.305-.00188" fill="#ff0"/>
      <path d="M7.52024,6.07761l-.02505.23317.15217.00033a.20734.20734,0,0,1,.14954-.22429.22473.22473,0,0,1,.15041.22429h.15255l-.02754-.235-.55206.00139v.00007Z" fill="#ff0" stroke="#000" stroke-width="0.01838"/>
      <path d="M7.485,6.3117h.62277a.02928.02928,0,0,1,0,.05754H7.485a.02928.02928,0,0,1,0-.05754Z" fill="#ff0" stroke="#000" stroke-width="0.01838"/>
      <path d="M7.71134,6.3106a.16058.16058,0,0,1,.08356-.15612.16294.16294,0,0,1,.08676.15612H7.71135" fill="#ff0" stroke="#000" stroke-width="0.01838"/>
      <path d="M7.49819,5.98059h.597a.02609.02609,0,0,1,0,.05179h-.597a.02609.02609,0,0,1,0-.05179Z" fill="#ff0" stroke="#000" stroke-width="0.01838"/>
      <path d="M7.51069,6.03277h.571a.02625.02625,0,0,1,0,.05176h-.571a.02625.02625,0,0,1,0-.05176Z" fill="#ff0" stroke="#000" stroke-width="0.01838"/>
      <path d="M7.69517,5.64359l.04509.00007v.032h.03289V5.643l.04619.00015v.0326h.033V5.643h.04622l-.00008.07393a.01919.01919,0,0,1-.02016.01912H7.7162a.02072.02072,0,0,1-.021-.01935l-.00011-.073h0Z" fill="#ff0" stroke="#000" stroke-width="0.01838"/>
      <path d="M7.865,5.74245l.01018.23709L7.717,5.979l.01047-.23712.13748.00062" fill="#ff0" stroke="#000" stroke-width="0.01838"/>
      <path id="cp1-7" data-name="cp1" d="M7.672,5.85233l.00483.1278-.15162.00007.00428-.12786H7.672Z" fill="#ff0" stroke="#000" stroke-width="0.01838"/>
      <path id="cp1-8" data-name="cp1" d="M8.0619,5.85233l.00483.1278-.15161.00007.00427-.12786H8.0619Z" fill="#ff0" stroke="#000" stroke-width="0.01838"/>
      <path id="cp2-7" data-name="cp2" d="M7.5015,5.75972l.04408.00011v.032h.03225v-.0328l.04518.00015V5.7919h.03231V5.7591l.04521.00008-.00007.07393a.019.019,0,0,1-.01971.01905H7.52211a.02045.02045,0,0,1-.02055-.01931l-.00011-.07309h0Z" fill="#ff0" stroke="#000" stroke-width="0.01838"/>
      <path id="cp2-8" data-name="cp2" d="M7.89138,5.75972l.04408.00011v.032h.03225v-.0328l.04518.00015V5.7919H8.0452V5.7591l.04521.00008-.00007.07393a.019.019,0,0,1-.01971.01905H7.912a.02045.02045,0,0,1-.02055-.01931l-.00011-.07309h0Z" fill="#ff0" stroke="#000" stroke-width="0.01838"/>
      <path d="M7.7808,5.81742a.016.016,0,1,1,.03183,0v.05646H7.7808V5.81743"/>
      <path id="cp3-7" data-name="cp3" d="M7.58492,5.89937a.01527.01527,0,1,1,.03037,0V5.943H7.58494V5.89937"/>
      <path id="cp3-8" data-name="cp3" d="M7.976,5.89937a.01527.01527,0,1,1,.03037,0V5.943H7.976V5.89937"/>
    </g>
    <g id="castle3-2" data-name="castle3">
      <g id="castle-5" data-name="castle">
        <path d="M9.61787,6.3253a.25528.25528,0,0,0-.15-.25164.25183.25183,0,0,0-.155.25352l.30495-.00188" fill="#ff0"/>
        <path d="M9.74209,6.07761l.02505.23317L9.615,6.31111a.20734.20734,0,0,0-.14954-.22429.22473.22473,0,0,0-.15041.22429H9.16247l.02754-.235.55206.00139v.00007Z" fill="#ff0" stroke="#000" stroke-width="0.01838"/>
        <path d="M9.77737,6.3117H9.1546a.02928.02928,0,0,0,0,.05754h.62277a.02928.02928,0,0,0,0-.05754Z" fill="#ff0" stroke="#000" stroke-width="0.01838"/>
        <path d="M9.551,6.3106a.16058.16058,0,0,0-.08356-.15612.16294.16294,0,0,0-.08676.15612H9.551" fill="#ff0" stroke="#000" stroke-width="0.01838"/>
        <path d="M9.76414,5.98059h-.597a.02609.02609,0,0,0,0,.05179h.597a.02609.02609,0,0,0,0-.05179Z" fill="#ff0" stroke="#000" stroke-width="0.01838"/>
        <path d="M9.75164,6.03277h-.571a.02625.02625,0,0,0,0,.05176h.571a.02625.02625,0,0,0,0-.05176Z" fill="#ff0" stroke="#000" stroke-width="0.01838"/>
        <path d="M9.56716,5.64359l-.04509.00007v.032H9.48918V5.643L9.443,5.6431v.0326H9.41V5.643H9.36378l.00008.07393A.01919.01919,0,0,0,9.384,5.736h.16211a.02072.02072,0,0,0,.021-.01935l.00011-.073h0Z" fill="#ff0" stroke="#000" stroke-width="0.01838"/>
        <path d="M9.39737,5.74245l-.01018.23709L9.54532,5.979l-.01047-.23712-.13748.00062" fill="#ff0" stroke="#000" stroke-width="0.01838"/>
        <path id="cp1-9" data-name="cp1" d="M9.59031,5.85233l-.00483.1278.15162.00007-.00428-.12786H9.59031Z" fill="#ff0" stroke="#000" stroke-width="0.01838"/>
        <path id="cp1-10" data-name="cp1" d="M9.20043,5.85233l-.00483.1278.15161.00007-.00427-.12786H9.20043Z" fill="#ff0" stroke="#000" stroke-width="0.01838"/>
        <path id="cp2-9" data-name="cp2" d="M9.76083,5.75972l-.04408.00011v.032H9.6845v-.0328l-.04518.00015V5.7919H9.607V5.7591l-.04521.00008.00007.07393a.019.019,0,0,0,.01971.01905h.15864a.02045.02045,0,0,0,.02055-.01931l.00011-.07309h0Z" fill="#ff0" stroke="#000" stroke-width="0.01838"/>
        <path id="cp2-10" data-name="cp2" d="M9.371,5.75972l-.04408.00011v.032H9.29462v-.0328l-.04518.00015V5.7919H9.21713V5.7591l-.04521.00008.00007.07393a.019.019,0,0,0,.01971.01905h.15864a.02045.02045,0,0,0,.02055-.01931L9.371,5.75976h0Z" fill="#ff0" stroke="#000" stroke-width="0.01838"/>
        <path d="M9.48153,5.81742a.016.016,0,1,0-.03183,0v.05646h.03183V5.81743"/>
        <path id="cp3-9" data-name="cp3" d="M9.67741,5.89937a.01527.01527,0,1,0-.03037,0V5.943h.03035V5.89937"/>
        <path id="cp3-10" data-name="cp3" d="M9.28635,5.89937a.01527.01527,0,1,0-.03037,0V5.943h.03036V5.89937"/>
      </g>
      <g id="castle-6" data-name="castle">
        <path d="M9.61787,8.02755a.2553.2553,0,0,0-.15-.25164.25184.25184,0,0,0-.155.25353l.30495-.00188" fill="#ff0"/>
        <path d="M9.74209,7.77986l.02505.23317L9.615,8.01336a.20736.20736,0,0,0-.14954-.22429.22474.22474,0,0,0-.15041.22429H9.16247l.02754-.235.55206.00139v.00007Z" fill="#ff0" stroke="#000" stroke-width="0.01838"/>
        <path d="M9.77737,8.014H9.1546a.02927.02927,0,0,0,0,.05753h.62277a.02927.02927,0,0,0,0-.05753Z" fill="#ff0" stroke="#000" stroke-width="0.01838"/>
        <path d="M9.551,8.01286a.1606.1606,0,0,0-.08356-.15613.16294.16294,0,0,0-.08676.15613H9.551" fill="#ff0" stroke="#000" stroke-width="0.01838"/>
        <path d="M9.76414,7.68284h-.597a.02609.02609,0,0,0,0,.05179h.597a.02609.02609,0,0,0,0-.05179Z" fill="#ff0" stroke="#000" stroke-width="0.01838"/>
        <path d="M9.75164,7.735h-.571a.02625.02625,0,0,0,0,.05176h.571a.02625.02625,0,0,0,0-.05176Z" fill="#ff0" stroke="#000" stroke-width="0.01838"/>
        <path d="M9.56716,7.34584l-.04509.00008v.032H9.48918V7.3452L9.443,7.34535V7.378H9.41V7.34522H9.36378l.00008.07393a.01919.01919,0,0,0,.02016.01912h.16211a.02072.02072,0,0,0,.021-.01935l.00011-.07305h0Z" fill="#ff0" stroke="#000" stroke-width="0.01838"/>
        <path d="M9.39737,7.4447l-.01018.23709.15813-.00058-.01047-.23713-.13748.00062" fill="#ff0" stroke="#000" stroke-width="0.01838"/>
        <path id="cp1-11" data-name="cp1" d="M9.59031,7.55458l-.00483.1278.15162.00007-.00428-.12786H9.59031Z" fill="#ff0" stroke="#000" stroke-width="0.01838"/>
        <path id="cp1-12" data-name="cp1" d="M9.20043,7.55458l-.00483.1278.15161.00007-.00427-.12786H9.20043Z" fill="#ff0" stroke="#000" stroke-width="0.01838"/>
        <path id="cp2-11" data-name="cp2" d="M9.76083,7.462l-.04408.00011v.03206H9.6845v-.0328l-.04518.00014v.03268H9.607V7.46135l-.04521.00008.00007.07393a.019.019,0,0,0,.01971.01906h.15864a.02046.02046,0,0,0,.02055-.01932L9.76088,7.462h0Z" fill="#ff0" stroke="#000" stroke-width="0.01838"/>
        <path id="cp2-12" data-name="cp2" d="M9.371,7.462l-.04408.00011v.03206H9.29462v-.0328l-.04518.00014v.03268H9.21713V7.46135l-.04521.00008.00007.07393a.019.019,0,0,0,.01971.01906h.15864a.02046.02046,0,0,0,.02055-.01932L9.371,7.462h0Z" fill="#ff0" stroke="#000" stroke-width="0.01838"/>
        <path d="M9.48153,7.51967a.016.016,0,1,0-.03183,0v.05646h.03183V7.51969"/>
        <path id="cp3-11" data-name="cp3" d="M9.67741,7.60162a.01527.01527,0,1,0-.03037,0v.04363h.03035V7.60163"/>
        <path id="cp3-12" data-name="cp3" d="M9.28635,7.60162a.01527.01527,0,1,0-.03037,0v.04363h.03036V7.60163"/>
      </g>
      <g id="castle-7" data-name="castle">
        <path d="M8.95413,9.79942a.25531.25531,0,0,0,.0729-.28373.25187.25187,0,0,0-.28911.06866l.21621.21506" fill="#ff0"/>
        <path d="M9.21741,9.713l-.1478.18207-.10745-.10774A.20736.20736,0,0,0,9.016,9.52321a.22473.22473,0,0,0-.26514.0513l-.10749-.10825.18613-.146.388.39272,0,0Z" fill="#ff0" stroke="#000" stroke-width="0.01838"/>
        <path d="M9.07616,9.903,8.63735,9.4611a.02927.02927,0,0,0-.04082.04054l.43881.44191A.02927.02927,0,0,0,9.07616,9.903Z" fill="#ff0" stroke="#000" stroke-width="0.01838"/>
        <path d="M8.91743,9.7416a.16058.16058,0,0,0,.05191-.1693.163.163,0,0,0-.17192.04844l.12.12085" fill="#ff0" stroke="#000" stroke-width="0.01838"/>
        <path d="M9.3018,9.66032l-.42066-.42364a.0261.0261,0,0,0-.03675.0365l.42065.42363a.0261.0261,0,0,0,.03676-.03649Z" fill="#ff0" stroke="#000" stroke-width="0.01838"/>
        <path d="M9.256,9.68822,8.85361,9.283a.02625.02625,0,0,0-.03673.03648l.40235.40519A.02625.02625,0,0,0,9.256,9.68822Z" fill="#ff0" stroke="#000" stroke-width="0.01838"/>
        <path d="M9.40213,9.28309l-.03181-.03194-.02273.02256-.02317-.02334.02323-.02307L9.315,9.19464l-.02314.023L9.26861,9.1942l.02323-.02307-.03256-.03279-.05241.05214a.0192.0192,0,0,0,.00063.02778l.11423.115a.02073.02073,0,0,0,.02851.00124l.05192-.05139,0,0Z" fill="#ff0" stroke="#000" stroke-width="0.01838"/>
        <path d="M9.21235,9.23227l-.17541.15983.11184.11179.16088-.1745-.09731-.09712" fill="#ff0" stroke="#000" stroke-width="0.01838"/>
        <path id="cp1-13" data-name="cp1" d="M9.27033,9.4466l-.09409.08662.10678.10764.08771-.09313L9.2703,9.44658l0,0Z" fill="#ff0" stroke="#000" stroke-width="0.01838"/>
        <path id="cp1-14" data-name="cp1" d="M8.99561,9.16994l-.09408.08662.10677.10764L9.096,9.27107l-.10043-.10115,0,0Z" fill="#ff0" stroke="#000" stroke-width="0.01838"/>
        <path id="cp2-13" data-name="cp2" d="M9.45619,9.50234l-.03113-.0312-.02275.02259-.02272-.02288.02327-.02312-.03194-.032-.02318.023L9.325,9.41587l.02328-.02311-.03191-.032-.05241.05214a.019.019,0,0,0,.00036.02741l.11179.11258a.02045.02045,0,0,0,.02818.001l.05194-.05142,0,0Z" fill="#ff0" stroke="#000" stroke-width="0.01838"/>
        <path id="cp2-14" data-name="cp2" d="M9.18148,9.22569l-.03114-.0312-.02274.02258-.02273-.02288.02328-.02311-.03194-.032-.02318.023-.02277-.02293.02327-.02311-.0319-.032-.05241.05215a.019.019,0,0,0,.00036.02741l.11178.11257a.02047.02047,0,0,0,.02819.001l.05194-.05142,0,0Z" fill="#ff0" stroke="#000" stroke-width="0.01838"/>
        <path d="M9.21845,9.34481A.016.016,0,1,0,9.196,9.32222L9.156,9.362l.02243.02258.04-.03977"/>
        <path id="cp3-13" data-name="cp3" d="M9.29832,9.54155A.01527.01527,0,1,0,9.27692,9.52l-.031.03074.02139.02154.031-.03074"/>
        <path id="cp3-14" data-name="cp3" d="M9.02277,9.264a.01527.01527,0,1,0-.02139-.02155l-.031.03074.02139.02154.031-.03073"/>
      </g>
    </g>
    <g id="quina">
      <path d="M7.52437,8.08842V8.0886a.30656.30656,0,0,0,.08128.20909.26142.26142,0,0,0,.38973.00045.30648.30648,0,0,0,.08093-.20922V7.6932l-.551-.00045-.001.39565" fill="#415cff"/>
      <circle cx="7.65071" cy="7.84326" r="0.05461" fill="#fff"/>
      <circle cx="7.9564" cy="7.84352" r="0.05461" fill="#fff"/>
      <circle cx="7.80326" cy="7.99026" r="0.05461" fill="#fff"/>
      <circle cx="7.65071" cy="8.14391" r="0.05461" fill="#fff"/>
      <circle cx="7.95607" cy="8.14351" r="0.05461" fill="#fff"/>
    </g>
    <g id="quina-2" data-name="quina">
      <path d="M7.52437,7.13233v.00019a.30654.30654,0,0,0,.08128.20908.26142.26142,0,0,0,.38973.00045.30648.30648,0,0,0,.08093-.20921V6.73711l-.551-.00045-.001.39565" fill="#415cff"/>
      <circle cx="7.65071" cy="6.88717" r="0.05461" fill="#fff"/>
      <circle cx="7.9564" cy="6.88743" r="0.05461" fill="#fff"/>
      <circle cx="7.80326" cy="7.03417" r="0.05461" fill="#fff"/>
      <circle cx="7.65071" cy="7.18782" r="0.05461" fill="#fff"/>
      <circle cx="7.95607" cy="7.18742" r="0.05461" fill="#fff"/>
    </g>
    <g id="quina-3" data-name="quina">
      <path d="M6.76,8.08842V8.0886a.30653.30653,0,0,0,.08129.20909.26142.26142,0,0,0,.38973.00045.30648.30648,0,0,0,.08092-.20922V7.6932l-.551-.00045L6.76,8.0884" fill="#415cff"/>
      <circle cx="6.88635" cy="7.84326" r="0.05461" fill="#fff"/>
      <circle cx="7.19204" cy="7.84352" r="0.05461" fill="#fff"/>
      <circle cx="7.0389" cy="7.99026" r="0.05461" fill="#fff"/>
      <circle cx="6.88635" cy="8.14391" r="0.05461" fill="#fff"/>
      <circle cx="7.1917" cy="8.14351" r="0.05461" fill="#fff"/>
    </g>
    <g id="quina-4" data-name="quina">
      <path d="M8.28675,8.08842V8.0886a.30656.30656,0,0,0,.08128.20909.26142.26142,0,0,0,.38973.00045.30648.30648,0,0,0,.08093-.20922V7.6932l-.551-.00045-.001.39565" fill="#415cff"/>
      <circle cx="8.41309" cy="7.84326" r="0.05461" fill="#fff"/>
      <circle cx="8.71878" cy="7.84352" r="0.05461" fill="#fff"/>
      <circle cx="8.56564" cy="7.99026" r="0.05461" fill="#fff"/>
      <circle cx="8.41309" cy="8.14391" r="0.05461" fill="#fff"/>
      <circle cx="8.71845" cy="8.14351" r="0.05461" fill="#fff"/>
    </g>
    <g id="quina-5" data-name="quina">
      <path d="M7.52437,9.036v.00019a.30654.30654,0,0,0,.08128.20908.26142.26142,0,0,0,.38973.00045.30648.30648,0,0,0,.08093-.20921V8.64076l-.551-.00045-.001.39565" fill="#415cff"/>
      <circle cx="7.65071" cy="8.79082" r="0.05461" fill="#fff"/>
      <circle cx="7.9564" cy="8.79108" r="0.05461" fill="#fff"/>
      <circle cx="7.80326" cy="8.93782" r="0.05461" fill="#fff"/>
      <circle cx="7.65071" cy="9.09148" r="0.05461" fill="#fff"/>
      <circle cx="7.95607" cy="9.09107" r="0.05461" fill="#fff"/>
    </g>
  </g>
  <g opacity="0.5">
    <g clip-path="url(#clip-path)">
      <circle cx="8.18947" cy="5.50048" r="10.47368" fill="url(#radial-gradient)"/>
    </g>
  </g>
  <path d="M19,1V15H1V1Zm1-1H0V16H20Z" opacity="0.15"/>
</svg>
