<svg xmlns="http://www.w3.org/2000/svg" fill-rule="evenodd" stroke-linejoin="round" stroke-miterlimit="2" clip-rule="evenodd" viewBox="0 0 48 48">
  <defs />
  <path fill="none" d="M.5 0h47v48H.5z" />
  <path fill="#3b3b3b" fill-rule="nonzero" d="M36.9 43.76a4.28 4.28 0 01-.55-.1c-.75-.13-1.4-.6-1.75-1.28a3.72 3.72 0 00-.48-.1 13.4 13.4 0 01-1.94.58.12.12 0 01-.13-.07 1.93 1.93 0 00-.21-.31.12.12 0 01-.03-.08c0-.05.04-.1.09-.11.8-.18 1.6-.44 2.35-.76a.12.12 0 00.04-.06c.08-.28.11-.56.09-.85a5 5 0 012.78-4.77l.04-.02a.12.12 0 01.12.02c.03.02.05.07.04.1l-.05.3-.12.75v.07c-.1.73-.25 1.45-.45 2.15a3.33 3.33 0 01-.93 1.53c.9-.54 1.74-1.17 2.5-1.9a.17.17 0 00.04-.1l.02-.5-.01-.08a6.1 6.1 0 011.12-6.05c.1-.14.2-.19.27-.15.03.01.06.05.06.09l.02.17a27.04 27.04 0 01.12 1.07v.03c.07.56.13 1.15.17 1.73a4 4 0 01-.38 2.23c.57-.71 1.08-1.47 1.53-2.25a.34.34 0 00.03-.23 2.04 2.04 0 00-.4-.97 4.79 4.79 0 01-.7-2.07 6.69 6.69 0 01.59-3.81l.04-.08a.12.12 0 01.1-.06c.05 0 .1.02.1.07l.4.96.07.2c.31.74.56 1.5.75 2.28a4 4 0 01.02 1.65c.43-1.02.77-2.07 1.03-3.15 0-.04 0-.08-.02-.11a1.94 1.94 0 00-.64-.87 4.33 4.33 0 01-1.24-1.73 6.6 6.6 0 01-.42-3.96v-.01a.11.11 0 01.07-.07.12.12 0 01.1 0c.03 0 .06.03.08.05l.4.55.03.03 1.05 1.4c.37.5.66 1.05.86 1.64.09.25.15.5.18.76.11-.9.18-1.8.19-2.7a.83.83 0 00-.17-.59c-.13-.18-.3-.31-.51-.39a3.8 3.8 0 01-1.75-1.48c-.62-.9-.99-1.95-1.08-3.04l-.03-.37v-.03l-.01-.2a.12.12 0 01.19-.1l.1.09.1.08.48.38.02.02c.35.27.71.56 1.06.86a4.54 4.54 0 011.47 2.12 23.5 23.5 0 00-.5-3.05c-.04-.13-.05-.16-.1-.18a.23.23 0 01-.1-.07.77.77 0 00-.62-.23 3.08 3.08 0 01-1.78-.73 7.66 7.66 0 01-1.95-3.15.12.12 0 01.17-.1l.71.3c.56.23 1.12.46 1.67.72.5.23.95.59 1.28 1.04a23.7 23.7 0 00-1.01-2.45.67.67 0 00-.55-.17c-.09 0-.18 0-.27.03-.73.16-1.5.05-2.14-.32a4.85 4.85 0 01-2.03-2.09c0-.06.05-.11.11-.11l.29.01c.17.01.33.03.5.03l.17.01c.54.01 1.07.07 1.6.18.51.1.99.35 1.38.7-.4-.65-.82-1.29-1.29-1.9a.27.27 0 00-.11-.05.83.83 0 00-.64.06c-.76.36-1.64.39-2.42.08a3.96 3.96 0 01-1.93-1.47.1.1 0 010-.1c.05-.08.23-.12.3-.14l.61-.1.29-.04h.01c.33-.05.66-.1 1-.11.57-.05 1.13.08 1.62.37a17.73 17.73 0 00-1.29-1.21.17.17 0 00-.08-.03 3.63 3.63 0 01-2.76-1.46 5.54 5.54 0 01-.99-1.98v-.03c-.03-.09-.05-.13.01-.2.06-.05.13-.01.33.06l.59.22c.4.15.8.3 1.2.47.65.27 1.2.73 1.58 1.3.27.4.4.87.35 1.34v.02c.73.64 1.41 1.33 2.03 2.07a6.1 6.1 0 01-.9-2.42 7.76 7.76 0 01.01-2.69l.03-.1c0-.05.05-.08.1-.08.04 0 .07 0 .09.03l.14.13.03.03.32.3c.91.98 1.51 2.2 1.72 3.52.1.5.06 1.02-.1 1.5-.07.14-.14.28-.23.4a3.73 3.73 0 00-.14.24l.07.59.02.02.01.01c.53.74 1.01 1.5 1.45 2.3-.2-.72-.3-1.47-.3-2.23 0-1 .26-1.99.74-2.87a.12.12 0 01.2-.01l.04.06.09.12a9.4 9.4 0 011.1 4.29c.02.54-.1 1.07-.37 1.54-.08.13-.17.25-.27.35l-.15.2a.23.23 0 00-.06.1v.56l.02.06c.31.76.58 1.55.81 2.34a5.82 5.82 0 011.28-4.7l.2-.24a.12.12 0 01.1-.04h.01c.04 0 .08.03.09.07a8.52 8.52 0 01.14.37c.21.71.31 1.45.31 2.19v.01c.06.8-.02 1.62-.23 2.4-.15.51-.43.98-.82 1.34-.2.15-.35.34-.44.56l-.05.15c-.05.23-.04.46.02.69.03.12.05.25.06.37l.12 1.53v.04l.03.39a6.25 6.25 0 012.63-4.6l.05-.03a.12.12 0 01.12 0c.03.02.06.05.06.1l.02.2a9.16 9.16 0 01-.9 4.6c-.17.36-.4.67-.7.92-.25.24-.58.4-.92.45a.1.1 0 00-.03.02l-.06.1c-.07.13-.13.27-.17.41-.03.12-.04.25-.03.38v.14c0 .88-.1 1.75-.26 2.6A5.89 5.89 0 0147.48 25l.24-.08h.01l.12-.04A.12.12 0 0148 25v.02l-.02.24c0 .16-.03.33-.07.49a7.87 7.87 0 01-1.96 3.64c-.33.37-.78.63-1.28.72-.16.02-.33.02-.5 0h-.1c-.02 0-.02 0-.03.02l-.33.45a.2.2 0 000 .04v.01a22.88 22.88 0 01-1.26 3.3c.22-.31.47-.6.74-.86a5.75 5.75 0 013.61-1.24h.05c.06.02.1.08.07.14l-.04.17-.13.38a5.8 5.8 0 01-1.2 1.8c-.4.47-.9.86-1.45 1.14-.55.3-1.2.38-1.81.23a1.06 1.06 0 01-.31-.12c-.07-.04-.09-.04-.16 0a2.53 2.53 0 01-.39.25 3.7 3.7 0 01-.7 1.86 5.07 5.07 0 013.83.3c.02.02.04.05.05.09 0 .03 0 .06-.02.09l-.1.14h-.01a3.7 3.7 0 01-.27.34c-.45.45-.96.81-1.53 1.08-.69.37-1.44.57-2.22.6h-.1a2.06 2.06 0 01-1.63-.68h-.03a4.49 4.49 0 00-.47.07c-.67.6-1.4 1.13-2.17 1.6l.35-.1a4.45 4.45 0 012.55.3c.64.27 1.23.64 1.75 1.1.04.05.05.12.01.17-.18.21-.42.39-.68.5-.6.26-1.25.43-1.9.5-.66.06-.24.02-.57.02l-.66-.03zm-27.03.01a6.05 6.05 0 01-1.9-.5c-.26-.1-.5-.28-.68-.5a.12.12 0 01.01-.16c.52-.46 1.1-.84 1.75-1.1a4.45 4.45 0 012.9-.21 14.51 14.51 0 01-2.23-1.62 4.66 4.66 0 00-.45-.04c-.4.46-1 .71-1.62.68h-.1a5.17 5.17 0 01-2.22-.6 5.53 5.53 0 01-1.53-1.08c-.1-.1-.19-.22-.27-.34l-.11-.15a.12.12 0 01-.03-.07c0-.04.02-.07.06-.1l.37-.17c1.1-.45 2.32-.5 3.45-.13.37.12.73.3 1.04.53a18.33 18.33 0 01-1.74-2.4l-.13-.08-.25-.16c-.07-.05-.09-.06-.16-.01-.1.06-.2.1-.31.12a2.6 2.6 0 01-1.82-.23 4.8 4.8 0 01-1.45-1.14 5.79 5.79 0 01-1.32-2.17l-.05-.18a.11.11 0 01.07-.14h.05c1.31 0 2.6.43 3.62 1.25.27.26.52.54.74.85a22.7 22.7 0 01-1.25-3.3v-.01a.2.2 0 00-.02-.05l-.33-.44c-.01-.02-.01-.02-.03-.02h-.1c-.17.02-.33.01-.5 0-.5-.1-.95-.35-1.28-.72a7.87 7.87 0 01-1.96-3.64 2.63 2.63 0 01-.06-.5L0 25.02c0-.04.02-.08.05-.1a.12.12 0 01.1-.02l.12.03h.02l.24.08a5.88 5.88 0 013.32 3.41c-.16-.85-.25-1.72-.26-2.6v-.14c0-.13 0-.26-.03-.38-.04-.14-.1-.28-.17-.4l-.06-.12-.03-.01c-.34-.06-.67-.21-.92-.45a2.97 2.97 0 01-.7-.91 9.15 9.15 0 01-.9-4.6l.02-.22a.12.12 0 01.18-.09l.05.04.08.05a6.25 6.25 0 012.55 4.54l.04-.39v-.04l.11-1.53c.01-.12.03-.25.06-.37a1.38 1.38 0 00-.02-.85c-.1-.21-.25-.4-.44-.54a2.94 2.94 0 01-.83-1.35 7.43 7.43 0 01-.23-2.4v-.01c0-.74.1-1.48.32-2.18l.08-.24.05-.14a.12.12 0 01.1-.07h.01c.04 0 .07.01.1.04l.18.23a5.83 5.83 0 011.29 4.7 22.83 22.83 0 01.82-2.4v-.1-.45a.23.23 0 00-.05-.11c-.04-.07-.1-.13-.15-.19-.1-.11-.19-.23-.27-.36-.26-.47-.39-1-.37-1.54a9.4 9.4 0 011.1-4.29l.09-.12.04-.06a.11.11 0 01.1-.05c.03 0 .07.03.1.06.48.88.74 1.87.74 2.88.01.75-.09 1.5-.3 2.23.44-.8.92-1.57 1.45-2.3l.01-.02.02-.02c.03-.23.06-.42.07-.6l-.03-.05a4 4 0 00-.1-.17 2.1 2.1 0 01-.23-.4c-.17-.48-.2-1-.11-1.5A6.7 6.7 0 019.45 4.6l.03-.03.14-.13a.12.12 0 01.2.06l.02.09.03.16c.13.84.12 1.7-.03 2.53a6.07 6.07 0 01-.9 2.41 18.54 18.54 0 012.04-2.08c-.05-.48.07-.95.35-1.34.38-.58.93-1.03 1.57-1.3.4-.17.8-.33 1.2-.47l.58-.22c.21-.09.3-.1.34-.06.05.05.04.1.02.2v.03c-.2.72-.53 1.39-.98 1.98a3.64 3.64 0 01-2.77 1.46c-.02 0-.05 0-.08.02-.15.12-.26.2-.36.3-.32.29-.62.6-.93.92a2.75 2.75 0 011.62-.38c.34.02.68.07 1 .12h.02l.28.04.61.1c.08.01.26.05.3.14a.1.1 0 010 .1 3.96 3.96 0 01-1.92 1.47c-.79.3-1.66.28-2.43-.08a.82.82 0 00-.4-.1l-.23.03a.26.26 0 00-.11.05c-.47.6-.9 1.24-1.29 1.9.39-.36.87-.6 1.39-.7.52-.11 1.05-.17 1.59-.18h.17l.5-.04.28-.02c.04 0 .07.02.1.05.02.03.03.08.01.11A4.85 4.85 0 019.4 13.8c-.65.37-1.42.48-2.15.32a1.23 1.23 0 00-.27-.03.67.67 0 00-.54.18c-.39.8-.73 1.6-1.02 2.44.34-.45.78-.8 1.3-1.03a36.56 36.56 0 012.42-1.03c.06 0 .12.06.12.12A7.66 7.66 0 017.3 17.9c-.5.43-1.12.69-1.78.74a.77.77 0 00-.61.23.23.23 0 01-.1.06c-.06.02-.08.06-.1.18-.24 1-.41 2.03-.52 3.05l.11-.32c.3-.7.77-1.32 1.37-1.8.34-.3.7-.58 1.06-.86l.02-.01.48-.38.2-.17a.12.12 0 01.2.09H7.6l-.02.2v.04l-.02.37a6.26 6.26 0 01-1.09 3.04 3.8 3.8 0 01-1.74 1.48c-.2.08-.38.21-.51.39a.83.83 0 00-.17.58c.01.9.07 1.81.19 2.71.03-.26.09-.51.17-.76.2-.59.5-1.14.86-1.63l1.05-1.41.03-.03.4-.55a.15.15 0 01.09-.06.12.12 0 01.1 0c.02.02.05.04.06.08l.01.05a6.6 6.6 0 01-.44 3.9 4.3 4.3 0 01-1.25 1.74c-.29.22-.5.52-.63.86a.22.22 0 00-.02.12c.25 1.07.6 2.13 1.03 3.15-.11-.55-.1-1.11.02-1.66.18-.77.43-1.53.74-2.27l.08-.2.39-.97a.11.11 0 01.1-.07c.04 0 .08.02.1.06l.05.08.05.1c.53 1.16.72 2.45.54 3.72a4.82 4.82 0 01-.7 2.07c-.23.28-.36.61-.4.97-.02.07-.01.15.03.22.45.79.96 1.54 1.52 2.25a3.99 3.99 0 01-.38-2.22 30 30 0 01.17-1.74v-.03l.08-.68.04-.38.02-.18c0-.04.03-.07.07-.1a.1.1 0 01.04 0c.06 0 .14.05.23.16a6.09 6.09 0 011.1 6.14l.03.5c0 .03.02.06.04.09.75.73 1.6 1.37 2.5 1.9a3.34 3.34 0 01-.93-1.52c-.2-.7-.35-1.43-.45-2.16v-.05l-.12-.76-.05-.29a.12.12 0 01.16-.13l.04.02.12.05a5 5 0 012.67 4.72c-.03.29 0 .58.08.85l.04.06c.76.32 1.55.58 2.36.76.05.01.09.06.09.11 0 .03-.01.06-.03.08-.08.1-.16.2-.22.32a.12.12 0 01-.1.06h-.03a13.32 13.32 0 01-1.94-.58 3.72 3.72 0 00-.48.1c-.35.68-.99 1.15-1.74 1.29a4.28 4.28 0 01-1.21.13c-.33 0-.56-.03-.57-.03zm6.02-13V19.5h-1.97v-1.57H33.8v1.57h-2.05v11.28H15.89z" />
</svg>
