<?xml version="1.0" encoding="UTF-8"?>
<svg id="Layer_2" data-name="Layer 2" xmlns="http://www.w3.org/2000/svg" viewBox="0 0 32 32">
  <path id="paper" d="M21,2H8V30H29V10L21,2Zm7,27H9V3h12v7h7V29Z" fill="#aeb1b1"/>
  <rect id="textbox" x="3" y="15" width="23" height="10" rx="1" ry="1" fill="#00a2ed"/>
  <path id="text" d="M7.04536,23h-2.04536v-6h2.04536c.29678,0,.53741,.05,.72991,.13,.32886,.14,.60158,.39,.81012,.76,.16844,.3,.28074,.62,.33688,.97s.07773,.68,.07773,.99c0,.8-.11783,1.47-.36648,2.03-.3449,.75-.87429,1.12-1.58816,1.12Zm.65464-4.47c-.29216-.52-.88434-.53-1.41373-.53h-.28627v4h.28627c.56685,.00282,1.18112-.18,1.41373-.62,.18448-.35,.30802-1.01,.3-1.48-.01604-.49-.00784-.85-.3-1.37Zm4.295,4.47c-.5985,0-1.05336-.22-1.36458-.66-.42294-.54-.63042-1.32-.63042-2.34s.20748-1.82,.63042-2.34c.31122-.44,.76608-.66,1.36458-.66s1.05336,.22,1.36458,.66c.42294,.52,.63042,1.3,.63042,2.34s-.20748,1.8-.63042,2.34c-.31122,.44-.76608,.66-1.36458,.66Zm.86982-1.52c.21546-.35,.3192-.84,.3192-1.48s-.11172-1.13-.32718-1.47c-.21546-.35-.51072-.52-.8778-.52s-.66234,.17-.8778,.52-.32718,.84-.32718,1.48,.11172,1.13,.32718,1.48c.21546,.35,.51072,.52,.8778,.52s.66234-.17,.8778-.52l.00798-.01Zm5.50647,.93c-.33425,.39-.764,.59-1.28129,.59-.64462,0-1.146-.26-1.52004-.79-.36608-.53-.54912-1.26-.54912-2.18,0-1,.20692-1.77,.62871-2.31,.36608-.47,.82767-.71,1.39271-.71,.75604,0,1.30517,.32,1.64738,.95,.191,.36,.29446,.71,.31037,1.07h-.93113c-.06367-.27-.13529-.48-.23079-.62-.16712-.25-.42179-.37-.75604-.37s-.60483,.18-.80379,.53-.29446,.85-.29446,1.49,.10346,1.12,.31037,1.44,.46954,.48,.78788,.48,.58096-.14,.74808-.41c.0955-.15,.17508-.37,.23875-.66h.92317c-.07958,.62-.2865,1.13-.62075,1.52v-.02Zm4.32871,.59l-.7-2-.7,2h-1.3l1.5-3-1.5-3h1.3l.7,2,.7-2,1.3,.01-1.5,2.99,1.5,3h-1.3Z" fill="#fff"/>
</svg>