<?xml version="1.0" encoding="UTF-8"?><svg id="Layer_2" xmlns="http://www.w3.org/2000/svg" viewBox="0 0 32 32"><defs><style>.cls-1{fill:#fff;}.cls-2{fill:#aeb1b1;}.cls-3{fill:#3b3b3b;}</style></defs><g><path class="cls-2" d="M21,2H8V30H29V10L21,2Zm7,27H9V3h12v7h7V29Z"/><polygon class="cls-1" points="21 3 9 3 9 29 28 29 28 10 21 10 21 3"/></g><path class="cls-3" d="M3.91,15H23.09c.5,0,.91,.45,.91,1v8c0,.55-.41,1-.91,1H3.91c-.5,0-.91-.45-.91-1v-8c0-.55,.41-1,.91-1Z"/><path id="_Path_" class="cls-1" d="M6,21.01l.99,.02c.06,.38,.15,.53,.33,.71,.18,.18,.42,.27,.72,.27,.32,0,.97-.15,.97-.8s-.84-.73-1.26-.85c-.53-.16-1.77-.44-1.75-1.74,.02-1.53,1.39-1.61,1.97-1.61,2.02-.01,2.01,1.57,2.02,1.82l-.97,.02c0-1.4-2.06-1.25-2.05-.26-.01,.73,.68,.78,1.14,.94,.5,.17,.88,.21,1.34,.53,.39,.27,.53,.78,.53,1.15,0,1.58-1.54,1.79-1.97,1.79-.62,0-1.1-.17-1.43-.51s-.53-.83-.6-1.48h.02Z"/><path id="_Path_-2" class="cls-1" d="M12.54,23l-1.54-6h.94l1.09,4.44,1.05-4.44h.92l-1.54,6h-.92Z"/><path class="cls-1" d="M19,21v-1h2v2.1c-.16,.28-.41,.49-.7,.63-.44,.19-.92,.29-1.4,.27-.55,.01-1.09-.12-1.57-.38-.44-.24-.79-.64-1-1.09-.23-.48-.34-1.01-.33-1.55,0-.53,.1-1.04,.33-1.52s.6-.89,1.07-1.14c.45-.23,.94-.34,1.44-.33,.59-.03,1.18,.12,1.67,.45,.4,.31,.68,.75,.77,1.25l-1.15,.22c-.07-.27-.23-.51-.45-.67-.24-.17-.54-.26-.83-.25-.45-.02-.89,.16-1.2,.49-.33,.41-.49,.92-.45,1.44-.04,.55,.12,1.11,.45,1.55,.3,.34,.73,.53,1.18,.52,.25,0,.5-.05,.73-.15,.17-.09,.32-.21,.44-.35v-.5h-1Z"/></svg>