<?xml version="1.0" encoding="UTF-8"?><svg id="Layer_2" xmlns="http://www.w3.org/2000/svg" viewBox="0 0 32 32"><defs><style>.cls-1{fill:#fff;}.cls-2{fill:#aeb1b1;}.cls-3{fill:#1d6f42;}</style></defs><g><path class="cls-2" d="M21,2H8V30H29V10L21,2Zm7,27H9V3h12v7h7V29Z"/><polygon class="cls-1" points="21 3 9 3 9 29 28 29 28 10 21 10 21 3"/></g><path class="cls-3" d="M4.05,15.2H25.95c.58,0,1.05,.43,1.05,.96v7.68c0,.53-.47,.96-1.05,.96H4.05c-.58,0-1.05-.43-1.05-.96v-7.68c0-.53,.47-.96,1.05-.96Z"/><path class="cls-1" d="M5,23l1.84-3.13-1.67-2.87h1.27l1.08,1.93,1.06-1.93h1.26l-1.67,2.91,1.84,3.08h-1.31l-1.19-2.07-1.2,2.07h-1.31Z"/><path class="cls-1" d="M11,23v-6h1v5.01h1.99v.99h-2.99Z"/><path class="cls-1" d="M15.02,21.01l.96-.11c.06,.38,.18,.66,.35,.84s.42,.27,.72,.27c.32,0,.56-.08,.72-.24s.24-.35,.24-.56c0-.14-.03-.25-.1-.35s-.19-.18-.36-.25c-.12-.05-.38-.13-.79-.25-.53-.16-.9-.35-1.12-.57-.3-.32-.45-.71-.45-1.17,0-.3,.07-.57,.21-.83s.35-.45,.61-.59,.59-.2,.96-.2c.62,0,1.08,.16,1.39,.48s.47,.74,.49,1.28l-.99,.05c-.04-.3-.13-.51-.27-.64s-.35-.2-.63-.2-.51,.07-.68,.21c-.1,.09-.16,.21-.16,.36,0,.14,.05,.25,.15,.35,.12,.12,.43,.25,.91,.39s.84,.27,1.07,.42c.23,.14,.41,.34,.54,.59s.2,.56,.2,.92c0,.33-.08,.64-.23,.93s-.38,.51-.66,.65-.64,.21-1.07,.21c-.62,0-1.1-.17-1.43-.51s-.53-.83-.6-1.48h.02Z"/><path class="cls-1" d="M20.01,23l1.84-3.13-1.67-2.87h1.27l1.08,1.93,1.06-1.93h1.26l-1.67,2.91,1.84,3.08h-1.31l-1.19-2.07-1.2,2.07h-1.31Z"/></svg>