<svg xmlns="http://www.w3.org/2000/svg" viewBox="0 0 16 16">
  <rect id="box" width="16" height="16" fill="none"></rect>
  <g fill="currentColor">
    <path d="M1.384,9.581A44,44,0,0,0,8,10.086a44,44,0,0,0,6.616-.505,1.063,1.063,0,0,0,.869-1.227h0a1.148,1.148,0,0,0-.027-.116,1.6,1.6,0,0,0-.683-.945c-.069-.045-.076-.223-.079-.34a7.773,7.773,0,0,0-1.148-4A6.184,6.184,0,0,0,11.132.741c-.39-.2-.388-.2-.561.2l-.426,5.467L9.6,6.2S9.578.375,9.6.336A.244.244,0,0,0,9.412.048a.294.294,0,0,0-.042,0A7.414,7.414,0,0,0,8-.086H8A7.413,7.413,0,0,0,6.638.046.243.243,0,0,0,6.4.294V.3a.294.294,0,0,0,0,.042c.022.039,0,5.864,0,5.864l-.55.206L5.429.941c-.173-.4-.171-.4-.561-.2A6.19,6.19,0,0,0,2.452,2.95a7.753,7.753,0,0,0-1.147,4c0,.117-.011.295-.08.34a1.6,1.6,0,0,0-.683.945,1.064,1.064,0,0,0,.726,1.317.925.925,0,0,0,.116.026Z"></path>
    <path d="M8,11.086H8A45.359,45.359,0,0,1,2.185,10.7C2.836,13.741,5.189,16,8,16s5.164-2.259,5.815-5.3A45.108,45.108,0,0,1,8,11.086Z"></path>
  </g>
</svg>
