<?xml version="1.0" encoding="utf-8"?>
<!-- Generator: Adobe Illustrator 25.1.0, SVG Export Plug-In . SVG Version: 6.00 Build 0)  -->
<svg version="1.1" xmlns="http://www.w3.org/2000/svg" xmlns:xlink="http://www.w3.org/1999/xlink" x="0px" y="0px"
	 viewBox="0 0 24 24" style="enable-background:new 0 0 24 24;" xml:space="preserve">
<g id="Layer_2">
	<rect width="7" height="4"/>
	<rect x="8" width="7" height="4"/>
	<rect y="5" width="3" height="4"/>
	<rect x="4" y="5" width="7" height="4"/>
	<polygon points="17.4,5 12,5 12,9 13.4,9 	"/>
	<path d="M18.5,3.9C19.1,3.3,19.9,3,20.7,3s1.6,0.3,2.1,0.9L22.9,4H23V0h-7v4h2.4L18.5,3.9z"/>
	<rect y="10" width="7" height="4"/>
	<polygon points="12.4,10 8,10 8,14 8.4,14 	"/>
	<rect y="15" width="3" height="4"/>
	<path d="M6,15H4v4C4,17.4,4.8,15.9,6,15z"/>
	<path d="M2.4,22.2L0.7,20H0v4h4.4C3.7,23.5,3,22.9,2.4,22.2z"/>
</g>
<g id="Layer_1">
	<path d="M9,16c-1.7,0-3,1.3-3,3c0,1.3-1.2,2-2,2c0.9,1.2,2.5,2,4,2c2.2,0,4-1.8,4-4C12,17.3,10.7,16,9,16z M22.7,6.6l-1.3-1.3
		c-0.4-0.4-1-0.4-1.4,0l-9,9l2.8,2.8l9-9C23.1,7.7,23.1,7,22.7,6.6z"/>
</g>
</svg>
