<svg id="Layer_1" data-name="Layer 1" xmlns="http://www.w3.org/2000/svg" viewBox="0 0 24 24">
  <path d="M0,0H24V24H0Z" fill="none"/>
  <path d="M5,0H1.5A1.498,1.498,0,0,0,0,1.5V5H2V2H5ZM19,0h3.5A1.498,1.498,0,0,1,24,1.5V5H22V2H19ZM5,24H1.5A1.498,1.498,0,0,1,0,22.5V19H2v3H5Zm14,0h3.5A1.498,1.498,0,0,0,24,22.5V19H22v3H19Z"/>
  <path d="M6,7h4V20H6Zm8,0h4V20H14ZM4,5A.94477.94477,0,0,0,3,6V19a.94477.94477,0,0,1,1-1,.94477.94477,0,0,1,1,1V6A.94477.94477,0,0,0,4,5Zm8,0a.94477.94477,0,0,0-1,1V19a1,1,0,0,1,2,0V6A.94477.94477,0,0,0,12,5Zm8,0a.94477.94477,0,0,0-1,1V19a1,1,0,0,1,2,0V6A.94477.94477,0,0,0,20,5Z"/>
</svg>
