<svg xmlns="http://www.w3.org/2000/svg" width="24" height="24" viewBox="0 0 24 24"><defs><style>.a,.b{fill:#007bbd;}.a{opacity:0;}</style></defs><g transform="translate(-93 -61)"><g transform="translate(93 61)"><rect class="a" width="24" height="24"/><path class="b" d="M18.885,5.488a.489.489,0,0,0-.055-.153.5.5,0,0,0-.12-.138,2.5,2.5,0,0,0-.8-.736l-7-4a2.507,2.507,0,0,0-2.5,0l-7,4A2.486,2.486,0,0,0,.623,5.2a.473.473,0,0,0-.174.29A2.49,2.49,0,0,0,.167,6.626v8A2.508,2.508,0,0,0,1.419,16.79l7,4a2.507,2.507,0,0,0,2.5,0l7-4a2.507,2.507,0,0,0,1.25-2.163h0v-8a2.487,2.487,0,0,0-.282-1.139ZM8.917,1.328a1.508,1.508,0,0,1,1.5,0l7,4a1.51,1.51,0,0,1,.193.135L14.172,7.452,6.223,2.867Zm-3.7,2.114L13.173,8.03,9.667,10.058l-7.943-4.6a1.48,1.48,0,0,1,.191-.133Zm-3.3,12.481a1.5,1.5,0,0,1-.75-1.3v-8A1.471,1.471,0,0,1,1.2,6.317l7.964,4.608v9.109a1.478,1.478,0,0,1-.252-.113Zm16.25-1.3a1.5,1.5,0,0,1-.748,1.3l-7,4a1.505,1.505,0,0,1-.25.111V10.924l7.964-4.607a1.485,1.485,0,0,1,.036.308Z" transform="translate(2.5 1.539)"/><path class="b" d="M12.714,12.377a.167.167,0,0,0,.084-.023l2.239-1.3a.167.167,0,1,0-.167-.288l-2.239,1.3a.167.167,0,0,0,.084.311Z" transform="translate(2.5 1.539)"/><path class="b" d="M12.714,13.71a.167.167,0,0,0,.084-.023l2.239-1.3a.167.167,0,1,0-.167-.288L12.63,13.4a.167.167,0,0,0,.084.311Z" transform="translate(2.5 1.539)"/><path class="b" d="M16.5,8.157a.333.333,0,0,0-.333,0l-5,2.9a.333.333,0,0,0-.167.288v5a.333.333,0,0,0,.5.288l5-2.892a.333.333,0,0,0,.167-.288v-5A.333.333,0,0,0,16.5,8.157Zm-.5,5.1-4.333,2.507V11.536L16,9.024Z" transform="translate(2.5 1.539)"/></g></g></svg>