<svg xmlns="http://www.w3.org/2000/svg" width="100%" focusable="false" aria-hidden="true" viewBox="0 0 24 24">
  <path
    d="M22,0H2A2.00588,2.00588,0,0,0,0,2V22a2.00588,2.00588,0,0,0,2,2H22a2.00588,2.00588,0,0,0,2-2V2A2.00588,2.00588,0,0,0,22,0ZM6.5,5A1.538,1.538,0,0,1,8,6.5,1.538,1.538,0,0,1,6.5,8,1.538,1.538,0,0,1,5,6.5,1.538,1.538,0,0,1,6.5,5ZM8,19H5V10H8Zm11,0H16V14a1.5258,1.5258,0,0,0-1.5-1.7A1.5789,1.5789,0,0,0,13,14v5H10V10h3v1.4A3.08054,3.08054,0,0,1,15.5,10,3.54313,3.54313,0,0,1,19,13.5Z" />
</svg>
