<svg xmlns="http://www.w3.org/2000/svg" width="25.988" height="25.582" viewBox="0 0 25.988 25.582"><defs><style>.a{fill:#fff;}</style></defs><path class="a" d="M25.521,4a.812.812,0,0,0-.812.812.812.812,0,0,1-.812.812H20.648a.812.812,0,0,1-.812-.812A.812.812,0,0,0,19.024,4H14.964a.812.812,0,0,0-.812.812.812.812,0,0,1-.812.812H10.091a.812.812,0,0,1-.812-.812A.812.812,0,0,0,8.467,4H4V27.957H6.436a.812.812,0,0,1,.812.812.812.812,0,0,0,.812.812H15.37a.812.812,0,0,0,.812-.812.812.812,0,1,1,1.624,0,.812.812,0,0,0,.812.812h7.309a.812.812,0,0,0,.812-.812.812.812,0,0,1,.812-.812h2.436V4ZM5.218,26.739V5.218H7.655a.406.406,0,0,1,.406.406V26.739Zm9.745,1.218a.406.406,0,0,1-.406.406H8.873a.406.406,0,0,1-.406-.406V6.842h6.5Zm.406-1.218V5.624a.406.406,0,0,1,.406-.406h2.436a.406.406,0,0,1,.406.406V26.739Zm10.151,1.218a.406.406,0,0,1-.406.406H19.43a.406.406,0,0,1-.406-.406V6.842h6.5Zm3.248-1.218H25.927V5.624a.406.406,0,0,1,.406-.406h2.436Z" transform="translate(-4 -4)"/></svg>