<svg xmlns="http://www.w3.org/2000/svg" width="41.01" height="43.164" viewBox="0 0 41.01 43.164">
  <g id="Group_3150" data-name="Group 3150" transform="translate(-754.49 -940.793)">
    <path id="square-tile72" d="M29.389,4a.958.958,0,0,0-.958.958.958.958,0,0,1-.958.958H23.64a.958.958,0,0,1-.958-.958A.958.958,0,0,0,21.724,4h-4.79a.958.958,0,0,0-.958.958.958.958,0,0,1-.958.958H11.186a.958.958,0,0,1-.958-.958A.958.958,0,0,0,9.269,4H4V32.263H6.874a.958.958,0,0,1,.958.958.958.958,0,0,0,.958.958h8.623a.958.958,0,0,0,.958-.958.958.958,0,1,1,1.916,0,.958.958,0,0,0,.958.958h8.623a.958.958,0,0,0,.958-.958.958.958,0,0,1,.958-.958h2.874V4ZM5.437,30.826V5.437H8.311a.479.479,0,0,1,.479.479v24.91Zm11.5,1.437a.479.479,0,0,1-.479.479H9.748a.479.479,0,0,1-.479-.479V7.353h7.665Zm.479-1.437V5.916a.479.479,0,0,1,.479-.479h2.874a.479.479,0,0,1,.479.479v24.91Zm11.976,1.437a.479.479,0,0,1-.479.479H22.2a.479.479,0,0,1-.479-.479V7.353h7.665Zm3.832-1.437H29.868V5.916a.479.479,0,0,1,.479-.479h2.874Z" transform="translate(750.49 936.793)" fill="#fff"/>
    <path id="square-tile72-2" data-name="square-tile72" d="M33.122,4a1.1,1.1,0,0,0-1.1,1.1,1.1,1.1,0,0,1-1.1,1.1h-4.4a1.1,1.1,0,0,1-1.1-1.1,1.1,1.1,0,0,0-1.1-1.1H18.836a1.1,1.1,0,0,0-1.1,1.1,1.1,1.1,0,0,1-1.1,1.1h-4.4a1.1,1.1,0,0,1-1.1-1.1,1.1,1.1,0,0,0-1.1-1.1H4V36.419H7.3a1.1,1.1,0,0,1,1.1,1.1,1.1,1.1,0,0,0,1.1,1.1h9.891a1.1,1.1,0,0,0,1.1-1.1,1.1,1.1,0,1,1,2.2,0,1.1,1.1,0,0,0,1.1,1.1h9.891a1.1,1.1,0,0,0,1.1-1.1,1.1,1.1,0,0,1,1.1-1.1h3.3V4ZM5.648,34.771V5.648h3.3a.549.549,0,0,1,.549.549V34.771Zm13.188,1.648a.549.549,0,0,1-.549.549H10.594a.549.549,0,0,1-.549-.549V7.846h8.792Zm.549-1.648V6.2a.549.549,0,0,1,.549-.549h3.3a.549.549,0,0,1,.549.549V34.771Zm13.737,1.648a.549.549,0,0,1-.549.549H24.88a.549.549,0,0,1-.549-.549V7.846h8.792Zm4.4-1.648H33.672V6.2a.549.549,0,0,1,.549-.549h3.3Z" transform="translate(756.334 945.34)" fill="#fff"/>
  </g>
</svg>
