<svg width="16" height="16" viewBox="0 0 16 16" fill="none" xmlns="http://www.w3.org/2000/svg">
  <path fill-rule="evenodd" clip-rule="evenodd" d="M8 0C3.58172 0 0 3.58172 0 8C0 12.4183 3.58172 16 8 16C12.4183 16 16 12.4183 16 8C15.9984 3.58238 12.4176 0.001592 8 0ZM7.19961 14.3441C3.99975 13.9451 1.59841 11.2248 1.59961 8.00012C1.60228 7.51803 1.65863 7.03773 1.76761 6.56812L5.59961 10.4001V11.2001C5.60219 12.0827 6.31703 12.7975 7.19961 12.8001V14.3441ZM12.7188 12.312C12.5106 11.6483 11.8944 11.1976 11.1988 11.2H10.3988V8.80002C10.3975 8.35873 10.0401 8.00132 9.59883 8.00002H4.79883V6.40002H6.39883C6.84012 6.39873 7.19753 6.04131 7.19883 5.60002V4.00002H8.79883C9.68141 3.99744 10.3962 3.28261 10.3988 2.40002V2.07202C12.3422 2.85477 13.778 4.54102 14.241 6.58434C14.7039 8.62767 14.1351 10.7681 12.7188 12.312V12.312Z" fill="#3B3B3B"/>
</svg>
