<svg xmlns="http://www.w3.org/2000/svg" width="30" height="30" viewBox="0 0 30 30">
  <path id="language32" d="M16,1A15,15,0,1,0,31,16,15,15,0,0,0,16,1Zm10.38,9H21.955a23.474,23.474,0,0,0-2.07-5.34A12.044,12.044,0,0,1,26.38,10ZM16,4.06A21.13,21.13,0,0,1,18.865,10h-5.73A21.13,21.13,0,0,1,16,4.06ZM4.39,19A12.363,12.363,0,0,1,4,16a12.363,12.363,0,0,1,.39-3H9.46a24.773,24.773,0,0,0-.21,3,24.773,24.773,0,0,0,.21,3Zm1.23,3h4.425a23.474,23.474,0,0,0,2.07,5.34A11.98,11.98,0,0,1,5.62,22Zm4.425-12H5.62a11.98,11.98,0,0,1,6.5-5.34A23.474,23.474,0,0,0,10.045,10ZM16,27.94A21.13,21.13,0,0,1,13.135,22h5.73A21.13,21.13,0,0,1,16,27.94ZM19.51,19H12.49a22.068,22.068,0,0,1-.24-3,21.877,21.877,0,0,1,.24-3h7.02a21.877,21.877,0,0,1,.24,3A22.069,22.069,0,0,1,19.51,19Zm.375,8.34A23.474,23.474,0,0,0,21.955,22H26.38a12.044,12.044,0,0,1-6.495,5.34ZM22.54,19a24.773,24.773,0,0,0,.21-3,24.773,24.773,0,0,0-.21-3h5.07A12.363,12.363,0,0,1,28,16a12.363,12.363,0,0,1-.39,3Z" transform="translate(-1 -1)"/>
</svg>
