<svg id="India" xmlns="http://www.w3.org/2000/svg" xmlns:xlink="http://www.w3.org/1999/xlink" viewBox="0 0 20 16">
  <defs>
    <linearGradient id="linear-gradient" x1="-0.00005" y1="8" x2="20.00005" y2="8" gradientUnits="userSpaceOnUse">
      <stop offset="0" stop-color="#ffb34e"/>
      <stop offset="0.5838" stop-color="#ffb953"/>
      <stop offset="1" stop-color="#f93"/>
    </linearGradient>
    <linearGradient id="linear-gradient-2" x1="-0.00005" y1="8" x2="20.00005" y2="8" gradientUnits="userSpaceOnUse">
      <stop offset="0" stop-color="#f2f2f2"/>
      <stop offset="0.52235" stop-color="#fff"/>
      <stop offset="1" stop-color="#ccc"/>
    </linearGradient>
    <linearGradient id="linear-gradient-3" x1="-0.00005" y1="13.33333" x2="20.00005" y2="13.33333" gradientUnits="userSpaceOnUse">
      <stop offset="0" stop-color="#46ba22"/>
      <stop offset="0.52235" stop-color="#43b920"/>
      <stop offset="1" stop-color="#049801"/>
    </linearGradient>
    <clipPath id="clip-path">
      <rect width="20" height="16" fill="none"/>
    </clipPath>
    <radialGradient id="radial-gradient" cx="8.18947" cy="5.50048" r="10.47368" gradientUnits="userSpaceOnUse">
      <stop offset="0" stop-color="#fcffff" stop-opacity="0.4"/>
      <stop offset="0.5" stop-color="#fff" stop-opacity="0.15"/>
      <stop offset="1" stop-color="#fff" stop-opacity="0"/>
    </radialGradient>
  </defs>
  <rect x="-0.00005" width="20.0001" height="16" fill="url(#linear-gradient)"/>
  <rect x="-0.00005" y="5.33333" width="20.0001" height="5.33333" fill="url(#linear-gradient-2)"/>
  <rect x="-0.00005" y="10.66667" width="20.0001" height="5.33333" fill="url(#linear-gradient-3)"/>
  <path d="M10,5.86664A2.13336,2.13336,0,1,0,12.13336,8,2.13336,2.13336,0,0,0,10,5.86664Zm1.83313,2.46643c-.00916.05066-.02368.09869-.03687.14783l-1.05847-.34949-.38-.05444a.35719.35719,0,0,0,.01178-.05823l.37707.04529L11.8667,8l-1.12006-.064-.37707.04529a.35719.35719,0,0,0-.01178-.05823l.38-.05444,1.05847-.34949c.01319.04914.02771.09717.03687.14783a.09208.09208,0,0,0-.075.10162.091.091,0,0,0,.093.07715c.00433.05176.01556.10144.01556.1543s-.01123.10254-.01556.1543a.091.091,0,0,0-.093.07715A.09208.09208,0,0,0,11.83313,8.33307Zm-.19476.34558a.09184.09184,0,0,0,.04461.11609c-.02191.04626-.04736.09027-.07287.13434l-.93146-.61115-.3501-.14972a.35641.35641,0,0,0,.022-.05511l.35413.142,1.09137.22662c-.01337.04962-.0282.09851-.04541.14642A.09155.09155,0,0,0,11.63837,8.67865Zm-.95972.95972a.09148.09148,0,0,0-.05054.11218c-.04791.01721-.0968.03216-.14642.04547l-.22662-1.09137-.142-.35413a.35641.35641,0,0,0,.05511-.022l.14972.3501.61115.9314c-.04413.02551-.088.051-.13434.07293A.09178.09178,0,0,0,10.67865,9.63837Zm0-3.27674a.09178.09178,0,0,0,.11609-.04461c.04632.02191.09021.04742.13434.07293l-.61115.9314-.14972.3501a.35641.35641,0,0,0-.05511-.022l.142-.35413L10.48169,6.204c.04962.01331.09851.02826.14642.04547A.09148.09148,0,0,0,10.67865,6.36163Zm1.072,1.01026c.01721.04791.032.0968.04541.14642l-1.09137.22662-.35413.142a.35641.35641,0,0,0-.022-.05511l.3501-.14972.93146-.61115c.02551.04407.051.08808.07287.13434a.09006.09006,0,0,0,.06763.16663Zm-.33215-.57245a.09126.09126,0,0,0-.0116.121.0925.0925,0,0,0,.12659.01837c.02881.04157.05078.08734.07623.13129l-.99506.5011-.30676.22986a.37709.37709,0,0,0-.0332-.0492l.29858-.23462L11.32,6.68005l-.83722.74671-.23462.29858a.37709.37709,0,0,0-.0492-.0332l.22986-.30676.5011-.995c.04388.02545.08972.04736.13129.07617a.0925.0925,0,0,0,.01837.12659.09126.09126,0,0,0,.121-.0116c.03943.03339.08283.062.11939.09851S11.38507,6.76007,11.41846,6.79944ZM10.1543,6.14893a.091.091,0,0,0,.07715.09289.0922.0922,0,0,0,.10162-.07489c.0506.00916.09869.02362.14783.03681l-.34949,1.05847-.05444.38a.35719.35719,0,0,0-.05823-.01178l.04529-.37707L10,6.13336l-.064,1.12.04529.37707a.35719.35719,0,0,0-.05823.01178l-.05444-.38L9.5191,6.20374c.04914-.01319.09723-.02765.14783-.03681a.0922.0922,0,0,0,.10162.07489.091.091,0,0,0,.07715-.09289c.05176-.00434.10144-.01557.1543-.01557S10.10254,6.14459,10.1543,6.14893ZM9.32135,9.63837a.09178.09178,0,0,0-.11609.04461c-.04632-.02191-.09021-.04742-.13434-.07293l.61115-.9314.14972-.3501a.35641.35641,0,0,0,.05511.022l-.142.35413L9.51831,9.796c-.04962-.01331-.09851-.02826-.14642-.04547A.09148.09148,0,0,0,9.32135,9.63837Zm-1.072-1.01026c-.01721-.04791-.032-.0968-.04541-.14642l1.09137-.22662.35413-.142a.35641.35641,0,0,0,.022.05511l-.3501.14972-.93146.61115c-.02551-.04407-.051-.08808-.07287-.13434a.09006.09006,0,0,0-.06763-.16663ZM8.14886,8.1543C8.14453,8.10254,8.1333,8.05286,8.1333,8s.01123-.10254.01556-.1543a.091.091,0,0,0,.093-.07715.09208.09208,0,0,0-.075-.10162c.00916-.05066.02368-.09869.03687-.14783l1.05847.34949.38.05444a.35719.35719,0,0,0-.01178.05823L9.25336,7.936,8.1333,8l1.12006.064.37707-.04529a.35719.35719,0,0,0,.01178.05823l-.38.05444L8.20374,8.4809c-.01319-.04914-.02771-.09717-.03687-.14783a.09208.09208,0,0,0,.075-.10162A.091.091,0,0,0,8.14886,8.1543Zm.21277-.83295A.09184.09184,0,0,0,8.317,7.20526c.02191-.04626.04736-.09027.07287-.13434l.93146.61115.3501.14972a.35641.35641,0,0,0-.022.05511l-.35413-.142L8.204,7.51831c.01337-.04962.0282-.09851.04541-.14642A.09155.09155,0,0,0,8.36163,7.32135Zm1.47016.3501-.14972-.3501L9.07092,6.39c.04413-.02551.088-.051.13434-.07293a.09.09,0,0,0,.16663-.06757c.04791-.01721.0968-.03216.14642-.04547l.22662,1.09137.142.35413A.35641.35641,0,0,0,9.83179,7.67145ZM8.79944,6.58154a.09126.09126,0,0,0,.121.0116.0925.0925,0,0,0,.01837-.12659c.04157-.02881.08741-.05072.13129-.07617l.5011.995.22986.30676a.37709.37709,0,0,0-.0492.0332l-.23462-.29858-.83722-.74671.74671.83722.29858.23462a.37709.37709,0,0,0-.0332.0492l-.30676-.22986-.99506-.5011c.02545-.04395.04742-.08972.07623-.13129a.0925.0925,0,0,0,.12659-.01837.09126.09126,0,0,0-.0116-.121c.03339-.03937.062-.08289.09851-.11939S8.76007,6.61493,8.79944,6.58154Zm-.2179,2.619a.09126.09126,0,0,0,.0116-.121.0925.0925,0,0,0-.12659-.01837c-.02881-.04157-.05078-.08734-.07623-.13129l.99506-.5011.30676-.22986a.37709.37709,0,0,0,.0332.0492l-.29858.23462L8.68005,9.32l.83722-.74671.23462-.29858a.37709.37709,0,0,0,.0492.0332l-.22986.30676-.5011.995c-.04388-.02545-.08972-.04736-.13129-.07617a.0925.0925,0,0,0-.01837-.12659.09126.09126,0,0,0-.121.0116c-.03937-.03339-.08289-.06195-.11939-.09851S8.61493,9.23993,8.58154,9.20056Zm1.26416.65051a.091.091,0,0,0-.07715-.09289.0922.0922,0,0,0-.10162.07489c-.0506-.00916-.09869-.02362-.14783-.03681l.34949-1.05847.05444-.38a.35719.35719,0,0,0,.05823.01178L9.936,8.74664l.064,1.12.064-1.12-.04529-.37707a.35719.35719,0,0,0,.05823-.01178l.05444.38.34949,1.05847c-.04914.01319-.09723.02765-.14783.03681a.0922.0922,0,0,0-.10162-.07489.091.091,0,0,0-.07715.09289c-.05176.00434-.10144.01557-.1543.01557S9.89746,9.85541,9.8457,9.85107Zm1.35486-.43261a.09126.09126,0,0,0-.121-.0116.0925.0925,0,0,0-.01837.12659c-.04157.02881-.08741.05072-.13129.07617l-.5011-.995-.22986-.30676a.37709.37709,0,0,0,.0492-.0332l.23462.29858L11.32,9.32l-.74671-.83722-.29858-.23462a.37709.37709,0,0,0,.0332-.0492l.30676.22986.99506.5011c-.02545.044-.04742.08972-.07623.13129a.0925.0925,0,0,0-.12659.01837.09126.09126,0,0,0,.0116.121c-.03339.03937-.06208.083-.09851.11939S11.24,9.38507,11.20056,9.41846Z" fill="#077adf"/>
  <g clip-path="url(#clip-path)">
    <circle cx="8.18947" cy="5.50048" r="10.47368" fill="url(#radial-gradient)"/>
  </g>
  <path d="M19,1V15H1V1H18.95221M20,0H0V16H20V0Z" opacity="0.15"/>
</svg>
