<svg id="Saudi_Arabia_ٱلْمَمْلَكَة_ٱلْعَرَبِيَّة_ٱلسَّعُوْدِيَّة_" data-name="Saudi Arabia (ٱلْمَمْلَكَة ٱلْعَرَبِيَّة ٱلسَّعُوْدِيَّة)" xmlns="http://www.w3.org/2000/svg" xmlns:xlink="http://www.w3.org/1999/xlink" viewBox="0 0 20 16"><defs><style>.cls-1{fill:url(#linear-gradient);}.cls-2,.cls-3{fill-rule:evenodd;}.cls-2{fill:url(#linear-gradient-2);}.cls-3{fill:url(#radial-gradient);}.cls-4{opacity:0.15;}</style><linearGradient id="linear-gradient" y1="8" x2="20" y2="8" gradientUnits="userSpaceOnUse"><stop offset="0" stop-color="#109551"/><stop offset="0.58" stop-color="#006c35"/><stop offset="1" stop-color="#034a26"/></linearGradient><linearGradient id="linear-gradient-2" x1="4.37" y1="8" x2="15.63" y2="8" gradientUnits="userSpaceOnUse"><stop offset="0" stop-color="#d3d3d3"/><stop offset="0.52" stop-color="#fff"/><stop offset="1" stop-color="#f1f1f1"/></linearGradient><radialGradient id="radial-gradient" cx="10.93" cy="5.47" r="7.57" gradientUnits="userSpaceOnUse"><stop offset="0" stop-color="#fcffff" stop-opacity="0.4"/><stop offset="0.5" stop-color="#fff" stop-opacity="0.15"/><stop offset="1" stop-color="#fff" stop-opacity="0"/></radialGradient></defs><path class="cls-1" d="M0,0H20V16H0Z"/><path class="cls-2" d="M12.81,10.81h0c-.19,0-.18.2-.06.27-1.92,0-4.85,0-5.48,0L5.78,11a1.27,1.27,0,0,0,1,.36h5.91a.29.29,0,0,0,.07.35h0a.11.11,0,0,0,.13-.06,8.2,8.2,0,0,0,.86,0h0a.19.19,0,0,0,.17.09c.14,0,.25,0,.25-.28,0,0,0-.41-.33-.38l-.29,0c-.24,0-.42,0-.69,0,0,0,.07-.14,0-.17l-.06,0h0a.49.49,0,0,1,0-.07Zm.13.59h.82s0,.1,0,.12H13.5s-.17,0-.21,0h0a2,2,0,0,1-.35,0s0-.11,0-.12ZM13.8,7s.14-.1.14-.24,0-.35-.13-.4h0a.09.09,0,0,0-.08.12s.08.2.1.28,0,.22,0,.23Zm-8-2.33c.13.06.36,0,.35-.15a.28.28,0,0,0,0-.09.05.05,0,0,0-.05,0h0a.06.06,0,0,0-.06,0s0,0,0,.06,0,0,0-.05,0,0,0,0h0s0,0,0,0,0,0,0,0,0,0,0,0h0v0a.43.43,0,0,0,0-.05l0,0a.08.08,0,0,0-.07.1.15.15,0,0,0,.08.17Zm-1,0s0,.18,0,.19.09-.09.11-.2,0-.25-.14-.29h0s-.11,0-.09.09.11.14.13.21Zm4.38.05a.76.76,0,0,0,.07-.33c0-.06,0-.08-.07-.08s-.06,0-.09.1a2.64,2.64,0,0,0,0,.3c0,.07.09.1.14,0Zm-.89-.05c0,.05.07,0,.14,0a.15.15,0,0,0,.07-.09c0-.08-.09,0-.1,0s0-.12.11-.19,0-.07,0-.07l-.05,0a.34.34,0,0,0-.17.26c0,.07,0,.07,0,.11ZM4.7,5.86c.36,0,.16-.56.29-.67s.07-.06.08,0v.51c0,.16.11.21.2.24s.16,0,.2.08l0,.88s.22.06.23-.49c0-.33-.07-.6,0-.66s.09-.06.15,0,.13.13.28.1.36-.15.36-.31a1.22,1.22,0,0,0-.1-.45s0-.1,0-.13.11,0,.12,0a.46.46,0,0,0-.19-.27.14.14,0,0,0-.24.08.71.71,0,0,0,.18.49.43.43,0,0,1,0,.24.17.17,0,0,1-.19,0,1.14,1.14,0,0,1-.17-.15c0-.28,0-.31,0-.39a.43.43,0,0,0-.12-.21.07.07,0,0,0-.13,0,.69.69,0,0,0,0,.51c0,.11.11.18.08.18s-.08.05-.11,0a1.5,1.5,0,0,1-.07-.48c0-.12,0-.39-.12-.46a.07.07,0,0,0-.08,0,.1.1,0,0,0-.08.06,1.42,1.42,0,0,0,0,.36,3.84,3.84,0,0,1,.11.59c0,.27-.18.11-.17,0a1.32,1.32,0,0,0,0-.53.1.1,0,0,0-.14-.07c-.06,0-.2.14-.24.38a1.41,1.41,0,0,0-.05.24c0,.12-.11.21-.17,0s-.09-.58-.18-.49c0,.33-.06.9.24,1ZM7,5.31H7a1,1,0,0,0,.35,0h0A4.35,4.35,0,0,0,8,4.78a.18.18,0,0,0-.07,0,0,0,0,0,1,0-.07.16.16,0,0,0,0-.26l-.14,0a.2.2,0,0,0-.11,0,.18.18,0,0,0,0,.26c.06,0,.12.09.08.12s-.64.47-.66.52H7Zm.7-.78h0s.06,0,.08,0,0,.08,0,.08-.07,0-.09,0,0-.08,0-.08ZM8.38,5.6c.15.06.24-.2.3-.48,0-.07.07-.08.09,0,0,.37,0,.45.13.56a.36.36,0,0,0,.44,0l.18-.17a.12.12,0,0,1,.15,0c.05,0,0,.12.16.18s.31,0,.36-.07l.11-.18c0-.06.13,0,.13,0s-.06.06,0,.12.06,0,.1,0,.2-.28.2-.28-.05-.08-.08-.06l-.09.05c-.06,0-.17,0-.23,0s-.05-.23-.09-.32-.08-.15,0-.16.11,0,.12,0-.08-.22-.16-.3a.17.17,0,0,0-.25,0c-.06.05-.05.11-.07.17a.28.28,0,0,0,.06.23.66.66,0,0,1,.14.48.2.2,0,0,1-.18.08s-.13,0-.17-.32,0-.53-.1-.67,0-.11-.07-.1,0,0-.08.08a.32.32,0,0,0,0,.33,1,1,0,0,1,.06.51,1.34,1.34,0,0,1-.11.14.19.19,0,0,1-.23,0A.22.22,0,0,1,9,5.17a2.94,2.94,0,0,0,0-.56.12.12,0,0,0-.19,0,1.29,1.29,0,0,0-.34.64c0,.16-.11.11-.14,0s-.11-.73-.22-.62c-.19.48.1,1,.3,1Zm-.75-.34a.22.22,0,0,0-.09.31.19.19,0,0,0,.18,0c.11,0,.17-.18.17-.18s0-.06-.12,0-.06,0-.08,0a.3.3,0,0,1,0-.16s0,0,0,0a.07.07,0,0,0-.06,0Zm7.08,2.47s-.08,0-.11,0-.07,0,0-.06a.28.28,0,0,0,0-.08s0,0-.06-.07h-.16s-.05,0-.05.06,0,.06.08.09.05,0,0,.1l-.11.08s0,.08,0,.09.36-.12.36-.12a.07.07,0,0,0,0-.08Zm.77-2.62a.76.76,0,0,1,0-.19s.1,0,.13,0-.22-.35-.31-.48,0-.06,0-.06,0,0-.06.07a.61.61,0,0,0,0,.37,17.59,17.59,0,0,1,.26,2.39,1,1,0,0,1-.05.2,1.56,1.56,0,0,1-.25.26c-.09.06-.26.12-.32.16s-.18.21,0,.21a1,1,0,0,0,.76-.33,1.09,1.09,0,0,0,.12-.44,9.19,9.19,0,0,0-.14-2.12ZM4.5,6.65l.94-.41c-.05-.07,0-.14-.2-.14a.92.92,0,0,0-.74.55Zm.17.9c-.08.15-.12,0-.12,0a1.85,1.85,0,0,1,0-.42s0-.07,0-.07,0,0,0,0a.81.81,0,0,0-.1.76.25.25,0,0,0,.21.07.33.33,0,0,0,.13-.33c0-.06-.07-.06-.1,0Zm2.21-.39c.13-.39,0-.69,0-.73h0a.32.32,0,0,0,.43,0,.08.08,0,0,1,.11,0,.28.28,0,0,0,.39-.1c0-.14,0-.29,0-.44a.34.34,0,0,0-.17.07l0,0,0,.12h0s0,0,0,0a.06.06,0,0,1-.08,0c0-.16-.19-.18-.29.07-.06,0-.18.06-.19,0S7.07,5.91,6.92,6L6.78,5c.06,0,.12,0,.17,0s-.18-.53-.26-.56H6.58a.16.16,0,0,0-.12.21L6.7,6c0,.06,0,.14-.11.13s-.15-.22-.36-.22a.39.39,0,0,0-.33.3.74.74,0,0,0,0,.33.33.33,0,0,0,.33.08c.09,0,.17-.12.2-.1h0s0,.3-.42.5c-.26.11-.46.13-.57-.06s0-.58-.16-.48c-.5,1.18,1.16,1.35,1.34,0,0,0,0-.07.08-.06s0,0,0,0c0,1.18-1.28,1.26-1.49.89A1.24,1.24,0,0,1,5.15,7c0-.07,0-.11-.05-.12S5,7,5,7.11a1.34,1.34,0,0,0,0,.28c.06.93,1.67.53,1.93-.23Zm-.61-.8h0s0,0-.08,0a.1.1,0,0,1-.08,0s0-.07,0-.09h0l.05,0h0a.06.06,0,0,1,.07,0,.1.1,0,0,1,0,.09Zm6.87,1.52-.28,0ZM11.56,5.47c.13.06.36,0,.35-.15V5.24a.07.07,0,0,0-.06,0s0,0,0,0,0,0,0,.06,0,0,0,0,0,0,0,0h0s0,0,0,0v0s0,0,0,0h0s0,0,0,0a.43.43,0,0,0,0,0h0c-.07,0-.07.07-.07.1s0,.13.08.16Zm2,.48c0-.11,0-.25,0-.34a.07.07,0,0,1,.05-.08s.09,0,.09,0a.4.4,0,0,0-.06-.22.16.16,0,0,0-.09,0,.14.14,0,0,0-.14.11s0,.07,0,.11,0,0-.09,0,0-.08,0-.08a.16.16,0,0,0-.16,0,.19.19,0,0,0,0,.17c.07.12.31.33.42.33Zm-.77,1.48c.09,0,.19-.18.23-.36a4.2,4.2,0,0,0,0-.55c0-.14-.18-1.33-.22-1.44s.17,0,.15-.15-.26-.38-.31-.51,0-.07,0-.07l-.05.06a1,1,0,0,0-.07.52,10.5,10.5,0,0,1,.34,2.5Zm-.65-.18a2.21,2.21,0,0,1-.8.54s.09.18.24.18a.85.85,0,0,0,.68-.5.87.87,0,0,0,.16-.39,8.17,8.17,0,0,0-.17-2,.27.27,0,0,1,0-.13s.08,0,.11,0-.12-.38-.21-.51,0-.06-.05-.06l0,.07a.78.78,0,0,0-.09.37c.13.77.16,1.45.24,2.22a.24.24,0,0,1-.06.22Zm.52-.31-1-2.18c0,.11,0,.22,0,.24s.1-.12.12-.24a.38.38,0,0,0-.16-.36h0c-.06,0-.13,0-.1.11s.13.18.16.25ZM13.89,6h0l-.59.39c-.06,0,0,.21,0,.19a2.54,2.54,0,0,0,.61-.39s0-.19,0-.19Zm-.41-1.06c.18.2.35.4.51.61,0,.43,0,.82.09,1.25,0,.19-.07.43-.13.46a.16.16,0,0,1-.15,0,2,2,0,0,1-.21-.27.14.14,0,0,0-.21,0,2.64,2.64,0,0,0-.38.65s-.11.08-.21,0a.87.87,0,0,1-.13-.64h0a.65.65,0,0,0-.07.67.5.5,0,0,0,.27.28.2.2,0,0,0,.28,0c.12-.12.12-.43.18-.5a.12.12,0,0,1,.2,0,.4.4,0,0,0,.18.14.32.32,0,0,0,.4,0,.39.39,0,0,0,.21-.24,8,8,0,0,0,0-1.35l.27.36a8.21,8.21,0,0,1,0,1.1c0,.07.27-.21.27-.34V6.71c.13.2.26.4.38.61.08,0,.05-.44,0-.49-.13-.2-.3-.42-.43-.58s0-.46-.07-.54a4.31,4.31,0,0,0-.09-.44,1.29,1.29,0,0,1,0-.24s.07,0,.1,0a1.41,1.41,0,0,0-.24-.61c0-.06-.09,0-.17,0s0,.2,0,.33c.07.34.14.69.19,1l-.32-.42V5.29s0-.28,0-.34,0,0,0,0l.05,0s.06,0,.05-.09l-.3-.5,0,0s0,0-.05,0a.2.2,0,0,0-.08.15c0,.12,0,.24.05.36v0l0,0c-.25-.24.12,0,0-.22a1.71,1.71,0,0,0-.29-.27c-.06,0-.1-.11-.12,0s0,.22,0,.3a.44.44,0,0,0,.1.19Zm1.46.2s0,.24,0,.26.1-.13.12-.27-.05-.33-.15-.38h0c-.06,0-.12,0-.09.12s.12.19.14.27ZM10.55,7.76a.11.11,0,0,0,.11,0A1.38,1.38,0,0,1,11,7.65c.05,0,0-.11,0-.11a.43.43,0,0,0-.26.07c-.06,0-.07,0-.08-.05s0-.12,0-.17a.14.14,0,0,0-.07,0h0a.62.62,0,0,0-.17.13s0,0,0,.06,0,0,.09,0,.08,0,.07.08a.11.11,0,0,0,0,.1Zm.57-1.11h0l0,0H10s0,0,0,0c.26,0,.71-.1.75-.5,0-.21-.1-.35-.38-.39a.35.35,0,0,0-.33.4c0,.06,0,.16,0,.17-.4,0-.83.27-.85.43h0a.1.1,0,0,1-.06-.1,1.77,1.77,0,0,0-.27-.85c-.05,0-.08-.07-.09-.07h0l-.06.05a.27.27,0,0,0-.06.21s.1.27.19.45a1.2,1.2,0,0,1,.07.6,1.54,1.54,0,0,1-.66.63.39.39,0,0,1-.27,0h0a.17.17,0,0,1-.08-.15h0a1.45,1.45,0,0,0,.66-.63.56.56,0,0,0,0-.45.43.43,0,0,0-.11-.21h0s.14.05.15,0a.65.65,0,0,0-.19-.33.17.17,0,0,0-.23,0c-.08,0-.1.19-.06.32s.16.11.24.31h0s0,.14,0,.2a3.11,3.11,0,0,1-.5.43h0V7c0-.06,0-.19,0-.22h0c-.14.09-.19.35-.21.42a6.55,6.55,0,0,0-1,.64c-.12.17.85-.21,1-.25h0a1,1,0,0,0,.09.17.54.54,0,0,0,.52.15,1.59,1.59,0,0,0,.76-.58S9,7.27,9,7.3a1.2,1.2,0,0,0,1.07.52c.12-.14.06-.2,0-.23s-.26-.1-.3-.19,0-.15.16-.21A4.89,4.89,0,0,0,11,7a.71.71,0,0,1,.1-.31.15.15,0,0,1,.06-.06ZM10.23,6h0a.12.12,0,0,1,.08,0,.1.1,0,0,1,.07.08h0a.09.09,0,0,1-.11,0c-.05,0-.07-.05-.07-.08ZM9.8,7c-.11,0-.22.07-.22.22s0,.12,0,.13h0l-.09,0a.56.56,0,0,1-.3-.4c0-.06,0-.1.11-.11h0c.12,0,.3,0,.45,0s.19.1.07.13ZM7.28,6.68c0,.05.13.1.14.2s0,.18,0,.19.09-.09.11-.19,0-.25-.15-.28h0s-.09,0-.07.08Zm2.17-.62c.12.06.42,0,.34-.15V5.82s0,0-.06,0a.05.05,0,0,0-.05,0s0,0,0,.06-.05,0-.05-.05a.08.08,0,0,0,0,0h0s0,0,0,0,0,0,0,0,0,0,0,0h0s0,0,0,0a.06.06,0,0,0,0,0l0,0c-.07,0-.07.08-.07.1s0,.14.09.17ZM10.5,4.8l.6.79c0,.2.05.39.06.58a13,13,0,0,1,0,1.4c.08,0,.22-.12.27-.32a7.22,7.22,0,0,0,0-1,1.85,1.85,0,0,0,0-.23,12.15,12.15,0,0,1,.66,1.09c.08,0,.06-.44,0-.5-.17-.33-.4-.67-.48-.8l-.23-.33c0-.21,0-.39-.05-.44,0-.23.1,0,.08-.11a1.49,1.49,0,0,0-.34-.59c-.05-.06-.05-.08-.13,0a.35.35,0,0,0,0,.26l-.09-.1-.26-.21a.28.28,0,0,0-.16,0s-.05,0-.06.06a.48.48,0,0,0,0,.24.55.55,0,0,0,.15.2Zm.44,0s0,0,0,.07L11,5a.46.46,0,0,0-.1-.12c-.1-.12,0-.08.06-.09Z"/><g id="extras"><path id="glow" class="cls-3" d="M18.5,5.5A10.41,10.41,0,0,0,16.93,0H0V12.29A10.49,10.49,0,0,0,18.5,5.5Z"/><path id="borderShadow" class="cls-4" d="M19,1V15H1V1ZM0,0V16H20V0Z"/></g></svg>