<?xml version="1.0" encoding="utf-8"?>
<!-- Generator: Adobe Illustrator 26.3.1, SVG Export Plug-In . SVG Version: 6.00 Build 0)  -->
<svg version="1.1" id="Layer_1" xmlns="http://www.w3.org/2000/svg" xmlns:xlink="http://www.w3.org/1999/xlink" x="0px" y="0px"
	 viewBox="0 0 200.2 100" style="enable-background:new 0 0 200.2 100;" xml:space="preserve">
<g id="AeroDek">
	<path fill="#70706F" d="M23.2,35.3h7.5l11,29.7h-7.4L32,58.2H21.4L19.1,65H12L23.2,35.3z M30.3,53l-3.6-11.2L22.9,53H30.3z"/>
	<path fill="#70706F" d="M64,62.7c-0.2,0.1-0.6,0.4-1.1,0.7c-0.6,0.4-1.2,0.7-1.9,1c-0.9,0.4-1.8,0.7-2.7,0.9c-1.2,0.3-2.4,0.4-3.6,0.4
		c-1.7,0-3.3-0.3-4.9-0.8c-1.4-0.5-2.6-1.3-3.7-2.3c-1-1-1.8-2.2-2.3-3.5c-0.5-1.5-0.8-3-0.8-4.6c0-1.4,0.2-2.9,0.7-4.2
		c0.9-2.7,3-4.8,5.6-6c1.5-0.6,3-0.9,4.6-0.9s3.1,0.3,4.5,0.9c1.3,0.6,2.4,1.4,3.3,2.5s1.6,2.4,2,3.8c0.5,1.6,0.7,3.2,0.7,4.8v1.1
		H49.3c0,1.2,0.6,2.2,1.5,3c1.1,0.9,2.6,1.4,4,1.3c1.4,0.1,2.8-0.2,4.1-0.7c0.8-0.4,1.6-0.8,2.3-1.3L64,62.7z M58.3,52.4
		c0-0.5-0.1-0.9-0.3-1.4s-0.5-0.9-0.8-1.3c-0.4-0.4-0.8-0.7-1.4-1s-1.3-0.4-1.9-0.4c-0.7,0-1.4,0.1-2,0.4c-0.5,0.2-1,0.6-1.4,1
		s-0.7,0.8-0.9,1.3c-0.2,0.4-0.3,0.9-0.3,1.4H58.3z"/>
	<path fill="#70706F" d="M68.1,44.1h6.2l0.2,2.6c0.6-0.8,1.4-1.5,2.2-2c1.1-0.7,2.4-1,3.7-1c0.5,0,1,0,1.5,0.1c0.4,0.1,0.8,0.2,1.2,0.3
		l-1,5.7c-0.8-0.2-1.6-0.3-2.3-0.3c-1.4-0.1-2.7,0.4-3.7,1.4s-1.5,2.4-1.4,3.9V65h-6.5L68.1,44.1z"/>
	<path fill="#70706F" d="M84,54.5c0-1.5,0.3-3,0.8-4.3s1.3-2.5,2.3-3.5s2.2-1.8,3.6-2.4c1.5-0.6,3-0.9,4.6-0.9s3.1,0.3,4.6,0.9
		c1.3,0.5,2.5,1.4,3.6,2.4c1,1,1.8,2.2,2.3,3.5c1.1,2.8,1.1,5.9,0,8.7c-0.5,1.3-1.3,2.5-2.3,3.5s-2.2,1.8-3.6,2.4
		c-1.5,0.6-3,0.9-4.6,0.9s-3.2-0.3-4.6-0.9c-2.7-1.1-4.8-3.2-5.9-5.9C84.3,57.5,84,56,84,54.5z M95.4,60.1c0.7,0,1.5-0.1,2.2-0.5
		c0.6-0.3,1.2-0.7,1.6-1.3c0.4-0.5,0.8-1.1,1-1.8c0.4-1.3,0.4-2.8,0-4.1c-0.2-0.7-0.5-1.3-1-1.8c-0.4-0.5-1-0.9-1.6-1.2
		c-0.7-0.3-1.4-0.5-2.2-0.5s-1.5,0.1-2.2,0.5c-0.6,0.3-1.2,0.7-1.6,1.2s-0.8,1.1-1,1.8c-0.5,1.3-0.5,2.8,0,4.1
		c0.2,0.7,0.5,1.3,1,1.8c0.4,0.5,1,1,1.6,1.3C93.9,60,94.6,60.2,95.4,60.1z"/>
	<path fill="#70706F" d="M111.1,35.3h11.4c2.2,0,4.3,0.3,6.4,0.9c1.9,0.5,3.6,1.5,5.1,2.7c1.5,1.3,2.6,2.9,3.3,4.7
		c0.8,2.1,1.3,4.4,1.2,6.7c0.1,2.2-0.4,4.4-1.2,6.4c-0.8,1.8-1.9,3.3-3.4,4.6s-3.2,2.2-5.1,2.8c-2.1,0.6-4.3,0.9-6.4,0.9h-11.3
		C111.1,65,111.1,35.3,111.1,35.3z M122.1,59c3,0,5.3-0.8,7-2.3c1.7-1.7,2.6-4,2.4-6.4c0-1.3-0.2-2.5-0.6-3.7
		c-0.3-1.1-0.9-2-1.7-2.8s-1.8-1.4-2.9-1.8c-1.4-0.5-2.8-0.7-4.2-0.6h-4.2V59H122.1z"/>
	<path fill="#70706F" d="M162.7,62.7c-0.2,0.1-0.6,0.4-1.1,0.7c-0.6,0.4-1.2,0.7-1.9,1c-0.9,0.4-1.8,0.7-2.7,0.9
		c-1.2,0.3-2.4,0.4-3.6,0.4c-1.7,0-3.3-0.3-4.9-0.8c-1.4-0.5-2.6-1.3-3.7-2.3c-1-1-1.8-2.2-2.3-3.5c-0.5-1.5-0.8-3-0.8-4.6
		c0-1.4,0.2-2.9,0.7-4.2c0.9-2.7,3-4.8,5.6-6c1.5-0.6,3-0.9,4.6-0.9s3.1,0.3,4.5,0.9c1.3,0.6,2.4,1.4,3.3,2.5s1.6,2.4,2,3.8
		c0.5,1.6,0.7,3.2,0.7,4.8v1.1H148c0,1.2,0.6,2.2,1.5,3c1.1,0.9,2.6,1.4,4,1.3c1.4,0.1,2.8-0.2,4.1-0.7c0.8-0.4,1.6-0.8,2.3-1.3
		L162.7,62.7z M157,52.4c0-0.5-0.1-0.9-0.3-1.4s-0.5-0.9-0.8-1.3c-0.4-0.4-0.8-0.7-1.4-1s-1.3-0.4-1.9-0.4c-0.7,0-1.4,0.1-2,0.4
		c-0.5,0.2-1,0.5-1.4,1c-0.4,0.4-0.7,0.8-0.9,1.3c-0.2,0.4-0.3,0.9-0.3,1.4H157z"/>
	<path fill="#70706F" d="M166.8,35.3h6.5v15.4l6.5-6.6h7.4l-7.6,7.7l8.6,13.2h-7.5l-5.4-8.8l-1.9,1.9V65h-6.5L166.8,35.3z"/>
</g>
</svg>
