<svg xmlns="http://www.w3.org/2000/svg" viewBox="0 0 255 100">
  <g id="AWAK" fill="#929394">
    <path d="M135.28129,40.52363c-1.3699-3.32091-2.55137-6.17975-6.473-6.17975-3.82686,0-5.00793,2.85884-6.37828,6.17975l-7.37087,17.69844c-.99224,2.39636-1.13386,3.19513-1.13386,4.20366,0,1.682,1.512,2.77492,3.68523,2.77492,2.50416,0,3.30758-1.42965,4.01613-3.32137l.945-2.69049h12.568l.945,2.69049c.70855,1.89172,1.51191,3.32137,4.01607,3.32137,2.17332,0,3.68524-1.0929,3.68524-2.77492,0-1.00853-.14162-1.8073-1.13381-4.20366ZM124.83973,52.88325l2.78836-7.44281-.00188.00062.31831-.84535,1.00575-2.68459h.00511l.873-2.31851c.092-.26429.16057-.42639.16057-.42639l-.16057.42639a11.42088,11.42088,0,0,0-.38719,3.45527l3.43076,9.83537Z"></path>
    <path d="M204.47013,40.52363c-1.36989-3.32091-2.55136-6.17975-6.473-6.17975-3.82685,0-5.00838,2.85884-6.37828,6.17975L184.248,58.22207c-.99219,2.39636-1.13387,3.19513-1.13387,4.20366,0,1.682,1.512,2.77492,3.68524,2.77492,2.50422,0,3.30758-1.42965,4.01613-3.32137l.945-2.69049h12.568l.945,2.69049c.70856,1.89172,1.51192,3.32137,4.01614,3.32137,2.17326,0,3.68518-1.0929,3.68518-2.77492,0-1.00853-.14162-1.8073-1.13381-4.20366Zm-10.4415,12.35962,4.11049-10.97213h.01384l.873-2.31851c.092-.26429.16057-.42639.16057-.42639l-.16057.42639a8.6367,8.6367,0,0,0-.38174,3.48568l.00335.02009,3.41278,9.78487Z"></path>
    <path d="M187.22986,37.9557c.1705-1.62279-.401-3.16063-2.89765-3.32131-2.499-.16086-3.25362,1.3363-3.96892,3.02678l-6.25,14.54626-1.84106,4.44945c-.09753.25249-.16885.40818-.16885.40818l.16885-.40818a9.73162,9.73162,0,0,0,.38179-3.45941l-5.05474-14.438c-.945-2.60651-2.118-3.99536-4.14963-3.99536s-2.92318,1.67935-3.86822,4.28587l-5.95586,14.87449-.00788-.01917-.92887,2.36572c-.09572.26326-.1667.42463-.1667.42463l.1667-.42463a8.40833,8.40833,0,0,0,.29822-3.85795,1.14553,1.14553,0,0,1-.02906-.1162l-5.67613-13.70937c-1.76072-3.314-2.43375-4.53126-4.9214-4.24366-2.01025.23241-2.70746,2.20782-2.59126,3.71843a21.07744,21.07744,0,0,0,.97075,3.51207l7.49171,18.89755c1.426,3.85023,1.97042,4.70386,4.82325,4.72872,2.92936.02547,4.29937-1.03191,5.43363-3.74164l4.91351-13.70483h.09482L168.41038,61.459c.89777,2.43818,2.02494,3.71678,4.95442,3.71678,3.56347,0,3.82107-1.93666,5.66354-4.98908l7.27271-18.61233A28.84689,28.84689,0,0,0,187.22986,37.9557Z"></path>
    <path d="M240.64864,58.55836l-9.96949-9.62691L239.798,40.776a4.08985,4.08985,0,0,0,1.512-2.73271c0-1.80775-2.126-3.27915-3.82685-3.27915-1.13387,0-2.07891.21016-3.59082,1.72377L223.35594,46.70344V38.37959c0-2.39636-1.60638-3.61544-3.8273-3.61544-2.22047,0-3.82686,1.21908-3.82686,3.61544V61.58514c0,2.39642,1.60639,3.61551,3.82686,3.61551,2.22092,0,3.8273-1.21909,3.8273-3.61551V51.66376l10.678,10.678c1.22828,1.21909,2.693,2.8589,4.72468,2.8589,2.12651,0,4.01608-1.17733,4.01608-3.36313C242.7747,60.57622,241.83011,59.69348,240.64864,58.55836Z"></path>
  </g>
  <g id="BMI_Block">
    <rect width="100" height="100" fill="#009fe3"></rect>
    <g fill="white">
      <path d="M62.176,34.911,57.84,52.77h-.084L53.417,34.911H40.11v20.28a7.315,7.315,0,0,0-5.239-6.716c2.255-1.235,3.742-2.891,3.742-5.953,0-3.1-1.7-7.611-9.693-7.611H12.3V65.27H29.515c5.121,0,10.16-2.878,10.6-8.443V65.27h8.844V45.8h.084L54.31,65.27h6.973L66.555,45.8h.085V65.27h8.844V34.911ZM21.65,42.139h4.933c1.913,0,3.188.554,3.188,2.084,0,1.956-1.233,2.507-3.188,2.507H21.65Zm5.485,15.9H21.65V52.386h5.867c2.211,0,3.272.978,3.272,2.763,0,2.339-1.7,2.891-3.655,2.891"></path>
      <rect x="78.358" y="34.914" width="9.354" height="30.356"></rect>
    </g>
  </g>
</svg>
