<?xml version="1.0" encoding="utf-8"?>
<!-- Generator: Adobe Illustrator 26.3.1, SVG Export Plug-In . SVG Version: 6.00 Build 0)  -->
<svg version="1.1" id="Layer_1" xmlns="http://www.w3.org/2000/svg" xmlns:xlink="http://www.w3.org/1999/xlink" x="0px" y="0px"
	 viewBox="0 0 152.8 100" style="enable-background:new 0 0 152.8 100;" xml:space="preserve">
<style type="text/css">
	.st0{fill:#929394;}
</style>
<g id="AWAK">
	<path class="st0" d="M33.4,41.3c-1.4-3.3-2.6-6.2-6.5-6.2c-3.8,0-5,2.9-6.4,6.2L13.1,59c-1,2.4-1.1,3.2-1.1,4.2
		c0,1.7,1.5,2.8,3.7,2.8c2.5,0,3.3-1.4,4-3.3l0.9-2.7h12.6l0.9,2.7c0.7,1.9,1.5,3.3,4,3.3c2.2,0,3.7-1.1,3.7-2.8
		c0-1-0.1-1.8-1.1-4.2L33.4,41.3z M22.9,53.6l2.8-7.4l0,0l0.3-0.8l1-2.7l0,0l0.9-2.3c0.1-0.3,0.2-0.4,0.2-0.4l-0.2,0.4
		c-0.3,1.1-0.4,2.3-0.4,3.5l3.4,9.8L22.9,53.6L22.9,53.6z"/>
	<path class="st0" d="M102.5,41.3c-1.4-3.3-2.6-6.2-6.5-6.2c-3.8,0-5,2.9-6.4,6.2L82.3,59c-1,2.4-1.1,3.2-1.1,4.2
		c0,1.7,1.5,2.8,3.7,2.8c2.5,0,3.3-1.4,4-3.3l0.9-2.7h12.6l0.9,2.7c0.7,1.9,1.5,3.3,4,3.3c2.2,0,3.7-1.1,3.7-2.8
		c0-1-0.1-1.8-1.1-4.2L102.5,41.3z M92.1,53.6l4.1-11l0,0l0.9-2.3c0.1-0.3,0.2-0.4,0.2-0.4l-0.2,0.4c-0.4,1.1-0.5,2.3-0.4,3.5l0,0
		l3.4,9.8H92.1z"/>
	<path class="st0" d="M85.3,38.7c0.2-1.6-0.4-3.2-2.9-3.3c-2.5-0.2-3.3,1.3-4,3L72.2,53l-1.8,4.4c-0.1,0.3-0.2,0.4-0.2,0.4l0.2-0.4
		c0.3-1.1,0.5-2.3,0.4-3.5l-5.1-14.4c-0.9-2.6-2.1-4-4.1-4s-2.9,1.7-3.9,4.3l-6,14.9l0,0L50.8,57c-0.1,0.3-0.2,0.4-0.2,0.4l0.2-0.4
		c0.4-1.2,0.5-2.6,0.3-3.9V53l-5.7-13.7c-1.8-3.3-2.4-4.5-4.9-4.2c-2,0.2-2.7,2.2-2.6,3.7c0.2,1.2,0.5,2.4,1,3.5l7.5,18.9
		c1.4,3.9,2,4.7,4.8,4.7c2.9,0,4.3-1,5.4-3.7l4.9-13.7h0.1l4.9,13.7c0.9,2.4,2,3.7,5,3.7c3.6,0,3.8-1.9,5.7-5l7.3-18.6
		C84.8,41.1,85.1,39.9,85.3,38.7z"/>
	<path class="st0" d="M138.7,59.3l-10-9.6l9.1-8.2c0.8-0.7,1.4-1.7,1.5-2.7c0-1.8-2.1-3.3-3.8-3.3c-1.1,0-2.1,0.2-3.6,1.7
		l-10.5,10.2v-8.3c0-2.4-1.6-3.6-3.8-3.6c-2.2,0-3.8,1.2-3.8,3.6v23.2c0,2.4,1.6,3.6,3.8,3.6c2.2,0,3.8-1.2,3.8-3.6v-9.9l10.7,10.7
		c1.2,1.2,2.7,2.9,4.7,2.9c2.1,0,4-1.2,4-3.4C140.8,61.3,139.9,60.4,138.7,59.3z"/>
</g>
</svg>
