<?xml version="1.0" encoding="utf-8"?>
<!-- Generator: Adobe Illustrator 26.3.1, SVG Export Plug-In . SVG Version: 6.00 Build 0)  -->
<svg version="1.1" id="Layer_1" xmlns="http://www.w3.org/2000/svg" xmlns:xlink="http://www.w3.org/1999/xlink" x="0px" y="0px"
	 viewBox="0 0 200.7 90" style="enable-background:new 0 0 200.7 90;" xml:space="preserve">
<g transform="translate(102.605 30.896)">
	<path fill="#009FE3" d="M-80.4,0h6.9l10.1,27.5h-6.8l-2.1-6.3H-82l-2.1,6.3h-6.5L-80.4,0z M-73.8,16.5L-77.2,6l-3.4,10.4h6.8V16.5z"/>
	<path fill="#009FE3" d="M-61.8,0h6v14.3l5.9-6.1h6.7l-7,7.1l7.9,12.2h-6.9l-5-8.1l-1.8,1.8v6.4h-6L-61.8,0L-61.8,0z"/>
	<path fill="#009FE3" d="M-29.8,25.8c-0.7,0.8-1.6,1.4-2.5,1.8c-1.1,0.4-2.2,0.6-3.4,0.6c-0.7,0-1.5-0.1-2.2-0.3
		c-0.8-0.2-1.5-0.5-2.1-1c-0.7-0.5-1.2-1.1-1.6-1.8c-0.5-0.9-0.7-1.9-0.7-2.9s0.2-2.1,0.7-3c0.4-0.9,1.1-1.6,1.8-2.2
		c0.9-0.6,1.8-1.1,2.9-1.3c1.1-0.3,2.3-0.5,3.5-0.4h2.1c0.7,0,1.2,0.1,1.3,0.1V15c0-0.9-0.4-1.7-1.2-2.1c-0.4-0.3-0.8-0.4-1.2-0.5
		c-0.5-0.1-0.9-0.2-1.4-0.2c-1.1,0-2.2,0.1-3.3,0.5c-0.8,0.3-1.5,0.6-2.2,1.1l-2.4-3.6c0.4-0.3,0.9-0.7,1.4-0.9
		c0.6-0.3,1.2-0.6,1.8-0.8c1.8-0.6,3.7-0.9,5.5-0.8c2.9,0,5.1,0.8,6.5,2.4c1.5,1.8,2.2,4.1,2.1,6.4v11.3h-5.5L-29.8,25.8z M-29.8,19
		c-0.2,0-0.4-0.1-0.8-0.1s-0.8-0.1-1.3-0.1c-1.2-0.1-2.4,0.1-3.5,0.7c-0.7,0.4-1,1.2-1,2c0,1.6,0.9,2.4,2.9,2.4
		c0.5,0,0.9-0.1,1.3-0.3c0.4-0.1,0.8-0.4,1.2-0.7c0.3-0.3,0.6-0.6,0.8-1c0.2-0.4,0.4-0.9,0.3-1.4L-29.8,19L-29.8,19z"/>
	<path fill="#009FE3" d="M-7.5,25.6c-0.6,0.8-1.4,1.4-2.4,1.8c-1,0.5-2.1,0.8-3.3,0.8s-2.3-0.2-3.4-0.7c-1-0.5-1.9-1.2-2.7-2
		c-0.8-0.9-1.4-2-1.8-3.1c-0.4-1.3-0.7-2.7-0.7-4.1c-0.1-3,1.1-5.8,3.3-7.8c1-0.8,2.1-1.5,3.3-1.9c1.1-0.4,2.3-0.7,3.5-0.7
		c0.7,0,1.5,0.1,2.2,0.2c0.6,0.1,1.1,0.3,1.6,0.5V0.1H-2v27.5h-5.4L-7.5,25.6z M-7.6,13.5C-8,13.3-8.4,13.1-8.9,13
		c-0.6-0.1-1.2-0.2-1.8-0.2c-1.3-0.1-2.6,0.5-3.5,1.5c-0.9,1.1-1.3,2.5-1.3,3.9c-0.1,1.2,0.3,2.4,1,3.4c0.7,0.9,1.9,1.5,3.1,1.3
		c0.6,0,1.2-0.1,1.7-0.3c0.5-0.2,0.9-0.5,1.2-0.9s0.5-0.9,0.7-1.3c0.1-0.5,0.2-1.1,0.2-1.6L-7.6,13.5L-7.6,13.5z"/>
	<path fill="#009FE3" d="M20.1,25.4c-0.3,0.2-0.7,0.4-1,0.7c-0.5,0.4-1.1,0.7-1.7,0.9c-0.8,0.4-1.7,0.6-2.5,0.8
		c-1.1,0.2-2.2,0.4-3.3,0.3c-1.5,0-3-0.2-4.5-0.8c-1.3-0.4-2.4-1.2-3.4-2.1c-0.9-0.9-1.6-2-2.1-3.3c-0.4-1.2-0.6-2.6-0.6-4
		c0-1.3,0.2-2.6,0.7-3.9c0.4-1.2,1.1-2.3,1.9-3.3C4.5,9.8,5.5,9,6.7,8.4C8,7.8,9.5,7.5,10.9,7.6c1.4,0,2.8,0.2,4.1,0.8
		c1.1,0.6,2.2,1.3,3,2.3s1.5,2.2,1.8,3.5c0.4,1.4,0.6,2.9,0.6,4.5v1H6.8c0.1,1.1,0.5,2.1,1.3,2.8c1.1,0.8,2.4,1.2,3.7,1.2
		c1.3,0,2.6-0.2,3.8-0.7c0.7-0.3,1.4-0.7,2.1-1.2L20.1,25.4z M14.9,15.9c0-0.4-0.1-0.9-0.3-1.3c-0.2-0.4-0.4-0.8-0.8-1.2
		s-0.8-0.7-1.3-0.9c-0.6-0.2-1.2-0.4-1.8-0.3c-0.6,0-1.3,0.1-1.8,0.3c-0.9,0.4-1.6,1.2-2,2.1c-0.2,0.4-0.2,0.8-0.3,1.3L14.9,15.9z"
		/>
	<path fill="#009FE3" d="M23.1,8.2h5.7l0.2,2.2c0.6-0.8,1.4-1.4,2.4-1.8c1-0.5,2.1-0.8,3.3-0.8c0.7,0,1.4,0.1,2.1,0.3
		c0.6,0.2,1.1,0.4,1.6,0.7c0.4,0.3,0.8,0.5,1.2,0.8c0.3,0.3,0.6,0.6,0.8,0.9c0.8-0.9,1.8-1.6,2.9-2c1.1-0.5,2.3-0.7,3.5-0.7
		c2.1-0.1,4.2,0.6,5.7,2.1c1.4,1.6,2.1,3.6,1.9,5.7v11.9h-6v-11c0.1-1-0.2-1.9-0.8-2.7c-0.6-0.7-1.4-1-2.3-0.9
		c-1.1,0-2.1,0.4-2.8,1.2c-0.7,0.9-1,1.9-1,3v10.4h-5.7v-11c0.1-1-0.2-1.9-0.8-2.7c-0.6-0.7-1.4-1-2.3-0.9c-1,0-2,0.4-2.8,1.2
		C29.4,15,29,16,29,17.1v10.4h-6V8.2H23.1z"/>
	<path fill="#009FE3" d="M57.8,0h6.4v5.3h-6.4V0z M58.1,8.2h6v19.3h-6V8.2z"/>
	<path fill="#009FE3" d="M86,25.4c-0.3,0.2-0.7,0.4-1,0.7c-0.5,0.4-1.1,0.7-1.7,0.9c-0.8,0.4-1.7,0.6-2.5,0.8c-1.1,0.2-2.2,0.4-3.3,0.3
		c-1.5,0-3-0.2-4.5-0.8c-1.3-0.4-2.4-1.2-3.4-2.1c-0.9-0.9-1.6-2-2.1-3.3s-0.8-2.8-0.8-4.2c0-1.3,0.2-2.6,0.7-3.9
		c0.4-1.2,1.1-2.3,1.9-3.3c0.9-0.9,1.9-1.7,3.1-2.3c1.3-0.6,2.8-0.9,4.2-0.8c1.4,0,2.8,0.2,4.1,0.8c1.1,0.6,2.2,1.3,3,2.3
		s1.5,2.2,1.8,3.5c0.4,1.4,0.6,2.9,0.6,4.5v1H72.5c0.1,1.1,0.5,2.1,1.3,2.8c1.1,0.8,2.4,1.2,3.7,1.2c1.3,0,2.6-0.2,3.8-0.7
		c0.7-0.3,1.4-0.7,2.1-1.2L86,25.4z M80.8,15.9c0-0.4-0.1-0.9-0.3-1.3c-0.2-0.4-0.4-0.8-0.8-1.2s-0.8-0.7-1.3-0.9
		c-0.6-0.2-1.2-0.4-1.8-0.3c-0.6,0-1.3,0.1-1.8,0.3c-0.9,0.4-1.6,1.2-2,2.1c-0.2,0.4-0.2,0.8-0.3,1.3L80.8,15.9z"/>
</g>
</svg>
