<svg xmlns="http://www.w3.org/2000/svg" viewBox="0 0 305 100">
  <g fill="#149ed9">
    <path d="M125.7308,35.13115h7.54375l11.02036,30.12712H136.8416L134.538,58.3476H123.92466l-2.30356,6.91067h-7.13677Zm7.182,17.931-3.6575-11.38212L125.5047,53.06218Z"></path>
    <path d="M163.89908,62.45729a11.14272,11.14272,0,0,1-3.45533,2.48444,11.57234,11.57234,0,0,1-5.08326,1.04,12.56029,12.56029,0,0,1-4.67361-.83523,10.38049,10.38049,0,0,1-3.591-2.34878,10.79188,10.79188,0,0,1-2.32484-3.591,12.0966,12.0966,0,0,1-.8379-4.56189,11.31862,11.31862,0,0,1,.85918-4.40495,11.19359,11.19359,0,0,1,2.37272-3.591,10.96513,10.96513,0,0,1,3.61227-2.41793,11.76714,11.76714,0,0,1,4.58317-.88046,12.19439,12.19439,0,0,1,5.0141.94962,10.69293,10.69293,0,0,1,3.56971,2.52965l-3.92881,4.24536a7.64025,7.64025,0,0,0-1.76358-1.44438,5.23806,5.23806,0,0,0-2.75576-.63308,4.5317,4.5317,0,0,0-2.09873.47348,5.11,5.11,0,0,0-1.58,1.24222,5.27786,5.27786,0,0,0-.99484,1.78485,6.7429,6.7429,0,0,0-.33782,2.14662,6.45076,6.45076,0,0,0,.33782,2.05352,5.50864,5.50864,0,0,0,.99484,1.80614,5.16779,5.16779,0,0,0,1.58,1.28743,4.35285,4.35285,0,0,0,2.09873.49742,5.51079,5.51079,0,0,0,2.801-.65436,7.11857,7.11857,0,0,0,1.80614-1.42309Z"></path>
    <path d="M177.80288,63.27125a7.09382,7.09382,0,0,1-2.73447,1.9418,9.78459,9.78459,0,0,1-6.0515.36176,6.92854,6.92854,0,0,1-2.30355-1.06134,5.88229,5.88229,0,0,1-1.76092-2.011,6.4438,6.4438,0,0,1-.69958-3.16008,7.08029,7.08029,0,0,1,.7448-3.29839,6.92277,6.92277,0,0,1,2.05352-2.41794,9.35957,9.35957,0,0,1,3.09357-1.46566,14.32536,14.32536,0,0,1,3.86232-.49741q1.12917,0,2.28227.04522a9.13615,9.13615,0,0,1,1.51354.13566v-.4522a2.63279,2.63279,0,0,0-.34048-1.37788,3.06584,3.06584,0,0,0-.90174-.94962,3.64289,3.64289,0,0,0-1.28743-.54,7.11856,7.11856,0,0,0-1.53748-.1596,10.18612,10.18612,0,0,0-3.591.54264,11.80636,11.80636,0,0,0-2.41527,1.21828l-2.66532-3.974a16.80465,16.80465,0,0,1,1.53748-.99218,11.48288,11.48288,0,0,1,2.03224-.90439,16.38282,16.38282,0,0,1,2.64137-.65436,20.41245,20.41245,0,0,1,3.3649-.25q4.83187,0,7.13677,2.59881a10.13574,10.13574,0,0,1,2.30355,6.97717V65.25827h-6.09671Zm0-7.36287c-.15162-.02926-.4389-.0665-.85918-.11172a13.69068,13.69068,0,0,0-1.44437-.06916,7.10891,7.10891,0,0,0-3.841.76874,2.46825,2.46825,0,0,0-1.12784,2.1679q0,2.61742,3.16008,2.62009a4.69041,4.69041,0,0,0,1.51354-.25,4.21439,4.21439,0,0,0,1.31137-.69958,3.63265,3.63265,0,0,0,.92568-1.12784,3.33256,3.33256,0,0,0,.36176-1.58269Z"></path>
    <path d="M201.47419,63.13559a8.07154,8.07154,0,0,1-2.5536,1.96574,7.763,7.763,0,0,1-3.54577.79,8.73372,8.73372,0,0,1-3.63622-.76873,8.51087,8.51087,0,0,1-2.934-2.19184,10.54946,10.54946,0,0,1-1.96574-3.4314,13.3629,13.3629,0,0,1-.72352-4.54061,11.56745,11.56745,0,0,1,1.01612-4.99015,10.72606,10.72606,0,0,1,2.62009-3.54578,11.01423,11.01423,0,0,1,3.56972-2.10139,11.47891,11.47891,0,0,1,3.86231-.69958,10.93713,10.93713,0,0,1,2.394.20482,17.99784,17.99784,0,0,1,1.76092.5187V35.13115H207.797V65.25827h-6.05149Zm-.13566-13.23348a4.98179,4.98179,0,0,0-1.46832-.58786,9.04167,9.04167,0,0,0-1.96574-.18088,4.73818,4.73818,0,0,0-3.86231,1.67048,6.52884,6.52884,0,0,0-1.37522,4.29057,6.00716,6.00716,0,0,0,1.12784,3.77187,4.00547,4.00547,0,0,0,3.38883,1.46832,4.25458,4.25458,0,0,0,1.87264-.383,3.73887,3.73887,0,0,0,2.05618-2.50837,6.949,6.949,0,0,0,.2261-1.76092Z"></path>
    <path d="M230.88044,62.95471q-.3591.22743-1.08261.7448a10.00371,10.00371,0,0,1-1.8753,1.01612,16.95644,16.95644,0,0,1-2.73182.88046,15.42017,15.42017,0,0,1-3.61493.38569,13.51149,13.51149,0,0,1-4.87843-.83523,10.60232,10.60232,0,0,1-3.67878-2.3275,9.77669,9.77669,0,0,1-2.30356-3.591,12.98428,12.98428,0,0,1-.79268-4.62839,12.414,12.414,0,0,1,.74746-4.26929,10.62465,10.62465,0,0,1,2.144-3.591,10.45671,10.45671,0,0,1,3.43406-2.46315,11.02891,11.02891,0,0,1,4.60711-.92568,10.62773,10.62773,0,0,1,4.51667.9044,9.35485,9.35485,0,0,1,3.27446,2.50571,10.85382,10.85382,0,0,1,2.011,3.841,16.9002,16.9002,0,0,1,.67564,4.89971v1.08528H216.24781a4.0399,4.0399,0,0,0,1.51353,3.00313,5.90918,5.90918,0,0,0,4.04054,1.28744,9.74232,9.74232,0,0,0,4.11235-.7448,14.23072,14.23072,0,0,0,2.30356-1.28744ZM225.19071,52.4291a3.786,3.786,0,0,0-.27132-1.37521,4.01952,4.01952,0,0,0-.814-1.28744,4.327,4.327,0,0,0-1.35393-.9709,4.48348,4.48348,0,0,0-1.9418-.3857,4.78067,4.78067,0,0,0-1.987.3857,4.44237,4.44237,0,0,0-1.4231.9709,4.16673,4.16673,0,0,0-.85917,1.28744,3.515,3.515,0,0,0-.2926,1.37521Z"></path>
    <path d="M233.41542,44.07406h6.23237l.2261,2.34877a8.08836,8.08836,0,0,1,2.52966-2.03223,7.61485,7.61485,0,0,1,3.61493-.814,8.616,8.616,0,0,1,2.25834.27132,7.17717,7.17717,0,0,1,3.04835,1.64919,7.18636,7.18636,0,0,1,.92568,1.01612,8.9354,8.9354,0,0,1,3.184-2.16789,10.23212,10.23212,0,0,1,3.90753-.76874,8.07754,8.07754,0,0,1,6.21109,2.30355,8.86457,8.86457,0,0,1,2.144,6.28025V65.25827h-6.50369V53.19784a4.58952,4.58952,0,0,0-.83524-2.93663,3.02958,3.02958,0,0,0-2.50571-1.0374,3.79456,3.79456,0,0,0-3.02708,1.30872,4.94106,4.94106,0,0,0-1.1305,3.34361V65.25827h-6.27759V53.19784a4.58952,4.58952,0,0,0-.83524-2.93663,3.03159,3.03159,0,0,0-2.50837-1.0374,3.81252,3.81252,0,0,0-3.00314,1.30872,4.88805,4.88805,0,0,0-1.15178,3.34361V65.25827h-6.50369Z"></path>
    <path d="M270.86019,68.60188a7.36383,7.36383,0,0,0,1.197.72086,3.24232,3.24232,0,0,0,1.4231.31654,2.45037,2.45037,0,0,0,1.73964-.65436,6.345,6.345,0,0,0,1.33266-2.23706l.63308-1.71569-9.66643-20.95811h7.40809l5.28275,13.36914,4.788-13.36914h6.91067l-8.67159,21.04855q-.72219,1.76357-1.4231,3.50055a14.03243,14.03243,0,0,1-1.7157,3.11752,8.2096,8.2096,0,0,1-2.48443,2.23439,7.2019,7.2019,0,0,1-3.68144.85918,10.1421,10.1421,0,0,1-3.11751-.4522,8.99755,8.99755,0,0,1-2.57222-1.30872Z"></path>
  </g>
  <g id="BMI_Block">
    <rect width="100" height="100" fill="#009fe3"></rect>
    <g fill="white">
      <path d="M62.176,34.911,57.84,52.77h-.084L53.417,34.911H40.11v20.28a7.315,7.315,0,0,0-5.239-6.716c2.255-1.235,3.742-2.891,3.742-5.953,0-3.1-1.7-7.611-9.693-7.611H12.3V65.27H29.515c5.121,0,10.16-2.878,10.6-8.443V65.27h8.844V45.8h.084L54.31,65.27h6.973L66.555,45.8h.085V65.27h8.844V34.911ZM21.65,42.139h4.933c1.913,0,3.188.554,3.188,2.084,0,1.956-1.233,2.507-3.188,2.507H21.65Zm5.485,15.9H21.65V52.386h5.867c2.211,0,3.272.978,3.272,2.763,0,2.339-1.7,2.891-3.655,2.891"></path>
      <rect x="78.358" y="34.914" width="9.354" height="30.356"></rect>
    </g>
  </g>
</svg>
