<?xml version="1.0" encoding="utf-8"?>
<!-- Generator: Adobe Illustrator 26.3.1, SVG Export Plug-In . SVG Version: 6.00 Build 0)  -->
<svg version="1.1" id="Layer_1" xmlns="http://www.w3.org/2000/svg" xmlns:xlink="http://www.w3.org/1999/xlink" x="0px" y="0px"
	 viewBox="0 0 223.9 100" style="enable-background:new 0 0 223.9 100;" xml:space="preserve">
<g id="Braas">
	<path fill="#E2001A" d="M17.5,52H37c3.8,0,4.8,0.7,4.8,3.4v2.1c0,1.9-0.7,3.1-4.2,3.1H17.5V52z M40.7,44.3c0,1.2-0.4,2.8-3.6,2.8H17.5
		v-7.7h19.8c0.6,0,3.4,0.1,3.4,2.3V44.3z M43.7,48.9c1.6-0.9,2.6-2.7,2.5-4.5v-2.5c0-2.7-1.1-7.3-8.5-7.3H12v30.8h26.1
		c5.6,0,9.3-2.8,9.3-7v-3.5C47.3,51.8,46.1,49.8,43.7,48.9"/>
	<path fill="#E2001A" d="M56.6,39.4h17.2c5.8,0,6.4,1.1,6.4,3.5v2.7c0,2.2-0.9,3.4-5.4,3.4H56.6V39.4z M75.2,34.6H51.1v30.8h5.5V53.8
		h18.5c3.4,0,5,0.4,5,4.3v7.2h5.3v-8.2c0-2.6-0.9-4.3-2.9-5.4c1.8-0.7,3.3-2.3,3.3-5.7v-2.4C85.8,37.8,84.1,34.6,75.2,34.6"/>
	<path fill="#E2001A" d="M117.1,54.4h-16.8l8.4-14.2L117.1,54.4z M105.8,34.6L87.5,65.4h6.3l3.6-6.2h22.5l3.6,6.2h6.3l-18.3-30.8
		C111.5,34.6,105.8,34.6,105.8,34.6z"/>
	<path fill="#E2001A" d="M161,54.4h-16.8l8.4-14.2L161,54.4z M149.7,34.6l-18.3,30.8h6.3l3.6-6.2h22.5l3.6,6.2h6.3l-18.3-30.8
		C155.4,34.6,149.7,34.6,149.7,34.6z"/>
	<path fill="#E2001A" d="M193.9,66c15.5,0,18-2.3,18-9.6c0-7.2-2-9-9.9-9.2L185.8,47c-3.3,0-4.3-0.9-4.3-3.7c0-3.6,1-4.4,12-4.4
		c10.8,0,11.9,0.8,11.9,4.7v0.8h5.9v-1.2c0-7-1.4-9.2-17.8-9.2c-15.2,0-17.6,2.2-17.6,9.2s2,8.8,10,8.9l16.1,0.2
		c3.4,0,4.3,0.9,4.3,4c0,4-1,4.8-12.3,4.8c-10.8,0-12.3-0.6-12.3-4.7V55h-5.9v1.8C175.6,63.8,177,66,193.9,66z"/>
</g>
</svg>
