<svg xmlns="http://www.w3.org/2000/svg" viewBox="0 0 365 100">
  <g id="Bramac" fill="#e2001a">
    <path d="M119.98119,52.01857H139.626c3.84864,0,4.84584.70313,4.84584,3.42261v2.113c0,1.9388-.70984,3.13843-4.23616,3.13843H119.98119Zm23.35272-7.67682c0,1.20743-.37337,2.814-3.5859,2.814H119.98119V39.37523h19.96925c.56454,0,3.38347.11072,3.38347,2.28227Zm3.04115,4.60325a4.99068,4.99068,0,0,0,2.55374-4.5631V41.85921c0-2.7449-1.12026-7.35032-8.61163-7.35032H114.38493v31.048H140.723c5.67636,0,9.34372-2.77314,9.34372-7.06888v-3.4939c0-3.09827-1.24058-5.12091-3.6917-6.04907"></path>
    <path d="M159.46052,39.37523h17.32841c5.859,0,6.47077,1.0812,6.47077,3.54329V45.602c0,2.19265-.8992,3.46356-5.49646,3.46356H159.46052Zm18.74983-4.86634H153.86426v31.048h5.59626V53.92913h18.62923c3.43257,0,5.048.42877,5.048,4.3585v7.26922h5.35151V57.22976c0-2.61722-.95033-4.39172-2.94871-5.43759,1.79248-.74408,3.31616-2.31542,3.31616-5.74085V43.65054c0-5.927-1.69722-9.14165-10.64633-9.14165"></path>
    <path d="M220.41624,54.47142H203.4846l8.46424-14.319ZM209.01139,34.50889l-18.4395,31.048h6.38973l3.65964-6.22045h22.65732l3.66072,6.22045h6.38756l-18.4374-31.048Z"></path>
    <polygon points="255.108 57.287 243.067 34.448 235.556 34.448 235.556 65.496 241.152 65.496 241.152 42.161 253.292 65.518 256.57 65.469 269.103 42.2 269.103 65.496 274.697 65.496 274.697 34.448 267.185 34.448 255.108 57.287"></polygon>
    <path d="M306.63423,54.47142H289.70086l8.46741-14.319ZM295.22728,34.50889l-18.437,31.048h6.38692l3.65957-6.22045h22.66093l3.65746,6.22045h6.39256L301.105,34.50889Z"></path>
    <path d="M349.1815,54.06591v2.63348c0,3.29146-.84207,4.31762-6.1062,4.31762h-12.601c-4.3374,0-6.10548-1.58052-6.10548-5.45378V44.50532c0-3.87542,1.76808-5.45659,6.10548-5.45659H342.9526c4.04044,0,5.944.43866,5.944,4.43823v2.14751h5.1082V42.31058c0-3.70758-1.74127-8.12538-10.03521-8.12538H330.0674c-8.02238,0-11.29551,3.42615-11.29551,11.82308v8.04991c0,8.39829,3.27313,11.82516,11.29551,11.82516h13.699c8.96608,0,10.76657-3.45085,10.76657-9.021v-2.7964Z"></path>
  </g>
  <g id="BMI_Block">
    <rect width="100" height="100" fill="#009fe3"></rect>
    <g fill="white">
      <path d="M62.176,34.911,57.84,52.77h-.084L53.417,34.911H40.11v20.28a7.315,7.315,0,0,0-5.239-6.716c2.255-1.235,3.742-2.891,3.742-5.953,0-3.1-1.7-7.611-9.693-7.611H12.3V65.27H29.515c5.121,0,10.16-2.878,10.6-8.443V65.27h8.844V45.8h.084L54.31,65.27h6.973L66.555,45.8h.085V65.27h8.844V34.911ZM21.65,42.139h4.933c1.913,0,3.188.554,3.188,2.084,0,1.956-1.233,2.507-3.188,2.507H21.65Zm5.485,15.9H21.65V52.386h5.867c2.211,0,3.272.978,3.272,2.763,0,2.339-1.7,2.891-3.655,2.891"></path>
      <rect x="78.358" y="34.914" width="9.354" height="30.356"></rect>
    </g>
  </g>
</svg>
