<?xml version="1.0" encoding="utf-8"?>
<!-- Generator: Adobe Illustrator 26.3.1, SVG Export Plug-In . SVG Version: 6.00 Build 0)  -->
<svg version="1.1" id="Layer_1" xmlns="http://www.w3.org/2000/svg" xmlns:xlink="http://www.w3.org/1999/xlink" x="0px" y="0px"
	 viewBox="0 0 264.2 100" style="enable-background:new 0 0 264.2 100;" xml:space="preserve">
<g id="Bramac">
	<path fill="#E2001A" d="M17.6,52h19.6c3.8,0,4.8,0.7,4.8,3.4v2.1c0,1.9-0.7,3.1-4.2,3.1H17.6V52z M40.9,44.3c0,1.2-0.4,2.8-3.6,2.8
		H17.6v-7.8h20c0.6,0,3.4,0.1,3.4,2.3L40.9,44.3L40.9,44.3z M44,48.9c1.6-0.9,2.6-2.7,2.6-4.6v-2.5c0-2.7-1.1-7.4-8.6-7.4H12v31
		h26.3c5.7,0,9.3-2.8,9.3-7.1V55C47.7,51.9,46.4,49.9,44,48.9"/>
	<path fill="#E2001A" d="M57.1,39.4h17.3c5.9,0,6.5,1.1,6.5,3.5v2.7c0,2.2-0.9,3.5-5.5,3.5H57.1V39.4z M75.8,34.5H51.5v31h5.6V53.9
		h18.6c3.4,0,5,0.4,5,4.4v7.3h5.4v-8.3c0-2.6-1-4.4-2.9-5.4c1.8-0.7,3.3-2.3,3.3-5.7v-2.4C86.5,37.7,84.8,34.5,75.8,34.5"/>
	<path fill="#E2001A" d="M118,54.5h-16.9l8.5-14.3L118,54.5z M106.6,34.5l-18.4,31h6.4l3.7-6.2H121l3.7,6.2h6.4l-18.4-31H106.6z"/>
	<polygon fill="#E2001A" points="152.7,57.3 140.7,34.4 133.2,34.4 133.2,65.5 138.8,65.5 138.8,42.2 150.9,65.5 154.2,65.5 
		166.7,42.2 166.7,65.5 172.3,65.5 172.3,34.4 164.8,34.4 	"/>
	<path fill="#E2001A" d="M204.2,54.5h-16.9l8.5-14.3L204.2,54.5z M192.8,34.5l-18.4,31h6.4l3.7-6.2h22.7l3.7,6.2h6.4l-18.4-31H192.8z"
		/>
	<path fill="#E2001A" d="M246.8,54.1v2.6c0,3.3-0.8,4.3-6.1,4.3h-12.6c-4.3,0-6.1-1.6-6.1-5.5v-11c0-3.9,1.8-5.5,6.1-5.5h12.5
		c4,0,5.9,0.4,5.9,4.4v2.1h5.1v-3.3c0-3.7-1.7-8.1-10-8.1h-13.9c-8,0-11.3,3.4-11.3,11.8v8c0,8.4,3.3,11.8,11.3,11.8h13.7
		c9,0,10.8-3.5,10.8-9v-2.8L246.8,54.1z"/>
</g>
</svg>
