<?xml version="1.0" encoding="utf-8"?>
<!-- Generator: Adobe Illustrator 26.3.1, SVG Export Plug-In . SVG Version: 6.00 Build 0)  -->
<svg version="1.1" id="Layer_1" xmlns="http://www.w3.org/2000/svg" xmlns:xlink="http://www.w3.org/1999/xlink" x="0px" y="0px"
	 viewBox="0 0 205.7 100" style="enable-background:new 0 0 205.7 100;" xml:space="preserve">
<g id="Cobert">
	<path fill="#009FE3" d="M30.3,34c1.8,0,3.5,0.2,5.2,0.6c1.9,0.5,3.8,1.2,5.5,2.1v5.7c-1.7-1-3.5-1.8-5.3-2.4c-1.7-0.5-3.4-0.7-5.1-0.7
		c-2.1,0-4.2,0.4-6,1.4c-1.7,0.9-3.2,2.2-4.2,3.9c-2,3.5-2,7.7,0,11.2c1,1.7,2.4,3,4.2,3.8c1.9,0.9,3.9,1.4,6,1.4
		c1.7,0,3.3-0.2,4.9-0.7c2-0.7,4-1.6,5.9-2.7v5.7c-1.8,1-3.7,1.7-5.6,2.3c-1.9,0.5-3.9,0.7-6,0.7c-3.1,0.1-6.1-0.6-8.8-2
		c-2.5-1.3-4.7-3.2-6.1-5.7c-1.5-2.6-2.3-5.4-2.3-8.3c0-3,0.8-5.9,2.3-8.5c1.5-2.5,3.7-4.5,6.3-5.8C24,34.6,27.1,34,30.3,34z"/>
	<path fill="#009FE3" d="M62.7,34c3,0,6,0.6,8.7,2c7.8,4.1,10.7,13.6,6.7,21.4c-0.1,0.3-0.3,0.5-0.4,0.8c-1.5,2.5-3.6,4.5-6.2,5.8
		c-5.6,2.8-12.1,2.8-17.7,0c-5.2-2.7-8.5-8.1-8.4-13.9c0-2.8,0.8-5.6,2.2-8.1s3.6-4.5,6.1-5.9C56.5,34.7,59.6,33.9,62.7,34z
		 M51.6,50c0,2,0.5,3.9,1.4,5.6c0.9,1.6,2.3,3,3.9,3.8c1.8,0.9,3.7,1.4,5.7,1.4c2.9,0.1,5.8-1,7.9-3s3.2-4.9,3.1-7.8
		c0-2-0.5-3.9-1.4-5.6c-0.9-1.6-2.3-3-3.9-3.9c-3.6-1.8-7.8-1.8-11.4,0c-1.6,0.9-3,2.2-3.9,3.8C52.1,46.2,51.6,48.1,51.6,50z"/>
	<path fill="#009FE3" d="M97,34.4c2.5-0.1,5,0.7,7,2.2c1.7,1.3,2.7,3.4,2.7,5.6c0,1.3-0.4,2.7-1.1,3.8c-0.8,1.2-2,2.1-3.3,2.6v0.3
		c2,0.4,3.8,1.4,5.1,2.9c1.2,1.4,1.9,3.2,1.8,5.1c0,1.6-0.4,3.3-1.3,4.6c-0.9,1.4-2.2,2.4-3.7,3.1c-1.8,0.7-3.7,1.1-5.6,1h-13V34.4
		H97z M95.4,47.4c1.4,0.1,2.7-0.3,3.8-1.1c0.9-0.8,1.4-2,1.4-3.2c0-1.1-0.4-2.2-1.3-2.9c-1-0.7-2.1-1.1-3.4-1.1h-4.3v8.3H95.4z
		 M96.8,60.9c1.6,0.1,3.2-0.3,4.6-1.2c1.1-0.8,1.6-2.1,1.6-3.4c0-1.2-0.5-2.4-1.6-3.1c-1.2-0.8-2.7-1.2-4.2-1.2h-5.6v8.8h5.2V60.9z"
		/>
	<path fill="#009FE3" d="M134.5,34.4v4.7h-14.2v8.2h13.6V52h-13.6v8.9h14.5v4.7h-20.5V34.4H134.5z"/>
	<path fill="#009FE3" d="M151.8,34.4c2.6-0.1,5.2,0.8,7.2,2.4c1.8,1.6,2.9,3.9,2.8,6.4c0,1.7-0.4,3.3-1.4,4.6c-1,1.4-2.5,2.5-4.1,3.1
		c1,0.6,1.9,1.3,2.7,2.2c1.1,1.5,2.1,3,2.9,4.7c1.9,3.8,3.3,6.4,4.3,7.8h-6.7c-0.5-0.7-1.1-1.8-1.9-3.3c-1.1-2.3-2.4-4.6-3.8-6.7
		c-0.6-1-1.4-1.8-2.3-2.5c-0.8-0.5-1.7-0.7-2.6-0.7h-2.2v13.2h-6V34.4H151.8z M150.4,47.7c1.3,0.1,2.7-0.3,3.7-1.2
		c0.9-0.8,1.4-2,1.4-3.2c0.1-1.2-0.4-2.4-1.3-3.2c-1.1-0.8-2.5-1.1-3.8-1.1h-3.8v8.7H150.4z"/>
	<path fill="#009FE3" d="M193.7,34.4v4.7h-11.1v26.5h-6V39.1h-11.1v-4.7C165.5,34.4,193.7,34.4,193.7,34.4z"/>
</g>
</svg>
