<?xml version="1.0" encoding="utf-8"?>
<!-- Generator: Adobe Illustrator 26.3.1, SVG Export Plug-In . SVG Version: 6.00 Build 0)  -->
<svg version="1.1" id="Layer_1" xmlns="http://www.w3.org/2000/svg" xmlns:xlink="http://www.w3.org/1999/xlink" x="0px" y="0px"
	 viewBox="0 0 219.1 100" style="enable-background:new 0 0 219.1 100;" xml:space="preserve">
<style type="text/css">
	.st0{fill:#E2001A;}
</style>
<g id="Coverland">
	<path class="st0" d="M33.3,42.8c-0.4-0.7-0.9-1.2-1.5-1.7c-1.3-1-2.8-1.6-4.5-1.6c-1.4,0-2.7,0.3-3.9,0.9c-1.1,0.6-1.9,1.4-2.6,2.4
		c-0.7,1-1.2,2.2-1.5,3.4c-0.3,1.3-0.5,2.6-0.5,4c0,1.3,0.2,2.6,0.5,3.8c0.3,1.2,0.8,2.3,1.5,3.3c0.7,1,1.6,1.8,2.6,2.4
		c1.2,0.6,2.6,0.9,3.9,0.9c1.8,0.1,3.6-0.6,4.9-1.9c1.2-1.4,2-3.2,2.2-5h6.6c-0.1,1.8-0.6,3.6-1.3,5.3c-0.7,1.5-1.7,2.9-2.9,4
		c-1.2,1.1-2.6,2-4.2,2.5c-1.7,0.6-3.5,0.9-5.3,0.9c-2.2,0-4.4-0.4-6.4-1.2c-1.8-0.8-3.5-1.9-4.8-3.4c-1.3-1.5-2.3-3.2-3-5.1
		c-0.7-2-1.1-4.2-1-6.3c0-2.2,0.3-4.4,1-6.5c0.7-1.9,1.7-3.7,3-5.2c1.3-1.5,3-2.7,4.8-3.5c3.6-1.5,7.6-1.7,11.3-0.5
		c1.5,0.5,2.9,1.2,4.1,2.2c1.2,1,2.2,2.1,3,3.5c0.8,1.5,1.3,3.1,1.5,4.8H34C33.9,44.2,33.7,43.4,33.3,42.8z"/>
	<path class="st0" d="M43.4,49.4c1-2.8,3.2-5.1,6-6.1c1.5-0.6,3.1-0.9,4.8-0.8c1.6,0,3.3,0.3,4.8,0.8c2.8,1.1,5,3.3,6,6.1
		c0.6,1.6,0.8,3.2,0.8,4.9c0,1.7-0.3,3.3-0.8,4.9c-0.5,1.4-1.3,2.7-2.3,3.7c-1,1-2.3,1.9-3.7,2.4c-1.5,0.6-3.2,0.8-4.8,0.8
		c-1.6,0-3.3-0.3-4.8-0.8c-1.4-0.5-2.6-1.3-3.7-2.4c-1-1.1-1.8-2.3-2.3-3.7c-0.6-1.6-0.8-3.2-0.8-4.9C42.5,52.7,42.8,51,43.4,49.4z
		 M49,57c0.2,0.8,0.5,1.6,0.9,2.3c0.4,0.7,1,1.2,1.7,1.6c0.8,0.4,1.7,0.6,2.6,0.6c0.9,0,1.8-0.2,2.6-0.6c0.7-0.4,1.3-1,1.7-1.6
		c0.4-0.7,0.7-1.5,0.9-2.3c0.2-0.9,0.3-1.7,0.3-2.6c0-0.9-0.1-1.8-0.3-2.7c-0.2-0.8-0.5-1.6-0.9-2.3c-0.4-0.7-1-1.2-1.7-1.6
		c-0.8-0.4-1.7-0.7-2.6-0.6c-1.7-0.1-3.4,0.8-4.3,2.3c-0.4,0.7-0.7,1.5-0.9,2.3c-0.2,0.9-0.3,1.8-0.3,2.7C48.7,55.2,48.8,56.1,49,57
		z"/>
	<path class="st0" d="M73.7,65.5L66,43.1h6.5l4.7,15.3h0.1l4.7-15.3h6.1l-7.6,22.5H73.7z"/>
	<path class="st0" d="M95.7,60.2c2.1,1.6,5,1.8,7.2,0.4c0.8-0.5,1.3-1.1,1.7-2h5.4c-0.6,2.3-2,4.4-4,5.8c-2,1.2-4.2,1.8-6.5,1.7
		c-1.6,0-3.3-0.3-4.8-0.8c-1.4-0.5-2.6-1.4-3.6-2.4c-1-1.1-1.8-2.3-2.3-3.7C88.3,57.6,88,56,88,54.3c0-1.6,0.3-3.2,0.8-4.7
		c1-2.8,3.2-5.1,6-6.3c1.5-0.6,3.1-0.9,4.7-0.9c1.7,0,3.4,0.3,5,1.1c1.4,0.7,2.6,1.7,3.5,3c0.9,1.3,1.6,2.7,2,4.3
		c0.4,1.6,0.6,3.3,0.4,5H94.2C94.1,57.4,94.7,58.9,95.7,60.2z M102.7,48.3c-0.9-0.9-2.1-1.3-3.4-1.2c-0.8,0-1.7,0.1-2.5,0.5
		c-0.6,0.3-1.1,0.7-1.6,1.2c-0.4,0.5-0.7,1-0.8,1.6c-0.1,0.5-0.2,1-0.3,1.5h10C104.1,50.6,103.5,49.3,102.7,48.3L102.7,48.3z"/>
	<path class="st0" d="M118.3,43.1v4.2h0.1c0.3-0.7,0.7-1.4,1.2-1.9c0.5-0.6,1.1-1.1,1.7-1.5c0.6-0.4,1.3-0.7,2-1
		c0.7-0.2,1.5-0.4,2.3-0.3c0.5,0,0.9,0.1,1.3,0.2v5.7c-0.3-0.1-0.6-0.1-1-0.2c-0.4,0-0.8-0.1-1.2-0.1c-1,0-2,0.2-2.9,0.6
		c-0.7,0.3-1.4,0.9-1.9,1.5c-0.5,0.7-0.8,1.5-1,2.3c-0.2,0.9-0.3,1.9-0.3,2.8v10.1h-6.2V43.1H118.3z"/>
	<path class="st0" d="M134.6,34.5v31h-6.2v-31H134.6z"/>
	<path class="st0" d="M137.5,50c0-1.3,0.4-2.5,1.1-3.6c0.6-0.9,1.5-1.7,2.4-2.3c1-0.6,2.2-1,3.3-1.2c1.2-0.2,2.5-0.4,3.7-0.4
		c1.1,0,2.3,0.1,3.4,0.2c1.1,0.1,2.2,0.5,3.2,0.9c0.9,0.4,1.7,1.1,2.3,1.9c0.6,1,1,2.1,0.9,3.3v11.7c0,1,0.1,1.9,0.2,2.9
		c0.1,0.7,0.3,1.4,0.6,2.1h-6.3c-0.1-0.3-0.2-0.7-0.3-1.1c-0.1-0.4-0.1-0.7-0.2-1.1c-1,1-2.2,1.7-3.5,2.1c-1.3,0.4-2.7,0.6-4.1,0.6
		c-1,0-2-0.1-3-0.4c-0.9-0.2-1.7-0.7-2.4-1.2c-0.7-0.6-1.3-1.3-1.6-2.1c-0.4-0.9-0.6-2-0.6-3c0-1.1,0.2-2.2,0.7-3.2
		c0.4-0.8,1-1.5,1.7-2c0.7-0.5,1.6-0.9,2.4-1.1c0.9-0.2,1.8-0.4,2.8-0.6c0.9-0.1,1.8-0.3,2.7-0.3c0.8-0.1,1.6-0.2,2.4-0.4
		c0.6-0.1,1.2-0.4,1.7-0.8c0.4-0.4,0.6-0.9,0.6-1.5c0-0.5-0.1-1.1-0.3-1.6c-0.2-0.4-0.5-0.7-0.9-0.9c-0.4-0.2-0.8-0.4-1.3-0.4
		c-0.5-0.1-1-0.1-1.5-0.1c-1-0.1-2,0.2-2.9,0.8c-0.8,0.7-1.2,1.6-1.2,2.6L137.5,50z M151.8,54.5c-0.3,0.2-0.6,0.4-1,0.5
		c-0.4,0.1-0.8,0.2-1.3,0.3c-0.4,0.1-0.9,0.2-1.4,0.2c-0.5,0.1-1,0.1-1.5,0.2c-0.5,0.1-0.9,0.2-1.4,0.3c-0.4,0.1-0.8,0.3-1.2,0.6
		c-0.3,0.2-0.6,0.6-0.8,0.9c-0.2,0.4-0.3,0.9-0.3,1.4c0,0.5,0.1,1,0.3,1.4c0.2,0.4,0.5,0.7,0.8,0.9c0.4,0.2,0.8,0.4,1.2,0.5
		c0.5,0.1,1,0.1,1.4,0.1c1,0.1,2-0.2,2.8-0.6c0.6-0.3,1.1-0.9,1.5-1.5c0.3-0.5,0.5-1.1,0.6-1.7c0.1-0.5,0.1-0.9,0.1-1.4L151.8,54.5z
		"/>
	<path class="st0" d="M167,43.1v3.1h0.1c0.7-1.2,1.8-2.2,3-2.8c1.2-0.6,2.5-0.9,3.8-0.9c1.4,0,2.8,0.2,4.1,0.7c1,0.4,1.8,1,2.5,1.9
		c0.6,0.9,1.1,1.9,1.3,2.9c0.3,1.3,0.4,2.5,0.4,3.8v13.8H176V52.8c0.1-1.4-0.2-2.9-0.9-4.2c-0.7-1-1.9-1.5-3.1-1.4
		c-1.4-0.1-2.8,0.4-3.7,1.5c-0.8,1-1.1,2.6-1.1,4.9v11.8h-6.2V43.1H167z"/>
	<path class="st0" d="M201.2,62.7c-0.7,1.2-1.6,2.1-2.8,2.6c-1.3,0.6-2.6,0.8-4,0.8c-1.5,0-3.1-0.3-4.4-1c-1.2-0.6-2.3-1.5-3.2-2.7
		c-0.8-1.2-1.5-2.5-1.9-3.8c-0.4-1.5-0.6-3-0.6-4.5c0-1.5,0.2-3,0.6-4.4c0.4-1.3,1-2.6,1.9-3.7c1.8-2.3,4.5-3.6,7.5-3.6
		c1.3,0,2.6,0.3,3.8,0.8c1.2,0.5,2.2,1.4,2.8,2.5h0.1V34.5h6.2v31h-5.9L201.2,62.7L201.2,62.7z M200.9,51.6
		c-0.2-0.8-0.5-1.6-0.9-2.3c-0.4-0.6-1-1.2-1.6-1.6c-0.8-0.4-1.6-0.6-2.5-0.6c-0.9,0-1.8,0.2-2.6,0.6c-0.7,0.4-1.3,0.9-1.7,1.6
		c-0.4,0.7-0.7,1.5-0.9,2.3c-0.2,0.9-0.3,1.8-0.3,2.7c0,0.9,0.1,1.8,0.3,2.6c0.2,0.8,0.5,1.6,1,2.3c0.4,0.7,1,1.2,1.7,1.7
		c0.7,0.4,1.6,0.7,2.5,0.6c0.9,0,1.8-0.2,2.5-0.6c0.7-0.4,1.2-1,1.6-1.6c0.4-0.7,0.7-1.5,0.9-2.3c0.2-0.9,0.3-1.8,0.3-2.7
		C201.2,53.3,201.1,52.4,200.9,51.6L200.9,51.6z"/>
</g>
</svg>
