<svg xmlns="http://www.w3.org/2000/svg" viewBox="0 0 325 100">
  <rect id="whiteBox" x="100" width="225" height="100"></rect>
  <g id="Coverland" fill="#e2001a">
    <path d="M135.66,42.78483a6.86678,6.86678,0,0,0-1.52152-1.718,7.11838,7.11838,0,0,0-4.47687-1.56428,7.9732,7.9732,0,0,0-3.91232.89093,7.3848,7.3848,0,0,0-2.6084,2.39135,10.45946,10.45946,0,0,0-1.456,3.41218,16.99032,16.99032,0,0,0-.45629,3.95563,15.79887,15.79887,0,0,0,.45629,3.803,10.26643,10.26643,0,0,0,1.456,3.32559,7.45484,7.45484,0,0,0,2.6084,2.36861,7.96123,7.96123,0,0,0,3.91232.89093,6.31345,6.31345,0,0,0,4.88986-1.91177,8.84872,8.84872,0,0,0,2.15156-5.0425h6.60732a15.79,15.79,0,0,1-1.34723,5.259,12.59452,12.59452,0,0,1-2.86929,3.99892,12.18716,12.18716,0,0,1-4.17267,2.52125,15.27438,15.27438,0,0,1-5.25955.86929,15.91174,15.91174,0,0,1-6.41192-1.23844,13.72955,13.72955,0,0,1-4.80326-3.41218,15.10168,15.10168,0,0,1-2.9992-5.10746,18.742,18.742,0,0,1-1.043-6.32423,19.39208,19.39208,0,0,1,1.043-6.45523,15.527,15.527,0,0,1,2.9992-5.19514,13.72307,13.72307,0,0,1,4.80326-3.47713,16.65242,16.65242,0,0,1,11.25848-.52179,13.14834,13.14834,0,0,1,4.08607,2.1521,11.63526,11.63526,0,0,1,2.97754,3.49879,12.52141,12.52141,0,0,1,1.47768,4.78161h-6.60732A5.56936,5.56936,0,0,0,135.66,42.78483Z"></path>
    <path d="M145.78778,49.43491a10.279,10.279,0,0,1,5.99839-6.12938,12.83082,12.83082,0,0,1,4.7816-.84763,13.00737,13.00737,0,0,1,4.80326.84763,10.23687,10.23687,0,0,1,6.02,6.12938,13.80012,13.80012,0,0,1,.826,4.88986,13.62566,13.62566,0,0,1-.826,4.8693,10.56589,10.56589,0,0,1-2.347,3.71638,10.23084,10.23084,0,0,1-3.67308,2.36861,13.32709,13.32709,0,0,1-4.80326.826,13.14568,13.14568,0,0,1-4.7816-.826,10.26092,10.26092,0,0,1-3.65143-2.36861,10.543,10.543,0,0,1-2.347-3.71638,13.61382,13.61382,0,0,1-.826-4.8693A13.78806,13.78806,0,0,1,145.78778,49.43491Zm5.60705,7.52045a7.00207,7.00207,0,0,0,.89093,2.30366,4.74818,4.74818,0,0,0,1.67362,1.63031,5.10634,5.10634,0,0,0,2.60839.60839,5.2276,5.2276,0,0,0,2.62951-.60839,4.69274,4.69274,0,0,0,1.69527-1.63031,7.01468,7.01468,0,0,0,.89147-2.30366,13.1795,13.1795,0,0,0,.26036-2.63059,13.49822,13.49822,0,0,0-.26036-2.65115,6.77986,6.77986,0,0,0-.89147-2.30366,4.93565,4.93565,0,0,0-1.69527-1.63032,5.08639,5.08639,0,0,0-2.62951-.63,4.74621,4.74621,0,0,0-4.282,2.26036,6.76817,6.76817,0,0,0-.89093,2.30366,13.49859,13.49859,0,0,0-.2609,2.65115A13.17964,13.17964,0,0,0,151.39483,56.95536Z"></path>
    <path d="M176.1283,65.54l-7.69365-22.47258H174.911l4.73831,15.344h.0866l4.7383-15.344H190.603L182.996,65.54Z"></path>
    <path d="M198.1224,60.15a6.32591,6.32591,0,0,0,7.21571.41245,3.87533,3.87533,0,0,0,1.652-1.97781h5.4333a10.31189,10.31189,0,0,1-3.99893,5.78188,11.77043,11.77043,0,0,1-6.52018,1.73857,12.83478,12.83478,0,0,1-4.7816-.84763,9.92891,9.92891,0,0,1-3.60759-2.413,10.835,10.835,0,0,1-2.282-3.738,13.659,13.659,0,0,1-.80433-4.78161,13.09944,13.09944,0,0,1,.826-4.69392,10.85553,10.85553,0,0,1,5.97674-6.25928,11.62024,11.62024,0,0,1,4.67281-.91367,10.69191,10.69191,0,0,1,4.99866,1.10853,9.98307,9.98307,0,0,1,3.49933,2.97808,12.23648,12.23648,0,0,1,1.97781,4.25982,15.89112,15.89112,0,0,1,.43465,4.9992h-16.2133A6.23377,6.23377,0,0,0,198.1224,60.15Zm6.977-11.82357a4.33851,4.33851,0,0,0-3.36889-1.21678,5.36847,5.36847,0,0,0-2.45629.50014,4.68216,4.68216,0,0,0-1.56482,1.23843,4.528,4.528,0,0,0-.82545,1.56536,6.99723,6.99723,0,0,0-.28254,1.47768h10.04116A7.13965,7.13965,0,0,0,205.09941,48.32638Z"></path>
    <path d="M220.68212,43.06737v4.17214h.08715a7.56986,7.56986,0,0,1,1.17348-1.93451,7.7,7.7,0,0,1,1.69526-1.521,8.2762,8.2762,0,0,1,2.04277-.97754,7.37661,7.37661,0,0,1,2.26036-.34858,4.85113,4.85113,0,0,1,1.34777.21759V48.413q-.43519-.08607-1.043-.15156a11.09166,11.09166,0,0,0-1.174-.06495,6.576,6.576,0,0,0-2.86875.56509,4.96647,4.96647,0,0,0-1.89066,1.54262,6.17367,6.17367,0,0,0-1.02193,2.282,12.41348,12.41348,0,0,0-.30419,2.82545V65.54h-6.17214V43.06737Z"></path>
    <path d="M236.97174,34.50335V65.54H230.7996V34.50335Z"></path>
    <path d="M239.92763,49.97835a7.17058,7.17058,0,0,1,1.08633-3.60813,7.40392,7.40392,0,0,1,2.43465-2.30366,10.59181,10.59181,0,0,1,3.325-1.23843A18.94822,18.94822,0,0,1,250.49,42.4579a25.23717,25.23717,0,0,1,3.43438.23924,10.54544,10.54544,0,0,1,3.17295.93532,6.24894,6.24894,0,0,1,2.3475,1.93343,5.40818,5.40818,0,0,1,.91258,3.28228V60.54075a23.50408,23.50408,0,0,0,.17375,2.91313,5.25086,5.25086,0,0,0,.60893,2.08607H254.8803a8.76027,8.76027,0,0,1-.28254-1.06522,9.15184,9.15184,0,0,1-.1521-1.10853,8.03626,8.03626,0,0,1-3.47714,2.13045,13.986,13.986,0,0,1-4.08607.60839,11.03414,11.03414,0,0,1-2.9992-.3908,6.85642,6.85642,0,0,1-2.4341-1.21786,5.65427,5.65427,0,0,1-1.63032-2.08607,7.05272,7.05272,0,0,1-.58674-2.99974,6.54721,6.54721,0,0,1,.67389-3.15129,5.62939,5.62939,0,0,1,1.73857-1.97781,7.80163,7.80163,0,0,1,2.4341-1.10853,26.1703,26.1703,0,0,1,2.7605-.58674q1.39-.216,2.7383-.34749a16.52968,16.52968,0,0,0,2.3908-.3908,4.17717,4.17717,0,0,0,1.652-.761,1.67245,1.67245,0,0,0,.56509-1.456,3.27468,3.27468,0,0,0-.32639-1.587,2.4,2.4,0,0,0-.86929-.91259,3.43769,3.43769,0,0,0-1.26062-.43518,10.45113,10.45113,0,0,0-1.54317-.10826,4.68423,4.68423,0,0,0-2.86875.78268,3.49277,3.49277,0,0,0-1.21732,2.60786Zm14.25768,4.564a2.7516,2.7516,0,0,1-.97808.54344,9.86251,9.86251,0,0,1-1.26063.32585q-.6747.13152-1.41272.21759c-.4931.05846-.98566.12991-1.47822.21759a11.0225,11.0225,0,0,0-1.36888.3475,4.05638,4.05638,0,0,0-1.174.58674,2.79592,2.79592,0,0,0-.80379.93424,3.00221,3.00221,0,0,0-.30474,1.43437,2.892,2.892,0,0,0,.30474,1.39107,2.31618,2.31618,0,0,0,.82544.89094,3.47631,3.47631,0,0,0,1.21732.45683,7.78937,7.78937,0,0,0,1.43438.131,5.44292,5.44292,0,0,0,2.82544-.60947,4.07062,4.07062,0,0,0,1.47822-1.456,4.66289,4.66289,0,0,0,.58674-1.71692,11.89854,11.89854,0,0,0,.1088-1.39107Z"></path>
    <path d="M269.355,43.06737V46.197h.13044a7.08065,7.08065,0,0,1,3.043-2.84709,8.79316,8.79316,0,0,1,3.82518-.892,10.48129,10.48129,0,0,1,4.06388.67443,6.0265,6.0265,0,0,1,2.4996,1.86847,7.24674,7.24674,0,0,1,1.28227,2.91313,18.143,18.143,0,0,1,.36969,3.803V65.54h-6.17268V52.8471a7.88375,7.88375,0,0,0-.86928-4.15157,3.36844,3.36844,0,0,0-3.08634-1.36834,4.27462,4.27462,0,0,0-3.65143,1.49933q-1.131,1.49878-1.13018,4.93316V65.54h-6.17213V43.06737Z"></path>
    <path d="M303.564,62.6712a6.36361,6.36361,0,0,1-2.84709,2.62951,9.47025,9.47025,0,0,1-3.97728.80433,9.61,9.61,0,0,1-4.43357-.97754,8.89474,8.89474,0,0,1-3.15129-2.65224,12.02386,12.02386,0,0,1-1.86956-3.84628,16.16078,16.16078,0,0,1-.63-4.52072,15.18222,15.18222,0,0,1,.63-4.36915,11.35872,11.35872,0,0,1,1.86956-3.71639,9.07491,9.07491,0,0,1,7.45441-3.56482,8.83865,8.83865,0,0,1,3.80353.84763,6.6306,6.6306,0,0,1,2.8471,2.4996h.08714V34.50335h6.17214V65.54h-5.86794V62.6712Zm-.26035-11.10584a6.54013,6.54013,0,0,0-.89148-2.26036,5.0129,5.0129,0,0,0-1.62977-1.587,4.779,4.779,0,0,0-2.52125-.60839,5.01032,5.01032,0,0,0-2.56455.60839,4.80564,4.80564,0,0,0-1.67362,1.60867,7.10044,7.10044,0,0,0-.91313,2.282,12.39323,12.39323,0,0,0-.28254,2.67281,11.40562,11.40562,0,0,0,.30473,2.60785,7.105,7.105,0,0,0,.97809,2.3264,5.39722,5.39722,0,0,0,1.69526,1.65088,4.57616,4.57616,0,0,0,2.45576.63112,4.895,4.895,0,0,0,2.5429-.60839,4.63249,4.63249,0,0,0,1.62977-1.63031,7.30758,7.30758,0,0,0,.86983-2.32531,13.72182,13.72182,0,0,0,.26035-2.69554A13.38829,13.38829,0,0,0,303.30368,51.56536Z"></path>
  </g>
  <g id="BMI_Block">
    <rect width="100" height="100" fill="#009fe3"></rect>
    <g fill="white">
      <path d="M62.176,34.911,57.84,52.77h-.084L53.417,34.911H40.11v20.28a7.315,7.315,0,0,0-5.239-6.716c2.255-1.235,3.742-2.891,3.742-5.953,0-3.1-1.7-7.611-9.693-7.611H12.3V65.27H29.515c5.121,0,10.16-2.878,10.6-8.443V65.27h8.844V45.8h.084L54.31,65.27h6.973L66.555,45.8h.085V65.27h8.844V34.911ZM21.65,42.139h4.933c1.913,0,3.188.554,3.188,2.084,0,1.956-1.233,2.507-3.188,2.507H21.65Zm5.485,15.9H21.65V52.386h5.867c2.211,0,3.272.978,3.272,2.763,0,2.339-1.7,2.891-3.655,2.891"></path>
      <rect x="78.358" y="34.914" width="9.354" height="30.356"></rect>
    </g>
  </g>
</svg>
