<svg xmlns="http://www.w3.org/2000/svg" viewBox="0 0 205 100">
  <g id="Esha" fill="#76b82a">
    <path d="M167.44527,46.00184c-.7415-1.0995-2.06783-1.63514-4.05232-1.63605a8.941,8.941,0,0,0-3.00747.50557l3.76993-9.34716-7.15-.01184L144.77787,65.83121l7.14724.0173L157.061,53.109c.695-1.7654,1.31221-3.01612,2.92776-3.01612.22637.03188.37577.02277.45866.04281a3.666,3.666,0,0,1-.31609,1.11317l-5.483,14.5951,7.119.01731,5.099-13.57485C167.66936,50.2942,168.66867,47.81553,167.44527,46.00184Z"></path>
    <path d="M147.87507,45.3988a6.30646,6.30646,0,0,0-3.78633-1.06034,9.44233,9.44233,0,0,0-8.52231,5.88377c-1.47709,3.6802.46413,5.57678,1.749,6.83115,1.10771,1.0822,1.16783,1.29445.95922,1.81368a2.24088,2.24088,0,0,1-2.17305,1.51581h-.005a4.34533,4.34533,0,0,1-2.53742-.9492l-1.5026-1.04121-1.82553,6.17618.96423.50284a7.24412,7.24412,0,0,0,3.81457,1.03756h.025a9.82867,9.82867,0,0,0,9.08163-6.32466c1.54359-3.83688-.53381-5.80452-1.775-6.98054-1.04895-.99384-1.11272-1.18058-.96059-1.585a2.2525,2.2525,0,0,1,2.06465-1.156,1.93686,1.93686,0,0,1,1.31631.50284l1.4156,1.76176,2.53743-6.32376Z"></path>
    <path d="M182.37241,44.68644l-.2.49647a3.42008,3.42008,0,0,0-2.38485-.79526h-.00774c-5.31033,0-9.29206,6.37841-10.80741,10.1488-.27373.68138-2.61349,6.74278-.4878,9.8992a3.98394,3.98394,0,0,0,3.49482,1.73169h.00683a5.2344,5.2344,0,0,0,2.2892-.53107l-.10294.24322,6.562.00637,8.51456-21.1894Zm-7.73663,15.74744c-.28421-.39535-.11477-2.38575.80664-4.68132,1.05988-2.63354,3.00975-5.46929,4.424-5.62507a10.68417,10.68417,0,0,1-1.07218,4.644c-1.42972,3.54812-3.17691,5.66606-4.04139,5.66606h-.00638c-.05283,0-.0879-.00456-.10293-.00456Z"></path>
    <path d="M137.24211,36.12c-5.48614-3.02341-12.26719-.875-15.40492,2.85125a7.02779,7.02779,0,0,0-.98655,8.3096c-6.79471,4.715-6.311,9.646-5.75214,11.61632a9.11508,9.11508,0,0,0,8.69174,6.424h3.79544l1.96217-5.278-5.68336-.00456a3.646,3.646,0,0,1-3.36866-3.0061c-.45957-2.62807,2.09926-5.21969,6.84663-6.93317a2.31574,2.31574,0,0,0,1.63514-1.9066,1.88559,1.88559,0,0,0-.87177-1.80458c-2.06465-1.23979-2.80069-2.81025-2.01819-4.30875,1.13913-2.18626,4.97783-3.37321,9.19185-1.48666l1.28807.57754,1.67294-4.5Z"></path>
  </g>
  <g id="BMI_Block">
    <rect width="100" height="100" fill="#009fe3"></rect>
    <g fill="white">
      <path d="M62.176,34.911,57.84,52.77h-.084L53.417,34.911H40.11v20.28a7.315,7.315,0,0,0-5.239-6.716c2.255-1.235,3.742-2.891,3.742-5.953,0-3.1-1.7-7.611-9.693-7.611H12.3V65.27H29.515c5.121,0,10.16-2.878,10.6-8.443V65.27h8.844V45.8h.084L54.31,65.27h6.973L66.555,45.8h.085V65.27h8.844V34.911ZM21.65,42.139h4.933c1.913,0,3.188.554,3.188,2.084,0,1.956-1.233,2.507-3.188,2.507H21.65Zm5.485,15.9H21.65V52.386h5.867c2.211,0,3.272.978,3.272,2.763,0,2.339-1.7,2.891-3.655,2.891"></path>
      <rect x="78.358" y="34.914" width="9.354" height="30.356"></rect>
    </g>
  </g>
</svg>
