<?xml version="1.0" encoding="utf-8"?>
<!-- Generator: Adobe Illustrator 26.3.1, SVG Export Plug-In . SVG Version: 6.00 Build 0)  -->
<svg version="1.1" id="Layer_1" xmlns="http://www.w3.org/2000/svg" xmlns:xlink="http://www.w3.org/1999/xlink" x="0px" y="0px"
	 viewBox="0 0 98.3 100" style="enable-background:new 0 0 98.3 100;" xml:space="preserve">
<g id="Esha">
	<path fill="#76B82A" d="M64.6,46c-0.7-1.1-2.1-1.6-4.1-1.6c-1,0-2,0.2-3,0.5l3.8-9.3l-7.1,0L42,65.8l7.1,0l5.1-12.7
		c0.7-1.8,1.3-3,2.9-3c0.2,0,0.4,0,0.5,0c0,0.4-0.2,0.8-0.3,1.1l-5.5,14.6l7.1,0l5.1-13.6C64.9,50.3,65.9,47.8,64.6,46z"/>
	<path fill="#76B82A" d="M45.1,45.4c-1.1-0.7-2.4-1.1-3.8-1.1c-3.8,0.1-7.1,2.4-8.5,5.9c-1.5,3.7,0.5,5.6,1.7,6.8
		c1.1,1.1,1.2,1.3,1,1.8c-0.3,0.9-1.2,1.5-2.2,1.5h0c-0.9,0-1.8-0.4-2.5-0.9l-1.5-1l-1.8,6.2l1,0.5c1.2,0.7,2.5,1.1,3.8,1h0
		c4,0,7.6-2.6,9.1-6.3c1.5-3.8-0.5-5.8-1.8-7c-1-1-1.1-1.2-1-1.6c0.4-0.7,1.2-1.2,2.1-1.2c0.5,0,1,0.2,1.3,0.5l1.4,1.8l2.5-6.3
		L45.1,45.4z"/>
	<path fill="#76B82A" d="M79.6,44.7l-0.2,0.5c-0.7-0.6-1.5-0.8-2.4-0.8h0c-5.3,0-9.3,6.4-10.8,10.1c-0.3,0.7-2.6,6.7-0.5,9.9
		c0.8,1.1,2.1,1.8,3.5,1.7h0c0.8,0,1.6-0.2,2.3-0.5l-0.1,0.2l6.6,0l8.5-21.2L79.6,44.7z M71.8,60.4c-0.3-0.4-0.1-2.4,0.8-4.7
		c1.1-2.6,3-5.5,4.4-5.6c0,1.6-0.4,3.2-1.1,4.6c-1.4,3.5-3.2,5.7-4,5.7h0C71.9,60.4,71.9,60.4,71.8,60.4L71.8,60.4z"/>
	<path fill="#76B82A" d="M34.4,36.1C29,33.1,22.2,35.2,19,39c-2.1,2.3-2.5,5.6-1,8.3c-6.8,4.7-6.3,9.6-5.8,11.6
		c1.2,3.8,4.7,6.4,8.7,6.4h3.8l2-5.3l-5.7,0c-1.7-0.1-3.1-1.3-3.4-3c-0.5-2.6,2.1-5.2,6.8-6.9c0.9-0.3,1.5-1,1.6-1.9
		c0.1-0.7-0.3-1.4-0.9-1.8c-2.1-1.2-2.8-2.8-2-4.3c1.1-2.2,5-3.4,9.2-1.5l1.3,0.6l1.7-4.5L34.4,36.1z"/>
</g>
</svg>
