<svg xmlns="http://www.w3.org/2000/svg" viewBox="0 0 245 100">
  <g id="Everlite" fill="#149ed9">
    <path d="M131.96075,65.15387h-17.6191V34.90267h17.374v5.54492H120.29637v6.34277H131.1902v5.54431H120.29637v7.27488h11.66438Z"></path>
    <path d="M133.09647,44.52339h5.37276l3.39738,11.14894,3.43178-11.14894h5.33837L143.2877,65.15447h-2.80777Z"></path>
    <path d="M167.3417,62.47649a9.83427,9.83427,0,0,1-7.14074,2.678c-5.61548,0-9.25527-4.12672-9.25527-10.4478,0-6.18894,3.5012-10.57814,8.42324-10.57814,4.64511,0,8.493,4.16975,8.2505,11.5438h-11.474c.173,3.60009,2.11421,5.70671,5.26888,5.70671,2.0107,0,3.57008-.74615,5.92736-2.89749Zm-4.15908-10.14007c-.2083-2.7648-1.52527-4.433-3.46709-4.433-1.97545,0-3.25825,1.62409-3.46595,4.433Z"></path>
    <path d="M176.04008,50.71293h.06942c1.4911-4.21415,3.1546-6.18894,5.09588-6.18894,1.00508,0,1.87187.48254,3.32766,1.843l-1.387,5.61873c-1.3169-1.05334-2.18309-1.49231-2.981-1.49231-1.83716,0-3.01518,2.1949-4.125,5.92562v8.73543h-5.02647V44.91885h5.02647Z"></path>
    <path d="M191.59257,65.15447h-5.07884V34.90327h5.07884Z"></path>
    <path d="M200.25914,65.15447h-5.02648V44.91885h5.02648Zm.24246-26.73939c0,1.93128-1.24754,3.5118-2.77276,3.5118s-2.7739-1.58052-2.7739-3.5118,1.24863-3.51181,2.7739-3.51181S200.5016,36.4838,200.5016,38.41508Z"></path>
    <path d="M215.99938,48.869h-5.82384v8.33973c0,1.97538.90149,3.24878,2.46147,3.24878a5.90464,5.90464,0,0,0,3.36237-1.18512v4.60865a9.38271,9.38271,0,0,1-4.64457,1.2734c-3.32826,0-6.20569-1.93188-6.20569-7.59442V48.869h-2.28788V47.63979l6.69058-9.48159h.62372v6.36519h5.82384Z"></path>
    <path d="M233.85565,62.47649a9.83622,9.83622,0,0,1-7.14136,2.678c-5.61547,0-9.255-4.12672-9.255-10.4478,0-6.18894,3.50126-10.57814,8.423-10.57814,4.64511,0,8.493,4.16975,8.25049,11.5438h-11.474c.17359,3.60009,2.11488,5.70671,5.26894,5.70671,2.01069,0,3.57067-.74615,5.928-2.89749Zm-4.16029-10.14007c-.2077-2.7648-1.52527-4.433-3.46595-4.433-1.976,0-3.25879,1.62409-3.46649,4.433Z"></path>
  </g>
  <g id="BMI_Block">
    <rect width="100" height="100" fill="#009fe3"></rect>
    <g fill="white">
      <path d="M62.176,34.911,57.84,52.77h-.084L53.417,34.911H40.11v20.28a7.315,7.315,0,0,0-5.239-6.716c2.255-1.235,3.742-2.891,3.742-5.953,0-3.1-1.7-7.611-9.693-7.611H12.3V65.27H29.515c5.121,0,10.16-2.878,10.6-8.443V65.27h8.844V45.8h.084L54.31,65.27h6.973L66.555,45.8h.085V65.27h8.844V34.911ZM21.65,42.139h4.933c1.913,0,3.188.554,3.188,2.084,0,1.956-1.233,2.507-3.188,2.507H21.65Zm5.485,15.9H21.65V52.386h5.867c2.211,0,3.272.978,3.272,2.763,0,2.339-1.7,2.891-3.655,2.891"></path>
      <rect x="78.358" y="34.914" width="9.354" height="30.356"></rect>
    </g>
  </g>
</svg>
