<?xml version="1.0" encoding="utf-8"?>
<!-- Generator: Adobe Illustrator 26.3.1, SVG Export Plug-In . SVG Version: 6.00 Build 0)  -->
<svg version="1.1" id="Layer_1" xmlns="http://www.w3.org/2000/svg" xmlns:xlink="http://www.w3.org/1999/xlink" x="0px" y="0px"
	 viewBox="0 0 295.4 100" style="enable-background:new 0 0 295.4 100;" xml:space="preserve">
<style type="text/css">
	.st0{fill:#081F5D;}
</style>
<g id="Everguard">
	<polygon class="st0" points="46.7,42.8 55.9,42.8 57.7,56.8 57.7,56.8 65.3,42.8 74.6,42.8 60.5,64.7 51.7,64.7 	"/>
	<path class="st0" d="M103,42.8h17.7c2.4,0,3.8,0.2,4.9,0.8c1.4,0.8,2.3,2.9,1.8,5.3c-0.4,2.3-2,4.3-4.3,5l0,0.1
		c1.2,0.4,2,1.5,1.7,3.4l-0.6,4.8c-0.1,0.9,0.1,1.8,0.5,2.6h-9.2c-0.2-0.6,0-1.6,0.4-4.1c0.2-1.6-0.1-2.6-1.6-2.6h-6l-1.4,6.7h-8.4
		L103,42.8z M109.4,52.4h6c1.6,0,2.5-0.7,2.7-2.1c0.4-1.7-0.6-2.1-2-2.1h-5.8L109.4,52.4z"/>
	<polygon class="st0" points="49.3,34.7 48,41.1 28.2,41.1 27.7,41.1 27.6,41.6 26.7,45.8 26.5,46.5 27.3,46.5 45.4,46.5 44.1,52.9 
		25.7,52.9 25.2,52.9 25.1,53.4 24.3,57.6 24.1,58.3 24.8,58.3 44.4,58.3 43.1,64.7 12,64.7 18.2,34.7 	"/>
	<path class="st0" d="M153.4,32.9c8.1,0,13.2,1.4,15.8,4.2c1.5,1.8,2.2,4.1,1.9,6.4h-12.4c-0.1-1.3-0.8-2.5-2-3.1
		c-1.3-0.6-2.7-0.9-4.2-0.8c-5.6,0-9.1,3.1-10.4,9.3c-0.6,3.1-0.3,5.5,1,7.1c1.3,1.7,3.6,2.5,6.7,2.5c3.8,0,6.5-1.4,8-4.2l0.5-0.9
		h-5.2l1.2-5.9h15.8l-3.4,16.6h-4.2l-0.6-2.4l-0.2-0.9l-0.7,0.5c-3.6,2.7-7.6,3.8-14.4,3.8c-7.1,0-11.8-1.5-14.3-4.7
		c-2-2.6-2.6-6.3-1.6-11.1C132.2,41.8,137.4,32.9,153.4,32.9"/>
	<path class="st0" d="M174.4,42.8h8.4L180.1,56c-0.6,2.8,0.8,3.7,3.5,3.7c2.7,0,4.5-0.9,5.1-3.7l2.7-13.2h8.4L197,56.4
		c-1.5,7-6,9.1-14.6,9.1s-12.3-2.1-10.8-9.1L174.4,42.8z"/>
	<path class="st0" d="M208.8,42.8h10.3l4.5,21.9h-8.9l-0.4-2.5h-8.8l-1.4,2.5h-8.9L208.8,42.8z M212.6,49.4L212.6,49.4l-4.1,7.4h5.1
		L212.6,49.4z"/>
	<path class="st0" d="M229.6,42.8h17.7c2.4,0,3.8,0.2,4.9,0.8c1.4,0.8,2.3,2.9,1.8,5.3c-0.4,2.3-2,4.3-4.3,5l0,0.1
		c1.2,0.4,2,1.5,1.7,3.4l-0.6,4.8c-0.1,0.9,0.1,1.8,0.5,2.6H242c-0.2-0.6,0-1.6,0.4-4.1c0.2-1.6-0.1-2.6-1.6-2.6h-6l-1.4,6.7h-8.4
		L229.6,42.8z M236,52.4h6c1.6,0,2.5-0.7,2.7-2.1c0.4-1.7-0.6-2.1-2-2.1h-5.8L236,52.4z"/>
	<path class="st0" d="M257.8,42.8h16.4c7.2,0,10.4,2.9,8.8,10.9c-1.6,7.7-6,10.9-13.1,10.9h-16.5L257.8,42.8z M262.8,59.2h4.8
		c3.8,0,5.8-2,6.5-5.4s-0.4-5.4-4.3-5.4h-4.8L262.8,59.2z"/>
	<polygon class="st0" points="76.7,42.8 99.3,42.8 98.2,48.1 84,48.1 83.4,51.1 96.5,51.1 95.4,56.4 82.2,56.4 81.7,59.3 95.9,59.3 
		94.8,64.7 72.2,64.7 	"/>
</g>
</svg>
