<svg xmlns="http://www.w3.org/2000/svg" viewBox="0 0 400 100">
  <rect id="whiteBox" x="100" width="300" height="100"></rect>
  <g id="Everguard" fill="#081f5d">
    <polygon points="149.64 42.786 158.873 42.786 160.63 56.824 160.689 56.824 168.284 42.786 177.518 42.786 163.46 64.669 154.644 64.669 149.64 42.786" fill="#081f5d"/>
    <path d="M205.92837,42.78555h17.69112c2.41311,0,3.81188.215,4.85446.79931,1.42919.795,2.29148,2.9105,1.78757,5.29973a6.22379,6.22379,0,0,1-4.28974,4.99782l-.02823.06081c1.18808.36707,1.9635,1.47046,1.72675,3.371l-.62772,4.78062a4.22574,4.22574,0,0,0,.50826,2.576h-9.17462c-.1781-.64292.03041-1.59426.41921-4.13987.23675-1.6225-.09123-2.60425-1.63989-2.60425h-5.95567l-1.40095,6.74412h-8.39921Zm6.40313,9.62422h5.95567c1.6377,0,2.47176-.67549,2.74109-2.05255.35622-1.65725-.59731-2.05473-1.99608-2.05473h-5.8384Z"></path>
    <polygon points="152.237 34.69 150.917 41.087 131.106 41.087 130.63 41.087 130.528 41.567 129.635 45.767 129.477 46.508 130.213 46.508 148.323 46.508 147.003 52.905 128.638 52.905 128.158 52.905 128.058 53.389 127.209 57.592 127.061 58.326 127.789 58.326 147.346 58.326 146.023 64.723 114.952 64.723 121.166 34.69 152.237 34.69"></polygon>
    <path d="M256.37205,32.9337c8.07556,0,13.22976,1.38793,15.758,4.23979a8.45674,8.45674,0,0,1,1.89618,6.3575H261.611a3.93739,3.93739,0,0,0-1.98087-3.12119,8.43827,8.43827,0,0,0-4.19419-.81669c-5.619,0-9.12031,3.1364-10.40613,9.32449-.63423,3.06907-.30191,5.45394.97957,7.083,1.30321,1.65725,3.55777,2.49565,6.70285,2.49565,3.76629,0,6.47263-1.42919,8.04517-4.2463l.50826-.91225H256.0419l1.23369-5.87314h15.8449l-3.447,16.5964h-4.21587l-.6451-2.3979-.2324-.86012-.695.53431c-3.57516,2.74761-7.59991,3.81624-14.36142,3.81624-7.11335,0-11.78754-1.54865-14.294-4.73283-2.04171-2.58905-2.57386-6.33144-1.58775-11.1164,1.553-7.46958,6.75715-16.37052,22.7302-16.37052"></path>
    <path d="M277.36048,42.7862h8.397l-2.74107,13.24064c-.59514,2.82145.808,3.70981,3.54474,3.70981,2.74108,0,4.50041-.88836,5.09336-3.70981l2.74111-13.24064h8.39921L299.9951,56.3635c-1.45962,6.957-5.95569,9.07253-14.59382,9.07253s-12.30231-2.11555-10.8427-9.07253Z"></path>
    <path d="M311.77961,42.786h10.30407l4.52649,21.8831h-8.93353l-.38879-2.513h-8.7554l-1.401,2.513H298.198Zm3.81191,6.62032h-.05866l-4.053,7.41745h5.063Z"></path>
    <path d="M332.55019,42.78555H350.2413c2.41313,0,3.81191.215,4.85447.79931,1.4292.795,2.29365,2.9105,1.78757,5.29973a6.22026,6.22026,0,0,1-4.28972,4.99782l-.02824.06081c1.19024.36707,1.96349,1.47046,1.72675,3.371l-.62556,4.78062a4.22583,4.22583,0,0,0,.50608,2.576H344.998c-.17811-.64292.03042-1.59426.41922-4.13987.23673-1.6225-.08906-2.60425-1.63989-2.60425h-5.95569l-1.40093,6.74412h-8.397Zm6.40314,9.62422H344.909c1.6377,0,2.47394-.67549,2.74111-2.05255.35836-1.65725-.59733-2.05473-1.99611-2.05473H339.8156Z"></path>
    <path d="M360.77909,42.78664h16.35313c7.20678,0,10.42351,2.8801,8.75542,10.94264-1.57907,7.69329-6.04474,10.94046-13.10381,10.94046H356.2526Zm5.00434,16.36617h4.8262c3.84014,0,5.808-1.95916,6.52259-5.42353s-.417-5.42571-4.25933-5.42571h-4.82623Z"></path>
    <polygon points="179.632 42.786 202.237 42.786 201.135 48.121 186.928 48.121 186.303 51.062 199.498 51.062 198.396 56.396 185.201 56.396 184.606 59.337 198.811 59.337 197.71 64.669 175.106 64.669 179.632 42.786"></polygon>
  </g>
  <g id="BMI_Block">
    <rect width="100" height="100" fill="#009fe3"></rect>
    <g fill="white">
      <path d="M62.176,34.911,57.84,52.77h-.084L53.417,34.911H40.11v20.28a7.315,7.315,0,0,0-5.239-6.716c2.255-1.235,3.742-2.891,3.742-5.953,0-3.1-1.7-7.611-9.693-7.611H12.3V65.27H29.515c5.121,0,10.16-2.878,10.6-8.443V65.27h8.844V45.8h.084L54.31,65.27h6.973L66.555,45.8h.085V65.27h8.844V34.911ZM21.65,42.139h4.933c1.913,0,3.188.554,3.188,2.084,0,1.956-1.233,2.507-3.188,2.507H21.65Zm5.485,15.9H21.65V52.386h5.867c2.211,0,3.272.978,3.272,2.763,0,2.339-1.7,2.891-3.655,2.891"></path>
      <rect x="78.358" y="34.914" width="9.354" height="30.356"></rect>
    </g>
  </g>
</svg>
