<svg id="Product" xmlns="http://www.w3.org/2000/svg" viewBox="0 0 780 185">
  <g id="Guarantee" fill="#34384f">
    <path d="M286.325,154.178h13.411v15.3a20.58655,20.58655,0,0,1-2.493,1.9,17.39993,17.39993,0,0,1-3.267,1.639,23.69283,23.69283,0,0,1-4.155,1.151,28.0802,28.0802,0,0,1-5.158.432,20.358,20.358,0,0,1-8.052-1.526,17.9,17.9,0,0,1-10.029-10.526,22.8448,22.8448,0,0,1-1.347-7.968,21.90936,21.90936,0,0,1,1.4-7.881,19.66,19.66,0,0,1,3.926-6.414,18.33052,18.33052,0,0,1,6.046-4.314,20.478,20.478,0,0,1,13.268-.864,17.42479,17.42479,0,0,1,4.212,1.841,15.52971,15.52971,0,0,1,3.066,2.445,23.26251,23.26251,0,0,1,2.12,2.532l-3.9,3.336a20.54719,20.54719,0,0,0-1.662-2.042,12.02968,12.02968,0,0,0-2.292-1.927,13.31587,13.31587,0,0,0-3.009-1.439,12.03082,12.03082,0,0,0-3.869-.575,12.97005,12.97005,0,0,0-5.673,1.208,12.679,12.679,0,0,0-4.27,3.28,14.8148,14.8148,0,0,0-2.694,4.86,18.25228,18.25228,0,0,0-.945,5.9,17.31839,17.31839,0,0,0,1.031,6.1,13.99994,13.99994,0,0,0,2.895,4.746,13.327,13.327,0,0,0,9.943,4.229,18.56542,18.56542,0,0,0,5.646-.748,12.44519,12.44519,0,0,0,3.983-2.072v-7.823h-8.139Z"></path>
    <path d="M307.129,146.929h5.158v15.7q0,3.8,1.548,5.494a5.74206,5.74206,0,0,0,4.47,1.7,6.831,6.831,0,0,0,3.7-.92,7.45808,7.45808,0,0,0,2.378-2.387,9.91519,9.91519,0,0,0,1.29-3.336,19.56885,19.56885,0,0,0,.372-3.827V146.929H331.2v25.11q0,.836.057,1.64h-4.929l-.172-3.97a18.5036,18.5036,0,0,1-1.26,1.5,8.48513,8.48513,0,0,1-1.834,1.467,11.80045,11.80045,0,0,1-2.522,1.122,10.7,10.7,0,0,1-3.267.46q-5.216,0-7.68-3.021t-2.464-8.255Z"></path>
    <path d="M355.041,170.457a8.88408,8.88408,0,0,1-3.926,2.991,13.34216,13.34216,0,0,1-5.014.979,12.83606,12.83606,0,0,1-3.3-.432,8.60022,8.60022,0,0,1-2.98-1.438,7.55412,7.55412,0,0,1-2.178-2.588,8.2769,8.2769,0,0,1-.831-3.884,8.647,8.647,0,0,1,3.009-6.9q3.009-2.591,8.682-2.589c.611,0,1.262.019,1.949.057s1.337.077,1.949.115,1.146.078,1.6.115a9.74288,9.74288,0,0,1,.975.115v-.978a4.912,4.912,0,0,0-1.806-4.286,8.26486,8.26486,0,0,0-4.9-1.294,11.51082,11.51082,0,0,0-4.814.834,18.96786,18.96786,0,0,0-2.98,1.7l-2.407-3.51a12.53273,12.53273,0,0,1,1.662-1.151,14.49106,14.49106,0,0,1,2.292-1.064,18.68531,18.68531,0,0,1,2.981-.805,20.699,20.699,0,0,1,3.84-.316q5.157,0,8.109,2.5a8.80008,8.80008,0,0,1,2.952,7.1v16.6c0,.364.018.815.057,1.352h-4.814Zm-.057-9.434c-.153-.038-.45-.087-.889-.144s-.945-.1-1.518-.144-1.185-.076-1.834-.115-1.281-.058-1.891-.058a9.99281,9.99281,0,0,0-3.525.518,5.98706,5.98706,0,0,0-2.121,1.295,4.12385,4.12385,0,0,0-1.06,1.725,6.24271,6.24271,0,0,0-.286,1.813,3.88,3.88,0,0,0,1.49,3.308,6.722,6.722,0,0,0,4.126,1.121,7.82317,7.82317,0,0,0,2.837-.518,8.35324,8.35324,0,0,0,2.379-1.38,7.01259,7.01259,0,0,0,1.662-2.013,4.85793,4.85793,0,0,0,.63-2.359Z"></path>
    <path d="M366.961,173.679V148.6q0-.519-.057-1.669h4.929l.172,4.314a13.71111,13.71111,0,0,1,1.2-1.524,8.979,8.979,0,0,1,1.8-1.525,11.32677,11.32677,0,0,1,2.465-1.178,9.82791,9.82791,0,0,1,3.238-.49,9.93631,9.93631,0,0,1,1.576.116,7.46008,7.46008,0,0,1,1.347.344l-1.146,4.833a7.6,7.6,0,0,0-8.139,1.985,8.539,8.539,0,0,0-1.633,2.617,8.4002,8.4002,0,0,0-.6,3.164v14.094Z"></path>
    <path d="M403.641,170.457a8.88112,8.88112,0,0,1-3.927,2.991,13.33783,13.33783,0,0,1-5.014.979,12.8289,12.8289,0,0,1-3.3-.432,8.61309,8.61309,0,0,1-2.981-1.438,7.55173,7.55173,0,0,1-2.177-2.588,8.2769,8.2769,0,0,1-.831-3.884,8.649,8.649,0,0,1,3.008-6.9q3.009-2.591,8.683-2.589.916,0,1.949.057t1.949.115c.61.039,1.146.078,1.6.115a9.74288,9.74288,0,0,1,.975.115v-.978a4.912,4.912,0,0,0-1.806-4.286,8.26486,8.26486,0,0,0-4.9-1.294,11.50773,11.50773,0,0,0-4.814.834,19.01546,19.01546,0,0,0-2.98,1.7l-2.408-3.51a12.55042,12.55042,0,0,1,1.663-1.151,14.49106,14.49106,0,0,1,2.292-1.064,18.67091,18.67091,0,0,1,2.98-.805,20.71028,20.71028,0,0,1,3.84-.316q5.158,0,8.11,2.5a8.8,8.8,0,0,1,2.951,7.1v16.6q0,.546.058,1.352h-4.815Zm-.057-9.434c-.154-.038-.451-.087-.889-.144s-.945-.1-1.519-.144-1.184-.076-1.834-.115-1.28-.058-1.891-.058a9.99984,9.99984,0,0,0-3.525.518,5.98212,5.98212,0,0,0-2.12,1.295,4.10015,4.10015,0,0,0-1.06,1.725,6.24629,6.24629,0,0,0-.287,1.813,3.882,3.882,0,0,0,1.49,3.308,6.72606,6.72606,0,0,0,4.127,1.121,7.82619,7.82619,0,0,0,2.837-.518,8.34777,8.34777,0,0,0,2.378-1.38,7.00006,7.00006,0,0,0,1.662-2.013,4.859,4.859,0,0,0,.631-2.359Z"></path>
    <path d="M415.561,173.679V148.626c0-.364-.02-.93-.057-1.7h4.928l.172,4.027q.516-.69,1.261-1.524a8.59256,8.59256,0,0,1,1.834-1.525,10.79992,10.79992,0,0,1,2.551-1.15,10.93557,10.93557,0,0,1,3.3-.461q5.214,0,7.737,3.05t2.521,8.283v16.05H434.65V158.031q0-3.738-1.6-5.493a5.82707,5.82707,0,0,0-4.528-1.755,6.976,6.976,0,0,0-3.725.921,7.078,7.078,0,0,0-2.378,2.387,10.69,10.69,0,0,0-1.29,3.337,18.15364,18.15364,0,0,0-.4,3.825v12.426Z"></path>
    <path d="M449.03,151.243h-4.815v-4.314h4.815v-8.744h5.158v8.744h7.794v4.314h-7.794v13.174q0,3.222,1,4.43a3.48,3.48,0,0,0,2.837,1.208,5.7861,5.7861,0,0,0,2.464-.46,7.6338,7.6338,0,0,0,1.949-1.381l2.35,3.164a9.838,9.838,0,0,1-7.566,3.049q-4.242,0-6.218-2.3t-1.977-7.192Z"></path>
    <path d="M491.326,169.767a16.33376,16.33376,0,0,1-1.376,1.323,11.5439,11.5439,0,0,1-2.378,1.553,18.20018,18.20018,0,0,1-3.439,1.294,16.88817,16.88817,0,0,1-4.5.547,15.0729,15.0729,0,0,1-5.673-1.036,12.55607,12.55607,0,0,1-4.414-2.933,13.1638,13.1638,0,0,1-2.836-4.544,16.4328,16.4328,0,0,1-1-5.869,15.328,15.328,0,0,1,.973-5.494A12.9847,12.9847,0,0,1,479,146.124a12.32,12.32,0,0,1,5.9,1.323,11.7697,11.7697,0,0,1,4.04,3.509,15.04809,15.04809,0,0,1,2.321,5.005,22.89417,22.89417,0,0,1,.745,5.867H470.98a8.10031,8.10031,0,0,0,.774,3.279,8.30009,8.30009,0,0,0,1.919,2.589,9.29307,9.29307,0,0,0,2.751,1.726,8.537,8.537,0,0,0,3.267.633,11.84414,11.84414,0,0,0,5.56-1.151,11.355,11.355,0,0,0,3.152-2.244Zm-4.643-11.792a8.683,8.683,0,0,0-2.178-5.293A6.984,6.984,0,0,0,479,150.5a8.205,8.205,0,0,0-3.3.633,7.90034,7.90034,0,0,0-2.494,1.668,7.487,7.487,0,0,0-1.6,2.387,7.88388,7.88388,0,0,0-.631,2.791Z"></path>
    <path d="M522.045,169.767a16.33175,16.33175,0,0,1-1.376,1.323,11.601,11.601,0,0,1-2.378,1.553,18.19867,18.19867,0,0,1-3.439,1.294,16.88832,16.88832,0,0,1-4.5.547,15.08178,15.08178,0,0,1-5.674-1.036,12.56133,12.56133,0,0,1-4.413-2.933,13.16585,13.16585,0,0,1-2.837-4.544,16.43258,16.43258,0,0,1-1-5.869,15.32824,15.32824,0,0,1,.974-5.494,12.98494,12.98494,0,0,1,12.322-8.484,12.32389,12.32389,0,0,1,5.9,1.323,11.77,11.77,0,0,1,4.04,3.509,15.06833,15.06833,0,0,1,2.321,5.005,22.89382,22.89382,0,0,1,.745,5.867H501.7a8.112,8.112,0,0,0,.773,3.279,8.29976,8.29976,0,0,0,1.92,2.589,9.2933,9.2933,0,0,0,2.751,1.726,8.52894,8.52894,0,0,0,3.267.633,11.83688,11.83688,0,0,0,5.559-1.151,11.3622,11.3622,0,0,0,3.153-2.244ZM517.4,157.975a8.68306,8.68306,0,0,0-2.178-5.293,6.98706,6.98706,0,0,0-5.5-2.186,8.21207,8.21207,0,0,0-3.295.633,7.90578,7.90578,0,0,0-2.493,1.668,7.48709,7.48709,0,0,0-1.6,2.387,7.8841,7.8841,0,0,0-.631,2.791Z"></path>
  </g>
  <g id="Product" fill="#34384f">
    <path d="M265.109,11.542h35.248a40.311,40.311,0,0,1,15.376,2.632,30.39418,30.39418,0,0,1,10.517,6.945,26.94515,26.94515,0,0,1,6.091,10.015A36.2,36.2,0,0,1,334.3,42.978,33.22688,33.22688,0,0,1,331.617,56.8a28.24887,28.24887,0,0,1-7.254,9.869,31.66106,31.66106,0,0,1-10.516,5.994,38.0002,38.0002,0,0,1-12.475,2.047h-14.94v34.36H265.109ZM299.2,56.868q6.093,0,9.647-3.728a13.515,13.515,0,0,0,3.553-9.724A14.07692,14.07692,0,0,0,308.77,33.4a12.683,12.683,0,0,0-9.719-3.874H286.432V56.868Z"></path>
    <path d="M341.364,40.492h19.922l.722,8.627a31.15024,31.15024,0,0,1,7.146-6.726q4.547-3.215,11.765-3.217a32.35433,32.35433,0,0,1,4.692.293,17.88229,17.88229,0,0,1,3.826,1.023l-3.322,18.569a24.57166,24.57166,0,0,0-7.506-1.023q-7.362,0-11.91,4.459t-4.547,12.647v33.921H341.364Z"></path>
    <path d="M390.2,74.705a37.97364,37.97364,0,0,1,2.662-14.255,36.00919,36.00919,0,0,1,7.41-11.624A34.133,34.133,0,0,1,411.708,41a37.248,37.248,0,0,1,14.751-2.851A36.734,36.734,0,0,1,441.138,41a34.325,34.325,0,0,1,11.369,7.822,36.0451,36.0451,0,0,1,7.411,11.624,39.5,39.5,0,0,1,0,28.511,35.97987,35.97987,0,0,1-7.411,11.624,35.19388,35.19388,0,0,1-11.369,7.9,35.94914,35.94914,0,0,1-14.679,2.924,36.45094,36.45094,0,0,1-14.751-2.924,34.98269,34.98269,0,0,1-11.441-7.9,35.94434,35.94434,0,0,1-7.41-11.624A37.96076,37.96076,0,0,1,390.2,74.705Zm36.264,18.423a15.04109,15.04109,0,0,0,6.907-1.535,15.25893,15.25893,0,0,0,5.109-4.167,17.87495,17.87495,0,0,0,3.094-5.921,23.434,23.434,0,0,0,0-13.6,17.07521,17.07521,0,0,0-3.094-5.849,15.68764,15.68764,0,0,0-5.109-4.094,15.041,15.041,0,0,0-6.907-1.535,15.48988,15.48988,0,0,0-6.979,1.535,14.741,14.741,0,0,0-5.11,4.094,18.8997,18.8997,0,0,0-3.094,5.849,21.98,21.98,0,0,0,0,13.6,19.85562,19.85562,0,0,0,3.094,5.921,14.36792,14.36792,0,0,0,5.11,4.167,15.49,15.49,0,0,0,6.974,1.535Z"></path>
    <path d="M518.737,102.193a25.57131,25.57131,0,0,1-8.074,6.36,24,24,0,0,1-11.217,2.559,26.919,26.919,0,0,1-20.791-9.576,34.544,34.544,0,0,1-6.216-11.113,44.116,44.116,0,0,1-2.286-14.694,38.1,38.1,0,0,1,3.214-16.157A34.12307,34.12307,0,0,1,492.944,41.3a35.53893,35.53893,0,0,1,12.217-2.266,33.82018,33.82018,0,0,1,7.574.658,55.46925,55.46925,0,0,1,5.573,1.681V11.542h20.434v97.523H519.594Zm-.429-42.84a15.65021,15.65021,0,0,0-4.645-1.9,27.90016,27.90016,0,0,0-6.215-.585q-7.86,0-12.218,5.41t-4.358,13.89q0,7.456,3.573,12.208t10.716,4.752a13.18387,13.18387,0,0,0,5.931-1.243,12.1701,12.1701,0,0,0,4.144-3.29,12.64512,12.64512,0,0,0,2.358-4.825,22.83042,22.83042,0,0,0,.714-5.7Z"></path>
    <path d="M549.731,40.492h20.681V79.969q0,5.849,2.8,9.212t8.258,3.362a12.183,12.183,0,0,0,5.6-1.242,13.19254,13.19254,0,0,0,4.165-3.291,13.672,13.672,0,0,0,2.584-4.824,19.08386,19.08386,0,0,0,.863-5.7V40.492h20.536v68.573H595.4l-.574-7.31a25.23167,25.23167,0,0,1-8.689,6.506,25.993,25.993,0,0,1-11.274,2.559q-11.634,0-18.383-7.019t-6.75-20.762Z"></path>
    <path d="M688.216,100a35.45351,35.45351,0,0,1-10.982,8.042,36.163,36.163,0,0,1-16.151,3.362,39.25483,39.25483,0,0,1-14.858-2.7,32.75883,32.75883,0,0,1-11.414-7.6,34.97554,34.97554,0,0,1-7.392-11.624,39.8111,39.8111,0,0,1-2.656-14.768,37.20059,37.20059,0,0,1,2.728-14.255,36.3501,36.3501,0,0,1,7.536-11.624A34.818,34.818,0,0,1,646.512,41a36.7,36.7,0,0,1,14.571-2.851,38.20588,38.20588,0,0,1,15.936,3.07,33.88907,33.88907,0,0,1,11.341,8.188L675.87,63.155a24.5062,24.5062,0,0,0-5.6-4.678,16.465,16.465,0,0,0-8.757-2.048,14.21775,14.21775,0,0,0-6.676,1.535,16.31055,16.31055,0,0,0-5.024,4.022,17.21271,17.21271,0,0,0-3.158,5.774,22.194,22.194,0,0,0-1.077,6.945,21.2573,21.2573,0,0,0,1.077,6.653,18.0278,18.0278,0,0,0,3.158,5.848,16.73167,16.73167,0,0,0,5.024,4.168,13.67584,13.67584,0,0,0,6.676,1.608,17.25477,17.25477,0,0,0,8.9-2.12,22.94469,22.94469,0,0,0,5.742-4.606Z"></path>
    <path d="M703.965,57.014H693.353V40.492h10.612V17.976h20.65V40.492h17.353V57.014H724.615V84.062q0,4.972,1.936,7.678t6.1,2.7a12.52387,12.52387,0,0,0,5.449-1.1,27.29028,27.29028,0,0,0,4.3-2.559l8.317,12.867q-9.753,7.895-21.224,7.9a30.26077,30.26077,0,0,1-12.046-2.12,20.326,20.326,0,0,1-7.887-5.849,22.68564,22.68564,0,0,1-4.3-8.992,49.17244,49.17244,0,0,1-1.29-11.7Z"></path>
  </g>
  <g id="BMI">
    <rect x="75.774" y="11.869" width="161.358" height="161.358" fill="#009fe3"></rect>
    <g fill="white">
      <path d="M178.74371,64.755l-7.9424,32.70189h-.14881L162.7101,64.755h-24.383v37.13565A13.3981,13.3981,0,0,0,128.73169,89.588c4.1236-2.25364,6.85414-5.29255,6.85414-10.89884,0-5.68159-3.11242-13.93416-17.74938-13.93416H87.399v55.58783h31.53473c9.37848,0,18.60636-5.26386,19.4024-15.45451v15.45451h16.19317V84.68449h.15956l9.65818,35.65832h12.77239l9.65279-35.66012h.15956v35.66012h16.1878V64.755ZM104.519,77.98454h9.03425c3.50685,0,5.84116,1.01835,5.84116,3.817,0,3.58573-2.259,4.59512-5.84116,4.59512H104.5262Zm10.04,29.12513h-10.04V96.75227h10.7572c4.0465,0,5.99176,1.79287,5.99176,5.06485,0,4.27957-3.11242,5.29254-6.69457,5.29254"></path>
      <rect x="208.38517" y="64.75139" width="17.13084" height="55.595"></rect>
    </g>
  </g>
</svg>
