<?xml version="1.0" encoding="utf-8"?>
<!-- Generator: Adobe Illustrator 26.3.1, SVG Export Plug-In . SVG Version: 6.00 Build 0)  -->
<svg version="1.1" id="Layer_1" xmlns="http://www.w3.org/2000/svg" xmlns:xlink="http://www.w3.org/1999/xlink" x="0px" y="0px"
	 viewBox="0 0 164.9 100" style="enable-background:new 0 0 164.9 100;" xml:space="preserve">
<style type="text/css">
	.st0{fill:#009FE3;}
</style>
<g>
	<rect x="145.9" y="32.9" class="st0" width="7" height="34.5"/>
	<rect x="12" y="41.4" class="st0" width="7" height="26"/>
	<rect x="12" y="32.9" class="st0" width="7" height="6.6"/>
	<path class="st0" d="M66.7,60.9c-3.6,0-6.6-3-6.6-6.6c0-3.6,3-6.6,6.6-6.6c3.6,0,6.6,3,6.6,6.6l0,0C73.3,58,70.3,60.9,66.7,60.9
		 M66.7,40.8c-7.5,0-13.5,6-13.5,13.5c0,7.5,6,13.5,13.5,13.5c7.5,0,13.5-6,13.5-13.5C80.2,46.9,74.2,40.8,66.7,40.8
		C66.7,40.8,66.7,40.8,66.7,40.8"/>
	<path class="st0" d="M42.8,55.4c-0.6,3.6-4,6-7.6,5.4c-3.6-0.6-6-4-5.4-7.6s4-6,7.6-5.4c2.7,0.5,4.9,2.5,5.4,5.3h7
		C49,45.7,42.4,40.2,35,40.9c-7.4,0.7-12.9,7.3-12.2,14.7c0.7,7.4,7.3,12.9,14.7,12.2C44,67.2,49.2,62,49.7,55.4H42.8z"/>
	<path class="st0" d="M141.6,54.3c0-7.5-6.1-13.5-13.5-13.5c-7.5,0-13.5,6.1-13.5,13.5c0,7.4,6.1,13.5,13.5,13.5c1.7,0,3.4-0.4,5-1
		v-8.2c-2.4,2.7-6.5,3.1-9.2,0.7c-2.7-2.4-3.1-6.5-0.7-9.2s6.5-3.1,9.2-0.7c1.5,1.3,2.3,3.1,2.3,5c0,0,0,0,0,0.1V66l0,0v1.3h6.9
		L141.6,54.3L141.6,54.3z"/>
	<path class="st0" d="M97.2,40.8c-7.4,0-13.5,6-13.5,13.5h0v22.5h6.9V54.3h0v0c0-3.7,2.9-6.7,6.6-6.7c3.7,0,6.7,2.9,6.7,6.6
		c0,3.7-2.9,6.7-6.6,6.7c-2,0-3.9-0.8-5.1-2.3v8.2c1.6,0.7,3.3,1,5,1c7.5,0,13.5-6.1,13.5-13.5C110.7,46.8,104.7,40.8,97.2,40.8
		L97.2,40.8z"/>
</g>
</svg>
