<svg xmlns="http://www.w3.org/2000/svg" viewBox="0 0 270 100">
  <g fill="#009fe3">
    <rect x="248.236" y="32.877" width="7.013" height="34.479"></rect>
    <rect x="114.327" y="41.364" width="7.013" height="25.993"></rect>
    <rect x="114.327" y="32.924" width="7.013" height="6.561"></rect>
    <path d="M169.018,60.943a6.594,6.594,0,1,1,6.595-6.593h0a6.594,6.594,0,0,1-6.595,6.592m0-20.1A13.507,13.507,0,1,0,182.527,54.35a13.506,13.506,0,0,0-13.509-13.507"></path>
    <path d="M145.1,55.423a6.585,6.585,0,1,1-.029-2.326h6.974a13.514,13.514,0,1,0,.014,2.326Z"></path>
    <path d="M243.976,54.271a13.507,13.507,0,1,0-13.5,13.54,13.027,13.027,0,0,0,5.008-1.019V58.55a6.559,6.559,0,1,1,1.588-4.244c0,.019-.006.036-.006.054V66.027l.017-.008v1.338h6.9V54.272Z"></path>
    <path d="M199.566,40.8a13.5,13.5,0,0,0-13.5,13.472h-.006V76.75h6.9V54.314h.014v-.009a6.668,6.668,0,1,1,1.589,4.25V66.8a13.046,13.046,0,0,0,5.006,1.017,13.508,13.508,0,0,0,0-27.016Z"></path>
  </g>
  <g id="BMI_Block">
    <rect width="100" height="100" fill="#009fe3"></rect>
    <g fill="white">
      <path d="M62.176,34.911,57.84,52.77h-.084L53.417,34.911H40.11v20.28a7.315,7.315,0,0,0-5.239-6.716c2.255-1.235,3.742-2.891,3.742-5.953,0-3.1-1.7-7.611-9.693-7.611H12.3V65.27H29.515c5.121,0,10.16-2.878,10.6-8.443V65.27h8.844V45.8h.084L54.31,65.27h6.973L66.555,45.8h.085V65.27h8.844V34.911ZM21.65,42.139h4.933c1.913,0,3.188.554,3.188,2.084,0,1.956-1.233,2.507-3.188,2.507H21.65Zm5.485,15.9H21.65V52.386h5.867c2.211,0,3.272.978,3.272,2.763,0,2.339-1.7,2.891-3.655,2.891"></path>
      <rect x="78.358" y="34.914" width="9.354" height="30.356"></rect>
    </g>
  </g>
</svg>
