<svg xmlns="http://www.w3.org/2000/svg" viewBox="0 0 315 100">
  <g>
    <path d="M161.63691,54.51577h-7.29733V18.6377h7.29733ZM22.29732,27.46922H15V54.51577h7.29732Zm0-8.78239H15v6.82711h7.29732Zm49.612,29.15539a6.86133,6.86133,0,1,0-6.86283-6.85983,6.86244,6.86244,0,0,0,6.86283,6.85983m0-20.91583a14.0545,14.0545,0,1,1-14.056,14.056,14.05576,14.05576,0,0,1,14.056-14.056M47.02549,42.09811a6.85205,6.85205,0,1,1-.02977-2.41955h7.25864a14.06061,14.06061,0,1,0,.01488,2.41955Zm102.88176-1.198a14.05416,14.05416,0,1,0-14.05241,14.08839,13.56124,13.56124,0,0,0,5.21139-1.05935v-8.578a6.82635,6.82635,0,1,1,1.65151-4.41561c0,.01908-.00545.0367-.00563.05577V53.131l.0178-.00872v1.3934h7.18133V40.90015ZM103.69661,26.87843A14.05332,14.05332,0,0,0,89.64456,40.89725h-.00472V64.28913h7.18133V40.94484h.0138l-.00109-.01036a6.93918,6.93918,0,1,1,1.65388,4.42088v8.57655a13.55811,13.55811,0,0,0,5.20885,1.05845,14.056,14.056,0,0,0,0-28.11193Z" fill="#009fe3"></path>
    <path d="M172.78965,18.63883h6.77394V33.3726l13.28532-14.73377h7.68851L187.309,33.31571,201.99023,54.504H193.816L182.89805,38.208l-3.33446,3.71516V54.504h-6.77394ZM220.43039,52.1366a8.63345,8.63345,0,0,1-3.11566,2.20547,11.005,11.005,0,0,1-4.67787.96708,10.32422,10.32422,0,0,1-3.09378-.48135,8.856,8.856,0,0,1-2.79622-1.47907,7.45359,7.45359,0,0,1-2.04356-2.55554,8.05659,8.05659,0,0,1-.77891-3.65391,8.89366,8.89366,0,0,1,.80517-3.84644,7.9846,7.9846,0,0,1,2.258-2.84873,9.985,9.985,0,0,1,3.49637-1.75038,16.21242,16.21242,0,0,1,4.516-.59075q.75484,0,1.66722.02626c.61264.0175,1.20339.04376,1.77663.07877.64326.03938,1.30841.07439,1.98667.10939v-.59075a3.432,3.432,0,0,0-1.50532-2.95813,6.59166,6.59166,0,0,0-3.9252-1.07648,11.04046,11.04046,0,0,0-4.30154.70015,19.38933,19.38933,0,0,0-2.84873,1.50532L204.94836,31.596q.74828-.53825,1.71974-1.10273a12.95821,12.95821,0,0,1,2.258-1.0196,18.28612,18.28612,0,0,1,2.98438-.75266,23.23718,23.23718,0,0,1,3.95146-.29756,13.37718,13.37718,0,0,1,4.38031.67389,9.9607,9.9607,0,0,1,3.36071,1.88165,8.19757,8.19757,0,0,1,2.153,2.90125,8.95035,8.95035,0,0,1,.75266,3.68453V54.504H220.5923Zm0-9.03193c-.64326-.035-1.269-.07-1.88165-.10939-.49885-.035-1.02834-.06127-1.58408-.07877s-1.03272-.02626-1.42655-.02626q-3.06534,0-4.30154,1.20776a3.78637,3.78637,0,0,0-1.234,2.77,3.05084,3.05084,0,0,0,1.15525,2.52929,5.42738,5.42738,0,0,0,3.41322.91457,6.44775,6.44775,0,0,0,2.17922-.37633,6.56759,6.56759,0,0,0,1.85539-1.024,5.52721,5.52721,0,0,0,1.31716-1.50532,3.509,3.509,0,0,0,.5076-1.82914Zm14.35743-8.66h-4.30154V29.28548h4.30154V21.11124h6.3451v8.17424h6.77394V34.4447h-6.77394V45.47205a6.26047,6.26047,0,0,0,.7264,3.30383,2.55274,2.55274,0,0,0,2.34112,1.15963,5.4999,5.4999,0,0,0,2.38926-.43322,10.64664,10.64664,0,0,0,1.69786-1.01959l2.68682,3.92521a13.009,13.009,0,0,1-3.71079,2.23172,11.82811,11.82811,0,0,1-4.08711.66952,10.24854,10.24854,0,0,1-3.92521-.66952,6.47526,6.47526,0,0,1-2.60806-1.91228,7.4922,7.4922,0,0,1-1.42217-2.98,16.01973,16.01973,0,0,1-.43322-3.84644Zm20.80754,0h-4.30153V29.28548h4.30153V21.11124h6.3451v8.17424h6.77394V34.4447h-6.77394V45.47205a6.26037,6.26037,0,0,0,.72641,3.30383,2.55273,2.55273,0,0,0,2.34112,1.15963,5.4999,5.4999,0,0,0,2.38926-.43322,10.64708,10.64708,0,0,0,1.69786-1.01959l2.68682,3.92521a13.009,13.009,0,0,1-3.71079,2.23172,11.82817,11.82817,0,0,1-4.08712.66952,10.24854,10.24854,0,0,1-3.92521-.66952,6.47523,6.47523,0,0,1-2.608-1.91228,7.49235,7.49235,0,0,1-1.42218-2.98,16.01973,16.01973,0,0,1-.43322-3.84644Zm17.20616,7.42159a13.61406,13.61406,0,0,1,.99771-5.18986,12.93316,12.93316,0,0,1,7.04087-7.17653,14.6474,14.6474,0,0,1,11.023,0,12.92252,12.92252,0,0,1,7.04525,7.17653,13.99706,13.99706,0,0,1,0,10.37971,13.40132,13.40132,0,0,1-2.77,4.30154,12.85047,12.85047,0,0,1-4.27528,2.93188,14.6474,14.6474,0,0,1-11.023,0,12.83186,12.83186,0,0,1-4.2709-2.93188,13.40132,13.40132,0,0,1-2.77-4.30154A13.614,13.614,0,0,1,272.80152,41.86629Zm13.55225,8.01233a6.56982,6.56982,0,0,0,3.17255-.72641,6.7342,6.7342,0,0,0,2.23173-1.9079,8.43191,8.43191,0,0,0,1.31715-2.5818,9.53956,9.53956,0,0,0,.42884-2.79622,9.636,9.636,0,0,0-.42884-2.77,8.1,8.1,0,0,0-1.31715-2.5818,6.92256,6.92256,0,0,0-2.23173-1.88165,7.29116,7.29116,0,0,0-6.3451,0,6.92263,6.92263,0,0,0-2.23172,1.88165,8.01181,8.01181,0,0,0-1.31715,2.5818,9.24492,9.24492,0,0,0,0,5.56619,8.33615,8.33615,0,0,0,1.31715,2.5818,6.73426,6.73426,0,0,0,2.23172,1.9079A6.55789,6.55789,0,0,0,286.35377,49.87862Z" fill="#70706f"></path>
    <path d="M172.78965,71.22705h3.59189a6.26377,6.26377,0,0,1,1.91859.25411,3.207,3.207,0,0,1,1.25293.70969,2.6677,2.6677,0,0,1,.68328,1.06864,4.32148,4.32148,0,0,1,0,2.66331,2.66409,2.66409,0,0,1-.68328,1.06884,3.20425,3.20425,0,0,1-1.25293.7097,6.25785,6.25785,0,0,1-1.91859.2539H173.6308V82.9139h-.84115Zm3.83719,5.93987a3.15863,3.15863,0,0,0,2.19031-.65708,2.92149,2.92149,0,0,0,0-3.83719,3.15759,3.15759,0,0,0-2.19031-.65707h-2.996v5.15134Zm10.82828,5.747q-.01761-.24529-.0262-.54323-.00912-.29751-.00881-.80593a3.53068,3.53068,0,0,1-.70089.76211,3.61026,3.61026,0,0,1-.77972.482,3.40922,3.40922,0,0,1-.79713.2453,4.3443,4.3443,0,0,1-.7359.07,4.9898,4.9898,0,0,1-1.01622-.10525,2.52361,2.52361,0,0,1-.91118-.37655,2.05649,2.05649,0,0,1-.65708-.7359,2.44617,2.44617,0,0,1-.25411-1.1827,3.10428,3.10428,0,0,1,.19289-1.09526,2.23417,2.23417,0,0,1,.61326-.89357,3.02042,3.02042,0,0,1,1.08624-.59564,5.19852,5.19852,0,0,1,1.61207-.21909q.73592,0,1.31394.05262.57834.05251.98121.12265v-.45559a3.295,3.295,0,0,0-.15767-1.10386,1.59023,1.59023,0,0,0-.473-.70089,1.82758,1.82758,0,0,0-.77092-.368,4.7124,4.7124,0,0,0-1.05144-.105,3.62884,3.62884,0,0,0-1.58565.28912,4.64455,4.64455,0,0,0-.90238.55182l-.42037-.543a4.31945,4.31945,0,0,1,2.891-1.01643,3.82137,3.82137,0,0,1,2.418.66588,2.65235,2.65235,0,0,1,.841,2.20772v4.37161q0,.30695.01761.53443l.035.4906Zm-.07-4.11751a7.84886,7.84886,0,0,0-.92-.14906,13.27242,13.27242,0,0,0-1.41038-.06123,3.76913,3.76913,0,0,0-1.41918.2191,2.04171,2.04171,0,0,0-.79734.543,1.59278,1.59278,0,0,0-.35034.70089,3.32871,3.32871,0,0,0-.07883.67468,1.43671,1.43671,0,0,0,.58684,1.28773,2.63262,2.63262,0,0,0,1.49822.39417,2.99344,2.99344,0,0,0,1.12126-.21008,3.10712,3.10712,0,0,0,.92-.56084,2.70944,2.70944,0,0,0,.62206-.79713,1.972,1.972,0,0,0,.22769-.90238Zm3.20632-2.24273v-.99c0-.12265-.00314-.23922-.0088-.35034q-.00912-.16637-.02642-.35936h.7359q.01731.19309.02642.368.00849.1755.0174.37676.00881.2016.00881.44679v.57824a5.0496,5.0496,0,0,1,.37676-.587,2.96632,2.96632,0,0,1,.60445-.60445,3.55908,3.55908,0,0,1,.85855-.473,3.09989,3.09989,0,0,1,1.13887-.19289,1.65732,1.65732,0,0,1,.66588.12266l-.2279.75351a1.00323,1.00323,0,0,0-.28891-.07,2.99609,2.99609,0,0,0-.30673-.01762,2.32024,2.32024,0,0,0-1.13887.28032,2.94642,2.94642,0,0,0-.87617.73591,3.40188,3.40188,0,0,0-.56943,1.04263,3.62013,3.62013,0,0,0-.20149,1.18269V82.9139h-.78832Zm6.58792-.9638h-1.61207V74.854h1.61207v-2.6631h.78853V74.854h2.6631v.73591h-2.6631v4.66073a5.01242,5.01242,0,0,0,.105,1.14768,1.45661,1.45661,0,0,0,.30653.64827.95664.95664,0,0,0,.46439.28912,2.24044,2.24044,0,0,0,.57824.07,1.66579,1.66579,0,0,0,.75331-.15767,2.01061,2.01061,0,0,0,.63087-.543l.4906.473a2.57032,2.57032,0,0,1-.79713.7009,2.4163,2.4163,0,0,1-1.16528.2453,3.22128,3.22128,0,0,1-.87617-.11385,1.438,1.438,0,0,1-.68328-.42057,2.11273,2.11273,0,0,1-.438-.82355,4.63022,4.63022,0,0,1-.15767-1.323Zm12.42254,7.53433a3.94477,3.94477,0,0,1-1.61207-.33294,4.26749,4.26749,0,0,1,0-7.81465,4.06875,4.06875,0,0,1,3.22394,0,4.23905,4.23905,0,0,1,2.21652,2.26034,4.34643,4.34643,0,0,1,0,3.294,4.23905,4.23905,0,0,1-2.21652,2.26034A3.946,3.946,0,0,1,209.60188,83.12419Zm0-.7185a3.12142,3.12142,0,0,0,1.31394-.28032,3.36116,3.36116,0,0,0,1.06-.75331,3.46475,3.46475,0,0,0,.70089-1.11266,3.694,3.694,0,0,0,.25411-1.37537,3.49739,3.49739,0,0,0-.26271-1.34056,3.82183,3.82183,0,0,0-.70969-1.13007,3.247,3.247,0,0,0-1.06-.77092,3.19975,3.19975,0,0,0-2.61949,0,3.39472,3.39472,0,0,0-1.05123.75352,3.46013,3.46013,0,0,0-.70089,1.11245,3.69251,3.69251,0,0,0-.25411,1.37558,3.47107,3.47107,0,0,0,.26291,1.34916,3.84824,3.84824,0,0,0,.70949,1.12126,3.23046,3.23046,0,0,0,1.06.77092A3.08113,3.08113,0,0,0,209.60188,82.40569Zm6.83323-6.81583h-1.61187V74.854h1.61187v-.92858a3.37232,3.37232,0,0,1,.63946-2.20772,2.26555,2.26555,0,0,1,1.84857-.77092,2.86852,2.86852,0,0,1,1.30534.26292,2.83967,2.83967,0,0,1,.86736.66567l-.50822.4906a2.55328,2.55328,0,0,0-.7359-.53442,2.07015,2.07015,0,0,0-.85856-.16647,2.28909,2.28909,0,0,0-.70948.10525,1.19185,1.19185,0,0,0-.56063.39416,2.05835,2.05835,0,0,0-.368.78853,5.194,5.194,0,0,0-.13145,1.28773V74.854h2.6633v.73591h-2.6633v7.324h-.78853Zm8.32243-4.36281h3.87221a4.09543,4.09543,0,0,1,1.47181.23649,2.7622,2.7622,0,0,1,.99881.63087,2.386,2.386,0,0,1,.56063.91118,3.39432,3.39432,0,0,1,.17528,1.09505,2.722,2.722,0,0,1-.15766.92859,3.00165,3.00165,0,0,1-.42939.79733,2.50083,2.50083,0,0,1-.65707.60445,2.39145,2.39145,0,0,1-.85856.33294,5.153,5.153,0,0,1,.9462.2453,2.86288,2.86288,0,0,1,.89357.51682,2.659,2.659,0,0,1,.66587.88476,3.60167,3.60167,0,0,1-.08763,2.8998,2.65053,2.65053,0,0,1-.955.96381,4.11182,4.11182,0,0,1-1.40158.4992,9.73467,9.73467,0,0,1-1.6909.14026h-3.34659Zm3.39921,5.204a4.07,4.07,0,0,0,.9724-.12265,2.68547,2.68547,0,0,0,.90238-.403,2.3438,2.3438,0,0,0,.66588-.7097,1.961,1.961,0,0,0,.2627-1.04243,2.1568,2.1568,0,0,0-.25411-1.12147,1.79324,1.79324,0,0,0-.65686-.64827,2.5354,2.5354,0,0,0-.90237-.29792,7.1455,7.1455,0,0,0-.99-.07h-2.558V76.431Zm-.26291,5.69436q.66577,0,1.33176-.06122a3.81391,3.81391,0,0,0,1.20009-.29793,2.05979,2.05979,0,0,0,.86736-.7097A2.21939,2.21939,0,0,0,231.626,79.76a2.32742,2.32742,0,0,0-.32413-1.28773,2.26234,2.26234,0,0,0-.82355-.77092,3.5719,3.5719,0,0,0-1.11266-.37676,7.05656,7.05656,0,0,0-1.19149-.10525H225.5987v4.906Zm7.42908-10.89832h.911l4.06509,6.93848,4.15251-6.93848h.80594l.52582,11.68685h-.84115l-.403-10.3727-4.03007,6.69317h-.543l-3.92483-6.67556-.403,10.35509h-.84095Zm13.33393,0h.84073V82.9139h-.84073Zm15.82133,6.93848h-3.1189v-.78832h3.96v4.38021a4.9564,4.9564,0,0,1-.71871.517,6.0069,6.0069,0,0,1-.9724.46418,6.8491,6.8491,0,0,1-1.2437.33294,8.95741,8.95741,0,0,1-1.55107.12266,5.85119,5.85119,0,0,1-2.31254-.44679,5.09906,5.09906,0,0,1-1.79594-1.26152,5.76562,5.76562,0,0,1-1.15649-1.94481,7.19,7.19,0,0,1-.41177-2.47943,6.83473,6.83473,0,0,1,.41177-2.39159,6.00251,6.00251,0,0,1,1.15649-1.945,5.29294,5.29294,0,0,1,1.79594-1.30534,5.57118,5.57118,0,0,1,2.31254-.473,5.06183,5.06183,0,0,1,1.77876.28032,5.1497,5.1497,0,0,1,1.2525.65707,4.16537,4.16537,0,0,1,.79755.74471,6.11869,6.11869,0,0,1,.39416.54323l-.63066.438q-.10568-.13995-.35055-.44678a3.58122,3.58122,0,0,0-.67468-.62206,4.72243,4.72243,0,0,0-1.04243-.56063,3.85782,3.85782,0,0,0-1.437-.24531,4.86482,4.86482,0,0,0-2.04124.41178,4.40573,4.40573,0,0,0-1.52423,1.13006,5.0476,5.0476,0,0,0-.95479,1.69091,6.4142,6.4142,0,0,0-.33294,2.09366,6.57349,6.57349,0,0,0,.32414,2.09387,5.02427,5.02427,0,0,0,.946,1.6995,4.39876,4.39876,0,0,0,1.507,1.13908,4.6569,4.6569,0,0,0,1.98841.41157A6.93309,6.93309,0,0,0,263.05,82.108a5.51428,5.51428,0,0,0,1.42821-.70089Zm3.50425-1.61187v-.99c0-.12265-.00294-.23922-.00881-.35034q-.0088-.16637-.02642-.35936h.73591q.01761.19309.02641.368c.00588.117.01133.24258.01762.37676.00545.1344.0088.28346.0088.44679v.57824a5.01877,5.01877,0,0,1,.37655-.587,2.96786,2.96786,0,0,1,.60466-.60445,3.55776,3.55776,0,0,1,.85834-.473,3.10072,3.10072,0,0,1,1.13888-.19289,1.658,1.658,0,0,1,.66587.12266l-.22769.75351a1.00615,1.00615,0,0,0-.28933-.07,2.98563,2.98563,0,0,0-.30652-.01762,2.32082,2.32082,0,0,0-1.13887.28032,2.94822,2.94822,0,0,0-.876.73591,3.40188,3.40188,0,0,0-.56943,1.04263,3.61514,3.61514,0,0,0-.20169,1.18269V82.9139h-.78832Zm9.09335,6.57053a3.94376,3.94376,0,0,1-1.61186-.33294,4.23905,4.23905,0,0,1-2.21652-2.26034,4.34631,4.34631,0,0,1,0-3.294,4.23905,4.23905,0,0,1,2.21652-2.26034,4.06923,4.06923,0,0,1,3.22414,0,4.24022,4.24022,0,0,1,2.2161,2.26034,4.34631,4.34631,0,0,1,0,3.294,4.24022,4.24022,0,0,1-2.2161,2.26034A3.94859,3.94859,0,0,1,277.07578,83.12419Zm0-.7185a3.12171,3.12171,0,0,0,1.31415-.28032,3.36112,3.36112,0,0,0,1.06-.75331,3.4617,3.4617,0,0,0,.70111-1.11266,3.69843,3.69843,0,0,0,.2541-1.37537,3.49364,3.49364,0,0,0-.26291-1.34056,3.81816,3.81816,0,0,0-.70991-1.13007,3.24239,3.24239,0,0,0-1.06-.77092,3.19973,3.19973,0,0,0-2.61948,0,3.3997,3.3997,0,0,0-1.05124.75352,3.46,3.46,0,0,0-.70068,1.11245,3.6927,3.6927,0,0,0-.2541,1.37558,3.47089,3.47089,0,0,0,.26291,1.34916,3.85241,3.85241,0,0,0,.70949,1.12126,3.23042,3.23042,0,0,0,1.06.77092A3.08092,3.08092,0,0,0,277.07578,82.40569ZM283.1731,74.854h.78832V79.322a6.25689,6.25689,0,0,0,.14928,1.48921,2.296,2.296,0,0,0,.44657.9462,1.57476,1.57476,0,0,0,.73591.4906,3.3292,3.3292,0,0,0,1.01643.14026,2.64,2.64,0,0,0,1.31414-.31532,2.85793,2.85793,0,0,0,.91957-.80615,3.4924,3.4924,0,0,0,.53463-1.08624,4.154,4.154,0,0,0,.17528-1.17389V74.854h.78832V82.2042c0,.12265.00251.23964.0088.35055.00587.11112.01426.23084.02642.35915h-.73591c-.01216-.12831-.02054-.2453-.02641-.35034q-.0088-.15787-.01761-.34175-.00882-.184-.00881-.41177V81.2318a4.98009,4.98009,0,0,1-.38535.59585,3.21792,3.21792,0,0,1-1.49823,1.10386,3.43109,3.43109,0,0,1-1.20009.19268,3.691,3.691,0,0,1-1.43659-.2453,2.28789,2.28789,0,0,1-.9376-.7097,2.8244,2.8244,0,0,1-.50821-1.11267,6.591,6.591,0,0,1-.14886-1.4716Zm9.35669,1.69971v-.99c0-.12265-.00294-.23922-.00881-.35034q-.00881-.16637-.02642-.35936h.73591q.01761.19309.02641.34175c.00588.09938.01133.20148.01762.30652q.00817.15788.01719.35936.0088.20158.0088.48179.08743-.15786.28053-.438a2.61031,2.61031,0,0,1,.55182-.56084,3.628,3.628,0,0,1,.88477-.49061,3.399,3.399,0,0,1,1.26173-.21029,3.64754,3.64754,0,0,1,1.61186.33294,3.14291,3.14291,0,0,1,1.13006.91118,3.93671,3.93671,0,0,1,.66588,1.358,6.236,6.236,0,0,1,.21889,1.6907,4.6132,4.6132,0,0,1-.30652,1.71711,3.86279,3.86279,0,0,1-.85835,1.323,3.82171,3.82171,0,0,1-1.29654.84975,4.32821,4.32821,0,0,1-1.62108.29793,4.09358,4.09358,0,0,1-1.47181-.2365,8.18524,8.18524,0,0,1-1.05124-.482v4.01246h-.7707Zm.7707,4.95846q.12265.088.33294.2367a3.064,3.064,0,0,0,.52583.28891,4.54968,4.54968,0,0,0,.7271.2453,3.7914,3.7914,0,0,0,.93718.10525,3.49872,3.49872,0,0,0,1.26173-.2279,2.91024,2.91024,0,0,0,1.03362-.66567,3.13991,3.13991,0,0,0,.6923-1.07765,3.99859,3.99859,0,0,0,.2541-1.48061,5.70685,5.70685,0,0,0-.15766-1.34916,3.37041,3.37041,0,0,0-.49941-1.13888,2.48527,2.48527,0,0,0-.88476-.77972,2.80645,2.80645,0,0,0-1.33176-.28912,2.74745,2.74745,0,0,0-.95479.15787,2.62558,2.62558,0,0,0-.76232.42918,2.97355,2.97355,0,0,0-.57824.63086,3.33682,3.33682,0,0,0-.38536.7445,2.8698,2.8698,0,0,0-.16647.75352,8.93352,8.93352,0,0,0-.044.89357Z" fill="#70706f"></path>
  </g>
</svg>
