<svg width="189" height="100" viewBox="0 0 189 100" fill="none" xmlns="http://www.w3.org/2000/svg">
<path d="M12 34.9253V70.9998H19.2931V55.377L30.2944 70.9998H38.7019L26.3196 53.2286L39.0784 34.9691H30.6378L19.2886 50.6214V34.9253H12Z" fill="#E30613"/>
<path d="M42.751 34.9692L42.7305 70.9999H60.007L60.0267 63.6219H50.1183V34.9692H42.751Z" fill="#E30613"/>
<path d="M99.0454 70.9793V34.9701H111.113C113.743 34.921 116.292 35.8784 118.24 37.6465C120.187 39.4145 121.386 41.8597 121.591 44.4822C121.591 49.4068 120.587 50.5535 117.646 52.7108C120.786 53.5158 122.648 56.0774 122.648 60.5021C122.648 67.3685 117.259 70.9801 111.845 70.9801L99.0454 70.9793ZM105.669 49.0187H111.158C113.573 49.0187 115.386 48.4051 115.386 45.1262C115.386 41.9438 113.491 41.3124 110.914 41.3124H105.666L105.669 49.0187ZM105.669 64.8042H111.869C113.328 64.8042 115.555 64.0153 115.555 60.299C115.589 59.7901 115.519 59.2795 115.35 58.7982C115.181 58.3169 114.917 57.8748 114.572 57.4986C114.228 57.1224 113.81 56.82 113.346 56.6095C112.881 56.3991 112.379 56.285 111.869 56.2742H105.669V64.8042Z" fill="#E30613"/>
<path d="M126.507 70.9993H145.901V63.6651H133.656V56.3059H145.835V49.0244H133.656L133.643 42.3727H145.773L145.835 34.9946H126.507V70.9993Z" fill="#E30613"/>
<path d="M158.243 70.9794H151.048V34.9702H161.431C165.379 34.9702 168.451 35.2752 171.127 37.513C172.283 38.5066 173.208 39.7405 173.837 41.1286C174.466 42.5167 174.784 44.0254 174.77 45.5494C174.77 52.3747 170.624 55.2985 166.766 55.9443L177.237 70.9794H168.17L158.243 56.3897V70.9794ZM158.243 56.3915V56.2734H158.164L158.243 56.3915ZM163.5 41.1435H158.159V49.0143H163.856C166.075 49.0143 168.515 49.0492 168.515 45.1952C168.515 40.9199 164.994 41.139 163.499 41.139" fill="#E30613"/>
<path d="M60.0276 52.9133C60.0156 51.0932 60.2696 49.281 60.7816 47.5343C61.2805 45.8431 62.0345 44.2379 63.0177 42.7742C64.6008 40.4073 66.7355 38.4606 69.238 37.1016C71.7404 35.7427 74.5355 35.0122 77.3829 34.9731L70.317 44.9906L70.2034 45.1024C69.1909 46.082 68.3905 47.2592 67.852 48.561C67.3135 49.8628 67.0483 51.2615 67.0729 52.67C67.06 54.0914 67.3074 55.5031 67.8028 56.8354C68.298 58.1349 69.0331 59.3297 69.97 60.3576C70.9743 61.4803 72.19 62.3943 73.5476 63.0471C74.8442 63.6574 76.2593 63.9744 77.6924 63.9755C79.1067 64.0045 80.5109 63.7307 81.8107 63.1724C83.1106 62.6141 84.276 61.7843 85.2287 60.7386C87.2778 58.5609 88.379 55.6589 88.2903 52.67C88.3365 50.077 87.4022 47.5622 85.6741 45.6283L89.7491 39.8513L90.0335 40.1294C91.704 41.7996 93.0318 43.7804 93.9421 45.9602C94.8373 48.1173 95.2934 50.4312 95.2837 52.7666C95.3011 55.1513 94.8696 57.518 94.0119 59.7431C93.1882 61.9036 91.9297 63.872 90.3144 65.5264C88.7014 67.2597 86.7473 68.6407 84.5751 69.5827C82.4028 70.5247 80.0592 71.0073 77.6915 71.0002C75.2666 71.027 72.8619 70.557 70.6256 69.6192C68.4465 68.6805 66.4944 67.2848 64.9013 65.5264C63.3275 63.8576 62.0881 61.9026 61.2503 59.7672C60.4249 57.5771 60.0099 55.2538 60.0258 52.9133" fill="#E30613"/>
<path d="M85.2393 29H93.908L80.1697 48.475H71.502L85.2393 29Z" fill="black"/>
</svg>
