<svg xmlns="http://www.w3.org/2000/svg" viewBox="0 0 350 100">
  <rect id="whiteBox" x="100" width="250" height="100"></rect>
  <g id="Monarflex" fill="#004f9e">
    <polygon points="114.403 65.689 114.403 34.487 126.755 34.487 132.257 53.946 137.76 34.487 150.111 34.487 150.111 65.689 140.926 65.689 140.926 56.156 141.054 51.303 141.575 45.67 141.489 45.67 135.811 65.689 128.703 65.689 123.028 45.67 122.941 45.67 123.374 50.263 123.591 55.114 123.591 65.689 114.403 65.689"></polygon>
    <path d="M165.28413,42.3314c8.01679,0,12.95857,4.7245,12.95857,11.788,0,8.32053-5.63349,12.2203-12.91424,12.2203-7.27851,0-12.912-3.98623-12.912-11.74364,0-7.8882,5.19673-12.26463,12.86767-12.26463m-3.85542,11.788c0,4.29218,1.60292,6.15227,3.89975,6.15227,2.42766,0,3.902-1.86009,3.902-6.15227,0-3.33664-1.47433-5.85075-3.81552-5.72-3.07724,0-3.98622,3.16371-3.98622,5.72"></path>
    <path d="M180.57125,42.9821h8.23406V46.536c2.03524-2.73138,4.24563-4.20349,7.66872-4.20349,5.98378,0,8.79942,3.50956,8.79942,9.7483V65.689H196.259v-12.003c0-2.25251-.60747-4.24784-3.16371-4.24784-2.77351,0-3.50957,1.77806-3.50957,4.68016V65.689h-9.01445Z"></path>
    <path d="M224.655,65.689l-.43453-2.42766c-2.55624,2.38553-5.1546,3.07725-8.5378,3.07725-4.28776,0-8.10326-2.1217-8.10326-6.84621,0-10.31364,16.1644-5.63348,16.1644-9.88132,0-1.645-1.9909-1.86231-2.94644-1.86231-1.25706,0-2.94645.25939-3.16371,2.21039h-8.66638c0-4.811,3.42309-7.6266,12.39321-7.6266,10.746,0,11.39556,3.98623,11.39556,9.40244V62.35233a2.94624,2.94624,0,0,0,1.21494,2.90431V65.689Zm-.91119-10.052c-2.94644,1.43-6.84621.73606-6.84621,3.6825,0,1.12625,1.08191,1.90664,2.86,1.90664,3.16371,0,4.2035-2.46977,3.98623-5.58914"></path>
    <path d="M235.84017,42.9821h8.18971v4.59369h.08646c1.25707-3.5539,3.46745-5.24328,6.977-5.24328a11.04628,11.04628,0,0,1,1.17059.12859v9.01446a13.75924,13.75924,0,0,0-1.86453-.2594c-3.68249,0-5.547,1.73372-5.547,6.62894V65.689h-9.01223Z"></path>
    <path d="M270.476,42.97566v5.20117h-3.77118V65.68475h-9.01223V48.17683h-2.99078V42.97566h3.03289c0-8.01679,3.1216-9.316,8.88367-9.316H270.476v5.6756c-2.94644,0-3.98623,0-3.77118,3.64037Zm11.44656,22.70909h-9.01447V34.48221h9.01447Z"></path>
    <path d="M293.213,56.28586a4.37417,4.37417,0,0,0,4.46066,4.4651,3.59924,3.59924,0,0,0,3.38319-1.99311h8.622c-1.56078,5.63348-7.28073,7.49579-12.56835,7.49579-7.27853,0-12.91422-4.16137-12.91422-11.78575,0-7.45368,5.59357-12.2203,12.87211-12.2203,8.407,0,13.47734,5.80642,13.34652,14.03827Zm8.18972-4.59149a4.086,4.086,0,0,0-3.98847-3.9441c-2.687,0-4.20125,1.51645-4.20125,3.9441Z"></path>
    <polygon points="316.487 53.73 308.991 42.897 319.001 42.897 321.861 48.575 324.894 42.897 334.775 42.897 327.018 53.685 334.862 65.604 324.807 65.604 321.601 59.104 318.307 65.604 308.339 65.604 316.487 53.73"></polygon>
  </g>
  <g id="BMI_Block">
    <rect width="100" height="100" fill="#009fe3"></rect>
    <g fill="white">
      <path d="M62.176,34.911,57.84,52.77h-.084L53.417,34.911H40.11v20.28a7.315,7.315,0,0,0-5.239-6.716c2.255-1.235,3.742-2.891,3.742-5.953,0-3.1-1.7-7.611-9.693-7.611H12.3V65.27H29.515c5.121,0,10.16-2.878,10.6-8.443V65.27h8.844V45.8h.084L54.31,65.27h6.973L66.555,45.8h.085V65.27h8.844V34.911ZM21.65,42.139h4.933c1.913,0,3.188.554,3.188,2.084,0,1.956-1.233,2.507-3.188,2.507H21.65Zm5.485,15.9H21.65V52.386h5.867c2.211,0,3.272.978,3.272,2.763,0,2.339-1.7,2.891-3.655,2.891"></path>
      <rect x="78.358" y="34.914" width="9.354" height="30.356"></rect>
    </g>
  </g>
</svg>
