<?xml version="1.0" encoding="utf-8"?>
<!-- Generator: Adobe Illustrator 26.3.1, SVG Export Plug-In . SVG Version: 6.00 Build 0)  -->
<svg version="1.1" id="Layer_1" xmlns="http://www.w3.org/2000/svg" xmlns:xlink="http://www.w3.org/1999/xlink" x="0px" y="0px"
	 viewBox="0 0 255.9 100" style="enable-background:new 0 0 255.9 100;" xml:space="preserve">
<style type="text/css">
	.st0{fill:#0D215A;}
</style>
<g id="Monarplan">
	<path class="st0" d="M21.2,65.5H12V34.5h12.4L28.8,50c0.1,0.2,0.2,0.7,0.3,1.4c0.2,0.7,0.4,1.8,0.7,3.1c0.2-1,0.4-1.9,0.6-2.7
		c0.2-0.8,0.3-1.4,0.5-1.8l4.5-15.5h12.4v30.9h-9.2l0.1-15.2c0-0.9,0-1.8,0-2.7c0-0.9,0-1.8,0-2.7c-0.3,1.6-0.8,3.3-1.3,5.2
		l-0.1,0.3l-3.9,15.1h-7.1l-4-14.8c-0.2-0.7-0.4-1.4-0.6-2.3s-0.4-2-0.7-3.5c0,1.3,0.1,2.5,0.1,3.4c0,1,0,1.7,0,2.3L21.2,65.5z"/>
	<path class="st0" d="M50.5,54c0-3.8,1.1-6.8,3.4-8.9c2.3-2.2,5.4-3.3,9.3-3.3c4,0,7.1,1.1,9.3,3.3s3.4,5.2,3.4,8.9
		c0,3.8-1.1,6.8-3.4,9c-2.3,2.2-5.4,3.3-9.3,3.3c-3.9,0-7-1.1-9.3-3.3C51.7,60.8,50.5,57.8,50.5,54z M59.6,54
		c-0.1,1.6,0.2,3.1,0.9,4.6c0.6,0.9,1.7,1.5,2.8,1.4c1.1,0.1,2.2-0.4,2.8-1.4c0.7-1.4,1-3,0.9-4.5c0.1-1.6-0.2-3.1-0.9-4.5
		c-0.6-0.9-1.7-1.5-2.8-1.4c-1.1-0.1-2.2,0.4-2.8,1.4C59.7,50.9,59.5,52.5,59.6,54L59.6,54z"/>
	<path class="st0" d="M78.5,65.5V42.7h8.2V46c0.9-1.2,2.2-2.3,3.5-3c1.4-0.7,2.9-1,4.4-1c1.3,0,2.5,0.2,3.7,0.7
		c1.1,0.5,2,1.2,2.8,2.1c0.7,0.9,1.2,1.9,1.5,3c0.3,1.9,0.5,3.9,0.4,5.8v11.9h-9V53.7c0.1-1.2-0.1-2.5-0.7-3.6
		c-0.6-0.7-1.5-1.1-2.4-1c-1-0.1-1.9,0.4-2.5,1.1c-0.6,1-0.9,2.3-0.8,3.5v11.8H78.5z"/>
	<path class="st0" d="M122.3,65.5l-0.6-2.2c-1.1,1-2.4,1.8-3.7,2.3c-1.4,0.5-3,0.8-4.5,0.7c-2.1,0.1-4.3-0.5-5.9-1.9
		c-1.4-1.4-2.2-3.4-2.1-5.4c-0.2-1.9,0.6-3.8,2.1-5c1.4-1.1,4-1.9,7.8-2.4c0.5-0.1,1.1-0.1,2-0.2c2.8-0.3,4.3-1.1,4.3-2.2
		c0-0.6-0.3-1.1-0.8-1.4c-0.8-0.4-1.6-0.5-2.5-0.4c-0.8,0-1.5,0.1-2.1,0.6c-0.5,0.4-0.8,1-0.9,1.7h-8.8c-0.1-2.4,1.1-4.6,3.1-5.8
		c2-1.3,5-2,9-2c1.7,0,3.5,0.2,5.1,0.5c1.3,0.2,2.5,0.7,3.7,1.4c1,0.6,1.7,1.5,2.2,2.5c0.5,1.3,0.7,2.6,0.6,3.9v12.7
		c0,0.4,0.1,0.8,0.2,1.1c0.2,0.3,0.4,0.6,0.7,0.8v0.7L122.3,65.5z M121.5,55.3c-1.1,0.4-2.3,0.8-3.4,1.1c-2.2,0.6-3.4,1.4-3.4,2.4
		c0,0.6,0.2,1.1,0.7,1.5c0.5,0.4,1.2,0.6,1.9,0.5c1.2,0.1,2.4-0.3,3.3-1c0.8-0.9,1.1-2.1,1-3.3c0-0.3,0-0.6,0-0.7
		C121.5,55.6,121.5,55.4,121.5,55.3z"/>
	<path class="st0" d="M133.8,65.5V42.7h8.3v4.2c0.4-1.4,1.3-2.7,2.6-3.6c1.3-0.8,2.9-1.2,4.4-1.1h0.8v9.1c-0.3,0-0.6-0.1-1-0.1
		s-0.6,0-0.9,0c-1.4-0.1-2.9,0.3-4,1.2c-0.9,1.1-1.4,2.5-1.3,3.9v9.4L133.8,65.5z"/>
	<path class="st0" d="M152.4,74.6v-32h8v2.9c0.8-1.1,1.9-2.1,3.1-2.7c1.3-0.6,2.8-0.9,4.2-0.9c2.8-0.1,5.4,1.2,7.2,3.3
		c1.9,2.5,2.9,5.6,2.7,8.7c0,3.7-0.9,6.6-2.7,8.8c-1.8,2.2-4.5,3.4-7.3,3.3c-1.3,0-2.5-0.2-3.7-0.7c-1.1-0.5-2-1.3-2.7-2.2v11.3
		L152.4,74.6z M168.6,54.1c0.1-1.4-0.2-2.8-0.9-4c-0.6-0.9-1.7-1.4-2.7-1.3c-1.1-0.1-2.2,0.4-2.9,1.3c-0.7,1.2-1,2.6-0.9,4
		c-0.1,1.4,0.2,2.7,0.9,3.9c1.3,1.5,3.6,1.7,5.1,0.4c0.2-0.1,0.3-0.3,0.4-0.4C168.4,56.8,168.7,55.5,168.6,54.1L168.6,54.1z"/>
	<path class="st0" d="M180.6,65.5V34.5h8.7v30.9H180.6z"/>
	<path class="st0" d="M208.5,65.5l-0.6-2.2c-1.1,1-2.4,1.8-3.8,2.3c-1.5,0.5-3,0.8-4.5,0.7c-2.2,0.1-4.3-0.5-6-1.9
		c-1.5-1.4-2.2-3.4-2.1-5.4c-0.2-1.9,0.6-3.8,2.1-5c1.4-1.1,4-1.9,7.8-2.4c0.5-0.1,1.1-0.1,2-0.2c2.9-0.3,4.3-1.1,4.3-2.2
		c0-0.6-0.3-1.1-0.8-1.4c-0.8-0.4-1.6-0.5-2.5-0.4c-0.8,0-1.5,0.1-2.2,0.6c-0.5,0.4-0.8,1-0.9,1.7h-8.8c-0.1-2.4,1.1-4.6,3.1-5.8
		c2.1-1.3,5.1-2,9.1-2c1.7,0,3.5,0.2,5.2,0.5c1.3,0.2,2.6,0.7,3.7,1.4c1,0.6,1.7,1.5,2.3,2.5c0.5,1.3,0.7,2.6,0.6,3.9v12.7
		c0,0.4,0.1,0.8,0.3,1.1c0.2,0.3,0.4,0.6,0.7,0.8v0.7L208.5,65.5z M207.7,55.3c-1.1,0.4-2.3,0.8-3.5,1.1c-2.3,0.6-3.4,1.4-3.4,2.4
		c0,0.6,0.2,1.1,0.7,1.5c0.6,0.4,1.2,0.6,1.9,0.5c1.2,0.1,2.4-0.3,3.3-1c0.8-0.9,1.1-2.1,1-3.3c0-0.3,0-0.6,0-0.7
		C207.8,55.6,207.7,55.4,207.7,55.3z"/>
	<path class="st0" d="M220,65.5V42.7h8V46c0.9-1.2,2.1-2.2,3.5-3c1.3-0.7,2.8-1,4.3-1c1.2,0,2.5,0.2,3.6,0.7c1.1,0.5,2,1.2,2.7,2.1
		c0.7,0.9,1.2,1.9,1.4,3c0.3,1.9,0.5,3.9,0.4,5.8v11.9h-8.8V53.7c0.1-1.2-0.1-2.5-0.7-3.6c-0.6-0.7-1.4-1.1-2.3-1
		c-1-0.1-1.9,0.4-2.5,1.1c-0.6,1-0.9,2.3-0.8,3.5v11.8H220z"/>
</g>
</svg>
