<svg xmlns="http://www.w3.org/2000/svg" viewBox="0 0 361 100">
  <g id="Monarplan" fill="#0d215a">
    <path d="M123.376,65.482h-9.242V34.549h12.438l4.405,15.435q.085.315.345,1.436t.734,3.1q.3-1.554.562-2.72t.454-1.755l4.512-15.5H150V65.478h-9.241l.086-15.225q0-1.383.011-2.7t.032-2.719q-.518,2.392-1.252,5.228l-.065.273-3.93,15.141h-7.128l-3.973-14.8q-.281-1.008-.561-2.31t-.734-3.523q.064,1.995.1,3.423t.032,2.288Z"></path>
    <path d="M152.664,54.037q0-5.67,3.391-8.936t9.326-3.265q5.935,0,9.316,3.265t3.381,8.936q0,5.712-3.392,8.99T165.381,66.3q-5.915,0-9.316-3.276T152.664,54.037Zm9.037,0a9.04613,9.04613,0,0,0,.858,4.557,3.061,3.061,0,0,0,2.822,1.386,3.105,3.105,0,0,0,2.843-1.4,8.87288,8.87288,0,0,0,.879-4.547,8.69992,8.69992,0,0,0-.879-4.505,3.121,3.121,0,0,0-2.843-1.375,3.075,3.075,0,0,0-2.822,1.365,8.856,8.856,0,0,0-.857,4.515Z"></path>
    <path d="M180.6,65.482V42.655h8.21v3.339a10.66812,10.66812,0,0,1,3.541-2.972,9.757,9.757,0,0,1,4.42-.976,9.367,9.367,0,0,1,3.7.692,7.16592,7.16592,0,0,1,2.758,2.057,7.38689,7.38689,0,0,1,1.452,3.014,27.57454,27.57454,0,0,1,.43,5.808V65.482h-9.027V53.659a6.59992,6.59992,0,0,0-.692-3.581,2.715,2.715,0,0,0-2.382-.976,2.955,2.955,0,0,0-2.548,1.134,5.83987,5.83987,0,0,0-.836,3.465V65.482Z"></path>
    <path d="M224.434,65.482l-.562-2.184a11.635,11.635,0,0,1-3.723,2.268,12.92987,12.92987,0,0,1-4.491.735,8.479,8.479,0,0,1-5.914-1.9,6.886,6.886,0,0,1-2.09-5.366,5.971,5.971,0,0,1,2.058-5q2.058-1.618,7.776-2.352.728-.106,1.954-.231,4.261-.462,4.262-2.226a1.544,1.544,0,0,0-.78-1.437,5.11793,5.11793,0,0,0-2.461-.449,3.539,3.539,0,0,0-2.142.557,2.325,2.325,0,0,0-.874,1.709h-8.772a6.6,6.6,0,0,1,3.119-5.807q3.055-1.963,8.98-1.963a23.72676,23.72676,0,0,1,5.146.525,10.86978,10.86978,0,0,1,3.67,1.407,6.3,6.3,0,0,1,2.246,2.468,9.565,9.565,0,0,1,.643,3.936V62.9a2.45325,2.45325,0,0,0,.25,1.123,2.072,2.072,0,0,0,.728.809v.651ZM223.6,55.3a32.89463,32.89463,0,0,1-3.43,1.071q-3.369.9-3.368,2.415a1.846,1.846,0,0,0,.665,1.512,2.9,2.9,0,0,0,1.892.546,4.423,4.423,0,0,0,3.274-1.05,4.629,4.629,0,0,0,1.029-3.339c0-.322,0-.564-.01-.724A2.49958,2.49958,0,0,0,223.6,55.3Z"></path>
    <path d="M235.934,65.482V42.655h8.273v4.158a7.147,7.147,0,0,1,2.561-3.623,7.746,7.746,0,0,1,4.447-1.144h.809V51.1c-.331-.028-.65-.052-.954-.073s-.594-.032-.871-.032a5.542,5.542,0,0,0-3.989,1.239,5.231,5.231,0,0,0-1.277,3.883V65.48Z"></path>
    <path d="M254.53,74.638V42.655h8.012v2.919a8.33514,8.33514,0,0,1,3.117-2.677,9.761,9.761,0,0,1,4.247-.851,8.83,8.83,0,0,1,7.155,3.326,13.33092,13.33092,0,0,1,2.74,8.747q0,5.544-2.73,8.841a9.035,9.035,0,0,1-7.332,3.3,8.81878,8.81878,0,0,1-3.682-.713,7.33205,7.33205,0,0,1-2.741-2.206v11.3Zm16.234-20.517a7.0851,7.0851,0,0,0-.9-3.99,3.1,3.1,0,0,0-2.74-1.3,3.316,3.316,0,0,0-2.9,1.271,6.99979,6.99979,0,0,0-.91,4.02A6.621,6.621,0,0,0,264.247,58a3.644,3.644,0,0,0,5.135.431,3.73927,3.73927,0,0,0,.44-.441,6.576,6.576,0,0,0,.942-3.865Z"></path>
    <path d="M282.757,65.482V34.549h8.662V65.482Z"></path>
    <path d="M310.679,65.482l-.566-2.184a11.76976,11.76976,0,0,1-3.752,2.268,13.10677,13.10677,0,0,1-4.527.735,8.59994,8.59994,0,0,1-5.963-1.9,6.857,6.857,0,0,1-2.106-5.366,5.949,5.949,0,0,1,2.074-5q2.075-1.618,7.839-2.352.733-.106,1.968-.231,4.3-.462,4.3-2.226a1.537,1.537,0,0,0-.786-1.437,5.1999,5.1999,0,0,0-2.481-.449,3.59091,3.59091,0,0,0-2.159.557,2.319,2.319,0,0,0-.881,1.712h-8.845a6.585,6.585,0,0,1,3.145-5.807q3.079-1.965,9.054-1.964a24.108,24.108,0,0,1,5.187.525,11.01208,11.01208,0,0,1,3.7,1.407,6.3,6.3,0,0,1,2.263,2.468,9.4856,9.4856,0,0,1,.65,3.936V62.9a2.429,2.429,0,0,0,.252,1.123,2.084,2.084,0,0,0,.733.809v.651ZM309.84,55.3a33.36654,33.36654,0,0,1-3.457,1.071q-3.394.9-3.395,2.415a1.84,1.84,0,0,0,.671,1.512,2.943,2.943,0,0,0,1.906.546,4.48,4.48,0,0,0,3.3-1.05,4.6,4.6,0,0,0,1.038-3.339c0-.322,0-.564-.01-.724A2.40626,2.40626,0,0,0,309.84,55.3Z"></path>
    <path d="M322.142,65.482V42.655h8.01v3.339a10.46506,10.46506,0,0,1,3.454-2.972,9.327,9.327,0,0,1,4.312-.976,8.9389,8.9389,0,0,1,3.606.692,7,7,0,0,1,2.691,2.057,7.43275,7.43275,0,0,1,1.416,3.014,28.24345,28.24345,0,0,1,.418,5.806V65.48h-8.8V53.659a6.75706,6.75706,0,0,0-.673-3.581,2.618,2.618,0,0,0-2.324-.976,2.86,2.86,0,0,0-2.486,1.134,5.96408,5.96408,0,0,0-.815,3.465V65.482Z"></path>
  </g>
  <g id="BMI_Block">
    <rect width="100" height="100" fill="#009fe3"></rect>
    <g fill="white">
      <path d="M62.176,34.911,57.84,52.77h-.084L53.417,34.911H40.11v20.28a7.315,7.315,0,0,0-5.239-6.716c2.255-1.235,3.742-2.891,3.742-5.953,0-3.1-1.7-7.611-9.693-7.611H12.3V65.27H29.515c5.121,0,10.16-2.878,10.6-8.443V65.27h8.844V45.8h.084L54.31,65.27h6.973L66.555,45.8h.085V65.27h8.844V34.911ZM21.65,42.139h4.933c1.913,0,3.188.554,3.188,2.084,0,1.956-1.233,2.507-3.188,2.507H21.65Zm5.485,15.9H21.65V52.386h5.867c2.211,0,3.272.978,3.272,2.763,0,2.339-1.7,2.891-3.655,2.891"></path>
      <rect x="78.358" y="34.914" width="9.354" height="30.356"></rect>
    </g>
  </g>
</svg>
