<?xml version="1.0" encoding="utf-8"?>
<!-- Generator: Adobe Illustrator 26.3.1, SVG Export Plug-In . SVG Version: 6.00 Build 0)  -->
<svg version="1.1" id="Layer_1" xmlns="http://www.w3.org/2000/svg" xmlns:xlink="http://www.w3.org/1999/xlink" x="0px" y="0px"
	 viewBox="0 0 244.7 100" style="enable-background:new 0 0 244.7 100;" xml:space="preserve">
<style type="text/css">
	.st0{fill:#004F9E;}
</style>
<g id="Monarflex">
	<polygon class="st0" points="12,65.7 12,34.5 24.4,34.5 29.9,53.9 35.4,34.5 47.7,34.5 47.7,65.7 38.5,65.7 38.5,56.2 38.7,51.3 
		39.2,45.7 39.1,45.7 33.4,65.7 26.3,65.7 20.6,45.7 20.5,45.7 21,50.3 21.2,55.1 21.2,65.7 	"/>
	<path class="st0" d="M62.9,42.3c8,0,13,4.7,13,11.8c0,8.3-5.6,12.2-12.9,12.2c-7.3,0-12.9-4-12.9-11.7C50,46.7,55.2,42.3,62.9,42.3
		 M59,54.1c0,4.3,1.6,6.2,3.9,6.2c2.4,0,3.9-1.9,3.9-6.2c0-3.3-1.5-5.9-3.8-5.7C59.9,48.4,59,51.6,59,54.1"/>
	<path class="st0" d="M78.2,43h8.2v3.6c2-2.7,4.2-4.2,7.7-4.2c6,0,8.8,3.5,8.8,9.7v13.6h-9v-12c0-2.3-0.6-4.2-3.2-4.2
		c-2.8,0-3.5,1.8-3.5,4.7v11.6h-9L78.2,43z"/>
	<path class="st0" d="M122.3,65.7l-0.4-2.4c-2.6,2.4-5.2,3.1-8.5,3.1c-4.3,0-8.1-2.1-8.1-6.8c0-10.3,16.2-5.6,16.2-9.9
		c0-1.6-2-1.9-2.9-1.9c-1.3,0-2.9,0.3-3.2,2.2h-8.7c0-4.8,3.4-7.6,12.4-7.6c10.7,0,11.4,4,11.4,9.4v10.6c-0.2,1.1,0.3,2.3,1.2,2.9
		v0.4H122.3z M121.3,55.6c-2.9,1.4-6.8,0.7-6.8,3.7c0,1.1,1.1,1.9,2.9,1.9C120.5,61.2,121.6,58.8,121.3,55.6"/>
	<path class="st0" d="M133.4,43h8.2v4.6h0.1c1.3-3.6,3.5-5.2,7-5.2c0.4,0,0.8,0.1,1.2,0.1v9c-0.6-0.1-1.2-0.2-1.9-0.3
		c-3.7,0-5.5,1.7-5.5,6.6v7.8h-9L133.4,43z"/>
	<path class="st0" d="M168.1,43v5.2h-3.8v17.5h-9V48.2h-3V43h3c0-8,3.1-9.3,8.9-9.3h3.9v5.7c-2.9,0-4,0-3.8,3.6L168.1,43z
		 M179.5,65.7h-9V34.5h9V65.7z"/>
	<path class="st0" d="M190.8,56.3c-0.1,2.4,1.9,4.4,4.3,4.5c0.1,0,0.1,0,0.2,0c1.4,0.1,2.7-0.7,3.4-2h8.6c-1.6,5.6-7.3,7.5-12.6,7.5
		c-7.3,0-12.9-4.2-12.9-11.8c0-7.5,5.6-12.2,12.9-12.2c8.4,0,13.5,5.8,13.3,14H190.8z M199,51.7c-0.1-2.2-1.8-3.9-4-3.9
		c-2.7,0-4.2,1.5-4.2,3.9H199z"/>
	<polygon class="st0" points="214.1,53.7 206.6,42.9 216.6,42.9 219.5,48.6 222.5,42.9 232.4,42.9 224.6,53.7 232.5,65.6 
		222.4,65.6 219.2,59.1 215.9,65.6 205.9,65.6 	"/>
</g>
</svg>
