<svg xmlns="http://www.w3.org/2000/svg" viewBox="0 0 313 100">
  <g id="Monier" fill="#d12929">
    <polygon points="141.447 65.643 141.447 43.622 132.493 54.437 130.915 54.437 121.841 43.604 121.841 65.643 115.584 65.643 115.584 34.112 121.163 34.112 131.714 46.556 142.202 34.112 147.728 34.112 147.728 65.643 141.447 65.643"></polygon>
    <path d="M170.422,65.986a17.042,17.042,0,0,1-12.074-4.54,15.13205,15.13205,0,0,1-4.882-11.472,15.452,15.452,0,0,1,4.914-11.7,17.28,17.28,0,0,1,12.287-4.593,17.538,17.538,0,0,1,12.357,4.589,15.243,15.243,0,0,1,5,11.615,15.009,15.009,0,0,1-5.045,11.566A18.05293,18.05293,0,0,1,170.422,65.986Zm.419-26.672a11.485,11.485,0,0,0-8.2,3.022,9.971,9.971,0,0,0-3.156,7.638,9.778,9.778,0,0,0,3.166,7.487,12.217,12.217,0,0,0,16.159-.062,9.981,9.981,0,0,0,3.2-7.6,9.735,9.735,0,0,0-3.2-7.433A11.229,11.229,0,0,0,170.841,39.314Z"></path>
    <polygon points="218.497 65.643 199.483 43.729 199.483 65.643 193.873 65.643 193.873 34.112 199.024 34.112 218.098 56.221 218.098 34.112 223.869 34.112 223.869 65.643 218.497 65.643"></polygon>
    <rect x="230.769" y="34.112" width="6.42" height="31.53"></rect>
    <polygon points="243.591 65.599 243.591 34.112 264.277 34.112 264.277 39.485 250.011 39.485 250.011 47.072 263.795 47.072 263.795 52.467 250.011 52.467 250.011 60.758 264.735 60.758 264.735 65.599 243.591 65.599"></polygon>
    <path d="M289.555,65.643l-3.5-6.059-1.477-2.313a24.84473,24.84473,0,0,0-1.988-2.819A5.81914,5.81914,0,0,0,280.6,53a8.65115,8.65115,0,0,0-3.184-.4h-.455V65.643h-6.419V34.112h9.234a14.044,14.044,0,0,1,8.6,2.416,8.457,8.457,0,0,1,1.681,11.7,8.90983,8.90983,0,0,1-3.206,2.553,16.07718,16.07718,0,0,1,1.973,1.888c1.064,1.127,1.9,3.017,3.471,5.78,1,1.77,1.5,2.784,2.128,3.787l2.226,3.408ZM277.789,47.462a14.51977,14.51977,0,0,0,4.962-.527,3.918,3.918,0,0,0,2.515-3.744,3.679,3.679,0,0,0-.732-2.239,3.86113,3.86113,0,0,0-2.068-1.411,19.3664,19.3664,0,0,0-5.084-.462h-.68v8.383Z"></path>
  </g>
  <g id="BMI_Block">
    <rect width="100" height="100" fill="#009fe3"></rect>
    <g fill="white">
      <path d="M62.176,34.911,57.84,52.77h-.084L53.417,34.911H40.11v20.28a7.315,7.315,0,0,0-5.239-6.716c2.255-1.235,3.742-2.891,3.742-5.953,0-3.1-1.7-7.611-9.693-7.611H12.3V65.27H29.515c5.121,0,10.16-2.878,10.6-8.443V65.27h8.844V45.8h.084L54.31,65.27h6.973L66.555,45.8h.085V65.27h8.844V34.911ZM21.65,42.139h4.933c1.913,0,3.188.554,3.188,2.084,0,1.956-1.233,2.507-3.188,2.507H21.65Zm5.485,15.9H21.65V52.386h5.867c2.211,0,3.272.978,3.272,2.763,0,2.339-1.7,2.891-3.655,2.891"></path>
      <rect x="78.358" y="34.914" width="9.354" height="30.356"></rect>
    </g>
  </g>
</svg>
