<svg xmlns="http://www.w3.org/2000/svg" viewBox="0 0 323 90">
  <rect id="whiteBox" x="0" width="323" height="100"></rect>
  <g transform="translate(14.919 15)" fill="#23336a">
    <path
      d="M7.175,30.039c0-4.427-1.312-5.5-6.175-5.629V23.145l13.893-2.024v8.1h.154c1.158-2.213,5.249-8.1,12.89-8.1,7.024,0,9.339,4.048,9.339,8.918V51.227H29.558V34.846c0-5,0-9.423-5.172-9.423-5.094,0-9.494,5.882-9.494,10.372V51.227H7.175Z"
      transform="translate(-1 -6.954)"/>
    <path
      d="M97.493,50.216A36.794,36.794,0,0,1,86.61,51.923C74.8,51.923,67.7,46.041,67.7,35.479c0-9.993,5.866-14.357,16.209-14.357,13.2,0,14.279,7.843,14.279,12.08h-22c0,6.325,3.164,15.306,14.047,15.306a24.124,24.124,0,0,0,7.256-1.076ZM90.469,30.672c0-1.455-.154-7.4-6.869-7.4-5.789,0-7.41,5-7.41,7.4Z"
      transform="translate(-20.463 -6.954)"/>
    <path
      d="M149.274,50.4c-2.778.822-4.554,1.518-10.96,1.518-10.806,0-17.212-6.261-17.212-15.812,0-8.664,4.322-14.989,15.36-14.989,8.568,0,14.2,3.542,14.2,8.665h-9.107c0-2.593-.772-6.514-5.557-6.514-5.248,0-6.406,4.68-6.406,10.752,0,9.36,5.248,14.484,12.272,14.484a32.77,32.77,0,0,0,7.41-.886Z"
      transform="translate(-36.046 -6.954)"/>
    <path
      d="M171.017,36.554c0-10.562,5.4-15.432,16.672-15.432,11.191,0,16.672,6.325,16.672,15.432,0,10.31-5.249,15.369-16.672,15.369C175.262,51.923,171.017,45.408,171.017,36.554Zm16.672,13.219c7.564,0,8.181-6.894,8.181-13.219,0-5.818-.694-13.282-8.181-13.282-7.642,0-8.182,7.716-8.182,13.282C179.507,41.8,180.047,49.773,187.689,49.773Z"
      transform="translate(-50.611 -6.954)"/>
    <path
      d="M234.595,18.393h-6.252v-2.53h6.252V11.625C234.595,6.566,237.3,1,246.558,1c9.88,0,13.275,2.846,14.124,7.463h-8.644c-.077-2.277-1.081-5.313-4.94-5.313-4.476,0-4.785,4.048-4.785,7.021v5.692h10.266v2.53H242.313v26.88h-7.719Z"
      transform="translate(-67.339 -1)"/>
    <path
      d="M280.962,9.6c0-4.49-1.312-5.566-5.866-5.755V2.581L288.681,1V45.273h-7.719Z"
      transform="translate(-80.982 -1)"/>
    <path
      d="M340.092,50.216a36.794,36.794,0,0,1-10.883,1.707c-11.809,0-18.91-5.882-18.91-16.444,0-9.993,5.866-14.357,16.209-14.357,13.2,0,14.279,7.843,14.279,12.08h-22c0,6.325,3.165,15.306,14.048,15.306a24.123,24.123,0,0,0,7.256-1.076Zm-7.024-19.544c0-1.455-.155-7.4-6.87-7.4-5.789,0-7.41,5-7.41,7.4Z"
      transform="translate(-91.254 -6.954)"/>
    <path
      d="M381.025,35.645,394.3,51.52H385.27l-9.725-12.333m0,0-9.031-10.942c-2.933-3.6-4.168-4.553-9.108-4.87V22.11h12.813l10.806,13.535"
      transform="translate(-105 -7.247)"/>
    <path d="M381.612,44.875l-9.726,12.333h-9.03l13.276-15.875"
          transform="translate(-106.59 -12.935)"/>
    <path d="M384.324,33.5l9.725-12.333h9.031L389.8,37.041"
          transform="translate(-112.854 -6.968)"/>
    <path
      d="M376.132,37.985,362.856,22.11h9.031l9.725,12.333m0,0,9.031,10.942c2.933,3.6,4.168,4.553,9.108,4.87V51.52H386.938L376.132,37.985"
      transform="translate(-106.59 -7.247)"/>
    <g transform="translate(161.878 55.901)">
      <path
        d="M229.577,80.74h3.71a7.808,7.808,0,0,1,1.981.215,3.551,3.551,0,0,1,1.294.6,2.261,2.261,0,0,1,.706.9,3.032,3.032,0,0,1,0,2.254,2.258,2.258,0,0,1-.706.9,3.548,3.548,0,0,1-1.294.6,7.8,7.8,0,0,1-1.981.215h-2.841v4.2h-.869Zm3.963,5.027a3.767,3.767,0,0,0,2.262-.556,2.148,2.148,0,0,0,0-3.247,3.766,3.766,0,0,0-2.262-.556h-3.094v4.359Z"
        transform="translate(-229.577 -80.497)"/>
      <path
        d="M248.458,91.843q-.018-.208-.027-.46t-.009-.682a3.317,3.317,0,0,1-.724.645,3.943,3.943,0,0,1-.805.408,4.111,4.111,0,0,1-.823.208,5.45,5.45,0,0,1-.76.059,6.251,6.251,0,0,1-1.05-.089,2.946,2.946,0,0,1-.941-.319,1.915,1.915,0,0,1-.679-.623,1.766,1.766,0,0,1-.262-1,2.209,2.209,0,0,1,.2-.927,1.929,1.929,0,0,1,.633-.756,3.368,3.368,0,0,1,1.122-.5A6.477,6.477,0,0,1,246,87.617q.76,0,1.357.045t1.013.1V87.38a2.329,2.329,0,0,0-.163-.934,1.37,1.37,0,0,0-.489-.593,2.087,2.087,0,0,0-.8-.311,5.9,5.9,0,0,0-1.086-.089,4.477,4.477,0,0,0-1.638.245,5.072,5.072,0,0,0-.932.467l-.434-.46a4.6,4.6,0,0,1,1.113-.564,5.223,5.223,0,0,1,1.873-.3,4.6,4.6,0,0,1,2.5.563,2.058,2.058,0,0,1,.868,1.868v3.7q0,.26.018.452l.036.415Zm-.072-3.484q-.38-.074-.95-.126t-1.457-.052a4.677,4.677,0,0,0-1.466.185,2.17,2.17,0,0,0-.823.46,1.273,1.273,0,0,0-.362.593,2.334,2.334,0,0,0-.081.571,1.148,1.148,0,0,0,.606,1.09,3.186,3.186,0,0,0,1.547.334,3.7,3.7,0,0,0,1.158-.178,3.4,3.4,0,0,0,.95-.475,2.424,2.424,0,0,0,.642-.675,1.435,1.435,0,0,0,.235-.764Z"
        transform="translate(-233.312 -81.71)"/>
      <path
        d="M255.523,86.507V85.67c0-.1,0-.2-.009-.3s-.015-.2-.027-.3h.76q.018.163.027.311t.018.319q.009.171.009.378v.489a4.274,4.274,0,0,1,.389-.5,2.853,2.853,0,0,1,.624-.512,3.974,3.974,0,0,1,.887-.4,3.841,3.841,0,0,1,1.176-.163,2.047,2.047,0,0,1,.688.1l-.235.638a1.227,1.227,0,0,0-.3-.059q-.172-.015-.317-.015a2.827,2.827,0,0,0-1.176.237,2.98,2.98,0,0,0-.9.623,2.773,2.773,0,0,0-.588.882,2.571,2.571,0,0,0-.208,1V91.89h-.814Z"
        transform="translate(-237.137 -81.756)"/>
      <path
        d="M264.459,84.776h-1.665v-.623h1.665V81.9h.814v2.254h2.75v.623h-2.75V88.72a3.5,3.5,0,0,0,.108.971,1.157,1.157,0,0,0,.317.549,1.04,1.04,0,0,0,.48.245,2.8,2.8,0,0,0,.6.059,1.8,1.8,0,0,0,1.43-.593l.507.4a2.569,2.569,0,0,1-.823.593,2.963,2.963,0,0,1-1.2.208,4.02,4.02,0,0,1-.9-.1,1.566,1.566,0,0,1-.706-.356,1.717,1.717,0,0,1-.452-.7,3.255,3.255,0,0,1-.163-1.12Z"
        transform="translate(-239.27 -80.841)"/>
      <path
        d="M281.494,92.024a4.854,4.854,0,0,1-1.665-.282,4.515,4.515,0,0,1-1.366-.771,3.63,3.63,0,0,1-.923-1.142,3.069,3.069,0,0,1,0-2.788,3.637,3.637,0,0,1,.923-1.142,4.519,4.519,0,0,1,1.366-.771,5.059,5.059,0,0,1,3.33,0,4.523,4.523,0,0,1,1.366.771,3.641,3.641,0,0,1,.923,1.142,3.069,3.069,0,0,1,0,2.788,3.636,3.636,0,0,1-.923,1.142,4.52,4.52,0,0,1-1.366.771,4.856,4.856,0,0,1-1.665.282Zm0-.608a3.835,3.835,0,0,0,1.357-.237,3.548,3.548,0,0,0,1.095-.637,2.925,2.925,0,0,0,.724-.942,2.635,2.635,0,0,0,.262-1.164,2.5,2.5,0,0,0-.271-1.134,3.222,3.222,0,0,0-.733-.956,3.408,3.408,0,0,0-1.095-.652,3.975,3.975,0,0,0-2.705,0,3.577,3.577,0,0,0-1.086.638,2.921,2.921,0,0,0-.724.941,2.634,2.634,0,0,0-.262,1.164,2.484,2.484,0,0,0,.272,1.142,3.252,3.252,0,0,0,.733.949,3.391,3.391,0,0,0,1.095.652A3.784,3.784,0,0,0,281.494,91.416Z"
        transform="translate(-243.475 -81.713)"/>
      <path
        d="M292.54,84.331h-1.665v-.623h1.665v-.786a2.51,2.51,0,0,1,.66-1.868,2.6,2.6,0,0,1,1.909-.652,3.526,3.526,0,0,1,1.348.223,2.939,2.939,0,0,1,.9.563l-.525.415a2.687,2.687,0,0,0-.76-.452,2.552,2.552,0,0,0-.887-.141,2.848,2.848,0,0,0-.733.089,1.261,1.261,0,0,0-.579.334,1.627,1.627,0,0,0-.38.667,3.638,3.638,0,0,0-.136,1.09v.519h2.751v.623h-2.751v6.2h-.814Z"
        transform="translate(-247.464 -80.396)"/>
      <path
        d="M305.363,80.741h4a5.081,5.081,0,0,1,1.52.2,2.993,2.993,0,0,1,1.032.534,2,2,0,0,1,.579.771,2.4,2.4,0,0,1,.181.927,1.933,1.933,0,0,1-.163.786,2.425,2.425,0,0,1-1.122,1.186,2.815,2.815,0,0,1-.887.282,6.29,6.29,0,0,1,.977.208,3.167,3.167,0,0,1,.923.437,2.358,2.358,0,0,1,.688.749,2.305,2.305,0,0,1-1.077,3.27,4.882,4.882,0,0,1-1.447.422,12.22,12.22,0,0,1-1.746.119h-3.456Zm3.511,4.4a5.085,5.085,0,0,0,1-.1,3.1,3.1,0,0,0,.932-.341,2.214,2.214,0,0,0,.688-.6,1.433,1.433,0,0,0,.271-.882,1.564,1.564,0,0,0-.262-.949,1.733,1.733,0,0,0-.678-.549,3.033,3.033,0,0,0-.932-.252,8.981,8.981,0,0,0-1.022-.059h-2.642v3.737Zm-.272,4.819q.688,0,1.375-.052a4.659,4.659,0,0,0,1.239-.252,2.094,2.094,0,0,0,.9-.6,1.629,1.629,0,0,0,.344-1.1,1.7,1.7,0,0,0-.335-1.09,2.218,2.218,0,0,0-.851-.652,4.266,4.266,0,0,0-1.149-.319,8.857,8.857,0,0,0-1.231-.089h-2.66v4.152Z"
        transform="translate(-251.691 -80.497)"/>
      <path
        d="M320.546,80.741h.941l4.2,5.872,4.289-5.872h.832l.543,9.89h-.869l-.416-8.778L325.9,87.517h-.561l-4.053-5.649-.416,8.763H320Z"
        transform="translate(-255.964 -80.498)"/>
      <path d="M340.215,80.741h.868v9.89h-.868Z"
            transform="translate(-261.861 -80.498)"/>
      <path
        d="M359.321,86.513H356.1v-.667h4.09v3.707a5.22,5.22,0,0,1-.742.438,6.882,6.882,0,0,1-1,.393,8.338,8.338,0,0,1-1.284.282,11.248,11.248,0,0,1-1.6.1,7.219,7.219,0,0,1-2.389-.378,5.4,5.4,0,0,1-1.855-1.068,4.8,4.8,0,0,1-1.194-1.646,5.1,5.1,0,0,1-.425-2.1,4.858,4.858,0,0,1,.425-2.024,4.994,4.994,0,0,1,1.194-1.646,5.555,5.555,0,0,1,1.855-1.1,6.857,6.857,0,0,1,2.388-.4,6.284,6.284,0,0,1,1.837.237,5.8,5.8,0,0,1,1.294.556,4.083,4.083,0,0,1,.824.63,5.357,5.357,0,0,1,.407.46l-.651.371q-.109-.118-.362-.378a3.523,3.523,0,0,0-.7-.526,5.293,5.293,0,0,0-1.077-.474,4.778,4.778,0,0,0-1.484-.208,5.989,5.989,0,0,0-2.108.348,4.6,4.6,0,0,0-1.574.956,4.148,4.148,0,0,0-.986,1.431,4.544,4.544,0,0,0-.344,1.772,4.651,4.651,0,0,0,.335,1.772,4.115,4.115,0,0,0,.977,1.438,4.571,4.571,0,0,0,1.556.964,5.726,5.726,0,0,0,2.054.348,8.638,8.638,0,0,0,2.289-.252,6.277,6.277,0,0,0,1.475-.593Z"
        transform="translate(-264.627 -80.398)"/>
      <path
        d="M368.383,86.507V85.67c0-.1,0-.2-.009-.3s-.015-.2-.027-.3h.76q.018.163.027.311c.006.1.012.205.018.319s.009.24.009.378v.489a4.249,4.249,0,0,1,.389-.5,2.854,2.854,0,0,1,.625-.512,3.97,3.97,0,0,1,.886-.4,3.842,3.842,0,0,1,1.176-.163,2.048,2.048,0,0,1,.688.1l-.235.638a1.232,1.232,0,0,0-.3-.059c-.115-.01-.22-.015-.317-.015a2.828,2.828,0,0,0-1.176.237,2.981,2.981,0,0,0-.9.623,2.772,2.772,0,0,0-.588.882,2.567,2.567,0,0,0-.208,1V91.89h-.814Z"
        transform="translate(-270.07 -81.756)"/>
      <path
        d="M379.892,92.024a4.854,4.854,0,0,1-1.665-.282,4.515,4.515,0,0,1-1.366-.771,3.631,3.631,0,0,1-.923-1.142,3.069,3.069,0,0,1,0-2.788,3.636,3.636,0,0,1,.923-1.142,4.518,4.518,0,0,1,1.366-.771,5.06,5.06,0,0,1,3.33,0,4.521,4.521,0,0,1,1.366.771,3.636,3.636,0,0,1,.923,1.142,3.069,3.069,0,0,1,0,2.788,3.63,3.63,0,0,1-.923,1.142,4.517,4.517,0,0,1-1.366.771A4.859,4.859,0,0,1,379.892,92.024Zm0-.608a3.836,3.836,0,0,0,1.357-.237,3.55,3.55,0,0,0,1.095-.638,2.923,2.923,0,0,0,.724-.942,2.638,2.638,0,0,0,.262-1.164,2.5,2.5,0,0,0-.272-1.134,3.221,3.221,0,0,0-.733-.956,3.4,3.4,0,0,0-1.095-.652,3.975,3.975,0,0,0-2.705,0,3.582,3.582,0,0,0-1.086.638,2.921,2.921,0,0,0-.724.941,2.634,2.634,0,0,0-.262,1.164,2.483,2.483,0,0,0,.272,1.142,3.255,3.255,0,0,0,.733.949,3.392,3.392,0,0,0,1.095.652A3.785,3.785,0,0,0,379.892,91.416Z"
        transform="translate(-272.188 -81.713)"/>
      <path
        d="M390.551,85.1h.814v3.781a4.381,4.381,0,0,0,.154,1.26,1.819,1.819,0,0,0,.461.8,1.685,1.685,0,0,0,.76.415,4.147,4.147,0,0,0,1.05.119,3.219,3.219,0,0,0,1.357-.267,2.853,2.853,0,0,0,.95-.682,2.783,2.783,0,0,0,.552-.919,2.935,2.935,0,0,0,.181-.993V85.1h.814v6.22c0,.1,0,.2.009.3s.015.2.027.3h-.76c-.013-.109-.021-.208-.027-.3s-.012-.185-.018-.289-.009-.22-.009-.348V90.5a4.207,4.207,0,0,1-.4.5,3.112,3.112,0,0,1-.634.526,3.652,3.652,0,0,1-.914.408,4.259,4.259,0,0,1-1.239.163,4.57,4.57,0,0,1-1.484-.208,2.374,2.374,0,0,1-.968-.6,2.221,2.221,0,0,1-.525-.942,4.612,4.612,0,0,1-.154-1.245Z"
        transform="translate(-276.549 -81.788)"/>
      <path
        d="M404.18,86.464v-.838c0-.1,0-.2-.009-.3s-.015-.2-.027-.3h.76q.018.163.027.289c.006.084.012.171.018.259s.012.19.018.3.009.25.009.408q.09-.134.29-.371a2.5,2.5,0,0,1,.57-.475,4.043,4.043,0,0,1,.914-.415,4.213,4.213,0,0,1,1.3-.178,4.483,4.483,0,0,1,1.665.282,3.209,3.209,0,0,1,1.167.771,3.136,3.136,0,0,1,.688,1.149,4.387,4.387,0,0,1,.226,1.431,3.23,3.23,0,0,1-1.2,2.573,4.112,4.112,0,0,1-1.339.719,5.35,5.35,0,0,1-1.674.252,5.079,5.079,0,0,1-1.52-.2,9.437,9.437,0,0,1-1.086-.408v3.4h-.8Zm.8,4.2.344.2a3.422,3.422,0,0,0,.543.244,5.444,5.444,0,0,0,.751.208,4.742,4.742,0,0,0,.968.089,4.329,4.329,0,0,0,1.3-.193,3.143,3.143,0,0,0,1.068-.563,2.667,2.667,0,0,0,.715-.912,2.846,2.846,0,0,0,.262-1.253,4,4,0,0,0-.163-1.142,2.627,2.627,0,0,0-.516-.964,2.478,2.478,0,0,0-.914-.66,3.866,3.866,0,0,0-2.361-.111,2.918,2.918,0,0,0-.787.363,2.79,2.79,0,0,0-.6.534,2.685,2.685,0,0,0-.4.63,2.066,2.066,0,0,0-.172.638,6.207,6.207,0,0,0-.045.756Z"
        transform="translate(-280.516 -81.713)"/>
    </g>
  </g>
</svg>
