<?xml version="1.0" encoding="utf-8"?>
<!-- Generator: Adobe Illustrator 26.3.1, SVG Export Plug-In . SVG Version: 6.00 Build 0)  -->
<svg version="1.1" id="Layer_1" xmlns="http://www.w3.org/2000/svg" xmlns:xlink="http://www.w3.org/1999/xlink" x="0px" y="0px"
	 viewBox="0 0 197.2 100" style="enable-background:new 0 0 197.2 100;" xml:space="preserve">
<g id="Ormax">
	<path fill="#E1001A" d="M29.3,33.9c3,0,6,0.6,8.7,2c7.8,4.1,10.8,13.7,6.7,21.4c-0.1,0.3-0.3,0.5-0.4,0.8c-1.5,2.5-3.6,4.5-6.2,5.8
		c-5.6,2.8-12.1,2.8-17.7,0c-5.2-2.7-8.5-8.1-8.4-13.9c0-2.8,0.8-5.6,2.2-8.1c1.4-2.5,3.6-4.5,6.1-5.9
		C23.1,34.6,26.2,33.8,29.3,33.9z M18.3,50c0,2,0.5,3.9,1.4,5.6c0.9,1.6,2.3,3,3.9,3.9c1.8,0.9,3.7,1.4,5.7,1.4c2.9,0.1,5.8-1,7.9-3
		c2.1-2,3.2-4.9,3.1-7.8c0-2-0.5-3.9-1.4-5.6c-0.9-1.6-2.3-3-3.9-3.9c-3.6-1.8-7.9-1.8-11.4,0c-1.7,0.9-3,2.2-3.9,3.9
		C18.7,46.1,18.2,48,18.3,50z"/>
	<path fill="#E1001A" d="M63.5,34.3c2.6-0.1,5.2,0.8,7.2,2.4c1.8,1.6,2.9,3.9,2.8,6.4c0,1.7-0.4,3.3-1.4,4.6c-1,1.4-2.5,2.5-4.1,3.1
		c1,0.6,1.9,1.3,2.7,2.2c1.1,1.5,2.1,3,2.9,4.7c1.9,3.8,3.3,6.4,4.3,7.8H71c-0.7-1.1-1.3-2.2-1.9-3.3c-1.1-2.3-2.4-4.6-3.8-6.7
		c-0.6-1-1.4-1.8-2.3-2.5c-0.8-0.5-1.7-0.7-2.6-0.7h-2.2v13.2h-6V34.3H63.5z M62.1,47.7c1.3,0.1,2.7-0.3,3.7-1.2
		c0.9-0.8,1.4-2,1.4-3.2c0.1-1.2-0.4-2.4-1.3-3.2c-1.1-0.8-2.5-1.2-3.8-1.1h-3.8v8.7H62.1z"/>
	<path fill="#E1001A" d="M87.2,34.3l10.3,12.3l10.3-12.3h5.4v31.3h-6v-22h-0.2l-9,11H97l-9-11h-0.2v22h-6V34.3H87.2z"/>
	<path fill="#E1001A" d="M135.9,34.3l13.8,31.3h-6.4l-3.2-7.6h-13.9l-3,7.6h-6.3l12.9-31.3H135.9z M128,53.4h10.1L132.8,41L128,53.4z"
		/>
	<path fill="#E1001A" d="M159.4,34.3l8.6,10.6l8.5-10.6h7.5l-12.3,15.1l13.4,16.2h-7.7L168,53.9l-9.5,11.7h-7.6l13.3-16.2l-12.4-15.1
		H159.4z"/>
</g>
</svg>
