<?xml version="1.0" encoding="utf-8"?>
<!-- Generator: Adobe Illustrator 26.3.1, SVG Export Plug-In . SVG Version: 6.00 Build 0)  -->
<svg version="1.1" id="Layer_1" xmlns="http://www.w3.org/2000/svg" xmlns:xlink="http://www.w3.org/1999/xlink" x="0px" y="0px"
	 viewBox="0 0 188.4 100" style="enable-background:new 0 0 188.4 100;" xml:space="preserve">
<style type="text/css">
	.st0{fill:#E2001A;}
</style>
<g id="Redland">
	<g>
		<path class="st0" d="M29.7,43.4c0,2.7-2.4,4.2-4.7,4.2h-5.7v-7.8h6C28.4,39.8,29.7,40.6,29.7,43.4 M36.7,42.4
			c-0.4-6.4-4.4-8-11.3-8H12v31.2h7.5V52.9h4.7c2.6,0,3.4,2.5,4.1,4.1l3,7.1c0,0,0.5,1.4,1.6,1.4l7.6,0c-1.9-1.4-3.2-5.9-4-7.8
			c-1.8-4.3-2.9-7.7-5.1-8C35.1,48.4,36.9,46.4,36.7,42.4"/>
		<path class="st0" d="M135.9,45.7v0.1c1.4-2.1,3.8-3.3,6.4-3.1c2.2,0,6,0.9,7.3,4.7c0.4,1.1,0.6,2.3,0.7,3.4v14.6h-6.4V52.1
			c0-2.4-1.3-3.9-3.9-3.9c-2,0-3.6,1.6-3.7,3.6c0,0.1,0,0.2,0,0.3v13.5h-6.7V43.5h6.3L135.9,45.7z"/>
		<path class="st0" d="M47.2,56.3c0,2.6,2.1,4.8,4.8,4.8h0.1c2.1,0,2.9-0.5,4.3-2.2h6.3c-1.3,5.2-5.6,7.3-11.1,7.3
			c-6,0-11.3-4.3-11.3-11.9c0-6.8,4.1-12,11.3-12c4.4,0,7.8,1.5,9.8,5.5c0.7,1.3,1.2,2.7,1.4,4.1c0.3,1.4,0.4,2.9,0.2,4.4L47.2,56.3
			z M56.2,51.5c0-2.5-1.8-4.1-4.6-4.1c-2.4-0.1-4.4,1.7-4.6,4.1H56.2z"/>
		<path class="st0" d="M82.8,63.2c-1.5,2.6-3.9,3.1-6.8,3.1c-6.6,0-9.7-6.1-9.7-11.9c0-6,3.5-11.9,10.5-11.9c2.3,0,4.2,0.7,5.5,2.5
			l0-10.3H89v30.9h-6.1L82.8,63.2z M77.9,61.1c3.8,0,4.8-3.7,4.8-6.7s-1-6.6-4.7-6.6c-3.9,0-5,3.2-5,6.6S74.5,61.1,77.9,61.1"/>
		<rect x="93.9" y="34.8" class="st0" width="6.5" height="30.9"/>
		<path class="st0" d="M170.3,63.3c-1.5,2.6-3.9,3.1-6.8,3.1c-6.6,0-9.7-6.1-9.7-11.9c0-6,3.5-11.9,10.5-11.9c2.3,0,4.2,0.7,5.5,2.5
			l0-10.3h6.6v30.9h-6.1V63.3z M165.4,61.2c3.8,0,4.8-3.7,4.8-6.7s-1-6.6-4.7-6.6c-3.9,0-5,3.2-5,6.6S162,61.2,165.4,61.2"/>
		<path class="st0" d="M119,57.8c0,1.3-1.2,3.8-5,3.8c0,0-3.4,0.2-3.4-2.5c0,0-0.2-1.9,3.3-2.6c0,0,3.7-0.8,5.1-1.3L119,57.8z
			 M119,64.1c0.1,0.6,0.3,1.1,0.6,1.6h6.4c-0.5-0.7-0.7-1.5-0.7-2.3V51.2c0-6.8-5.2-8.4-9.7-8.4c-2.3-0.1-4.7,0.4-6.8,1.4
			c-2.1,1.4-3.4,3.8-3.4,6.3h5.8c0-1,0.8-2.7,4.2-2.7c2.4,0,3.4,1.1,3.4,2c0,0,0.2,1.5-2.5,1.7c0,0-5.5,0.9-6.6,1.3
			c-4.5,1.5-5.3,4.5-5.3,6.5c0,4.7,3.6,7.3,7.8,7.3C115.2,66.5,117.1,66,119,64.1L119,64.1z"/>
	</g>
</g>
</svg>
