<svg xmlns="http://www.w3.org/2000/svg" viewBox="0 0 95.19642 20">
  <g id="Partner" vector-effect="non-scaling-stroke" fill="white" stroke="#009fe3" stroke-width="1">
    <path d="M29.98962,19.1445V5.878H34.602l.09637,1.07648a6.309,6.309,0,0,1,.87622-.67033,4.46284,4.46284,0,0,1,2.49516-.64589h.008a7.3494,7.3494,0,0,1,.95331.05641,4.07316,4.07316,0,0,1,.8278.20684l.30743.11187-.785,4.11693-.40333-.11235a4.70391,4.70391,0,0,0-1.26544-.17346,2.98543,2.98543,0,0,0-2.14872.71217,2.5845,2.5845,0,0,0-.76011,2.02133V19.1445Z" transform="translate(-0.1 -0.1)" stroke-miterlimit="10"></path>
    <path d="M48.06357,19.6a7.01919,7.01919,0,0,1-2.37059-.41179,4.50653,4.50653,0,0,1-1.74211-1.16767,4.3993,4.3993,0,0,1-.95566-1.80368,8.53333,8.53333,0,0,1-.2717-2.23145v-4.327h-2.137V5.878h2.137V1.77472h4.92827V5.878h3.49455V9.65883H47.65178v4.54423a1.8551,1.8551,0,0,0,.30649,1.15968,1.10306,1.10306,0,0,0,.92558.34644h.00752a2.4374,2.4374,0,0,0,.9458-.17205,5.33281,5.33281,0,0,0,.79959-.43106l.30931-.2026,2.10736,2.9502-.298.2261a7.50784,7.50784,0,0,1-4.50662,1.51741Z" transform="translate(-0.1 -0.1)" stroke-miterlimit="10"></path>
    <path d="M62.47516,19.1445v-7.579a1.98014,1.98014,0,0,0-.46726-1.4027,1.62232,1.62232,0,0,0-1.15356-.48042l-.12833.00329a2.64643,2.64643,0,0,0-1.04263.197,2.15988,2.15988,0,0,0-.72721.50815,2.04957,2.04957,0,0,0-.43153.72674,2.79041,2.79041,0,0,0-.15137.92511V19.1445h-4.8681V5.878h4.69371l.078.92464a5.11877,5.11877,0,0,1,1.27438-.73755,6.07967,6.07967,0,0,1,2.37576-.47994,5.57167,5.57167,0,0,1,3.96368,1.383,5.33393,5.33393,0,0,1,1.48262,4.06428l-.00094,8.1121Z" transform="translate(-0.1 -0.1)" stroke-miterlimit="10"></path>
    <path d="M84.549,19.1445V5.878h4.61286l.0959,1.076a6.34247,6.34247,0,0,1,.87622-.66986,4.46282,4.46282,0,0,1,2.49516-.64589h.008a7.34945,7.34945,0,0,1,.95332.05641,4.07333,4.07333,0,0,1,.8278.20684l.30743.11187-.78409,4.11693-.40332-.11235a4.70057,4.70057,0,0,0-1.265-.17346,2.98542,2.98542,0,0,0-2.14871.71217,2.58582,2.58582,0,0,0-.76012,2.02133V19.1445Z" transform="translate(-0.1 -0.1)"  stroke-miterlimit="10"></path>
    <path d="M76.43594,19.57039a9.15462,9.15462,0,0,1-3.032-.51474,6.99182,6.99182,0,0,1-2.4223-1.45206,6.18231,6.18231,0,0,1-1.531-2.26248,7.6959,7.6959,0,0,1-.518-2.875,7.3436,7.3436,0,0,1,.48888-2.65123,6.58335,6.58335,0,0,1,1.41587-2.247A6.83969,6.83969,0,0,1,73.10028,6.0275a7.50765,7.50765,0,0,1,2.89426-.57726l.26465-.00047a7.25544,7.25544,0,0,1,2.81294.56456,6.19367,6.19367,0,0,1,2.17645,1.579A6.65547,6.65547,0,0,1,82.578,10.00011a9.82867,9.82867,0,0,1,.43811,3.00848v1.02007H73.68976a2.10477,2.10477,0,0,0,.74742,1.09058,3.46343,3.46343,0,0,0,2.26483.66985,5.97334,5.97334,0,0,0,2.40114-.40614,8.49486,8.49486,0,0,0,1.37921-.72956l.31542-.20636,2.10265,3.07523-.354.20919q-.21858.129-.65293.42636a6.82327,6.82327,0,0,1-1.24289.64024,11.52881,11.52881,0,0,1-1.75667.53683,10.50021,10.50021,0,0,1-2.2103.23551Zm1.94377-8.76363a1.73016,1.73016,0,0,0-.0912-.27782,1.9642,1.9642,0,0,0-.42448-.637,2.30775,2.30775,0,0,0-.722-.49076,2.53865,2.53865,0,0,0-.98152-.196l-.13632.00047a2.74765,2.74765,0,0,0-1.029.19931,2.39957,2.39957,0,0,0-.762.49358,2.05641,2.05641,0,0,0-.44845.63837,1.637,1.637,0,0,0-.09684.26982Z" transform="translate(-0.1 -0.1)" stroke-miterlimit="10"></path>
    <path d="M19.82752,19.51727a6.78513,6.78513,0,0,1-1.62788-.19791,4.79521,4.79521,0,0,1-1.55454-.67973A3.94067,3.94067,0,0,1,15.43,17.323a4.04068,4.04068,0,0,1-.48512-2.06974A4.37211,4.37211,0,0,1,15.453,13.1421a4.55347,4.55347,0,0,1,1.39848-1.5616,6.33848,6.33848,0,0,1,2.05-.92322A9.78552,9.78552,0,0,1,21.32,10.35267c.54905.00047,1.02617.00893,1.50941.02679.17487.00141.354.01034.534.02679a1.10177,1.10177,0,0,0-.149-.44375,1.44174,1.44174,0,0,0-.43764-.43153,1.965,1.965,0,0,0-.66844-.26747,4.35134,4.35134,0,0,0-.85883-.08555l-.20731-.00235a6.259,6.259,0,0,0-1.92825.30366,7.018,7.018,0,0,0-1.41822.6802l-.30884.19321-2.09231-2.9596.32107-.22141a11.10416,11.10416,0,0,1,.989-.60734,7.93379,7.93379,0,0,1,1.33172-.56221,11.18975,11.18975,0,0,1,1.70121-.4,13.83649,13.83649,0,0,1,2.03354-.1509l.11987.00047a6.19131,6.19131,0,0,1,4.71534,1.65326,6.1851,6.1851,0,0,1,1.53714,4.38064v7.659H23.51714l-.07239-.75213a4.79571,4.79571,0,0,1-1.25463.70089A6.774,6.774,0,0,1,19.82752,19.51727Zm2.49516-5.99488a4.16437,4.16437,0,0,0-2.17927.39157,1.06037,1.06037,0,0,0-.526.94391c0,.5514.18,1.1719,1.58134,1.1719a2.72071,2.72071,0,0,0,.82357-.1288,2.25988,2.25988,0,0,0,.70088-.35443,1.75439,1.75439,0,0,0,.47008-.54435,1.48643,1.48643,0,0,0,.17628-.73708v-.6849q-.08461-.00916-.18756-.01975a8.29228,8.29228,0,0,0-.84332-.03807v-.385Z" transform="translate(-0.1 -0.1)" stroke-miterlimit="10"></path>
    <path d="M.6,19.1445V.60235L8.00887.6a8.612,8.612,0,0,1,2.90789.50439A6.2717,6.2717,0,0,1,13.08851,2.453,5.29242,5.29242,0,0,1,14.36476,4.426a6.60987,6.60987,0,0,1,.40239,2.29162,6.14482,6.14482,0,0,1-.55469,2.67661,5.59645,5.59645,0,0,1-1.51035,1.93624A6.60452,6.60452,0,0,1,10.53788,12.492a8.15121,8.15121,0,0,1-2.49987.3911H5.49866V19.1445Zm6.98533-10.282A2.15508,2.15508,0,0,0,9.18218,8.2942a1.99728,1.99728,0,0,0,.574-1.48215A2.03373,2.03373,0,0,0,7.67887,4.64688L5.49866,4.6497V8.86253Z" transform="translate(-0.1 -0.1)" stroke-miterlimit="10"></path>
  </g>
</svg>
