<svg id="Layer_1" data-name="Layer 1" xmlns="http://www.w3.org/2000/svg" viewBox="0 0 425 89"><path d="M1,1H31.87793A35.5588,35.5588,0,0,1,45.34766,3.2876a26.62392,26.62392,0,0,1,9.21191,6.03564,23.39345,23.39345,0,0,1,5.33691,8.7041,31.2481,31.2481,0,0,1,1.71582,10.293,28.66362,28.66362,0,0,1-2.35058,12.00781,24.57749,24.57749,0,0,1-6.35352,8.57764,27.80857,27.80857,0,0,1-9.21289,5.20947,33.54943,33.54943,0,0,1-10.92773,1.7793H19.67871V85.75586H1ZM30.86133,40.39209a11.17016,11.17016,0,0,0,8.45019-3.24072,11.6907,11.6907,0,0,0,3.11328-8.44971,12.17849,12.17849,0,0,0-3.17675-8.70459,11.156,11.156,0,0,0-8.51367-3.36719H19.67871V40.39209ZM104.938,80.165a19.9057,19.9057,0,0,1-7.6875,5.46387,27.5619,27.5619,0,0,1-17.02735,1.0166,19.60229,19.60229,0,0,1-6.481-2.98633,16.5435,16.5435,0,0,1-4.95557-5.6543,18.16418,18.16418,0,0,1-1.96973-8.895,19.955,19.955,0,0,1,2.09668-9.27636,19.46532,19.46532,0,0,1,5.78174-6.79834,26.332,26.332,0,0,1,8.70459-4.1294,40.38574,40.38574,0,0,1,10.86426-1.398q3.17431,0,6.417.127a26.443,26.443,0,0,1,4.25684.38134v-1.2705a7.40664,7.40664,0,0,0-.95313-3.876,8.50955,8.50955,0,0,0-2.541-2.66846,10.34579,10.34579,0,0,0-3.62207-1.5249,20.216,20.216,0,0,0-4.32032-.44482,28.65494,28.65494,0,0,0-10.10156,1.5249,32.74412,32.74412,0,0,0-6.79883,3.43115L69.104,32.00537a48.43817,48.43817,0,0,1,4.32032-2.7959,32.91811,32.91811,0,0,1,5.71826-2.541,46.53049,46.53049,0,0,1,7.43408-1.84278,57.375,57.375,0,0,1,9.4668-.69873q13.59521,0,20.07617,7.30664,6.48047,7.30811,6.48144,19.63233V85.75586H105.4458Zm0-20.71289c-.42481-.083-1.22949-.19043-2.41406-.31738a38.61562,38.61562,0,0,0-4.06641-.19092q-7.62452,0-10.80078,2.16064A6.95176,6.95176,0,0,0,84.48,67.20361q0,7.37037,8.89453,7.36963a13.35676,13.35676,0,0,0,4.25684-.69824,11.7978,11.7978,0,0,0,3.68457-1.96973,10.09525,10.09525,0,0,0,2.60547-3.17675,9.32048,9.32048,0,0,0,1.0166-4.44727Zm30.877-33.292h17.53565l.63476,7.49707a27.32286,27.32286,0,0,1,6.29-5.84522q4.00343-2.79345,10.35645-2.79541a28.78737,28.78737,0,0,1,4.12988.25391,15.94487,15.94487,0,0,1,3.36719.88965l-2.92286,16.13769a21.918,21.918,0,0,0-6.60742-.88965,14.43894,14.43894,0,0,0-10.4834,3.876q-4.00194,3.87744-4.00195,10.99121V85.75586H135.81494ZM192.74219,40.519h-9.40332V26.16016h9.40332V6.59131h18.29834V26.16016H226.416V40.519H211.04053V64.02686a11.17181,11.17181,0,0,0,1.71484,6.67138q1.71534,2.35254,5.40088,2.35059a11.28793,11.28793,0,0,0,4.8291-.95313,24.27437,24.27437,0,0,0,3.8125-2.22363L234.168,81.05469A29.61911,29.61911,0,0,1,215.36084,87.916,27.2522,27.2522,0,0,1,204.687,86.07324a17.99121,17.99121,0,0,1-6.98926-5.082,19.57226,19.57226,0,0,1-3.812-7.81543,41.936,41.936,0,0,1-1.14355-10.16553Zm48.79492-14.35888h17.53613l.50781,6.48046a20.95016,20.95016,0,0,1,7.68848-5.71826,23.89635,23.89635,0,0,1,9.97461-2.16015q10.29346,0,16.32813,6.09961,6.03515,6.09886,6.03613,18.04394v36.8501H281.31055V51.44678a11.788,11.788,0,0,0-2.47754-7.87793,8.58987,8.58987,0,0,0-6.92578-2.92285,12.39339,12.39339,0,0,0-5.33692,1.08007,11.31722,11.31722,0,0,0-3.8125,2.85889,11.94882,11.94882,0,0,0-2.28711,4.12988,16.19487,16.19487,0,0,0-.76172,5.01954V85.75586H241.53711ZM369.11523,79.27539q-1.01807.63721-3.0498,2.09668a28.32832,28.32832,0,0,1-5.27246,2.85938,48.40739,48.40739,0,0,1-7.68848,2.47753,43.33352,43.33352,0,0,1-10.165,1.08008,37.93131,37.93131,0,0,1-13.72363-2.35058,29.81056,29.81056,0,0,1-10.35644-6.54395A27.60812,27.60812,0,0,1,312.37891,68.792a36.68361,36.68361,0,0,1-2.22364-13.02441,34.95,34.95,0,0,1,2.09668-12.0083,29.9941,29.9941,0,0,1,6.03516-10.102,29.36026,29.36026,0,0,1,9.6582-6.9253,30.94733,30.94733,0,0,1,12.96094-2.605,29.85412,29.85412,0,0,1,12.707,2.54151,26.18019,26.18019,0,0,1,9.21192,7.05224,30.54013,30.54013,0,0,1,5.65527,10.80078,47.38529,47.38529,0,0,1,1.90625,13.78711V61.3584H327.94531a11.36119,11.36119,0,0,0,4.25684,8.45019q4.12646,3.62111,11.37207,3.6211A27.2651,27.2651,0,0,0,355.1377,71.333a39.63076,39.63076,0,0,0,6.48046-3.6211ZM353.10449,49.668a10.70042,10.70042,0,0,0-.76172-3.87549,11.39067,11.39067,0,0,0-2.28808-3.62158,12.23451,12.23451,0,0,0-3.81153-2.73194,12.72525,12.72525,0,0,0-5.46386-1.08007,13.59129,13.59129,0,0,0-5.5918,1.08007,12.63342,12.63342,0,0,0-4.002,2.73194,11.77494,11.77494,0,0,0-2.415,3.62158,9.95578,9.95578,0,0,0-.8252,3.87549Zm27.69922-23.50781h17.53613l.63477,7.49707a27.32286,27.32286,0,0,1,6.29-5.84522q4.00341-2.79345,10.35644-2.79541a28.78742,28.78742,0,0,1,4.12989.25391,15.94463,15.94463,0,0,1,3.36718.88965l-2.92285,16.13769a21.91808,21.91808,0,0,0-6.60742-.88965,14.43894,14.43894,0,0,0-10.4834,3.876q-4.002,3.87744-4.002,10.99121V85.75586H380.80371Z" fill="#00aeef"/></svg>
