<?xml version="1.0" encoding="utf-8"?>
<!-- Generator: Adobe Illustrator 26.3.1, SVG Export Plug-In . SVG Version: 6.00 Build 0)  -->
<svg version="1.1" id="Layer_1" xmlns="http://www.w3.org/2000/svg" xmlns:xlink="http://www.w3.org/1999/xlink" x="0px" y="0px"
	 viewBox="0 0 201.1 100" style="enable-background:new 0 0 201.1 100;" xml:space="preserve">
<g>
	<path fill="#005DA4" d="M16.6,56.2c0.4,0.5,0.9,0.9,1.4,1.3c0.6,0.5,1.2,0.9,1.8,1.2c0.7,0.4,1.4,0.7,2.2,0.9c0.8,0.2,1.7,0.3,2.5,0.3
		c0.5,0,1.1-0.1,1.6-0.2c0.5-0.1,1-0.4,1.4-0.7c0.4-0.3,0.8-0.6,1-1.1c0.3-0.4,0.4-0.9,0.4-1.4c0-1.1-0.6-2.2-1.7-2.6
		c-1.7-0.8-3.4-1.5-5.2-1.9c-1.1-0.3-2.2-0.7-3.2-1.2c-1-0.5-1.8-1.1-2.6-1.9c-0.7-0.7-1.3-1.6-1.7-2.5c-0.4-1-0.6-2.1-0.6-3.2
		c0-1.2,0.2-2.5,0.7-3.6c0.5-1.1,1.2-2.2,2.1-3c1-0.9,2.2-1.6,3.5-2.1c1.6-0.5,3.3-0.8,4.9-0.8c1.4,0,2.8,0.1,4.1,0.5
		c1.1,0.3,2.1,0.7,3.1,1.1c0.7,0.4,1.4,0.8,2.1,1.4c0.5,0.5,0.9,0.8,1.2,1.1l-4,4.4c-0.3-0.3-0.7-0.6-1.2-0.9
		c-0.5-0.3-1-0.6-1.5-0.9c-0.6-0.3-1.2-0.5-1.8-0.7c-0.7-0.2-1.4-0.3-2.1-0.3c-0.5,0-1,0.1-1.4,0.2c-0.5,0.1-0.9,0.4-1.3,0.6
		c-0.4,0.2-0.7,0.6-0.9,0.9c-0.2,0.3-0.3,0.7-0.3,1.1c0,1.1,0.7,2.1,1.7,2.5c1.4,0.8,3,1.3,4.5,1.6c1.1,0.3,2.3,0.7,3.3,1.1
		c1.1,0.5,2,1.1,2.9,1.9c0.9,0.8,1.6,1.7,2.1,2.8c0.6,1.3,0.8,2.7,0.8,4.1c0,1.3-0.3,2.6-0.9,3.8c-0.6,1.2-1.5,2.2-2.5,3
		c-1.1,0.9-2.4,1.6-3.7,2c-1.5,0.5-3,0.7-4.6,0.7c-1.4,0-2.8-0.1-4.2-0.4c-1.2-0.3-2.3-0.6-3.4-1.1c-1-0.4-1.9-1-2.7-1.6
		c-0.8-0.6-1.5-1.2-2.1-1.9L16.6,56.2z"/>
	<path fill="#005DA4" d="M58.5,63c-0.2,0.2-0.6,0.4-1.1,0.8c-0.6,0.4-1.2,0.8-1.9,1c-0.9,0.4-1.8,0.7-2.8,0.9c-1.2,0.3-2.4,0.4-3.7,0.4
		c-1.7,0-3.4-0.3-5-0.8c-1.4-0.5-2.7-1.3-3.7-2.4c-1-1-1.8-2.3-2.3-3.6c-0.5-1.5-0.8-3.1-0.8-4.7c0-1.5,0.3-2.9,0.8-4.3
		c0.5-1.3,1.2-2.6,2.2-3.6c1-1.1,2.2-1.9,3.5-2.5c1.5-0.6,3.1-1,4.7-0.9c1.6,0,3.1,0.3,4.6,0.9c1.3,0.6,2.4,1.5,3.3,2.5
		c0.9,1.1,1.6,2.5,2,3.9c0.5,1.6,0.7,3.3,0.7,5v1.1H43.6c0,1.2,0.6,2.3,1.5,3.1c1.2,0.9,2.6,1.4,4.1,1.3c1.4,0.1,2.9-0.2,4.2-0.8
		c0.8-0.4,1.6-0.8,2.3-1.3L58.5,63z M52.7,52.3c0-0.5-0.1-1-0.3-1.4c-0.2-0.5-0.5-0.9-0.8-1.3c-0.4-0.4-0.9-0.7-1.4-1
		c-0.6-0.3-1.3-0.4-2-0.4c-0.7,0-1.4,0.1-2,0.4c-0.5,0.2-1,0.6-1.4,1c-0.4,0.4-0.7,0.8-0.9,1.3c-0.2,0.4-0.3,0.9-0.3,1.4H52.7z"/>
	<path fill="#005DA4" d="M82.6,34.7h6.6v30.6h-6.6L82.6,34.7z"/>
	<path fill="#005DA4" d="M77.4,45.7c-1.6-1.8-4-2.6-7.2-2.6c-1.1,0-2.3,0.1-3.4,0.3c-0.9,0.1-1.8,0.4-2.7,0.7c-0.7,0.2-1.4,0.5-2.1,0.9
		c-0.5,0.3-1.1,0.6-1.6,1l2.7,4c0.8-0.5,1.6-0.9,2.5-1.2c1.2-0.4,2.4-0.6,3.6-0.6c0.5,0,1,0.1,1.6,0.2c0.5,0.1,0.9,0.3,1.3,0.6
		c0.4,0.2,0.7,0.6,0.9,1c0.2,0.4,0.4,0.9,0.3,1.4v0.5c-0.5-0.1-1-0.1-1.5-0.1c-0.8,0-1.6,0-2.3,0c-1.3,0-2.6,0.2-3.9,0.5
		c-1.1,0.3-2.2,0.8-3.1,1.5c-0.9,0.6-1.6,1.5-2.1,2.5c-0.5,1-0.8,2.2-0.8,3.3c0,1.1,0.2,2.2,0.7,3.2c0.4,0.8,1,1.5,1.8,2
		c0.7,0.5,1.5,0.9,2.3,1.1c2,0.5,4.2,0.4,6.1-0.4c1.1-0.4,2-1.1,2.8-2l0.2,2h6.2V52.8C79.8,50.2,79,47.7,77.4,45.7z M69,61.5
		c-1.8,0-3.3-0.8-3.3-2.8c0-1.9,1.5-2.7,3.3-3.1c1.7-0.5,3.8-0.6,4.9-1.3C74.1,59.4,72.8,61.5,69,61.5z"/>
</g>
<g>
	<path fill="#005DA4" d="M91.3,54.5c0-1.5,0.3-3.1,0.8-4.5c0.5-1.4,1.3-2.6,2.4-3.6c1-1.1,2.3-1.9,3.6-2.5c1.5-0.6,3.1-0.9,4.7-0.9
		c1.6,0,3.2,0.3,4.7,0.9c1.4,0.6,2.6,1.4,3.6,2.5c1,1.1,1.8,2.3,2.4,3.6c1.1,2.9,1.1,6.1,0,8.9c-1.1,2.8-3.3,5-6,6.1
		c-1.5,0.6-3.1,0.9-4.7,0.9c-1.6,0-3.2-0.3-4.7-0.9c-1.4-0.6-2.6-1.4-3.6-2.5c-1-1.1-1.8-2.3-2.4-3.6C91.6,57.6,91.3,56.1,91.3,54.5
		z M102.9,60.3c1.5,0,2.9-0.6,3.8-1.8c0.4-0.6,0.8-1.2,1-1.9c0.4-1.4,0.4-2.9,0-4.3c-0.2-0.7-0.5-1.3-1-1.8c-0.4-0.5-1-1-1.6-1.3
		c-0.7-0.3-1.4-0.5-2.2-0.5c-0.8,0-1.5,0.2-2.2,0.5c-0.6,0.3-1.2,0.7-1.6,1.3c-0.4,0.5-0.8,1.2-1,1.8c-0.5,1.4-0.5,2.9,0,4.3
		c0.2,0.7,0.6,1.3,1,1.9c0.4,0.6,1,1,1.6,1.3C101.3,60.2,102.1,60.3,102.9,60.3L102.9,60.3z"/>
	<path fill="#3ABCA8" d="M118.1,49h-3.5v-5.2h3.5v-1.1c0-1.4,0.2-2.7,0.8-3.9c0.5-1,1.1-2,2-2.7c0.8-0.7,1.8-1.3,2.8-1.6
		c1-0.3,2.1-0.5,3.2-0.5c1.2,0,2.4,0.2,3.5,0.5c1.2,0.3,2.3,0.9,3.3,1.7c-0.5,0.7-0.9,1.4-1.4,2.1c-0.5,0.7-0.9,1.4-1.4,2.1
		c-0.5-0.3-1-0.6-1.5-0.8c-0.5-0.2-1.1-0.3-1.7-0.3c-0.8,0-1.6,0.3-2.2,0.9c-0.6,0.7-0.9,1.6-0.8,2.5v1.2h5.1V49h-5.1v16.3h-6.6
		L118.1,49z"/>
	<path fill="#3ABCA8" d="M135,34.7h6.6v30.6H135V34.7z"/>
	<path fill="#3ABCA8" d="M164.2,63c-0.2,0.2-0.6,0.4-1.1,0.8c-0.6,0.4-1.2,0.8-1.9,1c-0.9,0.4-1.8,0.7-2.8,0.9
		c-1.2,0.3-2.4,0.4-3.7,0.4c-1.7,0-3.4-0.3-5-0.8c-1.4-0.5-2.7-1.3-3.7-2.4c-1-1-1.8-2.3-2.3-3.6c-0.5-1.5-0.8-3.1-0.8-4.7
		c0-1.5,0.3-2.9,0.8-4.3c0.5-1.3,1.2-2.6,2.2-3.6c1-1.1,2.2-1.9,3.5-2.5c1.5-0.6,3.1-1,4.7-0.9c1.6,0,3.1,0.3,4.6,0.9
		c1.3,0.6,2.4,1.5,3.3,2.5c0.9,1.1,1.6,2.5,2,3.9c0.5,1.6,0.7,3.3,0.7,5v1.1h-15.3c0,1.2,0.6,2.3,1.5,3.1c1.2,0.9,2.6,1.4,4.1,1.3
		c1.4,0.1,2.9-0.2,4.2-0.8c0.8-0.4,1.6-0.8,2.3-1.3L164.2,63z M158.5,52.3c0-0.5-0.1-1-0.3-1.4c-0.2-0.5-0.5-0.9-0.8-1.3
		c-0.4-0.4-0.9-0.7-1.4-1c-0.6-0.3-1.3-0.4-2-0.4c-0.7,0-1.4,0.1-2,0.4c-0.5,0.2-1,0.6-1.4,1c-0.4,0.4-0.7,0.8-0.9,1.3
		c-0.2,0.4-0.3,0.9-0.3,1.4H158.5z"/>
	<path fill="#3ABCA8" d="M173.4,54.5l-7.8-10.7h7.9l3.9,5.7l3.9-5.7h7.2l-7.6,10.3l8.3,11.2h-7.9l-4.3-6.2l-4.3,6.2h-7.2L173.4,54.5z"
		/>
</g>
</svg>
