<svg xmlns="http://www.w3.org/2000/svg" viewBox="0 0 300 100">
  <g fill="#005da4">
    <path d="M116.57555,56.1935a14.5309,14.5309,0,0,0,1.399,1.30759,11.781,11.781,0,0,0,1.78914,1.2153,10.43786,10.43786,0,0,0,2.156.89457,8.81492,8.81492,0,0,0,2.4996.344,5.4826,5.4826,0,0,0,1.55978-.22935,5.03562,5.03562,0,0,0,1.42182-.66522,3.55839,3.55839,0,0,0,1.03209-1.05494,2.56934,2.56934,0,0,0,.39017-1.399,2.91053,2.91053,0,0,0-1.65162-2.63757,22.61249,22.61249,0,0,0-5.229-1.85768,13.77771,13.77771,0,0,1-3.2338-1.1929,10.11278,10.11278,0,0,1-2.569-1.88052,7.96853,7.96853,0,0,1-1.674-2.52289,8.09993,8.09993,0,0,1-.59668-3.16526,9.55169,9.55169,0,0,1,.68806-3.62352,8.38945,8.38945,0,0,1,2.08748-3.00445,10.03156,10.03156,0,0,1,3.486-2.06418,14.46194,14.46194,0,0,1,4.93111-.757,15.93812,15.93812,0,0,1,4.12836.48155,14.88889,14.88889,0,0,1,3.05059,1.14677,10.5805,10.5805,0,0,1,2.06418,1.37612q.80161.71157,1.21531,1.12392l-3.99085,4.40341q-.50529-.41256-1.16961-.89412a10.65493,10.65493,0,0,0-1.4908-.89457,10.09352,10.09352,0,0,0-1.812-.68806,7.723,7.723,0,0,0-2.087-.27549,4.6918,4.6918,0,0,0-1.44466.22935,5.02792,5.02792,0,0,0-1.28474.61953,3.28056,3.28056,0,0,0-.91742.91741,2.02242,2.02242,0,0,0-.344,1.12392,2.86465,2.86465,0,0,0,1.65162,2.52289,16.11766,16.11766,0,0,0,4.54093,1.60548,20.32132,20.32132,0,0,1,3.32563,1.12347,10.90929,10.90929,0,0,1,2.91306,1.85813,8.61029,8.61029,0,0,1,2.06419,2.82078,9.57336,9.57336,0,0,1,.77989,4.05983,8.05543,8.05543,0,0,1-.91742,3.80718,9.6746,9.6746,0,0,1-2.5,3.02729,11.69713,11.69713,0,0,1-3.7158,1.99564,14.50393,14.50393,0,0,1-4.60992.71091A18.52379,18.52379,0,0,1,120.337,65.666a17.00779,17.00779,0,0,1-3.39461-1.14677,15.295,15.295,0,0,1-2.7294-1.62832,14.89132,14.89132,0,0,1-2.087-1.881Z"></path>
    <path d="M158.40886,62.98273q-.36755.2298-1.10063.7566a10.20334,10.20334,0,0,1-1.90381,1.03209,17.45452,17.45452,0,0,1-2.77509.89457,15.64928,15.64928,0,0,1-3.66966.38972,13.69532,13.69532,0,0,1-4.95395-.84843,10.759,10.759,0,0,1-3.73865-2.36252,9.95584,9.95584,0,0,1-2.33923-3.64637,13.2482,13.2482,0,0,1-.80273-4.70175,12.62606,12.62606,0,0,1,.75659-4.33487,10.83689,10.83689,0,0,1,2.17886-3.64681,10.603,10.603,0,0,1,3.48645-2.50005,11.17549,11.17549,0,0,1,4.6789-.94026,10.77637,10.77637,0,0,1,4.58708.91742,9.4591,9.4591,0,0,1,3.32563,2.54573,11.03419,11.03419,0,0,1,2.04089,3.899,17.10248,17.10248,0,0,1,.68806,4.97725v1.10063H143.547a4.10207,4.10207,0,0,0,1.53649,3.05058,6.01592,6.01592,0,0,0,4.10552,1.30714,9.84849,9.84849,0,0,0,4.17406-.7566,14.3627,14.3627,0,0,0,2.33968-1.30759Zm-5.77953-10.68824a3.864,3.864,0,0,0-.27505-1.399,4.10812,4.10812,0,0,0-.826-1.30714,4.41226,4.41226,0,0,0-1.37612-.9864,4.5924,4.5924,0,0,0-1.97236-.38972,4.90622,4.90622,0,0,0-2.018.38972,4.55964,4.55964,0,0,0-1.44511.9864,4.25912,4.25912,0,0,0-.87172,1.30714,3.59828,3.59828,0,0,0-.29789,1.399Z"></path>
    <path d="M182.58238,34.72609H189.188V65.322h-6.60557Z"></path>
    <path d="M177.30725,45.71222q-2.339-2.63735-7.24749-2.63757a20.726,20.726,0,0,0-3.41746.2522,16.81367,16.81367,0,0,0-2.68326.66522,11.88169,11.88169,0,0,0-2.06418.91741,17.3333,17.3333,0,0,0-1.55979,1.00925l2.70656,4.03653a11.8239,11.8239,0,0,1,2.4539-1.2386,10.34974,10.34974,0,0,1,3.64682-.55054,7.28667,7.28667,0,0,1,1.55978.16082,3.72561,3.72561,0,0,1,1.30714.55054,3.06137,3.06137,0,0,1,.91741.9631,2.67344,2.67344,0,0,1,.344,1.399v.45871a9.56935,9.56935,0,0,0-1.53649-.13752q-1.16983-.045-2.31683-.0457a14.58919,14.58919,0,0,0-3.92186.5044,9.50607,9.50607,0,0,0-3.142,1.4908,7.02194,7.02194,0,0,0-2.087,2.45391,7.20169,7.20169,0,0,0-.757,3.34892,6.55879,6.55879,0,0,0,.71091,3.21095,5.9707,5.9707,0,0,0,1.78913,2.04089,7.0756,7.0756,0,0,0,2.33923,1.07823,9.95015,9.95015,0,0,0,6.14686-.36688,7.18262,7.18262,0,0,0,2.77509-1.9728l.18366,2.0185h6.19255V52.79934A10.29244,10.29244,0,0,0,177.30725,45.71222Zm-8.37063,15.8254c-1.78763,0-3.34-.79955-3.34-2.77565,0-1.92884,1.50542-2.68141,3.293-3.10478,1.74059-.47041,3.81066-.61163,4.93967-1.31722C174.01751,59.3736,172.74727,61.53762,168.93662,61.53762Z"></path>
  </g>
  <g fill="#3abca8">
    <path d="M191.25213,54.54233a11.753,11.753,0,0,1,.84843-4.47239,11.2806,11.2806,0,0,1,2.36252-3.64682,10.87682,10.87682,0,0,1,3.64682-2.4539,12.03911,12.03911,0,0,1,4.70175-.89457,11.87219,11.87219,0,0,1,4.67846.89457,10.93745,10.93745,0,0,1,3.624,2.4539,11.28788,11.28788,0,0,1,2.36253,3.64682,12.21206,12.21206,0,0,1,0,8.94479,11.08937,11.08937,0,0,1-5.98649,6.12356,11.61448,11.61448,0,0,1-4.67846.91742,11.77731,11.77731,0,0,1-4.70175-.91742,11.14829,11.14829,0,0,1-3.64682-2.47675,11.2661,11.2661,0,0,1-2.36252-3.64681A11.74973,11.74973,0,0,1,191.25213,54.54233Zm11.55952,5.77954a4.75047,4.75047,0,0,0,3.83-1.78869,5.5883,5.5883,0,0,0,.9864-1.85768,7.25417,7.25417,0,0,0,0-4.26633,5.343,5.343,0,0,0-.9864-1.83483,4.992,4.992,0,0,0-1.62833-1.28429,4.85738,4.85738,0,0,0-2.2017-.48156,5.00138,5.00138,0,0,0-2.225.48156,4.681,4.681,0,0,0-1.62832,1.28429,5.88487,5.88487,0,0,0-.9864,1.83483,6.78538,6.78538,0,0,0,0,4.26633,6.17455,6.17455,0,0,0,.9864,1.85768,4.55938,4.55938,0,0,0,1.62832,1.30713A5.00138,5.00138,0,0,0,202.81165,60.32187Z" transform="translate(0)" fill="#005da4"/>
    <path d="M218.08562,48.99215h-3.486V43.8084h3.486V42.70777a9.40639,9.40639,0,0,1,.757-3.94515,7.94309,7.94309,0,0,1,1.99519-2.72895,8.20154,8.20154,0,0,1,2.82123-1.60547,10.17415,10.17415,0,0,1,3.2338-.52769,12.98943,12.98943,0,0,1,3.53214.50439,8.65059,8.65059,0,0,1,3.25664,1.74345q-.68806,1.05561-1.399,2.087-.71157,1.03209-1.399,2.087a5.48194,5.48194,0,0,0-1.5141-.77989,5.33806,5.33806,0,0,0-1.69686-.27505,2.89284,2.89284,0,0,0-2.20215.87128,3.46527,3.46527,0,0,0-.82558,2.47719V43.8084H229.737v5.18375h-5.09192V65.322h-6.55943Z"></path>
    <path d="M234.96551,34.72609h6.60557V65.322h-6.60557Z"></path>
    <path d="M264.18571,62.98273q-.36822.2298-1.102.7566a10.19273,10.19273,0,0,1-1.90292,1.03209,17.46027,17.46027,0,0,1-2.77554.89457,15.64382,15.64382,0,0,1-3.66966.38972,13.70291,13.70291,0,0,1-4.95439-.84843,10.76338,10.76338,0,0,1-3.73775-2.36252,9.96137,9.96137,0,0,1-2.33923-3.64637,13.258,13.258,0,0,1-.80274-4.70175,12.60511,12.60511,0,0,1,.757-4.33487,10.82942,10.82942,0,0,1,2.17886-3.64681,10.60649,10.60649,0,0,1,3.4851-2.50005,11.18179,11.18179,0,0,1,4.68025-.94026,10.78061,10.78061,0,0,1,4.58707.91742,9.47106,9.47106,0,0,1,3.32563,2.54573,11.03419,11.03419,0,0,1,2.04089,3.899,17.10214,17.10214,0,0,1,.68806,4.97725v1.10063h-15.3219a4.10314,4.10314,0,0,0,1.53739,3.05058,6.01232,6.01232,0,0,0,4.10507,1.30714,9.85286,9.85286,0,0,0,4.17495-.7566,14.33764,14.33764,0,0,0,2.33834-1.30759Zm-5.78043-10.68824a3.87191,3.87191,0,0,0-.27415-1.399,4.12354,4.12354,0,0,0-.826-1.30714,4.42265,4.42265,0,0,0-1.37612-.9864,4.59727,4.59727,0,0,0-1.9728-.38972,4.90264,4.90264,0,0,0-2.0176.38972,4.54882,4.54882,0,0,0-1.446.9864,4.27226,4.27226,0,0,0-.87083,1.30714,3.60062,3.60062,0,0,0-.29923,1.399Z"></path>
    <path d="M273.31327,54.54233,265.47045,43.8084h7.88941l3.85243,5.73385,3.899-5.73385h7.20135L280.744,54.08363,289.00071,65.322H281.1113L276.845,59.12941,272.53383,65.322h-7.20135Z"></path>
  </g>
  <g id="BMI_Block">
    <rect width="100" height="100" fill="#009fe3"></rect>
    <g fill="white">
      <path d="M62.176,34.911,57.84,52.77h-.084L53.417,34.911H40.11v20.28a7.315,7.315,0,0,0-5.239-6.716c2.255-1.235,3.742-2.891,3.742-5.953,0-3.1-1.7-7.611-9.693-7.611H12.3V65.27H29.515c5.121,0,10.16-2.878,10.6-8.443V65.27h8.844V45.8h.084L54.31,65.27h6.973L66.555,45.8h.085V65.27h8.844V34.911ZM21.65,42.139h4.933c1.913,0,3.188.554,3.188,2.084,0,1.956-1.233,2.507-3.188,2.507H21.65Zm5.485,15.9H21.65V52.386h5.867c2.211,0,3.272.978,3.272,2.763,0,2.339-1.7,2.891-3.655,2.891"></path>
      <rect x="78.358" y="34.914" width="9.354" height="30.356"></rect>
    </g>
  </g>
</svg>
