<?xml version="1.0" encoding="utf-8"?>
<!-- Generator: Adobe Illustrator 26.3.1, SVG Export Plug-In . SVG Version: 6.00 Build 0)  -->
<svg version="1.1" id="Layer_1" xmlns="http://www.w3.org/2000/svg" xmlns:xlink="http://www.w3.org/1999/xlink" x="0px" y="0px"
	 viewBox="0 0 189.1 100" style="enable-background:new 0 0 189.1 100;" xml:space="preserve">
<style type="text/css">
	.st0{fill:#1A171B;}
</style>
<g>
	<path class="st0" d="M98,64.7h-8.3c0,0,1.4-0.8,1.4-3.4V40.7c0-1.4-0.1-2.7,1.9-3.4c2-0.6,7.6-2.2,7.6-2.2v26.5
		C100.6,64,100.2,64.7,98,64.7z"/>
	<path class="st0" d="M77.9,44.3c-2.3,0-4.6,0.6-6.6,1.8c0,0,0.3-1.4-1.4-1.4h-8.1v5.7c0,0.3,0,0.6,0,0.9v21.6
		c0,2.6-1.4,3.4-1.4,3.4h8.3c2.2,0,2.6-0.7,2.6-3l0,0v-10c1.9,1.1,4,1.7,6.2,1.7c6.1,0,9.8-3.3,9.8-10.4
		C87.3,47.3,83.2,44.3,77.9,44.3z M74.8,59.5c-1.2,0-2.4-0.3-3.4-0.9v-7.6c1-0.6,2.2-1,3.4-0.9c2,0,3.1,1,3.1,5
		C77.9,58.6,76.8,59.5,74.8,59.5L74.8,59.5z"/>
	<path class="st0" d="M54.5,64.6h-8.3c0,0,1.4-0.9,1.4-3.5V50.2c0-1.5-0.1-2.8,1.9-3.4c2-0.7,7.6-2.6,7.6-2.6v17.4
		C57.2,63.9,56.7,64.6,54.5,64.6z"/>
	<path class="st0" d="M145.1,51.9c-2.4-0.5-2.8-0.8-2.8-1.4s0.5-0.9,2.3-0.9c2.6,0,5.1,0.4,7.5,1.2v-5.7c-2.7-0.6-5.4-0.9-8.1-0.8
		c-7.6,0-11.3,2.4-11.3,6.5c0,4.1,2.2,4.9,10.8,6.6c1.8,0.3,2.2,0.6,2.2,1.3c0,0.6-0.7,0.9-2.5,0.9c-3,0-6-0.4-8.8-1.3l-2.2,5.2
		c3.8,1.1,7.7,1.6,11.6,1.6c7.1,0,11.5-2.1,11.5-6.7C155.3,54.4,153,53.4,145.1,51.9z"/>
	<path class="st0" d="M47.6,43.6l9.6-3.4V36h-7c-2.2,0-2.7,0.7-2.7,2.8V43.6z"/>
	<path class="st0" d="M117.5,44.3c-3.1,0-6.2,0.3-9.3,1l0.2,3.9h7.4v0c2.6,0,3.3,0.6,3.3,2.3v0.9c-1.7-0.6-3.4-0.8-5.2-0.8
		c-5.9,0-10,2.2-10,6.5c0,4.5,3.6,6.9,9,6.9c2.2,0,4.3-0.6,6.2-1.7c0.6,0.9,1.6,1.4,2.6,1.3h8.2c-0.7-0.7-1.2-1.7-1.2-2.7V51.7
		C128.7,47.1,125.3,44.3,117.5,44.3z M119.1,59.3c-1,0.7-2.2,1-3.5,1c-2.1,0-3-0.9-3-2.2c0-1.4,1-2.1,3-2.1c1.2,0,2.4,0.2,3.5,0.6
		V59.3z"/>
	<path class="st0" d="M30.2,46.4c-5-0.9-6.7-1.4-6.7-2.7c0-1.4,1.3-2.1,4.3-2.1c3.6,0,7.1,0.8,10.3,2.4v-7.9
		c-3.2-0.8-6.5-1.2-9.8-1.1c-9.3,0-15.3,3.6-15.3,9.1c0,5.8,4.7,7.7,13.9,9.3c5.3,0.9,6.9,1.6,6.9,2.9c0,1.8-1.9,2.1-5.4,2.1
		c-4-0.2-7.9-1.2-11.5-2.9l-5,6c5.1,2.3,10.6,3.5,16.2,3.4c6,0,16-1.2,16-9.3C44.3,50.7,40.6,48.3,30.2,46.4z"/>
	<path class="st0" d="M173.3,59.3c-1.6,0-2.4-0.5-2.4-2v-7.2h3.5c1.3,0.1,2.4-0.8,2.5-2.1c0-0.1,0-0.2,0-0.2v-3h-6v-9.6l-7.8,2.2
		c-1,0.3-1.7,1.3-1.7,2.3v5.1h-4v5.4h4v8.6c0,4.5,2.3,6.3,7.4,6.3c2.4,0,4.8-0.3,7.1-1.1l1.2-5.8C176,58.9,174.7,59.2,173.3,59.3z"
		/>
</g>
</svg>
