<?xml version="1.0" encoding="utf-8"?>
<!-- Generator: Adobe Illustrator 26.3.1, SVG Export Plug-In . SVG Version: 6.00 Build 0)  -->
<svg version="1.1" id="Layer_1" xmlns="http://www.w3.org/2000/svg" xmlns:xlink="http://www.w3.org/1999/xlink" x="0px" y="0px"
	 viewBox="0 0 212.4 100" style="enable-background:new 0 0 212.4 100;" xml:space="preserve">
<style type="text/css">
	.st0{fill:#EB3300;}
</style>
<g id="Sunscape">
	<path class="st0" d="M16.3,56.3c0.4,0.5,0.9,0.9,1.4,1.3c0.5,0.4,1.1,0.8,1.7,1.2c0.7,0.4,1.4,0.7,2.1,0.9c0.8,0.2,1.6,0.3,2.4,0.3
		c0.5,0,1-0.1,1.5-0.2c0.5-0.1,1-0.4,1.4-0.6c0.4-0.3,0.7-0.6,1-1c0.3-0.4,0.4-0.9,0.4-1.4c0-1.1-0.6-2.1-1.6-2.6
		c-1.6-0.8-3.3-1.4-5.1-1.8c-1.1-0.3-2.2-0.6-3.1-1.2c-0.9-0.5-1.8-1.1-2.5-1.8c-0.7-0.7-1.2-1.5-1.6-2.5c-0.4-1-0.6-2-0.6-3.1
		c0-1.2,0.2-2.4,0.7-3.5c0.5-1.1,1.1-2.1,2-2.9c1-0.9,2.1-1.6,3.4-2c1.5-0.5,3.2-0.8,4.8-0.7c1.4,0,2.7,0.1,4,0.5c1,0.3,2,0.6,3,1.1
		c0.7,0.4,1.4,0.8,2,1.3c0.5,0.5,0.9,0.8,1.2,1.1l-3.9,4.3c-0.3-0.3-0.7-0.6-1.1-0.9c-0.5-0.3-0.9-0.6-1.5-0.9
		c-0.6-0.3-1.2-0.5-1.8-0.7c-0.7-0.2-1.3-0.3-2-0.3c-0.5,0-1,0.1-1.4,0.2c-0.4,0.1-0.9,0.3-1.2,0.6c-0.4,0.2-0.7,0.5-0.9,0.9
		c-0.2,0.3-0.3,0.7-0.3,1.1c0,1.1,0.6,2,1.6,2.5c1.4,0.7,2.9,1.3,4.4,1.6c1.1,0.3,2.2,0.6,3.2,1.1c1,0.4,2,1.1,2.8,1.8
		c0.9,0.8,1.5,1.7,2,2.7c0.5,1.2,0.8,2.6,0.8,4c0,1.3-0.3,2.6-0.9,3.7c-0.6,1.1-1.4,2.1-2.4,2.9c-1.1,0.9-2.3,1.5-3.6,1.9
		c-1.4,0.5-3,0.7-4.5,0.7c-1.4,0-2.7-0.1-4.1-0.4c-1.1-0.3-2.2-0.6-3.3-1.1c-0.9-0.4-1.8-1-2.7-1.6c-0.7-0.5-1.4-1.2-2-1.8
		L16.3,56.3z"/>
	<path class="st0" d="M39.5,44.3h6.4v12.1c-0.1,1,0.3,2,0.9,2.8c0.7,0.7,1.6,1.1,2.6,1c0.6,0,1.2-0.1,1.7-0.4c0.5-0.2,0.9-0.6,1.3-1
		c0.4-0.4,0.6-0.9,0.8-1.5c0.2-0.6,0.3-1.2,0.3-1.7V44.3h6.4v20.9h-6.2L53.5,63c-0.7,0.8-1.7,1.5-2.7,2c-1.1,0.5-2.3,0.8-3.5,0.8
		c-2.1,0.1-4.2-0.7-5.7-2.1c-1.4-1.4-2.1-3.5-2.1-6.3V44.3z"/>
	<path class="st0" d="M64.5,44.3h6.2l0.2,2.3c0.7-0.9,1.7-1.6,2.7-2c1.1-0.5,2.3-0.8,3.5-0.8c2.1-0.1,4.2,0.7,5.7,2.1
		c1.4,1.4,2.1,3.5,2.1,6.3v12.9h-6.4V53.2c0.1-1-0.3-2-0.9-2.8c-0.6-0.7-1.5-1.1-2.4-1c-0.6,0-1.3,0.1-1.9,0.4c-0.5,0.2-1,0.6-1.3,1
		c-0.4,0.4-0.6,0.9-0.8,1.5c-0.2,0.6-0.3,1.2-0.3,1.8v11.3h-6.4L64.5,44.3z"/>
	<path class="st0" d="M91.2,58.7c0.8,0.7,1.7,1.2,2.7,1.6c1,0.4,2.1,0.6,3.2,0.6c0.8,0,1.6-0.1,2.4-0.4c0.6-0.2,1-0.8,0.9-1.4
		c0-0.3-0.1-0.5-0.2-0.7c-0.2-0.3-0.4-0.5-0.7-0.6c-0.5-0.2-1-0.4-1.5-0.6c-0.6-0.2-1.5-0.4-2.4-0.7c-0.8-0.2-1.6-0.5-2.4-0.8
		c-0.8-0.3-1.5-0.8-2.1-1.3c-0.6-0.5-1.1-1.1-1.5-1.8c-0.8-1.6-0.7-3.6,0.1-5.2c0.5-0.8,1.1-1.5,1.9-2.1c0.9-0.6,1.8-1.1,2.8-1.3
		c1.1-0.3,2.3-0.5,3.5-0.5c1.6,0,3.2,0.2,4.7,0.6c1.3,0.4,2.6,1,3.7,1.8l-2.7,4.2c-0.7-0.5-1.5-0.9-2.3-1.2c-0.9-0.4-2-0.6-3-0.5
		c-0.7-0.1-1.5,0.1-2.1,0.4c-0.4,0.2-0.7,0.7-0.7,1.1c0,0.7,0.5,1.2,1.4,1.5c0.9,0.3,2.2,0.7,3.8,1.1c1.7,0.4,3.4,1.2,4.7,2.5
		c1,1.1,1.5,2.6,1.5,4.2c0,1.1-0.2,2.1-0.8,3c-0.5,0.8-1.2,1.6-2.1,2.1c-0.9,0.6-1.9,1-3,1.2c-1.1,0.3-2.3,0.4-3.4,0.4
		c-1.8,0-3.6-0.2-5.3-0.8c-1.5-0.4-2.9-1.2-4.1-2.3L91.2,58.7z"/>
	<path class="st0" d="M128.9,62.4c-1,1-2.1,1.9-3.4,2.5c-1.6,0.7-3.3,1.1-5,1c-1.6,0-3.1-0.3-4.6-0.8c-1.3-0.5-2.5-1.3-3.5-2.3
		c-1-1-1.8-2.2-2.3-3.5c-0.6-1.4-0.8-3-0.8-4.5c0-3,1.1-5.8,3.2-7.9c1-1,2.2-1.8,3.6-2.4c1.4-0.6,3-0.9,4.5-0.9c1.7,0,3.4,0.3,5,0.9
		c1.3,0.6,2.5,1.4,3.5,2.5l-3.9,4.2c-0.5-0.6-1.1-1-1.7-1.4c-0.8-0.5-1.8-0.7-2.7-0.6c-0.7,0-1.4,0.1-2.1,0.5
		c-0.6,0.3-1.1,0.7-1.6,1.2c-0.4,0.5-0.8,1.1-1,1.8c-0.2,0.7-0.3,1.4-0.3,2.1c0,0.7,0.1,1.4,0.3,2c0.2,0.7,0.5,1.3,1,1.8
		c0.4,0.5,1,1,1.6,1.3c0.6,0.3,1.4,0.5,2.1,0.5c1,0,1.9-0.2,2.8-0.6c0.7-0.4,1.3-0.8,1.8-1.4L128.9,62.4z"/>
	<path class="st0" d="M144.2,63.3c-0.7,0.8-1.7,1.5-2.7,1.9c-1.9,0.7-4,0.9-6,0.4c-0.8-0.2-1.6-0.6-2.3-1c-0.7-0.5-1.3-1.2-1.7-2
		c-0.5-1-0.7-2-0.7-3.1c0-1.1,0.2-2.2,0.7-3.3c0.5-0.9,1.2-1.8,2-2.4c0.9-0.7,2-1.2,3.1-1.5c1.2-0.3,2.5-0.5,3.8-0.5
		c0.7,0,1.5,0,2.3,0c0.5,0,1,0,1.5,0.1v-0.4c0-0.5-0.1-0.9-0.3-1.4c-0.2-0.4-0.5-0.7-0.9-0.9c-0.4-0.3-0.8-0.4-1.3-0.5
		c-0.5-0.1-1-0.2-1.5-0.2c-1.2,0-2.4,0.1-3.5,0.5c-0.8,0.3-1.6,0.7-2.4,1.2l-2.6-3.9c0.5-0.4,1-0.7,1.5-1c0.6-0.4,1.3-0.7,2-0.9
		c0.9-0.3,1.7-0.5,2.6-0.6c1.1-0.2,2.2-0.3,3.3-0.2c3.2,0,5.5,0.9,7.1,2.6c1.6,1.9,2.4,4.4,2.3,6.9v12.2h-6L144.2,63.3z M144.2,56
		c-0.1,0-0.4-0.1-0.8-0.1c-0.5,0-1-0.1-1.4-0.1c-1.3-0.1-2.6,0.2-3.8,0.8c-0.7,0.5-1.1,1.3-1.1,2.1c0,1.7,1,2.6,3.1,2.6
		c0.5,0,1-0.1,1.5-0.2c0.5-0.2,0.9-0.4,1.3-0.7c0.4-0.3,0.7-0.7,0.9-1.1c0.2-0.5,0.4-1,0.4-1.6L144.2,56z"/>
	<path class="st0" d="M154.9,44.3h6.2c0.1,0.4,0.1,0.8,0.1,1.1c0,0.4,0.1,0.8,0.1,1.1c0.7-0.9,1.6-1.6,2.6-2
		c1.1-0.5,2.2-0.7,3.3-0.7c1.4,0,2.8,0.3,4,0.9c1.1,0.6,2.1,1.4,2.9,2.4c0.8,1,1.4,2.2,1.7,3.4c0.4,1.3,0.6,2.6,0.6,4
		c0,1.7-0.3,3.5-1,5c-0.6,1.3-1.5,2.5-2.5,3.5c-1,0.9-2.2,1.6-3.5,2.1c-1.2,0.4-2.6,0.7-3.9,0.7c-0.8,0-1.7-0.1-2.5-0.3
		c-0.7-0.2-1.2-0.4-1.8-0.5v9.1h-6.4V44.3z M161.3,59.7c1.1,0.6,2.4,0.9,3.7,0.8c1.4,0.1,2.8-0.5,3.7-1.6c1-1.2,1.4-2.7,1.4-4.2
		c0-0.7-0.1-1.4-0.2-2c-0.1-0.6-0.4-1.2-0.8-1.7c-0.3-0.5-0.8-0.9-1.3-1.2c-0.6-0.3-1.3-0.5-2-0.4c-0.7,0-1.3,0.1-1.9,0.4
		c-0.5,0.3-1,0.6-1.4,1.1c-0.4,0.4-0.7,1-0.8,1.5c-0.2,0.6-0.3,1.1-0.3,1.7L161.3,59.7z"/>
	<path class="st0" d="M199.9,62.9c-0.2,0.2-0.6,0.4-1.1,0.7c-0.6,0.4-1.2,0.7-1.9,1c-0.9,0.4-1.8,0.7-2.7,0.9
		c-1.2,0.3-2.4,0.4-3.6,0.4c-1.6,0-3.3-0.3-4.8-0.8c-1.4-0.5-2.6-1.3-3.6-2.3c-1-1-1.8-2.2-2.3-3.5c-0.5-1.5-0.8-3-0.8-4.6
		c0-1.4,0.2-2.9,0.7-4.2c0.5-1.3,1.2-2.5,2.1-3.5c1-1,2.1-1.9,3.4-2.4c1.4-0.6,3-0.9,4.6-0.9c1.5,0,3.1,0.3,4.5,0.9
		c1.3,0.6,2.4,1.4,3.2,2.5c0.9,1.1,1.6,2.4,2,3.8c0.5,1.6,0.7,3.2,0.7,4.8v1.1h-14.9c0,1.2,0.6,2.2,1.5,3c1.1,0.9,2.6,1.4,4,1.3
		c1.4,0.1,2.8-0.2,4.1-0.7c0.8-0.4,1.6-0.8,2.3-1.3L199.9,62.9z M194.3,52.5c0-0.5-0.1-0.9-0.3-1.4c-0.2-0.5-0.5-0.9-0.8-1.3
		c-0.4-0.4-0.8-0.7-1.3-1c-0.6-0.3-1.3-0.4-1.9-0.4c-0.7,0-1.3,0.1-2,0.4c-0.5,0.2-1,0.6-1.4,1c-0.4,0.4-0.6,0.8-0.8,1.3
		c-0.2,0.4-0.3,0.9-0.3,1.4H194.3z"/>
</g>
</svg>
