<svg xmlns="http://www.w3.org/2000/svg" viewBox="0 0 320 100">
  <rect id="whiteBox" x="100" width="220" height="100"></rect>
  <g id="Sunscape" fill="#eb3300">
    <path d="M120.34658,56.33192a14.16535,14.16535,0,0,0,1.36118,1.273,11.42,11.42,0,0,0,1.74167,1.18228,10.13333,10.13333,0,0,0,2.09816.87115,8.594,8.594,0,0,0,2.43392.33446,5.354,5.354,0,0,0,1.518-.223,4.90716,4.90716,0,0,0,1.38386-.64688,3.48126,3.48126,0,0,0,1.00468-1.02672,2.5097,2.5097,0,0,0,.37919-1.36248,2.83255,2.83255,0,0,0-1.60684-2.56679,21.9523,21.9523,0,0,0-5.09017-1.80843,13.40145,13.40145,0,0,1-3.14756-1.16154,9.84848,9.84848,0,0,1-2.50068-1.83046,7.76361,7.76361,0,0,1-1.62953-2.45531,7.888,7.888,0,0,1-.58077-3.08015,9.29124,9.29124,0,0,1,.67022-3.5274,8.16342,8.16342,0,0,1,2.0314-2.92459,9.76217,9.76217,0,0,1,3.39322-2.00936,14.07891,14.07891,0,0,1,4.79978-.73634,15.52435,15.52435,0,0,1,4.01808.468,14.51048,14.51048,0,0,1,2.96931,1.11617,10.28105,10.28105,0,0,1,2.00936,1.33914q.78073.6942,1.18293,1.09413l-3.88455,4.28706q-.491-.40251-1.1382-.87115a10.44617,10.44617,0,0,0-1.45128-.87116,9.94632,9.94632,0,0,0-1.7637-.66892,7.51524,7.51524,0,0,0-2.0314-.26834,4.58626,4.58626,0,0,0-1.40655.223,4.95032,4.95032,0,0,0-1.24969.60281,3.20824,3.20824,0,0,0-.89319.89319,1.9723,1.9723,0,0,0-.33511,1.09413,2.78729,2.78729,0,0,0,1.60748,2.45531,15.70018,15.70018,0,0,0,4.4206,1.56341,19.67953,19.67953,0,0,1,3.237,1.09413,10.639,10.639,0,0,1,2.83515,1.80713,8.38709,8.38709,0,0,1,2.00871,2.747,9.30651,9.30651,0,0,1,.759,3.95131,7.83326,7.83326,0,0,1-.89255,3.705,9.40421,9.40421,0,0,1-2.43327,2.94663,11.37872,11.37872,0,0,1-3.61685,1.94324,14.13805,14.13805,0,0,1-4.48735.69226,18.02069,18.02069,0,0,1-4.0628-.42521,16.4175,16.4175,0,0,1-3.30378-1.11617,14.8403,14.8403,0,0,1-2.65689-1.58415,14.43652,14.43652,0,0,1-2.0314-1.83176Z"></path>
    <path d="M143.50025,44.27706h6.42931V56.33192a4.2131,4.2131,0,0,0,.8705,2.8131,3.17787,3.17787,0,0,0,2.56745,1.02672,3.8269,3.8269,0,0,0,1.741-.37983,4.06665,4.06665,0,0,0,1.29507-1.00468,4.14823,4.14823,0,0,0,.80374-1.47267,5.73761,5.73761,0,0,0,.26835-1.741V44.27706h6.38458V65.21718h-6.16161l-.1789-2.23233a7.834,7.834,0,0,1-2.70161,1.98732,8.20541,8.20541,0,0,1-3.50407.78041,7.63151,7.63151,0,0,1-5.715-2.14289q-2.1001-2.14288-2.09881-6.3405Z"></path>
    <path d="M168.53883,44.27706h6.1616l.1789,2.27641a7.3411,7.3411,0,0,1,2.70032-2.00807,8.3817,8.3817,0,0,1,3.50536-.75967,7.70892,7.70892,0,0,1,5.7377,2.14289q2.11954,2.14288,2.12085,6.3405V65.21718h-6.43V53.16232a4.14207,4.14207,0,0,0-.87115-2.769,3.015,3.015,0,0,0-2.43327-1.02672,4.3475,4.3475,0,0,0-1.87454.37983,3.96807,3.96807,0,0,0-1.33914,1.00468,4.17624,4.17624,0,0,0-.80375,1.45063,5.68121,5.68121,0,0,0-.26834,1.76435V65.21718h-6.38458Z"></path>
    <path d="M195.19072,58.74315a8.21558,8.21558,0,0,0,2.70032,1.56212,9.2182,9.2182,0,0,0,3.237.62614,6.706,6.706,0,0,0,2.36716-.3578,1.35594,1.35594,0,0,0,.93726-1.38451,1.4092,1.4092,0,0,0-.20093-.73633,1.8787,1.8787,0,0,0-.73633-.62485,9.43042,9.43042,0,0,0-1.496-.60281q-.9606-.31112-2.43327-.71429a16.09906,16.09906,0,0,1-2.38919-.82578,8.66514,8.66514,0,0,1-2.09881-1.273,5.88734,5.88734,0,0,1-1.47267-1.83046,5.72882,5.72882,0,0,1,.11149-5.15693,6.54336,6.54336,0,0,1,1.8525-2.05344,8.792,8.792,0,0,1,2.81311-1.33914,12.58227,12.58227,0,0,1,3.50536-.46928,16.3707,16.3707,0,0,1,4.68764.60281,13.28867,13.28867,0,0,1,3.7063,1.763L207.558,50.17031a13.94912,13.94912,0,0,0-2.34382-1.20561,7.83771,7.83771,0,0,0-2.97-.5354,4.14278,4.14278,0,0,0-2.14289.42391,1.29525,1.29525,0,0,0-.66892,1.13821q0,1.02866,1.38322,1.518,1.38451.492,3.75037,1.11616a9.87779,9.87779,0,0,1,4.66561,2.45661,5.86078,5.86078,0,0,1,1.45192,4.15224,5.52435,5.52435,0,0,1-.78171,2.99071A6.50481,6.50481,0,0,1,207.803,64.302a9.95575,9.95575,0,0,1-2.9907,1.22765,14.5664,14.5664,0,0,1-3.41591.40188,18.21316,18.21316,0,0,1-5.31379-.75838,9.5468,9.5468,0,0,1-4.0628-2.32178Z"></path>
    <path d="M232.91355,62.44945a11.00736,11.00736,0,0,1-3.41591,2.45531,11.414,11.414,0,0,1-5.02211,1.02672,12.424,12.424,0,0,1-4.62153-.82579,10.21745,10.21745,0,0,1-3.54944-2.32178,10.66432,10.66432,0,0,1-2.29974-3.54944,11.97357,11.97357,0,0,1-.82578-4.51,11.18289,11.18289,0,0,1,3.19293-7.90262,10.84173,10.84173,0,0,1,3.57148-2.38919,11.62027,11.62027,0,0,1,4.53208-.86986,12.07841,12.07841,0,0,1,4.956.93727,10.52122,10.52122,0,0,1,3.5274,2.50068L229.07373,51.197a7.59748,7.59748,0,0,0-1.741-1.42859,5.20414,5.20414,0,0,0-2.72365-.62484,4.485,4.485,0,0,0-2.07548.46928,5.06839,5.06839,0,0,0-1.56341,1.22765,5.26923,5.26923,0,0,0-.98264,1.763,6.67812,6.67812,0,0,0-.33446,2.12085,6.38386,6.38386,0,0,0,.33446,2.0314,5.49735,5.49735,0,0,0,.98264,1.78639,5.20622,5.20622,0,0,0,1.56341,1.273,4.30912,4.30912,0,0,0,2.07548.49,5.44976,5.44976,0,0,0,2.769-.64689,7.10955,7.10955,0,0,0,1.78509-1.40655Z"></path>
    <path d="M248.20024,63.25319a6.99577,6.99577,0,0,1-2.70032,1.91991,9.69271,9.69271,0,0,1-5.98271.3565,6.88183,6.88183,0,0,1-2.2777-1.04875,5.8176,5.8176,0,0,1-1.741-1.98732,6.38228,6.38228,0,0,1-.69225-3.12553,7.00855,7.00855,0,0,1,.73633-3.25905,6.83888,6.83888,0,0,1,2.0314-2.3892,9.26459,9.26459,0,0,1,3.05941-1.45063,14.20227,14.20227,0,0,1,3.81649-.49132q1.11616,0,2.25567.04538a9.24415,9.24415,0,0,1,1.4947.13352v-.44724a2.60306,2.60306,0,0,0-.33446-1.36118,2.97294,2.97294,0,0,0-.89319-.93727,3.63053,3.63053,0,0,0-1.27173-.5367,7.13022,7.13022,0,0,0-1.518-.15556,10.08588,10.08588,0,0,0-3.54944.5354,11.55267,11.55267,0,0,0-2.38919,1.20561L235.61,46.33049a16.80532,16.80532,0,0,1,1.518-.98134,11.46488,11.46488,0,0,1,2.00936-.8932,16.36576,16.36576,0,0,1,2.61217-.64818,20.14137,20.14137,0,0,1,3.32646-.245q4.77581,0,7.05351,2.5668a10.02154,10.02154,0,0,1,2.2777,6.89793V65.21718h-6.02808Zm0-7.27777q-.22362-.04473-.84782-.11149a13.3604,13.3604,0,0,0-1.42859-.06741,7.04634,7.04634,0,0,0-3.79574.75837,2.4453,2.4453,0,0,0-1.11617,2.14419q0,2.58817,3.12553,2.58883a4.71567,4.71567,0,0,0,1.496-.245,4.13551,4.13551,0,0,0,1.29506-.69226,3.54762,3.54762,0,0,0,.91523-1.11617,3.28482,3.28482,0,0,0,.3565-1.56341Z"></path>
    <path d="M258.94319,44.27706h6.16161c.05963.38761.105.76615.13482,1.1382.02852.37335.05834.75189.08945,1.13821a6.65084,6.65084,0,0,1,2.63421-1.986,8.37458,8.37458,0,0,1,3.3485-.69226,8.68381,8.68381,0,0,1,4.01742.8932,8.56394,8.56394,0,0,1,2.90256,2.38789,10.41447,10.41447,0,0,1,1.741,3.438,13.91044,13.91044,0,0,1,.58077,3.99669,12.01448,12.01448,0,0,1-.98264,5.04544,10.43976,10.43976,0,0,1-2.54476,3.52739,10.261,10.261,0,0,1-3.5274,2.05344,11.997,11.997,0,0,1-3.8839.67022,9.7019,9.7019,0,0,1-2.50068-.26835q-.982-.26833-1.78509-.53539v9.06286h-6.38588Zm6.38588,15.40336a6.60988,6.60988,0,0,0,3.705.84912,4.65951,4.65951,0,0,0,3.72834-1.58545,6.25394,6.25394,0,0,0,1.36247-4.21966,8.27984,8.27984,0,0,0-.24631-2.00936,5.201,5.201,0,0,0-.75837-1.719,3.82739,3.82739,0,0,0-1.34044-1.18228,4.22083,4.22083,0,0,0-2.03139-.44725,4.29971,4.29971,0,0,0-1.89788.40187,4.11391,4.11391,0,0,0-1.38322,1.07209,4.72033,4.72033,0,0,0-.84911,1.518,5.34913,5.34913,0,0,0-.28909,1.741Z"></path>
    <path d="M303.95805,62.93947q-.3578.22557-1.07209.73763a9.96368,9.96368,0,0,1-1.8525,1.00468,16.88958,16.88958,0,0,1-2.70162.86986,15.212,15.212,0,0,1-3.57147.37984,13.3434,13.3434,0,0,1-4.82247-.82579A10.47778,10.47778,0,0,1,286.299,62.806a9.69627,9.69627,0,0,1-2.27641-3.54944,12.89281,12.89281,0,0,1-.7817-4.57615,12.312,12.312,0,0,1,.73633-4.21966,10.54845,10.54845,0,0,1,2.12085-3.54944,10.337,10.337,0,0,1,3.39387-2.43327,10.88044,10.88044,0,0,1,4.55412-.91523,10.48716,10.48716,0,0,1,4.46467.89319,9.18267,9.18267,0,0,1,3.237,2.47735,10.742,10.742,0,0,1,1.98733,3.79575,16.6597,16.6597,0,0,1,.66892,4.8445v1.07079H289.49195a3.99442,3.99442,0,0,0,1.496,2.97,5.8539,5.8539,0,0,0,3.99539,1.27173,9.57884,9.57884,0,0,0,4.0628-.73634,13.92033,13.92033,0,0,0,2.2777-1.273Zm-5.62621-10.402a3.7755,3.7755,0,0,0-.267-1.36248,3.99927,3.99927,0,0,0-.80374-1.27173,4.28545,4.28545,0,0,0-1.33914-.9606,4.4726,4.4726,0,0,0-1.91992-.37983,4.77155,4.77155,0,0,0-1.96528.37983,4.42574,4.42574,0,0,0-1.40655.9606,4.12088,4.12088,0,0,0-.84782,1.27173,3.48756,3.48756,0,0,0-.29039,1.36248Z"></path>
  </g>
  <g id="BMI_Block">
    <rect width="100" height="100" fill="#009fe3"></rect>
    <g fill="white">
      <path d="M62.176,34.911,57.84,52.77h-.084L53.417,34.911H40.11v20.28a7.315,7.315,0,0,0-5.239-6.716c2.255-1.235,3.742-2.891,3.742-5.953,0-3.1-1.7-7.611-9.693-7.611H12.3V65.27H29.515c5.121,0,10.16-2.878,10.6-8.443V65.27h8.844V45.8h.084L54.31,65.27h6.973L66.555,45.8h.085V65.27h8.844V34.911ZM21.65,42.139h4.933c1.913,0,3.188.554,3.188,2.084,0,1.956-1.233,2.507-3.188,2.507H21.65Zm5.485,15.9H21.65V52.386h5.867c2.211,0,3.272.978,3.272,2.763,0,2.339-1.7,2.891-3.655,2.891"></path>
      <rect x="78.358" y="34.914" width="9.354" height="30.356"></rect>
    </g>
  </g>
</svg>
