<?xml version="1.0" encoding="utf-8"?>
<!-- Generator: Adobe Illustrator 26.3.1, SVG Export Plug-In . SVG Version: 6.00 Build 0)  -->
<svg version="1.1" id="Vedag" xmlns="http://www.w3.org/2000/svg" xmlns:xlink="http://www.w3.org/1999/xlink" x="0px" y="0px"
	 viewBox="0 0 175 100" style="enable-background:new 0 0 175 100;" xml:space="preserve">
<style type="text/css">
	.st0{fill:#00377A;}
</style>
<g>
	<path class="st0" d="M12,34.9h10L27.3,55l5.5-20.1h10L32.3,65.1h-10L12,34.9z"/>
	<path class="st0" d="M45.1,65.1V34.9h24.7V42H55v4.3h12.5v7.1H55v4.7h15.3v7.1H45.1z"/>
	<path class="st0" d="M73.1,65.1V34.9h13.3c9.7,0,15.8,4.5,15.8,14.5c0,11.4-6.3,15.8-16,15.8L73.1,65.1z M83,58.1h2.1
		c4.6,0,7.1-2.4,7.1-8.2c0-6.3-2.1-8-7.4-8H83V58.1z"/>
	<path class="st0" d="M101.2,65.1l10.8-30.3h10.1L133,65.1h-9.9l-1.2-4h-9.9l-1.1,4L101.2,65.1z M117,44l-3.1,10.8h6.3L117,44z"/>
	<path class="st0" d="M163,65.2h-6.4l-0.4-3c-1.6,1.9-4.4,3.7-9.1,3.7c-7.7,0-14.7-5-14.7-15.5c0-9.7,6.1-16.3,15.8-16.3
		c7.3,0,13.1,3.8,14.3,11.2h-9.4c-0.5-2.3-2.7-4-5.1-3.8c-3.9,0-5.8,3.5-5.8,8.9c0,4.3,1.3,8.2,6.3,8.2c2,0,4.6-1.4,5.1-3.5h-4.4
		v-6.6H163L163,65.2z"/>
</g>
</svg>
