<?xml version="1.0" encoding="utf-8"?>
<!-- Generator: Adobe Illustrator 26.3.1, SVG Export Plug-In . SVG Version: 6.00 Build 0)  -->
<svg version="1.1" id="Layer_1" xmlns="http://www.w3.org/2000/svg" xmlns:xlink="http://www.w3.org/1999/xlink" x="0px" y="0px"
	 viewBox="0 0 178.7 100" style="enable-background:new 0 0 178.7 100;" xml:space="preserve">
<g>
	<path fill="#00519E" d="M12,34.9h10L27.3,55l5.5-20.1h10L32.3,65.1h-10L12,34.9z"/>
	<path fill="#00519E" d="M44.6,65.1V34.9h9.9v30.3H44.6z"/>
	<path fill="#00519E" d="M57.5,65.1V34.9h9.9v23.2H81v7.1H57.5z"/>
	<path fill="#00519E" d="M83.3,65.1V34.9h9.9v23.2h13.6v7.1H83.3z"/>
	<path fill="#00519E" d="M108.1,65.1L119,34.9h10.1l10.8,30.3H130l-1.2-4H119l-1.1,4H108.1z M123.9,44l-3.1,10.8h6.3L123.9,44z"/>
	<path fill="#00519E" d="M156.4,43.7c-0.1-0.9-0.6-1.7-1.4-2.1c-0.8-0.4-1.7-0.6-2.6-0.5c-2.2,0-3.2,0.6-3.2,1.7
		c0,4.5,17.4,1.7,17.4,12.7c0,7-5.8,10.4-14.2,10.4c-8,0-13.2-4.7-13.4-10.1h9.5c0.2,1,0.8,1.9,1.6,2.4c0.9,0.5,1.8,0.8,2.8,0.8
		c2.5,0,4.1-0.8,4.1-2.2c0-4.6-17.4-1.4-17.4-13c0-6.4,5.5-9.7,13.1-9.7c8.4,0,12.2,4.3,12.9,9.6H156.4z"/>
</g>
</svg>
