<?xml version="1.0" encoding="utf-8"?>
<!-- Generator: Adobe Illustrator 26.3.1, SVG Export Plug-In . SVG Version: 6.00 Build 0)  -->
<svg version="1.1" id="Layer_1" xmlns="http://www.w3.org/2000/svg" xmlns:xlink="http://www.w3.org/1999/xlink" x="0px" y="0px"
	 viewBox="0 0 218.5 100" style="enable-background:new 0 0 218.5 100;" xml:space="preserve">
<style type="text/css">
	.st0{fill:#E2001A;}
</style>
<g id="Wierer">
	<path class="st0" d="M137,54.3c-0.9-1-2-1.7-3.2-2.3c4.6-2.1,6.3-4.4,6.3-8.3c0.1-2.7-1.1-5.3-3.2-7c-2.2-1.7-5-2.5-7.7-2.3h-16.3
		l0,31.5h8.5v-13h1.9c1.1,0,2.2,0.1,3.3,0.6c1.1,0.6,1.9,1.4,2.6,2.4c1,1.5,1.8,3.1,2.6,4.7l1.2,2.7c0.6,1.6,2.2,2.7,3.9,2.7h6.2
		l-3-6.5C138.7,56.5,137.8,55,137,54.3z M129,47.9c-1.5,0.5-3.1,0.8-4.8,0.7h-3V39h2.9c1.3,0,2.5,0.1,3.8,0.4
		c2.1,0.4,3.5,2.3,3.4,4.4C131.3,46.4,130.2,47.3,129,47.9L129,47.9z"/>
	<path class="st0" d="M200.5,54.3c-0.9-1-2-1.7-3.2-2.3c4.6-2.1,6.3-4.4,6.3-8.3c0.1-2.7-1.1-5.3-3.2-7c-2.2-1.7-5-2.5-7.7-2.3
		h-16.3l0,31.5h8.5v-13h1.9c1.1,0,2.2,0.1,3.3,0.6c1.1,0.6,1.9,1.4,2.6,2.4c1,1.5,1.8,3.1,2.6,4.7l1.2,2.7c0.6,1.6,2.2,2.7,3.9,2.7
		h6.2l-3-6.5C202.2,56.5,201.3,55,200.5,54.3z M192.6,47.9c-1.5,0.5-3.1,0.8-4.8,0.7h-3V39h2.9c1.3,0,2.5,0.1,3.8,0.4
		c2.1,0.4,3.5,2.3,3.4,4.4C194.9,46.4,193.8,47.3,192.6,47.9L192.6,47.9z"/>
	<path class="st0" d="M63.3,34.3h-5.6l-7.6,19.5l-8.2-19.5h-6.1l-8.4,19.6l-6.8-19.6l-8.6,0l12.8,31.6h4.9l9.2-20.3
		c5,11.3,8.3,18.8,9,20.3h4.9c8.1-19,11.9-28,12.1-28.5c0.2-0.4,0.3-0.9,0.4-1.3C65.4,34.9,65,34.3,63.3,34.3z"/>
	<path class="st0" d="M75.4,34.3l-5.7,0l0,31.6l8.5,0l0-28c0.2-1-0.1-2.1-0.7-2.9C76.9,34.5,76.1,34.2,75.4,34.3z"/>
	<path class="st0" d="M92.2,52.2h13.9V47H92.2v-7.6l14.6,0v-2.6c-0.1-1.9-0.7-2.5-2.6-2.5l-20.4,0l0,31.6h23.4v-5.2h-15V52.2z"/>
	<path class="st0" d="M155.8,52.2h13.9V47h-13.9v-7.6l14.6,0v-2.6c-0.1-1.9-0.7-2.5-2.6-2.5l-20.4,0l0,31.6h23.4v-5.2h-15V52.2z"/>
</g>
</svg>
