<svg xmlns="http://www.w3.org/2000/svg" viewBox="0 0 320 100">
  <g id="Wierer" fill="#e2001a">
    <path d="M239.37744,54.25006a10.25408,10.25408,0,0,0-3.24031-2.263c4.60465-2.11211,6.297-4.3882,6.30123-8.34482A8.54761,8.54761,0,0,0,239.252,36.6266a11.83037,11.83037,0,0,0-7.71713-2.31915H215.24158l.002,31.54571h8.45962V52.887h1.89132a8.078,8.078,0,0,1,3.28142.56282,7.15443,7.15443,0,0,1,2.60168,2.38883,31.25872,31.25872,0,0,1,2.55634,4.691l1.18592,2.68811a4.12346,4.12346,0,0,0,3.94554,2.65523h6.21383l-2.96473-6.47656C241.06975,56.47368,240.19085,55.03778,239.37744,54.25006Zm-7.95254-6.344a12.11033,12.11033,0,0,1-4.76718.69886h-2.95453V39.038h2.90531a13.67918,13.67918,0,0,1,3.7672.4348,4.20977,4.20977,0,0,1,3.36835,4.43017C233.74405,46.43028,232.64092,47.32632,231.4249,47.9061Z"></path>
    <path d="M302.92042,54.25074a10.25424,10.25424,0,0,0-3.24032-2.263c4.60466-2.11211,6.297-4.3882,6.30124-8.34482a8.54761,8.54761,0,0,0-3.18633-7.01567,11.83037,11.83037,0,0,0-7.71713-2.31915H278.78455l.002,31.5457h8.45963V52.88768h1.89132a8.078,8.078,0,0,1,3.28142.56282,7.15451,7.15451,0,0,1,2.60168,2.38883,31.25888,31.25888,0,0,1,2.55633,4.691l1.18593,2.68811a4.12346,4.12346,0,0,0,3.94554,2.65523h6.21383l-2.96473-6.47656C304.61273,56.47436,303.73383,55.03846,302.92042,54.25074Zm-7.95254-6.344a12.11033,12.11033,0,0,1-4.76718.69886h-2.95453V39.03871h2.90531a13.67918,13.67918,0,0,1,3.7672.4348,4.20977,4.20977,0,0,1,3.36835,4.43017C297.287,46.431,296.1839,47.327,294.96788,47.90678Z"></path>
    <path d="M165.727,34.29774h-5.57051l-7.633,19.53067-8.19681-19.53067h-6.144l-8.38817,19.59005L122.96,34.28328l-8.55822.01446,12.76505,31.57517H132.111l9.16539-20.29914c4.987,11.28382,8.31731,18.79693,9.02083,20.29914h4.90074c8.08592-18.98686,11.94052-27.95754,12.14342-28.49369a4.8208,4.8208,0,0,0,.39032-1.33225C167.802,34.88036,167.45062,34.34161,165.727,34.29774Z"></path>
    <path d="M177.78434,34.28658l-5.724-.00385-.00384,31.58791,8.49363.00164.00093-27.98934a3.7325,3.7325,0,0,0-.728-2.89625A2.45642,2.45642,0,0,0,177.78434,34.28658Z"></path>
    <path d="M194.63731,52.20145H208.5439V46.98824H194.63731V39.35832l14.59406-.00983V36.79441c-.08987-1.881-.71231-2.5149-2.61712-2.51112l-20.43251-.00671-.00295,31.594h23.42372V60.6427h-14.9652Z"></path>
    <path d="M258.17665,52.20118h13.9066V46.988h-13.9066V39.35805l14.59406-.00982V36.79414c-.08986-1.881-.7123-2.51489-2.61711-2.51112l-20.43252-.0067-.00294,31.594h23.42372V60.64244H258.17665Z"></path>
  </g>
  <g id="BMI_Block">
    <rect width="100" height="100" fill="#009fe3"></rect>
    <g fill="white">
      <path d="M62.176,34.911,57.84,52.77h-.084L53.417,34.911H40.11v20.28a7.315,7.315,0,0,0-5.239-6.716c2.255-1.235,3.742-2.891,3.742-5.953,0-3.1-1.7-7.611-9.693-7.611H12.3V65.27H29.515c5.121,0,10.16-2.878,10.6-8.443V65.27h8.844V45.8h.084L54.31,65.27h6.973L66.555,45.8h.085V65.27h8.844V34.911ZM21.65,42.139h4.933c1.913,0,3.188.554,3.188,2.084,0,1.956-1.233,2.507-3.188,2.507H21.65Zm5.485,15.9H21.65V52.386h5.867c2.211,0,3.272.978,3.272,2.763,0,2.339-1.7,2.891-3.655,2.891"></path>
      <rect x="78.358" y="34.914" width="9.354" height="30.356"></rect>
    </g>
  </g>
</svg>
