<?xml version="1.0" encoding="utf-8"?>
<!-- Generator: Adobe Illustrator 26.3.1, SVG Export Plug-In . SVG Version: 6.00 Build 0)  -->
<svg version="1.1" id="Layer_1" xmlns="http://www.w3.org/2000/svg" xmlns:xlink="http://www.w3.org/1999/xlink" x="0px" y="0px"
	 viewBox="0 0 200.7 100" style="enable-background:new 0 0 200.7 100;" xml:space="preserve">
<g>
	<path fill="#32A648" d="M41.2,53.7L41.2,53.7l3.6-19.2h9.8l-7.7,31.1h-10l-3.6-18h-0.1l-3.5,18h-10L12,34.5h9.8l3.5,19.2h0.1l3.7-19.2
		h8.4L41.2,53.7z"/>
	<path fill="#32A648" d="M87.3,49.8c0,10.6-7.1,16.5-16.3,16.5c-9.7,0-16.3-6-16.3-16.6c0-9.7,6.6-16.1,16.3-16.1
		C82.1,33.6,87.3,41.6,87.3,49.8z M64.9,49.8c0,4,1.2,8.9,6.1,8.9c4.4,0,6.1-3.8,6.1-8.9c0-4.2-1.7-8.7-6.2-8.6
		C66.3,41.2,64.9,45.9,64.9,49.8L64.9,49.8z"/>
	<path fill="#32A648" d="M90.4,65.5V34.5h10.2v23.8h14v7.2H90.4z"/>
	<path fill="#32A648" d="M117.1,65.5V34.5h24.2v7.2h-14v5.7h11.1v7.2h-11.1v10.9H117.1z"/>
	<path fill="#32A648" d="M144.1,65.5V34.5h10.2v31.1H144.1z"/>
	<path fill="#32A648" d="M179.3,51.4l-0.4-7.1v-9.9h9.7v31.1h-9.5l-11.1-16.9l0.4,7.1v9.8h-9.7V34.5h9.5L179.3,51.4z"/>
</g>
</svg>
