<svg xmlns="http://www.w3.org/2000/svg" viewBox="0 0 320 100">
  <g fill="#32a648">
    <path d="M143.66489,53.66278h.08606l3.49392-19.19355h9.83385l-7.72072,31.055H139.35148l-3.58-18.02981h-.0866l-3.53668,18.02981H122.14116l-7.72072-31.055h9.8344l3.49391,19.19355h.08607l3.70934-19.19355H139.955Z"></path>
    <path d="M189.7018,49.82407c0,10.56782-7.1172,16.51966-16.30423,16.51966-9.74779,0-16.26093-6.03845-16.26093-16.60626,0-9.74725,6.5992-16.08881,16.26093-16.08881C184.48284,33.64866,189.7018,41.62919,189.7018,49.82407Zm-22.386,0c0,3.96861,1.20758,8.92884,6.08175,8.92884,4.39946,0,6.125-3.79649,6.125-8.92884,0-4.22734-1.72558-8.71342-6.21111-8.58351C168.69607,41.24056,167.31582,45.89876,167.31582,49.82407Z"></path>
    <path d="M192.77515,65.52424v-31.055h10.17918V58.27767h13.97513v7.24657Z"></path>
    <path d="M219.56979,65.52424v-31.055h24.15432v7.24548H229.749v5.6509h11.128v7.24656H229.749V65.52424Z"></path>
    <path d="M246.53656,65.52424v-31.055h10.17918v31.055Z"></path>
    <path d="M281.73772,51.41974l-.38809-7.07336V34.46923h9.74778v31.055h-9.53236L270.48032,48.616l.38809,7.07444v9.83385h-9.74833v-31.055h9.53236Z"></path>
  </g>
  <g>
    <rect width="100" height="100" fill="#009fe3"></rect>
    <g fill="white">
      <path d="M62.17174,34.82082,57.83518,52.6792h-.08425L53.41216,34.82082H40.1054v20.2794a7.31382,7.31382,0,0,0-5.2389-6.71546c2.25474-1.23489,3.74238-2.891,3.74238-5.95279,0-3.10388-1.70048-7.61115-9.693-7.61115H12.29244V65.179H29.51009c5.1214,0,10.16076-2.87773,10.59531-8.44254V65.179h8.84383V45.70656h.08425L54.30563,65.179h6.97264l5.27215-19.47239h.08425V65.179H75.4785V34.82082ZM21.644,42.04842h4.933c1.91331,0,3.18812.55427,3.18812,2.084,0,1.95544-1.23268,2.50748-3.18812,2.50748H21.644Zm5.485,15.90072H21.644V52.29565h5.86854c2.21041,0,3.27238.97772,3.27238,2.76245,0,2.339-1.70048,2.891-3.65593,2.891"></path>
      <rect x="78.3538" y="34.82326" width="9.35375" height="30.35591"></rect>
    </g>
  </g>
</svg>
