<?xml version="1.0" encoding="utf-8"?>
<!-- Generator: Adobe Illustrator 26.3.1, SVG Export Plug-In . SVG Version: 6.00 Build 0)  -->
<svg version="1.1" id="Layer_1" xmlns="http://www.w3.org/2000/svg" xmlns:xlink="http://www.w3.org/1999/xlink" x="0px" y="0px"
	 viewBox="0 0 190 100" style="enable-background:new 0 0 190 100;" xml:space="preserve">
<style type="text/css">
	.st0{fill:#E2001A;}
</style>
<g id="Zanda">
	<path class="st0" d="M12,65.6l19-26.7H14v-4.7h27.2L23.6,60.4h18v5.2H12z"/>
	<path class="st0" d="M42.9,65.6L56,34.2h6.7l13.6,31.4h-7.2l-3-7.9H52.7l-3,7.9H42.9z M55.1,53.3h9.2l-4.9-12.7L55.1,53.3z"/>
	<path class="st0" d="M79,65.6V34.2h6.1l17.5,21.2V34.2h6.5v31.4h-5.4L85.4,44.1v21.5H79z"/>
	<path class="st0" d="M114.5,65.6V34.2h12.4c3.1-0.1,6.2,0.5,9.1,1.7c2.6,1,4.7,2.8,6.2,5.2c1.6,2.7,2.4,5.8,2.3,9
		c0.1,3-0.7,6-2.3,8.6c-1.5,2.3-3.7,4.1-6.3,5.2c-2.9,1.2-6,1.8-9.1,1.7L114.5,65.6z M120.7,60.3h5.5c3.8,0,6.6-0.9,8.6-2.7
		c2-1.8,3-4.4,3-7.8c0.2-2.9-0.8-5.8-2.8-8.1c-1.8-2-4.8-3-8.9-3h-5.5L120.7,60.3z"/>
	<path class="st0" d="M144.8,65.6L158,34.2h6.8L178,65.6h-7.3l-3-7.9h-12.9l-3,7.9H144.8z M156.6,52.8h9.2l-4.6-12.2L156.6,52.8z"/>
</g>
</svg>
