<svg xmlns="http://www.w3.org/2000/svg" xmlns:xlink="http://www.w3.org/1999/xlink" viewBox="0 0 350 300">
  <defs>
    <linearGradient id="linear-gradient" x1="236.1952" y1="210.75448" x2="225.00412" y2="191.37097" gradientUnits="userSpaceOnUse">
      <stop offset="0.4707" stop-color="#b4c5d3" stop-opacity="0"/>
      <stop offset="1" stop-color="#b4c5d3" stop-opacity="0.35"/>
    </linearGradient>
    <linearGradient id="linear-gradient-2" x1="62.77064" y1="229.96326" x2="91.32838" y2="180.4998" gradientUnits="userSpaceOnUse">
      <stop offset="0.31641" stop-color="#fff" stop-opacity="0"/>
      <stop offset="1" stop-color="#fff"/>
    </linearGradient>
    <linearGradient id="linear-gradient-3" x1="328.74268" y1="157.56299" x2="328.74268" y2="131.84326" gradientUnits="userSpaceOnUse">
      <stop offset="0.11719" stop-opacity="0"/>
      <stop offset="1" stop-opacity="0.5"/>
    </linearGradient>
    <linearGradient id="linear-gradient-4" x1="21.70752" y1="206.27393" x2="21.70752" y2="141.38184" gradientUnits="userSpaceOnUse">
      <stop offset="0.11719" stop-opacity="0"/>
      <stop offset="0.5" stop-opacity="0.5"/>
    </linearGradient>
    <linearGradient id="linear-gradient-5" x1="133.2334" y1="270.56494" x2="133.2334" y2="244.84521" xlink:href="#linear-gradient-3"/>
  </defs>
  <g id="box">
    <rect width="350" height="300" fill="none"/>
  </g>
  <g id="roof023">
    <g id="fill">
      <polygon points="132.845 244.704 132.845 270.424 328.354 157.422 328.354 131.702 132.845 244.704" fill="url(#linear-gradient)"/>
      <polygon points="132.845 244.482 132.845 270.27 21.319 206.031 21.319 140.08 132.845 244.482" fill="url(#linear-gradient-2)"/>
      <polygon points="340 125.189 133.233 244.845 10 129.484 217.08 10 340 125.189" fill="#2e99d2"/>
      <g id="window">
        <polygon points="69.823 203.343 69.823 214.593 60.47 209.205 60.47 197.955 69.823 203.343" fill="#6d9faf"/>
        <polygon points="81.281 209.958 81.281 221.208 71.927 215.82 71.927 204.57 81.281 209.958" fill="#6d9faf"/>
        <polygon points="69.823 216.817 69.823 228.067 60.47 222.679 60.47 211.429 69.823 216.817" fill="#6d9faf"/>
        <polygon points="81.281 223.432 81.281 234.682 71.927 229.294 71.927 218.044 81.281 223.432" fill="#6d9faf"/>
      </g>
    </g>
    <g id="lines">
      <rect x="328.24268" y="131.84326" width="1" height="25.71973" fill="url(#linear-gradient-3)"/>
      <rect x="21.20752" y="141.38184" width="1" height="64.89209" fill="url(#linear-gradient-4)"/>
      <rect x="132.7334" y="244.84521" width="1" height="25.71973" fill="url(#linear-gradient-5)"/>
      <path d="M236.40731,232.23364" fill="none" stroke="#00232d" stroke-linejoin="round"/>
      <polygon points="133.233 244.845 10 129.484 217.08 10 340 125.19 133.233 244.845" fill="none" stroke="#002839" stroke-linejoin="round" stroke-width="2"/>
    </g>
  </g>
</svg>
