{"asset":{"version":"2.0","generator":"babylon.js glTF exporter for 3dsmax 2020 v20200917.1"},"scene":0,"scenes":[{"nodes":[0,1,2,3,4,5,6,7,8,9,10,11,12,13,14,15,16,17,18,19,20,21,22,23,24,25,26,27,28,29,30,31,32]}],"nodes":[{"mesh":0,"translation":[-0.3157611,2.41160154,4.88660145],"name":"Fasade_2"},{"mesh":1,"translation":[-0.341013163,3.77019763,0.359579921],"name":"Fasade"},{"mesh":2,"translation":[-0.3157605,6.149265,0.359618247],"name":"301    011"},{"mesh":3,"translation":[-0.3157611,0.24061206,0.437684625],"name":"Plane002"},{"translation":[-17.0607262,0.0,0.0],"name":"Display 012"},{"translation":[-17.0607262,0.0,0.0],"name":"Event 012"},{"translation":[-17.0607262,0.0,0.0],"name":"Display 011"},{"translation":[-17.0607262,0.0,0.0],"name":"Event 011"},{"translation":[-17.0607262,0.0,0.0],"name":"Display 010"},{"translation":[-17.0607262,0.0,0.0],"name":"Event 010"},{"translation":[-17.0607262,0.0,0.0],"name":"Display 009"},{"translation":[-17.0607262,0.0,0.0],"name":"Event 009"},{"translation":[-17.0607262,0.0,0.0],"name":"Display 008"},{"translation":[-17.0607262,0.0,0.0],"name":"Event 008"},{"translation":[-17.0607262,0.0,0.0],"name":"Display 007"},{"translation":[-17.0607262,0.0,0.0],"name":"Event 007"},{"translation":[-17.0607262,0.0,0.0],"name":"Display 006"},{"translation":[-17.0607262,0.0,0.0],"name":"Event 006"},{"translation":[-17.0607262,0.0,0.0],"name":"Display 005"},{"translation":[-17.0607262,0.0,0.0],"name":"Event 005"},{"translation":[-17.0607262,0.0,0.0],"name":"Display 004"},{"translation":[-17.0607262,0.0,0.0],"name":"Event 004"},{"translation":[-14.2155323,0.168059081,6.374673],"name":"mP World 003"},{"translation":[-14.2155323,0.168059081,6.374673],"name":"mP Shape 001"},{"translation":[-14.2155323,0.168059081,6.374673],"name":"Shape 001"},{"translation":[-17.0607262,0.0,0.0],"name":"Display 003"},{"translation":[-17.0607262,0.0,0.0],"name":"Event 003"},{"translation":[-17.0607262,0.0,0.0],"name":"Display 002"},{"translation":[-17.0607262,0.0,0.0],"name":"Event 002"},{"translation":[-17.0607262,0.0,0.0],"name":"Display 001"},{"translation":[-17.0607262,0.0,0.0],"name":"Event 001"},{"translation":[-17.0607262,0.0,0.0],"name":"Action Recovery"},{"name":"Default light"}],"meshes":[{"primitives":[{"attributes":{"POSITION":1,"NORMAL":2,"TEXCOORD_0":3},"indices":0,"material":0}],"name":"Fasade_2"},{"primitives":[{"attributes":{"POSITION":5,"NORMAL":6,"TEXCOORD_0":7},"indices":4,"material":0}],"name":"Fasade"},{"primitives":[{"attributes":{"POSITION":9,"NORMAL":10,"TEXCOORD_0":11},"indices":8,"material":1}],"name":"301    011"},{"primitives":[{"attributes":{"POSITION":13,"NORMAL":14,"TEXCOORD_0":15},"indices":12,"material":2}],"name":"Plane002"}],"accessors":[{"bufferView":0,"componentType":5123,"count":312,"type":"SCALAR","name":"accessorIndices"},{"bufferView":1,"componentType":5126,"count":312,"max":[2.47699738,2.22098923,5.00679E-05],"min":[-2.47699714,-2.2209897,-0.0446502343],"type":"VEC3","name":"accessorPositions"},{"bufferView":1,"byteOffset":3744,"componentType":5126,"count":312,"type":"VEC3","name":"accessorNormals"},{"bufferView":2,"componentType":5126,"count":312,"type":"VEC2","name":"accessorUVs"},{"bufferView":0,"byteOffset":624,"componentType":5123,"count":2544,"type":"SCALAR","name":"accessorIndices"},{"bufferView":1,"byteOffset":7488,"componentType":5126,"count":2544,"max":[7.571998,3.579585,4.449005],"min":[-7.57199669,-3.57958555,-4.449005],"type":"VEC3","name":"accessorPositions"},{"bufferView":1,"byteOffset":38016,"componentType":5126,"count":2544,"type":"VEC3","name":"accessorNormals"},{"bufferView":2,"byteOffset":2496,"componentType":5126,"count":2544,"type":"VEC2","name":"accessorUVs"},{"bufferView":0,"byteOffset":5712,"componentType":5123,"count":1206,"type":"SCALAR","name":"accessorIndices"},{"bufferView":1,"byteOffset":68544,"componentType":5126,"count":1206,"max":[7.594003,1.4291476,4.65372038],"min":[-7.594003,-1.42914712,-4.65372038],"type":"VEC3","name":"accessorPositions"},{"bufferView":1,"byteOffset":83016,"componentType":5126,"count":1206,"type":"VEC3","name":"accessorNormals"},{"bufferView":2,"byteOffset":22848,"componentType":5126,"count":1206,"type":"VEC2","name":"accessorUVs"},{"bufferView":0,"byteOffset":8124,"componentType":5123,"count":192,"type":"SCALAR","name":"accessorIndices"},{"bufferView":1,"byteOffset":97488,"componentType":5126,"count":192,"max":[7.52100039,2.812,4.39800262],"min":[-7.520999,0.0,-4.39800262],"type":"VEC3","name":"accessorPositions"},{"bufferView":1,"byteOffset":99792,"componentType":5126,"count":192,"type":"VEC3","name":"accessorNormals"},{"bufferView":2,"byteOffset":32496,"componentType":5126,"count":192,"type":"VEC2","name":"accessorUVs"}],"bufferViews":[{"buffer":0,"byteLength":8508,"name":"bufferViewScalar"},{"buffer":0,"byteOffset":8508,"byteLength":102096,"byteStride":12,"name":"bufferViewFloatVec3"},{"buffer":0,"byteOffset":110604,"byteLength":34032,"byteStride":8,"name":"bufferViewFloatVec2"}],"buffers":[{"uri":"webGL_test_01.bin","byteLength":144636}],"materials":[{"pbrMetallicRoughness":{"baseColorTexture":{"index":1},"metallicFactor":0.0,"roughnessFactor":0.450053632},"normalTexture":{"index":0},"name":"Material #30"},{"pbrMetallicRoughness":{"baseColorFactor":[0.0117647061,0.0117647061,0.0117647061,1.0],"metallicFactor":0.0,"roughnessFactor":0.450053632},"name":"Material #31"},{"pbrMetallicRoughness":{"baseColorTexture":{"index":2},"metallicFactor":0.0,"roughnessFactor":0.450053632},"name":"Material #29"}],"textures":[{"sampler":0,"source":0,"name":"BMI_walls_normal.jpg"},{"sampler":0,"source":1,"name":"BMI_walls_basecolor.jpg"},{"sampler":0,"source":2,"name":"cmppmax_v2_13_9_13_d.jpg"}],"images":[{"uri":"./BMI_walls_normal.jpg"},{"uri":"./BMI_walls_basecolor.jpg"},{"uri":"./cmppmax_v2_13_9_13_d.jpg"}],"samplers":[{"magFilter":9729,"minFilter":9987}]}