<svg xmlns="http://www.w3.org/2000/svg" viewBox="0 0 305 100">
  <rect id="whiteBox" x="100" width="205" height="100"></rect>
  <g id="AeroDek" fill="#70706f">
    <path d="M126.469,35.3h7.537L145.02,65h-7.447l-2.3-6.812h-10.61L122.361,65H115.23Zm7.176,17.676-3.656-11.218-3.746,11.221Z"></path>
    <path d="M167.273,62.724q-.361.224-1.084.735a10.05512,10.05512,0,0,1-1.872,1,17.412,17.412,0,0,1-2.731.869,15.61,15.61,0,0,1-3.612.378,13.63489,13.63489,0,0,1-4.874-.824,10.59989,10.59989,0,0,1-3.679-2.293,9.66594,9.66594,0,0,1-2.3-3.54,12.6902,12.6902,0,0,1-.79-4.564,12.135,12.135,0,0,1,.744-4.208,10.232,10.232,0,0,1,5.575-5.966,11.121,11.121,0,0,1,4.6-.912,10.72779,10.72779,0,0,1,4.514.889,9.29985,9.29985,0,0,1,3.272,2.472,10.65782,10.65782,0,0,1,2.009,3.785,16.38664,16.38664,0,0,1,.677,4.831v1.069H152.648a3.961,3.961,0,0,0,1.513,2.96,5.97,5.97,0,0,0,4.039,1.27,9.80814,9.80814,0,0,0,4.107-.735,14.21477,14.21477,0,0,0,2.3-1.269Zm-5.687-10.372a3.69993,3.69993,0,0,0-.271-1.358,3.982,3.982,0,0,0-.813-1.268,4.31584,4.31584,0,0,0-1.354-.958,4.57312,4.57312,0,0,0-1.941-.379,4.9,4.9,0,0,0-1.986.379,4.48592,4.48592,0,0,0-1.422.958,4.13623,4.13623,0,0,0-.858,1.268,3.47019,3.47019,0,0,0-.293,1.358Z"></path>
    <path d="M171.425,44.112h6.229l.225,2.628a9.6558,9.6558,0,0,1,2.234-2.049,6.356,6.356,0,0,1,3.679-.979,10.29164,10.29164,0,0,1,1.467.089,5.83118,5.83118,0,0,1,1.2.311l-1.039,5.656a7.85607,7.85607,0,0,0-2.346-.312,5.168,5.168,0,0,0-3.724,1.358,5.075,5.075,0,0,0-1.422,3.851V65h-6.5Z"></path>
    <path d="M187.313,54.532a11.27816,11.27816,0,0,1,.835-4.342,10.95707,10.95707,0,0,1,2.325-3.541,10.717,10.717,0,0,1,3.588-2.383,12.00009,12.00009,0,0,1,4.628-.868,11.84012,11.84012,0,0,1,4.6.868,10.75918,10.75918,0,0,1,3.564,2.383,10.91818,10.91818,0,0,1,2.324,3.539,11.7,11.7,0,0,1,0,8.683,10.92309,10.92309,0,0,1-2.324,3.54,11.04182,11.04182,0,0,1-3.564,2.4,11.577,11.577,0,0,1-4.6.891,11.736,11.736,0,0,1-4.628-.891,10.783,10.783,0,0,1-5.913-5.944A11.264,11.264,0,0,1,187.313,54.532Zm11.375,5.61a4.829,4.829,0,0,0,2.167-.468,4.75193,4.75193,0,0,0,1.6-1.268,5.40007,5.40007,0,0,0,.97-1.8,6.927,6.927,0,0,0,0-4.14,5.15249,5.15249,0,0,0-.97-1.782,4.894,4.894,0,0,0-1.6-1.246,4.829,4.829,0,0,0-2.167-.468,4.96886,4.96886,0,0,0-2.189.468,4.58213,4.58213,0,0,0-1.6,1.246,5.672,5.672,0,0,0-.97,1.782,6.5,6.5,0,0,0,0,4.14,5.96389,5.96389,0,0,0,.97,1.8,4.46392,4.46392,0,0,0,1.6,1.268A4.98282,4.98282,0,0,0,198.688,60.142Z"></path>
    <path d="M214.4,35.3h11.37a22.21809,22.21809,0,0,1,6.432.89,13.97591,13.97591,0,0,1,5.1,2.716,12.25306,12.25306,0,0,1,3.34,4.676,17.28808,17.28808,0,0,1,1.2,6.723,15.7,15.7,0,0,1-1.218,6.436,12.85927,12.85927,0,0,1-3.364,4.587,14.038,14.038,0,0,1-5.1,2.76,21.71531,21.71531,0,0,1-6.432.913H214.4Zm10.968,23.732q4.513,0,6.951-2.338a8.48707,8.48707,0,0,0,2.437-6.436,11.57913,11.57913,0,0,0-.563-3.717,7.42283,7.42283,0,0,0-1.716-2.85,7.69285,7.69285,0,0,0-2.911-1.825,12.22485,12.22485,0,0,0-4.2-.647h-4.153V59.027Z"></path>
    <path d="M265.987,62.724q-.362.224-1.083.735a10.06305,10.06305,0,0,1-1.873,1,17.41291,17.41291,0,0,1-2.731.869,15.60809,15.60809,0,0,1-3.611.378,13.63587,13.63587,0,0,1-4.875-.824,10.59989,10.59989,0,0,1-3.679-2.293,9.66594,9.66594,0,0,1-2.3-3.54,12.711,12.711,0,0,1-.79-4.564,12.113,12.113,0,0,1,.745-4.208,10.232,10.232,0,0,1,5.575-5.966,11.11986,11.11986,0,0,1,4.6-.912,10.74493,10.74493,0,0,1,4.515.889,9.31889,9.31889,0,0,1,3.272,2.472,10.68188,10.68188,0,0,1,2.009,3.785,16.38555,16.38555,0,0,1,.676,4.831v1.069H251.363a3.957,3.957,0,0,0,1.512,2.96,5.97106,5.97106,0,0,0,4.04,1.27,9.8082,9.8082,0,0,0,4.107-.735,14.2002,14.2002,0,0,0,2.3-1.269ZM260.3,52.352a3.69993,3.69993,0,0,0-.271-1.358,3.96527,3.96527,0,0,0-.813-1.268,4.316,4.316,0,0,0-1.354-.958,4.57288,4.57288,0,0,0-1.941-.379,4.89985,4.89985,0,0,0-1.985.379,4.47488,4.47488,0,0,0-1.422.958,4.0996,4.0996,0,0,0-.858,1.268,3.43388,3.43388,0,0,0-.293,1.358Z"></path>
    <path d="M270.139,35.3h6.5V50.7l6.455-6.591h7.356l-7.582,7.7L291.489,65h-7.538l-5.416-8.816-1.9,1.915V65h-6.5Z"></path>
  </g>
  <g id="BMI">
    <rect width="100" height="100" fill="#009fe3"></rect>
    <g fill="white">
      <path d="M62.176,34.911,57.84,52.77h-.084L53.417,34.911H40.11v20.28a7.315,7.315,0,0,0-5.239-6.716c2.255-1.235,3.742-2.891,3.742-5.953,0-3.1-1.7-7.611-9.693-7.611H12.3V65.27H29.515c5.121,0,10.16-2.878,10.6-8.443V65.27h8.844V45.8h.084L54.31,65.27h6.973L66.555,45.8h.085V65.27h8.844V34.911ZM21.65,42.139h4.933c1.913,0,3.188.554,3.188,2.084,0,1.956-1.233,2.507-3.188,2.507H21.65Zm5.485,15.9H21.65V52.386h5.867c2.211,0,3.272.978,3.272,2.763,0,2.339-1.7,2.891-3.655,2.891"></path>
      <rect x="78.358" y="34.914" width="9.354" height="30.356"></rect>
    </g>
  </g>
</svg>
