<svg xmlns="http://www.w3.org/2000/svg" viewBox="0 0 328.61201 100">
  <rect id="bg_block" data-name="bg block" x="100" width="228.61201" height="100" fill="#fff"/>
  <g id="Braas">
    <path d="M119.912,51.95h19.47c3.815,0,4.8.7,4.8,3.392v2.095c0,1.921-.7,3.11-4.2,3.11h-20.07Zm23.145-7.609c0,1.2-.37,2.79-3.554,2.79H119.912V39.417H139.7c.559,0,3.353.11,3.353,2.262Zm3.014,4.563a4.946,4.946,0,0,0,2.531-4.522v-2.5c0-2.721-1.11-7.285-8.535-7.285h-25.7V65.368h26.1c5.626,0,9.26-2.75,9.26-7.006V54.9c0-3.07-1.229-5.075-3.658-5.995" fill="#e2001a"/>
    <path d="M159.04,39.417h17.174c5.807,0,6.413,1.071,6.413,3.512v2.659c0,2.174-.891,3.433-5.45,3.433H159.04Zm18.582-4.823H153.493V65.366h5.547V53.841H177.5c3.4,0,5,.425,5,4.32v7.2h5.3V57.112c0-2.594-.942-4.349-2.923-5.389,1.777-.737,3.287-2.294,3.287-5.689v-2.38c0-5.874-1.682-9.06-10.55-9.06" fill="#e1001a"/>
    <path d="M219.453,54.379H202.672l8.389-14.192Zm-11.3-19.785L189.874,65.366h6.333l3.627-6.166H222.29l3.628,6.166h6.332L213.975,34.594Z" fill="#e2001a"/>
    <path d="M263.432,54.379H246.65l8.392-14.192ZM252.127,34.594,233.854,65.366h6.33l3.627-6.166H266.27l3.625,6.166h6.335L257.953,34.594Z" fill="#e2001a"/>
    <path d="M296.276,66.01c15.49,0,17.969-2.269,17.969-9.556,0-7.225-1.95-9.024-9.946-9.167L288.15,47.05c-3.347-.05-4.315-.891-4.315-3.745,0-3.633,1.03-4.411,11.956-4.411,10.836,0,11.857.831,11.857,4.707v.8h5.909V43.162c0-6.963-1.378-9.214-17.766-9.214-15.157,0-17.583,2.188-17.583,9.214,0,6.95,2.046,8.785,9.951,8.926l16.147.242c3.383.05,4.309.906,4.309,3.977,0,3.978-.988,4.757-12.342,4.757-10.841,0-12.34-.571-12.34-4.7V54.976h-5.908v1.817C278.025,63.758,279.441,66.01,296.276,66.01Z" fill="#e2001a"/>
  </g>
  <g id="BMI">
    <rect width="100" height="100" fill="#009fe3"/>
    <g>
      <path d="M62.172,34.821,57.835,52.679H57.75L53.411,34.821H40.1V55.1a7.312,7.312,0,0,0-5.238-6.715c2.254-1.235,3.742-2.892,3.742-5.953,0-3.1-1.7-7.611-9.693-7.611H12.292V65.179H29.51c5.122,0,10.161-2.878,10.595-8.443v8.443H48.95V45.707h.085l5.271,19.472h6.973L66.55,45.707h.084V65.179h8.844V34.821ZM21.644,42.05h4.933c1.913,0,3.188.554,3.188,2.084,0,1.956-1.233,2.507-3.188,2.507H21.644Zm5.485,15.9H21.644V52.3h5.869c2.21,0,3.272.978,3.272,2.762,0,2.339-1.7,2.891-3.656,2.891" fill="#fff"/>
      <rect x="78.354" y="34.824" width="9.354" height="30.356" fill="#fff"/>
    </g>
  </g>
</svg>
