<svg xmlns="http://www.w3.org/2000/svg" viewBox="0 0 269.57599 100">
  <rect id="bg_block" data-name="bg block" x="100" width="169.57599" height="100" fill="#fff"/>
  <g>
    <rect x="248.236" y="32.877" width="7.013" height="34.479" fill="#009fe3"></rect>
    <rect x="114.327" y="41.364" width="7.013" height="25.993" fill="#009fe3"></rect>
    <rect x="114.327" y="32.924" width="7.013" height="6.561" fill="#009fe3"></rect>
    <path d="M169.018,60.943a6.594,6.594,0,1,1,6.595-6.593h0a6.594,6.594,0,0,1-6.595,6.592m0-20.1A13.507,13.507,0,1,0,182.527,54.35a13.506,13.506,0,0,0-13.509-13.507" fill="#009fe3"></path>
    <path d="M145.1,55.423a6.585,6.585,0,1,1-.029-2.326h6.974a13.514,13.514,0,1,0,.014,2.326Z" fill="#009fe3"></path>
    <path d="M243.976,54.271a13.507,13.507,0,1,0-13.5,13.54,13.027,13.027,0,0,0,5.008-1.019V58.55a6.559,6.559,0,1,1,1.588-4.244c0,.019-.006.036-.006.054V66.027l.017-.008v1.338h6.9V54.272Z" fill="#009fe3"></path>
    <path d="M199.566,40.8a13.5,13.5,0,0,0-13.5,13.472h-.006V76.75h6.9V54.314h.014v-.009a6.668,6.668,0,1,1,1.589,4.25V66.8a13.046,13.046,0,0,0,5.006,1.017,13.508,13.508,0,0,0,0-27.016Z" fill="#009fe3"></path>
  </g>
  <g id="BMI">
    <rect width="100" height="100" fill="#009fe3"/>
    <g>
      <path d="M62.172,34.821,57.835,52.679H57.75L53.411,34.821H40.1V55.1a7.312,7.312,0,0,0-5.238-6.715c2.254-1.235,3.742-2.892,3.742-5.953,0-3.1-1.7-7.611-9.693-7.611H12.292V65.179H29.51c5.122,0,10.161-2.878,10.595-8.443v8.443H48.95V45.707h.085l5.271,19.472h6.973L66.55,45.707h.084V65.179h8.844V34.821ZM21.644,42.05h4.933c1.913,0,3.188.554,3.188,2.084,0,1.956-1.233,2.507-3.188,2.507H21.644Zm5.485,15.9H21.644V52.3h5.869c2.21,0,3.272.978,3.272,2.762,0,2.339-1.7,2.891-3.656,2.891" fill="#fff"/>
      <rect x="78.354" y="34.824" width="9.354" height="30.356" fill="#fff"/>
    </g>
  </g>
</svg>
