<svg xmlns="http://www.w3.org/2000/svg" viewBox="0 0 416 100">
  <g fill="#23336a">
    <path d="M9.71871,33.78751c0-6.288-1.85262-7.81492-8.71871-7.9948V23.99607l19.61727-2.87445v11.498h.21811c1.63506-3.14372,7.4117-11.498,18.20114-11.498,9.9181,0,13.18754,5.749,13.18754,12.66589V63.88022H41.32549V40.61433c0-7.09608,0-13.38407-7.30258-13.38407-7.19277,0-13.40564,8.35388-13.40564,14.7317V63.88022H9.71871Z"></path>
    <path d="M109.76874,62.44378A51.67772,51.67772,0,0,1,94.40135,64.8682c-16.67507,0-26.70229-8.35433-26.70229-23.35527,0-14.19272,8.283-20.39131,22.88739-20.39131,18.63749,0,20.16274,11.13893,20.16274,17.15767H79.68789c0,8.98266,4.46813,21.73905,19.83551,21.73905a33.88026,33.88026,0,0,0,10.24534-1.52851ZM99.85063,34.686c0-2.06635-.2181-10.51-9.69985-10.51-8.17392,0-10.46289,7.09664-10.46289,10.51005Z"></path>
    <path d="M160.8823,62.71247c-3.92334,1.16775-6.43042,2.15573-15.47636,2.15573-15.25825,0-24.30434-8.89273-24.30434-22.45724,0-12.30612,6.1032-21.28934,21.68882-21.28934,12.09781,0,20.05363,5.03085,20.05363,12.30668H149.98374c0-3.6831-1.09026-9.25235-7.84723-9.25235-7.411,0-9.04608,6.64705-9.04608,15.2712,0,13.29411,7.411,20.57119,17.32912,20.57119a46.01678,46.01678,0,0,0,10.46275-1.2588Z"></path>
    <path d="M171.0166,43.03988c0-15.0015,7.62913-21.91826,23.542-21.91826,15.80237,0,23.54116,8.98322,23.54116,21.91826,0,14.64286-7.41157,21.82832-23.54116,21.82832C177.01136,64.8682,171.0166,55.61583,171.0166,43.03988Zm23.542,18.77455c10.68031,0,11.55179-9.79133,11.55179-18.77455,0-8.26394-.98058-18.86393-11.55179-18.86393-10.79026,0-11.55316,10.95918-11.55316,18.86393C183.00543,50.4956,183.76833,61.81443,194.55859,61.81443Z"></path>
    <path d="M237.171,25.70289h-8.82852V22.11014H237.171V16.09132C237.171,8.90531,240.98523,1,254.06419,1c13.95056,0,18.74525,4.04231,19.944,10.6H261.80176c-.109-3.23364-1.52594-7.54566-6.97522-7.54566-6.32062,0-6.757,5.749-6.757,9.97121v8.0846h14.4959v3.59275h-14.4959V63.88022H237.171Z"></path>
    <path d="M283.37941,13.21676c0-6.3778-1.8533-7.90474-8.283-8.17445V3.24567L294.278,1V63.88022H283.37941Z"></path>
    <path d="M352.36812,62.44378a51.67647,51.67647,0,0,1-15.36724,2.42442c-16.67521,0-26.7023-8.35433-26.7023-23.35527,0-14.19272,8.28291-20.39131,22.88795-20.39131,18.63612,0,20.16219,11.13893,20.16219,17.15767h-31.062c0,8.98266,4.46868,21.73905,19.83606,21.73905a33.87846,33.87846,0,0,0,10.24533-1.52851Zm-9.918-27.75778c0-2.06635-.21825-10.51-9.7-10.51-8.17393,0-10.46344,7.09664-10.46344,10.51005Z"></path>
    <path d="M390.7566,41.33317l18.74648,22.54705H396.75137L383.019,46.36346m0,0L370.2673,30.823c-4.14159-5.12011-5.88563-6.46719-12.861-6.9162V22.11014h18.092l15.25826,19.223"></path>
    <path d="M389.33965,46.36346,375.60731,63.88022H362.8556l18.74648-22.547"></path>
    <path d="M384.32357,38.68334l13.73234-17.51676h12.75171L392.06114,43.71363"></path>
    <path d="M381.60208,44.6572,362.8556,22.11015h12.75171l13.73234,17.51676m0,0,12.75173,15.54045c4.14159,5.12012,5.88563,6.4672,12.861,6.9162v1.79666h-18.092l-15.25826-19.223"></path>
  </g>
  <g fill="#23336a">
    <path d="M229.57733,80.7411h5.23808a10.96477,10.96477,0,0,1,2.79791.30542,5.0004,5.0004,0,0,1,1.82715.853,3.20813,3.20813,0,0,1,.99643,1.28444,4.33023,4.33023,0,0,1,0,3.20116,3.20364,3.20364,0,0,1-.99643,1.28469,4.9962,4.9962,0,0,1-1.82715.853,10.95416,10.95416,0,0,1-2.79791.30517H230.804v5.96005h-1.22666Zm5.59581,7.13941a5.29512,5.29512,0,0,0,3.19415-.78977,3.06211,3.06211,0,0,0,0-4.6121,5.29336,5.29336,0,0,0-3.19415-.78977H230.804v6.19164Z"></path>
    <path d="M250.96413,94.78807q-.02568-.29484-.03822-.65293-.01329-.35759-.01284-.96869a4.69419,4.69419,0,0,1-1.02212.916,5.55577,5.55577,0,0,1-1.13708.57935,5.77759,5.77759,0,0,1-1.16245.29484,7.65033,7.65033,0,0,1-1.07318.08417,8.777,8.777,0,0,1-1.482-.1265,4.14337,4.14337,0,0,1-1.32879-.4526,2.711,2.711,0,0,1-.95821-.88452,2.51959,2.51959,0,0,1-.37057-1.42153,3.15226,3.15226,0,0,1,.28129-1.31644,2.736,2.736,0,0,1,.89431-1.074,4.74173,4.74173,0,0,1,1.58409-.71593,9.09533,9.09533,0,0,1,2.3509-.26334q1.07318,0,1.91612.06325.84342.06314,1.43091.14742V88.449a3.32441,3.32441,0,0,0-.22992-1.32678,1.943,1.943,0,0,0-.68977-.84244,2.93638,2.93638,0,0,0-1.12424-.44226,8.28859,8.28859,0,0,0-1.53333-.12625,6.28834,6.28834,0,0,0-2.31238.34751,7.14587,7.14587,0,0,0-1.31594.66326l-.613-.65268A6.478,6.478,0,0,1,244.589,85.269a7.33583,7.33583,0,0,1,2.64472-.42134,6.461,6.461,0,0,1,3.5262.80035,2.929,2.929,0,0,1,1.22636,2.65356v5.25445q0,.36893.02568.64234l.05106.58968Zm-.10212-4.949q-.53658-.10509-1.34162-.17917-.80443-.07334-2.05677-.07359a6.56836,6.56836,0,0,0-2.06962.26334,3.05885,3.05885,0,0,0-1.16276.65268,1.81,1.81,0,0,0-.5109.84244,3.33123,3.33123,0,0,0-.115.81093,1.6329,1.6329,0,0,0,.8558,1.54779,4.47687,4.47687,0,0,0,2.18487.47376,5.19461,5.19461,0,0,0,1.63515-.25251,4.78676,4.78676,0,0,0,1.34162-.6741,3.434,3.434,0,0,0,.90716-.9581,2.0466,2.0466,0,0,0,.332-1.08461Z"></path>
    <path d="M255.53782,87.14341V85.95346c0-.14742-.00458-.28753-.01284-.42109q-.01329-.2-.03852-.43193h1.07317q.02523.2321.03853.44226.01237.21093.02538.45285.01284.24229.01284.537v.695a6.06654,6.06654,0,0,1,.54943-.7056,4.03287,4.03287,0,0,1,.88147-.72651,5.59506,5.59506,0,0,1,1.252-.56851,5.39359,5.39359,0,0,1,1.66083-.23184,2.87474,2.87474,0,0,1,.971.14742l-.33234.90568a1.724,1.724,0,0,0-.42133-.08416q-.24352-.02079-.44731-.02117a3.9719,3.9719,0,0,0-1.66082.33692,4.20632,4.20632,0,0,0-1.27772.88452,3.93986,3.93986,0,0,0-.83042,1.2532,3.6687,3.6687,0,0,0-.29382,1.42153v4.949h-1.14962Z"></path>
    <path d="M265.14505,85.985h-2.3509v-.88452h2.3509v-3.2009H266.295v3.2009h3.88362V85.985H266.295v5.602a5.00512,5.00512,0,0,0,.15318,1.37945,1.646,1.646,0,0,0,.447.77918,1.46562,1.46562,0,0,0,.67723.34751,3.93068,3.93068,0,0,0,.84326.08417,2.53416,2.53416,0,0,0,2.01855-.84219l.71545.56851a3.62776,3.62776,0,0,1-1.16246.84244,4.16237,4.16237,0,0,1-1.69935.29484,5.64445,5.64445,0,0,1-1.27772-.13684,2.20621,2.20621,0,0,1-.99643-.50551,2.43979,2.43979,0,0,1-.63871-.98985,4.64721,4.64721,0,0,1-.22993-1.59012Z"></path>
    <path d="M283.261,95.04083a6.8186,6.8186,0,0,1-2.3509-.40018,6.36522,6.36522,0,0,1-1.92927-1.09519,5.15016,5.15016,0,0,1-1.3031-1.62162,4.38151,4.38151,0,0,1,0-3.95917,5.15875,5.15875,0,0,1,1.3031-1.62162,6.37089,6.37089,0,0,1,1.92927-1.09519,7.10468,7.10468,0,0,1,4.7015,0,6.37834,6.37834,0,0,1,1.92927,1.09519,5.16742,5.16742,0,0,1,1.3031,1.62162,4.38151,4.38151,0,0,1,0,3.95917,5.1588,5.1588,0,0,1-1.3031,1.62162,6.37267,6.37267,0,0,1-1.92927,1.09519A6.82067,6.82067,0,0,1,283.261,95.04083Zm0-.8636a5.38751,5.38751,0,0,0,1.91613-.33693,5.00371,5.00371,0,0,0,1.54586-.90543,4.15177,4.15177,0,0,0,1.02212-1.33737,3.76065,3.76065,0,0,0,.37057-1.65312,3.57033,3.57033,0,0,0-.38311-1.61128,4.57441,4.57441,0,0,0-1.035-1.35828,4.80681,4.80681,0,0,0-1.54586-.92661,5.5819,5.5819,0,0,0-3.82,0,5.04421,5.04421,0,0,0-1.533.90569,4.14664,4.14664,0,0,0-1.02211,1.33711,3.759,3.759,0,0,0-.37057,1.65337,3.54319,3.54319,0,0,0,.38341,1.62162,4.61449,4.61449,0,0,0,1.03465,1.3477,4.78244,4.78244,0,0,0,1.54587.9266A5.31554,5.31554,0,0,0,283.261,94.17723Z"></path>
    <path d="M293.22592,85.985h-2.3506v-.88452h2.3506V83.98433a3.577,3.577,0,0,1,.93253-2.65355,3.665,3.665,0,0,1,2.69578-.92661,4.954,4.954,0,0,1,1.9036.316,4.14707,4.14707,0,0,1,1.26488.8001l-.74114.58968a3.79062,3.79062,0,0,0-1.07317-.64235,3.5845,3.5845,0,0,0-1.252-.20009,3.99981,3.99981,0,0,0-1.03465.12651,1.77781,1.77781,0,0,0-.81757.47376,2.31531,2.31531,0,0,0-.53659.94777,5.19533,5.19533,0,0,0-.1917,1.54778v.7371h3.88392V85.985h-3.88392v8.80311h-1.14992Z"></path>
    <path d="M305.36261,80.7411h5.64686a7.13549,7.13549,0,0,1,2.14636.28425,4.216,4.216,0,0,1,1.45659.75827,2.84216,2.84216,0,0,1,.81757,1.09519,3.4329,3.4329,0,0,1,.2556,1.3162,2.75925,2.75925,0,0,1-.22992,1.1161,3.43536,3.43536,0,0,1-1.58439,1.68488,3.95727,3.95727,0,0,1-1.252.40017,8.83865,8.83865,0,0,1,1.37984.29484,4.45982,4.45982,0,0,1,1.3031.62118,3.34249,3.34249,0,0,1,.97106,1.06344,3.6405,3.6405,0,0,1-.1278,3.48541,3.59436,3.59436,0,0,1-1.39269,1.15844,6.86383,6.86383,0,0,1-2.04392.6,17.15729,17.15729,0,0,1-2.46587.16858h-4.88035Zm4.9571,6.25489a7.14009,7.14009,0,0,0,1.41806-.14742,4.36565,4.36565,0,0,0,1.31594-.48435,3.1317,3.1317,0,0,0,.97106-.853,2.04317,2.04317,0,0,0,.3831-1.25294,2.23228,2.23228,0,0,0-.37057-1.348,2.44917,2.44917,0,0,0-.95791-.77918,4.26294,4.26294,0,0,0-1.31594-.35809,12.60782,12.60782,0,0,0-1.44374-.08417h-3.73044V86.996Zm-.38341,6.84431q.9709,0,1.94211-.07358a6.54547,6.54547,0,0,0,1.75011-.35809,2.95672,2.95672,0,0,0,1.26488-.853,2.323,2.323,0,0,0,.48553-1.55837,2.42811,2.42811,0,0,0-.47269-1.54778,3.13513,3.13513,0,0,0-1.201-.92661,5.99606,5.99606,0,0,0-1.62261-.45284,12.43111,12.43111,0,0,0-1.73757-.1265h-3.75581V93.8403Z"></path>
    <path d="M320.77019,80.7411h1.32848l5.92816,8.33968,6.05565-8.33968h1.1753l.76682,14.047h-1.22667l-.58764-12.46744-5.8771,8.04485h-.79189l-5.72361-8.02368L321.23,94.78807h-1.22636Z"></path>
    <path d="M340.21519,80.7411h1.226v14.047h-1.226Z"></path>
    <path d="M363.28758,89.08078h-4.54831v-.94752h5.775V93.398a7.36094,7.36094,0,0,1-1.04811.62143,9.68183,9.68183,0,0,1-1.41806.55793,11.7207,11.7207,0,0,1-1.8137.40018,15.79016,15.79016,0,0,1-2.26193.14742A10.13911,10.13911,0,0,1,354.6,94.588a7.60869,7.60869,0,0,1-2.619-1.51629,6.81436,6.81436,0,0,1-1.68651-2.33755A7.28538,7.28538,0,0,1,349.694,87.754a6.93448,6.93448,0,0,1,.60049-2.87456,7.09169,7.09169,0,0,1,1.68651-2.3378,7.83494,7.83494,0,0,1,2.619-1.569,9.6312,9.6312,0,0,1,3.37241-.56851,8.82458,8.82458,0,0,1,2.594.33693,8.16354,8.16354,0,0,1,1.82654.78976,5.7688,5.7688,0,0,1,1.16307.89511,7.581,7.581,0,0,1,.57481.65293l-.91969.52643q-.15411-.16821-.51122-.537a4.978,4.978,0,0,0-.98389-.74769,7.45713,7.45713,0,0,0-1.52019-.67385,6.71048,6.71048,0,0,0-2.0956-.29484,8.41214,8.41214,0,0,0-2.97676.49493,6.48868,6.48868,0,0,0-2.2228,1.35828,5.89313,5.89313,0,0,0-1.39238,2.03238,6.48662,6.48662,0,0,0-.48552,2.51647,6.64087,6.64087,0,0,0,.47268,2.51672,5.84639,5.84639,0,0,0,1.37954,2.04272,6.44906,6.44906,0,0,0,2.19772,1.36911,8.044,8.044,0,0,0,2.89972.49468,12.12964,12.12964,0,0,0,3.23237-.35784,8.83621,8.83621,0,0,0,2.08276-.84244Z"></path>
    <path d="M368.39786,87.14341V85.95346c0-.14742-.00428-.28753-.01284-.42109q-.01284-.2-.03852-.43193h1.07318q.02568.2321.03852.44226c.00856.14062.01651.29157.02568.45285.00795.16153.01284.3407.01284.537v.695a6.02889,6.02889,0,0,1,.54913-.7056,4.0348,4.0348,0,0,1,.88178-.72651,5.5922,5.5922,0,0,1,1.25173-.56851,5.395,5.395,0,0,1,1.66083-.23184,2.87611,2.87611,0,0,1,.97106.14742l-.332.90568a1.72908,1.72908,0,0,0-.42193-.08416c-.16205-.01386-.31064-.02117-.447-.02117a3.97292,3.97292,0,0,0-1.66083.33692,4.20884,4.20884,0,0,0-1.27742.88452,3.94,3.94,0,0,0-.83041,1.2532,3.66349,3.66349,0,0,0-.29413,1.42153v4.949h-1.14962Z"></path>
    <path d="M381.65879,95.04083a6.81684,6.81684,0,0,1-2.35059-.40018,6.36528,6.36528,0,0,1-1.92928-1.09519,5.1503,5.1503,0,0,1-1.3031-1.62162,4.38151,4.38151,0,0,1,0-3.95917,5.15889,5.15889,0,0,1,1.3031-1.62162,6.37094,6.37094,0,0,1,1.92928-1.09519,7.10556,7.10556,0,0,1,4.7018,0,6.37513,6.37513,0,0,1,1.92866,1.09519,5.15889,5.15889,0,0,1,1.3031,1.62162,4.38151,4.38151,0,0,1,0,3.95917,5.1503,5.1503,0,0,1-1.3031,1.62162A6.36945,6.36945,0,0,1,384.01,94.64065,6.82541,6.82541,0,0,1,381.65879,95.04083Zm0-.8636a5.38793,5.38793,0,0,0,1.91643-.33693,5.00388,5.00388,0,0,0,1.54587-.90543,4.14846,4.14846,0,0,0,1.02242-1.33737,3.765,3.765,0,0,0,.37057-1.65312,3.56675,3.56675,0,0,0-.38341-1.61128,4.57045,4.57045,0,0,0-1.03527-1.35828,4.80026,4.80026,0,0,0-1.54586-.92661,5.5819,5.5819,0,0,0-3.82,0,5.05157,5.05157,0,0,0-1.533.90569,4.14573,4.14573,0,0,0-1.02181,1.33711,3.75917,3.75917,0,0,0-.37057,1.65337,3.54331,3.54331,0,0,0,.38341,1.62162,4.61967,4.61967,0,0,0,1.03466,1.3477,4.78239,4.78239,0,0,0,1.54586.9266A5.31509,5.31509,0,0,0,381.65879,94.17723Z"></path>
    <path d="M390.55057,85.10044h1.14961v5.37037a6.25565,6.25565,0,0,0,.2177,1.79,2.58884,2.58884,0,0,0,.65124,1.13727,2.37509,2.37509,0,0,0,1.07318.58968,5.82428,5.82428,0,0,0,1.48227.16859,4.5226,4.5226,0,0,0,1.91643-.379,4.02968,4.02968,0,0,0,1.341-.96894,3.95494,3.95494,0,0,0,.77966-1.30561,4.18734,4.18734,0,0,0,.25561-1.41095V85.10044h1.14961v8.83461c0,.14742.00367.288.01284.42135.00856.13356.02079.27745.03853.43167h-1.07318c-.01773-.15422-.03-.29484-.03852-.42109q-.01285-.18975-.02569-.41076-.01284-.22113-.01284-.49493v-.695a5.99139,5.99139,0,0,1-.562.71618,4.40263,4.40263,0,0,1-.89462.74743,5.1412,5.1412,0,0,1-1.29025.57935,5.97956,5.97956,0,0,1-1.75011.23159,6.41651,6.41651,0,0,1-2.095-.29484,3.34831,3.34831,0,0,1-1.36731-.853,3.15919,3.15919,0,0,1-.74113-1.33736,6.588,6.588,0,0,1-.21708-1.76879Z"></path>
    <path d="M404.19551,87.14341V85.95346c0-.14742-.00428-.28753-.01284-.42109q-.01284-.2-.03852-.43193h1.07318q.02568.2321.03852.41076c.00856.11945.01651.24217.02568.36843q.01193.18975.02507.43192.01286.24231.01285.5791.12749-.18975.40909-.52643a3.52865,3.52865,0,0,1,.80473-.6741,5.69466,5.69466,0,0,1,1.29026-.58968,5.91571,5.91571,0,0,1,1.84-.25275,6.29746,6.29746,0,0,1,2.3506.40017,4.5306,4.5306,0,0,1,1.648,1.09519,4.45965,4.45965,0,0,1,.97106,1.63221,6.26479,6.26479,0,0,1,.3192,2.03212,4.59784,4.59784,0,0,1-1.69874,3.654,5.79557,5.79557,0,0,1-1.89075,1.02136,7.51512,7.51512,0,0,1-2.364.35809,7.13228,7.13228,0,0,1-2.14635-.28426,13.27619,13.27619,0,0,1-1.533-.57934V99h-1.12394Zm1.12394,5.95979q.17886.10584.48552.28451a4.82007,4.82007,0,0,0,.76682.34726,7.65286,7.65286,0,0,0,1.06034.29484,6.65868,6.65868,0,0,0,1.36669.1265,6.08019,6.08019,0,0,0,1.84-.27392,4.42958,4.42958,0,0,0,1.50734-.8001,3.78378,3.78378,0,0,0,1.00958-1.29528,4.06014,4.06014,0,0,0,.37057-1.77963,5.71742,5.71742,0,0,0-.22992-1.62162,3.73825,3.73825,0,0,0-.7283-1.36886,3.49885,3.49885,0,0,0-1.29026-.93719,5.42911,5.42911,0,0,0-3.33449-.15775,4.11022,4.11022,0,0,0-1.1117.51585,3.94763,3.94763,0,0,0-.84326.75826,3.81435,3.81435,0,0,0-.562.89485,2.94518,2.94518,0,0,0-.24277.90569,8.86826,8.86826,0,0,0-.0642,1.074Z"></path>
  </g>
</svg>
