<svg xmlns="http://www.w3.org/2000/svg" viewBox="0 0 480 126">
  <g id="Expert">
    <path d="M44.137,17.776h61.279V34.592H64.429v16.56H96.278V67.459H64.429V85.8h43.943v16.944H44.137Z" fill="#009fe3"/>
    <path d="M137.933,72.809,114.778,43h23.289l11.375,15.924L160.951,43h21.258L159.868,71.535l24.372,31.211H160.951l-12.593-17.2-12.728,17.2H114.372Z" fill="#009fe3"/>
    <path d="M189.372,43h18.793q.272,1.657.409,3.249t.272,3.248a20.25,20.25,0,0,1,8.035-5.669A27.1,27.1,0,0,1,227.1,41.853,28.031,28.031,0,0,1,239.352,44.4a25.869,25.869,0,0,1,8.851,6.815,29.059,29.059,0,0,1,5.312,9.809,37.282,37.282,0,0,1,1.77,11.4,32.388,32.388,0,0,1-3,14.395,29.97,29.97,0,0,1-7.762,10.063,31.881,31.881,0,0,1-10.759,5.861,38.876,38.876,0,0,1-11.848,1.911,31.555,31.555,0,0,1-7.626-.765q-3-.763-5.448-1.528v20.86H189.372Zm19.474,43.95q3.811,2.421,11.3,2.421,7.218,0,11.372-4.523t4.154-12.038a22.173,22.173,0,0,0-.749-5.733,14.346,14.346,0,0,0-2.315-4.9,11.442,11.442,0,0,0-4.086-3.376,13.653,13.653,0,0,0-6.2-1.274,13.838,13.838,0,0,0-5.788,1.146,12.5,12.5,0,0,0-4.222,3.057,13.33,13.33,0,0,0-2.587,4.332,14.326,14.326,0,0,0-.886,4.968Z" fill="#009fe3"/>
    <path d="M324.46,96.249q-1.089.639-3.263,2.1a31.014,31.014,0,0,1-5.643,2.867,54.322,54.322,0,0,1-8.226,2.483,49.331,49.331,0,0,1-10.877,1.083,43.025,43.025,0,0,1-14.684-2.357,32.231,32.231,0,0,1-11.081-6.56,27.546,27.546,0,0,1-6.935-10.128,34.707,34.707,0,0,1-2.379-13.058,33.071,33.071,0,0,1,2.244-12.038,29.751,29.751,0,0,1,6.458-10.128,31.423,31.423,0,0,1,10.333-6.942,35.04,35.04,0,0,1,13.869-2.612,33.806,33.806,0,0,1,13.6,2.548,27.884,27.884,0,0,1,9.857,7.07,30.033,30.033,0,0,1,6.051,10.828,44.733,44.733,0,0,1,2.039,13.822v3.058H280.407q.135,4.842,4.555,8.472t12.169,3.629q7.614,0,12.373-2.1a43.309,43.309,0,0,0,6.934-3.631ZM307.328,66.567a10.149,10.149,0,0,0-.815-3.886,11.344,11.344,0,0,0-2.447-3.63,13.11,13.11,0,0,0-4.079-2.739,14.4,14.4,0,0,0-5.847-1.083,15.38,15.38,0,0,0-5.982,1.083,13.586,13.586,0,0,0-4.284,2.739,11.764,11.764,0,0,0-2.583,3.63,9.442,9.442,0,0,0-.884,3.886Z" fill="#009fe3"/>
    <path d="M332.265,43h18.693l.677,7.516a28.466,28.466,0,0,1,6.706-5.859q4.267-2.8,11.04-2.8a32.47,32.47,0,0,1,4.4.255,17.862,17.862,0,0,1,3.591.891l-3.115,16.179a24.763,24.763,0,0,0-7.044-.892q-6.911,0-11.176,3.886t-4.266,11.019v29.555H332.265Z" fill="#009fe3"/>
    <path d="M391.454,57.394H381.372V43h10.082V23.381H411.07V43h16.483V57.394H411.07V80.962a10.655,10.655,0,0,0,1.839,6.688q1.839,2.358,5.789,2.357a12.852,12.852,0,0,0,5.177-.955,26.676,26.676,0,0,0,4.087-2.23l7.9,11.21a33.11,33.11,0,0,1-20.162,6.88,31.012,31.012,0,0,1-11.442-1.848A18.34,18.34,0,0,1,392.68,90.135a39.418,39.418,0,0,1-1.226-10.192Z" fill="#009fe3"/>
  </g>
</svg>
