<svg xmlns="http://www.w3.org/2000/svg" viewBox="0 0 480 126">
  <g id="Elite" fill="#b1b1b1">
    <path d="M118.17,19.432h61.684V36.248H138.6v16.56h32.06V69.115H138.6V87.459H182.83V104.4H118.17Z"></path>
    <path d="M192.527,19.432h18.344V104.4H192.527Z"></path>
    <path d="M221.247,19.432h19.618V35.865H221.247Zm.637,25.224h18.344V104.4H221.884Z"></path>
    <path d="M257,59.051h-9.723v-14.4H257V25.037h18.92V44.656h15.9v14.4h-15.9V82.618a10.942,10.942,0,0,0,1.774,6.688q1.774,2.36,5.585,2.357a12.015,12.015,0,0,0,4.993-.955,25.391,25.391,0,0,0,3.941-2.23l7.621,11.21a31.208,31.208,0,0,1-19.446,6.88,28.959,28.959,0,0,1-11.037-1.848,18.584,18.584,0,0,1-7.227-5.095,19.366,19.366,0,0,1-3.942-7.834A40.834,40.834,0,0,1,257,81.6Z"></path>
    <path d="M360.5,97.905q-1.064.639-3.186,2.1a30.136,30.136,0,0,1-5.512,2.866,52.023,52.023,0,0,1-8.034,2.483,47.1,47.1,0,0,1-10.623,1.083,41.157,41.157,0,0,1-14.342-2.356,31.368,31.368,0,0,1-10.823-6.561A27.575,27.575,0,0,1,301.21,87.4a35.44,35.44,0,0,1-2.324-13.057A33.764,33.764,0,0,1,301.077,62.3a29.834,29.834,0,0,1,6.308-10.128,30.653,30.653,0,0,1,10.092-6.943,33.525,33.525,0,0,1,13.545-2.612,32.344,32.344,0,0,1,13.28,2.548,27.267,27.267,0,0,1,9.627,7.07,30.242,30.242,0,0,1,5.91,10.828,45.7,45.7,0,0,1,1.991,13.822v3.058H317.477a11.238,11.238,0,0,0,4.448,8.472q4.315,3.63,11.886,3.63,7.435,0,12.084-2.1a41.882,41.882,0,0,0,6.772-3.631ZM343.77,68.223a10.336,10.336,0,0,0-.8-3.885,11.363,11.363,0,0,0-2.39-3.631,12.8,12.8,0,0,0-3.984-2.739,13.781,13.781,0,0,0-5.711-1.083,14.711,14.711,0,0,0-5.842,1.083,13.246,13.246,0,0,0-4.184,2.739,11.763,11.763,0,0,0-2.523,3.631,9.625,9.625,0,0,0-.863,3.885Z"></path>
  </g>
</svg>
