<svg xmlns="http://www.w3.org/2000/svg" viewBox="0 0 290 100">
  <rect id="whiteBox" x="100" width="190" height="100"></rect>
  <g fill="#1a171b">
    <path d="M199.44086,64.65065h-8.26372s1.36023-.84762,1.36023-3.41288V40.66656c0-1.44286-.05584-2.72445,1.90186-3.36581,1.95777-.64061,7.61694-2.21437,7.61694-2.21437V61.6119C202.05617,63.96333,201.6161,64.65065,199.44086,64.65065Z"></path>
    <path d="M179.37722,44.33441a12.11786,12.11786,0,0,0-6.55543,1.81989s.30747-1.40158-1.432-1.40158h-8.08752V50.4145c-.01411.2857-.0127.58151-.0127.88533V72.939c0,2.56459-1.36059,3.41154-1.36059,3.41154h8.26446c2.157,0,2.60662-.6787,2.6139-2.98373l.01447-.00364V63.32309a12.21391,12.21391,0,0,0,6.18634,1.74379c6.07979,0,9.75016-3.25414,9.75016-10.38023C188.75829,47.29594,184.613,44.33441,179.37722,44.33441Zm-3.12,15.12185a6.37774,6.37774,0,0,1-3.43546-.94555V50.89236a6.4596,6.4596,0,0,1,3.38177-.94845c2.01064,0,3.14322.99121,3.14322,4.97046C179.34678,58.62676,178.2142,59.45626,176.25725,59.45626Z"></path>
    <path d="M155.99127,64.597h-8.26475s1.361-.86143,1.361-3.46805V50.21514c0-1.4661-.05583-2.76908,1.90186-3.421,1.9577-.65108,7.61658-2.63632,7.61658-2.63632V61.50966C158.60592,63.89807,158.16652,64.597,155.99127,64.597Z"></path>
    <path d="M246.59045,51.93717c-2.43266-.53072-2.75021-.75844-2.75021-1.3646s.47637-.87226,2.32677-.87226a22.49313,22.49313,0,0,1,7.51612,1.20868V45.1671a36.61207,36.61207,0,0,0-8.11574-.83269c-7.56186,0-11.31627,2.42642-11.31627,6.51949,0,4.13152,2.20493,4.94936,10.771,6.57933,1.79747.3408,2.22017.60764,2.22017,1.25152,0,.60542-.68806.90924-2.53773.90924a28.81321,28.81321,0,0,1-8.814-1.31092l-2.22091,5.15459a43.65694,43.65694,0,0,0,11.57874,1.62922c7.08689,0,11.47509-2.1223,11.47509-6.70845C256.72343,54.41691,254.41618,53.4156,246.59045,51.93717Z"></path>
    <path d="M149.05229,43.602l9.64064-3.37561v-4.18h-6.97774c-2.209,0-2.6629.74753-2.6629,2.83174Z"></path>
    <path d="M218.93748,44.33441a38.0793,38.0793,0,0,0-9.289,1.03034l.15807,3.8519h7.43786v.008c2.55517.00869,3.265.61775,3.265,2.34854v.915a14.17452,14.17452,0,0,0-5.16758-.76282c-5.86952,0-9.99377,2.19848-9.99377,6.4808,0,4.47225,3.59568,6.86066,8.98949,6.86066a12.112,12.112,0,0,0,6.17186-1.74379,2.89807,2.89807,0,0,0,2.64078,1.32756h8.19267a4.33477,4.33477,0,0,1-1.24789-2.66387V51.72542C230.09494,47.10237,226.71027,44.33441,218.93748,44.33441Zm1.5719,14.93326a6.28675,6.28675,0,0,1-3.47384.98468c-2.06357,0-2.96264-.9085-2.96264-2.16069,0-1.36319,1.00421-2.12164,2.96264-2.12164a8.933,8.933,0,0,1,3.47384.56993Z"></path>
    <path d="M131.61747,46.40734c-5.01025-.87554-6.67831-1.39431-6.67831-2.73173,0-1.43923,1.28627-2.05378,4.29643-2.05378a23.3765,23.3765,0,0,1,10.31348,2.43771V36.18741a38.07946,38.07946,0,0,0-9.75083-1.12932c-9.30453,0-15.31653,3.567-15.31653,9.08342,0,5.79587,4.67747,7.66439,13.89357,9.25671,5.28979.92885,6.90275,1.61475,6.90275,2.94015,0,1.79969-1.88664,2.139-5.36775,2.139a29.61643,29.61643,0,0,1-11.48883-2.89449l-4.97877,6.02827a39.5004,39.5004,0,0,0,16.24315,3.43107c5.99463,0,16.04928-1.208,16.04928-9.297C145.73511,50.71617,142.04009,48.2694,131.61747,46.40734Z"></path>
    <path d="M274.78075,59.26767c-1.58645,0-2.37972-.45388-2.37972-1.96928V50.09545h3.49055a2.31223,2.31223,0,0,0,2.53705-2.30829V44.75272H272.401V35.14333l-7.83664,2.20494a2.32205,2.32205,0,0,0-1.672,2.33005v5.06534h-4.01547v5.35543h4.01547V58.737c0,4.51,2.326,6.32993,7.3501,6.32993a22.71463,22.71463,0,0,0,7.12891-1.06152l1.216-5.79914A8.23946,8.23946,0,0,1,274.78075,59.26767Z"></path>
  </g>
  <g id="BMI_Block">
    <rect width="100" height="100" fill="#009fe3"></rect>
    <g fill="white">
      <path d="M62.176,34.911,57.84,52.77h-.084L53.417,34.911H40.11v20.28a7.315,7.315,0,0,0-5.239-6.716c2.255-1.235,3.742-2.891,3.742-5.953,0-3.1-1.7-7.611-9.693-7.611H12.3V65.27H29.515c5.121,0,10.16-2.878,10.6-8.443V65.27h8.844V45.8h.084L54.31,65.27h6.973L66.555,45.8h.085V65.27h8.844V34.911ZM21.65,42.139h4.933c1.913,0,3.188.554,3.188,2.084,0,1.956-1.233,2.507-3.188,2.507H21.65Zm5.485,15.9H21.65V52.386h5.867c2.211,0,3.272.978,3.272,2.763,0,2.339-1.7,2.891-3.655,2.891"></path>
      <rect x="78.358" y="34.914" width="9.354" height="30.356"></rect>
    </g>
  </g>
</svg>
