<svg width="250" height="301" viewBox="0 0 250 301" fill="none" xmlns="http://www.w3.org/2000/svg">
  <path d="M38.5957 230.801V280L215.472 179.241V143.895L131.051 108L38.5957 230.801Z" fill="#BACBD8" />
  <path d="M38.5944 241V280L20.2969 253.837L38.5944 241Z" fill="white" />
  <path d="M2 247.184L35.3861 266L135.165 113.954L2.60555 39L2 247.184Z" fill="#45E0FF" />
  <path d="M95.5215 192.843V227L123.984 210.157V176L95.5215 192.843Z" fill="#255D63" />
  <path d="M131.1 173.183V206L159.562 189.817V157L131.1 173.183Z" fill="#255D63" />
  <path d="M198.442 132.246L231.735 151L135.205 113.706L3.01562 39L198.442 132.246Z" fill="#2580B4" />
  <path d="M215.471 146V179.905L39.3577 280L26.3967 261.656" stroke="#3F3F3F" stroke-width="2" />
  <path d="M38.5957 279V259" stroke="#3F3F3F" />
  <path d="M2.60555 39L135.165 113.954L35.3861 266L2 247.184L2.60555 39Z" stroke="#002839" stroke-width="2" stroke-linejoin="round" />
  <path d="M3.01562 39L198.442 132.246L231.735 151L135.205 113.706" stroke="#002839" stroke-width="2" stroke-linejoin="round" />
  <path d="M142.281 110L197.174 78" stroke="#3B3B3B" stroke-width="1.5" stroke-linecap="round" />
  <path d="M50.793 160L122.967 120" stroke="black" stroke-width="1.5" stroke-linecap="round" />
  <path d="M10.1328 35L66.0419 2" stroke="#3B3B3B" stroke-width="1.5" stroke-linecap="round" />
  <path d="M59.9414 5L191.074 81" stroke="#3B3B3B" stroke-width="1.5" stroke-linecap="round" />
  <path d="M71.124 299L45.7107 283" stroke="#3B3B3B" stroke-width="1.5" stroke-linecap="round" />
  <path d="M243.935 196L67.0586 296" stroke="#3B3B3B" stroke-width="1.5" stroke-linecap="round" />
  <path d="M248.001 198L220.555 184" stroke="#3B3B3B" stroke-width="1.5" stroke-linecap="round" />
  <path d="M165.964 246.328H167.532L171.708 257H169.996L168.892 254.024H164.508L163.404 257H161.788L165.964 246.328ZM168.428 252.728L166.7 248.04L164.956 252.728H168.428Z" fill="#3B3B3B" />
  <path d="M127.232 25.328H130.848C131.402 25.328 131.882 25.4027 132.288 25.552C132.693 25.6907 133.029 25.8827 133.296 26.128C133.562 26.3733 133.76 26.6613 133.888 26.992C134.026 27.3227 134.096 27.6747 134.096 28.048C134.096 28.3893 134.037 28.6933 133.92 28.96C133.802 29.2267 133.658 29.4613 133.488 29.664C133.317 29.856 133.125 30.0107 132.912 30.128C132.709 30.2453 132.522 30.32 132.352 30.352C132.565 30.384 132.805 30.4533 133.072 30.56C133.338 30.656 133.589 30.8053 133.824 31.008C134.058 31.2107 134.256 31.4773 134.416 31.808C134.576 32.128 134.656 32.528 134.656 33.008C134.656 33.584 134.549 34.064 134.336 34.448C134.133 34.8213 133.85 35.1253 133.488 35.36C133.136 35.5947 132.714 35.76 132.224 35.856C131.733 35.952 131.21 36 130.656 36H127.232V25.328ZM130.576 34.672C130.853 34.672 131.141 34.656 131.44 34.624C131.738 34.592 132.01 34.5173 132.256 34.4C132.512 34.2827 132.72 34.112 132.88 33.888C133.04 33.6533 133.12 33.3333 133.12 32.928C133.12 32.544 133.04 32.2347 132.88 32C132.73 31.7653 132.533 31.5787 132.288 31.44C132.053 31.3013 131.792 31.2107 131.504 31.168C131.216 31.1147 130.938 31.088 130.672 31.088H128.72V34.672H130.576ZM130.624 29.776C130.858 29.776 131.093 29.7493 131.328 29.696C131.562 29.632 131.776 29.536 131.968 29.408C132.16 29.28 132.314 29.1147 132.432 28.912C132.549 28.7093 132.608 28.464 132.608 28.176C132.608 27.856 132.549 27.6 132.432 27.408C132.314 27.2053 132.16 27.0507 131.968 26.944C131.776 26.8267 131.562 26.752 131.328 26.72C131.093 26.6773 130.858 26.656 130.624 26.656H128.72V29.776H130.624Z" fill="#3B3B3B" />
  <path d="M191.074 75V86" stroke="#3B3B3B" stroke-width="1.5" stroke-linecap="round" />
  <path d="M67.0586 291V300" stroke="#3B3B3B" stroke-width="1.5" stroke-linecap="round" />
  <path d="M243.934 190V200" stroke="#3B3B3B" stroke-width="1.5" stroke-linecap="round" />
  <path d="M59.9414 1V10" stroke="#3B3B3B" stroke-width="1.5" stroke-linecap="round" />
  <path d="M69.0918 206L84.3397 199" stroke="black" stroke-width="1.5" stroke-linecap="round" />
  <path d="M50.793 152L65.0244 159" stroke="black" stroke-width="1.5" stroke-linecap="round" />
  <path d="M49.9758 181.328H53.3518C54.0771 181.328 54.6744 181.429 55.1438 181.632C55.6238 181.835 56.0024 182.091 56.2798 182.4C56.5678 182.709 56.7651 183.056 56.8718 183.44C56.9891 183.824 57.0478 184.197 57.0478 184.56C57.0478 185.093 56.9571 185.563 56.7758 185.968C56.5944 186.373 56.3438 186.715 56.0238 186.992C55.7038 187.259 55.3198 187.461 54.8718 187.6C54.4344 187.739 53.9544 187.808 53.4318 187.808H51.4958V192H49.9758V181.328ZM53.4158 186.496C54.0771 186.496 54.5838 186.331 54.9358 186C55.2984 185.659 55.4798 185.189 55.4798 184.592C55.4798 183.984 55.2931 183.509 54.9198 183.168C54.5571 182.816 54.0558 182.64 53.4158 182.64H51.4958V186.496H53.4158Z" fill="black" />
  <path d="M57.9157 157C57.8602 161.175 58.112 165.349 58.6693 169.492C60.7749 184.825 67.0619 196.115 76.2057 203" stroke="black" stroke-width="1.5" stroke-linecap="round" />
</svg>
