<svg width="350" height="302" viewBox="0 0 350 302" fill="none" xmlns="http://www.w3.org/2000/svg">
  <path d="M260.655 118.193L142.645 71.3827L21 1.15234L260.655 118.193Z" fill="#2681B4" />
  <path d="M21 1.15234V261.986L142.5 71.7435L21 1.15234Z" fill="#45E0FF" />
  <path d="M142.746 71.3767L38.8347 233.005L242.82 110.868L142.746 71.3767Z" fill="#B5C7D4" />
  <path d="M21 1.15234L142.5 71.7435L21 261.986L21 1.15234Z" stroke="#002839" stroke-width="2" stroke-linejoin="round" />
  <path d="M21 1.15234L260.655 118.193L142.645 71.5227" stroke="#002839" stroke-width="2" stroke-linejoin="round" />
  <path d="M39.9487 231.89L242.82 111.505" stroke="#3F3F3F" />
  <path d="M83.4221 298.771L26.5736 266.445" stroke="#3B3B3B" stroke-width="1.5" stroke-linecap="round" />
  <path d="M321.963 153.863L76.7341 295.427" stroke="#3B3B3B" stroke-width="1.5" stroke-linecap="round" />
  <path d="M328.649 157.207L271.8 124.881" stroke="#3B3B3B" stroke-width="1.5" stroke-linecap="round" />
  <path d="M211.519 225.071H213.087L217.263 235.743H215.551L214.447 232.767H210.063L208.959 235.743H207.343L211.519 225.071ZM213.983 231.471L212.255 226.783L210.511 231.471H213.983Z" fill="#3B3B3B" />
  <path d="M76.7341 288.739V301" stroke="#3B3B3B" stroke-width="1.5" stroke-linecap="round" />
  <path d="M321.963 147.175V159.436" stroke="#3B3B3B" stroke-width="1.5" stroke-linecap="round" />
  <path d="M42.1785 120.423L57.784 130.455" stroke="black" stroke-width="1.5" stroke-linecap="round" />
  <path d="M38.9368 155.962H42.3128C43.0382 155.962 43.6355 156.063 44.1048 156.266C44.5848 156.468 44.9635 156.724 45.2408 157.034C45.5288 157.343 45.7262 157.69 45.8328 158.074C45.9502 158.458 46.0088 158.831 46.0088 159.194C46.0088 159.727 45.9182 160.196 45.7368 160.602C45.5555 161.007 45.3048 161.348 44.9848 161.626C44.6648 161.892 44.2808 162.095 43.8328 162.234C43.3955 162.372 42.9155 162.442 42.3928 162.442H40.4568V166.634H38.9368V155.962ZM42.3768 161.13C43.0382 161.13 43.5448 160.964 43.8968 160.634C44.2595 160.292 44.4408 159.823 44.4408 159.226C44.4408 158.618 44.2542 158.143 43.8808 157.802C43.5182 157.45 43.0168 157.274 42.3768 157.274H40.4568V161.13H42.3768Z" fill="black" />
  <path d="M49.9957 125.996C49.9061 131.401 50.1994 136.806 50.8735 142.17C53.3214 161.228 60.5875 175.305 71.1588 183.959" stroke="black" stroke-width="1.5" stroke-linecap="round" />
  <path d="M126.893 81.4089L39.9487 131.569" stroke="black" stroke-width="1.5" stroke-linecap="round" />
  <path d="M71.1605 175.042V192.877" stroke="black" stroke-width="1.5" stroke-linecap="round" />
</svg>
