<svg width="350" height="300" viewBox="0 0 350 300" fill="none" xmlns="http://www.w3.org/2000/svg">
  <path d="M142.288 200.89V275.515L314.722 175.758V101.133L142.288 200.89Z" fill="#B2C4D0" />
  <path d="M142.29 200.891V275.516L29.5376 107.576L142.29 200.891Z" fill="white" />
  <path d="M29.5376 107.576L153.41 217.689L332.462 114.113L211.753 4L29.5376 107.576Z" fill="#309DD6" />
  <path d="M197.583 201.563V234.801L225.913 218.411V185.173L197.583 201.563Z" fill="#255D63" />
  <path d="M231.845 181.802V215.038L260.176 198.648V165.412L231.845 181.802Z" fill="#255D63" />
  <path d="M314.724 124.374V175.758L142.29 275.516L29.5376 107.576" stroke="#3F3F3F" stroke-width="2" stroke-linejoin="round" />
  <path d="M142.288 274.224V207.805" stroke="#3F3F3F" />
  <path d="M29.5376 107.576L211.753 4L332.462 114.113L153.41 217.689L29.5376 107.576Z" stroke="#00232D" stroke-width="2" stroke-linejoin="round" />
  <path d="M114.984 291.949L136.315 279.632" stroke="#3B3B3B" stroke-width="1.5" stroke-linecap="round" />
  <path d="M2 226.926L23.2791 214.563" stroke="#3B3B3B" stroke-width="1.5" stroke-linecap="round" />
  <path d="M7.40236 224.042L119.621 288.622" stroke="#3B3B3B" stroke-width="1.5" stroke-linecap="round" />
  <path d="M175.599 294.46L148.944 279.071" stroke="#3B3B3B" stroke-width="1.5" stroke-linecap="round" />
  <path d="M342.848 192.136L170.4 291.457" stroke="#3B3B3B" stroke-width="1.5" stroke-linecap="round" />
  <path d="M347.999 195.016L321.68 179.82" stroke="#3B3B3B" stroke-width="1.5" stroke-linecap="round" />
  <path d="M139.806 180.403H143.182C143.907 180.403 144.504 180.504 144.974 180.707C145.454 180.91 145.832 181.166 146.11 181.475C146.398 181.784 146.595 182.131 146.702 182.515C146.819 182.899 146.878 183.272 146.878 183.635C146.878 184.168 146.787 184.638 146.606 185.043C146.424 185.448 146.174 185.79 145.854 186.067C145.534 186.334 145.15 186.536 144.702 186.675C144.264 186.814 143.784 186.883 143.262 186.883H141.326V191.075H139.806V180.403ZM143.246 185.571C143.907 185.571 144.414 185.406 144.766 185.075C145.128 184.734 145.31 184.264 145.31 183.667C145.31 183.059 145.123 182.584 144.75 182.243C144.387 181.891 143.886 181.715 143.246 181.715H141.326V185.571H143.246Z" fill="white" />
  <path d="M263.398 242.142H267.014C267.568 242.142 268.048 242.217 268.454 242.366C268.859 242.505 269.195 242.697 269.462 242.942C269.728 243.188 269.926 243.476 270.054 243.806C270.192 244.137 270.262 244.489 270.262 244.862C270.262 245.204 270.203 245.508 270.086 245.774C269.968 246.041 269.824 246.276 269.654 246.478C269.483 246.67 269.291 246.825 269.078 246.942C268.875 247.06 268.688 247.134 268.518 247.166C268.731 247.198 268.971 247.268 269.238 247.374C269.504 247.47 269.755 247.62 269.99 247.822C270.224 248.025 270.422 248.292 270.582 248.622C270.742 248.942 270.822 249.342 270.822 249.822C270.822 250.398 270.715 250.878 270.502 251.262C270.299 251.636 270.016 251.94 269.654 252.174C269.302 252.409 268.88 252.574 268.39 252.67C267.899 252.766 267.376 252.814 266.822 252.814H263.398V242.142ZM266.742 251.486C267.019 251.486 267.307 251.47 267.606 251.438C267.904 251.406 268.176 251.332 268.422 251.214C268.678 251.097 268.886 250.926 269.046 250.702C269.206 250.468 269.286 250.148 269.286 249.742C269.286 249.358 269.206 249.049 269.046 248.814C268.896 248.58 268.699 248.393 268.454 248.254C268.219 248.116 267.958 248.025 267.67 247.982C267.382 247.929 267.104 247.902 266.838 247.902H264.886V251.486H266.742ZM266.79 246.59C267.024 246.59 267.259 246.564 267.494 246.51C267.728 246.446 267.942 246.35 268.134 246.222C268.326 246.094 268.48 245.929 268.598 245.726C268.715 245.524 268.774 245.278 268.774 244.99C268.774 244.67 268.715 244.414 268.598 244.222C268.48 244.02 268.326 243.865 268.134 243.758C267.942 243.641 267.728 243.566 267.494 243.534C267.259 243.492 267.024 243.47 266.79 243.47H264.886V246.59H266.79Z" fill="#3B3B3B" />
  <path d="M54.5043 260.301H56.0723L60.2483 270.973H58.5363L57.4323 267.997H53.0483L51.9443 270.973H50.3283L54.5043 260.301ZM56.9683 266.701L55.2403 262.013L53.4963 266.701H56.9683Z" fill="#3B3B3B" />
  <path d="M7.18618 219.074V228.759" stroke="#3B3B3B" stroke-width="1.5" stroke-linecap="round" />
  <path d="M120.127 284.223V293.908" stroke="#3B3B3B" stroke-width="1.5" stroke-linecap="round" />
  <path d="M170.398 286.626V296.31" stroke="#3B3B3B" stroke-width="1.5" stroke-linecap="round" />
  <path d="M343.03 187.046V196.731" stroke="#3B3B3B" stroke-width="1.5" stroke-linecap="round" />
  <path d="M141.068 171.958L46.8314 117.586" stroke="white" stroke-width="1.5" stroke-linecap="round" />
  <path d="M140.35 166.478L131.954 171.32" stroke="white" stroke-width="1.5" stroke-linecap="round" />
  <path d="M137.156 198.693L127.464 198.837" stroke="white" stroke-width="1.5" stroke-linecap="round" />
  <path d="M135.936 169.012C135.965 174.649 135.624 180.282 134.914 185.874C134.357 190.265 133.519 194.615 132.404 198.899" stroke="white" stroke-width="1.5" stroke-linecap="round" />
  <path d="M29.5376 210.955V208.534" stroke="#00232D" stroke-linejoin="round" />
  <path d="M29.5376 203.814V121.223" stroke="#00232D" stroke-linejoin="round" stroke-dasharray="3.9 3.9" />
  <path d="M29.5376 118.863V116.442" stroke="#00232D" stroke-linejoin="round" />
  <path d="M35.9897 214.352L38.0899 215.56" stroke="#00232D" stroke-linejoin="round" />
  <path d="M42.4242 218.053L126.905 266.65" stroke="#00232D" stroke-linejoin="round" stroke-dasharray="4.13 4.13" />
  <path d="M129.072 267.897L131.172 269.105" stroke="#00232D" stroke-linejoin="round" />
</svg>
