<svg xmlns="http://www.w3.org/2000/svg" viewBox="0 0 48 48"><path d="M0,0H48V48H0Z" fill="none"/><g transform="translate(0 4.991)"><path d="M36.839,39.792a4.244,4.244,0,0,1-.563-.1A2.466,2.466,0,0,1,34.523,38.4s-.027-.013-.058-.02a4.031,4.031,0,0,0-.421-.083.218.218,0,0,0-.117.023,13.594,13.594,0,0,1-1.838.558.12.12,0,0,1-.128-.06,1.844,1.844,0,0,0-.22-.32.118.118,0,0,1,.063-.191,13.5,13.5,0,0,0,2.369-.765.129.129,0,0,0,.041-.058,2.283,2.283,0,0,0,.083-.851,5.033,5.033,0,0,1,2.684-4.75c.036-.018.074-.034.119-.052l.041-.016a.116.116,0,0,1,.117.016.119.119,0,0,1,.043.11l-.049.29c-.041.257-.081.51-.121.761l-.009.065a15.052,15.052,0,0,1-.446,2.169,3.351,3.351,0,0,1-.938,1.535,13.547,13.547,0,0,0,2.52-1.917.167.167,0,0,0,.038-.094l.02-.506a.318.318,0,0,0-.009-.088,5.418,5.418,0,0,1-.3-3.031,6.135,6.135,0,0,1,1.418-3.055c.112-.131.216-.184.279-.149a.111.111,0,0,1,.063.09l.022.177c.016.131.031.261.045.389.023.229.049.456.076.682l0,.034c.065.567.131,1.154.167,1.742a4.017,4.017,0,0,1-.376,2.227l-.005.012a17.563,17.563,0,0,0,1.535-2.266.35.35,0,0,0,.038-.225,2.059,2.059,0,0,0-.4-.977,4.831,4.831,0,0,1-.715-2.081,6.721,6.721,0,0,1,.545-3.737c.014-.034.032-.067.05-.1l.043-.081a.113.113,0,0,1,.1-.063.118.118,0,0,1,.112.074c.131.333.259.653.385.97l.081.2a14.6,14.6,0,0,1,.751,2.29,3.994,3.994,0,0,1,.022,1.663,20.79,20.79,0,0,0,1.037-3.17.221.221,0,0,0-.023-.117,1.945,1.945,0,0,0-.637-.869,4.349,4.349,0,0,1-1.251-1.744,6.621,6.621,0,0,1-.45-3.929.176.176,0,0,1,.013-.049l0-.011a.117.117,0,0,1,.065-.072.122.122,0,0,1,.1,0,.157.157,0,0,1,.083.058l.412.547.022.031c.349.464.711.943,1.057,1.42a5.882,5.882,0,0,1,.868,1.638,3.736,3.736,0,0,1,.173.77,24.37,24.37,0,0,0,.2-2.727.84.84,0,0,0-.175-.585,1.078,1.078,0,0,0-.513-.392,3.82,3.82,0,0,1-1.755-1.487A6.282,6.282,0,0,1,40.385,15.2c-.014-.122-.022-.247-.029-.38l0-.029c0-.065-.009-.131-.013-.2a.117.117,0,0,1,.063-.114.118.118,0,0,1,.128.016l.1.085c.036.032.068.059.1.086.16.13.32.256.482.383l.016.014c.353.279.72.569,1.069.868a4.579,4.579,0,0,1,1.373,1.811c.041.108.079.216.112.322a23.585,23.585,0,0,0-.517-3.073c-.029-.122-.045-.158-.1-.176a.236.236,0,0,1-.1-.068.775.775,0,0,0-.617-.23,3.1,3.1,0,0,1-1.789-.74,7.7,7.7,0,0,1-1.957-3.161.116.116,0,0,1,.164-.106l.722.3c.56.232,1.129.468,1.674.726A3.309,3.309,0,0,1,42.56,12.57a23.8,23.8,0,0,0-1.024-2.459.683.683,0,0,0-.547-.175,1.165,1.165,0,0,0-.272.031,3.057,3.057,0,0,1-2.158-.317,4.876,4.876,0,0,1-1.991-1.962.869.869,0,0,1-.041-.1.116.116,0,0,1,.108-.158l.284.018c.169.011.335.02.5.029l.175.009a8.906,8.906,0,0,1,1.6.18,2.888,2.888,0,0,1,1.393.7,21.026,21.026,0,0,0-1.294-1.912.226.226,0,0,0-.113-.047,1.038,1.038,0,0,0-.234-.025.833.833,0,0,0-.4.092,3.076,3.076,0,0,1-2.437.079A3.973,3.973,0,0,1,34.222,5.14a.437.437,0,0,1-.049-.074.1.1,0,0,1,0-.092c.041-.088.221-.13.3-.144.187-.032.4-.07.61-.1l.288-.043.013,0c.328-.049.668-.1,1.008-.115a2.775,2.775,0,0,1,1.631.378q-.456-.489-.932-.922a4.353,4.353,0,0,0-.367-.3.156.156,0,0,0-.081-.021,3.655,3.655,0,0,1-2.777-1.474A5.6,5.6,0,0,1,32.87.242L32.861.213c-.025-.086-.04-.133.02-.189s.133-.029.333.05.394.149.587.221c.405.149.819.3,1.217.475A3.564,3.564,0,0,1,36.6,2.076a1.951,1.951,0,0,1,.353,1.346.085.085,0,0,0,.007.02A18.539,18.539,0,0,1,39,5.521,6.134,6.134,0,0,1,38.1,3.1,7.747,7.747,0,0,1,38.072.546c.007-.051.018-.1.032-.16l.022-.092a.117.117,0,0,1,.194-.059c.047.045.094.086.14.128l.031.029a4.228,4.228,0,0,1,.328.317,6.755,6.755,0,0,1,1.728,3.53,2.97,2.97,0,0,1-.112,1.509,2,2,0,0,1-.221.4c-.04.061-.079.121-.113.18a.183.183,0,0,0-.029.058c.016.166.04.356.072.6,0-.007.005,0,.016.018l.013.016a22.368,22.368,0,0,1,1.46,2.317,7.82,7.82,0,0,1-.3-2.243A5.939,5.939,0,0,1,42.077,4.2a.115.115,0,0,1,.094-.061.119.119,0,0,1,.1.049c.014.02.029.04.043.058.032.042.061.079.088.121a6.4,6.4,0,0,1,.738,1.807,9.435,9.435,0,0,1,.367,2.5,2.934,2.934,0,0,1-.369,1.553,2.413,2.413,0,0,1-.27.354c-.054.065-.108.128-.157.191a.246.246,0,0,0-.052.115c-.005.153,0,.308,0,.457l0,.1a.144.144,0,0,0,.011.054,22.773,22.773,0,0,1,.823,2.358,7.87,7.87,0,0,1-.059-.8,5.858,5.858,0,0,1,1.35-3.926l.193-.234a.109.109,0,0,1,.09-.043l.02,0a.114.114,0,0,1,.09.074c.016.047.034.09.05.133.032.083.063.16.088.241a7.585,7.585,0,0,1,.315,2.2l0,.018a7.475,7.475,0,0,1-.234,2.408,2.95,2.95,0,0,1-.823,1.348l-.009.007a1.427,1.427,0,0,0-.439.553c-.014.052-.027.1-.043.156a1.38,1.38,0,0,0,.02.689,3.083,3.083,0,0,1,.058.376c.034.513.076,1.033.115,1.535l0,.047c.011.13.022.258.031.385A6.287,6.287,0,0,1,45.458,15.9a6.123,6.123,0,0,1,1.424-1.442c.023-.016.049-.031.081-.051l.056-.034a.116.116,0,0,1,.113-.005.113.113,0,0,1,.065.092c.007.074.016.144.025.212a3.827,3.827,0,0,1,.036.441,9.185,9.185,0,0,1-.947,4.2,2.992,2.992,0,0,1-.7.916,1.785,1.785,0,0,1-.932.448.1.1,0,0,0-.031.018c-.016.034-.036.072-.054.11a1.964,1.964,0,0,0-.176.407,1.61,1.61,0,0,0-.029.38c0,.049,0,.1,0,.148a13.885,13.885,0,0,1-.263,2.617,4.939,4.939,0,0,1,.441-.92,5.923,5.923,0,0,1,2.905-2.513c.076-.031.153-.052.243-.079l.018-.005.115-.034a.123.123,0,0,1,.11.022.122.122,0,0,1,.041.1c-.009.083-.014.164-.02.243a2.75,2.75,0,0,1-.067.495,7.907,7.907,0,0,1-1.969,3.661,2.274,2.274,0,0,1-1.291.72,2.2,2.2,0,0,1-.506.006l-.07,0-.029,0c-.018,0-.02,0-.032.018l-.328.452a.135.135,0,0,0-.014.041l-.005.016a23.031,23.031,0,0,1-1.256,3.308,6.551,6.551,0,0,1,.74-.853,5.77,5.77,0,0,1,3.641-1.253l.049,0a.116.116,0,0,1,.074.144c-.018.054-.032.112-.049.167a3.25,3.25,0,0,1-.122.389,5.812,5.812,0,0,1-1.213,1.8,4.836,4.836,0,0,1-1.456,1.154,2.613,2.613,0,0,1-1.822.23,1.063,1.063,0,0,1-.313-.123c-.07-.045-.09-.043-.158.007a2.384,2.384,0,0,1-.252.16c-.047.029-.094.056-.139.084-.005.006-.02.029-.027.038a18.411,18.411,0,0,1-1.724,2.376,3.678,3.678,0,0,1,1.051-.542,5.107,5.107,0,0,1,3.47.135,3.26,3.26,0,0,1,.373.175.115.115,0,0,1,.056.079.117.117,0,0,1-.023.092c-.036.047-.072.1-.106.142l-.007.011a3.967,3.967,0,0,1-.268.335,5.528,5.528,0,0,1-1.541,1.085,5.178,5.178,0,0,1-2.23.61c-.036,0-.07,0-.106,0a2.071,2.071,0,0,1-1.638-.693.149.149,0,0,0-.034-.007c-.155.011-.3.034-.418.052a.154.154,0,0,0-.052.025,14.567,14.567,0,0,1-2.183,1.605c.115-.034.234-.065.356-.088a4.484,4.484,0,0,1,2.563.3,5.957,5.957,0,0,1,1.753,1.105.115.115,0,0,1,.016.158,1.8,1.8,0,0,1-.688.5,6.073,6.073,0,0,1-1.913.5s-.239.022-.571.022A6.223,6.223,0,0,1,36.839,39.792ZM9.931,39.8a6.064,6.064,0,0,1-1.915-.5,1.808,1.808,0,0,1-.688-.5.118.118,0,0,1,.016-.16,6,6,0,0,1,1.753-1.1,4.5,4.5,0,0,1,2.563-.3,3.629,3.629,0,0,1,.356.088,14.689,14.689,0,0,1-2.183-1.6.127.127,0,0,0-.054-.027c-.112-.018-.261-.042-.419-.052a.07.07,0,0,0-.032.011,2.074,2.074,0,0,1-1.636.689l-.106,0a5.229,5.229,0,0,1-2.23-.61,5.6,5.6,0,0,1-1.541-1.085,4.034,4.034,0,0,1-.268-.337l-.007-.011c-.034-.047-.07-.094-.106-.142a.115.115,0,0,1-.023-.09.116.116,0,0,1,.05-.077c.014-.007.205-.11.378-.178a5.118,5.118,0,0,1,3.47-.135,3.716,3.716,0,0,1,1.051.542,18.393,18.393,0,0,1-1.724-2.374.22.22,0,0,0-.029-.04c-.043-.029-.09-.056-.137-.083a2.727,2.727,0,0,1-.252-.162c-.068-.05-.088-.052-.158-.007a1.079,1.079,0,0,1-.311.124,2.618,2.618,0,0,1-1.823-.232,4.831,4.831,0,0,1-1.456-1.152,5.823,5.823,0,0,1-1.213-1.8,3.393,3.393,0,0,1-.119-.378c-.018-.067-.034-.123-.05-.178a.117.117,0,0,1,.072-.144l.018,0h.031A5.779,5.779,0,0,1,4.848,29.03a6.455,6.455,0,0,1,.74.855,23.263,23.263,0,0,1-1.256-3.31l0-.016c-.005-.014-.011-.036-.014-.042l-.328-.448c-.013-.02-.014-.02-.034-.02H3.923l-.07.006a2.434,2.434,0,0,1-.506-.006,2.275,2.275,0,0,1-1.289-.72A7.913,7.913,0,0,1,.087,21.668a2.642,2.642,0,0,1-.065-.5C.015,21.092.01,21.012,0,20.929a.122.122,0,0,1,.041-.1.117.117,0,0,1,.11-.022l.115.034.018.005a2.271,2.271,0,0,1,.243.079,5.911,5.911,0,0,1,2.905,2.511,5,5,0,0,1,.441.92,14,14,0,0,1-.263-2.615c0-.049,0-.1,0-.148a1.61,1.61,0,0,0-.029-.38A2.014,2.014,0,0,0,3.4,20.8c-.018-.038-.038-.076-.056-.112a.11.11,0,0,0-.029-.014,1.8,1.8,0,0,1-.932-.448,2.993,2.993,0,0,1-.7-.916,9.209,9.209,0,0,1-.947-4.2,3.668,3.668,0,0,1,.036-.437c.009-.072.018-.142.025-.216a.118.118,0,0,1,.065-.094.122.122,0,0,1,.112.005l.058.034c.032.02.058.036.081.052A6.147,6.147,0,0,1,2.542,15.9a6.282,6.282,0,0,1,1.141,3.125c.009-.128.02-.257.031-.385l0-.047c.04-.5.081-1.024.115-1.535a3.1,3.1,0,0,1,.058-.373,1.394,1.394,0,0,0,.02-.693c-.014-.052-.029-.1-.041-.158a1.467,1.467,0,0,0-.441-.551l-.009-.009A2.928,2.928,0,0,1,2.6,13.927a7.37,7.37,0,0,1-.234-2.408V11.5a7.609,7.609,0,0,1,.315-2.2c.025-.079.056-.156.088-.239.016-.043.034-.086.052-.133a.118.118,0,0,1,.09-.076l.018,0a.12.12,0,0,1,.092.043l.193.236A5.848,5.848,0,0,1,4.56,13.058a7.887,7.887,0,0,1-.059.8,23.078,23.078,0,0,1,.824-2.36.237.237,0,0,0,.011-.054l0-.1c0-.149.005-.3,0-.457a.246.246,0,0,0-.052-.115c-.047-.063-.1-.126-.153-.187a2.5,2.5,0,0,1-.274-.358A2.933,2.933,0,0,1,4.49,8.675a9.433,9.433,0,0,1,.367-2.5A6.413,6.413,0,0,1,5.6,4.364a1.393,1.393,0,0,1,.086-.121c.014-.018.031-.038.045-.058a.113.113,0,0,1,.092-.049.125.125,0,0,1,.1.06A5.943,5.943,0,0,1,6.67,7.086a7.834,7.834,0,0,1-.3,2.243A22.185,22.185,0,0,1,7.827,7.012L7.84,7a.185.185,0,0,0,.018-.027c.032-.23.054-.421.07-.592A.4.4,0,0,0,7.9,6.324c-.036-.061-.074-.119-.113-.178a2.116,2.116,0,0,1-.221-.4,2.949,2.949,0,0,1-.113-1.509A6.754,6.754,0,0,1,9.181.708,3.9,3.9,0,0,1,9.508.392L9.541.363c.045-.042.092-.085.139-.13A.121.121,0,0,1,9.794.208a.111.111,0,0,1,.079.084L9.9.386c.014.061.025.11.034.158A7.848,7.848,0,0,1,9.9,3.093,6.135,6.135,0,0,1,9,5.521a18.723,18.723,0,0,1,2.043-2.083.053.053,0,0,0,.005-.018A1.947,1.947,0,0,1,11.4,2.076,3.574,3.574,0,0,1,12.982.771c.4-.173.812-.326,1.211-.475.2-.074.392-.146.585-.22.212-.083.293-.1.34-.052s.045.1.02.189L15.13.242a5.6,5.6,0,0,1-.992,1.992,3.647,3.647,0,0,1-2.779,1.472.189.189,0,0,0-.079.023c-.153.115-.266.207-.367.3-.317.29-.626.6-.932.921a2.78,2.78,0,0,1,1.631-.376,10.13,10.13,0,0,1,1.008.115l.013,0c.1.014.193.029.29.041.211.029.421.067.608.1.077.014.259.056.3.142a.1.1,0,0,1,0,.094.659.659,0,0,1-.049.074,3.984,3.984,0,0,1-1.886,1.413,3.091,3.091,0,0,1-2.434-.077.831.831,0,0,0-.4-.1.947.947,0,0,0-.229.025.248.248,0,0,0-.119.047A21.04,21.04,0,0,0,7.413,8.365a2.865,2.865,0,0,1,1.393-.7,8.553,8.553,0,0,1,1.6-.18l.176-.009c.166-.009.329-.02.5-.031l.277-.018h0a.12.12,0,0,1,.1.049.113.113,0,0,1,.014.11.874.874,0,0,1-.043.1,4.878,4.878,0,0,1-1.989,1.96,3.058,3.058,0,0,1-2.158.317,1.168,1.168,0,0,0-.272-.029c-.3,0-.506.09-.549.176a23.567,23.567,0,0,0-1.022,2.455,3.316,3.316,0,0,1,1.294-1.035c.545-.257,1.114-.493,1.663-.72.25-.1.491-.2.733-.306a.119.119,0,0,1,.11.009.121.121,0,0,1,.052.1,7.725,7.725,0,0,1-1.955,3.163,3.1,3.1,0,0,1-1.789.738.783.783,0,0,0-.619.232.214.214,0,0,1-.1.066c-.059.02-.076.056-.1.178a23.878,23.878,0,0,0-.518,3.071c.032-.106.07-.212.113-.32A4.551,4.551,0,0,1,5.7,15.931c.349-.3.715-.589,1.069-.869l.016-.013.482-.383c.032-.027.065-.056.1-.086l.1-.086a.119.119,0,0,1,.128-.014.115.115,0,0,1,.065.112c-.005.07-.009.137-.013.2l0,.031c-.007.132-.016.256-.029.38a6.289,6.289,0,0,1-1.089,3.055,3.8,3.8,0,0,1-1.755,1.487,1.1,1.1,0,0,0-.511.392.831.831,0,0,0-.175.585,23.944,23.944,0,0,0,.2,2.729,3.712,3.712,0,0,1,.171-.772,5.927,5.927,0,0,1,.868-1.638c.347-.477.707-.956,1.057-1.418L6.4,19.59c.139-.184.277-.367.412-.549a.159.159,0,0,1,.085-.058.117.117,0,0,1,.16.07l0,.012a.265.265,0,0,1,.013.047,6.616,6.616,0,0,1-.452,3.931,4.322,4.322,0,0,1-1.251,1.742,1.957,1.957,0,0,0-.637.869.211.211,0,0,0-.022.117,20.614,20.614,0,0,0,1.035,3.172,4.033,4.033,0,0,1,.023-1.665,14.627,14.627,0,0,1,.749-2.288l.081-.2c.126-.319.254-.639.387-.97a.115.115,0,0,1,.211-.011l.043.079c.018.036.036.068.05.1a6.722,6.722,0,0,1,.545,3.737,4.821,4.821,0,0,1-.713,2.081,2.057,2.057,0,0,0-.4.978.346.346,0,0,0,.036.225,17.527,17.527,0,0,0,1.533,2.261l0-.005a4.025,4.025,0,0,1-.376-2.229c.036-.587.1-1.174.167-1.742l.005-.032c.025-.227.052-.456.076-.682.013-.13.029-.257.045-.391l.02-.176a.114.114,0,0,1,.065-.09.075.075,0,0,1,.041-.009c.067,0,.146.054.236.16a6.12,6.12,0,0,1,1.418,3.055,5.406,5.406,0,0,1-.3,3.031.267.267,0,0,0-.011.09l.022.506a.165.165,0,0,0,.038.092,13.571,13.571,0,0,0,2.52,1.917,3.342,3.342,0,0,1-.938-1.537,14.566,14.566,0,0,1-.446-2.167l-.009-.067c-.04-.25-.081-.5-.122-.76L10.7,31.94a.113.113,0,0,1,.043-.11.118.118,0,0,1,.117-.016l.041.018a.9.9,0,0,1,.117.052A5.026,5.026,0,0,1,13.7,36.633a2.3,2.3,0,0,0,.085.853.1.1,0,0,0,.041.056,13.642,13.642,0,0,0,2.367.767.113.113,0,0,1,.085.075.114.114,0,0,1-.022.114,1.865,1.865,0,0,0-.218.32.12.12,0,0,1-.1.061.143.143,0,0,1-.029,0,13.679,13.679,0,0,1-1.836-.558.243.243,0,0,0-.117-.023,4.025,4.025,0,0,0-.421.083.164.164,0,0,0-.063.027,2.462,2.462,0,0,1-1.748,1.289,4.538,4.538,0,0,1-.563.1,6.16,6.16,0,0,1-.661.032C10.169,39.822,9.933,39.8,9.931,39.8ZM8.3,33.274Zm8.843-8.487V21.021l7.126,3.6,7.128-3.6v3.766l-7.128,3.6Zm16.29-.169V18.113l-9.164,4.622-11.2-5.648,11.2-5.648,11.2,5.648v7.531Z" transform="translate(0 0)" fill="#3b3b3b"/></g></svg>
