<svg xmlns="http://www.w3.org/2000/svg" viewBox="0 0 48.001 47.716"><path d="M0,0H47.714V47.716H0Z" transform="translate(0)" fill="none"/><g transform="translate(0 2.043)"><path d="M36.906,39.557a4.317,4.317,0,0,1-.561-.1A2.454,2.454,0,0,1,34.6,38.174s-.026-.013-.058-.021a3.8,3.8,0,0,0-.418-.081.222.222,0,0,0-.117.022,13.365,13.365,0,0,1-1.827.554.12.12,0,0,1-.128-.058,1.883,1.883,0,0,0-.218-.319.117.117,0,0,1,.063-.189,13.447,13.447,0,0,0,2.354-.761.12.12,0,0,0,.042-.057,2.279,2.279,0,0,0,.082-.847A5,5,0,0,1,37.048,31.7c.036-.018.074-.034.118-.052l.041-.017a.12.12,0,0,1,.116.016.116.116,0,0,1,.043.11l-.047.289c-.041.256-.082.506-.121.757l-.01.063a14.724,14.724,0,0,1-.444,2.156,3.326,3.326,0,0,1-.932,1.527,13.488,13.488,0,0,0,2.506-1.906.167.167,0,0,0,.038-.092l.02-.5a.257.257,0,0,0-.009-.087,5.381,5.381,0,0,1-.3-3.013,6.1,6.1,0,0,1,1.41-3.037c.111-.131.214-.183.278-.149a.114.114,0,0,1,.062.09l.021.175c.015.131.031.259.044.387q.036.34.076.679l0,.032c.065.564.131,1.148.167,1.733a3.988,3.988,0,0,1-.374,2.214.049.049,0,0,1-.006.012,17.486,17.486,0,0,0,1.528-2.253.357.357,0,0,0,.036-.224,2.048,2.048,0,0,0-.4-.971,4.809,4.809,0,0,1-.709-2.068,6.685,6.685,0,0,1,.542-3.715c.015-.033.032-.066.051-.1l.042-.079a.114.114,0,0,1,.1-.063.119.119,0,0,1,.11.074c.131.33.257.649.383.965l.081.2a14.556,14.556,0,0,1,.745,2.274,4,4,0,0,1,.022,1.654,20.762,20.762,0,0,0,1.03-3.152.236.236,0,0,0-.022-.116,1.938,1.938,0,0,0-.634-.864,4.313,4.313,0,0,1-1.244-1.733A6.585,6.585,0,0,1,40.969,19a.26.26,0,0,1,.013-.047l0-.013a.118.118,0,0,1,.162-.068.16.16,0,0,1,.082.058l.409.544.023.031c.347.461.706.937,1.05,1.411a5.867,5.867,0,0,1,.862,1.628,3.744,3.744,0,0,1,.171.766,24.045,24.045,0,0,0,.194-2.711.826.826,0,0,0-.173-.581,1.082,1.082,0,0,0-.509-.391,3.793,3.793,0,0,1-1.744-1.478,6.237,6.237,0,0,1-1.082-3.038c-.014-.122-.021-.247-.029-.377l0-.031c0-.063-.008-.13-.013-.2a.115.115,0,0,1,.063-.112.118.118,0,0,1,.128.015l.1.085c.037.032.069.059.1.086l.479.382.017.013c.351.279.715.567,1.062.864a4.541,4.541,0,0,1,1.365,1.8c.042.108.08.214.112.319A23.435,23.435,0,0,0,43.3,14.9c-.029-.122-.045-.158-.1-.176a.224.224,0,0,1-.1-.068.772.772,0,0,0-.615-.229,3.073,3.073,0,0,1-1.778-.735,7.669,7.669,0,0,1-1.944-3.142.115.115,0,0,1,.162-.106q.359.151.718.3c.556.23,1.121.465,1.664.721a3.289,3.289,0,0,1,1.286,1.03,23.431,23.431,0,0,0-1.018-2.443.675.675,0,0,0-.544-.174,1.149,1.149,0,0,0-.27.03,3.042,3.042,0,0,1-2.146-.316,4.851,4.851,0,0,1-1.978-1.949,1.053,1.053,0,0,1-.042-.1.116.116,0,0,1,.108-.157l.283.017.5.03.175.009a8.68,8.68,0,0,1,1.591.179,2.859,2.859,0,0,1,1.385.7,20.887,20.887,0,0,0-1.285-1.9.244.244,0,0,0-.113-.048A1.093,1.093,0,0,0,39,6.344a.812.812,0,0,0-.4.093,3.07,3.07,0,0,1-2.424.078A3.967,3.967,0,0,1,34.3,5.11a.593.593,0,0,1-.047-.073.1.1,0,0,1,0-.093c.041-.087.222-.128.3-.141.186-.033.4-.07.606-.1l.288-.041.013,0c.326-.048.662-.1,1-.114a2.759,2.759,0,0,1,1.621.374q-.454-.483-.927-.915a4.58,4.58,0,0,0-.364-.3.162.162,0,0,0-.08-.022,3.634,3.634,0,0,1-2.761-1.465A5.571,5.571,0,0,1,32.961.241L32.953.213c-.026-.086-.041-.133.019-.189S33.1,0,33.3.075s.391.148.583.22c.4.149.814.3,1.21.473a3.548,3.548,0,0,1,1.572,1.3A1.941,1.941,0,0,1,37.019,3.4a.051.051,0,0,0,.008.02,18.536,18.536,0,0,1,2.029,2.066,6.083,6.083,0,0,1-.9-2.412A7.76,7.76,0,0,1,38.131.543c.008-.049.019-.1.033-.158l.021-.092a.119.119,0,0,1,.079-.086.115.115,0,0,1,.114.027c.047.044.094.086.139.127l.032.03A3.834,3.834,0,0,1,38.874.7a6.7,6.7,0,0,1,1.718,3.509,2.935,2.935,0,0,1-.112,1.5,2.032,2.032,0,0,1-.219.4c-.041.061-.079.12-.113.178a.179.179,0,0,0-.028.058c.015.166.039.355.072.592,0-.005,0,0,.016.018l.012.016a22.3,22.3,0,0,1,1.45,2.3,7.751,7.751,0,0,1-.3-2.23,5.913,5.913,0,0,1,.741-2.871.118.118,0,0,1,.094-.059.115.115,0,0,1,.1.047l.044.058c.032.041.06.08.087.121a6.411,6.411,0,0,1,.734,1.8,9.392,9.392,0,0,1,.365,2.489,2.92,2.92,0,0,1-.366,1.544,2.626,2.626,0,0,1-.268.352c-.056.065-.109.127-.157.19a.233.233,0,0,0-.051.115c-.006.151,0,.305,0,.454l0,.1a.16.16,0,0,0,.011.054,22.629,22.629,0,0,1,.818,2.344,7.756,7.756,0,0,1-.059-.8,5.818,5.818,0,0,1,1.341-3.9L45,8.845A.113.113,0,0,1,45.09,8.8l.02,0a.115.115,0,0,1,.089.074c.018.046.034.09.051.132.031.082.062.16.087.238a7.552,7.552,0,0,1,.314,2.186v.017a7.4,7.4,0,0,1-.232,2.394,2.935,2.935,0,0,1-.817,1.34l-.009.009a1.434,1.434,0,0,0-.437.548c-.014.052-.027.1-.042.157a1.357,1.357,0,0,0,.02.684,2.967,2.967,0,0,1,.057.375c.034.508.076,1.026.115,1.526l0,.047c.011.127.021.255.031.382a6.252,6.252,0,0,1,1.134-3.106,6.1,6.1,0,0,1,1.416-1.432c.023-.017.048-.031.08-.051.016-.009.035-.02.056-.033a.121.121,0,0,1,.113-.006.118.118,0,0,1,.064.093c.007.073.015.143.024.212a3.549,3.549,0,0,1,.036.438,9.149,9.149,0,0,1-.941,4.171,2.979,2.979,0,0,1-.693.911,1.8,1.8,0,0,1-.928.445.076.076,0,0,0-.031.018c-.015.033-.035.07-.054.108a2.016,2.016,0,0,0-.175.406,1.577,1.577,0,0,0-.029.376c0,.05,0,.1,0,.148a13.841,13.841,0,0,1-.262,2.6,5.088,5.088,0,0,1,.439-.914,5.885,5.885,0,0,1,2.888-2.5c.076-.031.152-.052.241-.078l.017-.005.116-.034a.119.119,0,0,1,.108.021.117.117,0,0,1,.041.1c-.008.083-.014.163-.02.241a2.758,2.758,0,0,1-.066.493,7.873,7.873,0,0,1-1.958,3.64,2.271,2.271,0,0,1-1.282.715,2.36,2.36,0,0,1-.5.005l-.07,0h-.028c-.02,0-.021,0-.033.018l-.326.448a.157.157,0,0,0-.014.041l-.005.017a22.7,22.7,0,0,1-1.249,3.29,6.44,6.44,0,0,1,.737-.85A5.74,5.74,0,0,1,46.8,27.614l.049,0a.116.116,0,0,1,.072.143c-.016.055-.032.112-.047.167a3.451,3.451,0,0,1-.122.386A5.794,5.794,0,0,1,45.547,30.1,4.829,4.829,0,0,1,44.1,31.249a2.6,2.6,0,0,1-1.812.229,1.045,1.045,0,0,1-.31-.123c-.069-.044-.088-.042-.157.008a2.8,2.8,0,0,1-.251.16c-.047.027-.094.055-.139.084a.275.275,0,0,0-.025.038,18.252,18.252,0,0,1-1.715,2.361,3.669,3.669,0,0,1,1.046-.538,5.077,5.077,0,0,1,3.449.134c.174.068.363.169.371.173a.119.119,0,0,1,.055.08.116.116,0,0,1-.022.091c-.036.047-.071.095-.105.141l-.008.01a3.611,3.611,0,0,1-.266.335,5.536,5.536,0,0,1-1.531,1.079,5.165,5.165,0,0,1-2.219.606c-.034,0-.069,0-.1,0a2.063,2.063,0,0,1-1.629-.688.11.11,0,0,0-.034-.007c-.152.011-.3.034-.414.052a.121.121,0,0,0-.051.026A14.5,14.5,0,0,1,36.053,37.1c.115-.034.234-.063.355-.087a4.462,4.462,0,0,1,2.548.3,5.968,5.968,0,0,1,1.744,1.1.116.116,0,0,1,.014.158,1.786,1.786,0,0,1-.683.5,6.049,6.049,0,0,1-1.9.5s-.238.021-.566.021A6.394,6.394,0,0,1,36.906,39.557Zm-27.034.01a6.061,6.061,0,0,1-1.9-.5,1.765,1.765,0,0,1-.682-.5.116.116,0,0,1,.014-.158,5.957,5.957,0,0,1,1.744-1.1,4.454,4.454,0,0,1,2.548-.3,3.644,3.644,0,0,1,.355.087A14.55,14.55,0,0,1,9.775,35.5a.118.118,0,0,0-.052-.025c-.112-.019-.261-.041-.418-.053a.085.085,0,0,0-.033.011,2.057,2.057,0,0,1-1.625.685l-.105,0a5.159,5.159,0,0,1-2.217-.607A5.489,5.489,0,0,1,3.793,34.43a3.488,3.488,0,0,1-.266-.334l-.008-.01c-.034-.048-.069-.095-.105-.142a.115.115,0,0,1-.023-.089.121.121,0,0,1,.051-.078,3.688,3.688,0,0,1,.375-.175,5.074,5.074,0,0,1,3.45-.134A3.631,3.631,0,0,1,8.311,34,18.2,18.2,0,0,1,6.6,31.643a.21.21,0,0,0-.027-.039c-.043-.028-.09-.055-.137-.082a2.8,2.8,0,0,1-.251-.16c-.068-.05-.087-.052-.157-.008a1.052,1.052,0,0,1-.311.122A2.6,2.6,0,0,1,3.9,31.248,4.829,4.829,0,0,1,2.453,30.1a5.794,5.794,0,0,1-1.205-1.788,3.368,3.368,0,0,1-.12-.376c-.018-.066-.033-.122-.049-.178a.115.115,0,0,1,.072-.142l.019,0H1.2a5.738,5.738,0,0,1,3.619,1.246,6.374,6.374,0,0,1,.737.85,22.817,22.817,0,0,1-1.249-3.29L4.3,26.4a.175.175,0,0,0-.014-.042l-.325-.446c-.013-.019-.014-.019-.033-.019H3.9l-.07,0a2.423,2.423,0,0,1-.5-.005,2.271,2.271,0,0,1-1.282-.715,7.881,7.881,0,0,1-1.958-3.64,2.659,2.659,0,0,1-.065-.492c-.005-.078-.012-.158-.021-.24a.119.119,0,0,1,.041-.1.114.114,0,0,1,.109-.021l.115.034.017.005a2.393,2.393,0,0,1,.242.078,5.883,5.883,0,0,1,2.887,2.5,5.059,5.059,0,0,1,.439.914,13.924,13.924,0,0,1-.262-2.6c0-.049,0-.1,0-.148a1.589,1.589,0,0,0-.029-.377,2.016,2.016,0,0,0-.175-.406c-.019-.037-.039-.075-.057-.112a.107.107,0,0,0-.029-.014,1.787,1.787,0,0,1-.927-.445,2.983,2.983,0,0,1-.693-.912,9.147,9.147,0,0,1-.941-4.171,3.792,3.792,0,0,1,.036-.434c.009-.073.017-.143.024-.215a.116.116,0,0,1,.176-.087l.057.034a.9.9,0,0,1,.08.051,6.062,6.062,0,0,1,1.416,1.432,6.249,6.249,0,0,1,1.134,3.106c.01-.128.021-.256.031-.383l0-.046c.041-.5.082-1.018.115-1.526a2.9,2.9,0,0,1,.057-.371,1.39,1.39,0,0,0,.021-.689c-.016-.051-.03-.1-.042-.157a1.447,1.447,0,0,0-.437-.548l-.01-.008a2.937,2.937,0,0,1-.816-1.34,7.382,7.382,0,0,1-.232-2.394v-.018a7.553,7.553,0,0,1,.313-2.185c.025-.079.056-.157.088-.238.016-.042.033-.086.05-.133a.118.118,0,0,1,.09-.074l.019,0A.117.117,0,0,1,3,8.845l.192.233a5.813,5.813,0,0,1,1.34,3.9,7.252,7.252,0,0,1-.058.8,22.92,22.92,0,0,1,.819-2.344.175.175,0,0,0,.011-.054l0-.1c0-.149.006-.3,0-.454a.238.238,0,0,0-.05-.115c-.049-.063-.1-.125-.153-.185a2.59,2.59,0,0,1-.272-.356,2.923,2.923,0,0,1-.366-1.545,9.4,9.4,0,0,1,.365-2.489,6.407,6.407,0,0,1,.734-1.8c.026-.041.056-.08.087-.121.014-.018.029-.037.043-.058a.117.117,0,0,1,.093-.048.121.121,0,0,1,.1.06A5.9,5.9,0,0,1,6.63,7.044a7.705,7.705,0,0,1-.3,2.229,22.236,22.236,0,0,1,1.451-2.3l.011-.015c.014-.018.018-.025.02-.028.031-.228.053-.418.069-.589a.441.441,0,0,0-.028-.051c-.035-.06-.073-.119-.112-.176a2.049,2.049,0,0,1-.221-.4,2.935,2.935,0,0,1-.111-1.5A6.7,6.7,0,0,1,9.127.7,4,4,0,0,1,9.452.39L9.483.361c.046-.041.092-.083.139-.128a.116.116,0,0,1,.193.059l.022.093c.014.061.025.11.033.157a7.785,7.785,0,0,1-.029,2.534,6.1,6.1,0,0,1-.9,2.413,18.6,18.6,0,0,1,2.032-2.07s0-.013.005-.019a1.934,1.934,0,0,1,.35-1.336,3.544,3.544,0,0,1,1.572-1.3C13.3.595,13.712.443,14.11.3c.2-.073.39-.144.581-.218.211-.084.292-.1.337-.053s.046.1.02.189l-.008.028a5.559,5.559,0,0,1-.987,1.98,3.629,3.629,0,0,1-2.762,1.465.167.167,0,0,0-.078.022c-.154.115-.266.206-.365.3q-.471.432-.927.916a2.757,2.757,0,0,1,1.622-.375c.339.017.676.067,1,.115l.012,0,.288.041c.21.029.42.066.607.1.076.014.256.055.3.142a.1.1,0,0,1,0,.092.6.6,0,0,1-.048.073,3.957,3.957,0,0,1-1.876,1.4A3.068,3.068,0,0,1,9.4,6.437.83.83,0,0,0,9,6.343a.989.989,0,0,0-.227.024.261.261,0,0,0-.119.048,21.263,21.263,0,0,0-1.285,1.9,2.864,2.864,0,0,1,1.385-.7,8.7,8.7,0,0,1,1.591-.179l.175-.009c.164-.008.328-.019.5-.03l.275-.017h0a.119.119,0,0,1,.1.048.115.115,0,0,1,.015.109.87.87,0,0,1-.042.1A4.851,4.851,0,0,1,9.387,9.592a3.037,3.037,0,0,1-2.146.316,1.149,1.149,0,0,0-.27-.03.676.676,0,0,0-.545.175A23.606,23.606,0,0,0,5.409,12.5,3.289,3.289,0,0,1,6.7,11.466c.543-.256,1.108-.49,1.655-.716.248-.1.488-.2.728-.3a.118.118,0,0,1,.109.01.115.115,0,0,1,.052.1A7.671,7.671,0,0,1,7.295,13.7a3.073,3.073,0,0,1-1.778.734.773.773,0,0,0-.616.23.222.222,0,0,1-.1.067c-.059.019-.075.055-.1.176a23.449,23.449,0,0,0-.514,3.054c.031-.106.069-.212.112-.32a4.539,4.539,0,0,1,1.365-1.8c.347-.3.711-.585,1.062-.863l.017-.013c.16-.127.319-.253.479-.382.033-.026.065-.053.1-.085l.1-.085a.118.118,0,0,1,.128-.015.115.115,0,0,1,.063.112c0,.07-.009.137-.013.2l0,.03c-.008.13-.015.255-.029.377a6.237,6.237,0,0,1-1.082,3.038,3.793,3.793,0,0,1-1.744,1.478,1.088,1.088,0,0,0-.509.391.826.826,0,0,0-.173.581,23.867,23.867,0,0,0,.194,2.712,3.681,3.681,0,0,1,.171-.767,5.88,5.88,0,0,1,.862-1.628c.345-.474.7-.95,1.05-1.411l.023-.031c.138-.183.275-.365.41-.545a.163.163,0,0,1,.084-.057.124.124,0,0,1,.094,0,.117.117,0,0,1,.065.072l0,.013A.319.319,0,0,1,7.033,19a6.584,6.584,0,0,1-.448,3.907,4.315,4.315,0,0,1-1.244,1.733,1.937,1.937,0,0,0-.634.864.226.226,0,0,0-.023.117,20.651,20.651,0,0,0,1.03,3.151,3.992,3.992,0,0,1,.022-1.653,14.568,14.568,0,0,1,.745-2.275l.08-.2.384-.965a.116.116,0,0,1,.1-.073.118.118,0,0,1,.109.062l.042.08c.019.034.036.067.051.1a6.681,6.681,0,0,1,.542,3.714,4.8,4.8,0,0,1-.71,2.068,2.047,2.047,0,0,0-.4.972.349.349,0,0,0,.036.223,17.509,17.509,0,0,0,1.527,2.253.067.067,0,0,0-.006-.011,4,4,0,0,1-.373-2.215c.035-.584.1-1.167.167-1.732l0-.033c.025-.226.051-.452.075-.678.014-.129.029-.257.045-.388l.021-.176a.116.116,0,0,1,.063-.091.1.1,0,0,1,.042-.009c.067,0,.145.054.235.159A6.1,6.1,0,0,1,9.93,30.942a5.374,5.374,0,0,1-.294,3.013.294.294,0,0,0-.01.089l.021.5a.166.166,0,0,0,.038.09,13.522,13.522,0,0,0,2.506,1.905,3.323,3.323,0,0,1-.933-1.527,14.746,14.746,0,0,1-.443-2.155L10.8,32.8c-.039-.25-.079-.5-.121-.756l-.047-.289a.116.116,0,0,1,.159-.125l.041.016c.044.018.082.034.118.052a5,5,0,0,1,2.668,4.721,2.305,2.305,0,0,0,.083.848.121.121,0,0,0,.041.056,13.4,13.4,0,0,0,2.354.761.118.118,0,0,1,.085.076.114.114,0,0,1-.022.113,1.92,1.92,0,0,0-.218.319.114.114,0,0,1-.1.062.139.139,0,0,1-.027,0,13.465,13.465,0,0,1-1.825-.554.233.233,0,0,0-.117-.023,3.962,3.962,0,0,0-.418.082.192.192,0,0,0-.063.028,2.447,2.447,0,0,1-1.737,1.279,4.331,4.331,0,0,1-.562.1,6.1,6.1,0,0,1-.656.032C10.109,39.587,9.874,39.567,9.872,39.567Zm6.756-12.549V18.542l-1.617,1.238-1.094-1.436,9.941-7.592,9.94,7.592L32.705,19.77l-1.617-1.229v8.476Z" transform="translate(0 0)" fill="#3b3b3b"/></g></svg>
