<svg xmlns="http://www.w3.org/2000/svg" fill-rule="evenodd" stroke-linejoin="round" stroke-miterlimit="2" clip-rule="evenodd" viewBox="0 0 49 48">
  <defs />
  <path fill="none" d="M.14 0h47.71v47.72H.15z" />
  <path fill="#3b3b3b" fill-rule="nonzero" d="M36.9 43.61a4.28 4.28 0 01-.56-.1c-.75-.13-1.4-.6-1.74-1.28-.35-.67-.03-.01-.06-.02a3.72 3.72 0 00-.42-.08 13.4 13.4 0 01-1.94.58.12.12 0 01-.13-.06 1.93 1.93 0 00-.22-.32.12.12 0 01.06-.19c.81-.18 1.6-.44 2.36-.76a.12.12 0 00.04-.06c.08-.27.1-.56.08-.85a5 5 0 012.8-4.76l.04-.02c.03-.02.08-.01.11.01.03.03.05.07.04.11l-.04.3-.12.75-.01.06c-.1.73-.25 1.45-.45 2.16a3.32 3.32 0 01-.93 1.53c.9-.54 1.75-1.18 2.5-1.9a.16.16 0 00.04-.1l.02-.5v-.09c-.4-.95-.5-2-.3-3.01a6.1 6.1 0 011.4-3.04c.12-.13.22-.18.28-.15.04.02.06.05.07.1l.02.17.04.38.08.68v.04c.06.56.13 1.14.16 1.73a3.99 3.99 0 01-.38 2.22c.57-.7 1.08-1.46 1.53-2.25a.35.35 0 00.04-.22 2.05 2.05 0 00-.4-.97 4.8 4.8 0 01-.71-2.07 6.68 6.68 0 01.6-3.82l.03-.08a.12.12 0 01.1-.06c.05 0 .1.03.11.08l.39.96.08.2c.3.74.56 1.5.74 2.27a4 4 0 01.02 1.66 20.8 20.8 0 001.03-3.15c0-.04 0-.08-.02-.12a1.94 1.94 0 00-.63-.86 4.31 4.31 0 01-1.25-1.74 6.59 6.59 0 01-.42-3.96V23a.12.12 0 01.16-.07c.04.01.06.03.08.06l.41.54.03.03 1.05 1.41c.37.5.66 1.05.86 1.63.08.25.14.5.17.77.12-.9.18-1.8.2-2.71a.83.83 0 00-.18-.58c-.13-.18-.3-.32-.5-.4a3.8 3.8 0 01-1.75-1.47c-.62-.9-1-1.95-1.08-3.04-.02-.12-.03-.25-.03-.38v-.03l-.02-.2c0-.05.02-.09.07-.11.04-.02.09-.02.12.01l.1.09.1.08.48.39.02.01c.35.28.72.57 1.06.86a4.54 4.54 0 011.48 2.12 23.4 23.4 0 00-.51-3.05c-.03-.12-.05-.16-.1-.18a.22.22 0 01-.1-.07.77.77 0 00-.62-.23 3.07 3.07 0 01-1.77-.73 7.67 7.67 0 01-1.95-3.14.12.12 0 01.16-.1l.72.3c.56.22 1.12.46 1.67.71.5.23.95.59 1.28 1.03-.3-.83-.63-1.65-1.02-2.44a.68.68 0 00-.54-.17c-.1 0-.18 0-.27.03-.73.16-1.5.04-2.15-.32a4.85 4.85 0 01-2.02-2.09c0-.06.05-.12.11-.12l.28.02.5.03.18.01c.53.01 1.07.07 1.59.18.52.1 1 .34 1.39.7-.4-.66-.83-1.3-1.29-1.9a.25.25 0 00-.11-.05 1.13 1.13 0 00-.24-.03.8.8 0 00-.4.1c-.76.35-1.64.38-2.43.07a3.97 3.97 0 01-1.92-1.48.1.1 0 010-.09c.04-.09.22-.13.3-.14l.6-.1.3-.04c.33-.05.67-.1 1-.11.57-.05 1.14.08 1.63.37a17.34 17.34 0 00-1.3-1.22.16.16 0 00-.07-.02 3.63 3.63 0 01-2.76-1.46 5.58 5.58 0 01-1-1.98v-.03c-.02-.09-.04-.13.02-.19.06-.05.13-.02.33.05l.58.22c.4.15.82.3 1.21.48.64.27 1.19.72 1.57 1.3.28.38.4.86.36 1.33v.02c.73.63 1.41 1.32 2.03 2.06a6.07 6.07 0 01-.9-2.4 7.76 7.76 0 01.01-2.7l.02-.09c.01-.04.04-.07.08-.09.04 0 .09 0 .12.03l.14.13.03.03.32.3c.91.98 1.5 2.2 1.72 3.52.1.5.06 1.01-.11 1.5-.06.14-.13.27-.22.4a3.44 3.44 0 00-.14.23l.07.6.02.01v.02c.54.73 1.02 1.5 1.46 2.3-.21-.73-.31-1.48-.3-2.23 0-1 .25-2 .74-2.87a.12.12 0 01.2-.01l.04.05.08.12a9.4 9.4 0 011.1 4.29c.03.54-.1 1.08-.36 1.55-.08.12-.17.24-.27.35l-.16.19a.24.24 0 00-.05.11v.56l.01.05c.32.77.59 1.55.82 2.35a5.82 5.82 0 011.28-4.7l.2-.24a.11.11 0 01.09-.04h.02c.04 0 .07.03.09.07l.05.13.09.24c.2.71.31 1.45.3 2.19v.01a7.4 7.4 0 01-.22 2.4c-.15.51-.43.97-.82 1.34-.2.15-.35.34-.45.56l-.04.15c-.05.23-.04.46.02.69.03.12.05.25.06.37l.11 1.53v.04l.04.39a6.25 6.25 0 012.55-4.54l.08-.05.05-.04a.12.12 0 01.11 0c.04.02.06.05.07.1l.02.2a9.15 9.15 0 01-.9 4.6c-.17.36-.4.67-.7.92a1.8 1.8 0 01-.92.45.07.07 0 00-.03.02l-.06.1c-.07.13-.13.27-.17.41-.03.12-.04.25-.03.38v.14c0 .88-.1 1.75-.26 2.6a5.89 5.89 0 013.33-3.41l.23-.08.14-.04c.03 0 .07 0 .1.02.03.03.05.07.05.1l-.02.25c-.01.16-.03.33-.07.49a7.87 7.87 0 01-1.96 3.64c-.33.37-.79.62-1.28.71-.17.02-.33.02-.5 0h-.1c-.02 0-.02 0-.03.03l-.33.44-.01.05v.01a22.76 22.76 0 01-1.26 3.3c.22-.31.47-.6.74-.86a5.74 5.74 0 013.62-1.24h.05c.06.02.09.09.07.14a10.42 10.42 0 00-.17.56 5.8 5.8 0 01-1.2 1.79c-.4.47-.9.86-1.45 1.15-.56.29-1.2.37-1.81.23-.11-.03-.22-.07-.31-.13-.07-.04-.1-.04-.16.01a2.88 2.88 0 01-.4.24c0 .02 0 .03-.02.04-.5.83-1.08 1.62-1.71 2.36.32-.23.67-.41 1.05-.53a5.08 5.08 0 013.44.13l.38.17.05.08c0 .03 0 .07-.02.1l-.1.13-.01.01-.27.34c-.45.44-.96.8-1.53 1.08-.69.36-1.44.57-2.22.6h-.1a2.06 2.06 0 01-1.63-.68l-.03-.01a4.95 4.95 0 00-.47.08c-.67.6-1.4 1.13-2.18 1.6a4.46 4.46 0 012.9.21c.65.26 1.24.64 1.75 1.1.04.04.05.11.01.16a1.8 1.8 0 01-.68.5c-.6.27-1.24.44-1.9.5-.66.06-.24.02-.57.02-.22 0-.44-.01-.66-.04zm-27.03.01a6.05 6.05 0 01-1.9-.5c-.26-.1-.5-.28-.68-.5a.12.12 0 01.01-.15c.52-.47 1.1-.84 1.75-1.1a4.45 4.45 0 012.9-.22 14.53 14.53 0 01-2.23-1.62 4.67 4.67 0 00-.45-.04c-.41.46-1 .71-1.62.69h-.11a5.17 5.17 0 01-2.22-.61 5.48 5.48 0 01-1.53-1.08c-.1-.1-.18-.22-.26-.34h-.01l-.1-.15a.11.11 0 01-.03-.09c0-.03.02-.06.05-.08l.38-.17c1.1-.45 2.32-.5 3.45-.13.37.12.72.3 1.04.53a18.22 18.22 0 01-1.74-2.4l-.14-.08-.25-.16c-.06-.05-.08-.05-.15 0-.1.05-.2.09-.31.11a2.6 2.6 0 01-1.82-.22 4.83 4.83 0 01-1.45-1.15 5.79 5.79 0 01-1.32-2.17l-.05-.17a.11.11 0 01.07-.15h.05c1.31 0 2.59.43 3.62 1.25.27.26.51.54.73.85-.5-1.06-.91-2.16-1.24-3.29l-.01-.02-.02-.04-.32-.45c-.01-.02-.01-.02-.03-.02h-.1c-.17.02-.34.01-.5 0-.5-.1-.95-.35-1.28-.72A7.87 7.87 0 01.09 25.6a2.63 2.63 0 01-.07-.5c0-.07 0-.15-.02-.23 0-.04.01-.08.04-.1a.12.12 0 01.11-.02l.12.03h.01l.25.08a5.88 5.88 0 013.32 3.42c-.17-.86-.25-1.73-.26-2.6v-.15c0-.13 0-.25-.03-.38-.04-.14-.1-.27-.17-.4l-.06-.11-.03-.02c-.35-.05-.67-.2-.93-.44a2.97 2.97 0 01-.69-.92 9.15 9.15 0 01-.9-4.6l.02-.22a.12.12 0 01.18-.08l.05.03.08.05a6.25 6.25 0 012.55 4.54l.03-.38v-.05a91 91 0 00.12-1.52c0-.13.03-.25.06-.38a1.39 1.39 0 00-.03-.84c-.1-.22-.24-.4-.43-.55H3.4a2.94 2.94 0 01-.82-1.35 7.38 7.38 0 01-.23-2.4c0-.75.1-1.49.31-2.2l.09-.23.05-.14a.12.12 0 01.09-.07h.02c.03 0 .07.02.09.04l.19.24a5.81 5.81 0 011.28 4.7 22.82 22.82 0 01.83-2.4v-.1-.46a.23.23 0 00-.05-.11l-.15-.19a2.6 2.6 0 01-.27-.35c-.26-.47-.4-1-.37-1.55a9.4 9.4 0 011.1-4.29l.09-.12.04-.06a.12.12 0 01.1-.04c.03 0 .07.02.1.06.48.88.74 1.87.74 2.87 0 .76-.1 1.5-.3 2.23.43-.8.92-1.56 1.45-2.3l.01-.01.02-.03.07-.6a2.93 2.93 0 01-.47-2.13 6.7 6.7 0 012.04-3.81l.03-.03.14-.13a.12.12 0 01.08-.03c.05 0 .1.04.11.09l.03.1.03.15c.13.84.12 1.7-.03 2.53a6.1 6.1 0 01-.9 2.42c.62-.75 1.3-1.44 2.03-2.07.73-.64 0-.02 0-.02-.05-.48.08-.95.36-1.34.38-.58.93-1.03 1.57-1.3a23.76 23.76 0 011.79-.68c.21-.08.3-.1.34-.05.04.04.04.1.02.19l-.01.02c-.2.72-.53 1.4-.99 1.98a3.63 3.63 0 01-2.76 1.47c-.03 0-.05 0-.08.02-.15.12-.26.2-.36.3-.32.29-.63.6-.93.92a2.76 2.76 0 011.62-.38c.34.02.68.07 1 .12h.01l.3.04.6.1c.07.01.25.05.3.14a.1.1 0 010 .1 3.96 3.96 0 01-1.92 1.47c-.8.3-1.67.27-2.43-.09a.96.96 0 00-.63-.07.26.26 0 00-.12.05c-.46.61-.89 1.25-1.28 1.9.39-.35.87-.6 1.38-.7.53-.1 1.06-.17 1.6-.18h.17l.5-.04.27-.01c.04 0 .08.01.1.05.03.03.03.07.02.1a4.85 4.85 0 01-2.02 2.05c-.66.38-1.42.49-2.15.33a1.11 1.11 0 00-.27-.03.68.68 0 00-.55.17c-.38.8-.72 1.61-1.01 2.45.33-.45.78-.8 1.29-1.04a37.22 37.22 0 012.38-1.01.12.12 0 01.11 0c.03.03.05.07.05.1a7.67 7.67 0 01-1.95 3.15c-.5.43-1.12.68-1.77.73a.77.77 0 00-.62.23.23.23 0 01-.1.07c-.06.02-.08.05-.1.17-.24 1.01-.41 2.03-.51 3.06l.1-.32c.3-.7.77-1.33 1.37-1.8.35-.3.71-.59 1.06-.86l.02-.02.48-.38.1-.08.1-.09a.12.12 0 01.13-.01c.04.02.07.06.06.1l-.01.2v.04l-.03.37a6.23 6.23 0 01-1.08 3.04 3.8 3.8 0 01-1.75 1.48c-.2.08-.38.21-.5.4a.83.83 0 00-.18.57c.01.91.08 1.81.2 2.71.02-.26.08-.51.17-.76.2-.59.49-1.14.86-1.63l1.05-1.41.02-.03.41-.55a.17.17 0 01.09-.05.13.13 0 01.09 0c.03 0 .05.04.06.07v.01l.02.04c.25 1.31.1 2.68-.45 3.9-.26.68-.69 1.27-1.24 1.74-.29.22-.5.52-.63.86a.23.23 0 00-.03.12c.26 1.07.6 2.13 1.03 3.15-.1-.55-.1-1.11.02-1.65.19-.78.44-1.54.75-2.28l.08-.2.38-.96a.11.11 0 01.1-.08c.05 0 .1.03.11.07l.04.08.06.1c.53 1.16.72 2.45.54 3.71a4.79 4.79 0 01-.71 2.07c-.22.28-.36.62-.4.97-.02.08 0 .15.03.22a17.52 17.52 0 001.52 2.24 4 4 0 01-.37-2.21c.04-.58.1-1.17.17-1.73v-.04l.07-.67.05-.4.02-.17c0-.04.03-.07.06-.09a.1.1 0 01.04 0c.07 0 .15.05.24.15a6.1 6.1 0 011.11 6.14l.03.5c0 .03.01.07.03.1.76.72 1.6 1.36 2.5 1.9a3.32 3.32 0 01-.92-1.53c-.2-.7-.35-1.43-.45-2.16l-.01-.05-.12-.76-.05-.29v-.02c0-.06.05-.11.12-.11h.04l.04.02.12.06a5 5 0 012.67 4.72c-.03.28 0 .57.08.84 0 .03.02.05.04.06.76.33 1.55.58 2.35.76.04.01.08.04.09.08.01.04 0 .08-.02.11-.09.1-.16.2-.22.32a.11.11 0 01-.1.06h-.03a13.33 13.33 0 01-1.94-.58 3.96 3.96 0 00-.48.11c-.35.68-1 1.15-1.74 1.28a4.3 4.3 0 01-1.22.14l-.56-.04zm6.76-12.54V22.6L15 23.84l-1.1-1.44 9.95-7.59 9.94 7.6-1.1 1.42-1.61-1.23v8.47H16.63z" />
</svg>
