<svg xmlns="http://www.w3.org/2000/svg" viewBox="0 0 48 48"><g transform="translate(0)"><path d="M0,0H47V48H0Z" transform="translate(1)" fill="none"/><g transform="translate(0 1.992)"><path d="M36.905,39.555a4.317,4.317,0,0,1-.561-.1A2.453,2.453,0,0,1,34.6,38.173a.427.427,0,0,0-.059-.021,3.732,3.732,0,0,0-.418-.082.22.22,0,0,0-.116.023,13.366,13.366,0,0,1-1.827.554.119.119,0,0,1-.128-.058,1.89,1.89,0,0,0-.218-.319.116.116,0,0,1,.062-.188,13.531,13.531,0,0,0,2.354-.761.123.123,0,0,0,.041-.057,2.265,2.265,0,0,0,.083-.847,5,5,0,0,1,2.668-4.722c.036-.018.074-.034.117-.051l.041-.017a.117.117,0,0,1,.117.016.114.114,0,0,1,.042.109l-.047.29c-.041.256-.082.506-.121.756l-.01.064a14.651,14.651,0,0,1-.443,2.156,3.33,3.33,0,0,1-.932,1.526,13.438,13.438,0,0,0,2.5-1.905.173.173,0,0,0,.039-.093l.02-.5a.283.283,0,0,0-.01-.086,5.374,5.374,0,0,1-.294-3.013,6.089,6.089,0,0,1,1.409-3.037c.112-.131.214-.183.278-.149a.113.113,0,0,1,.062.089l.021.176c.016.13.031.258.045.387.023.226.049.452.076.679l0,.032c.064.564.131,1.147.167,1.733a4,4,0,0,1-.374,2.214.049.049,0,0,0-.006.012,17.572,17.572,0,0,0,1.527-2.253.346.346,0,0,0,.036-.224,2.047,2.047,0,0,0-.4-.972,4.8,4.8,0,0,1-.71-2.068,6.683,6.683,0,0,1,.543-3.714c.014-.033.031-.066.05-.1l.042-.079a.114.114,0,0,1,.1-.063.119.119,0,0,1,.11.074l.384.965.08.2a14.505,14.505,0,0,1,.745,2.275,4,4,0,0,1,.023,1.654,20.662,20.662,0,0,0,1.03-3.152.213.213,0,0,0-.022-.116,1.938,1.938,0,0,0-.634-.864,4.327,4.327,0,0,1-1.244-1.733A6.592,6.592,0,0,1,40.967,19a.366.366,0,0,1,.013-.047l0-.013a.114.114,0,0,1,.065-.07.116.116,0,0,1,.1,0,.161.161,0,0,1,.083.058l.409.544.023.031c.347.461.706.937,1.05,1.411a5.867,5.867,0,0,1,.862,1.628,3.69,3.69,0,0,1,.172.766,24.257,24.257,0,0,0,.194-2.711.831.831,0,0,0-.174-.581,1.08,1.08,0,0,0-.508-.391,3.791,3.791,0,0,1-1.745-1.478,6.246,6.246,0,0,1-1.082-3.038c-.014-.122-.021-.247-.029-.377l0-.03c0-.064-.007-.13-.013-.2a.116.116,0,0,1,.064-.112.117.117,0,0,1,.127.015l.1.085c.037.032.068.059.1.085.159.129.319.255.479.382l.017.013c.352.278.715.566,1.062.863a4.539,4.539,0,0,1,1.365,1.8c.043.108.08.214.112.319A23.436,23.436,0,0,0,43.3,14.9c-.029-.122-.045-.157-.1-.176a.227.227,0,0,1-.1-.068.772.772,0,0,0-.615-.23,3.078,3.078,0,0,1-1.778-.734,7.671,7.671,0,0,1-1.945-3.143.117.117,0,0,1,.163-.106c.238.1.479.2.717.3.556.23,1.121.464,1.664.721A3.3,3.3,0,0,1,42.591,12.5a23.7,23.7,0,0,0-1.017-2.444.676.676,0,0,0-.545-.174,1.19,1.19,0,0,0-.269.03,3.043,3.043,0,0,1-2.146-.315,4.852,4.852,0,0,1-1.977-1.949.953.953,0,0,1-.043-.1.116.116,0,0,1,.108-.157l.284.018c.168.01.332.021.5.029l.175.009a8.689,8.689,0,0,1,1.591.179,2.867,2.867,0,0,1,1.385.7,21.264,21.264,0,0,0-1.285-1.9.264.264,0,0,0-.114-.047A1.063,1.063,0,0,0,39,6.343a.822.822,0,0,0-.4.093,3.068,3.068,0,0,1-2.423.078,3.957,3.957,0,0,1-1.876-1.4.587.587,0,0,1-.048-.072.1.1,0,0,1,0-.093c.041-.087.221-.129.3-.142.186-.032.4-.069.607-.1l.288-.041.012,0c.326-.048.663-.1,1-.115a2.758,2.758,0,0,1,1.62.375q-.454-.483-.926-.916c-.1-.09-.212-.182-.364-.3a.165.165,0,0,0-.081-.022,3.628,3.628,0,0,1-2.76-1.465A5.543,5.543,0,0,1,32.96.241L32.951.213c-.026-.086-.04-.133.02-.189S33.1,0,33.3.075s.392.148.584.22c.4.148.813.3,1.21.473a3.548,3.548,0,0,1,1.572,1.3,1.939,1.939,0,0,1,.35,1.338.108.108,0,0,0,.008.019,18.552,18.552,0,0,1,2.029,2.067,6.1,6.1,0,0,1-.9-2.413A7.754,7.754,0,0,1,38.129.543c.008-.049.02-.1.034-.158l.021-.093a.116.116,0,0,1,.193-.059c.048.045.094.086.139.128l.032.029A4,4,0,0,1,38.873.7,6.7,6.7,0,0,1,40.59,4.214a2.931,2.931,0,0,1-.111,1.5,1.984,1.984,0,0,1-.22.4c-.041.061-.078.12-.113.179a.2.2,0,0,0-.028.058c.016.165.039.355.072.591,0-.005,0,0,.016.018l.012.017a22.047,22.047,0,0,1,1.451,2.3,7.739,7.739,0,0,1-.3-2.23,5.911,5.911,0,0,1,.742-2.87.116.116,0,0,1,.094-.059.114.114,0,0,1,.1.047l.044.058c.031.041.061.079.087.121a6.38,6.38,0,0,1,.734,1.8,9.392,9.392,0,0,1,.365,2.489,2.923,2.923,0,0,1-.366,1.545,2.476,2.476,0,0,1-.268.351c-.055.065-.108.127-.157.191a.228.228,0,0,0-.051.114c-.006.151,0,.305,0,.455l0,.1a.186.186,0,0,0,.011.054,22.629,22.629,0,0,1,.818,2.344,7.756,7.756,0,0,1-.059-.8,5.818,5.818,0,0,1,1.341-3.9L45,8.844a.115.115,0,0,1,.09-.042l.019,0a.114.114,0,0,1,.089.074c.018.046.035.09.051.133.032.081.062.159.088.238a7.543,7.543,0,0,1,.313,2.185v.017a7.378,7.378,0,0,1-.232,2.394,2.932,2.932,0,0,1-.817,1.341l-.009.008a1.44,1.44,0,0,0-.437.548c-.013.052-.026.1-.042.157a1.367,1.367,0,0,0,.02.684,2.967,2.967,0,0,1,.058.375c.033.509.075,1.026.114,1.526l0,.047c.011.127.021.255.032.382a6.243,6.243,0,0,1,1.133-3.106,6.1,6.1,0,0,1,1.416-1.432.909.909,0,0,1,.08-.05l.057-.034a.117.117,0,0,1,.112-.005.115.115,0,0,1,.064.092c.007.073.016.143.024.211a3.739,3.739,0,0,1,.037.438,9.161,9.161,0,0,1-.942,4.171,2.979,2.979,0,0,1-.693.911,1.786,1.786,0,0,1-.928.445.088.088,0,0,0-.03.019l-.055.108a2.069,2.069,0,0,0-.175.406,1.577,1.577,0,0,0-.029.376c0,.05,0,.1,0,.148a13.774,13.774,0,0,1-.262,2.6,5.088,5.088,0,0,1,.439-.914,5.885,5.885,0,0,1,2.888-2.5c.076-.031.152-.052.241-.078l.018-.005.115-.034a.115.115,0,0,1,.149.123c-.008.083-.014.163-.02.24a2.757,2.757,0,0,1-.066.494,7.882,7.882,0,0,1-1.958,3.64,2.264,2.264,0,0,1-1.282.715,2.342,2.342,0,0,1-.5.006l-.069,0h-.029c-.019,0-.021,0-.033.018l-.326.447a.237.237,0,0,0-.014.041l0,.016a22.871,22.871,0,0,1-1.249,3.29,6.551,6.551,0,0,1,.736-.85A5.743,5.743,0,0,1,46.8,27.613l.049,0a.116.116,0,0,1,.073.142c-.017.056-.032.112-.048.168a3.646,3.646,0,0,1-.122.386A5.814,5.814,0,0,1,45.545,30.1,4.832,4.832,0,0,1,44.1,31.248a2.6,2.6,0,0,1-1.812.229,1.052,1.052,0,0,1-.311-.122c-.069-.044-.088-.043-.157.008a2.6,2.6,0,0,1-.251.159c-.046.027-.093.055-.139.084a.391.391,0,0,0-.025.038A18.13,18.13,0,0,1,39.688,34a3.681,3.681,0,0,1,1.046-.538,5.072,5.072,0,0,1,3.449.135,3.557,3.557,0,0,1,.371.173.123.123,0,0,1,.056.08.119.119,0,0,1-.023.09c-.036.047-.071.095-.105.141l-.008.011a3.726,3.726,0,0,1-.266.334,5.5,5.5,0,0,1-1.531,1.079,5.166,5.166,0,0,1-2.218.607l-.1,0a2.06,2.06,0,0,1-1.629-.688.109.109,0,0,0-.034-.008c-.153.011-.3.034-.414.053a.118.118,0,0,0-.052.025,14.5,14.5,0,0,1-2.172,1.595c.115-.034.233-.064.355-.087a4.453,4.453,0,0,1,2.548.3,5.957,5.957,0,0,1,1.744,1.1.116.116,0,0,1,.014.158,1.775,1.775,0,0,1-.682.5,6.037,6.037,0,0,1-1.9.5s-.237.021-.566.021A6.362,6.362,0,0,1,36.905,39.555Zm-27.034.01a6.055,6.055,0,0,1-1.9-.5,1.772,1.772,0,0,1-.682-.5.116.116,0,0,1,.014-.158,5.908,5.908,0,0,1,1.744-1.1,4.454,4.454,0,0,1,2.548-.3c.121.023.239.053.355.087A14.5,14.5,0,0,1,9.775,35.5a.118.118,0,0,0-.053-.026c-.112-.018-.26-.041-.418-.052a.081.081,0,0,0-.032.01,2.055,2.055,0,0,1-1.626.686l-.1,0a5.165,5.165,0,0,1-2.218-.606,5.517,5.517,0,0,1-1.531-1.079,3.611,3.611,0,0,1-.266-.335l-.008-.01c-.034-.047-.069-.095-.106-.141a.116.116,0,0,1,.028-.167,3.886,3.886,0,0,1,.376-.176,5.077,5.077,0,0,1,3.449-.134A3.681,3.681,0,0,1,8.311,34,18.252,18.252,0,0,1,6.6,31.642a.338.338,0,0,0-.027-.04l-.137-.082a2.6,2.6,0,0,1-.251-.159c-.068-.051-.087-.053-.157-.008a1.077,1.077,0,0,1-.311.122A2.6,2.6,0,0,1,3.9,31.246,4.815,4.815,0,0,1,2.453,30.1a5.784,5.784,0,0,1-1.205-1.788,3.354,3.354,0,0,1-.12-.375c-.018-.067-.033-.122-.049-.178a.115.115,0,0,1,.072-.142l.019,0H1.2a5.743,5.743,0,0,1,3.619,1.245,6.557,6.557,0,0,1,.737.85,22.7,22.7,0,0,1-1.249-3.289L4.3,26.4a.18.18,0,0,0-.014-.041l-.325-.446c-.013-.02-.014-.02-.034-.02l-.028,0-.07,0a2.3,2.3,0,0,1-.5-.005,2.264,2.264,0,0,1-1.282-.715,7.881,7.881,0,0,1-1.958-3.64,2.659,2.659,0,0,1-.065-.492c-.006-.078-.012-.158-.021-.24a.117.117,0,0,1,.041-.1.114.114,0,0,1,.109-.021l.115.034.017,0c.089.026.166.049.242.079a5.883,5.883,0,0,1,2.887,2.5,5.059,5.059,0,0,1,.439.914,13.784,13.784,0,0,1-.262-2.6c0-.048,0-.1,0-.147a1.589,1.589,0,0,0-.029-.377,2.016,2.016,0,0,0-.175-.406c-.019-.037-.039-.075-.057-.112a.107.107,0,0,0-.029-.014,1.787,1.787,0,0,1-.927-.445,2.983,2.983,0,0,1-.693-.912,9.147,9.147,0,0,1-.941-4.171,3.438,3.438,0,0,1,.036-.434c.008-.073.017-.142.024-.215a.116.116,0,0,1,.176-.087l.057.034c.032.02.057.034.08.051a6.079,6.079,0,0,1,1.416,1.432,6.252,6.252,0,0,1,1.134,3.106c.01-.128.02-.256.031-.383l0-.046c.04-.5.081-1.018.115-1.526a2.9,2.9,0,0,1,.056-.371,1.377,1.377,0,0,0,.022-.688c-.016-.052-.03-.1-.043-.158a1.438,1.438,0,0,0-.437-.548L3.4,15.186a2.943,2.943,0,0,1-.817-1.34,7.428,7.428,0,0,1-.232-2.394v-.018a7.541,7.541,0,0,1,.313-2.184c.025-.079.056-.157.087-.239q.026-.063.051-.132a.115.115,0,0,1,.09-.074l.019,0A.116.116,0,0,1,3,8.844l.192.233a5.821,5.821,0,0,1,1.34,3.9,7.513,7.513,0,0,1-.058.8,22.937,22.937,0,0,1,.819-2.345.174.174,0,0,0,.01-.053l0-.1c0-.148.006-.3,0-.454a.233.233,0,0,0-.05-.114c-.049-.064-.1-.126-.154-.186a2.681,2.681,0,0,1-.272-.356,2.929,2.929,0,0,1-.366-1.544,9.4,9.4,0,0,1,.365-2.489,6.369,6.369,0,0,1,.734-1.8c.026-.041.056-.08.087-.121l.043-.058a.114.114,0,0,1,.092-.048.122.122,0,0,1,.1.059A5.914,5.914,0,0,1,6.63,7.043a7.775,7.775,0,0,1-.3,2.23,22.19,22.19,0,0,1,1.45-2.3l.012-.016a.187.187,0,0,0,.019-.027c.032-.229.054-.418.07-.589,0,0,0-.009-.028-.052-.035-.059-.074-.118-.112-.175a2.082,2.082,0,0,1-.221-.4,2.933,2.933,0,0,1-.112-1.5A6.7,6.7,0,0,1,9.127.7,3.979,3.979,0,0,1,9.451.39L9.483.361,9.622.233a.117.117,0,0,1,.193.058l.021.094c.014.061.025.109.033.157a7.735,7.735,0,0,1-.029,2.534,6.083,6.083,0,0,1-.9,2.412,18.583,18.583,0,0,1,2.031-2.069.069.069,0,0,0,.005-.019,1.938,1.938,0,0,1,.351-1.337,3.548,3.548,0,0,1,1.572-1.3c.4-.172.807-.324,1.2-.472.2-.073.391-.145.581-.218.211-.084.292-.1.338-.054s.045.1.019.189L15.04.241a5.566,5.566,0,0,1-.986,1.98,3.631,3.631,0,0,1-2.762,1.465.161.161,0,0,0-.079.022c-.153.115-.266.206-.365.3q-.472.431-.927.915a2.752,2.752,0,0,1,1.621-.374c.339.017.676.067,1,.114l.013,0,.288.042c.209.028.419.065.606.1.076.014.256.054.3.141a.1.1,0,0,1,0,.093.509.509,0,0,1-.048.073,3.96,3.96,0,0,1-1.875,1.4A3.074,3.074,0,0,1,9.4,6.437.817.817,0,0,0,9,6.343a1.062,1.062,0,0,0-.227.023.262.262,0,0,0-.119.048,21.14,21.14,0,0,0-1.285,1.9,2.867,2.867,0,0,1,1.385-.7,8.689,8.689,0,0,1,1.591-.179l.175-.009c.164-.008.328-.019.5-.029l.275-.018h0a.119.119,0,0,1,.1.048.114.114,0,0,1,.014.11.85.85,0,0,1-.042.1A4.852,4.852,0,0,1,9.387,9.592a3.042,3.042,0,0,1-2.146.315,1.2,1.2,0,0,0-.27-.03.673.673,0,0,0-.546.175,23.39,23.39,0,0,0-1.016,2.442A3.3,3.3,0,0,1,6.7,11.466c.543-.257,1.108-.491,1.654-.717.248-.1.489-.2.728-.3a.115.115,0,0,1,.162.106,7.671,7.671,0,0,1-1.945,3.143,3.078,3.078,0,0,1-1.778.734.773.773,0,0,0-.616.23.227.227,0,0,1-.1.067c-.059.019-.075.055-.1.176a23.45,23.45,0,0,0-.515,3.054c.032-.105.069-.212.112-.32a4.539,4.539,0,0,1,1.365-1.8c.346-.3.71-.585,1.062-.863l.016-.014c.16-.127.32-.253.48-.381l.1-.085.1-.085a.116.116,0,0,1,.191.1c-.005.07-.009.137-.013.2l0,.03c-.008.13-.015.255-.029.377a6.255,6.255,0,0,1-1.082,3.038,3.8,3.8,0,0,1-1.745,1.478,1.086,1.086,0,0,0-.509.391.827.827,0,0,0-.174.581,24.257,24.257,0,0,0,.194,2.711,3.748,3.748,0,0,1,.172-.766,5.868,5.868,0,0,1,.862-1.628c.345-.474.7-.95,1.049-1.411l.023-.031c.138-.182.275-.365.41-.545a.157.157,0,0,1,.084-.057.122.122,0,0,1,.093,0,.118.118,0,0,1,.066.072l0,.013A.319.319,0,0,1,7.033,19a6.591,6.591,0,0,1-.449,3.907A4.31,4.31,0,0,1,5.341,24.64a1.946,1.946,0,0,0-.635.864.218.218,0,0,0-.022.116,20.564,20.564,0,0,0,1.03,3.152,3.981,3.981,0,0,1,.022-1.654,14.37,14.37,0,0,1,.745-2.274l.08-.2.384-.965a.113.113,0,0,1,.1-.073.118.118,0,0,1,.109.062l.042.08c.018.034.036.067.05.1a6.682,6.682,0,0,1,.543,3.714,4.809,4.809,0,0,1-.71,2.068,2.04,2.04,0,0,0-.4.971.345.345,0,0,0,.036.224,17.572,17.572,0,0,0,1.527,2.253l-.006-.012a3.988,3.988,0,0,1-.373-2.214c.035-.584.1-1.168.167-1.733l0-.032c.026-.226.052-.452.076-.679.014-.128.029-.257.044-.387l.021-.176a.117.117,0,0,1,.064-.091.089.089,0,0,1,.042-.009c.066,0,.145.053.234.159a6.086,6.086,0,0,1,1.41,3.037,5.39,5.39,0,0,1-.294,3.013.265.265,0,0,0-.01.089l.021.5a.163.163,0,0,0,.038.09,13.452,13.452,0,0,0,2.5,1.906,3.333,3.333,0,0,1-.932-1.527,14.652,14.652,0,0,1-.443-2.155L10.8,32.8c-.039-.25-.08-.5-.121-.756l-.047-.289a.116.116,0,0,1,.043-.111.119.119,0,0,1,.116-.015l.041.017c.043.018.081.033.117.052a5,5,0,0,1,2.668,4.721,2.261,2.261,0,0,0,.083.847.118.118,0,0,0,.041.057,13.523,13.523,0,0,0,2.354.761.116.116,0,0,1,.063.187,1.839,1.839,0,0,0-.218.319.116.116,0,0,1-.1.061.1.1,0,0,1-.028,0,13.338,13.338,0,0,1-1.825-.553.22.22,0,0,0-.117-.023,3.77,3.77,0,0,0-.418.081.175.175,0,0,0-.062.028,2.45,2.45,0,0,1-1.738,1.28,4.317,4.317,0,0,1-.561.1,6.362,6.362,0,0,1-.656.032C10.108,39.586,9.874,39.565,9.871,39.565Zm6.015-12.994V15.29l-1.969.012V13.726H33.8v1.566l-2.052,0V26.571Z" transform="translate(0 0)" fill="#3b3b3b"/></g></g></svg>
