<svg xmlns="http://www.w3.org/2000/svg" fill-rule="evenodd" stroke-linejoin="round" stroke-miterlimit="2" clip-rule="evenodd" viewBox="0 0 48 48">
  <defs />
  <path fill="none" d="M0 0h48v48H0z" />
  <path fill="#3b3b3b" fill-rule="nonzero" d="M36.84 43.88a4.28 4.28 0 01-.56-.1 2.47 2.47 0 01-1.76-1.3c-.35-.67-.02 0-.05-.01a4.02 4.02 0 00-.43-.08 13.56 13.56 0 01-1.95.58.12.12 0 01-.13-.06 1.9 1.9 0 00-.22-.32.12.12 0 01-.03-.08c0-.05.04-.1.1-.11.8-.19 1.6-.44 2.36-.77a.13.13 0 00.04-.06c.09-.27.11-.56.09-.85a5.04 5.04 0 012.8-4.8l.04-.02a.12.12 0 01.12.02c.03.03.05.07.04.1l-.05.3-.12.76v.07c-.1.73-.25 1.45-.45 2.16-.17.6-.5 1.12-.94 1.54.91-.54 1.76-1.18 2.52-1.92a.17.17 0 00.04-.1l.02-.5-.01-.09a6.13 6.13 0 011.12-6.09c.1-.12.21-.18.27-.14.04.02.06.05.07.09l.02.18a31.13 31.13 0 01.12 1.07v.03c.07.57.13 1.16.17 1.74.09.77-.04 1.54-.38 2.23v.01c.57-.71 1.08-1.47 1.53-2.26a.35.35 0 00.04-.23c-.05-.35-.18-.7-.4-.98a4.83 4.83 0 01-.72-2.08 6.72 6.72 0 01.6-3.83l.04-.08a.12.12 0 01.1-.07c.05 0 .1.03.11.08l.39.97.08.2c.31.74.56 1.5.75 2.29a4 4 0 01.02 1.66c.43-1.03.78-2.09 1.04-3.17 0-.04 0-.08-.02-.12a1.94 1.94 0 00-.64-.87 4.35 4.35 0 01-1.25-1.74 6.62 6.62 0 01-.44-3.98v-.01a.12.12 0 01.07-.07.12.12 0 01.1 0c.03 0 .06.03.08.06l.41.54.02.03 1.06 1.42c.38.5.67 1.05.87 1.64.08.25.14.51.17.77.12-.9.19-1.81.2-2.72a.84.84 0 00-.17-.59c-.13-.18-.3-.32-.52-.4a3.82 3.82 0 01-1.75-1.48 6.28 6.28 0 01-1.11-3.43v-.03l-.02-.2c0-.05.02-.1.07-.11.04-.02.09-.02.12.01l.1.09a4.9 4.9 0 00.59.47h.01l1.07.88a4.58 4.58 0 011.49 2.13 23.5 23.5 0 00-.52-3.07c-.03-.12-.05-.16-.1-.18a.24.24 0 01-.1-.07.78.78 0 00-.62-.23 3.1 3.1 0 01-1.79-.74 7.7 7.7 0 01-1.95-3.16.12.12 0 01.16-.1l.72.3c.56.23 1.13.46 1.68.72.5.23.95.59 1.29 1.04-.3-.84-.64-1.66-1.02-2.46a.68.68 0 00-.55-.18c-.1 0-.18.01-.27.04-.74.16-1.5.05-2.16-.32a4.88 4.88 0 01-2.04-2.1c0-.07.05-.12.12-.12l.28.02c.17 0 .33.02.5.03h.17c.54.02 1.08.08 1.6.18.52.1 1 .35 1.4.7-.4-.66-.83-1.3-1.3-1.9a.23.23 0 00-.11-.05 1.02 1.02 0 00-.23-.03.83.83 0 00-.4.1c-.77.35-1.65.38-2.44.07a3.97 3.97 0 01-1.94-1.49.1.1 0 010-.09c.04-.09.22-.13.3-.14l.61-.1.3-.04c.33-.05.67-.1 1.01-.12.57-.04 1.14.09 1.63.38a16.17 16.17 0 00-1.3-1.22.16.16 0 00-.08-.02 3.66 3.66 0 01-2.77-1.48 5.59 5.59 0 01-1-1.99V4.3c-.03-.08-.05-.13.01-.19.06-.05.13-.03.33.05l.6.22c.4.15.81.3 1.2.48.65.27 1.2.72 1.59 1.3a1.95 1.95 0 01.36 1.37c.73.64 1.42 1.33 2.04 2.08a6.14 6.14 0 01-.9-2.42 7.74 7.74 0 010-2.72l.03-.09c0-.05.06-.09.11-.09.03 0 .06.01.08.03l.14.13.03.03a6.75 6.75 0 012.06 3.85c.1.5.05 1.02-.11 1.5-.06.15-.14.28-.23.4a3.75 3.75 0 00-.14.24 18.29 18.29 0 00.09.62l.01.02c.54.74 1.02 1.51 1.46 2.32-.2-.73-.3-1.49-.3-2.25 0-1.01.26-2 .75-2.9a.12.12 0 01.1-.05c.03 0 .07.01.1.05 0 .02.02.04.03.05l.1.13a9.44 9.44 0 011.1 4.3c.02.54-.1 1.08-.37 1.56-.08.12-.17.24-.27.35l-.16.19a.25.25 0 00-.05.12v.55l.01.06c.32.77.6 1.55.82 2.35a5.86 5.86 0 011.3-4.73l.19-.23a.1.1 0 01.09-.04h.02c.04 0 .07.04.09.08l.05.13.09.24c.2.71.31 1.45.31 2.2v.02c.05.8-.03 1.62-.23 2.4-.15.52-.43.99-.83 1.35v.01c-.2.15-.35.34-.44.55l-.05.16c-.05.23-.04.46.02.69.03.12.05.25.06.37.03.52.08 1.04.12 1.54v.05c0 .13.02.25.03.38a6.28 6.28 0 012.57-4.56l.08-.05.06-.04a.12.12 0 01.11 0c.04.01.06.05.07.09l.02.21a9.18 9.18 0 01-.91 4.64c-.17.35-.4.66-.7.92-.26.24-.58.4-.93.45a.1.1 0 00-.03.01l-.06.11c-.07.13-.13.27-.17.41-.03.13-.04.25-.03.38v.15c0 .88-.1 1.75-.26 2.62a5.93 5.93 0 013.35-3.43c.07-.04.15-.06.24-.09h.01l.12-.04c.04 0 .08 0 .1.03.04.02.05.06.05.1l-.02.24c0 .17-.03.33-.07.5a7.9 7.9 0 01-1.97 3.66c-.33.37-.79.63-1.29.72-.17.02-.34.02-.5 0h-.1c-.02 0-.02 0-.03.02l-.33.45-.02.04v.02a23.01 23.01 0 01-1.26 3.3c.22-.3.47-.58.74-.85a5.77 5.77 0 013.64-1.25h.05c.06.02.1.08.08.14l-.05.17-.12.39a5.8 5.8 0 01-1.22 1.8c-.4.48-.9.87-1.45 1.15-.56.3-1.21.38-1.83.23a1.07 1.07 0 01-.3-.12c-.08-.04-.1-.04-.17 0-.08.07-.16.12-.25.17l-.14.08-.02.04c-.52.84-1.1 1.63-1.73 2.38a3.7 3.7 0 011.05-.55 5.1 5.1 0 013.85.31c.02.02.05.05.05.08 0 .04 0 .07-.02.1l-.1.14h-.01a4.1 4.1 0 01-.27.34c-.45.45-.97.82-1.54 1.09-.7.37-1.45.58-2.23.6h-.11a2.07 2.07 0 01-1.64-.68l-.03-.01c-.16 0-.3.03-.42.05a4.49 4.49 0 01.68 1.84c.65.27 1.24.64 1.76 1.1.04.05.05.12.01.17-.18.21-.42.39-.68.5-.61.27-1.26.43-1.92.5-.66.06-.24.02-.57.02-.22 0-.44 0-.66-.02zm-26.9 0a6.09 6.09 0 01-1.92-.5 1.8 1.8 0 01-.7-.5.12.12 0 01.02-.15 6 6 0 011.76-1.1 4.5 4.5 0 012.92-.21 14.74 14.74 0 01-2.24-1.63l-.42-.05h-.03c-.42.47-1.02.72-1.64.7h-.1a5.22 5.22 0 01-2.23-.61 5.61 5.61 0 01-1.54-1.09c-.1-.1-.19-.22-.27-.33l-.01-.02-.1-.14a.12.12 0 01.02-.16c.02-.01.2-.11.38-.18 1.1-.45 2.33-.5 3.47-.14.38.13.73.3 1.05.54a18.42 18.42 0 01-1.75-2.41 2.57 2.57 0 01-.39-.25c-.07-.04-.09-.05-.16 0-.1.06-.2.1-.31.12-.62.15-1.26.07-1.82-.23a4.82 4.82 0 01-1.46-1.15 5.82 5.82 0 01-1.21-1.8 3.38 3.38 0 01-.17-.56.12.12 0 01.07-.14h.05c1.32-.02 2.6.42 3.64 1.23.27.26.52.55.74.85-.5-1.07-.92-2.17-1.26-3.3v-.02l-.01-.04-.33-.45c-.01-.02-.01-.02-.03-.02H3.85c-.16.02-.33.02-.5 0-.5-.1-.95-.35-1.3-.72A7.91 7.91 0 01.1 25.76a2.63 2.63 0 01-.07-.5L0 25.02c0-.04.01-.08.04-.1a.12.12 0 01.11-.02l.12.03h.01l.25.08a5.9 5.9 0 013.34 3.43 14 14 0 01-.26-2.61v-.15c0-.13 0-.25-.03-.38a2 2 0 00-.18-.41l-.06-.11-.02-.02a1.8 1.8 0 01-.94-.45 3 3 0 01-.7-.91 9.2 9.2 0 01-.9-4.64l.02-.21c0-.04.03-.08.06-.1a.12.12 0 01.11 0l.06.04.08.05a6.29 6.29 0 012.57 4.57l.03-.38v-.05l.12-1.53c.01-.13.03-.25.06-.38.06-.22.07-.46.02-.69l-.04-.16c-.1-.21-.25-.4-.44-.55h-.01a2.93 2.93 0 01-.82-1.35 7.38 7.38 0 01-.23-2.41v-.02c0-.75.1-1.49.31-2.2l.09-.24.05-.13a.12.12 0 01.1-.08c.04 0 .08.02.1.04l.2.24a5.85 5.85 0 011.28 4.73 23.12 23.12 0 01.84-2.42v-.1-.45a.25.25 0 00-.06-.12 3.3 3.3 0 00-.15-.19 2.5 2.5 0 01-.27-.35 2.94 2.94 0 01-.37-1.56 9.44 9.44 0 011.11-4.3l.09-.13.04-.06a.11.11 0 01.1-.05c.03 0 .07.03.1.06.48.89.74 1.88.74 2.9 0 .75-.1 1.5-.3 2.24.44-.8.92-1.58 1.46-2.32l.01-.01.02-.03.07-.6a4.11 4.11 0 00-.14-.23 2.1 2.1 0 01-.22-.4c-.17-.48-.21-1-.12-1.5a6.75 6.75 0 012.06-3.85l.03-.03.14-.13a.12.12 0 01.11-.02c.04 0 .07.04.08.08l.03.1.03.15c.13.85.12 1.7-.03 2.55-.12.87-.43 1.7-.9 2.43a18.78 18.78 0 012.05-2.1c-.05-.48.07-.96.35-1.35.39-.58.94-1.03 1.58-1.3.4-.17.81-.33 1.21-.48l.59-.22c.21-.08.3-.1.34-.05.05.05.04.1.02.2l-.01.02c-.2.72-.53 1.4-1 2a3.65 3.65 0 01-2.77 1.46.2.2 0 00-.08.03 19.22 19.22 0 00-1.3 1.22c.5-.3 1.06-.42 1.63-.38.34.02.68.06 1.01.12h.01l.3.04.6.1c.08.01.26.05.3.14a.1.1 0 010 .1 3.99 3.99 0 01-1.93 1.49 3.1 3.1 0 01-2.44-.09.93.93 0 00-.63-.08.25.25 0 00-.12.06c-.46.61-.9 1.25-1.3 1.91.4-.35.88-.6 1.4-.7a8.6 8.6 0 011.6-.18h.17l.5-.04.28-.01c.04 0 .08.01.1.04.02.04.03.08.01.11a4.88 4.88 0 01-2.03 2.06c-.65.37-1.42.48-2.16.32a1.19 1.19 0 00-.27-.03c-.3 0-.5.1-.55.18-.38.8-.73 1.62-1.02 2.45.34-.45.78-.8 1.3-1.03a37.6 37.6 0 012.39-1.03.12.12 0 01.11.01c.03.02.05.06.05.1a7.72 7.72 0 01-1.95 3.16 3.1 3.1 0 01-1.8.74.78.78 0 00-.61.23.21.21 0 01-.1.07c-.06.02-.08.06-.1.18a23.98 23.98 0 00-.52 3.07l.11-.32c.3-.71.78-1.33 1.38-1.81.35-.3.72-.59 1.07-.87l.02-.01.48-.39.1-.08.1-.09a.12.12 0 01.13-.01c.04.02.06.06.06.11l-.01.2v.03l-.03.38a6.3 6.3 0 01-1.1 3.06 3.8 3.8 0 01-1.75 1.48c-.2.08-.38.22-.5.4a.83.83 0 00-.18.58c.01.91.08 1.82.2 2.73.03-.26.09-.52.17-.77.2-.6.5-1.14.87-1.64.34-.48.7-.96 1.05-1.42l.02-.03.41-.55a.16.16 0 01.09-.06l.05-.01c.05 0 .1.03.1.08v.01l.02.05c.25 1.33.1 2.7-.45 3.93-.27.68-.7 1.28-1.25 1.74-.3.23-.51.53-.64.87a.22.22 0 00-.02.12c.26 1.08.6 2.14 1.03 3.17-.1-.55-.1-1.12.03-1.66.18-.79.43-1.55.75-2.3l.08-.2.38-.96a.12.12 0 01.11-.08c.05 0 .09.03.1.07l.05.08.05.1c.53 1.16.72 2.46.54 3.73a4.82 4.82 0 01-.71 2.08c-.22.29-.35.63-.4.98-.01.08 0 .16.04.23.45.79.96 1.55 1.53 2.26a4.02 4.02 0 01-.38-2.24c.04-.58.1-1.17.17-1.74v-.03l.08-.68.05-.4.02-.17c0-.04.02-.07.06-.09h.04c.07 0 .15.05.24.15a6.12 6.12 0 011.1 6.18l.03.5c0 .04.01.07.03.1.77.73 1.61 1.38 2.52 1.91a3.35 3.35 0 01-.93-1.53c-.2-.71-.36-1.44-.45-2.17v-.07l-.13-.76-.04-.3c0-.03 0-.08.04-.1a.12.12 0 01.12-.02l.04.02.12.05a5.03 5.03 0 012.68 4.75c-.02.29 0 .58.09.85 0 .03.02.05.04.06.76.33 1.55.58 2.36.77.04 0 .08.03.09.07.01.04 0 .09-.02.12-.09.1-.16.2-.22.32a.12.12 0 01-.1.06h-.03a13.68 13.68 0 01-1.95-.58 4.02 4.02 0 00-.49.1c-.35.68-1 1.16-1.75 1.3a4.45 4.45 0 01-1.22.13l-.57-.03zm7.2-15V25.1l7.13 3.6 7.13-3.6v3.77l-7.13 3.6-7.13-3.6zm16.3-.17v-6.5l-9.17 4.61-11.2-5.64 11.2-5.65 11.2 5.65v7.53h-2.04z" />
</svg>
