<svg id="ico_32_Doc_ZIP" data-name="ico 32 Doc ZIP" xmlns="http://www.w3.org/2000/svg" width="26" height="28" viewBox="0 0 32 32">
  <path id="Path_2064" data-name="Path 2064" d="M21,2H8V30H29V10Z" transform="translate(-3 -2)" fill="#aeb1b1"/>
  <path id="Path_2065" data-name="Path 2065" d="M9,29V3H21v7h7V29Z" transform="translate(-3 -2)" fill="#fff"/>
  <rect id="Rectangle_2935" data-name="Rectangle 2935" width="19" height="10" rx="1" transform="translate(0 13)" fill="#359486"/>
  <g id="Group_1511" data-name="Group 1511" transform="translate(-3 -2)">
    <path id="Path_2066" data-name="Path 2066" d="M6,23V22l3.5-4H6V17h5v1L7.5,22H11v1Z" fill="#fff"/>
    <path id="Path_2067" data-name="Path 2067" d="M12,23V17h1v6Z" fill="#fff"/>
    <path id="Path_2068" data-name="Path 2068" d="M14,23V17h2.5c2.355,0,2.5,1.2,2.5,2,0,.825-.6,2-2.5,2H15v2Zm1-5v2h1.5c1.186,0,1.5-.583,1.5-1,0-.5-.116-1-1.5-1Z" fill="#fff"/>
  </g>
  <g id="zipper" transform="translate(-3 -2)">
    <rect id="Rectangle_2936" data-name="Rectangle 2936" width="1" height="1" transform="translate(12 3)" fill="#aeb1b1"/>
    <rect id="Rectangle_2937" data-name="Rectangle 2937" width="1" height="1" transform="translate(13 4)" fill="#aeb1b1"/>
    <rect id="Rectangle_2938" data-name="Rectangle 2938" width="1" height="1" transform="translate(12 5)" fill="#aeb1b1"/>
    <rect id="Rectangle_2939" data-name="Rectangle 2939" width="1" height="1" transform="translate(13 6)" fill="#aeb1b1"/>
    <rect id="Rectangle_2940" data-name="Rectangle 2940" width="1" height="1" transform="translate(12 7)" fill="#aeb1b1"/>
    <rect id="Rectangle_2941" data-name="Rectangle 2941" width="1" height="1" transform="translate(13 8)" fill="#aeb1b1"/>
    <rect id="Rectangle_2942" data-name="Rectangle 2942" width="1" height="1" transform="translate(12 9)" fill="#aeb1b1"/>
    <rect id="Rectangle_2943" data-name="Rectangle 2943" width="1" height="1" transform="translate(13 10)" fill="#aeb1b1"/>
    <rect id="Rectangle_2944" data-name="Rectangle 2944" width="1" height="1" transform="translate(12 11)" fill="#aeb1b1"/>
    <rect id="Rectangle_2945" data-name="Rectangle 2945" width="1" height="1" transform="translate(13 12)" fill="#aeb1b1"/>
    <rect id="Rectangle_2946" data-name="Rectangle 2946" width="1" height="1" transform="translate(12 13)" fill="#aeb1b1"/>
    <rect id="Rectangle_2947" data-name="Rectangle 2947" width="1" height="1" transform="translate(13 14)" fill="#aeb1b1"/>
  </g>
</svg>
