<svg xmlns="http://www.w3.org/2000/svg" viewBox="0 0 32 32">
  <rect id="Box" width="32" height="32" fill="none"></rect>
  <path d="M21,2H8V30H29V10Z" fill="#aeb1b1"></path>
  <path d="M9,29V3H21v7h7V29Z" fill="white"></path>
  <rect x="3" y="15" width="21" height="10" rx="1" fill="#d43533"></rect>
  <g fill="white">
    <path d="M6,23V17H7.944c.737,0,2.556.132,2.556,2,0,1.9-1.95,2-2.5,2H7v2Zm1-5v2h.874c.672,0,1.474-.121,1.474-1,0-.814-.7-1-1.551-1Z"></path>
    <path d="M11,17h2.214A2.838,2.838,0,0,1,16,19.885V20a2.8,2.8,0,0,1-2.59152,2.994H13.408A.91387.91387,0,0,0,13.28,23H11Zm1,1v4h1.116a1.757,1.757,0,0,0,1.89964-1.60171h0L15.016,20.394A1.729,1.729,0,0,0,15,20c0-1.628-1.222-2-2.244-2Z"></path>
    <path d="M17,23V17h4v1H18v1.5h2.5v1H18V23Z"></path>
  </g>
</svg>
