<svg xmlns="http://www.w3.org/2000/svg" viewBox="0 0 32 32">
  <rect id="box" width="32" height="32" fill="none"></rect>
  <path d="M21,2H8V30H29V10Z" fill="#aeb1b1"></path>
  <path d="M9,29V3H21v7h7V29Z" fill="white"></path>
  <rect x="3" y="15" width="21" height="10" rx="1.054" fill="#ed7600"></rect>
  <g fill="white">
    <path d="M11,23V17h1.944c.737,0,2.556.132,2.556,2,0,1.9-1.95,2-2.5,2H12v2Zm1-5v2h.874c.672,0,1.474-.121,1.474-1,0-.814-.7-1-1.551-1Z"></path>
    <path d="M19,21V20h2v2.1a1.56,1.56,0,0,1-.7.627,3.233,3.233,0,0,1-1.4.271,3.1,3.1,0,0,1-1.566-.382,2.422,2.422,0,0,1-1-1.092A3.571,3.571,0,0,1,16,19.98a3.378,3.378,0,0,1,.375-1.611,2.545,2.545,0,0,1,1.1-1.08A2.91911,2.91911,0,0,1,18.843,17a2.706,2.706,0,0,1,1.666.453,2.043,2.043,0,0,1,.772,1.253l-1.149.217a1.222,1.222,0,0,0-.455-.674A1.36,1.36,0,0,0,18.843,18a1.556,1.556,0,0,0-1.2.487,2.066,2.066,0,0,0-.448,1.445,2.287,2.287,0,0,0,.454,1.549A1.5,1.5,0,0,0,18.832,22a1.81,1.81,0,0,0,.728-.145A1.4929,1.4929,0,0,0,20,21.5V21Z"></path>
    <path d="M9,17h1v3.734a3.66882,3.66882,0,0,1-.136,1.127,1.624,1.624,0,0,1-.666.827A2.309,2.309,0,0,1,7.927,23,1.952,1.952,0,0,1,6.5,22.511,1.937,1.937,0,0,1,6,21.076l1.19-.128a1.493,1.493,0,0,0,.157.716.691.691,0,0,0,.623.318c.822,0,1.03-.538,1.03-1.171Z"></path>
  </g>
</svg>
