<svg id="Ico_24_Folder_Zip" data-name="Ico 24 Folder Zip" xmlns="http://www.w3.org/2000/svg" width="24" height="24" viewBox="0 0 24 24">
  <g id="Group_1778" data-name="Group 1778">
    <rect id="Rectangle_3041" data-name="Rectangle 3041" width="24" height="24" fill="none"/>
  </g>
  <g id="Group_1779" data-name="Group 1779">
    <path id="Path_2117" data-name="Path 2117" d="M20,6H12L10,4H4A2,2,0,0,0,2.01,6L2,18a2.006,2.006,0,0,0,2,2H20a2.006,2.006,0,0,0,2-2V8A2.006,2.006,0,0,0,20,6Zm-2,6H16v2h2v2H16v2H14V16h2V14H14V12h2V10H14V8h2v2h2Z" fill="#0072b0"/>
  </g>
</svg>
