<svg id="Layer_1" data-name="Layer 1" xmlns="http://www.w3.org/2000/svg" viewBox="0 0 24 24">
  <path d="M0,0H24V24H0Z" fill="none"/>
  <path d="M4.022,18.94727a4.889,4.889,0,0,1,4.41992-4.918L10,12.47125V3H4V18.96875A.21162.21162,0,0,0,4.022,18.94727Z"/>
  <path d="M18.58594,3.88574A2.99754,2.99754,0,0,1,20,3.09363V3H14V8.47144Z"/>
  <path d="M2,1A.94477.94477,0,0,0,1,2V22a.94477.94477,0,0,1,1-1,.94477.94477,0,0,1,1,1V2A.94477.94477,0,0,0,2,1Z"/>
  <path d="M13,9.47144V2a1,1,0,0,0-2,0v9.47131Z"/>
  <path d="M22.81348,3.88477,23,4.07135V2a1,1,0,0,0-2,0V3.02979A2.972,2.972,0,0,1,22.81348,3.88477Z"/>
  <g id="Layer_1-2" data-name="Layer 1">
    <path d="M9,16a2.94645,2.94645,0,0,0-3,3,2.06273,2.06273,0,0,1-2,2,5.2206,5.2206,0,0,0,4,2,4.01176,4.01176,0,0,0,4-4A2.94645,2.94645,0,0,0,9,16ZM22.7,6.6,21.4,5.3a.96667.96667,0,0,0-1.4,0l-9,9,2.8,2.8,9-9A1.20908,1.20908,0,0,0,22.7,6.6Z"/>
  </g>
</svg>
