<svg id="logo_Standard_Centred" data-name="logo Standard Centred" xmlns="http://www.w3.org/2000/svg" viewBox="0 0 250 63.347">
  <g id="INDUSTRIES_COMPANY" transform="translate(0 44.338)">
    <rect id="Rectangle_102" data-name="Rectangle 102" width="2.928" height="18.444" transform="translate(0 0.257)" />
    <path id="Path_19" data-name="Path 19" d="M15.18,92.451,22.167,105.3H24.89V86.8H21.91V99.644L14.872,86.8H12.2v18.5h2.98Z" transform="translate(-5.932 -86.543)" />
    <path id="Path_20" data-name="Path 20" d="M56.065,104.06c.822-.873,1.233-2.415,1.233-4.727V92.911c0-2.312-.411-3.9-1.233-4.727-.822-.873-2.363-1.284-4.573-1.284H44.3v18.444h7.244C53.7,105.344,55.243,104.882,56.065,104.06Zm-2.312-1.952a3.3,3.3,0,0,1-2.466.668h-4.11V89.469h4.11a3.3,3.3,0,0,1,2.466.668,4.469,4.469,0,0,1,.617,2.826v6.319A4.469,4.469,0,0,1,53.753,102.108Z" transform="translate(-21.54 -86.592)" />
    <path id="Path_21" data-name="Path 21" d="M84.584,86.8V99.439a4.469,4.469,0,0,1-.617,2.826,3.233,3.233,0,0,1-2.415.668H79.96a3.156,3.156,0,0,1-2.415-.668,4.469,4.469,0,0,1-.617-2.826V86.8H74V99.439q0,3.468,1.233,4.778c.822.822,2.363,1.284,4.573,1.284h1.9c2.261,0,3.751-.411,4.573-1.284q1.233-1.233,1.233-4.778V86.8Z" transform="translate(-35.981 -86.543)" />
    <path id="Path_22" data-name="Path 22" d="M117.519,96.618a5.152,5.152,0,0,0-2.826-1.439l-3.6-.925a5.057,5.057,0,0,1-2.055-.822,2.482,2.482,0,0,1-.411-1.593v-.719a1.912,1.912,0,0,1,.514-1.593,3.638,3.638,0,0,1,2-.411h1.233a3.517,3.517,0,0,1,2,.411,1.912,1.912,0,0,1,.514,1.593v1.13h2.928v-.873c0-1.8-.36-3.083-1.13-3.751s-2.209-1.028-4.316-1.028h-1.336c-2.158,0-3.6.36-4.316,1.028-.771.668-1.13,1.952-1.13,3.751v.514a5.488,5.488,0,0,0,.719,3.185,5.152,5.152,0,0,0,2.826,1.439l3.6.925a4.725,4.725,0,0,1,2.055.822,2.482,2.482,0,0,1,.411,1.593v1.079a1.912,1.912,0,0,1-.514,1.593,3.638,3.638,0,0,1-2,.411h-1.284a3.518,3.518,0,0,1-2-.411,1.912,1.912,0,0,1-.514-1.593V99.752H105.96v.873c0,1.8.36,3.083,1.13,3.75s2.209,1.028,4.316,1.028h1.387c2.158,0,3.6-.36,4.316-1.028.771-.668,1.13-1.952,1.13-3.75V99.8A5.018,5.018,0,0,0,117.519,96.618Z" transform="translate(-51.346 -86.446)" />
    <path id="Path_23" data-name="Path 23" d="M137.484,89.42V105.3h2.928V89.42h4.47V86.8H132.5v2.62Z" transform="translate(-64.426 -86.543)" />
    <path id="Path_24" data-name="Path 24" d="M171.239,92.192c0-2-.411-3.391-1.284-4.162s-2.363-1.13-4.521-1.13H158.6v18.444h2.928v-5.96h3.751l2.877,5.96h3.083l-3.083-6.217a3.793,3.793,0,0,0,2.363-1.593,6.873,6.873,0,0,0,.719-3.442Zm-9.659-2.723h4.007a2.786,2.786,0,0,1,2.107.616,3.022,3.022,0,0,1,.565,2.158v1.8a3.3,3.3,0,0,1-.565,2.158,2.866,2.866,0,0,1-2.107.617H161.58Z" transform="translate(-77.116 -86.592)" />
    <rect id="Rectangle_103" data-name="Rectangle 103" width="2.928" height="18.444" transform="translate(97.359 0.257)" />
    <path id="Path_25" data-name="Path 25" d="M212.849,102.727h-8.22V97.332h7.09v-2.62h-7.09V89.42h8.066V86.8H201.7v18.5h11.149Z" transform="translate(-98.073 -86.543)" />
    <path id="Path_26" data-name="Path 26" d="M238.919,96.618a5.152,5.152,0,0,0-2.826-1.439l-3.6-.925a5.057,5.057,0,0,1-2.055-.822,2.483,2.483,0,0,1-.411-1.593v-.719a1.913,1.913,0,0,1,.514-1.593,3.638,3.638,0,0,1,2-.411h1.233a3.517,3.517,0,0,1,2,.411,1.912,1.912,0,0,1,.514,1.593v1.13h2.928v-.873c0-1.8-.36-3.083-1.13-3.751s-2.209-1.028-4.316-1.028h-1.336c-2.158,0-3.6.36-4.316,1.028-.771.668-1.13,1.952-1.13,3.751v.514a5.489,5.489,0,0,0,.719,3.185,5.152,5.152,0,0,0,2.826,1.439l3.6.925a4.725,4.725,0,0,1,2.055.822,2.482,2.482,0,0,1,.411,1.593v1.079a1.912,1.912,0,0,1-.514,1.593,3.638,3.638,0,0,1-2,.411h-1.284a3.518,3.518,0,0,1-2-.411,1.912,1.912,0,0,1-.514-1.593V99.752H227.36v.873c0,1.8.36,3.083,1.13,3.75s2.209,1.028,4.316,1.028h1.387c2.158,0,3.6-.36,4.316-1.028.771-.668,1.13-1.952,1.13-3.75V99.8A5.377,5.377,0,0,0,238.919,96.618Z" transform="translate(-110.374 -86.446)" />
    <path id="Path_27" data-name="Path 27" d="M280.732,99.709c0,1.439-.206,1.85-.617,2.312a3.233,3.233,0,0,1-2.415.668H276.16a3.156,3.156,0,0,1-2.415-.668,4.469,4.469,0,0,1-.616-2.826V92.414a4.469,4.469,0,0,1,.616-2.826,3.234,3.234,0,0,1,2.415-.668H277.7a3.156,3.156,0,0,1,2.415.668c.411.462.617.873.617,2.312v1.233h2.928V91.849c0-2.312-.411-3.391-1.233-4.264s-2.363-1.284-4.573-1.284h-1.85c-2.261,0-3.75.411-4.573,1.284q-1.233,1.233-1.233,4.778V99.2q0,3.468,1.233,4.778c.822.822,2.363,1.284,4.573,1.284h1.85c2.261,0,3.751-.411,4.573-1.284.822-.822,1.233-1.9,1.233-4.264V98.476h-2.928Z" transform="translate(-131.38 -86.3)" />
    <path id="Path_28" data-name="Path 28" d="M313.179,87.684c-.822-.822-2.363-1.284-4.572-1.284h-1.9c-2.261,0-3.75.411-4.573,1.284q-1.233,1.233-1.233,4.778V99.3q0,3.468,1.233,4.778c.822.822,2.363,1.284,4.573,1.284h1.9c2.26,0,3.75-.411,4.572-1.284q1.233-1.233,1.233-4.778V92.462Q314.412,88.917,313.179,87.684Zm-2.312,14.386a3.233,3.233,0,0,1-2.415.668H306.86a3.156,3.156,0,0,1-2.415-.668,4.469,4.469,0,0,1-.617-2.826V92.462a4.469,4.469,0,0,1,.617-2.826,3.233,3.233,0,0,1,2.415-.668h1.593a3.156,3.156,0,0,1,2.415.668,4.469,4.469,0,0,1,.617,2.826v6.782A4.469,4.469,0,0,1,310.867,102.07Z" transform="translate(-146.307 -86.349)" />
    <path id="Path_29" data-name="Path 29" d="M332.8,86.8v18.5h2.928V90.345L340.2,101.6l2.723-.051,4.521-11.354v15.1h2.98V86.8H345.9l-4.316,11.611L337.27,86.8Z" transform="translate(-161.818 -86.543)" />
    <path id="Path_30" data-name="Path 30" d="M375.48,89.469h4.059a2.259,2.259,0,0,1,2.723,2.774V94.3a3.3,3.3,0,0,1-.565,2.158,3.008,3.008,0,0,1-2.158.617H375.48Zm8.477,8.991c.873-.771,1.284-2.158,1.284-4.162V92.192c0-2-.411-3.391-1.284-4.162s-2.363-1.13-4.573-1.13H372.5v18.444h2.98v-5.7h3.9C381.542,99.641,383.084,99.23,383.957,98.46Z" transform="translate(-181.121 -86.592)" />
    <path id="Path_31" data-name="Path 31" d="M411.959,105.344,406.153,86.9h-3.648L396.7,105.344h3.083l1.182-3.751H408l1.182,3.751Zm-4.778-6.217h-5.5l2.774-8.837Z" transform="translate(-192.888 -86.592)" />
    <path id="Path_32" data-name="Path 32" d="M432.831,92.451l7.193,12.844H442.8V86.8h-3.031V99.644L432.523,86.8H429.8v18.5h3.031Z" transform="translate(-208.982 -86.543)" />
    <path id="Path_33" data-name="Path 33" d="M467.031,99.182,472.888,86.8H469.96l-4.316,9.3-4.316-9.3H458.4l5.857,12.382V105.3h2.774Z" transform="translate(-222.888 -86.543)" />
  </g>
  <g id="A" transform="translate(42.759 15.259)">
    <g id="A-2">
      <path id="Path_34" data-name="Path 34" d="M177.7,29.7h-3.6l-5.7,19.42h3.031l1.13-3.956h6.884l1.13,3.956h2.774Zm-4.418,12.947,2.723-9.3,2.672,9.3Z" transform="translate(-168.4 -29.7)" />
    </g>
  </g>
  <g id="standard" transform="translate(65.981)">
    <path id="Path_35" data-name="Path 35" d="M214.319,36.788a4.457,4.457,0,0,0,1.8,1.85,12.991,12.991,0,0,0,2.312.976,12.638,12.638,0,0,0,2.312.565,7.321,7.321,0,0,1,1.8.565,1.409,1.409,0,0,1,.771,1.079v.668a1.4,1.4,0,0,1-.411.976,1.519,1.519,0,0,1-1.028.308H219.56a1.478,1.478,0,0,1-1.028-.462,1.594,1.594,0,0,1-.462-1.13v-.206c0-.462-.206-.668-.565-.668h-3.288c-.411,0-.617.206-.617.668v.206a7.124,7.124,0,0,0,1.593,4.213,4.506,4.506,0,0,0,3.75,1.8h3.545a4.691,4.691,0,0,0,3.751-1.593,6.242,6.242,0,0,0,1.541-3.956v-.514a6.059,6.059,0,0,0-.976-3.545,5.145,5.145,0,0,0-2.415-1.9,17.813,17.813,0,0,0-2.826-.822,13.06,13.06,0,0,1-2.415-.719c-.668-.257-1.028-.668-1.028-1.182V33.5a1.4,1.4,0,0,1,.411-.976,1.519,1.519,0,0,1,1.028-.308h2.055a1.478,1.478,0,0,1,1.028.462,1.594,1.594,0,0,1,.462,1.13v.206c0,.411.206.668.617.668h3.288c.36,0,.565-.206.565-.668v-.206a7.417,7.417,0,0,0-1.541-4.213,4.506,4.506,0,0,0-3.751-1.8h-3.34a4.692,4.692,0,0,0-3.751,1.593,6.242,6.242,0,0,0-1.541,3.956v.308A6.069,6.069,0,0,0,214.319,36.788Z" transform="translate(-213.6 -13.514)" />
    <path id="Path_36" data-name="Path 36" d="M245.416,28.007h2.312v9.453a7.124,7.124,0,0,0,1.593,4.213,4.6,4.6,0,0,0,3.8,1.8h3.288c.411,0,.617-.206.617-.668V39.567c0-.462-.206-.668-.617-.668h-2.158a1.478,1.478,0,0,1-1.028-.462,1.594,1.594,0,0,1-.462-1.13v-9.3h3.6c.411,0,.616-.206.616-.668V24.051c0-.462-.205-.668-.616-.668h-3.6V18.4h-5.035v4.984h-2.312c-.411,0-.616.206-.616.668V27.34c0,.411.205.668.616.668Z" transform="translate(-228.77 -8.947)" />
    <path id="Path_37" data-name="Path 37" d="M321.739,31.973h.514a1.457,1.457,0,0,1,1.13.514,1.556,1.556,0,0,1,.514,1.13V47.129a.619.619,0,0,0,.514.668h3.9a.58.58,0,0,0,.668-.514V33.411a6.422,6.422,0,0,0-1.9-4.367,6.168,6.168,0,0,0-4.418-1.747h-.617a4.2,4.2,0,0,0-4.007,2.261h-.308V28.222c0-.462-.206-.719-.617-.719h-3.8a.64.64,0,0,0-.719.514V47.026a.618.618,0,0,0,.514.668h3.9a.58.58,0,0,0,.668-.514V34.233a4.382,4.382,0,0,1,4.059-2.261Z" transform="translate(-261.731 -13.271)" />
    <path id="Path_38" data-name="Path 38" d="M362.081,36.206A1.652,1.652,0,0,1,361,36.72h-2.98a1.446,1.446,0,0,1-1.079-.514,1.594,1.594,0,0,1-.462-1.13V26.958a1.594,1.594,0,0,1,.462-1.13,1.652,1.652,0,0,1,1.079-.514H361a1.446,1.446,0,0,1,1.079.514,1.594,1.594,0,0,1,.462,1.13v8.118A1.406,1.406,0,0,1,362.081,36.206Zm.205-14.026a3.012,3.012,0,0,0-2.723-1.49h-2.672a4.472,4.472,0,0,0-3.8,1.644,7.273,7.273,0,0,0-1.49,4.418V35.23a8,8,0,0,0,1.49,4.418,4.532,4.532,0,0,0,3.8,1.644h2.672a2.958,2.958,0,0,0,2.723-1.49h.308v.617c0,.462.205.668.668.668h3.6a.6.6,0,0,0,.668-.668v-26.1c0-.462-.205-.719-.668-.719h-3.6c-.36,0-.565.257-.565.719V22.18Z" transform="translate(-280.7 -6.613)" />
    <path id="Path_39" data-name="Path 39" d="M440.9,31.6l.257-3.237a.766.766,0,0,0-.462-.771,7.165,7.165,0,0,0-2.107-.206,4.054,4.054,0,0,0-4.007,2.261h-.257V28.312c0-.462-.154-.719-.514-.719h-3.391c-.411,0-.616.257-.616.719V47.167c0,.462.205.668.616.668h3.34c.411,0,.616-.205.616-.668v-12.9c.719-1.49,2-2.209,4.008-2.209l2,.206c.308,0,.514-.257.514-.668Z" transform="translate(-318.723 -13.31)" />
    <path id="Path_40" data-name="Path 40" d="M465.743,36.206a1.911,1.911,0,0,1-1.13.514H461.53a1.768,1.768,0,0,1-1.644-1.644V26.958a1.65,1.65,0,0,1,.514-1.13,1.911,1.911,0,0,1,1.13-.514h3.083a1.768,1.768,0,0,1,1.644,1.644v8.118A1.911,1.911,0,0,1,465.743,36.206ZM465.9,22.18a3.177,3.177,0,0,0-2.826-1.49H460.3a4.83,4.83,0,0,0-3.956,1.644,7.672,7.672,0,0,0-1.541,4.418V35.23a7.672,7.672,0,0,0,1.541,4.418,4.73,4.73,0,0,0,3.9,1.644h2.774a3.177,3.177,0,0,0,2.826-1.49h.308v.617a.58.58,0,0,0,.514.668h3.853a.619.619,0,0,0,.668-.514V14.319a.64.64,0,0,0-.514-.719h-3.9c-.411,0-.565.257-.565.719V22.18Z" transform="translate(-330.879 -6.613)" />
    <path id="Path_41" data-name="Path 41" d="M401.338,43.3a1.911,1.911,0,0,1-1.13.514h-2.928a1.768,1.768,0,0,1-1.644-1.644V34.057a1.65,1.65,0,0,1,.514-1.13,1.911,1.911,0,0,1,1.13-.514h2.928a1.768,1.768,0,0,1,1.644,1.644v8.118A1.912,1.912,0,0,1,401.338,43.3ZM396.1,28.2c-3.751,0-5.5,3.237-5.5,6.268v7.861a7.672,7.672,0,0,0,1.541,4.418,4.729,4.729,0,0,0,3.9,1.644h2.774a3.177,3.177,0,0,0,2.826-1.49h.308v.617a.58.58,0,0,0,.514.668h3.853a.619.619,0,0,0,.668-.514V28.2Z" transform="translate(-299.663 -13.712)" />
    <path id="Path_42" data-name="Path 42" d="M283.889,43.3a1.911,1.911,0,0,1-1.13.514H279.83a1.768,1.768,0,0,1-1.644-1.644V34.057a1.65,1.65,0,0,1,.514-1.13,1.911,1.911,0,0,1,1.13-.514h2.928a1.768,1.768,0,0,1,1.644,1.644v8.118A1.911,1.911,0,0,1,283.889,43.3ZM278.6,28.2c-3.75,0-5.5,3.237-5.5,6.268v7.861a7.672,7.672,0,0,0,1.541,4.418,4.73,4.73,0,0,0,3.9,1.644h2.774a3.177,3.177,0,0,0,2.826-1.49h.308v.617a.58.58,0,0,0,.514.668h3.853a.619.619,0,0,0,.668-.514V28.2Z" transform="translate(-242.531 -13.712)" />
    <path id="Path_43" data-name="Path 43" d="M313.665,5.395a1.516,1.516,0,0,0-.565,1.13v3.956c0,.36.257.514.565.257L320.55,5.5a1.021,1.021,0,0,1,1.079,0l6.833,5.24c.308.206.565.1.565-.257V6.525a1.714,1.714,0,0,0-.565-1.13L321.629.154a1.021,1.021,0,0,0-1.079,0Z" transform="translate(-261.98)" />
  </g>
</svg>
