<svg xmlns="http://www.w3.org/2000/svg" viewBox="0 0 310 100">
  <rect id="whiteBox" x="100" width="210" height="100"></rect>
  <g id="Cobert" fill="#009fe3">
    <path d="M132.03242,34.00159a22.5591,22.5591,0,0,1,5.21463.60406,26.34347,26.34347,0,0,1,5.50529,2.059v5.68446a25.96364,25.96364,0,0,0-5.3375-2.3946,17.62211,17.62211,0,0,0-5.11395-.73829,13.00031,13.00031,0,0,0-6.02,1.37591,10.08653,10.08653,0,0,0-4.17376,3.8831,11.29524,11.29524,0,0,0-.01137,11.1892,9.92294,9.92294,0,0,0,4.16294,3.8387,13.22725,13.22725,0,0,0,6.04223,1.35319,16.215,16.215,0,0,0,4.9126-.7383,35.73142,35.73142,0,0,0,5.89663-2.66306v5.68445a27.29591,27.29591,0,0,1-5.5946,2.26035,23.56048,23.56048,0,0,1-5.95293.67118,19.31209,19.31209,0,0,1-8.84007-1.96915,14.77814,14.77814,0,0,1-6.12072-5.67362,15.44881,15.44881,0,0,1-2.2268-8.11261,15.95989,15.95989,0,0,1,2.29392-8.48175,15.38022,15.38022,0,0,1,6.3107-5.79595A19.73886,19.73886,0,0,1,132.03242,34.00159Z"></path>
    <path d="M164.43791,34.00159a18.78947,18.78947,0,0,1,8.7394,2.00271,15.85083,15.85083,0,0,1,6.24359,22.17813,15.47636,15.47636,0,0,1-6.17647,5.81868,19.76906,19.76906,0,0,1-17.68015-.03355A15.47511,15.47511,0,0,1,147.161,50.04709a15.72446,15.72446,0,0,1,2.21543-8.079,15.37466,15.37466,0,0,1,6.10989-5.8739A18.61152,18.61152,0,0,1,164.43791,34.00159ZM153.4046,50.04709a11.13209,11.13209,0,0,0,1.41,5.5946,9.79947,9.79947,0,0,0,3.92748,3.84954,11.75192,11.75192,0,0,0,5.69582,1.36509,10.86323,10.86323,0,0,0,7.91125-3.02139,10.39736,10.39736,0,0,0,3.09933-7.78784,11.27059,11.27059,0,0,0-1.39865-5.60542,9.66592,9.66592,0,0,0-3.93884-3.86036,12.61365,12.61365,0,0,0-11.436.01082,9.55813,9.55813,0,0,0-3.90474,3.84954A11.40053,11.40053,0,0,0,153.4046,50.04709Z"></path>
    <path d="M198.79037,34.4043a10.636,10.636,0,0,1,7.00515,2.23762,6.96909,6.96909,0,0,1,2.708,5.5946,6.48862,6.48862,0,0,1-1.13018,3.78242,7.67525,7.67525,0,0,1-3.279,2.59594v.26847a8.97245,8.97245,0,0,1,5.09176,2.92071,7.731,7.731,0,0,1,1.82355,5.114,8.33341,8.33341,0,0,1-1.33153,4.64413,8.1928,8.1928,0,0,1-3.69257,3.07659,13.83064,13.83064,0,0,1-5.561,1.02951H187.33215V34.4043ZM197.17954,47.384a5.77752,5.77752,0,0,0,3.78187-1.141,3.88741,3.88741,0,0,0,1.38729-3.17835,3.5478,3.5478,0,0,0-1.27524-2.87524,5.07017,5.07017,0,0,0-3.357-1.06306h-4.34155V47.384ZM198.589,60.94617a7.77,7.77,0,0,0,4.63276-1.15291,3.94213,3.94213,0,0,0,1.56644-3.39054,3.70489,3.70489,0,0,0-1.55507-3.14371,6.85535,6.85535,0,0,0-4.17376-1.15291h-5.68445v8.84007Z"></path>
    <path d="M236.32118,34.4043v4.72207H222.155v8.21327h13.5616v4.72207H222.155v8.88446h14.4796v4.72207H216.11219V34.4043Z"></path>
    <path d="M253.53042,34.4043a10.48246,10.48246,0,0,1,7.18378,2.439,8.06459,8.06459,0,0,1,2.77511,6.35563,7.93334,7.93334,0,0,1-1.37592,4.64413,9.11872,9.11872,0,0,1-4.08445,3.12206,9.05446,9.05446,0,0,1,2.66307,2.19324,28.06945,28.06945,0,0,1,2.88715,4.6766q2.86442,5.685,4.2517,7.83331h-6.73615q-.69336-1.02951-1.87984-3.28986a71.61263,71.61263,0,0,0-3.80461-6.72478,9.11087,9.11087,0,0,0-2.32747-2.46171,4.61513,4.61513,0,0,0-2.57322-.72747h-2.19324V65.66824h-6.04277V34.4043Zm-1.36509,13.33805a5.45956,5.45956,0,0,0,3.72612-1.18647,4.08845,4.08845,0,0,0,1.35427-3.24439,3.84778,3.84778,0,0,0-1.3429-3.21192,6.04378,6.04378,0,0,0-3.8268-1.06306h-3.75969v8.70584Z"></path>
    <path d="M295.44717,34.4043v4.72207H284.34728V65.66824H278.3045V39.12637H267.20461V34.4043Z"></path>
  </g>
  <g id="BMI_Block">
    <rect width="100" height="100" fill="#009fe3"></rect>
    <g fill="white">
      <path d="M62.176,34.911,57.84,52.77h-.084L53.417,34.911H40.11v20.28a7.315,7.315,0,0,0-5.239-6.716c2.255-1.235,3.742-2.891,3.742-5.953,0-3.1-1.7-7.611-9.693-7.611H12.3V65.27H29.515c5.121,0,10.16-2.878,10.6-8.443V65.27h8.844V45.8h.084L54.31,65.27h6.973L66.555,45.8h.085V65.27h8.844V34.911ZM21.65,42.139h4.933c1.913,0,3.188.554,3.188,2.084,0,1.956-1.233,2.507-3.188,2.507H21.65Zm5.485,15.9H21.65V52.386h5.867c2.211,0,3.272.978,3.272,2.763,0,2.339-1.7,2.891-3.655,2.891"></path>
      <rect x="78.358" y="34.914" width="9.354" height="30.356"></rect>
    </g>
  </g>
</svg>
