<svg xmlns="http://www.w3.org/2000/svg" viewBox="0 0 300 100">
  <rect id="whiteBox" x="100" width="200" height="100"></rect>
  <g id="Ormax" fill="#e1001a">
    <path d="M131.69385,33.906a18.80545,18.80545,0,0,1,8.747,2.00487,15.86535,15.86535,0,0,1,6.24953,22.19762,15.49072,15.49072,0,0,1-6.18242,5.8241,19.7874,19.7874,0,0,1-17.6953-.03464,15.48725,15.48725,0,0,1-8.41084-13.93129A15.74015,15.74015,0,0,1,116.6194,41.88a15.39471,15.39471,0,0,1,6.1153-5.87931A18.62874,18.62874,0,0,1,131.69385,33.906ZM120.65134,49.96663a11.14083,11.14083,0,0,0,1.4111,5.59893,9.79963,9.79963,0,0,0,3.93126,3.85278,11.756,11.756,0,0,0,5.70015,1.36617,10.87445,10.87445,0,0,0,7.91829-3.02355,10.406,10.406,0,0,0,3.102-7.79433,11.27757,11.27757,0,0,0-1.39973-5.61084,9.691,9.691,0,0,0-3.94209-3.86469,12.62166,12.62166,0,0,0-11.4463.01191,9.57191,9.57191,0,0,0-3.90854,3.85278A11.413,11.413,0,0,0,120.65134,49.96663Z"></path>
    <path d="M165.87471,34.30976A10.49453,10.49453,0,0,1,173.065,36.7509a8.07251,8.07251,0,0,1,2.77727,6.361,7.94028,7.94028,0,0,1-1.37754,4.64846,9.12945,9.12945,0,0,1-4.08769,3.12423,9.08728,9.08728,0,0,1,2.66523,2.1954,28.0819,28.0819,0,0,1,2.88931,4.68093q2.86767,5.68986,4.256,7.8398h-6.7421a37.87652,37.87652,0,0,1-1.88146-3.29311,71.83219,71.83219,0,0,0-3.80786-6.73019,9.1107,9.1107,0,0,0-2.32964-2.46387,4.62353,4.62353,0,0,0-2.57592-.72856h-2.19486V65.60076h-6.04764v-31.291Zm-1.36618,13.35a5.46886,5.46886,0,0,0,3.72938-1.18755,4.094,4.094,0,0,0,1.3548-3.24764,3.847,3.847,0,0,0-1.344-3.21408,6.04505,6.04505,0,0,0-3.83-1.06415h-3.76293v8.71342Z"></path>
    <path d="M189.59546,34.30976l10.28094,12.341,10.28094-12.341h5.39812v31.291h-6.04764V43.62723h-.17917l-9.049,11.02033h-.85142l-9.049-11.02033h-.17916V65.60076h-6.04764v-31.291Z"></path>
    <path d="M238.31275,34.30976l13.82032,31.291H245.7493l-3.24764-7.61571H228.59148l-3.02355,7.61571h-6.33885l12.90179-31.291Zm-7.88419,19.08313h10.10178l-5.28607-12.3865Z"></path>
    <path d="M261.78117,34.30976l8.62356,10.59488,8.48933-10.59488h7.52586L274.16766,49.40587l13.39489,16.19489h-7.66064l-9.49718-11.69258-9.49718,11.69258h-7.61571l13.26011-16.19489L254.16546,34.30976Z"></path>
  </g>
  <g id="BMI_Block">
    <rect width="100" height="100" fill="#009fe3"></rect>
    <g fill="white">
      <path d="M62.176,34.911,57.84,52.77h-.084L53.417,34.911H40.11v20.28a7.315,7.315,0,0,0-5.239-6.716c2.255-1.235,3.742-2.891,3.742-5.953,0-3.1-1.7-7.611-9.693-7.611H12.3V65.27H29.515c5.121,0,10.16-2.878,10.6-8.443V65.27h8.844V45.8h.084L54.31,65.27h6.973L66.555,45.8h.085V65.27h8.844V34.911ZM21.65,42.139h4.933c1.913,0,3.188.554,3.188,2.084,0,1.956-1.233,2.507-3.188,2.507H21.65Zm5.485,15.9H21.65V52.386h5.867c2.211,0,3.272.978,3.272,2.763,0,2.339-1.7,2.891-3.655,2.891"></path>
      <rect x="78.358" y="34.914" width="9.354" height="30.356"></rect>
    </g>
  </g>
</svg>
