<svg xmlns="http://www.w3.org/2000/svg" viewBox="0 0 294 100">
  <rect id="whiteBox" x="100" width="194" height="100"></rect>
  <g id="Redland">
    <g fill="#e2001a">
      <path d="M132.083,43.388c0,2.74-2.366,4.223-4.675,4.214h-5.65v-7.83h6c3.081-.008,4.329.835,4.329,3.616m6.975-.979c-.41-6.364-4.38-8.029-11.33-8.026H114.4V65.621h7.5V52.929h4.7c2.618.029,3.381,2.55,4.1,4.146l2.96,7.135s.483,1.411,1.626,1.411l7.65-.038c-1.855-1.45-3.217-5.895-4-7.758-1.8-4.281-2.925-7.673-5.05-7.983,3.65-1.405,5.437-3.406,5.18-7.433"></path>
      <path d="M238.279,45.729v.136a6.953,6.953,0,0,1,6.371-3.076c2.237,0,5.974.942,7.328,4.742a11.27616,11.27616,0,0,1,.662,3.439V65.616h-6.39V52.086c-.047-2.416-1.325-3.888-3.913-3.9a3.642,3.642,0,0,0-3.65811,3.62581q-.00061.13722.00911.27419v13.53h-6.717V43.533h6.308Z"></path>
      <path d="M149.645,56.325a4.786,4.786,0,0,0,4.76592,4.806h.13809c2.1-.019,2.925-.54,4.3-2.2h6.291c-1.26,5.227-5.613,7.313-11.063,7.28-5.976-.032-11.253-4.346-11.253-11.867,0-6.763,4.128-11.957,11.253-11.957,4.379,0,7.793,1.506,9.75,5.45a14.74044,14.74044,0,0,1,1.424,4.116,14.45494,14.45494,0,0,1,.228,4.377Zm9-4.806c0-2.463-1.786-4.093-4.587-4.093a4.429,4.429,0,0,0-4.57,4.093Z"></path>
      <path d="M185.227,63.23c-1.54,2.641-3.865,3.055-6.777,3.055-6.582,0-9.671-6.139-9.671-11.915,0-6.045,3.537-11.913,10.523-11.913,2.329,0,4.229.664,5.484,2.542l.017-10.323h6.552V65.619H185.23Zm-4.89-2.115c3.753-.018,4.837-3.653,4.837-6.745s-1.028-6.595-4.657-6.6c-3.917-.005-5.017,3.153-5.017,6.6s1.408,6.758,4.835,6.745"></path>
      <rect x="196.297" y="34.764" width="6.519" height="30.945"></rect>
      <path d="M272.7,63.311c-1.539,2.643-3.864,3.055-6.775,3.055-6.583,0-9.676-6.137-9.676-11.915,0-6.043,3.539-11.911,10.526-11.911,2.326,0,4.229.66,5.481,2.543l.02-10.326h6.553V65.7H272.7ZM267.81,61.2c3.756-.017,4.838-3.65,4.838-6.744s-1.029-6.594-4.657-6.6c-3.917,0-5.019,3.15-5.019,6.6s1.41,6.762,4.838,6.744"></path>
      <path d="M221.385,57.8c0,1.27-1.174,3.777-4.958,3.758,0,0-3.45.183-3.45-2.523,0,0-.189-1.879,3.295-2.605,0,0,3.743-.79,5.121-1.3Zm.041,6.319a6.24923,6.24923,0,0,0,.579,1.59h6.4a4.314,4.314,0,0,1-.74-2.259V51.174c0-6.761-5.189-8.42-9.71-8.42a13.77484,13.77484,0,0,0-6.772,1.391,7.563,7.563,0,0,0-3.428,6.292h5.811c.009-1.026.817-2.731,4.181-2.735,2.376,0,3.364,1.058,3.364,2,0,0,.2,1.505-2.464,1.7,0,0-5.5.922-6.583,1.323-4.532,1.509-5.314,4.5-5.3,6.466.023,4.65,3.617,7.26,7.826,7.26,3.05,0,4.886-.412,6.835-2.338Z"></path>
    </g>
  </g>
  <g id="BMI_Block">
    <rect width="100" height="100" fill="#009fe3"></rect>
    <g fill="white">
      <path d="M62.176,34.911,57.84,52.77h-.084L53.417,34.911H40.11v20.28a7.315,7.315,0,0,0-5.239-6.716c2.255-1.235,3.742-2.891,3.742-5.953,0-3.1-1.7-7.611-9.693-7.611H12.3V65.27H29.515c5.121,0,10.16-2.878,10.6-8.443V65.27h8.844V45.8h.084L54.31,65.27h6.973L66.555,45.8h.085V65.27h8.844V34.911ZM21.65,42.139h4.933c1.913,0,3.188.554,3.188,2.084,0,1.956-1.233,2.507-3.188,2.507H21.65Zm5.485,15.9H21.65V52.386h5.867c2.211,0,3.272.978,3.272,2.763,0,2.339-1.7,2.891-3.655,2.891"></path>
      <rect x="78.358" y="34.914" width="9.354" height="30.356"></rect>
    </g>
  </g>
</svg>
