<svg id="Layer_1" data-name="Layer 1" xmlns="http://www.w3.org/2000/svg" viewBox="0 0 380 113"><path id="Layer_2" data-name="Layer 2" d="M1,1H58.94336V17.77344H20.1875v16.519H50.30273V50.55762H20.1875V68.85547H61.73926V85.75586H1ZM89.3125,55.89453,67.583,26.16016H89.43945L100.11328,42.044l10.80078-15.88379h19.9502l-20.9668,28.46338,22.87207,31.13232H110.91406L99.09668,68.60156,87.15234,85.75586H67.20215Zm50.82617-29.73437H157.6748q.25342,1.65307.38086,3.24023.126,1.59009.25391,3.24023a18.9602,18.9602,0,0,1,7.498-5.65478,23.86678,23.86678,0,0,1,9.52929-1.96924,24.72958,24.72958,0,0,1,11.43653,2.541A24.44026,24.44026,0,0,1,195.0332,34.356a29.66565,29.66565,0,0,1,4.95606,9.78466,39.56839,39.56839,0,0,1,1.65136,11.37256,34.20835,34.20835,0,0,1-2.79492,14.35889,29.72245,29.72245,0,0,1-7.24316,10.03809,29.22075,29.22075,0,0,1-10.03906,5.8457,34.12121,34.12121,0,0,1-11.05469,1.90625,27.62524,27.62524,0,0,1-7.11621-.7627q-2.79639-.76172-5.083-1.52441v25.79492h-18.1709ZM158.30957,69.999q3.55663,2.41554,10.54688,2.41407,6.73388,0,10.61035-4.51075,3.8745-4.50879,3.876-12.00781a23.5481,23.5481,0,0,0-.69922-5.71826,14.72279,14.72279,0,0,0-2.16015-4.89209,10.87632,10.87632,0,0,0-3.81152-3.36768,12.0518,12.0518,0,0,0-5.78223-1.2705,12.19649,12.19649,0,0,0-5.40039,1.14355,11.71233,11.71233,0,0,0-3.93848,3.04981,13.4854,13.4854,0,0,0-2.415,4.32031,15.18509,15.18509,0,0,0-.82617,4.95556Zm110.42188,9.27637q-1.01808.63721-3.04981,2.09668a28.328,28.328,0,0,1-5.27246,2.85938A48.40739,48.40739,0,0,1,252.7207,86.709a43.33352,43.33352,0,0,1-10.165,1.08008A37.93131,37.93131,0,0,1,228.832,85.43848a29.81056,29.81056,0,0,1-10.35644-6.54395A27.60812,27.60812,0,0,1,211.99512,68.792a36.68361,36.68361,0,0,1-2.22364-13.02441,34.95,34.95,0,0,1,2.09668-12.0083,29.9941,29.9941,0,0,1,6.03516-10.102,29.36026,29.36026,0,0,1,9.6582-6.9253,30.94733,30.94733,0,0,1,12.96094-2.605,29.85412,29.85412,0,0,1,12.707,2.54151,26.18019,26.18019,0,0,1,9.21192,7.05224,30.54013,30.54013,0,0,1,5.65527,10.80078,47.38529,47.38529,0,0,1,1.90625,13.78711V61.3584H227.56152a11.36119,11.36119,0,0,0,4.25684,8.45019q4.12647,3.62111,11.37207,3.6211A27.2651,27.2651,0,0,0,254.75391,71.333a39.63138,39.63138,0,0,0,6.48047-3.6211ZM252.7207,49.668a10.70042,10.70042,0,0,0-.76172-3.87549,11.3905,11.3905,0,0,0-2.28808-3.62158,12.23458,12.23458,0,0,0-3.81152-2.73194,12.72533,12.72533,0,0,0-5.46387-1.08007,13.59129,13.59129,0,0,0-5.5918,1.08007,12.63364,12.63364,0,0,0-4.00195,2.73194,11.77494,11.77494,0,0,0-2.415,3.62158,9.95578,9.95578,0,0,0-.8252,3.87549ZM280.415,26.16016h17.53613l.63477,7.49707a27.32286,27.32286,0,0,1,6.29-5.84522q4.00341-2.79345,10.35644-2.79541a28.78717,28.78717,0,0,1,4.12988.25391,15.94456,15.94456,0,0,1,3.36719.88965l-2.92285,16.13769a21.91808,21.91808,0,0,0-6.60742-.88965,14.43894,14.43894,0,0,0-10.4834,3.876q-4.002,3.87744-4.002,10.99121V85.75586H280.415ZM337.34277,40.519h-9.40332V26.16016h9.40332V6.59131h18.29785V26.16016h15.375V40.519h-15.375V64.02686a11.17174,11.17174,0,0,0,1.71485,6.67138q1.71532,2.35254,5.40039,2.35059a11.28793,11.28793,0,0,0,4.8291-.95313,24.27437,24.27437,0,0,0,3.8125-2.22363l7.37012,11.18262A29.61882,29.61882,0,0,1,359.96094,87.916a27.25216,27.25216,0,0,1-10.67383-1.84278,17.99121,17.99121,0,0,1-6.98926-5.082,19.57772,19.57772,0,0,1-3.81152-7.81543,41.91122,41.91122,0,0,1-1.14356-10.16553Z" fill="#6d6e71"/></svg>