<svg id="Layer_1" data-name="Layer 1" xmlns="http://www.w3.org/2000/svg" viewBox="0 0 247 89"><path id="Layer_2" data-name="Layer 2" d="M1,1H58.94336V17.77344H20.1875v16.519H50.30273V50.55762H20.1875V68.85547H61.73926V85.75586H1ZM73.17383,1H91.47266V85.75586H73.17383Zm31.64062,0h19.56934V17.39209H104.81445Zm.63575,25.16016h18.29785v59.5957H105.4502ZM142.17188,40.519H132.769V26.16016h9.40284V6.59131H160.4707V26.16016h15.375V40.519h-15.375V64.02686a11.17174,11.17174,0,0,0,1.71485,6.67138q1.71533,2.35254,5.40039,2.35059a11.288,11.288,0,0,0,4.8291-.95313,24.27437,24.27437,0,0,0,3.8125-2.22363l7.37012,11.18262A29.61882,29.61882,0,0,1,164.791,87.916a27.25213,27.25213,0,0,1-10.67383-1.84278,17.99121,17.99121,0,0,1-6.98926-5.082,19.56487,19.56487,0,0,1-3.81152-7.81543,41.90936,41.90936,0,0,1-1.14453-10.16553ZM244.207,79.27539q-1.01807.63721-3.0498,2.09668a28.32832,28.32832,0,0,1-5.27246,2.85938,48.40806,48.40806,0,0,1-7.68848,2.47753,43.33358,43.33358,0,0,1-10.165,1.08008,37.93123,37.93123,0,0,1-13.72363-2.35058,29.8107,29.8107,0,0,1-10.35645-6.54395A27.58319,27.58319,0,0,1,187.4707,68.792a36.68361,36.68361,0,0,1-2.22363-13.02441,34.94974,34.94974,0,0,1,2.09668-12.0083,29.97821,29.97821,0,0,1,6.03516-10.102,29.36026,29.36026,0,0,1,9.6582-6.9253,30.9473,30.9473,0,0,1,12.96094-2.605,29.85418,29.85418,0,0,1,12.707,2.54151A26.18006,26.18006,0,0,1,237.917,33.7207a30.54,30.54,0,0,1,5.65528,10.80078,47.38562,47.38562,0,0,1,1.90625,13.78711V61.3584H203.03711a11.36119,11.36119,0,0,0,4.25684,8.45019q4.12645,3.62111,11.37207,3.6211A27.26505,27.26505,0,0,0,230.22949,71.333a39.63094,39.63094,0,0,0,6.48047-3.6211ZM228.19629,49.668a10.70063,10.70063,0,0,0-.76172-3.87549,11.39053,11.39053,0,0,0-2.28809-3.62158A12.23447,12.23447,0,0,0,221.335,39.439a12.7253,12.7253,0,0,0-5.46387-1.08007A13.59124,13.59124,0,0,0,210.2793,39.439a12.63358,12.63358,0,0,0-4.002,2.73194,11.7753,11.7753,0,0,0-2.415,3.62158,9.95594,9.95594,0,0,0-.82519,3.87549Z" fill="#b6b9bf"/></svg>
