<svg xmlns="http://www.w3.org/2000/svg" width="250" height="63.333" viewBox="0 0 250 63.333">
  <g id="INDUSTRIES_COMPANY" transform="translate(0 44.328)" fill="#3b3b3b">
    <rect width="2.928" height="18.44" transform="translate(0 0.257)"></rect>
    <path d="M15.179,92.45l6.986,12.841h2.722V86.8H21.908V99.641L14.871,86.8H12.2v18.491h2.979Z" transform="translate(-5.933 -86.543)"></path>
    <path d="M56.063,104.056c.822-.873,1.233-2.414,1.233-4.726V92.91c0-2.311-.411-3.9-1.233-4.726-.822-.873-2.363-1.284-4.571-1.284H44.3v18.44h7.242C53.7,105.34,55.241,104.878,56.063,104.056ZM53.751,102.1a3.3,3.3,0,0,1-2.466.668H47.176v-13.3h4.109a3.3,3.3,0,0,1,2.466.668,4.468,4.468,0,0,1,.616,2.825v6.318A4.468,4.468,0,0,1,53.751,102.1Z" transform="translate(-21.545 -86.592)"></path>
    <path d="M84.581,86.8V99.436a4.468,4.468,0,0,1-.616,2.825,3.233,3.233,0,0,1-2.414.668H79.958a3.155,3.155,0,0,1-2.414-.668,4.468,4.468,0,0,1-.616-2.825V86.8H74V99.436q0,3.467,1.233,4.777c.822.822,2.363,1.284,4.572,1.284h1.9c2.26,0,3.75-.411,4.572-1.284q1.233-1.233,1.233-4.777V86.8Z" transform="translate(-35.99 -86.543)"></path>
    <path d="M117.517,96.616a5.15,5.15,0,0,0-2.825-1.438l-3.6-.925a5.056,5.056,0,0,1-2.055-.822,2.481,2.481,0,0,1-.411-1.592V91.12a1.912,1.912,0,0,1,.514-1.592,3.637,3.637,0,0,1,2-.411h1.233a3.516,3.516,0,0,1,2,.411,1.912,1.912,0,0,1,.514,1.592v1.13h2.928v-.873c0-1.8-.36-3.082-1.13-3.75S114.486,86.6,112.38,86.6h-1.336c-2.157,0-3.6.36-4.315,1.027-.77.668-1.13,1.952-1.13,3.75v.514a5.487,5.487,0,0,0,.719,3.185,5.15,5.15,0,0,0,2.825,1.438l3.6.925a4.724,4.724,0,0,1,2.055.822,2.481,2.481,0,0,1,.411,1.592v1.079a1.912,1.912,0,0,1-.514,1.592,3.637,3.637,0,0,1-2,.411H111.4a3.517,3.517,0,0,1-2-.411,1.912,1.912,0,0,1-.514-1.592V99.749H105.96v.873c0,1.8.36,3.082,1.13,3.75S109.3,105.4,111.4,105.4h1.387c2.157,0,3.6-.36,4.315-1.027.77-.668,1.13-1.952,1.13-3.75V99.8A5.017,5.017,0,0,0,117.517,96.616Z" transform="translate(-51.359 -86.446)"></path>
    <path d="M137.482,89.42v15.872h2.928V89.42h4.469V86.8H132.5v2.62Z" transform="translate(-64.441 -86.543)"></path>
    <path d="M171.236,92.191c0-2-.411-3.39-1.284-4.161s-2.363-1.13-4.52-1.13H158.6v18.44h2.928V99.382h3.75l2.876,5.958h3.082l-3.082-6.215a3.792,3.792,0,0,0,2.363-1.592,6.872,6.872,0,0,0,.719-3.441Zm-9.657-2.722h4.006a2.785,2.785,0,0,1,2.106.616,3.022,3.022,0,0,1,.565,2.157v1.8a3.294,3.294,0,0,1-.565,2.157,2.865,2.865,0,0,1-2.106.616h-4.006Z" transform="translate(-77.135 -86.592)"></path>
    <rect width="2.928" height="18.44" transform="translate(97.337 0.257)"></rect>
    <path d="M212.846,102.723h-8.218V97.33h7.088V94.71h-7.088V89.42h8.064V86.8H201.7v18.491h11.146Z" transform="translate(-98.097 -86.543)"></path>
    <path d="M238.917,96.616a5.151,5.151,0,0,0-2.825-1.438l-3.6-.925a5.056,5.056,0,0,1-2.055-.822,2.481,2.481,0,0,1-.411-1.592V91.12a1.912,1.912,0,0,1,.514-1.592,3.637,3.637,0,0,1,2-.411h1.233a3.516,3.516,0,0,1,2,.411,1.912,1.912,0,0,1,.514,1.592v1.13h2.928v-.873c0-1.8-.36-3.082-1.13-3.75S235.886,86.6,233.78,86.6h-1.335c-2.157,0-3.6.36-4.315,1.027-.77.668-1.13,1.952-1.13,3.75v.514a5.487,5.487,0,0,0,.719,3.185,5.151,5.151,0,0,0,2.825,1.438l3.6.925a4.723,4.723,0,0,1,2.055.822,2.482,2.482,0,0,1,.411,1.592v1.079a1.912,1.912,0,0,1-.514,1.592,3.637,3.637,0,0,1-2,.411H232.8a3.517,3.517,0,0,1-2-.411,1.912,1.912,0,0,1-.514-1.592V99.749H227.36v.873c0,1.8.36,3.082,1.13,3.75S230.7,105.4,232.8,105.4h1.387c2.157,0,3.6-.36,4.315-1.027.771-.668,1.13-1.952,1.13-3.75V99.8A5.376,5.376,0,0,0,238.917,96.616Z" transform="translate(-110.401 -86.446)"></path>
    <path d="M280.73,99.706c0,1.438-.205,1.849-.616,2.311a3.233,3.233,0,0,1-2.414.668h-1.541a3.155,3.155,0,0,1-2.414-.668,4.468,4.468,0,0,1-.616-2.825v-6.78a4.468,4.468,0,0,1,.616-2.825,3.233,3.233,0,0,1,2.414-.668H277.7a3.155,3.155,0,0,1,2.414.668c.411.462.616.873.616,2.311v1.233h2.928V91.847c0-2.311-.411-3.39-1.233-4.263s-2.363-1.284-4.571-1.284H276c-2.26,0-3.75.411-4.572,1.284q-1.233,1.233-1.233,4.777v6.832q0,3.467,1.233,4.777c.822.822,2.363,1.284,4.572,1.284h1.849c2.26,0,3.75-.411,4.571-1.284.822-.822,1.233-1.9,1.233-4.263V98.474H280.73Z" transform="translate(-131.412 -86.3)"></path>
    <path d="M313.176,87.684c-.822-.822-2.363-1.284-4.572-1.284h-1.9c-2.26,0-3.75.411-4.571,1.284q-1.233,1.233-1.233,4.777v6.832q0,3.467,1.233,4.777c.822.822,2.363,1.284,4.571,1.284h1.9c2.26,0,3.75-.411,4.572-1.284q1.233-1.233,1.233-4.777V92.461Q314.409,88.917,313.176,87.684Zm-2.311,14.382a3.233,3.233,0,0,1-2.414.668h-1.592a3.155,3.155,0,0,1-2.414-.668,4.468,4.468,0,0,1-.616-2.825v-6.78a4.468,4.468,0,0,1,.616-2.825,3.233,3.233,0,0,1,2.414-.668h1.592a3.155,3.155,0,0,1,2.414.668,4.468,4.468,0,0,1,.616,2.825v6.78A4.468,4.468,0,0,1,310.865,102.066Z" transform="translate(-146.343 -86.349)"></path>
    <path d="M332.8,86.8v18.491h2.928V90.344l4.469,11.249,2.722-.051,4.52-11.352v15.1h2.979V86.8H345.9l-4.315,11.608L337.269,86.8Z" transform="translate(-161.857 -86.543)"></path>
    <path d="M375.479,89.468h4.058a2.258,2.258,0,0,1,2.722,2.774V94.3a3.294,3.294,0,0,1-.565,2.157,3.008,3.008,0,0,1-2.157.616h-4.058Zm8.475,8.989c.873-.77,1.284-2.157,1.284-4.161V92.191c0-2-.411-3.39-1.284-4.161s-2.363-1.13-4.572-1.13H372.5v18.44h2.979v-5.7h3.9C381.54,99.639,383.081,99.228,383.954,98.457Z" transform="translate(-181.165 -86.592)"></path>
    <path d="M411.955,105.34l-5.8-18.44H402.5l-5.8,18.44h3.082l1.181-3.75H408l1.181,3.75Zm-4.777-6.215h-5.5l2.774-8.835Z" transform="translate(-192.935 -86.592)"></path>
    <path d="M432.831,92.45l7.191,12.841H442.8V86.8h-3.03V99.641L432.522,86.8H429.8v18.491h3.031Z" transform="translate(-209.033 -86.543)"></path>
    <path d="M467.029,99.179,472.885,86.8h-2.928l-4.315,9.3-4.315-9.3H458.4l5.856,12.379v6.112h2.774Z" transform="translate(-222.943 -86.543)"></path>
  </g>
  <g id="A" transform="translate(86.499 15.256)" fill="#3b3b3b">
    <path d="M177.7,29.7h-3.6l-5.7,19.416h3.031l1.13-3.955h6.883l1.13,3.955h2.774ZM173.28,42.644l2.722-9.3,2.671,9.3Z" transform="translate(-168.4 -29.7)"></path>
  </g>
  <g id="standard" transform="translate(109.716)" fill="#3b3b3b">
    <path d="M214.319,36.786a4.456,4.456,0,0,0,1.8,1.849,12.987,12.987,0,0,0,2.311.976,12.635,12.635,0,0,0,2.311.565,7.319,7.319,0,0,1,1.8.565,1.409,1.409,0,0,1,.77,1.079v.668a1.4,1.4,0,0,1-.411.976,1.519,1.519,0,0,1-1.027.308h-2.311a1.477,1.477,0,0,1-1.027-.462,1.593,1.593,0,0,1-.462-1.13v-.205c0-.462-.205-.668-.565-.668h-3.287c-.411,0-.616.205-.616.668v.205a7.122,7.122,0,0,0,1.592,4.212,4.505,4.505,0,0,0,3.75,1.8h3.544a4.69,4.69,0,0,0,3.75-1.592,6.24,6.24,0,0,0,1.541-3.955v-.514a6.058,6.058,0,0,0-.976-3.544,5.144,5.144,0,0,0-2.414-1.9,17.808,17.808,0,0,0-2.825-.822,13.058,13.058,0,0,1-2.414-.719c-.668-.257-1.027-.668-1.027-1.181V33.5a1.4,1.4,0,0,1,.411-.976,1.519,1.519,0,0,1,1.027-.308h2.055a1.477,1.477,0,0,1,1.027.462,1.594,1.594,0,0,1,.462,1.13v.205c0,.411.205.668.616.668h3.287c.36,0,.565-.205.565-.668v-.205a7.415,7.415,0,0,0-1.541-4.212,4.505,4.505,0,0,0-3.75-1.8h-3.339a4.69,4.69,0,0,0-3.75,1.592,6.24,6.24,0,0,0-1.541,3.955v.308A6.067,6.067,0,0,0,214.319,36.786Z" transform="translate(-213.6 -13.517)"></path>
    <path d="M245.416,28.005h2.311v9.451a7.122,7.122,0,0,0,1.592,4.212,4.6,4.6,0,0,0,3.8,1.8h3.287c.411,0,.616-.205.616-.668V39.562c0-.462-.205-.668-.616-.668h-2.157a1.477,1.477,0,0,1-1.027-.462,1.593,1.593,0,0,1-.462-1.13v-9.3h3.6c.411,0,.616-.205.616-.668V24.05c0-.462-.205-.668-.616-.668h-3.6V18.4h-5.034v4.982h-2.311c-.411,0-.616.205-.616.668v3.287c0,.411.205.668.616.668Z" transform="translate(-228.774 -8.949)"></path>
    <path d="M321.737,31.972h.514a1.457,1.457,0,0,1,1.13.514,1.556,1.556,0,0,1,.514,1.13V47.124a.618.618,0,0,0,.514.668h3.9a.58.58,0,0,0,.668-.514V33.41a6.421,6.421,0,0,0-1.9-4.366,6.166,6.166,0,0,0-4.417-1.746h-.616a4.2,4.2,0,0,0-4.006,2.26h-.308V28.222c0-.462-.205-.719-.616-.719h-3.8a.64.64,0,0,0-.719.514V47.022a.618.618,0,0,0,.514.668h3.9a.58.58,0,0,0,.668-.514V34.232a4.38,4.38,0,0,1,4.058-2.26Z" transform="translate(-261.742 -13.275)"></path>
    <path d="M362.078,36.2a1.651,1.651,0,0,1-1.079.514h-2.979a1.446,1.446,0,0,1-1.079-.514,1.593,1.593,0,0,1-.462-1.13V26.955a1.593,1.593,0,0,1,.462-1.13,1.651,1.651,0,0,1,1.079-.514H361a1.446,1.446,0,0,1,1.079.514,1.593,1.593,0,0,1,.462,1.13v8.116A1.406,1.406,0,0,1,362.078,36.2Zm.205-14.023a3.012,3.012,0,0,0-2.722-1.49h-2.671a4.471,4.471,0,0,0-3.8,1.644,7.272,7.272,0,0,0-1.49,4.417v8.475a8,8,0,0,0,1.49,4.417,4.531,4.531,0,0,0,3.8,1.644h2.671a2.958,2.958,0,0,0,2.722-1.49h.308v.616c0,.462.205.668.668.668h3.6a.6.6,0,0,0,.668-.668V14.319c0-.462-.205-.719-.668-.719h-3.6c-.36,0-.565.257-.565.719v7.859Z" transform="translate(-280.716 -6.614)"></path>
    <path d="M440.895,31.6l.257-3.236a.766.766,0,0,0-.462-.77,7.163,7.163,0,0,0-2.106-.205,4.054,4.054,0,0,0-4.006,2.26h-.257V28.312c0-.462-.154-.719-.514-.719h-3.39c-.411,0-.616.257-.616.719V47.163c0,.462.205.668.616.668h3.339c.411,0,.616-.205.616-.668V34.27c.719-1.49,2-2.209,4.006-2.209l2,.205c.308,0,.514-.257.514-.668Z" transform="translate(-318.749 -13.313)"></path>
    <path d="M465.741,36.2a1.911,1.911,0,0,1-1.13.514h-3.082a1.768,1.768,0,0,1-1.644-1.644V26.955a1.65,1.65,0,0,1,.514-1.13,1.91,1.91,0,0,1,1.13-.514h3.082a1.767,1.767,0,0,1,1.644,1.644v8.116A1.91,1.91,0,0,1,465.741,36.2Zm.154-14.023a3.176,3.176,0,0,0-2.825-1.49H460.3a4.829,4.829,0,0,0-3.955,1.644,7.67,7.67,0,0,0-1.541,4.417v8.475a7.67,7.67,0,0,0,1.541,4.417,4.728,4.728,0,0,0,3.9,1.644h2.774a3.176,3.176,0,0,0,2.825-1.49h.308v.616a.58.58,0,0,0,.514.668h3.852a.618.618,0,0,0,.668-.514V14.319a.64.64,0,0,0-.514-.719h-3.9c-.411,0-.565.257-.565.719v7.859Z" transform="translate(-330.908 -6.614)"></path>
    <path d="M401.335,43.3a1.911,1.911,0,0,1-1.13.514h-2.928a1.768,1.768,0,0,1-1.644-1.644V34.056a1.65,1.65,0,0,1,.514-1.13,1.91,1.91,0,0,1,1.13-.514h2.928a1.768,1.768,0,0,1,1.644,1.644v8.116A1.911,1.911,0,0,1,401.335,43.3ZM396.1,28.2c-3.75,0-5.5,3.236-5.5,6.267v7.859a7.67,7.67,0,0,0,1.541,4.417,4.728,4.728,0,0,0,3.9,1.644h2.774a3.176,3.176,0,0,0,2.825-1.49h.308v.616a.58.58,0,0,0,.514.668h3.852a.618.618,0,0,0,.668-.514V28.2Z" transform="translate(-299.684 -13.715)"></path>
    <path d="M283.887,43.3a1.911,1.911,0,0,1-1.13.514h-2.928a1.768,1.768,0,0,1-1.644-1.644V34.056a1.65,1.65,0,0,1,.514-1.13,1.91,1.91,0,0,1,1.13-.514h2.928a1.767,1.767,0,0,1,1.644,1.644v8.116A1.911,1.911,0,0,1,283.887,43.3ZM278.6,28.2c-3.75,0-5.5,3.236-5.5,6.267v7.859a7.67,7.67,0,0,0,1.541,4.417,4.728,4.728,0,0,0,3.9,1.644h2.774a3.176,3.176,0,0,0,2.825-1.49h.308v.616a.58.58,0,0,0,.514.668h3.852a.618.618,0,0,0,.668-.514V28.2Z" transform="translate(-242.538 -13.715)"></path>
    <path d="M313.665,5.393a1.516,1.516,0,0,0-.565,1.13v3.955c0,.36.257.514.565.257L320.548,5.5a1.021,1.021,0,0,1,1.079,0l6.832,5.239c.308.205.565.1.565-.257V6.523a1.714,1.714,0,0,0-.565-1.13L321.627.154a1.021,1.021,0,0,0-1.079,0Z" transform="translate(-261.992)"></path>
  </g>
</svg>
