<svg id="Vedag" xmlns="http://www.w3.org/2000/svg" viewBox="0 0 280 100">
  <rect id="whiteBox" x="100" width="180" height="100"></rect>
  <g fill="#00377a">
    <path d="M114.40426,34.89852H124.404l5.29352,20.12536,5.50433-20.12536h9.99923l-10.50368,30.251h-9.95781Z"></path>
    <path d="M147.50466,65.14948v-30.251h24.66275v7.058H157.42v4.32816h12.47846v7.058H157.42V58.0904h15.33576v7.05908Z"></path>
    <path d="M175.52128,65.14948v-30.251h13.27708c9.74754,0,15.79773,4.53791,15.79773,14.49571,0,11.38514-6.34437,15.75525-16.04995,15.75525Zm9.91586-7.05908h2.10063c4.62181,0,7.14246-2.43623,7.14246-8.15082,0-6.30189-2.05868-7.983-7.35273-7.983h-1.89036Z"></path>
    <path d="M203.61394,65.14948l10.84033-30.251h10.08365l10.8398,30.251h-9.87391L224.32765,61.158h-9.87338l-1.13474,3.99151Zm15.79773-21.1332-3.067,10.8398h6.26047Z"></path>
    <path d="M265.40719,65.23338h-6.38631l-.37808-2.98262c-1.63866,1.93283-4.36958,3.69681-9.11776,3.69681-7.73028,0-14.663-4.99935-14.663-15.5455,0-9.66311,6.05019-16.30164,15.83968-16.30164,7.26883,0,13.10875,3.78071,14.32739,11.21839h-9.41141a4.942,4.942,0,0,0-5.08378-3.82371c-3.90761,0-5.75655,3.529-5.75655,8.865,0,4.28516,1.34449,8.19277,6.34437,8.19277,2.01673,0,4.57986-1.38643,5.08378-3.48706h-4.36959V48.51119h13.57125Z"></path>
  </g>
  <g id="BMI_Block">
    <rect width="100" height="100" fill="#009fe3"></rect>
    <g fill="white">
      <path d="M62.176,34.911,57.84,52.77h-.084L53.417,34.911H40.11v20.28a7.315,7.315,0,0,0-5.239-6.716c2.255-1.235,3.742-2.891,3.742-5.953,0-3.1-1.7-7.611-9.693-7.611H12.3V65.27H29.515c5.121,0,10.16-2.878,10.6-8.443V65.27h8.844V45.8h.084L54.31,65.27h6.973L66.555,45.8h.085V65.27h8.844V34.911ZM21.65,42.139h4.933c1.913,0,3.188.554,3.188,2.084,0,1.956-1.233,2.507-3.188,2.507H21.65Zm5.485,15.9H21.65V52.386h5.867c2.211,0,3.272.978,3.272,2.763,0,2.339-1.7,2.891-3.655,2.891"></path>
      <rect x="78.358" y="34.914" width="9.354" height="30.356"></rect>
    </g>
  </g>
</svg>
