<svg xmlns="http://www.w3.org/2000/svg" viewBox="0 0 280 100">
  <rect id="whiteBox" x="100" width="180" height="100"></rect>
  <g fill="#00519e">
    <path d="M114.4367,34.88722h10.00064l5.2948,20.1282,5.5051-20.1282h10.00064L134.73272,65.14245H124.774Z"></path>
    <path d="M147.00212,65.14245V34.88722h9.91673V65.14245Z"></path>
    <path d="M159.92711,65.14245V34.88722h9.91725V58.08237H183.459v7.06008Z"></path>
    <path d="M185.78483,65.14245V34.88722h9.91674V58.08237h13.61511v7.06008Z"></path>
    <path d="M210.58322,65.14245l10.84185-30.25523h10.08508l10.84133,30.25523h-9.8753l-1.17633-3.99208h-9.87478l-1.1349,3.99208Zm15.8-21.13618L223.3157,54.84759h6.26135Z"></path>
    <path d="M258.8479,43.66957a2.66331,2.66331,0,0,0-1.42911-2.059,5.47974,5.47974,0,0,0-2.563-.54647c-2.18537,0-3.15192.63038-3.15192,1.72333,0,4.5375,17.39689,1.72228,17.39689,12.73247,0,7.01708-5.84074,10.42072-14.16106,10.42072-7.98415,0-13.19452-4.66441-13.40482-10.127h9.49665a3.45229,3.45229,0,0,0,1.63889,2.39567,5.44757,5.44757,0,0,0,2.81575.75625c2.47905,0,4.11794-.79821,4.11794-2.22785,0-4.57945-17.39689-1.42858-17.39689-12.9842,0-6.42865,5.54706-9.66448,13.1106-9.66448,8.40424,0,12.228,4.28577,12.94278,9.58056Z"></path>
  </g>
  <g id="BMI_Block">
    <rect width="100" height="100" fill="#009fe3"></rect>
    <g fill="white">
      <path d="M62.176,34.911,57.84,52.77h-.084L53.417,34.911H40.11v20.28a7.315,7.315,0,0,0-5.239-6.716c2.255-1.235,3.742-2.891,3.742-5.953,0-3.1-1.7-7.611-9.693-7.611H12.3V65.27H29.515c5.121,0,10.16-2.878,10.6-8.443V65.27h8.844V45.8h.084L54.31,65.27h6.973L66.555,45.8h.085V65.27h8.844V34.911ZM21.65,42.139h4.933c1.913,0,3.188.554,3.188,2.084,0,1.956-1.233,2.507-3.188,2.507H21.65Zm5.485,15.9H21.65V52.386h5.867c2.211,0,3.272.978,3.272,2.763,0,2.339-1.7,2.891-3.655,2.891"></path>
      <rect x="78.358" y="34.914" width="9.354" height="30.356"></rect>
    </g>
  </g>
</svg>
