<svg xmlns="http://www.w3.org/2000/svg" viewBox="0 0 294 100">
  <rect id="whiteBox" x="100" width="194" height="100"></rect>
  <g id="Zanda" fill="#e2001a">
    <path d="M113.861,65.6l19.021-26.67H115.82V34.241h27.234L125.5,60.426h17.957V65.6Z"></path>
    <path d="M144.742,65.6l13.1-31.357h6.73L178.21,65.6h-7.249l-3-7.945H154.582l-3,7.945Zm12.184-12.3h9.167l-4.932-12.71Z"></path>
    <path d="M180.847,65.6V34.241h6.133l17.482,21.22V34.241h6.454V65.6h-5.444L187.3,44.1V65.6Z"></path>
    <path d="M216.321,65.6V34.241h12.4a23.363,23.363,0,0,1,9.137,1.67,13.44405,13.44405,0,0,1,6.223,5.171,16.29291,16.29291,0,0,1,2.266,9,15.28912,15.28912,0,0,1-2.291,8.627,13.97608,13.97608,0,0,1-6.273,5.171,22.84175,22.84175,0,0,1-9.112,1.716Zm6.276-5.266h5.527q5.626,0,8.639-2.695t3.013-7.792a11.338,11.338,0,0,0-2.766-8.06q-2.766-2.962-8.888-2.962H222.6Z"></path>
    <path d="M246.672,65.6l13.205-31.357h6.785L279.868,65.6H272.56l-3.027-7.945H256.589L253.564,65.6Zm11.743-12.832h9.239L263.061,40.59Z"></path>
  </g>
  <g id="BMI_Block">
    <rect width="100" height="100" fill="#009fe3"></rect>
    <g fill="white">
      <path d="M62.176,34.911,57.84,52.77h-.084L53.417,34.911H40.11v20.28a7.315,7.315,0,0,0-5.239-6.716c2.255-1.235,3.742-2.891,3.742-5.953,0-3.1-1.7-7.611-9.693-7.611H12.3V65.27H29.515c5.121,0,10.16-2.878,10.6-8.443V65.27h8.844V45.8h.084L54.31,65.27h6.973L66.555,45.8h.085V65.27h8.844V34.911ZM21.65,42.139h4.933c1.913,0,3.188.554,3.188,2.084,0,1.956-1.233,2.507-3.188,2.507H21.65Zm5.485,15.9H21.65V52.386h5.867c2.211,0,3.272.978,3.272,2.763,0,2.339-1.7,2.891-3.655,2.891"></path>
      <rect x="78.358" y="34.914" width="9.354" height="30.356"></rect>
    </g>
  </g>
</svg>
