{"asset":{"version":"2.0","generator":"babylon.js glTF exporter for 3dsmax 2020 v20200917.1"},"scene":0,"scenes":[{"nodes":[0,1,2,3,4,5,6,7,8,9,10,11,12,13,14,15,16,17,18,19,20,21,22,23,24,25,26,27,28,29]}],"nodes":[{"mesh":0,"rotation":[-1.0,2.3210905E-14,1.1920929E-07,1.94707184E-07],"name":"Object073"},{"translation":[-17.0607262,0.0,0.0],"name":"Display 012"},{"translation":[-17.0607262,0.0,0.0],"name":"Event 012"},{"translation":[-17.0607262,0.0,0.0],"name":"Display 011"},{"translation":[-17.0607262,0.0,0.0],"name":"Event 011"},{"translation":[-17.0607262,0.0,0.0],"name":"Display 010"},{"translation":[-17.0607262,0.0,0.0],"name":"Event 010"},{"translation":[-17.0607262,0.0,0.0],"name":"Display 009"},{"translation":[-17.0607262,0.0,0.0],"name":"Event 009"},{"translation":[-17.0607262,0.0,0.0],"name":"Display 008"},{"translation":[-17.0607262,0.0,0.0],"name":"Event 008"},{"translation":[-17.0607262,0.0,0.0],"name":"Display 007"},{"translation":[-17.0607262,0.0,0.0],"name":"Event 007"},{"translation":[-17.0607262,0.0,0.0],"name":"Display 006"},{"translation":[-17.0607262,0.0,0.0],"name":"Event 006"},{"translation":[-17.0607262,0.0,0.0],"name":"Display 005"},{"translation":[-17.0607262,0.0,0.0],"name":"Event 005"},{"translation":[-17.0607262,0.0,0.0],"name":"Display 004"},{"translation":[-17.0607262,0.0,0.0],"name":"Event 004"},{"translation":[-14.2155323,0.168059081,6.374673],"name":"mP World 003"},{"translation":[-14.2155323,0.168059081,6.374673],"name":"mP Shape 001"},{"translation":[-14.2155323,0.168059081,6.374673],"name":"Shape 001"},{"translation":[-17.0607262,0.0,0.0],"name":"Display 003"},{"translation":[-17.0607262,0.0,0.0],"name":"Event 003"},{"translation":[-17.0607262,0.0,0.0],"name":"Display 002"},{"translation":[-17.0607262,0.0,0.0],"name":"Event 002"},{"translation":[-17.0607262,0.0,0.0],"name":"Display 001"},{"translation":[-17.0607262,0.0,0.0],"name":"Event 001"},{"translation":[-17.0607262,0.0,0.0],"name":"Action Recovery"},{"name":"Default light"}],"meshes":[{"primitives":[{"attributes":{"POSITION":1,"NORMAL":2,"TEXCOORD_0":3},"indices":0,"material":0}],"name":"Object073"}],"accessors":[{"bufferView":0,"componentType":5123,"count":33264,"type":"SCALAR","name":"accessorIndices"},{"bufferView":1,"componentType":5126,"count":33264,"max":[0.6531188,0.03567556,0.2057151],"min":[-0.6531188,-0.0356755555,-0.205715016],"type":"VEC3","name":"accessorPositions"},{"bufferView":1,"byteOffset":399168,"componentType":5126,"count":33264,"type":"VEC3","name":"accessorNormals"},{"bufferView":2,"componentType":5126,"count":33264,"type":"VEC2","name":"accessorUVs"}],"bufferViews":[{"buffer":0,"byteLength":66528,"name":"bufferViewScalar"},{"buffer":0,"byteOffset":66528,"byteLength":798336,"byteStride":12,"name":"bufferViewFloatVec3"},{"buffer":0,"byteOffset":864864,"byteLength":266112,"byteStride":8,"name":"bufferViewFloatVec2"}],"buffers":[{"uri":"Classic_single_GLTF_06.bin","byteLength":1130976}],"materials":[{"pbrMetallicRoughness":{"baseColorTexture":{"index":1},"metallicFactor":0.0,"roughnessFactor":0.450053632},"normalTexture":{"index":0},"name":"Material #27", "doubleSided": true}],"textures":[{"sampler":0,"source":0,"name":"BMI_textures_metallic_normal.jpg"},{"sampler":0,"source":1,"name":"BMI_textures_metallic_basecolor.jpg"}],"images":[{"uri":"./BMI_textures_metallic_normal.jpg"},{"uri":"./BMI_textures_metallic_basecolor.jpg"}],"samplers":[{"magFilter":9729,"minFilter":9987}]}