<svg width="330" height="180" viewBox="0 0 330 180" fill="none" xmlns="http://www.w3.org/2000/svg">
<path d="M0 0H330V180H0V0Z" fill="white"/>
<path fill-rule="evenodd" clip-rule="evenodd" d="M189.298 82.0397L150.958 43.6997H183.898C186.868 43.6997 189.298 46.1297 189.298 49.0997V82.0397ZM188.49 95L185.79 92.3H146.1C143.13 92.3 140.7 89.87 140.7 86.9V47.21L138 44.51L141.51 41L192 91.49L188.49 95ZM177.958 84.1999L167.428 73.6699L162.298 80.1499L155.548 72.0499L146.098 84.1999H177.958Z" fill="#CCCCCC"/>
<path d="M94.5174 128.994H96.2634L102.815 138.372V128.994H104.507V141H102.779L96.2094 131.604V141H94.5174V128.994Z" fill="#CCCCCC"/>
<path d="M111.024 141.252C110.376 141.252 109.782 141.138 109.242 140.91C108.702 140.67 108.234 140.346 107.838 139.938C107.454 139.53 107.148 139.062 106.92 138.534C106.704 137.994 106.596 137.418 106.596 136.806C106.596 136.194 106.704 135.624 106.92 135.096C107.148 134.556 107.454 134.082 107.838 133.674C108.234 133.266 108.702 132.948 109.242 132.72C109.782 132.48 110.376 132.36 111.024 132.36C111.66 132.36 112.248 132.48 112.788 132.72C113.328 132.948 113.796 133.266 114.192 133.674C114.588 134.082 114.894 134.556 115.11 135.096C115.338 135.624 115.452 136.194 115.452 136.806C115.452 137.418 115.338 137.994 115.11 138.534C114.894 139.062 114.588 139.53 114.192 139.938C113.796 140.346 113.328 140.67 112.788 140.91C112.248 141.138 111.66 141.252 111.024 141.252ZM111.024 139.848C111.456 139.848 111.846 139.764 112.194 139.596C112.542 139.416 112.836 139.188 113.076 138.912C113.316 138.624 113.496 138.3 113.616 137.94C113.748 137.568 113.814 137.19 113.814 136.806C113.814 136.434 113.748 136.068 113.616 135.708C113.496 135.336 113.31 135.006 113.058 134.718C112.818 134.43 112.524 134.202 112.176 134.034C111.84 133.854 111.456 133.764 111.024 133.764C110.592 133.764 110.202 133.854 109.854 134.034C109.506 134.202 109.212 134.43 108.972 134.718C108.732 134.994 108.546 135.318 108.414 135.69C108.294 136.05 108.234 136.422 108.234 136.806C108.234 137.19 108.294 137.562 108.414 137.922C108.546 138.282 108.732 138.606 108.972 138.894C109.224 139.182 109.518 139.416 109.854 139.596C110.202 139.764 110.592 139.848 111.024 139.848Z" fill="#CCCCCC"/>
<path d="M120.509 129.318H122.327V131.136H120.509V129.318ZM120.617 132.63H122.237V141H120.617V132.63Z" fill="#CCCCCC"/>
<path d="M124.535 141V133.494C124.535 133.386 124.535 133.278 124.535 133.17C124.535 133.05 124.529 132.87 124.517 132.63H126.065L126.119 133.89C126.215 133.746 126.341 133.59 126.497 133.422C126.653 133.242 126.839 133.08 127.055 132.936C127.271 132.792 127.523 132.672 127.811 132.576C128.111 132.48 128.453 132.432 128.837 132.432C129.485 132.432 130.019 132.564 130.439 132.828C130.871 133.08 131.207 133.452 131.447 133.944C131.783 133.548 132.191 133.2 132.671 132.9C133.163 132.588 133.769 132.432 134.489 132.432C135.569 132.432 136.367 132.756 136.883 133.404C137.399 134.04 137.657 134.898 137.657 135.978V141H136.037V136.104C136.037 135.324 135.881 134.754 135.569 134.394C135.269 134.022 134.825 133.836 134.237 133.836C133.901 133.836 133.589 133.908 133.301 134.052C133.025 134.184 132.779 134.364 132.563 134.592C132.359 134.82 132.197 135.09 132.077 135.402C131.969 135.702 131.915 136.02 131.915 136.356V141H130.295V136.104C130.295 135.324 130.139 134.754 129.827 134.394C129.527 134.022 129.089 133.836 128.513 133.836C128.069 133.836 127.697 133.932 127.397 134.124C127.097 134.316 126.851 134.568 126.659 134.88C126.479 135.18 126.347 135.528 126.263 135.924C126.191 136.32 126.155 136.716 126.155 137.112V141H124.535Z" fill="#CCCCCC"/>
<path d="M145.066 139.992C144.754 140.412 144.34 140.724 143.824 140.928C143.32 141.132 142.798 141.234 142.258 141.234C141.91 141.234 141.562 141.186 141.214 141.09C140.878 141.006 140.566 140.862 140.278 140.658C140.002 140.442 139.774 140.172 139.594 139.848C139.426 139.512 139.342 139.104 139.342 138.624C139.342 137.724 139.654 137.004 140.278 136.464C140.914 135.924 141.826 135.654 143.014 135.654C143.206 135.654 143.41 135.66 143.626 135.672C143.842 135.684 144.046 135.696 144.238 135.708C144.43 135.72 144.598 135.732 144.742 135.744C144.886 135.756 144.988 135.768 145.048 135.78V135.474C145.048 134.85 144.856 134.406 144.472 134.142C144.1 133.866 143.59 133.728 142.942 133.728C142.306 133.728 141.802 133.818 141.43 133.998C141.058 134.166 140.746 134.34 140.494 134.52L139.738 133.422C139.882 133.302 140.056 133.182 140.26 133.062C140.464 132.942 140.704 132.834 140.98 132.738C141.256 132.63 141.568 132.546 141.916 132.486C142.264 132.414 142.666 132.378 143.122 132.378C144.202 132.378 145.048 132.642 145.66 133.17C146.284 133.686 146.596 134.424 146.596 135.384V140.262C146.596 140.358 146.596 140.466 146.596 140.586C146.596 140.694 146.602 140.832 146.614 141H145.102L145.066 139.992ZM145.048 137.04C145 137.028 144.904 137.016 144.76 137.004C144.628 136.98 144.472 136.962 144.292 136.95C144.112 136.938 143.92 136.926 143.716 136.914C143.512 136.902 143.314 136.896 143.122 136.896C142.666 136.896 142.294 136.95 142.006 137.058C141.73 137.166 141.508 137.304 141.34 137.472C141.184 137.628 141.076 137.808 141.016 138.012C140.956 138.204 140.926 138.39 140.926 138.57C140.926 139.026 141.082 139.374 141.394 139.614C141.706 139.842 142.138 139.956 142.69 139.956C143.002 139.956 143.296 139.902 143.572 139.794C143.86 139.686 144.112 139.542 144.328 139.362C144.544 139.182 144.718 138.972 144.85 138.732C144.982 138.492 145.048 138.246 145.048 137.994V137.04Z" fill="#CCCCCC"/>
<path d="M154.822 134.106C154.714 134.07 154.528 134.022 154.264 133.962C154.012 133.89 153.628 133.854 153.112 133.854C152.656 133.854 152.242 133.932 151.87 134.088C151.498 134.232 151.174 134.442 150.898 134.718C150.634 134.982 150.424 135.3 150.268 135.672C150.124 136.044 150.052 136.452 150.052 136.896C150.052 137.28 150.094 137.64 150.178 137.976C150.274 138.312 150.418 138.606 150.61 138.858C150.814 139.11 151.066 139.308 151.366 139.452C151.666 139.596 152.032 139.668 152.464 139.668C152.86 139.668 153.208 139.608 153.508 139.488C153.808 139.368 154.054 139.212 154.246 139.02C154.438 138.816 154.582 138.594 154.678 138.354C154.774 138.102 154.822 137.844 154.822 137.58V134.106ZM149.926 142.71C150.202 142.902 150.538 143.064 150.934 143.196C151.342 143.34 151.834 143.412 152.41 143.412C153.214 143.412 153.814 143.19 154.21 142.746C154.606 142.302 154.804 141.72 154.804 141V139.974C154.72 140.046 154.606 140.148 154.462 140.28C154.33 140.4 154.156 140.52 153.94 140.64C153.736 140.748 153.49 140.85 153.202 140.946C152.914 141.03 152.584 141.072 152.212 141.072C151.6 141.072 151.054 140.97 150.574 140.766C150.106 140.55 149.71 140.262 149.386 139.902C149.062 139.53 148.816 139.092 148.648 138.588C148.48 138.072 148.396 137.514 148.396 136.914C148.396 136.266 148.51 135.672 148.738 135.132C148.966 134.58 149.284 134.106 149.692 133.71C150.112 133.302 150.61 132.99 151.186 132.774C151.762 132.546 152.404 132.432 153.112 132.432C153.796 132.432 154.432 132.492 155.02 132.612C155.608 132.732 156.082 132.864 156.442 133.008V141C156.442 142.212 156.088 143.148 155.38 143.808C154.684 144.48 153.7 144.816 152.428 144.816C151.576 144.816 150.898 144.72 150.394 144.528C149.89 144.348 149.482 144.138 149.17 143.898L149.926 142.71Z" fill="#CCCCCC"/>
<path d="M166.286 139.776C166.19 139.884 166.046 140.022 165.854 140.19C165.662 140.358 165.41 140.52 165.098 140.676C164.798 140.832 164.438 140.964 164.018 141.072C163.61 141.192 163.142 141.252 162.614 141.252C161.966 141.252 161.372 141.144 160.832 140.928C160.292 140.712 159.83 140.406 159.446 140.01C159.062 139.614 158.762 139.14 158.546 138.588C158.342 138.036 158.24 137.424 158.24 136.752C158.24 136.14 158.342 135.57 158.546 135.042C158.75 134.502 159.038 134.04 159.41 133.656C159.782 133.26 160.22 132.948 160.724 132.72C161.24 132.492 161.804 132.378 162.416 132.378C163.136 132.378 163.754 132.516 164.27 132.792C164.786 133.068 165.206 133.434 165.53 133.89C165.866 134.346 166.112 134.868 166.268 135.456C166.424 136.044 166.502 136.656 166.502 137.292H159.896C159.908 137.664 159.986 138.006 160.13 138.318C160.286 138.63 160.49 138.9 160.742 139.128C160.994 139.356 161.282 139.536 161.606 139.668C161.93 139.8 162.272 139.866 162.632 139.866C163.34 139.866 163.922 139.746 164.378 139.506C164.834 139.266 165.164 139.032 165.368 138.804L166.286 139.776ZM164.828 136.086C164.78 135.438 164.552 134.886 164.144 134.43C163.736 133.974 163.16 133.746 162.416 133.746C162.032 133.746 161.684 133.812 161.372 133.944C161.072 134.076 160.814 134.25 160.598 134.466C160.382 134.682 160.214 134.934 160.094 135.222C159.974 135.498 159.908 135.786 159.896 136.086H164.828Z" fill="#CCCCCC"/>
<path d="M176.794 139.992C176.482 140.412 176.068 140.724 175.552 140.928C175.048 141.132 174.526 141.234 173.986 141.234C173.638 141.234 173.29 141.186 172.942 141.09C172.606 141.006 172.294 140.862 172.006 140.658C171.73 140.442 171.502 140.172 171.322 139.848C171.154 139.512 171.07 139.104 171.07 138.624C171.07 137.724 171.382 137.004 172.006 136.464C172.642 135.924 173.554 135.654 174.742 135.654C174.934 135.654 175.138 135.66 175.354 135.672C175.57 135.684 175.774 135.696 175.966 135.708C176.158 135.72 176.326 135.732 176.47 135.744C176.614 135.756 176.716 135.768 176.776 135.78V135.474C176.776 134.85 176.584 134.406 176.2 134.142C175.828 133.866 175.318 133.728 174.67 133.728C174.034 133.728 173.53 133.818 173.158 133.998C172.786 134.166 172.474 134.34 172.222 134.52L171.466 133.422C171.61 133.302 171.784 133.182 171.988 133.062C172.192 132.942 172.432 132.834 172.708 132.738C172.984 132.63 173.296 132.546 173.644 132.486C173.992 132.414 174.394 132.378 174.85 132.378C175.93 132.378 176.776 132.642 177.388 133.17C178.012 133.686 178.324 134.424 178.324 135.384V140.262C178.324 140.358 178.324 140.466 178.324 140.586C178.324 140.694 178.33 140.832 178.342 141H176.83L176.794 139.992ZM176.776 137.04C176.728 137.028 176.632 137.016 176.488 137.004C176.356 136.98 176.2 136.962 176.02 136.95C175.84 136.938 175.648 136.926 175.444 136.914C175.24 136.902 175.042 136.896 174.85 136.896C174.394 136.896 174.022 136.95 173.734 137.058C173.458 137.166 173.236 137.304 173.068 137.472C172.912 137.628 172.804 137.808 172.744 138.012C172.684 138.204 172.654 138.39 172.654 138.57C172.654 139.026 172.81 139.374 173.122 139.614C173.434 139.842 173.866 139.956 174.418 139.956C174.73 139.956 175.024 139.902 175.3 139.794C175.588 139.686 175.84 139.542 176.056 139.362C176.272 139.182 176.446 138.972 176.578 138.732C176.71 138.492 176.776 138.246 176.776 137.994V137.04Z" fill="#CCCCCC"/>
<path d="M179.179 132.63H181.033L183.643 139.164L186.235 132.63H187.981L184.399 141H182.779L179.179 132.63Z" fill="#CCCCCC"/>
<path d="M194.109 139.992C193.797 140.412 193.383 140.724 192.867 140.928C192.363 141.132 191.841 141.234 191.301 141.234C190.953 141.234 190.605 141.186 190.257 141.09C189.921 141.006 189.609 140.862 189.321 140.658C189.045 140.442 188.817 140.172 188.637 139.848C188.469 139.512 188.385 139.104 188.385 138.624C188.385 137.724 188.697 137.004 189.321 136.464C189.957 135.924 190.869 135.654 192.057 135.654C192.249 135.654 192.453 135.66 192.669 135.672C192.885 135.684 193.089 135.696 193.281 135.708C193.473 135.72 193.641 135.732 193.785 135.744C193.929 135.756 194.031 135.768 194.091 135.78V135.474C194.091 134.85 193.899 134.406 193.515 134.142C193.143 133.866 192.633 133.728 191.985 133.728C191.349 133.728 190.845 133.818 190.473 133.998C190.101 134.166 189.789 134.34 189.537 134.52L188.781 133.422C188.925 133.302 189.099 133.182 189.303 133.062C189.507 132.942 189.747 132.834 190.023 132.738C190.299 132.63 190.611 132.546 190.959 132.486C191.307 132.414 191.709 132.378 192.165 132.378C193.245 132.378 194.091 132.642 194.703 133.17C195.327 133.686 195.639 134.424 195.639 135.384V140.262C195.639 140.358 195.639 140.466 195.639 140.586C195.639 140.694 195.645 140.832 195.657 141H194.145L194.109 139.992ZM194.091 137.04C194.043 137.028 193.947 137.016 193.803 137.004C193.671 136.98 193.515 136.962 193.335 136.95C193.155 136.938 192.963 136.926 192.759 136.914C192.555 136.902 192.357 136.896 192.165 136.896C191.709 136.896 191.337 136.95 191.049 137.058C190.773 137.166 190.551 137.304 190.383 137.472C190.227 137.628 190.119 137.808 190.059 138.012C189.999 138.204 189.969 138.39 189.969 138.57C189.969 139.026 190.125 139.374 190.437 139.614C190.749 139.842 191.181 139.956 191.733 139.956C192.045 139.956 192.339 139.902 192.615 139.794C192.903 139.686 193.155 139.542 193.371 139.362C193.587 139.182 193.761 138.972 193.893 138.732C194.025 138.492 194.091 138.246 194.091 137.994V137.04Z" fill="#CCCCCC"/>
<path d="M197.817 129.318H199.635V131.136H197.817V129.318ZM197.925 132.63H199.545V141H197.925V132.63Z" fill="#CCCCCC"/>
<path d="M201.826 128.994H203.446V141H201.826V128.994Z" fill="#CCCCCC"/>
<path d="M210.896 139.992C210.584 140.412 210.17 140.724 209.654 140.928C209.15 141.132 208.628 141.234 208.088 141.234C207.74 141.234 207.392 141.186 207.044 141.09C206.708 141.006 206.396 140.862 206.108 140.658C205.832 140.442 205.604 140.172 205.424 139.848C205.256 139.512 205.172 139.104 205.172 138.624C205.172 137.724 205.484 137.004 206.108 136.464C206.744 135.924 207.656 135.654 208.844 135.654C209.036 135.654 209.24 135.66 209.456 135.672C209.672 135.684 209.876 135.696 210.068 135.708C210.26 135.72 210.428 135.732 210.572 135.744C210.716 135.756 210.818 135.768 210.878 135.78V135.474C210.878 134.85 210.686 134.406 210.302 134.142C209.93 133.866 209.42 133.728 208.772 133.728C208.136 133.728 207.632 133.818 207.26 133.998C206.888 134.166 206.576 134.34 206.324 134.52L205.568 133.422C205.712 133.302 205.886 133.182 206.09 133.062C206.294 132.942 206.534 132.834 206.81 132.738C207.086 132.63 207.398 132.546 207.746 132.486C208.094 132.414 208.496 132.378 208.952 132.378C210.032 132.378 210.878 132.642 211.49 133.17C212.114 133.686 212.426 134.424 212.426 135.384V140.262C212.426 140.358 212.426 140.466 212.426 140.586C212.426 140.694 212.432 140.832 212.444 141H210.932L210.896 139.992ZM210.878 137.04C210.83 137.028 210.734 137.016 210.59 137.004C210.458 136.98 210.302 136.962 210.122 136.95C209.942 136.938 209.75 136.926 209.546 136.914C209.342 136.902 209.144 136.896 208.952 136.896C208.496 136.896 208.124 136.95 207.836 137.058C207.56 137.166 207.338 137.304 207.17 137.472C207.014 137.628 206.906 137.808 206.846 138.012C206.786 138.204 206.756 138.39 206.756 138.57C206.756 139.026 206.912 139.374 207.224 139.614C207.536 139.842 207.968 139.956 208.52 139.956C208.832 139.956 209.126 139.902 209.402 139.794C209.69 139.686 209.942 139.542 210.158 139.362C210.374 139.182 210.548 138.972 210.68 138.732C210.812 138.492 210.878 138.246 210.878 137.994V137.04Z" fill="#CCCCCC"/>
<path d="M214.64 128.994H216.26V133.548C216.344 133.44 216.458 133.32 216.602 133.188C216.758 133.056 216.944 132.936 217.16 132.828C217.376 132.708 217.622 132.612 217.898 132.54C218.186 132.468 218.504 132.432 218.852 132.432C219.476 132.432 220.022 132.546 220.49 132.774C220.97 132.99 221.372 133.296 221.696 133.692C222.02 134.076 222.26 134.532 222.416 135.06C222.584 135.588 222.668 136.152 222.668 136.752C222.668 137.412 222.554 138.018 222.326 138.57C222.098 139.122 221.774 139.596 221.354 139.992C220.946 140.388 220.454 140.7 219.878 140.928C219.302 141.144 218.666 141.252 217.97 141.252C217.286 141.252 216.65 141.198 216.062 141.09C215.474 140.982 215 140.856 214.64 140.712V128.994ZM216.242 139.614C216.41 139.662 216.614 139.716 216.854 139.776C217.106 139.824 217.472 139.848 217.952 139.848C218.42 139.848 218.84 139.776 219.212 139.632C219.584 139.476 219.902 139.266 220.166 139.002C220.442 138.726 220.652 138.402 220.796 138.03C220.94 137.646 221.012 137.232 221.012 136.788C221.012 136.404 220.964 136.038 220.868 135.69C220.784 135.33 220.64 135.018 220.436 134.754C220.244 134.478 219.998 134.262 219.698 134.106C219.398 133.938 219.032 133.854 218.6 133.854C218.204 133.854 217.856 133.926 217.556 134.07C217.268 134.202 217.022 134.382 216.818 134.61C216.626 134.826 216.482 135.084 216.386 135.384C216.29 135.672 216.242 135.972 216.242 136.284V139.614Z" fill="#CCCCCC"/>
<path d="M224.484 128.994H226.104V141H224.484V128.994Z" fill="#CCCCCC"/>
<path d="M235.948 139.776C235.852 139.884 235.708 140.022 235.516 140.19C235.324 140.358 235.072 140.52 234.76 140.676C234.46 140.832 234.1 140.964 233.68 141.072C233.272 141.192 232.804 141.252 232.276 141.252C231.628 141.252 231.034 141.144 230.494 140.928C229.954 140.712 229.492 140.406 229.108 140.01C228.724 139.614 228.424 139.14 228.208 138.588C228.004 138.036 227.902 137.424 227.902 136.752C227.902 136.14 228.004 135.57 228.208 135.042C228.412 134.502 228.7 134.04 229.072 133.656C229.444 133.26 229.882 132.948 230.386 132.72C230.902 132.492 231.466 132.378 232.078 132.378C232.798 132.378 233.416 132.516 233.932 132.792C234.448 133.068 234.868 133.434 235.192 133.89C235.528 134.346 235.774 134.868 235.93 135.456C236.086 136.044 236.164 136.656 236.164 137.292H229.558C229.57 137.664 229.648 138.006 229.792 138.318C229.948 138.63 230.152 138.9 230.404 139.128C230.656 139.356 230.944 139.536 231.268 139.668C231.592 139.8 231.934 139.866 232.294 139.866C233.002 139.866 233.584 139.746 234.04 139.506C234.496 139.266 234.826 139.032 235.03 138.804L235.948 139.776ZM234.49 136.086C234.442 135.438 234.214 134.886 233.806 134.43C233.398 133.974 232.822 133.746 232.078 133.746C231.694 133.746 231.346 133.812 231.034 133.944C230.734 134.076 230.476 134.25 230.26 134.466C230.044 134.682 229.876 134.934 229.756 135.222C229.636 135.498 229.57 135.786 229.558 136.086H234.49Z" fill="#CCCCCC"/>
</svg>
