<svg xmlns="http://www.w3.org/2000/svg" viewBox="0 0 350 300">
  <g id="box">
    <rect width="350" height="300" fill="none"/>
  </g>
  <g id="roof002_dims_1" data-name="roof002 dims 1">
    <g id="fill">
      <polygon points="124.085 186.528 124.085 217.346 284.326 124.728 284.326 93.911 124.085 186.528" fill="#b2c4d0"/>
      <polygon points="124.085 186.528 124.085 217.346 32.677 164.695 32.677 124.321 73.763 107.666 124.085 186.528" fill="#fff"/>
      <polygon points="209.284 173.143 209.284 208.01 268.352 173.805 268.352 134.575 240.707 129.149 209.284 173.143" fill="#b2c4d0"/>
      <polygon points="209.284 173.143 209.284 208.01 174.737 188.069 174.737 148.839 209.284 173.143" fill="#fff"/>
      <g id="window">
        <polygon points="77.283 127.792 77.283 137.013 69.617 132.597 69.617 123.376 77.283 127.792" fill="#6d9faf"/>
        <polygon points="86.674 133.214 86.674 142.435 79.008 138.019 79.008 128.798 86.674 133.214" fill="#6d9faf"/>
        <polygon points="77.283 138.836 77.283 148.057 69.617 143.641 69.617 134.42 77.283 138.836" fill="#6d9faf"/>
        <polygon points="86.674 144.257 86.674 153.478 79.008 149.062 79.008 139.841 86.674 144.257" fill="#6d9faf"/>
      </g>
      <polygon points="293.553 88.458 124.085 186.528 73.299 107.918 243.139 9.922 293.553 88.458" fill="#2176a8"/>
      <polygon points="243.139 9.922 73.299 107.918 23.344 128.127 193.045 30.049 243.139 9.922" fill="#47d5ff"/>
      <polygon points="182.996 97.025 244.283 116.97 277.701 136.167 243.196 131.607 182.996 97.025" fill="#2682b5"/>
      <polygon points="182.996 97.025 174.351 157.44 208.894 176.334 243.196 131.607 182.996 97.025" fill="#47e2ff"/>
    </g>
    <g id="lines">
      <line x1="124.08528" y1="186.5284" x2="124.08528" y2="217.3458" fill="none" stroke="#3f3f3f" stroke-miterlimit="10"/>
      <line x1="174.73693" y1="157.46673" x2="174.73693" y2="188.0688" fill="none" stroke="#3f3f3f" stroke-miterlimit="10"/>
      <line x1="209.28381" y1="208.01004" x2="209.28381" y2="175.81575" fill="none" stroke="#3f3f3f" stroke-miterlimit="10"/>
      <polyline points="32.677 124.321 32.677 164.695 124.085 217.346 174.737 188.069 209.284 208.01 268.352 173.805 268.352 134.575" fill="none" stroke="#3f3f3f" stroke-miterlimit="10" stroke-width="2"/>
      <polyline points="271.087 132.436 284.326 124.728 284.326 93.911" fill="none" stroke="#3f3f3f" stroke-miterlimit="10" stroke-width="2"/>
      <line x1="73.64368" y1="107.28621" x2="243.13856" y2="9.92178" fill="none" stroke="#002839" stroke-miterlimit="10"/>
      <line x1="243.19578" y1="131.60664" x2="182.99581" y2="97.02544" fill="none" stroke="#002839" stroke-miterlimit="10"/>
      <polygon points="174.351 157.44 124.085 186.528 73.299 107.918 23.344 128.127 193.045 30.049 243.139 9.922 293.553 88.458 244.283 116.97 277.701 136.167 243.196 131.607 208.894 176.334 174.351 157.44" fill="none" stroke="#002839" stroke-linejoin="round" stroke-width="2"/>
      <polyline points="244.283 116.97 182.996 97.025 174.351 157.44" fill="none" stroke="#002839" stroke-miterlimit="10"/>
    </g>
    <g id="dims">
      <g>
        <line x1="101.40412" y1="230.80851" x2="119.00786" y2="220.63361" fill="none" stroke="#3b3b3b" stroke-linecap="round" stroke-miterlimit="10" stroke-width="1.5"/>
        <line x1="10" y1="178.15955" x2="27.56136" y2="167.94633" fill="none" stroke="#3b3b3b" stroke-linecap="round" stroke-miterlimit="10" stroke-width="1.5"/>
        <line x1="14.27423" y1="175.66965" x2="140.09936" y2="248.19159" fill="none" stroke="#3b3b3b" stroke-linecap="round" stroke-miterlimit="10" stroke-width="1.5"/>
      </g>
      <g>
        <line x1="163.20714" y1="234.84679" x2="203.81936" y2="211.39252" fill="none" stroke="#3b3b3b" stroke-linecap="round" stroke-miterlimit="10" stroke-width="1.5"/>
        <line x1="135.80685" y1="250.67094" x2="153.93841" y2="240.19965" fill="none" stroke="#3b3b3b" stroke-linecap="round" stroke-miterlimit="10" stroke-width="1.5"/>
      </g>
      <g>
        <line x1="231.46804" y1="221.28305" x2="213.86429" y2="211.10814" fill="none" stroke="#3b3b3b" stroke-linecap="round" stroke-miterlimit="10" stroke-width="1.5"/>
        <line x1="290.67745" y1="187.22171" x2="273.11609" y2="177.00849" fill="none" stroke="#3b3b3b" stroke-linecap="round" stroke-miterlimit="10" stroke-width="1.5"/>
      </g>
      <g>
        <line x1="180.67881" y1="250.35619" x2="130.17513" y2="221.18649" fill="none" stroke="#3b3b3b" stroke-linecap="round" stroke-miterlimit="10" stroke-width="1.5"/>
        <line x1="336.67333" y1="155.45831" x2="176.38696" y2="247.87646" fill="none" stroke="#3b3b3b" stroke-linecap="round" stroke-miterlimit="10" stroke-width="1.5"/>
      </g>
      <g>
        <line x1="341.18725" y1="157.6866" x2="296.38735" y2="131.80998" fill="none" stroke="#3b3b3b" stroke-linecap="round" stroke-miterlimit="10" stroke-width="1.5"/>
        <line x1="290.55674" y1="128.45506" x2="286.62869" y2="126.17582" fill="none" stroke="#3b3b3b" stroke-linecap="round" stroke-miterlimit="10" stroke-width="1.5"/>
      </g>
      <text transform="translate(201.94924 245.29255)" font-size="16" fill="#3b3b3b" font-family="'Effra Regular', Effra">C</text>
      <text transform="translate(20.21199 104.96059)" font-size="16" fill="#3b3b3b" font-family="'Effra Regular', Effra">P1</text>
      <text transform="translate(300.44817 127.27097)" font-size="16" fill="#3b3b3b" font-family="'Effra Regular', Effra">P2</text>
      <text transform="translate(259.19629 214.59619)" font-size="16" fill="#3b3b3b" font-family="'Effra Regular', Effra">D</text>
      <text transform="translate(312.60762 184.15958)" font-size="16" fill="#3b3b3b" font-family="'Effra Regular', Effra">E</text>
      <text transform="translate(111.9259 250.91985)" font-size="16" fill="#3b3b3b" font-family="'Effra Regular', Effra">B</text>
      <text transform="translate(48.77979 215.74902)" font-size="16" fill="#3b3b3b" font-family="'Effra Regular', Effra">A</text>
      <line x1="14.27923" y1="171.6724" x2="14.27923" y2="179.6724" fill="none" stroke="#3b3b3b" stroke-linecap="round" stroke-miterlimit="10" stroke-width="1.5"/>
      <line x1="105.65144" y1="224.42618" x2="105.65144" y2="232.42618" fill="none" stroke="#3b3b3b" stroke-linecap="round" stroke-miterlimit="10" stroke-width="1.5"/>
      <line x1="140.09934" y1="244.31468" x2="140.09934" y2="252.31468" fill="none" stroke="#3b3b3b" stroke-linecap="round" stroke-miterlimit="10" stroke-width="1.5"/>
      <line x1="176.38549" y1="243.88423" x2="176.38549" y2="251.88423" fill="none" stroke="#3b3b3b" stroke-linecap="round" stroke-miterlimit="10" stroke-width="1.5"/>
      <line x1="226.95216" y1="214.68955" x2="226.95216" y2="222.68955" fill="none" stroke="#3b3b3b" stroke-linecap="round" stroke-miterlimit="10" stroke-width="1.5"/>
      <line x1="286.16546" y1="180.50273" x2="286.16546" y2="188.50273" fill="none" stroke="#3b3b3b" stroke-linecap="round" stroke-miterlimit="10" stroke-width="1.5"/>
      <line x1="337.08464" y1="151.10453" x2="337.08464" y2="159.10453" fill="none" stroke="#3b3b3b" stroke-linecap="round" stroke-miterlimit="10" stroke-width="1.5"/>
      <path d="M26.61359,126.92488C17.303,108.98168,11.77416,89.58,11.70012,72.25" fill="none" stroke="#3b3b3b" stroke-linecap="round" stroke-miterlimit="10" stroke-width="1.5"/>
      <line x1="68.32993" y1="104.92384" x2="6.19057" y2="69.03628" fill="none" stroke="#3b3b3b" stroke-linecap="round" stroke-miterlimit="10" stroke-width="1.5"/>
      <line x1="302.97145" y1="96.37262" x2="247.05298" y2="128.53393" fill="none" stroke="#3b3b3b" stroke-linecap="round" stroke-miterlimit="10" stroke-width="1.5"/>
      <line x1="15.17459" y1="70.23998" x2="8.24638" y2="74.23998" fill="none" stroke="#3b3b3b" stroke-linecap="round" stroke-miterlimit="10" stroke-width="1.5"/>
      <line x1="27.536" y1="123.06671" x2="25.72734" y2="130.85957" fill="none" stroke="#3b3b3b" stroke-linecap="round" stroke-miterlimit="10" stroke-width="1.5"/>
      <line x1="301.84764" y1="100.58886" x2="294.91943" y2="96.58886" fill="none" stroke="#3b3b3b" stroke-linecap="round" stroke-miterlimit="10" stroke-width="1.5"/>
      <line x1="291.34832" y1="141.73074" x2="289.27038" y2="134.00532" fill="none" stroke="#3b3b3b" stroke-linecap="round" stroke-miterlimit="10" stroke-width="1.5"/>
      <path d="M290.42929,137.941c5.4114-13.22583,8.444-26.83476,8.33449-39.21605" fill="none" stroke="#3b3b3b" stroke-linecap="round" stroke-miterlimit="10" stroke-width="1.5"/>
      <line x1="294.62714" y1="138.37968" x2="281.38199" y2="136.61946" fill="none" stroke="#3b3b3b" stroke-linecap="round" stroke-miterlimit="10" stroke-width="1.5"/>
    </g>
  </g>
</svg>
