<svg xmlns="http://www.w3.org/2000/svg" viewBox="0 0 263.127 90">
  <path fill="#009fe3" d="M0 0h90v90H0z"/>
  <path d="M113.524 31.86h6.723l9.823 26.853h-6.643l-2.053-6.16h-9.46l-2.053 6.16H103.5zm6.4 15.982l-3.261-10.145-3.342 10.145zM150.32 56.658q-.324.2-.967.664a8.89 8.89 0 01-1.671.906 15.29 15.29 0 01-2.435.785 13.705 13.705 0 01-3.22.342 12.025 12.025 0 01-4.348-.744 9.45 9.45 0 01-3.28-2.074 8.734 8.734 0 01-2.054-3.2 11.626 11.626 0 01-.7-4.126 11.081 11.081 0 01.665-3.8 9.486 9.486 0 011.912-3.2 9.309 9.309 0 013.06-2.2 9.81 9.81 0 014.106-.824 9.45 9.45 0 014.026.8 8.3 8.3 0 012.92 2.235 9.683 9.683 0 011.791 3.42 15 15 0 01.6 4.368v.967h-13.448a3.6 3.6 0 001.35 2.678 5.285 5.285 0 003.6 1.147 8.618 8.618 0 003.663-.665 12.53 12.53 0 002.053-1.147zm-5.073-9.381a3.368 3.368 0 00-.242-1.227 3.594 3.594 0 00-.724-1.147 3.874 3.874 0 00-1.208-.866 4.031 4.031 0 00-1.728-.342 4.31 4.31 0 00-1.771.341 4.017 4.017 0 00-1.269.866 3.728 3.728 0 00-.765 1.147 3.158 3.158 0 00-.261 1.227zM154.427 39.83h5.556l.2 2.376a8.653 8.653 0 011.993-1.853 5.618 5.618 0 013.28-.885 9.117 9.117 0 011.309.081 5.048 5.048 0 011.067.282l-.926 5.112a6.953 6.953 0 00-2.094-.282 4.575 4.575 0 00-3.321 1.229 4.622 4.622 0 00-1.268 3.482v9.34h-5.8zM169.001 49.25a10.308 10.308 0 01.745-3.924 9.9 9.9 0 012.073-3.2 9.548 9.548 0 013.2-2.154 10.563 10.563 0 014.127-.785 10.413 10.413 0 014.106.785 9.588 9.588 0 013.181 2.154 9.881 9.881 0 012.073 3.2 10.71 10.71 0 010 7.85 9.73 9.73 0 01-5.253 5.374 10.207 10.207 0 01-4.108.8 10.354 10.354 0 01-4.127-.805 9.685 9.685 0 01-5.273-5.374 10.311 10.311 0 01-.744-3.925zm10.144 5.073a4.17 4.17 0 003.361-1.57 4.92 4.92 0 00.866-1.63 6.363 6.363 0 000-3.744 4.684 4.684 0 00-.866-1.611 4.371 4.371 0 00-1.429-1.125 4.263 4.263 0 00-1.932-.423 4.4 4.4 0 00-1.953.423 4.1 4.1 0 00-1.429 1.125 5.157 5.157 0 00-.865 1.611 5.94 5.94 0 000 3.744 5.437 5.437 0 00.865 1.63 4 4 0 001.429 1.147 4.4 4.4 0 001.952.423zM193.559 31.861h10.146a19.609 19.609 0 015.737.8 12.439 12.439 0 014.549 2.456 11.07 11.07 0 012.98 4.227 15.843 15.843 0 011.067 6.079 14.372 14.372 0 01-1.088 5.819 11.624 11.624 0 01-3 4.146 12.475 12.475 0 01-4.55 2.5 19.1 19.1 0 01-5.737.826h-10.104zm9.783 21.458a8.527 8.527 0 006.2-2.115 7.739 7.739 0 002.174-5.817 10.6 10.6 0 00-.5-3.362 6.726 6.726 0 00-1.53-2.577 6.849 6.849 0 00-2.6-1.65 10.759 10.759 0 00-3.744-.585h-3.7v16.1zM239.979 56.658q-.323.2-.967.664a8.889 8.889 0 01-1.671.906 15.275 15.275 0 01-2.435.785 13.709 13.709 0 01-3.221.342 12.028 12.028 0 01-4.347-.744 9.462 9.462 0 01-3.282-2.074 8.743 8.743 0 01-2.053-3.2 11.635 11.635 0 01-.7-4.126 11.06 11.06 0 01.665-3.8 9.473 9.473 0 011.912-3.2 9.3 9.3 0 013.06-2.2 9.813 9.813 0 014.106-.824 9.45 9.45 0 014.026.8 8.305 8.305 0 012.92 2.235 9.684 9.684 0 011.791 3.42 15.012 15.012 0 01.6 4.368v.967h-13.448a3.6 3.6 0 001.35 2.677 5.285 5.285 0 003.6 1.147 8.618 8.618 0 003.663-.665 12.532 12.532 0 002.053-1.147zm-5.073-9.38a3.368 3.368 0 00-.242-1.227 3.594 3.594 0 00-.724-1.147 3.87 3.87 0 00-1.207-.866 4.04 4.04 0 00-1.731-.341 4.308 4.308 0 00-1.771.341 3.992 3.992 0 00-1.269.866 3.719 3.719 0 00-.765 1.148 3.158 3.158 0 00-.262 1.227zM244.084 31.86h5.8v13.929l5.757-5.958h6.562l-6.764 6.966 7.69 11.916h-6.723l-4.831-7.972-1.691 1.732v6.24h-5.8z"/>
  <g>
    <path fill="#ffffff" d="M55.954 31.339l-3.9 16.072h-.076L48.07 31.339H36.095V49.59a6.583 6.583 0 00-4.717-6.043 5.629 5.629 0 003.368-5.358c0-2.794-1.53-6.85-8.724-6.85H11.063v27.322h15.5c4.609 0 9.145-2.59 9.536-7.6v7.6h7.96V41.136h.076l4.743 17.525h6.276l4.743-17.525h.076v17.525h7.96V31.339zm-36.476 6.506h4.44c1.722 0 2.869.5 2.869 1.876 0 1.76-1.109 2.257-2.869 2.257h-4.44zm4.937 14.31h-4.937v-5.089h5.282c1.989 0 2.945.88 2.945 2.486 0 2.105-1.53 2.6-3.29 2.6M70.518 31.341h8.419v27.32h-8.419z"/>
  </g>
</svg>
