<svg xmlns="http://www.w3.org/2000/svg" width="auto" viewBox="0 0 282.821 90">
  <defs>
    <style>
      .a{fill:#e2001a}.d{fill:#fff}
    </style>
  </defs>
  <path class="a" d="M107.922 46.756h17.523c3.433 0 4.322.627 4.322 3.053v1.885c0 1.729-.633 2.8-3.78 2.8h-18.065zm20.831-6.848c0 1.077-.333 2.51-3.2 2.51h-17.631v-6.942h17.812c.5 0 3.018.1 3.018 2.036zm2.713 4.106a4.452 4.452 0 002.277-4.07v-2.25c0-2.448-1-6.556-7.682-6.556h-23.13v27.694h23.493c5.063 0 8.334-2.475 8.334-6.305V49.41c0-2.763-1.107-4.568-3.293-5.4"/>
  <path d="M143.137 35.476h15.457c5.226 0 5.772.964 5.772 3.16v2.394c0 1.956-.8 3.09-4.905 3.09h-16.324zm16.721-4.341h-21.713v27.694h4.992V48.457h16.621c3.06 0 4.5.382 4.5 3.888v6.484h4.774v-7.427c0-2.335-.848-3.915-2.63-4.851 1.6-.664 2.958-2.065 2.958-5.121v-2.141c0-5.287-1.514-8.154-9.5-8.154" fill="#e1001a"/>
  <path class="a" d="M197.509 48.941h-15.1l7.55-12.772zm-10.17-17.806l-16.451 27.694h5.7l3.264-5.549h20.21l3.265 5.549h5.7l-16.449-27.694zM237.09 48.941h-15.1l7.553-12.772zm-10.175-17.806l-16.446 27.694h5.7l3.264-5.549h20.213l3.263 5.549h5.7l-16.448-27.694zM266.649 59.41c13.941 0 16.172-2.043 16.172-8.6 0-6.5-1.755-8.122-8.951-8.25l-14.535-.214c-3.012-.045-3.883-.8-3.883-3.37 0-3.27.927-3.97 10.76-3.97 9.752 0 10.672.748 10.672 4.237v.724h5.318v-1.12c0-6.267-1.241-8.293-15.99-8.293-13.641 0-15.824 1.969-15.824 8.293 0 6.255 1.841 7.906 8.955 8.033l14.532.217c3.045.045 3.879.816 3.879 3.579 0 3.58-.89 4.281-11.108 4.281-9.757 0-11.106-.514-11.106-4.234v-1.244h-5.317v1.635c0 6.269 1.274 8.296 16.426 8.296z"/>
  <path fill="#009fe3" d="M0 0h90v90H0z"/>
  <g>
    <path class="d" d="M55.954 31.339l-3.9 16.072h-.076L48.07 31.339H36.095V49.59a6.583 6.583 0 00-4.717-6.043 5.629 5.629 0 003.368-5.358c0-2.794-1.53-6.85-8.724-6.85H11.063v27.322h15.5c4.609 0 9.145-2.59 9.536-7.6v7.6h7.96V41.136h.076l4.743 17.525h6.276l4.743-17.525h.076v17.525h7.96V31.339zm-36.476 6.506h4.44c1.722 0 2.869.5 2.869 1.876 0 1.76-1.109 2.257-2.869 2.257h-4.44zm4.937 14.31h-4.937v-5.089h5.282c1.989 0 2.945.88 2.945 2.486 0 2.105-1.53 2.6-3.29 2.6M70.518 31.341h8.418v27.32h-8.418z"/>
  </g>
</svg>
