<svg xmlns="http://www.w3.org/2000/svg" width="auto" viewBox="0 0 229.724 90">
  <defs>
    <style>
      .a{fill:#009fe3}.b{fill:#fff}
    </style>
  </defs>
  <path class="a" d="M223.413 29.589h6.312v31.032h-6.312zM102.895 37.227h6.312V60.62h-6.312zM102.895 29.631h6.312v5.905h-6.312zM152.117 54.848a5.935 5.935 0 115.935-5.934 5.934 5.934 0 01-5.935 5.934m0-18.09a12.156 12.156 0 1012.157 12.157 12.156 12.156 0 00-12.157-12.157M130.594 49.88a5.927 5.927 0 11-.026-2.093h6.277a12.163 12.163 0 10.013 2.093zM219.579 48.844a12.156 12.156 0 10-12.154 12.186 11.725 11.725 0 004.507-.917v-7.418a5.9 5.9 0 111.429-3.819v10.548l.015-.007v1.205h6.21V48.845zM179.61 36.717a12.154 12.154 0 00-12.153 12.124v20.233h6.21V48.883h.012v-.009a6 6 0 111.431 3.825v7.418a11.731 11.731 0 004.5.915 12.157 12.157 0 000-24.314zM0 0h90v90H0z"/>
  <g>
    <path class="b" d="M55.954 31.339l-3.9 16.072h-.076L48.07 31.339H36.095V49.59a6.583 6.583 0 00-4.717-6.043 5.629 5.629 0 003.368-5.358c0-2.794-1.53-6.85-8.724-6.85H11.063v27.322h15.5c4.609 0 9.145-2.59 9.536-7.6v7.6h7.96V41.136h.076l4.743 17.525h6.276l4.743-17.525h.076v17.525h7.96V31.339zm-36.476 6.506h4.44c1.722 0 2.869.5 2.869 1.876 0 1.76-1.109 2.257-2.869 2.257h-4.44zm4.937 14.31h-4.937v-5.089h5.282c1.989 0 2.945.88 2.945 2.486 0 2.105-1.53 2.6-3.29 2.6M70.518 31.341h8.419v27.32h-8.419z"/>
  </g>
</svg>
