<svg xmlns="http://www.w3.org/2000/svg" width="auto" viewBox="0 0 311.455 90">
  <defs>
    <style>
      .a{fill:#0d215a}.c{fill:#fff}
    </style>
  </defs>
  <path class="a" d="M111.038 58.933h-8.317V31.099h11.194l3.964 13.892q.077.284.311 1.292t.661 2.79q.27-1.4.5-2.448t.409-1.58l4.061-13.95h11.174v27.84h-8.312l.078-13.7q0-1.245.01-2.43t.029-2.448q-.467 2.155-1.128 4.706l-.059.245-3.536 13.621h-6.414l-3.576-13.325q-.253-.907-.506-2.079t-.661-3.171q.058 1.8.088 3.081t.029 2.058zM137.398 48.633a10.642 10.642 0 013.052-8.042q3.052-2.939 8.394-2.939t8.384 2.939a10.659 10.659 0 013.042 8.042 10.725 10.725 0 01-3.052 8.091q-3.052 2.95-8.374 2.946t-8.385-2.948a10.7 10.7 0 01-3.061-8.089zm8.133 0a8.14 8.14 0 00.772 4.1 2.756 2.756 0 002.541 1.248 2.8 2.8 0 002.559-1.257 7.988 7.988 0 00.791-4.092 7.828 7.828 0 00-.791-4.054 2.808 2.808 0 00-2.559-1.237 2.77 2.77 0 00-2.541 1.228 7.97 7.97 0 00-.771 4.063zM162.54 58.933V38.389h7.389v3a9.578 9.578 0 013.187-2.674 8.771 8.771 0 013.977-.878 8.423 8.423 0 013.33.622 6.449 6.449 0 012.482 1.851 6.642 6.642 0 011.305 2.713 24.849 24.849 0 01.388 5.227v10.678h-8.128V48.293a5.937 5.937 0 00-.622-3.223 2.447 2.447 0 00-2.143-.88 2.661 2.661 0 00-2.295 1.021 5.254 5.254 0 00-.752 3.118v10.6zM201.991 58.933l-.505-1.966a10.485 10.485 0 01-3.351 2.041 11.639 11.639 0 01-4.042.662 7.634 7.634 0 01-5.323-1.71 6.193 6.193 0 01-1.88-4.829 5.374 5.374 0 011.852-4.5q1.852-1.457 7-2.115.655-.1 1.759-.208 3.835-.415 3.835-2a1.388 1.388 0 00-.7-1.292 4.6 4.6 0 00-2.215-.4 3.187 3.187 0 00-1.927.5 2.092 2.092 0 00-.787 1.539h-7.895a5.94 5.94 0 012.807-5.227q2.75-1.768 8.083-1.767a21.349 21.349 0 014.631.473 9.772 9.772 0 013.3 1.266 5.664 5.664 0 012.021 2.221 8.605 8.605 0 01.58 3.543v11.455a2.215 2.215 0 00.225 1.011 1.873 1.873 0 00.656.728v.585zm-.749-9.166a29.712 29.712 0 01-3.087.964q-3.031.814-3.032 2.174a1.665 1.665 0 00.6 1.361 2.617 2.617 0 001.7.491 3.98 3.98 0 002.947-.945 4.173 4.173 0 00.927-3.005q0-.435-.01-.652a2.249 2.249 0 00-.048-.387zM212.341 58.933V38.39h7.446v3.742a6.428 6.428 0 012.3-3.261 6.958 6.958 0 014-1.03h.728v8.145q-.45-.038-.859-.066t-.783-.029a4.987 4.987 0 00-3.591 1.116 4.7 4.7 0 00-1.149 3.495v8.429zM229.077 67.174V38.39h7.211v2.627a7.5 7.5 0 012.805-2.409 8.787 8.787 0 013.822-.765 7.947 7.947 0 016.439 2.994 11.983 11.983 0 012.466 7.87 12.083 12.083 0 01-2.457 7.957 8.137 8.137 0 01-6.6 2.97 7.944 7.944 0 01-3.314-.643 6.609 6.609 0 01-2.467-1.985v10.168zm14.611-18.466a6.374 6.374 0 00-.81-3.59 2.794 2.794 0 00-2.466-1.17 2.992 2.992 0 00-2.61 1.143 6.284 6.284 0 00-.819 3.619 5.963 5.963 0 00.838 3.487 3.28 3.28 0 005.018-.01 5.918 5.918 0 00.848-3.479zM254.482 58.934V31.095h7.8v27.84zM279.611 58.934l-.509-1.966a10.588 10.588 0 01-3.375 2.041 11.819 11.819 0 01-4.074.662 7.736 7.736 0 01-5.366-1.71 6.177 6.177 0 01-1.9-4.829 5.353 5.353 0 011.867-4.5q1.867-1.457 7.055-2.115.66-.1 1.772-.208 3.866-.415 3.867-2a1.384 1.384 0 00-.707-1.292 4.674 4.674 0 00-2.234-.405 3.227 3.227 0 00-1.943.5 2.089 2.089 0 00-.793 1.54h-7.96a5.929 5.929 0 012.83-5.229q2.772-1.767 8.149-1.767a21.64 21.64 0 014.668.473 9.884 9.884 0 013.33 1.266 5.682 5.682 0 012.038 2.221 8.535 8.535 0 01.585 3.542V56.61a2.189 2.189 0 00.225 1.011 1.872 1.872 0 00.66.728v.585zm-.752-9.167a30.075 30.075 0 01-3.112.964q-3.055.814-3.056 2.174a1.658 1.658 0 00.6 1.361 2.655 2.655 0 001.716.491 4.029 4.029 0 002.97-.945 4.156 4.156 0 00.934-3.005q0-.435-.01-.652a2.248 2.248 0 00-.047-.387zM289.928 58.933V38.39h7.207v3a9.409 9.409 0 013.109-2.67 8.381 8.381 0 013.88-.878 8.034 8.034 0 013.246.622 6.3 6.3 0 012.422 1.851 6.706 6.706 0 011.275 2.713 25.451 25.451 0 01.377 5.222v10.679h-7.924V48.293a6.077 6.077 0 00-.605-3.223 2.355 2.355 0 00-2.088-.88 2.572 2.572 0 00-2.238 1.021 5.365 5.365 0 00-.734 3.118v10.6z"/>
  <path fill="#009fe3" d="M0 0h90v90H0z"/>
  <g>
    <path class="c" d="M55.954 31.339l-3.9 16.072h-.076L48.07 31.339H36.095V49.59a6.583 6.583 0 00-4.717-6.043 5.629 5.629 0 003.368-5.358c0-2.794-1.53-6.85-8.724-6.85H11.063v27.322h15.5c4.609 0 9.145-2.59 9.536-7.6v7.6h7.96V41.136h.076l4.743 17.525h6.276l4.743-17.525h.076v17.525h7.96V31.339zm-36.476 6.506h4.44c1.722 0 2.869.5 2.869 1.876 0 1.76-1.109 2.257-2.869 2.257h-4.44zm4.937 14.31h-4.937v-5.089h5.282c1.989 0 2.945.88 2.945 2.486 0 2.105-1.53 2.6-3.29 2.6M70.518 31.341h8.419v27.32h-8.419z"/>
  </g>
</svg>
