<svg xmlns="http://www.w3.org/2000/svg" viewBox="0 0 263.963 90">
  <defs>
    <style>
      .a{fill:#e2001a}.c{fill:#fff}
    </style>
  </defs>
  <path class="a" d="M107.86 30.968l9.251 11.107 9.249-11.107h4.86v28.157h-5.445V39.35h-.161l-8.143 9.916h-.765l-8.146-9.916h-.161v19.775h-5.439V30.968zM151.856 30.604a16.92 16.92 0 017.871 1.8 14.275 14.275 0 015.625 19.974 13.939 13.939 0 01-5.563 5.241 17.806 17.806 0 01-15.923-.021 13.938 13.938 0 01-7.568-12.537 14.157 14.157 0 012-7.276 13.856 13.856 0 015.5-5.29 16.773 16.773 0 018.062-1.886zm-9.936 14.452a10.024 10.024 0 001.27 5.04 8.82 8.82 0 003.537 3.465 10.579 10.579 0 005.13 1.23 9.785 9.785 0 007.125-2.721 9.359 9.359 0 002.79-7.014 10.147 10.147 0 00-1.26-5.049 8.713 8.713 0 00-3.547-3.478 11.356 11.356 0 00-10.3.011 8.607 8.607 0 00-3.517 3.465 10.266 10.266 0 00-1.228 5.051zM177.255 30.968l16.729 19.651V30.968h5.321v28.157h-4.678L177.796 39.15v19.974h-5.32V30.968zM211.054 30.968v28.157h-5.442V30.968zM235.583 30.968v4.253h-12.758v7.4h12.214v4.253h-12.214v8h13.041v4.253h-18.483V30.968zM251.083 30.968a9.443 9.443 0 016.471 2.2 7.264 7.264 0 012.5 5.725 7.144 7.144 0 01-1.239 4.182 8.21 8.21 0 01-3.678 2.812 8.179 8.179 0 012.4 1.976 25.348 25.348 0 012.6 4.212q2.579 5.121 3.83 7.055h-6.068a33.976 33.976 0 01-1.693-2.963 64.57 64.57 0 00-3.427-6.057 8.209 8.209 0 00-2.1-2.217 4.162 4.162 0 00-2.318-.656h-1.975v11.888h-5.441V30.968zm-1.229 12.012a4.917 4.917 0 003.355-1.068 3.684 3.684 0 001.22-2.925 3.462 3.462 0 00-1.21-2.892 5.446 5.446 0 00-3.447-.958h-3.386v7.843z"/>
  <path fill="#009fe3" d="M0 0h90v90H0z"/>
  <g>
    <path class="c" d="M55.954 31.339l-3.9 16.072h-.076L48.07 31.339H36.095V49.59a6.583 6.583 0 00-4.717-6.043 5.629 5.629 0 003.368-5.358c0-2.794-1.53-6.85-8.724-6.85H11.063v27.322h15.5c4.609 0 9.145-2.59 9.536-7.6v7.6h7.96V41.136h.076l4.743 17.525h6.276l4.743-17.525h.076v17.525h7.96V31.339zm-36.476 6.506h4.44c1.722 0 2.869.5 2.869 1.876 0 1.76-1.109 2.257-2.869 2.257h-4.44zm4.937 14.31h-4.937v-5.089h5.282c1.989 0 2.945.88 2.945 2.486 0 2.105-1.53 2.6-3.29 2.6M70.518 31.341h8.419v27.32h-8.419z"/>
  </g>
</svg>
