<svg xmlns="http://www.w3.org/2000/svg" viewBox="0 0 250.946 90">
  <defs>
    <style>
      .a{fill:#e2001a}.c{fill:#fff}
    </style>
  </defs>
  <path class="a" d="M118.875 39.049a3.917 3.917 0 01-4.207 3.793h-5.085v-7.047h5.4c2.773-.008 3.9.752 3.9 3.254m6.273-.881c-.369-5.727-3.942-7.226-10.2-7.223h-11.992v28.114h6.746V47.636h4.227c2.357.027 3.043 2.295 3.687 3.731l2.664 6.422s.434 1.27 1.463 1.27l6.885-.034c-1.67-1.3-2.9-5.305-3.6-6.983-1.62-3.852-2.632-6.906-4.545-7.184 3.285-1.265 4.893-3.066 4.662-6.69M214.452 41.157v.122a6.258 6.258 0 015.733-2.769c2.013 0 5.377.848 6.6 4.268a10.135 10.135 0 01.6 3.1v13.181h-5.751V46.878a3.212 3.212 0 00-3.521-3.513 3.278 3.278 0 00-3.285 3.513v12.177h-6.045V39.18h5.678zM134.68 50.692a4.308 4.308 0 004.414 4.325c1.886-.018 2.632-.486 3.87-1.983h5.662c-1.134 4.7-5.051 6.582-9.956 6.552-5.379-.029-10.128-3.911-10.128-10.68 0-6.087 3.715-10.761 10.128-10.761 3.941 0 7.013 1.354 8.775 4.9a13.3 13.3 0 011.282 3.7 13.035 13.035 0 01.2 3.94zm8.1-4.325c0-2.216-1.608-3.684-4.128-3.684a3.986 3.986 0 00-4.113 3.684zM166.705 56.907c-1.386 2.377-3.478 2.749-6.1 2.749-5.924 0-8.7-5.524-8.7-10.723 0-5.441 3.183-10.721 9.471-10.721a5.446 5.446 0 014.936 2.288l.015-9.291h5.9v27.848h-5.513zm-4.4-1.9c3.378-.016 4.354-3.288 4.354-6.07s-.925-5.936-4.192-5.94c-3.525 0-4.515 2.838-4.515 5.94s1.268 6.082 4.352 6.07M176.668 31.287h5.867v27.851h-5.867zM245.426 56.981c-1.386 2.379-3.478 2.749-6.1 2.749-5.925 0-8.708-5.522-8.708-10.723 0-5.439 3.185-10.72 9.473-10.72a5.433 5.433 0 014.933 2.289l.018-9.293h5.9v27.849h-5.516zm-4.4-1.9c3.38-.016 4.354-3.285 4.354-6.07s-.926-5.935-4.191-5.94c-3.525 0-4.518 2.835-4.518 5.94s1.269 6.086 4.354 6.07M199.247 52.016c0 1.143-1.057 3.4-4.462 3.383 0 0-3.105.165-3.105-2.271 0 0-.17-1.692 2.965-2.345 0 0 3.369-.711 4.608-1.17zm.037 5.687a5.64 5.64 0 00.521 1.431h5.761a3.88 3.88 0 01-.666-2.033V46.057c0-6.084-4.671-7.578-8.739-7.578a12.4 12.4 0 00-6.095 1.252 6.808 6.808 0 00-3.085 5.663h5.23c.008-.923.735-2.457 3.763-2.461 2.138 0 3.028.953 3.028 1.8 0 0 .183 1.355-2.218 1.533 0 0-4.947.83-5.925 1.19-4.079 1.359-4.782 4.05-4.774 5.82.02 4.185 3.255 6.534 7.043 6.534 2.745 0 4.4-.37 6.152-2.1z"/>
  <path fill="#009fe3" d="M0 0h90v90H0z"/>
  <g>
    <path class="c" d="M55.959 31.42l-3.903 16.077h-.076L48.075 31.42H36.099v18.252a6.583 6.583 0 00-4.715-6.044 5.629 5.629 0 003.368-5.358c0-2.794-1.53-6.85-8.724-6.85H11.07v27.322h15.493c4.609 0 9.144-2.59 9.535-7.6v7.6h7.96V41.217h.076l4.745 17.525h6.275l4.745-17.525h.076v17.525h7.96V31.42zm-36.474 6.5h4.439c1.722 0 2.87.5 2.87 1.876 0 1.76-1.11 2.257-2.87 2.257h-4.439zm4.937 14.31h-4.937v-5.083h5.285c1.989 0 2.945.88 2.945 2.486 0 2.105-1.53 2.6-3.29 2.6M70.523 31.422h8.419v27.32h-8.419z"/>
  </g>
</svg>
