<svg xmlns="http://www.w3.org/2000/svg" height="1em" viewBox="0 0 283.757 76.382"><defs><style>.a{fill:#009fe3;}</style></defs><path class="a" d="M44.137,17.776H88.526V29.957H58.836v12H81.907V53.765H58.836V67.051H90.667V79.325H44.137Z" transform="translate(-44.137 -17.776)"/><path class="a" d="M131.439,64.593,114.666,43h16.87l8.24,11.535L148.113,43h15.4L147.328,63.67l17.655,22.609h-16.87l-9.122-12.459-9.22,12.459h-15.4Z" transform="translate(-63.496 -24.729)"/><path class="a" d="M189.372,42.682h13.613q.2,1.2.3,2.354t.2,2.353a14.669,14.669,0,0,1,5.82-4.106,19.631,19.631,0,0,1,7.4-1.431,20.3,20.3,0,0,1,8.875,1.845,18.739,18.739,0,0,1,6.412,4.937,21.05,21.05,0,0,1,3.848,7.105A27.006,27.006,0,0,1,237.118,64a23.461,23.461,0,0,1-2.173,10.427,21.71,21.71,0,0,1-5.623,7.289,23.094,23.094,0,0,1-7.794,4.246,28.161,28.161,0,0,1-8.582,1.384,22.858,22.858,0,0,1-5.524-.554q-2.173-.553-3.946-1.107v15.111h-14.1Zm14.107,31.836q2.761,1.754,8.185,1.754A10.63,10.63,0,0,0,219.9,73a12.387,12.387,0,0,0,3.009-8.72,16.062,16.062,0,0,0-.543-4.153,10.392,10.392,0,0,0-1.677-3.549,8.288,8.288,0,0,0-2.96-2.446,9.89,9.89,0,0,0-4.491-.923,10.024,10.024,0,0,0-4.193.83,9.055,9.055,0,0,0-3.058,2.214,9.656,9.656,0,0,0-1.874,3.138,10.378,10.378,0,0,0-.642,3.6Z" transform="translate(-84.166 -24.411)"/><path class="a" d="M307.071,81.008q-.789.463-2.364,1.521a22.465,22.465,0,0,1-4.088,2.077,39.351,39.351,0,0,1-5.959,1.8,35.734,35.734,0,0,1-7.879.785,31.167,31.167,0,0,1-10.637-1.707,23.348,23.348,0,0,1-8.027-4.752,19.954,19.954,0,0,1-5.024-7.337,25.141,25.141,0,0,1-1.723-9.459A23.956,23.956,0,0,1,263,55.214a21.55,21.55,0,0,1,4.678-7.337,22.762,22.762,0,0,1,7.485-5.029,25.382,25.382,0,0,1,10.046-1.892,24.488,24.488,0,0,1,9.852,1.846,20.2,20.2,0,0,1,7.14,5.121,21.755,21.755,0,0,1,4.383,7.844,32.4,32.4,0,0,1,1.477,10.012V68h-32.9a8.083,8.083,0,0,0,3.3,6.137q3.2,2.629,8.815,2.629a22.406,22.406,0,0,0,8.963-1.521,31.372,31.372,0,0,0,5.023-2.63Zm-12.41-21.5a7.352,7.352,0,0,0-.59-2.815,8.217,8.217,0,0,0-1.773-2.63,9.5,9.5,0,0,0-2.955-1.984,10.431,10.431,0,0,0-4.235-.785,11.141,11.141,0,0,0-4.333.785,9.841,9.841,0,0,0-3.1,1.984,8.521,8.521,0,0,0-1.871,2.629,6.84,6.84,0,0,0-.64,2.815Z" transform="translate(-104.012 -24.164)"/><path class="a" d="M332.265,42.685h13.541l.49,5.444a20.62,20.62,0,0,1,4.858-4.244,14.331,14.331,0,0,1,8-2.028,23.521,23.521,0,0,1,3.187.185,12.94,12.94,0,0,1,2.6.645l-2.256,11.72a17.937,17.937,0,0,0-5.1-.646,11.554,11.554,0,0,0-8.1,2.815q-3.089,2.815-3.09,7.982V85.966h-14.13Z" transform="translate(-123.551 -24.413)"/><path class="a" d="M388.675,48.019h-7.3V37.593h7.3V23.381h14.209V37.593h11.94V48.019h-11.94V65.091a7.718,7.718,0,0,0,1.332,4.845,4.986,4.986,0,0,0,4.193,1.707,9.31,9.31,0,0,0,3.75-.692,19.326,19.326,0,0,0,2.961-1.615l5.723,8.12a23.984,23.984,0,0,1-14.6,4.984A22.464,22.464,0,0,1,397.95,81.1a13.285,13.285,0,0,1-8.387-9.366,28.555,28.555,0,0,1-.888-7.383Z" transform="translate(-137.086 -19.321)"/></svg>
