<svg xmlns="http://www.w3.org/2000/svg" height="1em" viewBox="0 0 176.504 63.128"><defs><style>.a{fill:#b1b1b1;}</style></defs><path class="a" d="M118.17,19.432h44.683V31.613H132.969v12h23.224V55.421H132.969V68.709h32.039V80.981H118.17Z" transform="translate(-118.17 -19.432)"/><path class="a" d="M192.527,19.432h13.288V80.981H192.527Z" transform="translate(-138.664 -19.432)"/><path class="a" d="M221.247,19.432h14.211v11.9H221.247Zm.461,18.272H235V80.981H221.708Z" transform="translate(-146.58 -19.432)"/><path class="a" d="M254.32,49.676h-7.043V39.245h7.043V25.037h13.705V39.249h11.518V49.68H268.025V66.747a7.926,7.926,0,0,0,1.285,4.845,4.727,4.727,0,0,0,4.046,1.707,8.7,8.7,0,0,0,3.617-.692,18.389,18.389,0,0,0,2.855-1.615l5.521,8.12A22.606,22.606,0,0,1,271.262,84.1a20.977,20.977,0,0,1-7.995-1.339,13.462,13.462,0,0,1-5.235-3.691,14.028,14.028,0,0,1-2.855-5.675,29.579,29.579,0,0,1-.856-7.382Z" transform="translate(-153.754 -20.977)"/><path class="a" d="M343.517,82.665q-.771.463-2.308,1.521a21.828,21.828,0,0,1-3.993,2.076,37.687,37.687,0,0,1-5.82,1.8,34.118,34.118,0,0,1-7.7.785,29.813,29.813,0,0,1-10.389-1.707,22.723,22.723,0,0,1-7.84-4.753,19.975,19.975,0,0,1-4.9-7.331,25.672,25.672,0,0,1-1.683-9.458,24.457,24.457,0,0,1,1.587-8.724,21.611,21.611,0,0,1,4.569-7.337,22.205,22.205,0,0,1,7.31-5.029,24.285,24.285,0,0,1,9.812-1.892,23.429,23.429,0,0,1,9.62,1.846,19.752,19.752,0,0,1,6.974,5.121,21.906,21.906,0,0,1,4.281,7.844,33.1,33.1,0,0,1,1.442,10.012v2.215H312.352a8.141,8.141,0,0,0,3.222,6.137q3.126,2.629,8.61,2.63a21.433,21.433,0,0,0,8.753-1.521,30.338,30.338,0,0,0,4.906-2.63ZM331.4,61.163a7.488,7.488,0,0,0-.579-2.814,8.231,8.231,0,0,0-1.731-2.63,9.271,9.271,0,0,0-2.886-1.984,9.983,9.983,0,0,0-4.137-.785,10.656,10.656,0,0,0-4.232.785,9.6,9.6,0,0,0-3.031,1.984,8.521,8.521,0,0,0-1.828,2.63,6.972,6.972,0,0,0-.625,2.814Z" transform="translate(-167.979 -25.821)"/></svg>
