<svg id="Partner" xmlns="http://www.w3.org/2000/svg" height="1em" viewBox="0 0 480 126">
  <g id="blue">
    <path d="M202.111,39.041a20.4353,20.4353,0,0,0-4.136-1.036,34.97705,34.97705,0,0,0-4.8-.285c-5.041,0-9.261,1.1-12.544,3.275a38.95018,38.95018,0,0,0-3.385,2.5l-.412-4.608H153.145v65.939h24.723V72.183c0-4.156,1.147-7.23,3.506-9.4,2.421-2.224,5.564-3.3,9.608-3.3a22.49264,22.49264,0,0,1,6.4.8l2.657.8,4.069-21.318Z" fill="#009fe3"/>
    <path d="M256.122,82.676,254.112,84a25.4907,25.4907,0,0,1-3.841,2.067,11.049,11.049,0,0,1-4.361.769c-2.875,0-3.74-1.094-4.025-1.454a8.46994,8.46994,0,0,1-1.362-5.272V58.571h17.041V38.89H240.523V18.88H215.244V38.89H204.823V58.571h10.421v20.5A42.447,42.447,0,0,0,216.6,90.12a21.98716,21.98716,0,0,0,4.773,9,22.48985,22.48985,0,0,0,8.7,5.858,35.03381,35.03381,0,0,0,12.745,2.059,37.129,37.129,0,0,0,22.32-7.5l1.993-1.46Z" fill="#009fe3"/>
    <path d="M329.265,44.374c-4.885-4.588-11.5-6.914-19.67-6.914a30.617,30.617,0,0,0-11.943,2.4,28.521,28.521,0,0,0-5.411,2.978l-.334-3.952H267.823v65.939h24.986V69.585a13.07449,13.07449,0,0,1,.7-4.309,9.431,9.431,0,0,1,1.993-3.351,9.976,9.976,0,0,1,3.359-2.328,12.10006,12.10006,0,0,1,4.866-.9,7.355,7.355,0,0,1,5.769,2.172,9.03789,9.03789,0,0,1,2.073,6.372v37.583h25.125V64.647C336.692,55.828,334.194,49.007,329.265,44.374Z" fill="#009fe3"/>
    <path d="M468.178,39.041a20.3856,20.3856,0,0,0-4.136-1.036,34.96558,34.96558,0,0,0-4.8-.285c-5.041,0-9.261,1.1-12.545,3.275a38.9433,38.9433,0,0,0-3.385,2.5L442.9,38.89H419.213v65.939h24.723V72.183c0-4.156,1.147-7.23,3.507-9.4,2.42-2.223,5.563-3.3,9.608-3.3a22.47285,22.47285,0,0,1,6.4.8l2.657.8,4.069-21.318Z" fill="#009fe3"/>
    <path d="M78.156,32.216a26.33956,26.33956,0,0,0-6.35-9.827A31.46518,31.46518,0,0,0,61.028,15.67a42.84164,42.84164,0,0,0-15.422-2.508H9.823v91.667H34.957V74.294H46.565a40.62953,40.62953,0,0,0,12.549-1.941,33.04632,33.04632,0,0,0,10.737-5.766,27.85734,27.85734,0,0,0,7.524-9.626A30.5996,30.5996,0,0,0,80.156,43.6,33.10914,33.10914,0,0,0,78.156,32.216ZM51.863,50.849v-.005c-1.769,1.745-4.175,2.593-7.353,2.593H34.957v-19.3h9.416a9.89281,9.89281,0,0,1,7.4,2.706,9.59989,9.59989,0,0,1,2.7,7.139A9.13194,9.13194,0,0,1,51.863,50.849Z" fill="#009fe3"/>
    <path d="M137.242,45.074c-5.128-5.483-13.023-8.264-23.468-8.264a67.91075,67.91075,0,0,0-10.6.746,55.24524,55.24524,0,0,0-8.394,1.978,39.16487,39.16487,0,0,0-6.59,2.782,55.51518,55.51518,0,0,0-4.878,3l-2.069,1.439L92.163,62.2l2.015-1.3A33.7091,33.7091,0,0,1,101,57.643a30.15065,30.15065,0,0,1,10.038-1.411,20.49247,20.49247,0,0,1,4.145.4,9.03035,9.03035,0,0,1,3.06,1.213,6.37278,6.37278,0,0,1,1.981,1.961,3.85958,3.85958,0,0,1,.473,1.126c-.522-.03-1.127-.059-1.829-.085-2.375-.087-4.733-.131-7.009-.131A48.48,48.48,0,0,0,99.507,62.23a31.73291,31.73291,0,0,0-10.182,4.6,22.8071,22.8071,0,0,0-6.99,7.8,22.10762,22.10762,0,0,0-2.564,10.679,20.32784,20.32784,0,0,0,2.464,10.356,19.8271,19.8271,0,0,0,6.115,6.6,24.30051,24.30051,0,0,0,7.786,3.4,33.75689,33.75689,0,0,0,19.847-1.141,25.62525,25.62525,0,0,0,5.355-2.832l.3,3.133H144.9V66.855C144.9,57.841,142.324,50.513,137.242,45.074ZM120.862,80.369a6.63439,6.63439,0,0,1-.773,3.321,7.94853,7.94853,0,0,1-2.14,2.484,10.5903,10.5903,0,0,1-3.218,1.623,12.71072,12.71072,0,0,1-3.833.6c-6.229,0-7.088-2.42-7.088-5.03595a4.514,4.514,0,0,1,2.28-4.135c1.28-.826,4.1-1.81,10.287-1.81,1.547,0,2.937.06195,4.132.183l.353.036Z" fill="#009fe3"/>
    <path d="M412.983,74.263A48.86138,48.86138,0,0,0,410.81,59.4a33.32123,33.32123,0,0,0-6.6-11.93,30.70012,30.70012,0,0,0-10.8-7.851,36.31237,36.31237,0,0,0-14.706-2.812,37.53407,37.53407,0,0,0-14.964,2.87,34.27812,34.27812,0,0,0-11.22,7.643,33.02726,33.02726,0,0,0-7.038,11.17,36.74679,36.74679,0,0,0-2.426,13.171A38.46976,38.46976,0,0,0,345.632,85.9a30.70906,30.70906,0,0,0,7.6,11.236,35.033,35.033,0,0,0,12.013,7.213,45.54464,45.54464,0,0,0,15.65,2.555,51.7399,51.7399,0,0,0,11.519-1.169,56.80652,56.80652,0,0,0,8.67005-2.654,33.66122,33.66122,0,0,0,6.147-3.172c1.412-.962,2.474-1.655,3.155-2.06l2.293-1.36L401.658,80.363l-2.076,1.478a41.55325,41.55325,0,0,1-6.556,3.458c-2.858,1.278-6.708,1.926-11.443,1.926-4.582,0-8.168-1.051-10.661-3.125a10.20765,10.20765,0,0,1-3.194-4.219h45.255ZM367.725,62.928c.057-.15.119-.3.188-.454a9.53162,9.53162,0,0,1,2.072-2.933,11.23553,11.23553,0,0,1,3.535-2.272,12.93494,12.93494,0,0,1,5.05-.906,11.9431,11.9431,0,0,1,4.866.886,10.76307,10.76307,0,0,1,3.34,2.255,9.12355,9.12355,0,0,1,1.942,2.905c.072.174.136.347.2.519Z" fill="#009fe3"/>
  </g>
  <g id="white">
    <path d="M75.807,33.071a23.75657,23.75657,0,0,0-5.752-8.9A28.88349,28.88349,0,0,0,60.125,18a40.19159,40.19159,0,0,0-14.519-2.338H12.323v86.667H32.457V71.794H46.565a37.95085,37.95085,0,0,0,11.779-1.819,30.46158,30.46158,0,0,0,9.93-5.327,25.25741,25.25741,0,0,0,6.848-8.771A28.0073,28.0073,0,0,0,77.656,43.6,30.46578,30.46578,0,0,0,75.807,33.071ZM53.619,52.631Q50.263,55.944,44.51,55.944H32.457v-24.3H44.373A12.368,12.368,0,0,1,53.55,35.09a12.0898,12.0898,0,0,1,3.424,8.9A11.61,11.61,0,0,1,53.619,52.631Z" fill="#fff"/>
    <path d="M142.4,66.856q-.003-12.607-6.989-20.077t-21.641-7.47a65.10854,65.10854,0,0,0-10.2.714,52.33545,52.33545,0,0,0-8.012,1.884,36.51978,36.51978,0,0,0-6.164,2.6,52.36028,52.36028,0,0,0-4.656,2.859L92.819,58.8a35.998,35.998,0,0,1,7.335-3.515,32.43753,32.43753,0,0,1,10.889-1.559,22.90633,22.90633,0,0,1,4.657.455,11.47263,11.47263,0,0,1,3.9,1.559,8.90044,8.90044,0,0,1,2.74,2.728,7.27194,7.27194,0,0,1,1.027,3.963v1.3a29.91914,29.91914,0,0,0-4.588-.39q-3.495-.13-6.917-.13a45.72919,45.72919,0,0,0-11.711,1.43,29.05473,29.05473,0,0,0-9.382,4.222A20.21849,20.21849,0,0,0,84.537,75.814a19.54734,19.54734,0,0,0-2.26,9.486A17.78993,17.78993,0,0,0,84.4,94.4a17.24775,17.24775,0,0,0,5.336,5.785,21.66085,21.66085,0,0,0,6.986,3.053,31.25083,31.25083,0,0,0,18.353-1.039,21.46132,21.46132,0,0,0,8.287-5.588l.548,5.718h18.491ZM123.362,80.369a9.13432,9.13432,0,0,1-1.095,4.548,10.48777,10.48777,0,0,1-2.809,3.249,12.95522,12.95522,0,0,1-3.972,2.014,15.10993,15.10993,0,0,1-4.588.714q-9.588.001-9.588-7.536a7.01506,7.01506,0,0,1,3.425-6.237q3.424-2.209,11.642-2.209a43.31944,43.31944,0,0,1,4.385.195q1.913.196,2.6.325Z" fill="#fff"/>
    <path d="M198.105,57.891a24.83569,24.83569,0,0,0-7.123-.909q-6.984,0-11.3,3.962t-4.315,11.24v30.145H155.645V41.389h18.9l.685,7.666a28.85577,28.85577,0,0,1,6.78-5.976q4.314-2.858,11.163-2.859a32.62309,32.62309,0,0,1,4.451.26,17.91914,17.91914,0,0,1,3.63.909Z" fill="#fff"/>
    <path d="M242.812,104.538a32.47014,32.47014,0,0,1-11.83-1.885,19.94389,19.94389,0,0,1-7.746-5.2,19.41393,19.41393,0,0,1-4.225-7.991,39.74625,39.74625,0,0,1-1.267-10.394v-23H207.323V41.389h10.421V21.379h20.279v20.01h17.041V56.071H238.023V80.109q0,4.421,1.9,6.822t5.986,2.4a13.444,13.444,0,0,0,5.352-.974,27.7995,27.7995,0,0,0,4.225-2.274l8.168,11.434a34.535,34.535,0,0,1-20.842,7.021Z" fill="#fff"/>
    <path d="M334.193,102.329H314.067V67.246a11.50007,11.50007,0,0,0-2.725-8.056,9.794,9.794,0,0,0-7.617-2.988,14.5,14.5,0,0,0-5.87,1.105,12.411,12.411,0,0,0-4.193,2.923,11.98629,11.98629,0,0,0-2.515,4.222,15.48271,15.48271,0,0,0-.839,5.133v32.744H270.323V41.389h19.286l.56,6.627a22.9739,22.9739,0,0,1,8.455-5.848A27.99107,27.99107,0,0,1,309.6,39.96q11.32,0,17.959,6.236t6.639,18.452Z" fill="#fff"/>
    <path d="M410.48309,74.263a46.129,46.129,0,0,0-2.055-14.1,30.71479,30.71479,0,0,0-6.095-11.044,28.10037,28.10037,0,0,0-9.93-7.211,33.679,33.679,0,0,0-13.7-2.6,34.91812,34.91812,0,0,0-13.971,2.663,31.66369,31.66369,0,0,0-10.409,7.081,30.40006,30.40006,0,0,0-6.506,10.33,34.10748,34.10748,0,0,0-2.26,12.27905,35.79977,35.79977,0,0,0,2.4,13.318,28.09387,28.09387,0,0,0,6.985,10.33,32.40726,32.40726,0,0,0,11.163,6.692,42.87059,42.87059,0,0,0,14.793,2.4,49.1289,49.1289,0,0,0,10.957-1.1,54.14938,54.14938,0,0,0,8.287-2.53295,31.10238,31.10238,0,0,0,5.684-2.924q2.18793-1.493,3.288-2.144l-8.082-11.821a43.50914,43.50914,0,0,1-6.985,3.7q-4.79408,2.143-12.465,2.143-7.804.001-12.258-3.7t-4.589-8.641h45.748ZM364.739,65.424a9.73344,9.73344,0,0,1,.89-3.963,12.00122,12.00122,0,0,1,2.6-3.7,13.66185,13.66185,0,0,1,4.314-2.793,15.34089,15.34089,0,0,1,6.027-1.105,14.35451,14.35451,0,0,1,5.889,1.105,13.18394,13.18394,0,0,1,4.109,2.793,11.54188,11.54188,0,0,1,2.469,3.7,10.44352,10.44352,0,0,1,.822,3.963Z" fill="#fff"/>
    <path d="M464.178,57.891a24.83385,24.83385,0,0,0-7.122-.909q-6.987,0-11.3,3.962t-4.315,11.24v30.145H421.713V41.389h18.9l.684,7.666a28.85641,28.85641,0,0,1,6.78-5.976q4.315-2.858,11.163-2.859a32.63263,32.63263,0,0,1,4.451.26,17.919,17.919,0,0,1,3.63.909Z" fill="#fff"/>
  </g>
</svg>
