<svg xmlns="http://www.w3.org/2000/svg" viewBox="0 0 250.695 90">
  <defs>
    <style>
      .a{fill:#e2001a}.c{fill:#fff}
    </style>
  </defs>
  <path class="a" d="M127.805 30.929l-16.4 23.892h16.479v4.251H102.06l16.38-23.895h-15.39v-4.248zM146.798 30.929l12.43 28.143h-5.741l-2.922-6.849h-12.506l-2.72 6.849h-5.7l11.6-28.143zm-7.091 17.164h9.085l-4.755-11.141zM166.784 30.929l16.722 19.642V30.929h5.319v28.143h-4.671l-16.822-19.964v19.964h-5.318V30.929zM205.76 30.929a16.605 16.605 0 017.817 1.792 13 13 0 015.319 5.036 14.2 14.2 0 011.893 7.29 14.022 14.022 0 01-1.9 7.324 12.788 12.788 0 01-5.409 4.946 17.741 17.741 0 01-8.038 1.755h-11.467V30.929zm-.564 23.892a9.831 9.831 0 007.243-2.709 9.564 9.564 0 002.73-7.1 9.5 9.5 0 00-2.75-7.192 10.244 10.244 0 00-7.4-2.639h-5.6v19.64zM238.265 30.929l12.43 28.143h-5.74l-2.921-6.849h-12.51l-2.72 6.849h-5.7l11.6-28.143zm-7.09 17.164h9.09l-4.754-11.141z"/>
  <path fill="#009fe3" d="M0 0h90v90H0z"/>
  <g>
    <path class="c" d="M55.959 31.42l-3.903 16.077h-.076L48.075 31.42H36.099v18.252a6.583 6.583 0 00-4.715-6.044 5.629 5.629 0 003.368-5.358c0-2.794-1.53-6.85-8.724-6.85H11.07v27.322h15.493c4.609 0 9.144-2.59 9.535-7.6v7.6h7.96V41.217h.076l4.745 17.525h6.275l4.745-17.525h.076v17.525h7.96V31.42zm-36.474 6.5h4.439c1.722 0 2.87.5 2.87 1.876 0 1.76-1.11 2.257-2.87 2.257h-4.439zm4.937 14.31h-4.937v-5.083h5.285c1.989 0 2.945.88 2.945 2.486 0 2.105-1.53 2.6-3.29 2.6M70.523 31.422h8.419v27.32h-8.419z"/>
  </g>
</svg>
